<?xml version="1.0" encoding="UTF-8" standalone="no"?>
<svg width="400" height="400" viewBox="0 0 400 400" version="1.1" xmlns="http://www.w3.org/2000/svg" xmlns:xlink="http://www.w3.org/1999/xlink">

    
    <rect id="Background" x="0" y="0" width="400" height="400" fill="#f9f9ff"></rect>
    
<polygon points="0,20 0,0 20,0" fill="#7678ED" class="Fill"></polygon><polygon points="80,100 100,100 100,80" fill="#7678ED" class="Fill"></polygon><polygon points="0,80 0,100 20,100" fill="#7678ED" class="Fill"></polygon><polygon points="80,0 100,0 100,20" fill="#7678ED" class="Fill"></polygon><line x1="35" y1="35" x2="65" y2="65" stroke-width="6" stroke-linecap="round" stroke="#3D348B" class="Stroke Dark"></line><line x1="35" y1="65" x2="65" y2="35" stroke-width="6" stroke-linecap="round" stroke="#3D348B" class="Stroke Dark"></line><polygon points="0,120 0,100 20,100" fill="#7678ED" class="Fill"></polygon><polygon points="80,200 100,200 100,180" fill="#7678ED" class="Fill"></polygon><polygon points="0,180 0,200 20,200" fill="#7678ED" class="Fill"></polygon><polygon points="80,100 100,100 100,120" fill="#7678ED" class="Fill"></polygon><line x1="35" y1="135" x2="65" y2="165" stroke-width="6" stroke-linecap="round" stroke="#3D348B" class="Stroke Dark"></line><line x1="35" y1="165" x2="65" y2="135" stroke-width="6" stroke-linecap="round" stroke="#3D348B" class="Stroke Dark"></line><polygon points="0,220 0,200 20,200" fill="#7678ED" class="Fill"></polygon><polygon points="80,300 100,300 100,280" fill="#7678ED" class="Fill"></polygon><polygon points="0,280 0,300 20,300" fill="#7678ED" class="Fill"></polygon><polygon points="80,200 100,200 100,220" fill="#7678ED" class="Fill"></polygon><line x1="35" y1="235" x2="65" y2="265" stroke-width="6" stroke-linecap="round" stroke="#3D348B" class="Stroke Dark"></line><line x1="35" y1="265" x2="65" y2="235" stroke-width="6" stroke-linecap="round" stroke="#3D348B" class="Stroke Dark"></line><polygon points="0,320 0,300 20,300" fill="#7678ED" class="Fill"></polygon><polygon points="80,400 100,400 100,380" fill="#7678ED" class="Fill"></polygon><polygon points="0,380 0,400 20,400" fill="#7678ED" class="Fill"></polygon><polygon points="80,300 100,300 100,320" fill="#7678ED" class="Fill"></polygon><line x1="35" y1="335" x2="65" y2="365" stroke-width="6" stroke-linecap="round" stroke="#3D348B" class="Stroke Dark"></line><line x1="35" y1="365" x2="65" y2="335" stroke-width="6" stroke-linecap="round" stroke="#3D348B" class="Stroke Dark"></line><polygon points="0,420 0,400 20,400" fill="#7678ED" class="Fill"></polygon><polygon points="80,500 100,500 100,480" fill="#7678ED" class="Fill"></polygon><polygon points="0,480 0,500 20,500" fill="#7678ED" class="Fill"></polygon><polygon points="80,400 100,400 100,420" fill="#7678ED" class="Fill"></polygon><line x1="35" y1="435" x2="65" y2="465" stroke-width="6" stroke-linecap="round" stroke="#3D348B" class="Stroke Dark"></line><line x1="35" y1="465" x2="65" y2="435" stroke-width="6" stroke-linecap="round" stroke="#3D348B" class="Stroke Dark"></line><polygon points="100,20 100,0 120,0" fill="#7678ED" class="Fill"></polygon><polygon points="180,100 200,100 200,80" fill="#7678ED" class="Fill"></polygon><polygon points="100,80 100,100 120,100" fill="#7678ED" class="Fill"></polygon><polygon points="180,0 200,0 200,20" fill="#7678ED" class="Fill"></polygon><line x1="135" y1="35" x2="165" y2="65" stroke-width="6" stroke-linecap="round" stroke="#3D348B" class="Stroke Dark"></line><line x1="135" y1="65" x2="165" y2="35" stroke-width="6" stroke-linecap="round" stroke="#3D348B" class="Stroke Dark"></line><polygon points="100,120 100,100 120,100" fill="#7678ED" class="Fill"></polygon><polygon points="180,200 200,200 200,180" fill="#7678ED" class="Fill"></polygon><polygon points="100,180 100,200 120,200" fill="#7678ED" class="Fill"></polygon><polygon points="180,100 200,100 200,120" fill="#7678ED" class="Fill"></polygon><line x1="135" y1="135" x2="165" y2="165" stroke-width="6" stroke-linecap="round" stroke="#3D348B" class="Stroke Dark"></line><line x1="135" y1="165" x2="165" y2="135" stroke-width="6" stroke-linecap="round" stroke="#3D348B" class="Stroke Dark"></line><polygon points="100,220 100,200 120,200" fill="#7678ED" class="Fill"></polygon><polygon points="180,300 200,300 200,280" fill="#7678ED" class="Fill"></polygon><polygon points="100,280 100,300 120,300" fill="#7678ED" class="Fill"></polygon><polygon points="180,200 200,200 200,220" fill="#7678ED" class="Fill"></polygon><line x1="135" y1="235" x2="165" y2="265" stroke-width="6" stroke-linecap="round" stroke="#3D348B" class="Stroke Dark"></line><line x1="135" y1="265" x2="165" y2="235" stroke-width="6" stroke-linecap="round" stroke="#3D348B" class="Stroke Dark"></line><polygon points="100,320 100,300 120,300" fill="#7678ED" class="Fill"></polygon><polygon points="180,400 200,400 200,380" fill="#7678ED" class="Fill"></polygon><polygon points="100,380 100,400 120,400" fill="#7678ED" class="Fill"></polygon><polygon points="180,300 200,300 200,320" fill="#7678ED" class="Fill"></polygon><line x1="135" y1="335" x2="165" y2="365" stroke-width="6" stroke-linecap="round" stroke="#3D348B" class="Stroke Dark"></line><line x1="135" y1="365" x2="165" y2="335" stroke-width="6" stroke-linecap="round" stroke="#3D348B" class="Stroke Dark"></line><polygon points="100,420 100,400 120,400" fill="#7678ED" class="Fill"></polygon><polygon points="180,500 200,500 200,480" fill="#7678ED" class="Fill"></polygon><polygon points="100,480 100,500 120,500" fill="#7678ED" class="Fill"></polygon><polygon points="180,400 200,400 200,420" fill="#7678ED" class="Fill"></polygon><line x1="135" y1="435" x2="165" y2="465" stroke-width="6" stroke-linecap="round" stroke="#3D348B" class="Stroke Dark"></line><line x1="135" y1="465" x2="165" y2="435" stroke-width="6" stroke-linecap="round" stroke="#3D348B" class="Stroke Dark"></line><polygon points="200,20 200,0 220,0" fill="#7678ED" class="Fill"></polygon><polygon points="280,100 300,100 300,80" fill="#7678ED" class="Fill"></polygon><polygon points="200,80 200,100 220,100" fill="#7678ED" class="Fill"></polygon><polygon points="280,0 300,0 300,20" fill="#7678ED" class="Fill"></polygon><line x1="235" y1="35" x2="265" y2="65" stroke-width="6" stroke-linecap="round" stroke="#3D348B" class="Stroke Dark"></line><line x1="235" y1="65" x2="265" y2="35" stroke-width="6" stroke-linecap="round" stroke="#3D348B" class="Stroke Dark"></line><polygon points="200,120 200,100 220,100" fill="#7678ED" class="Fill"></polygon><polygon points="280,200 300,200 300,180" fill="#7678ED" class="Fill"></polygon><polygon points="200,180 200,200 220,200" fill="#7678ED" class="Fill"></polygon><polygon points="280,100 300,100 300,120" fill="#7678ED" class="Fill"></polygon><line x1="235" y1="135" x2="265" y2="165" stroke-width="6" stroke-linecap="round" stroke="#3D348B" class="Stroke Dark"></line><line x1="235" y1="165" x2="265" y2="135" stroke-width="6" stroke-linecap="round" stroke="#3D348B" class="Stroke Dark"></line><polygon points="200,220 200,200 220,200" fill="#7678ED" class="Fill"></polygon><polygon points="280,300 300,300 300,280" fill="#7678ED" class="Fill"></polygon><polygon points="200,280 200,300 220,300" fill="#7678ED" class="Fill"></polygon><polygon points="280,200 300,200 300,220" fill="#7678ED" class="Fill"></polygon><line x1="235" y1="235" x2="265" y2="265" stroke-width="6" stroke-linecap="round" stroke="#3D348B" class="Stroke Dark"></line><line x1="235" y1="265" x2="265" y2="235" stroke-width="6" stroke-linecap="round" stroke="#3D348B" class="Stroke Dark"></line><polygon points="200,320 200,300 220,300" fill="#7678ED" class="Fill"></polygon><polygon points="280,400 300,400 300,380" fill="#7678ED" class="Fill"></polygon><polygon points="200,380 200,400 220,400" fill="#7678ED" class="Fill"></polygon><polygon points="280,300 300,300 300,320" fill="#7678ED" class="Fill"></polygon><line x1="235" y1="335" x2="265" y2="365" stroke-width="6" stroke-linecap="round" stroke="#3D348B" class="Stroke Dark"></line><line x1="235" y1="365" x2="265" y2="335" stroke-width="6" stroke-linecap="round" stroke="#3D348B" class="Stroke Dark"></line><polygon points="200,420 200,400 220,400" fill="#7678ED" class="Fill"></polygon><polygon points="280,500 300,500 300,480" fill="#7678ED" class="Fill"></polygon><polygon points="200,480 200,500 220,500" fill="#7678ED" class="Fill"></polygon><polygon points="280,400 300,400 300,420" fill="#7678ED" class="Fill"></polygon><line x1="235" y1="435" x2="265" y2="465" stroke-width="6" stroke-linecap="round" stroke="#3D348B" class="Stroke Dark"></line><line x1="235" y1="465" x2="265" y2="435" stroke-width="6" stroke-linecap="round" stroke="#3D348B" class="Stroke Dark"></line><polygon points="300,20 300,0 320,0" fill="#7678ED" class="Fill"></polygon><polygon points="380,100 400,100 400,80" fill="#7678ED" class="Fill"></polygon><polygon points="300,80 300,100 320,100" fill="#7678ED" class="Fill"></polygon><polygon points="380,0 400,0 400,20" fill="#7678ED" class="Fill"></polygon><line x1="335" y1="35" x2="365" y2="65" stroke-width="6" stroke-linecap="round" stroke="#3D348B" class="Stroke Dark"></line><line x1="335" y1="65" x2="365" y2="35" stroke-width="6" stroke-linecap="round" stroke="#3D348B" class="Stroke Dark"></line><polygon points="300,120 300,100 320,100" fill="#7678ED" class="Fill"></polygon><polygon points="380,200 400,200 400,180" fill="#7678ED" class="Fill"></polygon><polygon points="300,180 300,200 320,200" fill="#7678ED" class="Fill"></polygon><polygon points="380,100 400,100 400,120" fill="#7678ED" class="Fill"></polygon><line x1="335" y1="135" x2="365" y2="165" stroke-width="6" stroke-linecap="round" stroke="#3D348B" class="Stroke Dark"></line><line x1="335" y1="165" x2="365" y2="135" stroke-width="6" stroke-linecap="round" stroke="#3D348B" class="Stroke Dark"></line><polygon points="300,220 300,200 320,200" fill="#7678ED" class="Fill"></polygon><polygon points="380,300 400,300 400,280" fill="#7678ED" class="Fill"></polygon><polygon points="300,280 300,300 320,300" fill="#7678ED" class="Fill"></polygon><polygon points="380,200 400,200 400,220" fill="#7678ED" class="Fill"></polygon><line x1="335" y1="235" x2="365" y2="265" stroke-width="6" stroke-linecap="round" stroke="#3D348B" class="Stroke Dark"></line><line x1="335" y1="265" x2="365" y2="235" stroke-width="6" stroke-linecap="round" stroke="#3D348B" class="Stroke Dark"></line><polygon points="300,320 300,300 320,300" fill="#7678ED" class="Fill"></polygon><polygon points="380,400 400,400 400,380" fill="#7678ED" class="Fill"></polygon><polygon points="300,380 300,400 320,400" fill="#7678ED" class="Fill"></polygon><polygon points="380,300 400,300 400,320" fill="#7678ED" class="Fill"></polygon><line x1="335" y1="335" x2="365" y2="365" stroke-width="6" stroke-linecap="round" stroke="#3D348B" class="Stroke Dark"></line><line x1="335" y1="365" x2="365" y2="335" stroke-width="6" stroke-linecap="round" stroke="#3D348B" class="Stroke Dark"></line><polygon points="300,420 300,400 320,400" fill="#7678ED" class="Fill"></polygon><polygon points="380,500 400,500 400,480" fill="#7678ED" class="Fill"></polygon><polygon points="300,480 300,500 320,500" fill="#7678ED" class="Fill"></polygon><polygon points="380,400 400,400 400,420" fill="#7678ED" class="Fill"></polygon><line x1="335" y1="435" x2="365" y2="465" stroke-width="6" stroke-linecap="round" stroke="#3D348B" class="Stroke Dark"></line><line x1="335" y1="465" x2="365" y2="435" stroke-width="6" stroke-linecap="round" stroke="#3D348B" class="Stroke Dark"></line><polygon points="400,20 400,0 420,0" fill="#7678ED" class="Fill"></polygon><polygon points="480,100 500,100 500,80" fill="#7678ED" class="Fill"></polygon><polygon points="400,80 400,100 420,100" fill="#7678ED" class="Fill"></polygon><polygon points="480,0 500,0 500,20" fill="#7678ED" class="Fill"></polygon><line x1="435" y1="35" x2="465" y2="65" stroke-width="6" stroke-linecap="round" stroke="#3D348B" class="Stroke Dark"></line><line x1="435" y1="65" x2="465" y2="35" stroke-width="6" stroke-linecap="round" stroke="#3D348B" class="Stroke Dark"></line><polygon points="400,120 400,100 420,100" fill="#7678ED" class="Fill"></polygon><polygon points="480,200 500,200 500,180" fill="#7678ED" class="Fill"></polygon><polygon points="400,180 400,200 420,200" fill="#7678ED" class="Fill"></polygon><polygon points="480,100 500,100 500,120" fill="#7678ED" class="Fill"></polygon><line x1="435" y1="135" x2="465" y2="165" stroke-width="6" stroke-linecap="round" stroke="#3D348B" class="Stroke Dark"></line><line x1="435" y1="165" x2="465" y2="135" stroke-width="6" stroke-linecap="round" stroke="#3D348B" class="Stroke Dark"></line><polygon points="400,220 400,200 420,200" fill="#7678ED" class="Fill"></polygon><polygon points="480,300 500,300 500,280" fill="#7678ED" class="Fill"></polygon><polygon points="400,280 400,300 420,300" fill="#7678ED" class="Fill"></polygon><polygon points="480,200 500,200 500,220" fill="#7678ED" class="Fill"></polygon><line x1="435" y1="235" x2="465" y2="265" stroke-width="6" stroke-linecap="round" stroke="#3D348B" class="Stroke Dark"></line><line x1="435" y1="265" x2="465" y2="235" stroke-width="6" stroke-linecap="round" stroke="#3D348B" class="Stroke Dark"></line><polygon points="400,320 400,300 420,300" fill="#7678ED" class="Fill"></polygon><polygon points="480,400 500,400 500,380" fill="#7678ED" class="Fill"></polygon><polygon points="400,380 400,400 420,400" fill="#7678ED" class="Fill"></polygon><polygon points="480,300 500,300 500,320" fill="#7678ED" class="Fill"></polygon><line x1="435" y1="335" x2="465" y2="365" stroke-width="6" stroke-linecap="round" stroke="#3D348B" class="Stroke Dark"></line><line x1="435" y1="365" x2="465" y2="335" stroke-width="6" stroke-linecap="round" stroke="#3D348B" class="Stroke Dark"></line><polygon points="400,420 400,400 420,400" fill="#7678ED" class="Fill"></polygon><polygon points="480,500 500,500 500,480" fill="#7678ED" class="Fill"></polygon><polygon points="400,480 400,500 420,500" fill="#7678ED" class="Fill"></polygon><polygon points="480,400 500,400 500,420" fill="#7678ED" class="Fill"></polygon><line x1="435" y1="435" x2="465" y2="465" stroke-width="6" stroke-linecap="round" stroke="#3D348B" class="Stroke Dark"></line><line x1="435" y1="465" x2="465" y2="435" stroke-width="6" stroke-linecap="round" stroke="#3D348B" class="Stroke Dark"></line></svg>