<?xml version="1.0" encoding="UTF-8" standalone="no"?>
<svg width="400" height="400" viewBox="0 0 400 400" version="1.1" xmlns="http://www.w3.org/2000/svg" xmlns:xlink="http://www.w3.org/1999/xlink">
    
    <rect id="Background" x="0" y="0" width="400" height="400" fill="#f9f9ff"></rect>
    
<circle cx="0.5" cy="0.5" r="21" stroke-width="6" fill="none" stroke="#3D348B" class="Stroke Dark"></circle><circle cx="100.5" cy="0.5" r="21" stroke-width="6" fill="none" stroke="#3D348B" class="Stroke Dark"></circle><circle cx="0.5" cy="100.5" r="21" stroke-width="6" fill="none" stroke="#3D348B" class="Stroke Dark"></circle><circle cx="100.5" cy="100.5" r="21" stroke-width="6" fill="none" stroke="#3D348B" class="Stroke Dark"></circle><circle cx="50.5" cy="50.5" r="21" stroke="#7678ED" stroke-width="6" fill="none" class="Stroke"></circle><circle cx="0.5" cy="100.5" r="21" stroke-width="6" fill="none" stroke="#3D348B" class="Stroke Dark"></circle><circle cx="100.5" cy="100.5" r="21" stroke-width="6" fill="none" stroke="#3D348B" class="Stroke Dark"></circle><circle cx="0.5" cy="200.5" r="21" stroke-width="6" fill="none" stroke="#3D348B" class="Stroke Dark"></circle><circle cx="100.5" cy="200.5" r="21" stroke-width="6" fill="none" stroke="#3D348B" class="Stroke Dark"></circle><circle cx="50.5" cy="150.5" r="21" stroke="#7678ED" stroke-width="6" fill="none" class="Stroke"></circle><circle cx="0.5" cy="200.5" r="21" stroke-width="6" fill="none" stroke="#3D348B" class="Stroke Dark"></circle><circle cx="100.5" cy="200.5" r="21" stroke-width="6" fill="none" stroke="#3D348B" class="Stroke Dark"></circle><circle cx="0.5" cy="300.5" r="21" stroke-width="6" fill="none" stroke="#3D348B" class="Stroke Dark"></circle><circle cx="100.5" cy="300.5" r="21" stroke-width="6" fill="none" stroke="#3D348B" class="Stroke Dark"></circle><circle cx="50.5" cy="250.5" r="21" stroke="#7678ED" stroke-width="6" fill="none" class="Stroke"></circle><circle cx="0.5" cy="300.5" r="21" stroke-width="6" fill="none" stroke="#3D348B" class="Stroke Dark"></circle><circle cx="100.5" cy="300.5" r="21" stroke-width="6" fill="none" stroke="#3D348B" class="Stroke Dark"></circle><circle cx="0.5" cy="400.5" r="21" stroke-width="6" fill="none" stroke="#3D348B" class="Stroke Dark"></circle><circle cx="100.5" cy="400.5" r="21" stroke-width="6" fill="none" stroke="#3D348B" class="Stroke Dark"></circle><circle cx="50.5" cy="350.5" r="21" stroke="#7678ED" stroke-width="6" fill="none" class="Stroke"></circle><circle cx="0.5" cy="400.5" r="21" stroke-width="6" fill="none" stroke="#3D348B" class="Stroke Dark"></circle><circle cx="100.5" cy="400.5" r="21" stroke-width="6" fill="none" stroke="#3D348B" class="Stroke Dark"></circle><circle cx="0.5" cy="500.5" r="21" stroke-width="6" fill="none" stroke="#3D348B" class="Stroke Dark"></circle><circle cx="100.5" cy="500.5" r="21" stroke-width="6" fill="none" stroke="#3D348B" class="Stroke Dark"></circle><circle cx="50.5" cy="450.5" r="21" stroke="#7678ED" stroke-width="6" fill="none" class="Stroke"></circle><circle cx="100.5" cy="0.5" r="21" stroke-width="6" fill="none" stroke="#3D348B" class="Stroke Dark"></circle><circle cx="200.5" cy="0.5" r="21" stroke-width="6" fill="none" stroke="#3D348B" class="Stroke Dark"></circle><circle cx="100.5" cy="100.5" r="21" stroke-width="6" fill="none" stroke="#3D348B" class="Stroke Dark"></circle><circle cx="200.5" cy="100.5" r="21" stroke-width="6" fill="none" stroke="#3D348B" class="Stroke Dark"></circle><circle cx="150.5" cy="50.5" r="21" stroke="#7678ED" stroke-width="6" fill="none" class="Stroke"></circle><circle cx="100.5" cy="100.5" r="21" stroke-width="6" fill="none" stroke="#3D348B" class="Stroke Dark"></circle><circle cx="200.5" cy="100.5" r="21" stroke-width="6" fill="none" stroke="#3D348B" class="Stroke Dark"></circle><circle cx="100.5" cy="200.5" r="21" stroke-width="6" fill="none" stroke="#3D348B" class="Stroke Dark"></circle><circle cx="200.5" cy="200.5" r="21" stroke-width="6" fill="none" stroke="#3D348B" class="Stroke Dark"></circle><circle cx="150.5" cy="150.5" r="21" stroke="#7678ED" stroke-width="6" fill="none" class="Stroke"></circle><circle cx="100.5" cy="200.5" r="21" stroke-width="6" fill="none" stroke="#3D348B" class="Stroke Dark"></circle><circle cx="200.5" cy="200.5" r="21" stroke-width="6" fill="none" stroke="#3D348B" class="Stroke Dark"></circle><circle cx="100.5" cy="300.5" r="21" stroke-width="6" fill="none" stroke="#3D348B" class="Stroke Dark"></circle><circle cx="200.5" cy="300.5" r="21" stroke-width="6" fill="none" stroke="#3D348B" class="Stroke Dark"></circle><circle cx="150.5" cy="250.5" r="21" stroke="#7678ED" stroke-width="6" fill="none" class="Stroke"></circle><circle cx="100.5" cy="300.5" r="21" stroke-width="6" fill="none" stroke="#3D348B" class="Stroke Dark"></circle><circle cx="200.5" cy="300.5" r="21" stroke-width="6" fill="none" stroke="#3D348B" class="Stroke Dark"></circle><circle cx="100.5" cy="400.5" r="21" stroke-width="6" fill="none" stroke="#3D348B" class="Stroke Dark"></circle><circle cx="200.5" cy="400.5" r="21" stroke-width="6" fill="none" stroke="#3D348B" class="Stroke Dark"></circle><circle cx="150.5" cy="350.5" r="21" stroke="#7678ED" stroke-width="6" fill="none" class="Stroke"></circle><circle cx="100.5" cy="400.5" r="21" stroke-width="6" fill="none" stroke="#3D348B" class="Stroke Dark"></circle><circle cx="200.5" cy="400.5" r="21" stroke-width="6" fill="none" stroke="#3D348B" class="Stroke Dark"></circle><circle cx="100.5" cy="500.5" r="21" stroke-width="6" fill="none" stroke="#3D348B" class="Stroke Dark"></circle><circle cx="200.5" cy="500.5" r="21" stroke-width="6" fill="none" stroke="#3D348B" class="Stroke Dark"></circle><circle cx="150.5" cy="450.5" r="21" stroke="#7678ED" stroke-width="6" fill="none" class="Stroke"></circle><circle cx="200.5" cy="0.5" r="21" stroke-width="6" fill="none" stroke="#3D348B" class="Stroke Dark"></circle><circle cx="300.5" cy="0.5" r="21" stroke-width="6" fill="none" stroke="#3D348B" class="Stroke Dark"></circle><circle cx="200.5" cy="100.5" r="21" stroke-width="6" fill="none" stroke="#3D348B" class="Stroke Dark"></circle><circle cx="300.5" cy="100.5" r="21" stroke-width="6" fill="none" stroke="#3D348B" class="Stroke Dark"></circle><circle cx="250.5" cy="50.5" r="21" stroke="#7678ED" stroke-width="6" fill="none" class="Stroke"></circle><circle cx="200.5" cy="100.5" r="21" stroke-width="6" fill="none" stroke="#3D348B" class="Stroke Dark"></circle><circle cx="300.5" cy="100.5" r="21" stroke-width="6" fill="none" stroke="#3D348B" class="Stroke Dark"></circle><circle cx="200.5" cy="200.5" r="21" stroke-width="6" fill="none" stroke="#3D348B" class="Stroke Dark"></circle><circle cx="300.5" cy="200.5" r="21" stroke-width="6" fill="none" stroke="#3D348B" class="Stroke Dark"></circle><circle cx="250.5" cy="150.5" r="21" stroke="#7678ED" stroke-width="6" fill="none" class="Stroke"></circle><circle cx="200.5" cy="200.5" r="21" stroke-width="6" fill="none" stroke="#3D348B" class="Stroke Dark"></circle><circle cx="300.5" cy="200.5" r="21" stroke-width="6" fill="none" stroke="#3D348B" class="Stroke Dark"></circle><circle cx="200.5" cy="300.5" r="21" stroke-width="6" fill="none" stroke="#3D348B" class="Stroke Dark"></circle><circle cx="300.5" cy="300.5" r="21" stroke-width="6" fill="none" stroke="#3D348B" class="Stroke Dark"></circle><circle cx="250.5" cy="250.5" r="21" stroke="#7678ED" stroke-width="6" fill="none" class="Stroke"></circle><circle cx="200.5" cy="300.5" r="21" stroke-width="6" fill="none" stroke="#3D348B" class="Stroke Dark"></circle><circle cx="300.5" cy="300.5" r="21" stroke-width="6" fill="none" stroke="#3D348B" class="Stroke Dark"></circle><circle cx="200.5" cy="400.5" r="21" stroke-width="6" fill="none" stroke="#3D348B" class="Stroke Dark"></circle><circle cx="300.5" cy="400.5" r="21" stroke-width="6" fill="none" stroke="#3D348B" class="Stroke Dark"></circle><circle cx="250.5" cy="350.5" r="21" stroke="#7678ED" stroke-width="6" fill="none" class="Stroke"></circle><circle cx="200.5" cy="400.5" r="21" stroke-width="6" fill="none" stroke="#3D348B" class="Stroke Dark"></circle><circle cx="300.5" cy="400.5" r="21" stroke-width="6" fill="none" stroke="#3D348B" class="Stroke Dark"></circle><circle cx="200.5" cy="500.5" r="21" stroke-width="6" fill="none" stroke="#3D348B" class="Stroke Dark"></circle><circle cx="300.5" cy="500.5" r="21" stroke-width="6" fill="none" stroke="#3D348B" class="Stroke Dark"></circle><circle cx="250.5" cy="450.5" r="21" stroke="#7678ED" stroke-width="6" fill="none" class="Stroke"></circle><circle cx="300.5" cy="0.5" r="21" stroke-width="6" fill="none" stroke="#3D348B" class="Stroke Dark"></circle><circle cx="400.5" cy="0.5" r="21" stroke-width="6" fill="none" stroke="#3D348B" class="Stroke Dark"></circle><circle cx="300.5" cy="100.5" r="21" stroke-width="6" fill="none" stroke="#3D348B" class="Stroke Dark"></circle><circle cx="400.5" cy="100.5" r="21" stroke-width="6" fill="none" stroke="#3D348B" class="Stroke Dark"></circle><circle cx="350.5" cy="50.5" r="21" stroke="#7678ED" stroke-width="6" fill="none" class="Stroke"></circle><circle cx="300.5" cy="100.5" r="21" stroke-width="6" fill="none" stroke="#3D348B" class="Stroke Dark"></circle><circle cx="400.5" cy="100.5" r="21" stroke-width="6" fill="none" stroke="#3D348B" class="Stroke Dark"></circle><circle cx="300.5" cy="200.5" r="21" stroke-width="6" fill="none" stroke="#3D348B" class="Stroke Dark"></circle><circle cx="400.5" cy="200.5" r="21" stroke-width="6" fill="none" stroke="#3D348B" class="Stroke Dark"></circle><circle cx="350.5" cy="150.5" r="21" stroke="#7678ED" stroke-width="6" fill="none" class="Stroke"></circle><circle cx="300.5" cy="200.5" r="21" stroke-width="6" fill="none" stroke="#3D348B" class="Stroke Dark"></circle><circle cx="400.5" cy="200.5" r="21" stroke-width="6" fill="none" stroke="#3D348B" class="Stroke Dark"></circle><circle cx="300.5" cy="300.5" r="21" stroke-width="6" fill="none" stroke="#3D348B" class="Stroke Dark"></circle><circle cx="400.5" cy="300.5" r="21" stroke-width="6" fill="none" stroke="#3D348B" class="Stroke Dark"></circle><circle cx="350.5" cy="250.5" r="21" stroke="#7678ED" stroke-width="6" fill="none" class="Stroke"></circle><circle cx="300.5" cy="300.5" r="21" stroke-width="6" fill="none" stroke="#3D348B" class="Stroke Dark"></circle><circle cx="400.5" cy="300.5" r="21" stroke-width="6" fill="none" stroke="#3D348B" class="Stroke Dark"></circle><circle cx="300.5" cy="400.5" r="21" stroke-width="6" fill="none" stroke="#3D348B" class="Stroke Dark"></circle><circle cx="400.5" cy="400.5" r="21" stroke-width="6" fill="none" stroke="#3D348B" class="Stroke Dark"></circle><circle cx="350.5" cy="350.5" r="21" stroke="#7678ED" stroke-width="6" fill="none" class="Stroke"></circle><circle cx="300.5" cy="400.5" r="21" stroke-width="6" fill="none" stroke="#3D348B" class="Stroke Dark"></circle><circle cx="400.5" cy="400.5" r="21" stroke-width="6" fill="none" stroke="#3D348B" class="Stroke Dark"></circle><circle cx="300.5" cy="500.5" r="21" stroke-width="6" fill="none" stroke="#3D348B" class="Stroke Dark"></circle><circle cx="400.5" cy="500.5" r="21" stroke-width="6" fill="none" stroke="#3D348B" class="Stroke Dark"></circle><circle cx="350.5" cy="450.5" r="21" stroke="#7678ED" stroke-width="6" fill="none" class="Stroke"></circle><circle cx="400.5" cy="0.5" r="21" stroke-width="6" fill="none" stroke="#3D348B" class="Stroke Dark"></circle><circle cx="500.5" cy="0.5" r="21" stroke-width="6" fill="none" stroke="#3D348B" class="Stroke Dark"></circle><circle cx="400.5" cy="100.5" r="21" stroke-width="6" fill="none" stroke="#3D348B" class="Stroke Dark"></circle><circle cx="500.5" cy="100.5" r="21" stroke-width="6" fill="none" stroke="#3D348B" class="Stroke Dark"></circle><circle cx="450.5" cy="50.5" r="21" stroke="#7678ED" stroke-width="6" fill="none" class="Stroke"></circle><circle cx="400.5" cy="100.5" r="21" stroke-width="6" fill="none" stroke="#3D348B" class="Stroke Dark"></circle><circle cx="500.5" cy="100.5" r="21" stroke-width="6" fill="none" stroke="#3D348B" class="Stroke Dark"></circle><circle cx="400.5" cy="200.5" r="21" stroke-width="6" fill="none" stroke="#3D348B" class="Stroke Dark"></circle><circle cx="500.5" cy="200.5" r="21" stroke-width="6" fill="none" stroke="#3D348B" class="Stroke Dark"></circle><circle cx="450.5" cy="150.5" r="21" stroke="#7678ED" stroke-width="6" fill="none" class="Stroke"></circle><circle cx="400.5" cy="200.5" r="21" stroke-width="6" fill="none" stroke="#3D348B" class="Stroke Dark"></circle><circle cx="500.5" cy="200.5" r="21" stroke-width="6" fill="none" stroke="#3D348B" class="Stroke Dark"></circle><circle cx="400.5" cy="300.5" r="21" stroke-width="6" fill="none" stroke="#3D348B" class="Stroke Dark"></circle><circle cx="500.5" cy="300.5" r="21" stroke-width="6" fill="none" stroke="#3D348B" class="Stroke Dark"></circle><circle cx="450.5" cy="250.5" r="21" stroke="#7678ED" stroke-width="6" fill="none" class="Stroke"></circle><circle cx="400.5" cy="300.5" r="21" stroke-width="6" fill="none" stroke="#3D348B" class="Stroke Dark"></circle><circle cx="500.5" cy="300.5" r="21" stroke-width="6" fill="none" stroke="#3D348B" class="Stroke Dark"></circle><circle cx="400.5" cy="400.5" r="21" stroke-width="6" fill="none" stroke="#3D348B" class="Stroke Dark"></circle><circle cx="500.5" cy="400.5" r="21" stroke-width="6" fill="none" stroke="#3D348B" class="Stroke Dark"></circle><circle cx="450.5" cy="350.5" r="21" stroke="#7678ED" stroke-width="6" fill="none" class="Stroke"></circle><circle cx="400.5" cy="400.5" r="21" stroke-width="6" fill="none" stroke="#3D348B" class="Stroke Dark"></circle><circle cx="500.5" cy="400.5" r="21" stroke-width="6" fill="none" stroke="#3D348B" class="Stroke Dark"></circle><circle cx="400.5" cy="500.5" r="21" stroke-width="6" fill="none" stroke="#3D348B" class="Stroke Dark"></circle><circle cx="500.5" cy="500.5" r="21" stroke-width="6" fill="none" stroke="#3D348B" class="Stroke Dark"></circle><circle cx="450.5" cy="450.5" r="21" stroke="#7678ED" stroke-width="6" fill="none" class="Stroke"></circle></svg>