<?xml version="1.0" encoding="UTF-8" standalone="no"?>
<svg width="400" height="400" viewBox="0 0 400 400" version="1.1" xmlns="http://www.w3.org/2000/svg" xmlns:xlink="http://www.w3.org/1999/xlink">
    
    <rect id="Background" x="0" y="0" width="400" height="400" fill="#f9f9ff"></rect>
    
<circle cx="0.5" cy="0.5" r="16" stroke-width="6" fill="none" stroke="#3D348B" class="Stroke Dark"></circle><circle cx="100.5" cy="0.5" r="16" stroke-width="6" fill="none" stroke="#3D348B" class="Stroke Dark"></circle><circle cx="0.5" cy="100.5" r="16" stroke-width="6" fill="none" stroke="#3D348B" class="Stroke Dark"></circle><circle cx="100.5" cy="100.5" r="16" stroke-width="6" fill="none" stroke="#3D348B" class="Stroke Dark"></circle><line x1="35" y1="35" x2="65" y2="65" stroke-width="6" stroke-linecap="round" stroke="#7678ED" class="Stroke"></line><line x1="35" y1="65" x2="65" y2="35" stroke-width="6" stroke-linecap="round" stroke="#7678ED" class="Stroke"></line><circle cx="0.5" cy="100.5" r="16" stroke-width="6" fill="none" stroke="#3D348B" class="Stroke Dark"></circle><circle cx="100.5" cy="100.5" r="16" stroke-width="6" fill="none" stroke="#3D348B" class="Stroke Dark"></circle><circle cx="0.5" cy="200.5" r="16" stroke-width="6" fill="none" stroke="#3D348B" class="Stroke Dark"></circle><circle cx="100.5" cy="200.5" r="16" stroke-width="6" fill="none" stroke="#3D348B" class="Stroke Dark"></circle><line x1="35" y1="135" x2="65" y2="165" stroke-width="6" stroke-linecap="round" stroke="#7678ED" class="Stroke"></line><line x1="35" y1="165" x2="65" y2="135" stroke-width="6" stroke-linecap="round" stroke="#7678ED" class="Stroke"></line><circle cx="0.5" cy="200.5" r="16" stroke-width="6" fill="none" stroke="#3D348B" class="Stroke Dark"></circle><circle cx="100.5" cy="200.5" r="16" stroke-width="6" fill="none" stroke="#3D348B" class="Stroke Dark"></circle><circle cx="0.5" cy="300.5" r="16" stroke-width="6" fill="none" stroke="#3D348B" class="Stroke Dark"></circle><circle cx="100.5" cy="300.5" r="16" stroke-width="6" fill="none" stroke="#3D348B" class="Stroke Dark"></circle><line x1="35" y1="235" x2="65" y2="265" stroke-width="6" stroke-linecap="round" stroke="#7678ED" class="Stroke"></line><line x1="35" y1="265" x2="65" y2="235" stroke-width="6" stroke-linecap="round" stroke="#7678ED" class="Stroke"></line><circle cx="0.5" cy="300.5" r="16" stroke-width="6" fill="none" stroke="#3D348B" class="Stroke Dark"></circle><circle cx="100.5" cy="300.5" r="16" stroke-width="6" fill="none" stroke="#3D348B" class="Stroke Dark"></circle><circle cx="0.5" cy="400.5" r="16" stroke-width="6" fill="none" stroke="#3D348B" class="Stroke Dark"></circle><circle cx="100.5" cy="400.5" r="16" stroke-width="6" fill="none" stroke="#3D348B" class="Stroke Dark"></circle><line x1="35" y1="335" x2="65" y2="365" stroke-width="6" stroke-linecap="round" stroke="#7678ED" class="Stroke"></line><line x1="35" y1="365" x2="65" y2="335" stroke-width="6" stroke-linecap="round" stroke="#7678ED" class="Stroke"></line><circle cx="0.5" cy="400.5" r="16" stroke-width="6" fill="none" stroke="#3D348B" class="Stroke Dark"></circle><circle cx="100.5" cy="400.5" r="16" stroke-width="6" fill="none" stroke="#3D348B" class="Stroke Dark"></circle><circle cx="0.5" cy="500.5" r="16" stroke-width="6" fill="none" stroke="#3D348B" class="Stroke Dark"></circle><circle cx="100.5" cy="500.5" r="16" stroke-width="6" fill="none" stroke="#3D348B" class="Stroke Dark"></circle><line x1="35" y1="435" x2="65" y2="465" stroke-width="6" stroke-linecap="round" stroke="#7678ED" class="Stroke"></line><line x1="35" y1="465" x2="65" y2="435" stroke-width="6" stroke-linecap="round" stroke="#7678ED" class="Stroke"></line><circle cx="100.5" cy="0.5" r="16" stroke-width="6" fill="none" stroke="#3D348B" class="Stroke Dark"></circle><circle cx="200.5" cy="0.5" r="16" stroke-width="6" fill="none" stroke="#3D348B" class="Stroke Dark"></circle><circle cx="100.5" cy="100.5" r="16" stroke-width="6" fill="none" stroke="#3D348B" class="Stroke Dark"></circle><circle cx="200.5" cy="100.5" r="16" stroke-width="6" fill="none" stroke="#3D348B" class="Stroke Dark"></circle><line x1="135" y1="35" x2="165" y2="65" stroke-width="6" stroke-linecap="round" stroke="#7678ED" class="Stroke"></line><line x1="135" y1="65" x2="165" y2="35" stroke-width="6" stroke-linecap="round" stroke="#7678ED" class="Stroke"></line><circle cx="100.5" cy="100.5" r="16" stroke-width="6" fill="none" stroke="#3D348B" class="Stroke Dark"></circle><circle cx="200.5" cy="100.5" r="16" stroke-width="6" fill="none" stroke="#3D348B" class="Stroke Dark"></circle><circle cx="100.5" cy="200.5" r="16" stroke-width="6" fill="none" stroke="#3D348B" class="Stroke Dark"></circle><circle cx="200.5" cy="200.5" r="16" stroke-width="6" fill="none" stroke="#3D348B" class="Stroke Dark"></circle><line x1="135" y1="135" x2="165" y2="165" stroke-width="6" stroke-linecap="round" stroke="#7678ED" class="Stroke"></line><line x1="135" y1="165" x2="165" y2="135" stroke-width="6" stroke-linecap="round" stroke="#7678ED" class="Stroke"></line><circle cx="100.5" cy="200.5" r="16" stroke-width="6" fill="none" stroke="#3D348B" class="Stroke Dark"></circle><circle cx="200.5" cy="200.5" r="16" stroke-width="6" fill="none" stroke="#3D348B" class="Stroke Dark"></circle><circle cx="100.5" cy="300.5" r="16" stroke-width="6" fill="none" stroke="#3D348B" class="Stroke Dark"></circle><circle cx="200.5" cy="300.5" r="16" stroke-width="6" fill="none" stroke="#3D348B" class="Stroke Dark"></circle><line x1="135" y1="235" x2="165" y2="265" stroke-width="6" stroke-linecap="round" stroke="#7678ED" class="Stroke"></line><line x1="135" y1="265" x2="165" y2="235" stroke-width="6" stroke-linecap="round" stroke="#7678ED" class="Stroke"></line><circle cx="100.5" cy="300.5" r="16" stroke-width="6" fill="none" stroke="#3D348B" class="Stroke Dark"></circle><circle cx="200.5" cy="300.5" r="16" stroke-width="6" fill="none" stroke="#3D348B" class="Stroke Dark"></circle><circle cx="100.5" cy="400.5" r="16" stroke-width="6" fill="none" stroke="#3D348B" class="Stroke Dark"></circle><circle cx="200.5" cy="400.5" r="16" stroke-width="6" fill="none" stroke="#3D348B" class="Stroke Dark"></circle><line x1="135" y1="335" x2="165" y2="365" stroke-width="6" stroke-linecap="round" stroke="#7678ED" class="Stroke"></line><line x1="135" y1="365" x2="165" y2="335" stroke-width="6" stroke-linecap="round" stroke="#7678ED" class="Stroke"></line><circle cx="100.5" cy="400.5" r="16" stroke-width="6" fill="none" stroke="#3D348B" class="Stroke Dark"></circle><circle cx="200.5" cy="400.5" r="16" stroke-width="6" fill="none" stroke="#3D348B" class="Stroke Dark"></circle><circle cx="100.5" cy="500.5" r="16" stroke-width="6" fill="none" stroke="#3D348B" class="Stroke Dark"></circle><circle cx="200.5" cy="500.5" r="16" stroke-width="6" fill="none" stroke="#3D348B" class="Stroke Dark"></circle><line x1="135" y1="435" x2="165" y2="465" stroke-width="6" stroke-linecap="round" stroke="#7678ED" class="Stroke"></line><line x1="135" y1="465" x2="165" y2="435" stroke-width="6" stroke-linecap="round" stroke="#7678ED" class="Stroke"></line><circle cx="200.5" cy="0.5" r="16" stroke-width="6" fill="none" stroke="#3D348B" class="Stroke Dark"></circle><circle cx="300.5" cy="0.5" r="16" stroke-width="6" fill="none" stroke="#3D348B" class="Stroke Dark"></circle><circle cx="200.5" cy="100.5" r="16" stroke-width="6" fill="none" stroke="#3D348B" class="Stroke Dark"></circle><circle cx="300.5" cy="100.5" r="16" stroke-width="6" fill="none" stroke="#3D348B" class="Stroke Dark"></circle><line x1="235" y1="35" x2="265" y2="65" stroke-width="6" stroke-linecap="round" stroke="#7678ED" class="Stroke"></line><line x1="235" y1="65" x2="265" y2="35" stroke-width="6" stroke-linecap="round" stroke="#7678ED" class="Stroke"></line><circle cx="200.5" cy="100.5" r="16" stroke-width="6" fill="none" stroke="#3D348B" class="Stroke Dark"></circle><circle cx="300.5" cy="100.5" r="16" stroke-width="6" fill="none" stroke="#3D348B" class="Stroke Dark"></circle><circle cx="200.5" cy="200.5" r="16" stroke-width="6" fill="none" stroke="#3D348B" class="Stroke Dark"></circle><circle cx="300.5" cy="200.5" r="16" stroke-width="6" fill="none" stroke="#3D348B" class="Stroke Dark"></circle><line x1="235" y1="135" x2="265" y2="165" stroke-width="6" stroke-linecap="round" stroke="#7678ED" class="Stroke"></line><line x1="235" y1="165" x2="265" y2="135" stroke-width="6" stroke-linecap="round" stroke="#7678ED" class="Stroke"></line><circle cx="200.5" cy="200.5" r="16" stroke-width="6" fill="none" stroke="#3D348B" class="Stroke Dark"></circle><circle cx="300.5" cy="200.5" r="16" stroke-width="6" fill="none" stroke="#3D348B" class="Stroke Dark"></circle><circle cx="200.5" cy="300.5" r="16" stroke-width="6" fill="none" stroke="#3D348B" class="Stroke Dark"></circle><circle cx="300.5" cy="300.5" r="16" stroke-width="6" fill="none" stroke="#3D348B" class="Stroke Dark"></circle><line x1="235" y1="235" x2="265" y2="265" stroke-width="6" stroke-linecap="round" stroke="#7678ED" class="Stroke"></line><line x1="235" y1="265" x2="265" y2="235" stroke-width="6" stroke-linecap="round" stroke="#7678ED" class="Stroke"></line><circle cx="200.5" cy="300.5" r="16" stroke-width="6" fill="none" stroke="#3D348B" class="Stroke Dark"></circle><circle cx="300.5" cy="300.5" r="16" stroke-width="6" fill="none" stroke="#3D348B" class="Stroke Dark"></circle><circle cx="200.5" cy="400.5" r="16" stroke-width="6" fill="none" stroke="#3D348B" class="Stroke Dark"></circle><circle cx="300.5" cy="400.5" r="16" stroke-width="6" fill="none" stroke="#3D348B" class="Stroke Dark"></circle><line x1="235" y1="335" x2="265" y2="365" stroke-width="6" stroke-linecap="round" stroke="#7678ED" class="Stroke"></line><line x1="235" y1="365" x2="265" y2="335" stroke-width="6" stroke-linecap="round" stroke="#7678ED" class="Stroke"></line><circle cx="200.5" cy="400.5" r="16" stroke-width="6" fill="none" stroke="#3D348B" class="Stroke Dark"></circle><circle cx="300.5" cy="400.5" r="16" stroke-width="6" fill="none" stroke="#3D348B" class="Stroke Dark"></circle><circle cx="200.5" cy="500.5" r="16" stroke-width="6" fill="none" stroke="#3D348B" class="Stroke Dark"></circle><circle cx="300.5" cy="500.5" r="16" stroke-width="6" fill="none" stroke="#3D348B" class="Stroke Dark"></circle><line x1="235" y1="435" x2="265" y2="465" stroke-width="6" stroke-linecap="round" stroke="#7678ED" class="Stroke"></line><line x1="235" y1="465" x2="265" y2="435" stroke-width="6" stroke-linecap="round" stroke="#7678ED" class="Stroke"></line><circle cx="300.5" cy="0.5" r="16" stroke-width="6" fill="none" stroke="#3D348B" class="Stroke Dark"></circle><circle cx="400.5" cy="0.5" r="16" stroke-width="6" fill="none" stroke="#3D348B" class="Stroke Dark"></circle><circle cx="300.5" cy="100.5" r="16" stroke-width="6" fill="none" stroke="#3D348B" class="Stroke Dark"></circle><circle cx="400.5" cy="100.5" r="16" stroke-width="6" fill="none" stroke="#3D348B" class="Stroke Dark"></circle><line x1="335" y1="35" x2="365" y2="65" stroke-width="6" stroke-linecap="round" stroke="#7678ED" class="Stroke"></line><line x1="335" y1="65" x2="365" y2="35" stroke-width="6" stroke-linecap="round" stroke="#7678ED" class="Stroke"></line><circle cx="300.5" cy="100.5" r="16" stroke-width="6" fill="none" stroke="#3D348B" class="Stroke Dark"></circle><circle cx="400.5" cy="100.5" r="16" stroke-width="6" fill="none" stroke="#3D348B" class="Stroke Dark"></circle><circle cx="300.5" cy="200.5" r="16" stroke-width="6" fill="none" stroke="#3D348B" class="Stroke Dark"></circle><circle cx="400.5" cy="200.5" r="16" stroke-width="6" fill="none" stroke="#3D348B" class="Stroke Dark"></circle><line x1="335" y1="135" x2="365" y2="165" stroke-width="6" stroke-linecap="round" stroke="#7678ED" class="Stroke"></line><line x1="335" y1="165" x2="365" y2="135" stroke-width="6" stroke-linecap="round" stroke="#7678ED" class="Stroke"></line><circle cx="300.5" cy="200.5" r="16" stroke-width="6" fill="none" stroke="#3D348B" class="Stroke Dark"></circle><circle cx="400.5" cy="200.5" r="16" stroke-width="6" fill="none" stroke="#3D348B" class="Stroke Dark"></circle><circle cx="300.5" cy="300.5" r="16" stroke-width="6" fill="none" stroke="#3D348B" class="Stroke Dark"></circle><circle cx="400.5" cy="300.5" r="16" stroke-width="6" fill="none" stroke="#3D348B" class="Stroke Dark"></circle><line x1="335" y1="235" x2="365" y2="265" stroke-width="6" stroke-linecap="round" stroke="#7678ED" class="Stroke"></line><line x1="335" y1="265" x2="365" y2="235" stroke-width="6" stroke-linecap="round" stroke="#7678ED" class="Stroke"></line><circle cx="300.5" cy="300.5" r="16" stroke-width="6" fill="none" stroke="#3D348B" class="Stroke Dark"></circle><circle cx="400.5" cy="300.5" r="16" stroke-width="6" fill="none" stroke="#3D348B" class="Stroke Dark"></circle><circle cx="300.5" cy="400.5" r="16" stroke-width="6" fill="none" stroke="#3D348B" class="Stroke Dark"></circle><circle cx="400.5" cy="400.5" r="16" stroke-width="6" fill="none" stroke="#3D348B" class="Stroke Dark"></circle><line x1="335" y1="335" x2="365" y2="365" stroke-width="6" stroke-linecap="round" stroke="#7678ED" class="Stroke"></line><line x1="335" y1="365" x2="365" y2="335" stroke-width="6" stroke-linecap="round" stroke="#7678ED" class="Stroke"></line><circle cx="300.5" cy="400.5" r="16" stroke-width="6" fill="none" stroke="#3D348B" class="Stroke Dark"></circle><circle cx="400.5" cy="400.5" r="16" stroke-width="6" fill="none" stroke="#3D348B" class="Stroke Dark"></circle><circle cx="300.5" cy="500.5" r="16" stroke-width="6" fill="none" stroke="#3D348B" class="Stroke Dark"></circle><circle cx="400.5" cy="500.5" r="16" stroke-width="6" fill="none" stroke="#3D348B" class="Stroke Dark"></circle><line x1="335" y1="435" x2="365" y2="465" stroke-width="6" stroke-linecap="round" stroke="#7678ED" class="Stroke"></line><line x1="335" y1="465" x2="365" y2="435" stroke-width="6" stroke-linecap="round" stroke="#7678ED" class="Stroke"></line><circle cx="400.5" cy="0.5" r="16" stroke-width="6" fill="none" stroke="#3D348B" class="Stroke Dark"></circle><circle cx="500.5" cy="0.5" r="16" stroke-width="6" fill="none" stroke="#3D348B" class="Stroke Dark"></circle><circle cx="400.5" cy="100.5" r="16" stroke-width="6" fill="none" stroke="#3D348B" class="Stroke Dark"></circle><circle cx="500.5" cy="100.5" r="16" stroke-width="6" fill="none" stroke="#3D348B" class="Stroke Dark"></circle><line x1="435" y1="35" x2="465" y2="65" stroke-width="6" stroke-linecap="round" stroke="#7678ED" class="Stroke"></line><line x1="435" y1="65" x2="465" y2="35" stroke-width="6" stroke-linecap="round" stroke="#7678ED" class="Stroke"></line><circle cx="400.5" cy="100.5" r="16" stroke-width="6" fill="none" stroke="#3D348B" class="Stroke Dark"></circle><circle cx="500.5" cy="100.5" r="16" stroke-width="6" fill="none" stroke="#3D348B" class="Stroke Dark"></circle><circle cx="400.5" cy="200.5" r="16" stroke-width="6" fill="none" stroke="#3D348B" class="Stroke Dark"></circle><circle cx="500.5" cy="200.5" r="16" stroke-width="6" fill="none" stroke="#3D348B" class="Stroke Dark"></circle><line x1="435" y1="135" x2="465" y2="165" stroke-width="6" stroke-linecap="round" stroke="#7678ED" class="Stroke"></line><line x1="435" y1="165" x2="465" y2="135" stroke-width="6" stroke-linecap="round" stroke="#7678ED" class="Stroke"></line><circle cx="400.5" cy="200.5" r="16" stroke-width="6" fill="none" stroke="#3D348B" class="Stroke Dark"></circle><circle cx="500.5" cy="200.5" r="16" stroke-width="6" fill="none" stroke="#3D348B" class="Stroke Dark"></circle><circle cx="400.5" cy="300.5" r="16" stroke-width="6" fill="none" stroke="#3D348B" class="Stroke Dark"></circle><circle cx="500.5" cy="300.5" r="16" stroke-width="6" fill="none" stroke="#3D348B" class="Stroke Dark"></circle><line x1="435" y1="235" x2="465" y2="265" stroke-width="6" stroke-linecap="round" stroke="#7678ED" class="Stroke"></line><line x1="435" y1="265" x2="465" y2="235" stroke-width="6" stroke-linecap="round" stroke="#7678ED" class="Stroke"></line><circle cx="400.5" cy="300.5" r="16" stroke-width="6" fill="none" stroke="#3D348B" class="Stroke Dark"></circle><circle cx="500.5" cy="300.5" r="16" stroke-width="6" fill="none" stroke="#3D348B" class="Stroke Dark"></circle><circle cx="400.5" cy="400.5" r="16" stroke-width="6" fill="none" stroke="#3D348B" class="Stroke Dark"></circle><circle cx="500.5" cy="400.5" r="16" stroke-width="6" fill="none" stroke="#3D348B" class="Stroke Dark"></circle><line x1="435" y1="335" x2="465" y2="365" stroke-width="6" stroke-linecap="round" stroke="#7678ED" class="Stroke"></line><line x1="435" y1="365" x2="465" y2="335" stroke-width="6" stroke-linecap="round" stroke="#7678ED" class="Stroke"></line><circle cx="400.5" cy="400.5" r="16" stroke-width="6" fill="none" stroke="#3D348B" class="Stroke Dark"></circle><circle cx="500.5" cy="400.5" r="16" stroke-width="6" fill="none" stroke="#3D348B" class="Stroke Dark"></circle><circle cx="400.5" cy="500.5" r="16" stroke-width="6" fill="none" stroke="#3D348B" class="Stroke Dark"></circle><circle cx="500.5" cy="500.5" r="16" stroke-width="6" fill="none" stroke="#3D348B" class="Stroke Dark"></circle><line x1="435" y1="435" x2="465" y2="465" stroke-width="6" stroke-linecap="round" stroke="#7678ED" class="Stroke"></line><line x1="435" y1="465" x2="465" y2="435" stroke-width="6" stroke-linecap="round" stroke="#7678ED" class="Stroke"></line></svg>