<?xml version="1.0" encoding="UTF-8" standalone="no"?>
<svg width="400" height="400" viewBox="0 0 400 400" version="1.1" xmlns="http://www.w3.org/2000/svg" xmlns:xlink="http://www.w3.org/1999/xlink">
    
    <rect id="Background" x="0" y="0" width="400" height="400" fill="#f9f9ff"></rect>
    
<line x1="50" y1="35" x2="50" y2="65" stroke-width="6" stroke-linecap="round" stroke="#7678ED" class="Stroke"></line><line x1="35" y1="50" x2="65" y2="50" stroke-width="6" stroke-linecap="round" stroke="#7678ED" class="Stroke"></line><line x1="0" y1="3" x2="10" y2="3" stroke-width="6" stroke-linecap="round" stroke="#3D348B" class="Stroke Dark"></line><line x1="100" y1="3" x2="90" y2="3" stroke-width="6" stroke-linecap="round" stroke="#3D348B" class="Stroke Dark"></line><line x1="50" y1="135" x2="50" y2="165" stroke-width="6" stroke-linecap="round" stroke="#7678ED" class="Stroke"></line><line x1="35" y1="150" x2="65" y2="150" stroke-width="6" stroke-linecap="round" stroke="#7678ED" class="Stroke"></line><line x1="0" y1="103" x2="10" y2="103" stroke-width="6" stroke-linecap="round" stroke="#3D348B" class="Stroke Dark"></line><line x1="100" y1="103" x2="90" y2="103" stroke-width="6" stroke-linecap="round" stroke="#3D348B" class="Stroke Dark"></line><line x1="50" y1="235" x2="50" y2="265" stroke-width="6" stroke-linecap="round" stroke="#7678ED" class="Stroke"></line><line x1="35" y1="250" x2="65" y2="250" stroke-width="6" stroke-linecap="round" stroke="#7678ED" class="Stroke"></line><line x1="0" y1="203" x2="10" y2="203" stroke-width="6" stroke-linecap="round" stroke="#3D348B" class="Stroke Dark"></line><line x1="100" y1="203" x2="90" y2="203" stroke-width="6" stroke-linecap="round" stroke="#3D348B" class="Stroke Dark"></line><line x1="50" y1="335" x2="50" y2="365" stroke-width="6" stroke-linecap="round" stroke="#7678ED" class="Stroke"></line><line x1="35" y1="350" x2="65" y2="350" stroke-width="6" stroke-linecap="round" stroke="#7678ED" class="Stroke"></line><line x1="0" y1="303" x2="10" y2="303" stroke-width="6" stroke-linecap="round" stroke="#3D348B" class="Stroke Dark"></line><line x1="100" y1="303" x2="90" y2="303" stroke-width="6" stroke-linecap="round" stroke="#3D348B" class="Stroke Dark"></line><line x1="50" y1="435" x2="50" y2="465" stroke-width="6" stroke-linecap="round" stroke="#7678ED" class="Stroke"></line><line x1="35" y1="450" x2="65" y2="450" stroke-width="6" stroke-linecap="round" stroke="#7678ED" class="Stroke"></line><line x1="0" y1="403" x2="10" y2="403" stroke-width="6" stroke-linecap="round" stroke="#3D348B" class="Stroke Dark"></line><line x1="100" y1="403" x2="90" y2="403" stroke-width="6" stroke-linecap="round" stroke="#3D348B" class="Stroke Dark"></line><line x1="150" y1="35" x2="150" y2="65" stroke-width="6" stroke-linecap="round" stroke="#7678ED" class="Stroke"></line><line x1="135" y1="50" x2="165" y2="50" stroke-width="6" stroke-linecap="round" stroke="#7678ED" class="Stroke"></line><line x1="100" y1="3" x2="110" y2="3" stroke-width="6" stroke-linecap="round" stroke="#3D348B" class="Stroke Dark"></line><line x1="200" y1="3" x2="190" y2="3" stroke-width="6" stroke-linecap="round" stroke="#3D348B" class="Stroke Dark"></line><line x1="150" y1="135" x2="150" y2="165" stroke-width="6" stroke-linecap="round" stroke="#7678ED" class="Stroke"></line><line x1="135" y1="150" x2="165" y2="150" stroke-width="6" stroke-linecap="round" stroke="#7678ED" class="Stroke"></line><line x1="100" y1="103" x2="110" y2="103" stroke-width="6" stroke-linecap="round" stroke="#3D348B" class="Stroke Dark"></line><line x1="200" y1="103" x2="190" y2="103" stroke-width="6" stroke-linecap="round" stroke="#3D348B" class="Stroke Dark"></line><line x1="150" y1="235" x2="150" y2="265" stroke-width="6" stroke-linecap="round" stroke="#7678ED" class="Stroke"></line><line x1="135" y1="250" x2="165" y2="250" stroke-width="6" stroke-linecap="round" stroke="#7678ED" class="Stroke"></line><line x1="100" y1="203" x2="110" y2="203" stroke-width="6" stroke-linecap="round" stroke="#3D348B" class="Stroke Dark"></line><line x1="200" y1="203" x2="190" y2="203" stroke-width="6" stroke-linecap="round" stroke="#3D348B" class="Stroke Dark"></line><line x1="150" y1="335" x2="150" y2="365" stroke-width="6" stroke-linecap="round" stroke="#7678ED" class="Stroke"></line><line x1="135" y1="350" x2="165" y2="350" stroke-width="6" stroke-linecap="round" stroke="#7678ED" class="Stroke"></line><line x1="100" y1="303" x2="110" y2="303" stroke-width="6" stroke-linecap="round" stroke="#3D348B" class="Stroke Dark"></line><line x1="200" y1="303" x2="190" y2="303" stroke-width="6" stroke-linecap="round" stroke="#3D348B" class="Stroke Dark"></line><line x1="150" y1="435" x2="150" y2="465" stroke-width="6" stroke-linecap="round" stroke="#7678ED" class="Stroke"></line><line x1="135" y1="450" x2="165" y2="450" stroke-width="6" stroke-linecap="round" stroke="#7678ED" class="Stroke"></line><line x1="100" y1="403" x2="110" y2="403" stroke-width="6" stroke-linecap="round" stroke="#3D348B" class="Stroke Dark"></line><line x1="200" y1="403" x2="190" y2="403" stroke-width="6" stroke-linecap="round" stroke="#3D348B" class="Stroke Dark"></line><line x1="250" y1="35" x2="250" y2="65" stroke-width="6" stroke-linecap="round" stroke="#7678ED" class="Stroke"></line><line x1="235" y1="50" x2="265" y2="50" stroke-width="6" stroke-linecap="round" stroke="#7678ED" class="Stroke"></line><line x1="200" y1="3" x2="210" y2="3" stroke-width="6" stroke-linecap="round" stroke="#3D348B" class="Stroke Dark"></line><line x1="300" y1="3" x2="290" y2="3" stroke-width="6" stroke-linecap="round" stroke="#3D348B" class="Stroke Dark"></line><line x1="250" y1="135" x2="250" y2="165" stroke-width="6" stroke-linecap="round" stroke="#7678ED" class="Stroke"></line><line x1="235" y1="150" x2="265" y2="150" stroke-width="6" stroke-linecap="round" stroke="#7678ED" class="Stroke"></line><line x1="200" y1="103" x2="210" y2="103" stroke-width="6" stroke-linecap="round" stroke="#3D348B" class="Stroke Dark"></line><line x1="300" y1="103" x2="290" y2="103" stroke-width="6" stroke-linecap="round" stroke="#3D348B" class="Stroke Dark"></line><line x1="250" y1="235" x2="250" y2="265" stroke-width="6" stroke-linecap="round" stroke="#7678ED" class="Stroke"></line><line x1="235" y1="250" x2="265" y2="250" stroke-width="6" stroke-linecap="round" stroke="#7678ED" class="Stroke"></line><line x1="200" y1="203" x2="210" y2="203" stroke-width="6" stroke-linecap="round" stroke="#3D348B" class="Stroke Dark"></line><line x1="300" y1="203" x2="290" y2="203" stroke-width="6" stroke-linecap="round" stroke="#3D348B" class="Stroke Dark"></line><line x1="250" y1="335" x2="250" y2="365" stroke-width="6" stroke-linecap="round" stroke="#7678ED" class="Stroke"></line><line x1="235" y1="350" x2="265" y2="350" stroke-width="6" stroke-linecap="round" stroke="#7678ED" class="Stroke"></line><line x1="200" y1="303" x2="210" y2="303" stroke-width="6" stroke-linecap="round" stroke="#3D348B" class="Stroke Dark"></line><line x1="300" y1="303" x2="290" y2="303" stroke-width="6" stroke-linecap="round" stroke="#3D348B" class="Stroke Dark"></line><line x1="250" y1="435" x2="250" y2="465" stroke-width="6" stroke-linecap="round" stroke="#7678ED" class="Stroke"></line><line x1="235" y1="450" x2="265" y2="450" stroke-width="6" stroke-linecap="round" stroke="#7678ED" class="Stroke"></line><line x1="200" y1="403" x2="210" y2="403" stroke-width="6" stroke-linecap="round" stroke="#3D348B" class="Stroke Dark"></line><line x1="300" y1="403" x2="290" y2="403" stroke-width="6" stroke-linecap="round" stroke="#3D348B" class="Stroke Dark"></line><line x1="350" y1="35" x2="350" y2="65" stroke-width="6" stroke-linecap="round" stroke="#7678ED" class="Stroke"></line><line x1="335" y1="50" x2="365" y2="50" stroke-width="6" stroke-linecap="round" stroke="#7678ED" class="Stroke"></line><line x1="300" y1="3" x2="310" y2="3" stroke-width="6" stroke-linecap="round" stroke="#3D348B" class="Stroke Dark"></line><line x1="400" y1="3" x2="390" y2="3" stroke-width="6" stroke-linecap="round" stroke="#3D348B" class="Stroke Dark"></line><line x1="350" y1="135" x2="350" y2="165" stroke-width="6" stroke-linecap="round" stroke="#7678ED" class="Stroke"></line><line x1="335" y1="150" x2="365" y2="150" stroke-width="6" stroke-linecap="round" stroke="#7678ED" class="Stroke"></line><line x1="300" y1="103" x2="310" y2="103" stroke-width="6" stroke-linecap="round" stroke="#3D348B" class="Stroke Dark"></line><line x1="400" y1="103" x2="390" y2="103" stroke-width="6" stroke-linecap="round" stroke="#3D348B" class="Stroke Dark"></line><line x1="350" y1="235" x2="350" y2="265" stroke-width="6" stroke-linecap="round" stroke="#7678ED" class="Stroke"></line><line x1="335" y1="250" x2="365" y2="250" stroke-width="6" stroke-linecap="round" stroke="#7678ED" class="Stroke"></line><line x1="300" y1="203" x2="310" y2="203" stroke-width="6" stroke-linecap="round" stroke="#3D348B" class="Stroke Dark"></line><line x1="400" y1="203" x2="390" y2="203" stroke-width="6" stroke-linecap="round" stroke="#3D348B" class="Stroke Dark"></line><line x1="350" y1="335" x2="350" y2="365" stroke-width="6" stroke-linecap="round" stroke="#7678ED" class="Stroke"></line><line x1="335" y1="350" x2="365" y2="350" stroke-width="6" stroke-linecap="round" stroke="#7678ED" class="Stroke"></line><line x1="300" y1="303" x2="310" y2="303" stroke-width="6" stroke-linecap="round" stroke="#3D348B" class="Stroke Dark"></line><line x1="400" y1="303" x2="390" y2="303" stroke-width="6" stroke-linecap="round" stroke="#3D348B" class="Stroke Dark"></line><line x1="350" y1="435" x2="350" y2="465" stroke-width="6" stroke-linecap="round" stroke="#7678ED" class="Stroke"></line><line x1="335" y1="450" x2="365" y2="450" stroke-width="6" stroke-linecap="round" stroke="#7678ED" class="Stroke"></line><line x1="300" y1="403" x2="310" y2="403" stroke-width="6" stroke-linecap="round" stroke="#3D348B" class="Stroke Dark"></line><line x1="400" y1="403" x2="390" y2="403" stroke-width="6" stroke-linecap="round" stroke="#3D348B" class="Stroke Dark"></line><line x1="450" y1="35" x2="450" y2="65" stroke-width="6" stroke-linecap="round" stroke="#7678ED" class="Stroke"></line><line x1="435" y1="50" x2="465" y2="50" stroke-width="6" stroke-linecap="round" stroke="#7678ED" class="Stroke"></line><line x1="400" y1="3" x2="410" y2="3" stroke-width="6" stroke-linecap="round" stroke="#3D348B" class="Stroke Dark"></line><line x1="500" y1="3" x2="490" y2="3" stroke-width="6" stroke-linecap="round" stroke="#3D348B" class="Stroke Dark"></line><line x1="450" y1="135" x2="450" y2="165" stroke-width="6" stroke-linecap="round" stroke="#7678ED" class="Stroke"></line><line x1="435" y1="150" x2="465" y2="150" stroke-width="6" stroke-linecap="round" stroke="#7678ED" class="Stroke"></line><line x1="400" y1="103" x2="410" y2="103" stroke-width="6" stroke-linecap="round" stroke="#3D348B" class="Stroke Dark"></line><line x1="500" y1="103" x2="490" y2="103" stroke-width="6" stroke-linecap="round" stroke="#3D348B" class="Stroke Dark"></line><line x1="450" y1="235" x2="450" y2="265" stroke-width="6" stroke-linecap="round" stroke="#7678ED" class="Stroke"></line><line x1="435" y1="250" x2="465" y2="250" stroke-width="6" stroke-linecap="round" stroke="#7678ED" class="Stroke"></line><line x1="400" y1="203" x2="410" y2="203" stroke-width="6" stroke-linecap="round" stroke="#3D348B" class="Stroke Dark"></line><line x1="500" y1="203" x2="490" y2="203" stroke-width="6" stroke-linecap="round" stroke="#3D348B" class="Stroke Dark"></line><line x1="450" y1="335" x2="450" y2="365" stroke-width="6" stroke-linecap="round" stroke="#7678ED" class="Stroke"></line><line x1="435" y1="350" x2="465" y2="350" stroke-width="6" stroke-linecap="round" stroke="#7678ED" class="Stroke"></line><line x1="400" y1="303" x2="410" y2="303" stroke-width="6" stroke-linecap="round" stroke="#3D348B" class="Stroke Dark"></line><line x1="500" y1="303" x2="490" y2="303" stroke-width="6" stroke-linecap="round" stroke="#3D348B" class="Stroke Dark"></line><line x1="450" y1="435" x2="450" y2="465" stroke-width="6" stroke-linecap="round" stroke="#7678ED" class="Stroke"></line><line x1="435" y1="450" x2="465" y2="450" stroke-width="6" stroke-linecap="round" stroke="#7678ED" class="Stroke"></line><line x1="400" y1="403" x2="410" y2="403" stroke-width="6" stroke-linecap="round" stroke="#3D348B" class="Stroke Dark"></line><line x1="500" y1="403" x2="490" y2="403" stroke-width="6" stroke-linecap="round" stroke="#3D348B" class="Stroke Dark"></line></svg>