<?xml version="1.0" encoding="UTF-8" standalone="no"?>
<svg width="400" height="400" viewBox="0 0 400 400" version="1.1" xmlns="http://www.w3.org/2000/svg"
    xmlns:xlink="http://www.w3.org/1999/xlink">

    <rect id="Background" x="0" y="0" width="400" height="400" fill="#f9f9ff"></rect>

    <polygon points="75,12 60,40 90,40" stroke-width="6" fill="none" stroke="#7678ED"
        class="Stroke"></polygon>
    <rect x="10" y="10" width="30" height="30" fill="none" stroke-width="6" rx="1" stroke="#3D348B"
        class="Stroke Dark"></rect>
    <circle cx="75" cy="70" r="15" stroke-width="6" fill="none" stroke="#3D348B"
        class="Stroke Dark"></circle>
    <line x1="10" y1="60" x2="40" y2="90" stroke-width="6" stroke-linecap="round" stroke="#7678ED"
        class="Stroke"></line>
    <line x1="40" y1="60" x2="10" y2="90" stroke-width="6" stroke-linecap="round" stroke="#7678ED"
        class="Stroke"></line>
    <polygon points="75,112 60,140 90,140" stroke-width="6" fill="none" stroke="#7678ED"
        class="Stroke"></polygon>
    <rect x="10" y="110" width="30" height="30" fill="none" stroke-width="6" rx="1" stroke="#3D348B"
        class="Stroke Dark"></rect>
    <circle cx="75" cy="170" r="15" stroke-width="6" fill="none" stroke="#3D348B"
        class="Stroke Dark"></circle>
    <line x1="10" y1="160" x2="40" y2="190" stroke-width="6" stroke-linecap="round" stroke="#7678ED"
        class="Stroke"></line>
    <line x1="40" y1="160" x2="10" y2="190" stroke-width="6" stroke-linecap="round" stroke="#7678ED"
        class="Stroke"></line>
    <polygon points="75,212 60,240 90,240" stroke-width="6" fill="none" stroke="#7678ED"
        class="Stroke"></polygon>
    <rect x="10" y="210" width="30" height="30" fill="none" stroke-width="6" rx="1" stroke="#3D348B"
        class="Stroke Dark"></rect>
    <circle cx="75" cy="270" r="15" stroke-width="6" fill="none" stroke="#3D348B"
        class="Stroke Dark"></circle>
    <line x1="10" y1="260" x2="40" y2="290" stroke-width="6" stroke-linecap="round" stroke="#7678ED"
        class="Stroke"></line>
    <line x1="40" y1="260" x2="10" y2="290" stroke-width="6" stroke-linecap="round" stroke="#7678ED"
        class="Stroke"></line>
    <polygon points="75,312 60,340 90,340" stroke-width="6" fill="none" stroke="#7678ED"
        class="Stroke"></polygon>
    <rect x="10" y="310" width="30" height="30" fill="none" stroke-width="6" rx="1" stroke="#3D348B"
        class="Stroke Dark"></rect>
    <circle cx="75" cy="370" r="15" stroke-width="6" fill="none" stroke="#3D348B"
        class="Stroke Dark"></circle>
    <line x1="10" y1="360" x2="40" y2="390" stroke-width="6" stroke-linecap="round" stroke="#7678ED"
        class="Stroke"></line>
    <line x1="40" y1="360" x2="10" y2="390" stroke-width="6" stroke-linecap="round" stroke="#7678ED"
        class="Stroke"></line>
    <polygon points="75,412 60,440 90,440" stroke-width="6" fill="none" stroke="#7678ED"
        class="Stroke"></polygon>
    <rect x="10" y="410" width="30" height="30" fill="none" stroke-width="6" rx="1" stroke="#3D348B"
        class="Stroke Dark"></rect>
    <circle cx="75" cy="470" r="15" stroke-width="6" fill="none" stroke="#3D348B"
        class="Stroke Dark"></circle>
    <line x1="10" y1="460" x2="40" y2="490" stroke-width="6" stroke-linecap="round" stroke="#7678ED"
        class="Stroke"></line>
    <line x1="40" y1="460" x2="10" y2="490" stroke-width="6" stroke-linecap="round" stroke="#7678ED"
        class="Stroke"></line>
    <polygon points="175,12 160,40 190,40" stroke-width="6" fill="none" stroke="#7678ED"
        class="Stroke"></polygon>
    <rect x="110" y="10" width="30" height="30" fill="none" stroke-width="6" rx="1" stroke="#3D348B"
        class="Stroke Dark"></rect>
    <circle cx="175" cy="70" r="15" stroke-width="6" fill="none" stroke="#3D348B"
        class="Stroke Dark"></circle>
    <line x1="110" y1="60" x2="140" y2="90" stroke-width="6" stroke-linecap="round" stroke="#7678ED"
        class="Stroke"></line>
    <line x1="140" y1="60" x2="110" y2="90" stroke-width="6" stroke-linecap="round" stroke="#7678ED"
        class="Stroke"></line>
    <polygon points="175,112 160,140 190,140" stroke-width="6" fill="none" stroke="#7678ED"
        class="Stroke"></polygon>
    <rect x="110" y="110" width="30" height="30" fill="none" stroke-width="6" rx="1"
        stroke="#3D348B" class="Stroke Dark"></rect>
    <circle cx="175" cy="170" r="15" stroke-width="6" fill="none" stroke="#3D348B"
        class="Stroke Dark"></circle>
    <line x1="110" y1="160" x2="140" y2="190" stroke-width="6" stroke-linecap="round"
        stroke="#7678ED" class="Stroke"></line>
    <line x1="140" y1="160" x2="110" y2="190" stroke-width="6" stroke-linecap="round"
        stroke="#7678ED" class="Stroke"></line>
    <polygon points="175,212 160,240 190,240" stroke-width="6" fill="none" stroke="#7678ED"
        class="Stroke"></polygon>
    <rect x="110" y="210" width="30" height="30" fill="none" stroke-width="6" rx="1"
        stroke="#3D348B" class="Stroke Dark"></rect>
    <circle cx="175" cy="270" r="15" stroke-width="6" fill="none" stroke="#3D348B"
        class="Stroke Dark"></circle>
    <line x1="110" y1="260" x2="140" y2="290" stroke-width="6" stroke-linecap="round"
        stroke="#7678ED" class="Stroke"></line>
    <line x1="140" y1="260" x2="110" y2="290" stroke-width="6" stroke-linecap="round"
        stroke="#7678ED" class="Stroke"></line>
    <polygon points="175,312 160,340 190,340" stroke-width="6" fill="none" stroke="#7678ED"
        class="Stroke"></polygon>
    <rect x="110" y="310" width="30" height="30" fill="none" stroke-width="6" rx="1"
        stroke="#3D348B" class="Stroke Dark"></rect>
    <circle cx="175" cy="370" r="15" stroke-width="6" fill="none" stroke="#3D348B"
        class="Stroke Dark"></circle>
    <line x1="110" y1="360" x2="140" y2="390" stroke-width="6" stroke-linecap="round"
        stroke="#7678ED" class="Stroke"></line>
    <line x1="140" y1="360" x2="110" y2="390" stroke-width="6" stroke-linecap="round"
        stroke="#7678ED" class="Stroke"></line>
    <polygon points="175,412 160,440 190,440" stroke-width="6" fill="none" stroke="#7678ED"
        class="Stroke"></polygon>
    <rect x="110" y="410" width="30" height="30" fill="none" stroke-width="6" rx="1"
        stroke="#3D348B" class="Stroke Dark"></rect>
    <circle cx="175" cy="470" r="15" stroke-width="6" fill="none" stroke="#3D348B"
        class="Stroke Dark"></circle>
    <line x1="110" y1="460" x2="140" y2="490" stroke-width="6" stroke-linecap="round"
        stroke="#7678ED" class="Stroke"></line>
    <line x1="140" y1="460" x2="110" y2="490" stroke-width="6" stroke-linecap="round"
        stroke="#7678ED" class="Stroke"></line>
    <polygon points="275,12 260,40 290,40" stroke-width="6" fill="none" stroke="#7678ED"
        class="Stroke"></polygon>
    <rect x="210" y="10" width="30" height="30" fill="none" stroke-width="6" rx="1" stroke="#3D348B"
        class="Stroke Dark"></rect>
    <circle cx="275" cy="70" r="15" stroke-width="6" fill="none" stroke="#3D348B"
        class="Stroke Dark"></circle>
    <line x1="210" y1="60" x2="240" y2="90" stroke-width="6" stroke-linecap="round" stroke="#7678ED"
        class="Stroke"></line>
    <line x1="240" y1="60" x2="210" y2="90" stroke-width="6" stroke-linecap="round" stroke="#7678ED"
        class="Stroke"></line>
    <polygon points="275,112 260,140 290,140" stroke-width="6" fill="none" stroke="#7678ED"
        class="Stroke"></polygon>
    <rect x="210" y="110" width="30" height="30" fill="none" stroke-width="6" rx="1"
        stroke="#3D348B" class="Stroke Dark"></rect>
    <circle cx="275" cy="170" r="15" stroke-width="6" fill="none" stroke="#3D348B"
        class="Stroke Dark"></circle>
    <line x1="210" y1="160" x2="240" y2="190" stroke-width="6" stroke-linecap="round"
        stroke="#7678ED" class="Stroke"></line>
    <line x1="240" y1="160" x2="210" y2="190" stroke-width="6" stroke-linecap="round"
        stroke="#7678ED" class="Stroke"></line>
    <polygon points="275,212 260,240 290,240" stroke-width="6" fill="none" stroke="#7678ED"
        class="Stroke"></polygon>
    <rect x="210" y="210" width="30" height="30" fill="none" stroke-width="6" rx="1"
        stroke="#3D348B" class="Stroke Dark"></rect>
    <circle cx="275" cy="270" r="15" stroke-width="6" fill="none" stroke="#3D348B"
        class="Stroke Dark"></circle>
    <line x1="210" y1="260" x2="240" y2="290" stroke-width="6" stroke-linecap="round"
        stroke="#7678ED" class="Stroke"></line>
    <line x1="240" y1="260" x2="210" y2="290" stroke-width="6" stroke-linecap="round"
        stroke="#7678ED" class="Stroke"></line>
    <polygon points="275,312 260,340 290,340" stroke-width="6" fill="none" stroke="#7678ED"
        class="Stroke"></polygon>
    <rect x="210" y="310" width="30" height="30" fill="none" stroke-width="6" rx="1"
        stroke="#3D348B" class="Stroke Dark"></rect>
    <circle cx="275" cy="370" r="15" stroke-width="6" fill="none" stroke="#3D348B"
        class="Stroke Dark"></circle>
    <line x1="210" y1="360" x2="240" y2="390" stroke-width="6" stroke-linecap="round"
        stroke="#7678ED" class="Stroke"></line>
    <line x1="240" y1="360" x2="210" y2="390" stroke-width="6" stroke-linecap="round"
        stroke="#7678ED" class="Stroke"></line>
    <polygon points="275,412 260,440 290,440" stroke-width="6" fill="none" stroke="#7678ED"
        class="Stroke"></polygon>
    <rect x="210" y="410" width="30" height="30" fill="none" stroke-width="6" rx="1"
        stroke="#3D348B" class="Stroke Dark"></rect>
    <circle cx="275" cy="470" r="15" stroke-width="6" fill="none" stroke="#3D348B"
        class="Stroke Dark"></circle>
    <line x1="210" y1="460" x2="240" y2="490" stroke-width="6" stroke-linecap="round"
        stroke="#7678ED" class="Stroke"></line>
    <line x1="240" y1="460" x2="210" y2="490" stroke-width="6" stroke-linecap="round"
        stroke="#7678ED" class="Stroke"></line>
    <polygon points="375,12 360,40 390,40" stroke-width="6" fill="none" stroke="#7678ED"
        class="Stroke"></polygon>
    <rect x="310" y="10" width="30" height="30" fill="none" stroke-width="6" rx="1" stroke="#3D348B"
        class="Stroke Dark"></rect>
    <circle cx="375" cy="70" r="15" stroke-width="6" fill="none" stroke="#3D348B"
        class="Stroke Dark"></circle>
    <line x1="310" y1="60" x2="340" y2="90" stroke-width="6" stroke-linecap="round" stroke="#7678ED"
        class="Stroke"></line>
    <line x1="340" y1="60" x2="310" y2="90" stroke-width="6" stroke-linecap="round" stroke="#7678ED"
        class="Stroke"></line>
    <polygon points="375,112 360,140 390,140" stroke-width="6" fill="none" stroke="#7678ED"
        class="Stroke"></polygon>
    <rect x="310" y="110" width="30" height="30" fill="none" stroke-width="6" rx="1"
        stroke="#3D348B" class="Stroke Dark"></rect>
    <circle cx="375" cy="170" r="15" stroke-width="6" fill="none" stroke="#3D348B"
        class="Stroke Dark"></circle>
    <line x1="310" y1="160" x2="340" y2="190" stroke-width="6" stroke-linecap="round"
        stroke="#7678ED" class="Stroke"></line>
    <line x1="340" y1="160" x2="310" y2="190" stroke-width="6" stroke-linecap="round"
        stroke="#7678ED" class="Stroke"></line>
    <polygon points="375,212 360,240 390,240" stroke-width="6" fill="none" stroke="#7678ED"
        class="Stroke"></polygon>
    <rect x="310" y="210" width="30" height="30" fill="none" stroke-width="6" rx="1"
        stroke="#3D348B" class="Stroke Dark"></rect>
    <circle cx="375" cy="270" r="15" stroke-width="6" fill="none" stroke="#3D348B"
        class="Stroke Dark"></circle>
    <line x1="310" y1="260" x2="340" y2="290" stroke-width="6" stroke-linecap="round"
        stroke="#7678ED" class="Stroke"></line>
    <line x1="340" y1="260" x2="310" y2="290" stroke-width="6" stroke-linecap="round"
        stroke="#7678ED" class="Stroke"></line>
    <polygon points="375,312 360,340 390,340" stroke-width="6" fill="none" stroke="#7678ED"
        class="Stroke"></polygon>
    <rect x="310" y="310" width="30" height="30" fill="none" stroke-width="6" rx="1"
        stroke="#3D348B" class="Stroke Dark"></rect>
    <circle cx="375" cy="370" r="15" stroke-width="6" fill="none" stroke="#3D348B"
        class="Stroke Dark"></circle>
    <line x1="310" y1="360" x2="340" y2="390" stroke-width="6" stroke-linecap="round"
        stroke="#7678ED" class="Stroke"></line>
    <line x1="340" y1="360" x2="310" y2="390" stroke-width="6" stroke-linecap="round"
        stroke="#7678ED" class="Stroke"></line>
    <polygon points="375,412 360,440 390,440" stroke-width="6" fill="none" stroke="#7678ED"
        class="Stroke"></polygon>
    <rect x="310" y="410" width="30" height="30" fill="none" stroke-width="6" rx="1"
        stroke="#3D348B" class="Stroke Dark"></rect>
    <circle cx="375" cy="470" r="15" stroke-width="6" fill="none" stroke="#3D348B"
        class="Stroke Dark"></circle>
    <line x1="310" y1="460" x2="340" y2="490" stroke-width="6" stroke-linecap="round"
        stroke="#7678ED" class="Stroke"></line>
    <line x1="340" y1="460" x2="310" y2="490" stroke-width="6" stroke-linecap="round"
        stroke="#7678ED" class="Stroke"></line>
    <polygon points="475,12 460,40 490,40" stroke-width="6" fill="none" stroke="#7678ED"
        class="Stroke"></polygon>
    <rect x="410" y="10" width="30" height="30" fill="none" stroke-width="6" rx="1" stroke="#3D348B"
        class="Stroke Dark"></rect>
    <circle cx="475" cy="70" r="15" stroke-width="6" fill="none" stroke="#3D348B"
        class="Stroke Dark"></circle>
    <line x1="410" y1="60" x2="440" y2="90" stroke-width="6" stroke-linecap="round" stroke="#7678ED"
        class="Stroke"></line>
    <line x1="440" y1="60" x2="410" y2="90" stroke-width="6" stroke-linecap="round" stroke="#7678ED"
        class="Stroke"></line>
    <polygon points="475,112 460,140 490,140" stroke-width="6" fill="none" stroke="#7678ED"
        class="Stroke"></polygon>
    <rect x="410" y="110" width="30" height="30" fill="none" stroke-width="6" rx="1"
        stroke="#3D348B" class="Stroke Dark"></rect>
    <circle cx="475" cy="170" r="15" stroke-width="6" fill="none" stroke="#3D348B"
        class="Stroke Dark"></circle>
    <line x1="410" y1="160" x2="440" y2="190" stroke-width="6" stroke-linecap="round"
        stroke="#7678ED" class="Stroke"></line>
    <line x1="440" y1="160" x2="410" y2="190" stroke-width="6" stroke-linecap="round"
        stroke="#7678ED" class="Stroke"></line>
    <polygon points="475,212 460,240 490,240" stroke-width="6" fill="none" stroke="#7678ED"
        class="Stroke"></polygon>
    <rect x="410" y="210" width="30" height="30" fill="none" stroke-width="6" rx="1"
        stroke="#3D348B" class="Stroke Dark"></rect>
    <circle cx="475" cy="270" r="15" stroke-width="6" fill="none" stroke="#3D348B"
        class="Stroke Dark"></circle>
    <line x1="410" y1="260" x2="440" y2="290" stroke-width="6" stroke-linecap="round"
        stroke="#7678ED" class="Stroke"></line>
    <line x1="440" y1="260" x2="410" y2="290" stroke-width="6" stroke-linecap="round"
        stroke="#7678ED" class="Stroke"></line>
    <polygon points="475,312 460,340 490,340" stroke-width="6" fill="none" stroke="#7678ED"
        class="Stroke"></polygon>
    <rect x="410" y="310" width="30" height="30" fill="none" stroke-width="6" rx="1"
        stroke="#3D348B" class="Stroke Dark"></rect>
    <circle cx="475" cy="370" r="15" stroke-width="6" fill="none" stroke="#3D348B"
        class="Stroke Dark"></circle>
    <line x1="410" y1="360" x2="440" y2="390" stroke-width="6" stroke-linecap="round"
        stroke="#7678ED" class="Stroke"></line>
    <line x1="440" y1="360" x2="410" y2="390" stroke-width="6" stroke-linecap="round"
        stroke="#7678ED" class="Stroke"></line>
    <polygon points="475,412 460,440 490,440" stroke-width="6" fill="none" stroke="#7678ED"
        class="Stroke"></polygon>
    <rect x="410" y="410" width="30" height="30" fill="none" stroke-width="6" rx="1"
        stroke="#3D348B" class="Stroke Dark"></rect>
    <circle cx="475" cy="470" r="15" stroke-width="6" fill="none" stroke="#3D348B"
        class="Stroke Dark"></circle>
    <line x1="410" y1="460" x2="440" y2="490" stroke-width="6" stroke-linecap="round"
        stroke="#7678ED" class="Stroke"></line>
    <line x1="440" y1="460" x2="410" y2="490" stroke-width="6" stroke-linecap="round"
        stroke="#7678ED" class="Stroke"></line>
</svg>