<?xml version="1.0" encoding="UTF-8" standalone="no"?>
<svg width="400" height="400" viewBox="0 0 400 400" version="1.1" xmlns="http://www.w3.org/2000/svg" xmlns:xlink="http://www.w3.org/1999/xlink">
    
    <rect x="0" y="0" id="Background" width="400" height="400" fill="#f9f9ff"></rect>
    
<polygon points="25,15 12.5,35 37.5,35" fill="#7678ED" class="Fill"></polygon><polygon points="62.5,65 87.5,65 75,85" fill="#3D348B" class="Fill Dark"></polygon><polygon points="25,115 12.5,135 37.5,135" fill="#7678ED" class="Fill"></polygon><polygon points="62.5,165 87.5,165 75,185" fill="#3D348B" class="Fill Dark"></polygon><polygon points="25,215 12.5,235 37.5,235" fill="#7678ED" class="Fill"></polygon><polygon points="62.5,265 87.5,265 75,285" fill="#3D348B" class="Fill Dark"></polygon><polygon points="25,315 12.5,335 37.5,335" fill="#7678ED" class="Fill"></polygon><polygon points="62.5,365 87.5,365 75,385" fill="#3D348B" class="Fill Dark"></polygon><polygon points="25,415 12.5,435 37.5,435" fill="#7678ED" class="Fill"></polygon><polygon points="62.5,465 87.5,465 75,485" fill="#3D348B" class="Fill Dark"></polygon><polygon points="125,15 112.5,35 137.5,35" fill="#7678ED" class="Fill"></polygon><polygon points="162.5,65 187.5,65 175,85" fill="#3D348B" class="Fill Dark"></polygon><polygon points="125,115 112.5,135 137.5,135" fill="#7678ED" class="Fill"></polygon><polygon points="162.5,165 187.5,165 175,185" fill="#3D348B" class="Fill Dark"></polygon><polygon points="125,215 112.5,235 137.5,235" fill="#7678ED" class="Fill"></polygon><polygon points="162.5,265 187.5,265 175,285" fill="#3D348B" class="Fill Dark"></polygon><polygon points="125,315 112.5,335 137.5,335" fill="#7678ED" class="Fill"></polygon><polygon points="162.5,365 187.5,365 175,385" fill="#3D348B" class="Fill Dark"></polygon><polygon points="125,415 112.5,435 137.5,435" fill="#7678ED" class="Fill"></polygon><polygon points="162.5,465 187.5,465 175,485" fill="#3D348B" class="Fill Dark"></polygon><polygon points="225,15 212.5,35 237.5,35" fill="#7678ED" class="Fill"></polygon><polygon points="262.5,65 287.5,65 275,85" fill="#3D348B" class="Fill Dark"></polygon><polygon points="225,115 212.5,135 237.5,135" fill="#7678ED" class="Fill"></polygon><polygon points="262.5,165 287.5,165 275,185" fill="#3D348B" class="Fill Dark"></polygon><polygon points="225,215 212.5,235 237.5,235" fill="#7678ED" class="Fill"></polygon><polygon points="262.5,265 287.5,265 275,285" fill="#3D348B" class="Fill Dark"></polygon><polygon points="225,315 212.5,335 237.5,335" fill="#7678ED" class="Fill"></polygon><polygon points="262.5,365 287.5,365 275,385" fill="#3D348B" class="Fill Dark"></polygon><polygon points="225,415 212.5,435 237.5,435" fill="#7678ED" class="Fill"></polygon><polygon points="262.5,465 287.5,465 275,485" fill="#3D348B" class="Fill Dark"></polygon><polygon points="325,15 312.5,35 337.5,35" fill="#7678ED" class="Fill"></polygon><polygon points="362.5,65 387.5,65 375,85" fill="#3D348B" class="Fill Dark"></polygon><polygon points="325,115 312.5,135 337.5,135" fill="#7678ED" class="Fill"></polygon><polygon points="362.5,165 387.5,165 375,185" fill="#3D348B" class="Fill Dark"></polygon><polygon points="325,215 312.5,235 337.5,235" fill="#7678ED" class="Fill"></polygon><polygon points="362.5,265 387.5,265 375,285" fill="#3D348B" class="Fill Dark"></polygon><polygon points="325,315 312.5,335 337.5,335" fill="#7678ED" class="Fill"></polygon><polygon points="362.5,365 387.5,365 375,385" fill="#3D348B" class="Fill Dark"></polygon><polygon points="325,415 312.5,435 337.5,435" fill="#7678ED" class="Fill"></polygon><polygon points="362.5,465 387.5,465 375,485" fill="#3D348B" class="Fill Dark"></polygon><polygon points="425,15 412.5,35 437.5,35" fill="#7678ED" class="Fill"></polygon><polygon points="462.5,65 487.5,65 475,85" fill="#3D348B" class="Fill Dark"></polygon><polygon points="425,115 412.5,135 437.5,135" fill="#7678ED" class="Fill"></polygon><polygon points="462.5,165 487.5,165 475,185" fill="#3D348B" class="Fill Dark"></polygon><polygon points="425,215 412.5,235 437.5,235" fill="#7678ED" class="Fill"></polygon><polygon points="462.5,265 487.5,265 475,285" fill="#3D348B" class="Fill Dark"></polygon><polygon points="425,315 412.5,335 437.5,335" fill="#7678ED" class="Fill"></polygon><polygon points="462.5,365 487.5,365 475,385" fill="#3D348B" class="Fill Dark"></polygon><polygon points="425,415 412.5,435 437.5,435" fill="#7678ED" class="Fill"></polygon><polygon points="462.5,465 487.5,465 475,485" fill="#3D348B" class="Fill Dark"></polygon></svg>