<svg width="455" height="3347" viewBox="0 0 455 3347" fill="none" xmlns="http://www.w3.org/2000/svg">
<path d="M142.5 5C142.5 5 311 120 322.5 255.5C334 391 294.5 414.5 246.5 474C198.5 533.5 130.5 527.5 86.5007 658.5C42.5015 789.5 204.999 895 238.5 926C272.001 957 296.001 1006 246.5 1061.5C196.999 1117 114.999 1122.5 93.4999 1217.5C72.0006 1312.5 261.499 1393.5 343.5 1445C425.501 1496.5 414.501 1598.5 354.501 1657C294.5 1715.5 239.5 1684.5 142.5 1774.5C45.4999 1864.5 55 1883 55 1981.5C55 2080 137.002 2202 215.5 2226C293.998 2250 360.501 2337 333 2438C305.499 2539 167.561 2578.9 154.501 2679C135.778 2822.5 331.333 2851 272 2977C212.667 3103 108.5 3106.5 234.5 3344" stroke="white" stroke-width="10" stroke-linejoin="round" stroke-dasharray="100 60"/>
</svg>
