<svg width="440" height="3288" viewBox="0 0 440 3288" fill="none" xmlns="http://www.w3.org/2000/svg">
<path d="M0 2859.2V2431.35L13.5507 2423.46C38.9431 2408.68 55.5249 2394.39 68.5909 2376.02C80.2658 2359.6 85.0643 2346.65 85.1409 2331.32C85.2354 2312.84 77.8617 2298.8 62.1727 2287.58C53.632 2281.48 49.0631 2279.2 39.1928 2276.15C30.2175 2273.37 15.3564 2266.36 6.74665 2260.84L0.0510147 2256.55L0.0265696 1888.85L0 1521.16L6.6425 1524.07C16.7997 1528.52 24.8355 1530.18 38.7922 1530.74C48.9653 1531.15 53.5885 1530.85 61.6424 1529.27C91.5336 1523.41 118.219 1506.59 137.337 1481.54C140.388 1477.78 143.742 1474.26 147.369 1470.99C163.703 1456.4 179.83 1449.84 229.564 1437.53C255.889 1431.01 266.157 1427.53 274.886 1422.16C285.594 1415.56 290.237 1409.28 292.384 1398.5C295.269 1384 290.701 1532.16 280.799 1523.95C263.805 1509.86 237.671 1502.85 154.1 1489.97C136.271 1487.23 117.093 1483.87 111.481 1482.53C69.4741 1472.45 31.1783 1452.79 6.63718 1428.69L0 1422.17V364.207L3.76125 361.1C11.8683 354.4 25.5146 350.053 38.5371 350.016C41.903 350.005 51.7073 350.943 60.3245 352.098C78.053 354.473 94.8761 354.277 105.751 351.567C128.439 345.914 145.059 331.136 151.378 310.998C155.557 297.677 155.523 276.409 151.284 259.998C144.405 233.329 122.407 215.858 87.4992 209.339C68.1626 205.731 30.6086 207.262 8.35148 212.57C5.99248 213.18 3.59694 213.658 1.17758 214C0.33797 214 0 202.413 0 173.5V0.5H439.999V598.933C439.999 1059.07 439.974 1064.87 437.938 1065.48C433.269 1066.87 423.996 1077.37 412.843 1093.87C390.062 1127.58 385.884 1131.05 353.483 1143.07C329.995 1151.79 323.299 1155.05 316.047 1161.29C306.132 1169.81 302.149 1181.51 304.099 1196.39C306.649 1215.81 322.246 1229.91 354.67 1242.1C359.222 1243.81 371.556 1248.26 382.077 1251.98C409.958 1261.85 427.481 1270.33 436.546 1278.34L440 1281.39V3287.05H0V2859.2Z" fill="#1F254B"/>
</svg>
