<svg width="440" height="3287" viewBox="0 0 440 3287" fill="none" xmlns="http://www.w3.org/2000/svg">
<path d="M0 2913.1V2539.49L15.1311 2525.29C27.5466 2513.98 40.5711 2503.27 54.1531 2493.21L93.4438 2463.81C111.294 2450.46 137.268 2426.54 145.69 2415.71C173.988 2379.31 181.23 2335.75 165.663 2295.58C153.313 2263.71 127.495 2236.38 94.613 2220.38C88.4231 2217.37 76.4309 2212.33 67.959 2209.19C50.0021 2202.53 43.2983 2199.46 32.6973 2193.04C21.5069 2186.26 11.2201 2178.09 5.22884 2171.22L0.00318573 2165.22V1609.66L8.23192 1610.31C18.7777 1611.13 40.6616 1609.22 56.2791 1606.12C100.695 1597.28 148.458 1575.44 192.722 1543.72C226.568 1519.46 253.396 1506.94 285.17 1500.58C301.279 1497.36 328.868 1497.34 344.392 1500.54C373.807 1506.61 403.551 1520.63 431.363 1541.54L439.591 1547.73V2859.94L433.207 2872.23C426.672 2884.82 412.894 2906.97 405.916 2916.1C390.876 2935.79 375.795 2949.67 355.173 2962.79C348.213 2967.58 341.617 2972.81 335.432 2978.46C318.093 2994.28 307.868 3008.8 301.456 3026.71C298.559 3034.8 297.98 3038.07 297.547 3048.75C296.922 3064.19 299.1 3073.73 306.329 3087.21C315.378 3104.09 327.029 3115.56 365.315 3145.3C402.713 3174.36 421.171 3194.13 434.881 3219.85L439.587 3228.67V3286.71H0V2913.1ZM431.484 1528.76C372.561 1480.81 290.801 1451.88 186.204 1441.98C165.563 1440.03 159.99 1439.14 144.81 1435.38C121.099 1429.49 100.343 1420.41 76.5474 1405.51C52.8668 1390.68 28.8677 1370.3 8.60325 1347.79L0.361771 1338.63L0.639992 1218.32L0.918213 1098L5.10001 1089.09C17.5159 1062.63 38.3983 1038.5 70.7377 1013.26C101.315 989.386 107.619 984.232 115.857 976.364C127.002 965.72 133.09 958.056 138.387 948C160.208 906.577 138.785 856.478 84.3354 821.586C77.2092 817.034 70.3935 812.065 63.9287 806.708C44.9206 789.821 22.0035 757.436 6.5973 725.693L0.918213 714L0.623002 593.5C0.46053 527.225 0.563534 472.083 0.851312 470.961C1.59465 468.088 12.0237 458.279 19.2521 453.661C40.4584 440.113 66.1693 433.326 107.099 430.472C115.858 429.861 127.894 428.732 133.844 427.963C199.16 419.524 247.144 381.923 258.485 330.293C261.5 316.569 260.914 298.593 256.988 284.329C249.114 256.053 230.516 231.472 204.708 215.229C179.506 199.432 148.413 189.274 92.3645 178.529C47.7643 169.978 31.0648 165.845 12.3327 158.718L0.387257 154.173L0.918213 -1H439.079C439.079 -1 494.307 421.5 335.443 507.5C176.578 593.5 271.578 675.5 347.427 714C423.275 752.5 432.427 779.27 427.134 835.385C421.841 891.5 406.616 894 392.578 904.5C378.541 915 363.546 923.595 363.534 945.644C363.522 967.376 359.581 991.185 353.219 1007.96C348.265 1020.08 341.829 1031.62 334.04 1042.33C324.656 1054.65 317.52 1061.74 296.103 1080.01C266.353 1105.38 258.405 1113.44 251.144 1125.56C241.184 1142.19 238 1165.26 241.906 1192.5C248.77 1240.4 271.843 1271.58 325.305 1305.18C331.437 1309.04 347.205 1318.16 360.348 1325.47C373.492 1332.77 386.628 1340.36 389.551 1342.33C402.455 1351.05 421.613 1370.69 433.62 1387.51L440 1396.44L439.727 1465.84L439.454 1535.24L431.484 1528.76Z" fill="#1A1911"/>
</svg>
