<svg width="440" height="3242" viewBox="0 0 440 3242" fill="none" xmlns="http://www.w3.org/2000/svg">
<path d="M0.481743 2834.29V2427.39L11.3545 2420.45C17.3345 2416.63 31.2986 2408.09 42.3824 2401.47C68.5251 2385.86 78.3369 2379.49 90.6513 2370.15C111.24 2354.52 123.202 2339.26 128.642 2321.69C140.524 2283.32 126.181 2241.5 92.2405 2215.55C80.5 2206.58 73.3848 2203.05 56.1714 2197.71C37.2415 2191.82 23.5363 2184.81 7.14498 2172.61L0.551763 2167.69L0.515693 1840.33C0.487053 1578.84 -0.596083 1512.74 0.464773 1513.13C1.19358 1513.4 7.66798 1515.78 13.2099 1518.01C30.9994 1525.18 42.2487 1527.52 59.3571 1527.61C90.9855 1527.77 103.651 1521.15 156.949 1476.64C177.948 1459.1 199.383 1445.01 215.826 1437.94C236.13 1429.22 251.09 1426.16 276.826 1425.49C302.945 1424.81 315.856 1426.23 360.715 1434.75C389.396 1440.19 398.096 1441.47 409.423 1441.89C422.92 1442.4 424.958 1442.16 437.268 1438.64L439.655 1437.96V2871.83L434.232 2879.26C422.798 2894.65 410.077 2909.16 396.191 2922.64C379.896 2938.74 373.768 2946.96 367.011 2961.78C361.128 2974.69 358.885 2984.17 358.265 2998.77C357.61 3014.21 359.379 3024.5 364.706 3036.19C370.21 3048.28 375.434 3054.63 395.124 3073.18C415.52 3092.39 424.177 3102.95 433.778 3120.32L439.654 3130.95V3241.19H0.480683L0.481743 2834.29ZM433.084 1503.44C415.452 1486.47 381.119 1466.21 351.934 1455.54C329.461 1447.32 295.975 1437.97 276.469 1434.47C248.602 1429.47 239.106 1428.31 202.894 1425.49C103.188 1417.73 52.128 1400 7.96774 1357.79L0.798483 1350.93L1.07218 1173.47L1.34588 996L8.37617 982.5C18.8681 962.35 27.5777 951.36 51.0438 928.637C69.2417 911.017 71.8758 908.032 76.324 899.984C82.9989 887.907 85.7126 878.5 86.4096 865C87.5585 842.766 80.3966 819.63 65.917 798.8C63.7009 795.609 55.8803 787.15 48.537 780C29.7387 761.695 18.2029 748.353 6.25552 731.1L0.815453 723.243V360.6L4.26323 358.124C11.179 353.158 22.6596 344.019 38.704 343.294C45.9178 343.001 45.26 342.328 67.2908 343.294C89.3216 344.26 114.42 342.439 134.75 336.923C189.322 322.116 218.027 285.533 211.995 238.498C208.943 214.719 199.795 196.105 184.159 181.879C163.167 162.779 137.143 153.618 72.2853 142.514C37.7736 136.606 21.6825 133.377 9.56645 129.926L0.815453 127.436L0.815353 -48H439.978C439.978 -48 498.314 578.5 296.814 650C95.3145 721.5 439.978 843 439.978 843L432 846.861C421.542 851.805 407.774 869.632 407.774 869.632C407.774 869.632 401.38 886.494 404.041 912.182C406.715 938.008 407.247 974.58 405.126 987C400.703 1012.92 392.684 1029.4 378.511 1041.72C374.578 1045.16 370.245 1048.16 365.594 1050.67C362.461 1052.13 353.453 1056.29 345.576 1059.91C314.586 1074.13 288.914 1096.53 276.676 1120C271.265 1130.37 269.2 1138.31 269.2 1148.68C269.2 1176.7 287.275 1196.73 336.034 1222.74C342.744 1226.31 363.547 1236.65 382.266 1245.7C411.42 1259.8 426.812 1268.3 437.608 1276.25L440 1278.01L439.73 1393.79L439.461 1509.56L433.095 1503.44H433.084Z" fill="#1E2137"/>
</svg>
