<svg xmlns="http://www.w3.org/2000/svg" width="818" height="733" fill="none" viewBox="0 0 818 733"><g id="body/Blazer Black Tee" fill-rule="evenodd" clip-rule="evenodd"><path id="✋ Skin" fill="#D08B5B" d="M735.555 227.831c-13.881-65.762-63.11-116.792-129.318-142.213-12.726-7.198-25.063-38.084-42.166-43.74-2.742-.907 1.586 6.31 0 6.74-5.657 1.537-11.995 1.698-18.24-3.853-11.162-9.92-14.663-38.904-21.45-52.003C488.59-76.324 399.228-49.293 387.256 27.08c-8.348 5.44-20.148 10.234-29.235 14.618-9.357 4.515-17.587 15.45-27.23 19.36-8.603 3.488-22.779 1.017-31.449 4.058-39.874 13.987-73.646 31.636-100.123 67.396-5.579 7.542-11.868 16.814-16.945 24.433-26.174 30.131-44.354 63.903-61.098 100.136-46.846 106.351-59.588 224.105-71.02 338.691.26 20.049-13.044 75.643 6.633 85.255-1.176 1.219-.75 3.668 1.432 3.647 49.893-.504 99.67 3.961 148.789 12.642 23.699 4.189 47.271 9.933 71.411 10.877 50.111-.346 100.042-8.743 150.087-.797 60.162 0 133.278-1.753 200.207-4.326 62.553-2.405 125.44 3.026 187.218-7.611 4.89-.774 7.278-6.738 6.253-11.012-7.248-26.41-10.806-53.592-14.873-80.623.81-17.338-.639-35.438-7.053-51.587-16.758-109.018-38.247-217.325-64.705-324.406Z"/><path id="🧥 Jacket" fill="#8FA7DF" d="M564.071 49.018c1.586-.431-2.742-7.647 0-6.74 17.103 5.656 29.44 36.542 42.166 43.74 66.208 25.421 115.437 76.451 129.318 142.213 26.458 107.081 47.947 215.388 64.705 324.406 6.414 16.149 7.863 34.249 7.053 51.587l.638 4.269c3.814 25.621 7.368 51.334 14.235 76.354 1.025 4.274-1.363 10.238-6.253 11.012-61.076 10.516-123.236 5.327-185.085 7.532l-12.891.483c-63.934 2.351-132.496 3.922-189.449 3.922-50.045-7.946-99.976.451-150.087.797-24.14-.944-47.712-6.688-71.411-10.877-49.119-8.681-98.896-13.146-148.79-12.642-2.181.021-2.607-2.428-1.431-3.647-19.677-9.612-6.373-65.206-6.633-85.255l1.033-10.321c11.194-111.32 24.546-225.21 69.987-328.37l1.361-2.933c16.371-35.123 34.27-67.887 59.737-97.203l1.557-2.332c4.771-7.125 10.367-15.314 15.388-22.101 26.477-35.76 60.249-53.41 100.123-67.396 8.67-3.041 22.846-.57 31.449-4.058 9.019-3.657 16.802-13.46 25.427-18.407v36.9L481.02 202.89l70.783-108.536 7.198-44.452c1.735-.11 3.431-.439 5.07-.884Z"/><path id="🖍 Ink" fill="#000" d="M715.368 371.128c-1.32 6.41-3.17 12.82-5.63 18.891-2.37 5.859-5.94 11.109-8.399 16.899-.33.78-.87 1.37-1.521 1.82l.202 1.575.188 1.575c1.226 10.628 2.606 21.227 3.8 31.854l.581 5.317c2.349 22.189 6.059 44.269 8.939 66.399 2.82 21.67 5.691 43.34 8.76 64.98 3.17 22.31 6.4 44.59 10.17 66.81 1.591 9.384 3.252 18.76 4.983 28.129l1.337 7.171c13.76 3.31 17.52 22.49 3.51 29.57-6.359 3.2-14.529 2.43-19.77-2.599-5.447-5.241-5.673-14.693-6.937-21.792l-1.217-6.597c-9.112-49.603-17.019-99.778-20.716-150.082-.95-12.989-1.75-25.989-2.27-39-.495-12.238-.258-24.475-.447-36.713l-.063-3.337c-.289-13.05-.05-26.08.29-39.13.04-1.59.11-3.18.19-4.78-.459-.54-.79-1.18-.929-1.8l-.181-.82c-.45-2.11.06-4.58 1.681-6.09.699-8.89 1.619-17.77 1.869-26.65.02-.73 1.07-.709 1.131 0 .59 7.56 1.769 15.14 2.949 22.71 7.59-6.1 13.2-16.16 16.51-24.58.24-.61 1.131-.39.99.27ZM535.787 17.707c1.26 5.76 3.75 10.931 7.09 15.741 1.591 2.3 3.4 4.44 5.57 6.23 1.861 1.529 3.981 2.529 5.96 3.86 2.88-.451 5.89.64 7.91 2.759l-.319-3.099c-.101-1 1.56-1.2 1.75-.231 8.749 44.122 16.728 88.272 23.635 132.713l3.027 19.626 2.849 18.424c4.729 30.702 9.304 61.391 12.749 92.317 4.59 41.271 8.449 82.651 11.269 124.09 2.83 41.731 4.571 83.49 5.811 125.301.309 10.54.64 21.07.959 31.609l2.136-12.601c2.132-12.603 4.223-25.218 6.014-37.878 6.43-45.31 11.571-90.941 14.08-136.64 2.301-41.82 1.531-84.47-9.109-125.211-2.681-10.25-5.961-20.34-9.92-30.17-3.841-9.559-9.08-18.42-13.211-27.839-4.8-10.96-6.24-21.3-3.769-33.1 2.16-10.28 5.95-19.95 6.629-30.53 1.271-19.64-5.12-38.661-14.149-55.85-2.381-4.53-4.891-9-7.511-13.431-7.929-13.389-16.87-26.29-26.149-38.659-.5-.66.559-1.39 1.1-.85 8.459 8.36 17.709 16.58 25.32 25.71 3.699 4.44 7.309 8.969 10.729 13.62 37.521 6.27 69.761 29.639 91.8 60.5 25.01 35.02 37.66 77.17 47.021 118.679 10.41 46.131 19.19 92.681 28.54 139.04 9.679 47.971 19.309 95.941 29.049 143.901 4.84 23.809 9.681 47.62 14.51 71.44 2.45 12.06 5.021 24.09 7.71 36.11 1.381 6.16 2.861 12.31 4.141 18.49 1.439 6.97.099 11.429-4.62 16.55-1.741 1.9-4.491 1.87-6.651.86l-.675-.318-.653-.315c-2.672-1.314-4.768-2.675-6.431-5.598-1.831-3.209-2.121-6.769-2.75-10.339-1.161-6.571-2.31-13.14-3.47-19.72-1.733-9.84-3.617-19.652-5.536-29.461l-9.623-49.023a28280.628 28280.628 0 0 0-7.722-39.206c-9.23-46.72-18.47-93.43-27.709-140.14-8.871-44.851-16.721-90.01-26.82-134.601l-.574-2.512-.584-2.509c-9.03-38.44-21.648-75.624-44.543-108.198-17.62-25.05-42.089-47.42-70.91-58.741a182.613 182.613 0 0 1 5.841 8.941c11.68 19.08 20.209 41.73 18.209 64.45-.979 11.1-5.199 22.01-4.8 33.2.37 9.94 6.521 18.67 10.771 27.319 9.649 19.601 16.63 40.431 21.13 61.8 9.03 42.91 9 87.061 5.889 130.62-3.38 47.351-9.799 94.691-17.109 141.58-3.75 24.05-8.74 47.901-12.561 71.911-1.889 11.839-4.46 23.65-6.71 35.43l-1.072 5.628c-.6 3.124-1.223 6.237-1.943 9.317l-.444 1.844v.33c-.02 2.271-.641 4.151-1.641 5.651-1.369 4.389-3.069 8.67-5.329 12.78-1.16 2.1-2.841 3.279-4.671 3.71-1.84 4.21-6.01 7.449-10.989 7.43l-65.491-.25c-38.04-.151-76.08-.401-114.12-.611-9.599-.049-19.189-.229-28.779-.479-8.99-.25-17.61-1.33-26.5-2.45-10.041-1.26-15.48-8.37-13.98-18.4.33-2.211.689-4.41 1.03-6.61-2 .66-4.38.35-5.99-1.22l-1.509-1.477c-2.092-2.07-3.964-4.103-5.291-6.864-1.37-2.839-2.481-5.839-3.691-8.739-2.61-6.24-5.149-12.5-7.62-18.79-4.949-12.58-9.899-25.21-14.5-37.921a975.301 975.301 0 0 1-24.179-76.559c-12.5-46.1-21.541-93.09-27.241-140.5l-1.362-11.299-.397-3.338c-2.161-18.376-3.98-37.037-3.121-55.373.531-11.481 2.31-23.05 6.601-33.771 3.959-9.889 10.069-18.349 15.879-27.189l.665-1.02.669-1.046c5.081-8.029 9.124-16.423 9.326-26.174.206-9.895-2.677-19.525-5.9-28.789l-.804-2.284-.539-1.513c-6.857-19.145-14.66-38.02-12.087-58.854 3.801-30.68 22.4-55.41 45.801-74.48-20.811 4.12-41.41 12.259-59.59 22.58-21.471 12.2-40.801 28.3-57.471 46.47-31.5 34.339-53.99 75.54-72.399 118.08-19.271 44.52-33.56 91.17-44.33 138.43-10.83 47.53-18.08 95.82-23.03 144.3-2.47 24.13-4.41 48.319-6.02 72.52-.82 12.4-1.44 24.82-2.4 37.2-.96 12.37-1.39 24.929-4.41 36.97-1.41 5.61-10.92 6.18-11.94 0-2.261-13.802-1.63-28.074-.998-42.05l.057-1.27c.621-13.92 1.431-27.83 2.39-41.74 1.961-28.43 4.58-56.82 8-85.12 11.99-99.34 34.101-198.16 77.471-288.84 20.42-42.71 46.63-84.21 83.09-115.05 17.359-14.67 36.929-26.381 58.019-34.86 18.861-7.59 38.021-11.18 58.061-11.17 10.05-7.7 20.84-14.41 31.619-20.141.65-.349 1.33.491.791 1.031-.28.27-.551.549-.83.81 1.22.08 2.479.65 3.609 1.84 3.961 4.149 7.301 9.34 10.29 14.729 4.55 5.681 8.89 11.55 13.431 17.17 7.269 9 14.709 17.87 22.24 26.67 12.648 14.789 25.707 29.299 39.325 43.225l2.275 2.315c7.059 7.151 14.21 15.71 22.559 21.37l.446.297c3.523 2.294 6.02 2.711 9.024-.716 2.731-3.12 5.004-6.74 7.341-10.18l.54-.79c11.93-17.33 22.99-35.3 33-53.8a556.51 556.51 0 0 0 13.022-25.596l1.228-2.594c2.24-4.76 4.67-9.43 6.519-14.331.43-1.149.85-2.299 1.26-3.439-6.3-4.13-11.179-13.07-12.949-20.07-1.84-7.27-.91-14.731 2.369-21.38.62-1.25 2.7-.941 3 .389Zm-310.788 295.43c-.872 27.641-1.401 55.311-2.702 82.931l-.449 9.429c2.029 2.261 3.219 4.87 2.269 8.451-.369 1.37-1.46 2.61-2.82 3.07l-.424 8.767c-1.929 39.445-4.192 78.808-8.326 118.153-5.17 49.24-11.15 98.399-17.119 147.55-.85 6.96-5.691 12.479-13.221 11.46-7.619-1.031-10.709-7.661-9.709-14.571 3.93-27.109 7.709-54.24 11.02-81.439l3.77-30.989c4.728-38.737 9.566-77.468 15.14-116.082 2.33-16.139 4.75-32.269 7.179-48.4l-.849-1.1c-3.471-4.509-7.061-8.919-10.611-13.359-6.819-8.56-13.549-17.051-19.799-26.011-.311-.45.32-1.11.769-.769 8.76 6.47 17.051 13.389 25.391 20.42l7.3 6.179c4.2-27.87 8.36-55.75 12.069-83.69.091-.699 1.141-.75 1.122 0ZM351.008 48.618c-5.271 4.969-10.66 9.83-15.971 14.77l-1.945 1.818-1.936 1.827c-9.334 8.85-18.276 18.064-25.728 28.645-13.68 19.43-21.83 43.119-16.141 66.84 4.721 19.649 15.551 37.46 18.461 57.6 1.459 10.09.75 20.23-3.051 29.759-3.88 9.721-10.08 18.051-15.65 26.821-12.1 19.06-13.75 39.98-12.549 62.06 1.26 23.06 3.909 46.129 7.18 68.98a972.688 972.688 0 0 0 29.809 136.99c6.611 22.47 14.42 44.46 22.191 66.54 3.869 10.99 8.38 21.72 13.029 32.399 2.45 5.621 4.961 11.21 7.511 16.79-.941-7.879-.941-15.969-1.401-23.799-.66-11.22-1.5-22.42-2.27-33.63a4882.142 4882.142 0 0 1-4.219-68.29c-4.43-81.2-7.69-162.47-7.451-243.8.121-40.67.951-81.34 2.701-121.971.821-19.133 2.409-38.248 3.845-57.355l.305-4.094c1.27-17.15 2.79-34.34 5.399-51.34-.772-1.743-1.443-3.508-1.94-5.319l-.179-.681.13.02a5.665 5.665 0 0 1-.13-1.58Zm45.581-69.88c.109-.47.779-.43.899 0 2.97 10 1.92 21-.639 31.06-1.38 5.45-3.34 10.74-5.71 15.84l-.83 1.785c-2.03 4.343-4.317 8.818-8.271 11.525-1.649 1.13-4.6 1.2-6.25 0l-.842-.639a12.679 12.679 0 0 1-.408-.331c-1.539-1.29-2.3-4.14-1.59-6.02 1.83-4.85 5.981-8.41 8.85-12.73 2.541-3.84 4.791-7.89 6.66-12.1 4.03-9.11 5.84-18.78 8.131-28.39Z"/></g></svg>