<svg xmlns="http://www.w3.org/2000/svg" width="818" height="733" fill="none" viewBox="0 0 818 733"><g id="body/Button Shirt 2" fill-rule="evenodd" clip-rule="evenodd"><path id="✋ Skin" fill="#D08B5B" d="M421.519 740.902c-82.277 0-164.112-4.044-243.319-12.021l-.035-.157-4.206-.508c-11.969-1.492-24.205-2.668-36.038-3.805-31.215-3-63.495-6.103-93.603-15.316l-5.319-1.628-.521 1.333a60.4 60.4 0 0 0-2.479-1.231c4.737-77.363 12.639-153.295 19.775-217.582l.293-2.632-1.747-1.989c-10.089-11.489-13.806-21.116-11.35-29.413 20.119-41.993 24.384-95.567 28.509-147.384C80.03 201.173 88.106 99.734 227.587 95.343l.223-.01 1.471-.102c29.087-1.993 59.164-4.055 86.032-17.428l3.131-1.557.186-3.492c.226-4.214 5.414-9.226 9.582-13.252 1.435-1.386 2.789-2.695 4.007-4.006l.255-.275.219-.303c6.288-8.738 13.673-13.953 19.755-13.953 8.858 0 13.15 11.117 14.92 17.744l2.791 10.447 7.387-7.898c17.358-18.553 25.662-38.956 24.73-60.714l.63-.196-.808-5.198c-1.525-9.021-.511-15.713 3.017-19.887 4.13-4.887 12.229-7.263 24.76-7.263 8.28 0 17.29 1.044 25.24 1.965 2.599.301 5.104.591 7.47.834 15.914 1.676 32.183 4.692 47.915 7.608l2.208.409-1.494 4.069 3.822 2.642c5.093 3.521 8.886 10.584 10.407 19.377l.068.397.122.386c2.262 7.17 3.12 15.177 4.029 23.654 1.528 14.263 3.107 29.01 11.645 41.706l5.13 7.627 4.918-7.766c2.399-3.789 5.616-5.632 9.834-5.632 11.378 0 25.274 12.582 27.743 22.334l.793 3.132 3.051 1.061c20.951 7.295 38.214 12.619 53.445 17.316 38.242 11.793 57.437 17.713 69.754 35.064 12.671 17.849 19.083 49.003 29.75 110.986 11.672 67.169 19.471 136.208 27.012 202.974 9.471 83.86 19.263 170.543 36.838 254.631-1.223 1.258-2.15 2.51-2.782 3.754-7.758.686-15.648 1.307-23.323 1.911-12.774 1.006-25.983 2.046-38.89 3.399l-2.864.3-.635.988c-1.178.099-2.339.215-3.48.33-1.82.183-3.575.359-5.29.459l-.519-1.038-4.164.467c-103.658 11.651-206.648 17.558-306.109 17.558"/><path id="👕 Top" fill="#fff" d="M352.448 40.965c8.858 0 13.15 11.117 14.92 17.744l2.791 10.447 4.311-4.61-7.845 13.727 61.077 56.057 2.338 1.647c24.961 17.484 41.954 26.226 50.98 26.226 9.305 0 37-22.794 83.086-68.384l-24.885-15.546 2.243-6.991 4.973 7.392 4.918-7.766c2.399-3.789 5.616-5.632 9.834-5.632 11.378 0 25.274 12.582 27.743 22.334l.793 3.132 5.548 1.927c16.526 5.712 30.735 10.196 43.474 14.142l16.293 5.034c32.45 10.087 49.603 16.375 60.935 32.338 12.418 17.492 18.824 47.762 29.115 107.304l.635 3.682c11.141 64.116 18.754 129.936 25.982 193.856l2.811 24.873c8.944 78.93 18.58 160.043 35.057 238.876-1.223 1.258-2.15 2.51-2.782 3.754-5.172.457-10.403.886-15.589 1.3l-14.74 1.165c-10.561.84-21.324 1.738-31.884 2.845l-2.864.3-.635.988c-.785.066-1.563.14-2.332.215l-1.148.115c-1.82.183-3.575.359-5.29.459l-.519-1.038-4.164.467c-103.658 11.651-206.648 17.558-306.109 17.558-82.277 0-164.112-4.044-243.319-12.021l-.035-.157-4.206-.508c-9.575-1.194-19.321-2.185-28.895-3.116l-13.847-1.336c-29.111-2.827-58.942-6.114-86.899-14.669l-5.319-1.628-.521 1.333a60.4 60.4 0 0 0-2.479-1.231l.324-5.213c4.768-75.557 12.475-149.527 19.451-212.369l.293-2.632-1.747-1.989c-10.089-11.489-13.806-21.116-11.35-29.413 20.119-41.993 24.384-95.567 28.509-147.384l.514-6.436c8.327-103.908 18.689-200.496 151.449-206.63l4.368-.17 6.613-.457c27.472-1.92 55.602-4.487 80.89-17.073l3.131-1.557.186-3.492c.201-3.756 4.345-8.146 8.194-11.907l2.597-2.516a80.27 80.27 0 0 0 2.798-2.835l.255-.275.219-.303c6.288-8.738 13.673-13.953 19.755-13.953Z"/><path id="🖍 Ink" fill="#000" d="M244.542 325.727c.236-.413 1.026-.268.962.261-3.437 22.818-11.774 44.927-16.848 67.455l.154.429c2.59 7.409 8.542 34.135-6.015 26.704l-1.164 6.093c-18.935 99.532-34.218 200.128-32.087 301.737.313 8.087-3.92 32.044-15.356 20.309-8.4-14.091-4.701-31.368-5.363-47.012 1.444-85.88 10.191-172.424 32.652-255.505l.929-2.873c14.858-45.679 14.802-31.048 7.82-82.052-.169-4.706-3.571-14.934.908-17.76 4.036 2.547 5.374 10.026 6.836 14.458l.1.297c2.172 6.337 4.109 12.728 6.028 19.145 6.378-17.226 11.504-35.582 20.444-51.686Zm237.397 393.807c8.248-2.437 15.674 6.948 12.793 14.634-1.865 8.016-17.445 12.989-18.038 1.813-4.261-4.556-2.878-12.934 2.942-15.464-.059-.011 1.765-.745 2.303-.983Zm199.825-454.62c.307-1.06 1.187-.094.95.58 1.84 9.323.344 19.577.766 29.262 1.178-2.774 2.704-5.425 4.687-7.909 1.719-2.151 4.838.922 3.05 3.049-4.44 5.283-6.382 11.652-7.228 18.271 6.515 138.21 25.699 276.178 58.609 410.598 7.133 18.539-21.636 26.048-18.479 5.861-21.772-94.279-39.132-190.548-43.014-287.465-5.237-42.529-3.174-86.84-2.456-129.923.029-14.036 1.386-28.418 3.115-42.324ZM388.803-16.999c8.084.64 12.77 14.06 14.382 21.422 5.91 28.856-9.979 58.889-30.891 77.813 30.877 27.817 64.407 52.609 100.593 73.137 4.922-5.575 13.617-4.774 19.675-1.412 19.593-18.534 39.442-36.674 58.517-55.726-29.655-18.757-32.132-57.377-26.196-88.8l.183-.95c.449-2.697 4.207-1.718 4.42.6l.133 1.492c1.78 20.435 1.939 42.498 13.304 60.355 12.93-20.422 43.917.477 48.463 18.439 129.956 45.243 131.172 18.577 156.891 168.013 26.002 152.771 33.358 308.164 63.816 460.238.376 4.313-3.54 7.84-7.439 8.426-14.899 1.983-15.362-38.276-18.796-49.519-7.331-41.973-12.867-84.239-17.639-126.573-14.65-125.399-19.665-252.702-48.032-376.052-2.853-10.378-6.916-20.645-14.098-28.831-29.933-32.572-81.851-25.451-114.293-54.479 3.142 9.674 3.395 20.367 2.777 30.472-3.55 53.853-5.692 107.808-9.505 161.642-.442 6.046-7.76 8.032-11.186 3.029-27.148-39.622-55.011-78.647-81.474-118.75-4.264 2.022-8.813 2.944-13.696 1.975-7.743 9.776-4.398 35.348-6.926 48.756l-.938 10.259c-14.458 159.014-25.069 318.425-24.283 478.176l.03 5.154c-.007 4.901.369 9.982.003 14.868-3.306 15.878-18.937 10.197-18.06-3.964-.696-178.992 6.7-359.149 36.235-535.907-26.663 33.606-53.295 67.238-79.97 100.837-1.996 2.534-5.79 1.42-7.373-.927l-.1-.155.656 1.76c-1.604-.514-3.005-1.49-4.459-2.332-13.411-32.93-22.09-67.469-32.626-101.35-8.794-33.222-21.978-65.808-26.836-99.85l-.22-.093c-13.196 6.635-27.816 10.892-42.591 11.145-16.709 4.305-34.283 6.334-50.951 8.522C99.136 109.045 75.181 229.352 76.289 329.072l-.21 4.761c-1.267 29.655-1.864 59.827-9.216 88.674-2.714 5.441-11.301 40.448-19.938 28.013-7.282 9.733-5.002 15.401 4.703 21.414 16.95 14.552 33.49 37.721 36.753 61.598.607 4.407-5.72 8.28-7.968 3.361l-1.123-2.448c-6.568-14.257-13.512-28.202-22.892-40.591-.415.694-.98 1.278-1.656 1.668-2.254 59.085-6.818 118.063-10.9 177.044-2.23 8.453 1.975 62.108-15.128 48.852l-.524-.423c-3.907-8.269-1.556-18.268-.758-27.097l2.404-28.277c5.19-57.717 9.44-115.548 16.613-173.062l-.563-.647c-8.249-9.557-15.955-22.176-11.893-34.928 2.082-7.668 8.985-11.485 13.655-17.345C72.985 306 29.212 99.077 224.036 92.579l8.155-.564c26.263-1.863 53.31-4.517 77.086-16.35.447-8.344 9.978-15.414 15.183-21.02 16.034-22.278 37.558-23.395 45.341 5.748 20.697-22.255 29.057-48.096 19.002-77.392Zm87.225 647.485c10.089-9.725 23.606 7.99 5.312 20.504-3.319 6.083-12.391 1.793-10.848-4.574l-.019-1.072c-.135-5.541-.681-12.383 5.555-14.858Zm1.075-129.785c18.42-5.935 13.83 27.612 1.678 32.189-7.343 3.647-9.86-5.481-8.519-11.051-4.77-7.247-.401-16.783 6.841-21.138Zm-.297-96.401c-3.398-14.374 17.232-16.767 17.351-1.753.666 6.313-5.092 10.421-6.547 15.91-.307 3.572-4.69 6.088-7.495 3.105-4.68-4.98-5.686-11.737-3.309-17.262Zm-2.591-127.722c2.102-16.826 21.146-9.733 14.421-6.93-.136.146-.277.289-.426.434 7.691.747 7.152 9.779 6.296 15.557-3.018 12.935-22.569 1.167-20.291-9.061Zm-117.116-53.521c1.565 5.66 3.141 11.317 4.754 16.963 4.155 14.547 9.092 28.707 14.298 42.844-6.37-19.93-12.718-39.867-19.052-59.807Zm10.526-160.215c-18.233-30.617-28.072 3.9-41.295 17.466 9.342 66.788 37.613 129.177 56.855 193.56 26.809-34.267 53.647-68.511 80.463-102.772 1.604-2.054 3.149-4.207 4.75-6.314-33.663-19.453-65.403-42.452-92.121-70.986-5.139 1.1-9.08-5.77-12.769-8.63l-.387-.318c-3.413-2.875-6.575-7.411-4.427-11.883-.285-.606.148-1.165.737-1.349 2.668-2.928 5.498-5.752 8.194-8.774Zm212.654 64.155c1.78-21.852-1.824-53.18-31.209-48.195 5.233 7.168 15.072 8.326 20.254 15.208 1.897 3.151-.431 7.054-3.879 7.652-22.808 20.656-44.37 41.815-67.657 62.152 25.877 33.502 50.72 67.639 75.885 101.658 1.738-46.178 4.794-92.308 6.606-138.475Z"/></g></svg>