<svg xmlns="http://www.w3.org/2000/svg" width="818" height="733" fill="none" viewBox="0 0 818 733"><g id="body/Button Shirt 1" fill-rule="evenodd" clip-rule="evenodd"><path id="✋ Skin" fill="#D08B5B" d="M77.665 713.999c130.645 19.844 263.66 20.842 395.39 13.636 52.134-3.903 104.428-4.606 156.52.384 30.781 2.289 165.742 12.605 176.768-14.964-6.94-146.805-20.996-294.86-64.115-436.05-17.733-50.133-32.964-91.743-67.574-133.229-10.908-11.327-34.432-35.083-47.911-42.831-11.678-6.711-16.559-4.317-23.264-15.653-6.663-12.523-11.578-33.437-21.039-42.273-9.634-8.997-23.91-5.778-41.605-2.88 3.251-43.93-17.027-55.12-44.963-63.473-49.105-18.741-97.601-9.326-109.96 50.45-22.916 0-35.788 9.862-49.704 19.338-5.689 3.873-1.732 13.742-8.527 16.786-12.571 4.476-34.787 3.38-46.892 8.889-55.043 25.05-104.069 61.375-136.265 114.427C72.344 299.822 22.762 538.418 31.342 672.664c-3.76 5.895 1.439 14.348 2.76 20.687 1.668 5.514 7.07 9.182 12.706 8.555 7.866 8.459 20.032 10.342 30.857 12.093Z"/><path id="👕 Top" fill="#FFCF77" d="M349.465 36.093c8.049-8.398 20.671-13.412 32.624-13.13l.56.018 4.058.181-2.711 13.303-.137.63-.553 2.31-.736 3.024-.262 1.111-.277 1.23-.127.594-.121.582-1.156 5.652.216.502-.063 1.285c-.179 4.642.821 7.194 3.025 8.013l.176.06 1.257.404 1.026 2.226c2.361 5.09 4.563 9.536 6.823 13.724 6.594 12.213 14.46 24.422 23.53 36.691 8.617 11.658 17.594 22.786 26.928 33.353a413.286 413.286 0 0 0 13.348 14.377l4.062 4.16 1.291 1.307.869.867 1.084 1.061 1.561 1.489 1.132 1.114.367.349c.462.429.819.719 1.141.925l.119.074.357.212 18.83 19.803 6.65 3.657 3.159 1.75.64-1.273.129-.409 6.999-15.369 4.273-9.413c8.771-19.366 15.595-34.772 21.836-49.441l.777-1.83 2.301-5.458 1.218-2.912c5.578-13.366 9.698-23.683 13.386-33.704l.524-1.43.776-2.141 1.154-3.23.21-.552c1.001-2.564-1.459-11.883-3.883-16.989l-.137-.284-.63-1.265-.682-1.334c-1.602-3.128-2.763-6.599-3.739-10.8a70.861 70.861 0 0 1-.446-2.056l-.204-1.04-.128-.684-.18-.956-.257-1.37 5.423-.906 2.975-.485 1.297-.204c1.682-.26 3.178-.473 4.587-.651l.524-.066.943-.111.034.186 1.935.19 1.436.15c7.077.748 12.535 1.572 16.412 2.486l.382.092.692.175.316.083c3.526.95 6.243 3 8.393 6.024 1.474 2.075 2.431 4.062 3.946 7.827l.543 1.36 1.803 4.455c.211.543.537 1.41.978 2.602l1.53 4.165 7.667 21.172 7.846 4.128c3.647 1.908 6.315 3.284 7.632 3.935l.468.227.334.153 2.704 1.072-.29.844.326.187c32.303 18.581 57.213 47.166 76.607 85.115l.586 1.153.6 1.194c15.457 30.911 26.531 65.407 37.344 111.461l.669 2.863.526 2.277 2.819 12.291c10.592 46.403 17.87 81.005 23.894 114.957l.391 2.214 1.004 5.768c7.564 43.946 13.898 87.494 18.966 130.615l.841 7.257c2.115 18.529 4.025 37.681 6.098 60.681l.277 3.09.913 10.33a2290.984 2290.984 0 0 1 2.663 33.328l.395 5.541.811 12.047.477 6.866.058.929.193 3.578.053.84c.073 1.075.155 1.983.259 2.822l.082.617.092.601c.268 1.639.796 3.109 1.671 4.748l.226.413 1.501 2.685-2.721 1.433c-14.189 7.475-42.125 10.763-80.448 10.934l-1.164.005h-2.396c-18.622-.011-38.358-.729-58.951-1.956l-4.658-.285-3.887-.248c-1.674-.109-3.304-.219-4.993-.336l-2.593-.182-10.828-.792c-48.708-4.666-99.787-4.588-156.07-.375-146.736 8.027-273.389 4.64-392.43-13.128l-3.605-.542-2.657-.432-1.584-.266c-12.627-2.155-20.556-4.918-26.742-10.716l-.324-.308-.27-.264-.117.001c-6.23-.026-11.932-4.102-14.048-10.11l-.11-.324-.14-.449-.096-.446a24.104 24.104 0 0 0-.371-1.408l-.117-.392-.984-3.221 3.313-.606c.285-.052.582-.251.87-.668l.276-.394.478-.663 1.154-1.582c1.23-1.724 1.834-2.806 2.134-3.892.265-.963.364-2.196.335-3.912l-.022-.838-.13-3.04a39.976 39.976 0 0 1-.019-.663l-.004-.305-.002-4.279.01-4.703c.008-2.052.02-4.054.036-6.019l.026-2.922.027-2.356c.16-13.026.542-26.043 1.147-39.038a1143.306 1143.306 0 0 1 6.083-75.946C51.64 482.694 60.72 432.158 73.07 383.323l1.24-4.877c13.355-52.192 26.23-92.428 42.595-129.636 20.815-47.323 46.194-86.272 78.148-117.408 17.569-17.121 37.025-31.57 57.702-42.654 9.509-5.097 19.615-9.62 30.453-13.689l1.553-.578 2.507-.916 1.924-.71 6.197-2.316a284.68 284.68 0 0 0 4.397-1.693l1.038-.41 11.098-4.427 1.843-.725 2.049-.797 1.507-.578c2.462-.94 4.692-1.76 6.763-2.482l1.223-.422 1.111-.373 4.736-1.64-.092 4.31c-.062 2.864.676 5.03 2.316 6.584l.054.05.057.045.051.033.287-.008 1.119-.005c.115-.064.224-.138.325-.224 1.593-1.353 2.334-3.167 3.053-7.327l.19-1.158.332-2.168.133-.82c.478-2.888.896-4.482 1.707-6.306 1.173-2.636 2.723-5.203 4.548-7.563l.426-.54 1.704-2.05.261-.323c.597-.765.904-1.305 1.032-1.8l.031-.135.17-.86.607-.634Z"/><path id="🖍 Ink" fill="#000" d="M618.424 97.624c-.802-.447-.096-1.593.71-1.214 38.745 18.176 68.468 50.065 89.382 86.91 21.656 38.151 33.999 81.468 44.64 123.804l.384 1.53c11.347 45.29 20.995 91.048 29.681 136.918 8.797 46.451 15.858 93.19 21.538 140.122 2.81 23.205 5.315 46.451 7.269 69.744a2280.02 2280.02 0 0 1 2.66 34.943c.319 4.661.618 9.322.876 13.987l.184 3.499c.159 3.174.536 6.356-.248 9.487-.677 2.699-2.106 5.143-3.363 7.621-2.486 4.898-9.301 4.091-11.98 0l-.778-1.192c-1.776-2.745-3.252-5.297-3.81-8.714-.539-3.309-.559-6.776-.801-10.118-.445-6.149-.824-12.304-1.256-18.455a2279.326 2279.326 0 0 0-3.054-38.818c-2.231-25.526-4.624-51.029-7.563-76.485-5.222-45.24-11.775-90.36-19.5-135.24-7.548-43.842-17.089-87.24-27.044-130.582l-1.031-4.484c-17.429-75.674-44.291-162.822-116.896-203.263ZM205.737 393.946c.285-.757 1.511-.931 1.718 0 2.61 11.751 2.868 23.854 3.267 35.885.393 11.868.377 23.79.204 35.665-.638 43.643-1.836 87.249-2.872 130.885-.518 21.827-1.004 43.657-1.377 65.487a4678.56 4678.56 0 0 0-.358 24.563l-.121 10.799c-.06 4.775-.185 9.491-.767 14.26-.384 3.137-1.202 6.129-2.934 8.818-1.229 1.909-2.981 2.878-4.689 4.175l-.319.247c-2.178 1.721-4.472 1.733-6.629 0l-.627-.495c-2.06-1.611-3.841-2.87-5.156-5.419-1.83-3.543-2.123-7.392-2.434-11.296-.472-5.92-.159-11.927-.098-17.864.122-11.91.287-23.818.496-35.727.767-43.671 2.283-87.35 5.046-130.943 1.301-20.533 3.066-41.133 5.434-61.584l.451-3.833c.718-6.017 1.373-12.141 2.111-18.285-11.017-7.749-20.701-17.151-28.959-27.817-.608-.785.393-1.886 1.127-1.126 8.438 8.737 18.113 15.702 28.824 21.179 1.755-12.861 4.168-25.653 8.662-37.574ZM389.789 4.66c.151-.117.387-.168.531 0 2.368 2.761 1.888 6.982 1.964 10.48l.009.326c.17 5.115.202 10.214.185 15.333l-.053 16.29c-.007 2.24-.189 4.572-.074 6.825l.06.872a5.368 5.368 0 0 1 1.4 4.965c-.076 2.372-1.316 4.35-3.125 5.595l3.877 5.5 3.881 5.498c7.999 11.345 16.086 22.589 24.514 33.621 8.594 11.249 17.762 22.074 27.356 32.482a542.579 542.579 0 0 0 14.332 15.004c1.983 1.993 4.014 3.936 6.023 5.901l1.999 1.975c1.181 1.181 2.667 2.349 3.451 3.846.461.883.566 3.059.731 3.419 1.48 3.253-1.045 8.44-5.241 6.817l.191-.126c.764-.532.274-.539-1.47-.023a6.643 6.643 0 0 1-3.095-.758l-.287-.158c-1.357-.689-2.568-2.024-3.67-3.091l-.274-.261c-2.521-2.362-4.924-4.867-7.34-7.336a421.92 421.92 0 0 1-14.744-15.814c-9.52-10.778-18.545-21.993-27.092-33.556-8.706-11.777-16.798-24.159-23.757-37.049-2.641-4.891-5.062-9.877-7.383-14.921-4.518-1.45-5.567-6.256-5.252-11.669-1.667-3.881-3.169-7.843-4.057-11.892-.121-.555.592-1.078 1.019-.593 1.445 1.642 2.783 3.39 4.069 5.184.776-3.795 1.758-7.288 2.22-9.515l2.003-9.829c-11.287-.587-23.655 4.05-31.436 12.168-.418 2.113-2.045 3.627-3.631 5.602-1.812 2.26-3.393 4.794-4.572 7.446-2.615 5.875-1.139 14.534-6.214 18.846-.529.449-1.12.76-1.73.953 2.408 11.808 1.316 24.82 1.263 36.798l-.002 1.054c.012 13.407-.436 26.825-.954 40.221l-.527 13.258c-.683 17.682-1.126 35.373.592 52.957a395.263 395.263 0 0 1 24.348-19.896 391.272 391.272 0 0 1 16.876-12.017l4.656-3.111c5.579-3.742 11.294-7.591 17.402-10.271 7.99-3.503 15.588-2.299 23.302 1.294 7.682 3.579 15.135 7.736 22.67 11.615 7.664 3.944 15.344 7.855 23.019 11.776 5.084 2.598 12.534 4.943 16.263 9.725.238-1.058.515-2.113.839-3.164-.37-1.603-.227-3.335.672-4.986 12.53-23.023 24.123-46.596 35.635-70.14 5.827-11.915 11.367-23.971 17.205-35.879l5.676-11.597c.948-1.932 1.899-3.863 2.855-5.79 1.432-2.887 2.923-5.745 4.371-8.624.612-1.216 1.379-2.424 1.975-3.652l.282-.616c.014-.032 1.389-4.356.327-3.944l-.092.044c-.542.307-.976-.375-.625-.81 1.502-1.856 3.594-.212 4.451 1.508 2.362 4.73-1.965 12.156-3.629 16.686l-.092.253c-5.165 14.62-11.013 28.964-17.005 43.259-11.489 27.407-23.831 54.393-36.146 81.426l-.146.465c2.626-2.013 5.43-3.84 7.831-5.618 6.057-4.487 12.291-8.753 18.515-13.005 11.414-7.798 23.138-15.082 35.055-22.078l2.386-1.396c5.953-3.468 11.85-6.28 18.916-5.239 6.565.968 12.668 4.494 18.598 7.359l.613.293 18.325 8.712c-1.959-7.812-4.08-15.586-6.293-23.331a847.357 847.357 0 0 0-14.215-44.933c-4.81-13.87-10.009-27.59-15.509-41.2l-1.656-4.085c-2.243-5.604-4.472-11.715-10.882-13.44-6.405-1.726-13.752.832-19.606-2.819-.532-.331-.466-1.209.179-1.37l3.613-.911c6.782-1.687 14.733-3.384 21.146-1.744 6.979 1.788 12.753 7.645 16.139 13.734 3.765 6.774 6.419 14.354 9.276 21.577l.453 1.137a831.57 831.57 0 0 1 9.451 24.672 831.527 831.527 0 0 1 16.499 50.169 986.088 986.088 0 0 1 6.854 24.518c.628 2.358 1.664 5.217 2.514 8.199.974.95 1.896 2.01 2.761 3.219 1.435 2.006.405 4.358-1.379 5.559-.069 2.052-.525 3.982-1.615 5.636-4.255 6.459-15.504 4.795-15.047-3.888.069-1.329.587-2.598 1.371-3.67l-.022-.174-.089-.318c-1.953-.936-3.914-1.979-5.981-3l-19.232-9.503c-5.57-2.753-11.744-7.006-17.938-8.055-5.774-.977-11.867 3.325-16.829 5.921l-.322.166c-11.995 6.148-23.901 12.5-35.76 18.904-5.789 3.127-11.503 6.384-17.27 9.548-4.822 2.646-10.026 6.444-15.446 7.937-2.315 1.8-5.065 1.559-7.275.198 1.01 6.255.948 12.674 1.258 19.069.417 8.55.481 17.123.618 25.684l.056 3.209c.364 18.926.559 37.857.631 56.787.256 67.408-.489 134.836-.663 202.244-.088 33.868-.759 67.765-1.639 101.62-.373 14.346-1.153 28.675-1.995 42.999l-.464 7.812c-.981 16.485-1.56 33.152-4.612 49.415-.398 2.121-3.988 2.175-4.34 0-2.808-17.426-2.965-35.234-3.505-52.865l-.114-3.524c-.649-18.93-.957-37.848-.891-56.788.24-67.435 1.993-134.828 3.427-202.244.721-33.872 1.206-67.759 2.326-101.62.56-16.943 1.194-33.875 1.946-50.811.336-7.561.659-15.115 1.162-22.666l.226-3.236c.156-2.111.282-4.196.435-6.262-6.823 2.492-13.063-2.122-19.201-5.279-7.074-3.639-14.145-7.284-21.222-10.916l-7.082-3.625-14.175-7.233c-6.382-3.257-11.299-6.498-18.106-2.678-24.523 13.758-47.058 32.064-67.48 51.273-3.916 3.684-12.191 2.694-13.183-3.48-4.237-26.375-1.66-53.132.503-79.588l.798-9.822c.966-11.731 2.019-23.462 3.421-35.146.627-5.226 1.252-10.449 1.943-15.666l.532-3.91c.864-6.184 1.428-12.33 3.27-18.26a4.261 4.261 0 0 1-1.64-.97c-5.538-5.254-2.868-14.37-.341-20.62 2.495-6.17 6.3-11.553 11.065-16.188 1.039-1.012 2.504-1.663 3.976-1.697 11.553-7.654 24.227-11.474 37.418-7.296.371-1.771.749-3.54 1.146-5.304l.405-1.762c1.026-4.378 1.407-11.608 5.183-14.536ZM508.195 695.88c3.585-.986 7.51.053 10.137 2.68 2.626 2.627 3.666 6.551 2.678 10.136a10.407 10.407 0 0 1-2.678 4.598 10.385 10.385 0 0 1-4.223 2.567l-.375.112-.586.244a10.21 10.21 0 0 1-5.391 0 10.143 10.143 0 0 1-4.475-2.607 10.133 10.133 0 0 1-2.608-4.476 10.21 10.21 0 0 1 0-5.391l.245-.586a10.392 10.392 0 0 1 2.678-4.597 10.414 10.414 0 0 1 4.598-2.68Zm212.869-357.238c.589-.676 1.544.19 1.178.909-5.584 10.947-11.808 21.816-17.925 32.485.49 2.957.976 5.89 1.535 8.749 2.383 12.186 5.302 24.152 7.205 36.454 6.84 44.219 10.391 88.918 13.438 133.534 3.056 44.776 3.447 89.572 3.906 134.436.04 3.888-2.951 8.407-6.959 9.14-1.835.335-3.208.27-5.039 0-4.171-.614-6.78-5.392-6.959-9.14-1.196-25.074-2.805-50.116-4.669-75.151-3.304-44.384-5.323-88.884-7.992-133.314l-.94-15.529c-1.008-16.826-1.931-33.663-2.232-50.514-.2-11.164.397-22.325.03-33.476-.339-10.295-1.383-21.489.887-31.604.084-.379.683-.475.856-.112 2.36 4.968 3.855 10.368 5.007 15.88 6.082-7.692 12.276-15.401 18.673-22.747ZM322.668 66.695c.854-.063.82 1.22 0 1.315-11.936 1.384-23.467 6.241-34.737 10.37l-.965.352c-11.386 4.13-22.487 8.934-33.17 14.66-20.887 11.196-40.067 25.632-57.025 42.158-67.705 65.972-98.56 161.106-121.17 250.508-12.561 49.671-21.494 100.182-27.284 151.08a1140.33 1140.33 0 0 0-6.067 75.747 1136.11 1136.11 0 0 0-1.144 38.935 1474.45 1474.45 0 0 0-.098 19.952c.004 3.048.548 6.885-.267 9.844-.756 2.742-2.888 5.155-4.465 7.439-1.87 2.71-5.228 2.567-7.123 0l-.7-.934c-2.02-2.681-3.998-5.244-4.286-8.748-.31-3.756-.091-7.628-.105-11.401-.032-7.601.062-15.203.214-22.802a1136.15 1136.15 0 0 1 1.72-43.67c1.732-29.515 4.583-58.97 8.665-88.253 7.256-52.05 18.132-103.603 32.378-154.187 13.44-47.719 29.362-95.297 52.044-139.499 21.06-41.04 48.688-79.219 85.144-107.901 16.953-13.338 35.408-24.453 55.305-32.825 10.035-4.221 20.573-7.668 31.29-9.633 10.598-1.944 21.15-1.672 31.846-2.507ZM510.25 611.533c1.893-.014 4.004.402 5.628 1.449l2.17 1.677c.588.755 1.173 1.513 1.756 2.273 1.357 1.768 1.537 4.629 1.254 6.736a7.864 7.864 0 0 1-1.254 3.928l-1.652 2.139c-1.588 1.295-2.912 2.219-4.835 2.842-1.006.325-1.974.393-2.939.344l-.321-.021.193.026-.338-.038a19.21 19.21 0 0 1-.945-.104c-.215-.027-.431-.043-.646-.073a3.519 3.519 0 0 0-.616-.006c-2.444.23-4.901-1.156-6.636-2.748-1.563-1.435-2.966-4.478-2.748-6.635l.093-.902c.164-1.52.299-2.119.944-3.646.626-1.486 1.501-2.797 2.692-3.905 2.28-2.121 5.071-3.314 8.2-3.336Zm-7.566-111.283c3.244-3.535 8.815-3.795 12.838-1.657.98.522 1.88 1.359 2.744 2.057 2.177 1.76 3.032 4.935 3.152 7.61.119 2.645-1.276 5.786-3.152 7.612l-.455.441c-1.121 1.09-2.727 2.038-4.295 2.326-2.529.465-4.653.451-7.008-.543-2.023-.854-3.767-2.226-4.953-4.088l-.193-.315a6.896 6.896 0 0 1-.23-.4l-.105-.205c-2.254-4.334-1.648-9.24 1.657-12.838Zm1.68-111.87a8.327 8.327 0 0 1 4.388-.196 5.472 5.472 0 0 1 2.777.75 5.483 5.483 0 0 1 2.428 1.416 5.522 5.522 0 0 1 1.974 1.973 8.29 8.29 0 0 1 1.97 3.742l.392 2.925-.392 2.926-1.11 2.629c-.305.398-.612.796-.922 1.192a5.539 5.539 0 0 1-1.979 1.98 5.507 5.507 0 0 1-1.848 1.215c-2.45 1.756-5.714 2.329-8.617 1.529a10.147 10.147 0 0 1-4.49-2.616 10.158 10.158 0 0 1-2.616-4.49l-.198-1.376c-.257-1.846-.297-2.868.225-5.215.229-1.032.894-2.487 1.242-3.1 1.488-2.616 3.919-4.409 6.776-5.284Zm127.033-80.482c4.201-.03 8.402-.021 12.602.025l3.15.042c5.275.083 9.793-.461 13.94 3.199 3.01 2.656 1.684 7.112-1.173 9.113-4.329 3.03-9.759 1.506-14.735 1.172-5.248-.352-10.5-.644-15.754-.88-10.173-.455-20.35-.745-30.533-.79-10.161-.043-20.337.053-30.497.217-10.338.168-21.102 1.131-31.382.061-1.412-.147-1.73-2.004-.336-2.487 9.687-3.351 20.584-4.437 30.736-5.718 10.471-1.323 20.942-2.259 31.479-2.866 10.823-.621 21.662-1.012 32.503-1.088Zm-127.052-32.914.347.007c1.849.005 3.579.44 5.193 1.305l.344.192 2.22 1.714a10.961 10.961 0 0 1 2.82 4.841l.392 2.916a8.26 8.26 0 0 1-.944 4.226 8.235 8.235 0 0 1-2.268 3.53 8.241 8.241 0 0 1-3.53 2.268 8.235 8.235 0 0 1-3.88.951l-.347-.006a10.925 10.925 0 0 1-5.535-1.498l-2.221-1.715a10.953 10.953 0 0 1-2.82-4.84l-.393-2.916c-.056-1.51.258-2.92.946-4.226a8.227 8.227 0 0 1 2.267-3.531 8.221 8.221 0 0 1 3.531-2.267 8.213 8.213 0 0 1 3.878-.951Zm32.519-257.67c2.363-3.423 6.646-.38 6.033 2.373.162 7.729.557 15.23 2.316 22.8.805 3.467 1.86 6.937 3.487 10.112l.683 1.337c2.106 4.16 3.741 8.084.905 12.649-1.337 2.152-3.753 3.768-6.372 3.655-11.615-.501-13.211-16.668-13.917-25.693-.728-9.295 1.536-19.51 6.865-27.233Z"/></g></svg>