<svg xmlns="http://www.w3.org/2000/svg" width="818" height="733" fill="none" viewBox="0 0 818 733"><g id="body/Coffee"><path id="☕️ Cup" fill="#FDEA6B" d="M461 279h229v282H461z"/><path id="✋ Skin" fill="#D08B5B" fill-rule="evenodd" d="M394.207 3.173c24.685-18.797 86.658-27.25 113.004-9.15 26.022 18.174 28.859 47.566 40.985 74.604 11.441-5.395 30.334 2.331 33.651 12.947 4.114 5.007 4.299 19.075 7.136 25.806 123.442 19.649 142.183 115.887 157.041 225.145 19.656 110.869 64.277 221.496 44.906 335.582 2.524 3.652 4.514 7.202 6.354 11.418 4.409 7.502-1.27 18.121-10.163 17.71-11.511-1.011-22.908-2.391-34.473-2.822-32.06-1.113-64.149-.98-96.221-.573l-4.373.057c-161.633 2.012-323.257 5.977-484.897 7.029-5.864.008-8.735-5.251-7.952-10.439 1.577-10.445 3.04-20.895 4.567-31.345-38.232 10.098-78.876 12.639-117 1.062-2.667-2.717 6.214-1.244 7.623-1.657-35.086-23.975-24.608-74.482-21.5-110.86 19.326-124.651 26.14-262.569 100.808-368.936 32.303-43.408 79.662-77.776 134.081-85.509l1.51-.206c15.912-2.122 33.646-2.805 47.558-11.462 15.647-12.49 22.315-35.572 38.777-35.788 5.435-.071 12.83 6.806 20.787 11.474.594-10.27 6.129-18.938 7.351-26.901l.099-.681c1.275-9.284-.471-17.637 10.341-26.505ZM659.495 335.82c-34.69-24.1-124.303-11.991-126.355-10.641-4.517 2.971-6.462 3.233-8.905 7.091-2.412.32-4.822.652-7.23.994-4.831 1.578-1.251 7.52 4.329 5.4-3.356 14.475 6.521 24.768 10.453 39.078 1.277 4.646.046 13.002 0 17.749.381 6.053 7.074 13.203 5.958 19.276-3.965 21.589-25.483 42.649-16.411 63.586 6.01 11.825 24.086 17.854 36.104 21.874 24.899 9.556 68.283-.359 82.75-21.874 7.717-11.476 16.657-40.424 21.258-49.403l1.019-14.243c2.515-35.407 4.752-73.523-2.97-78.887Z" clip-rule="evenodd"/><path id="👕 Top" fill="#9DDADB" fill-rule="evenodd" d="m354.345 45.85 9.928 6.093 57.658 28.502c11.178 3.13 16.767 6.88 16.767 11.253v44.519c0 5.957 10.49 19.46 31.469 40.506l19.381-19.321-.433-2.53c-1.844-10.9-2.767-18.192-2.767-21.875 0-3.96 18.962-18.996 56.886-45.106l16.591-15.62-1.769-5.38c10.229.484 21.323 6.783 23.791 14.683 4.114 5.007 4.299 19.075 7.136 25.806 123.442 19.649 142.183 115.887 157.041 225.145 19.656 110.869 64.277 221.496 44.906 335.582 2.524 3.652 4.514 7.202 6.354 11.418 4.409 7.502-1.27 18.121-10.163 17.71-11.511-1.011-22.908-2.391-34.473-2.822-32.06-1.113-64.149-.98-96.221-.573l-4.373.057c-161.633 2.012-323.257 5.977-484.897 7.029-5.864.008-8.735-5.251-7.952-10.439 1.577-10.445 3.04-20.895 4.567-31.345-38.232 10.098-78.876 12.639-117 1.062-2.667-2.717 6.214-1.244 7.623-1.657-35.086-23.975-24.608-74.482-21.5-110.86 19.326-124.651 26.14-262.569 100.808-368.936 32.303-43.408 79.662-77.776 134.081-85.509l1.51-.206 1.521-.198c15.513-1.975 32.566-2.882 46.037-11.264 15.234-12.161 21.957-34.36 37.493-35.723Zm138.157 261.306c-5.655 0-17.237 8.782-34.745 26.346l-1.543.713c-21.164 9.831-35.186 18.359-42.063 25.584l-.246.261c-6.947 7.453-20.706 27.273-41.275 59.459l-29.786 17.615h-11.271l-8.024 58.204 19.295 41.559 43.703-14.721 71.21-18.769 40.862-41.456 23.05-7.738c-2.797 8.079-3.81 16.118-.335 24.139 6.01 11.824 24.086 17.854 36.104 21.874 24.899 9.556 68.283-.359 82.75-21.874 7.717-11.476 16.657-40.424 21.258-49.403l1.319-18.503c2.378-34.144 4.144-69.478-3.27-74.627-34.69-24.1-124.303-11.991-126.355-10.641-4.517 2.971-6.462 3.233-8.905 7.091l-1.265.17 7.112-9.645-2.518-1.345c-17.968-9.529-29.655-14.293-35.062-14.293Zm28.832 31.507c-3.213 13.857 5.703 23.883 9.919 37.269l-10.773-20.624-.001-16.377c.279-.069.564-.157.855-.268Z" clip-rule="evenodd"/><path id="🖍 Ink" fill="#000" fill-rule="evenodd" d="M349.585 43.698c2.394-2.12 5.939.544 4.417 3.41-3.42 6.438-6.928 12.54-11.518 18.231-2.783 3.451-5.764 6.715-8.785 9.943 7.753 6.707 14.402 15.034 20.681 22.838 8.029 9.981 15.62 20.385 24.633 29.518 8.888 9.008 18.717 15.304 30.601 19.503l2.4.833c11.938 4.191 24.697 9.851 31.427 21.154 1.327 2.229-1.345 4.983-3.591 3.592-11.693-7.24-25.432-8.696-38.16-13.48-12.295-4.621-23.013-11.733-32.483-20.81-9.454-9.062-17.392-19.372-25.672-29.464-8.188-9.979-17.004-18.502-26.689-26.945-14.946 10.055-32.006 14.43-49.353 18.727l-1.893.468c-17.368 4.3-34.643 9.294-50.937 16.782-14.366 6.601-28.496 14.484-40.198 25.226-12.422 11.4-22.09 25.96-30.939 40.199-19.794 31.856-33.71 66.756-45.962 102.08-12.741 36.742-23.4 74.22-32.003 112.143-4.377 19.29-7.93 38.717-10.852 58.28a873.2 873.2 0 0 0-3.752 28.327c-1.17 10.105-1.44 20.501-4.54 30.217-1.328 4.164-4.467 5.892-7.608 5.745l-.637 7.979c-.846 10.638-1.635 21.279-1.901 31.983-.442 17.798-.242 35.545 1.038 53.306l.181 2.421c1.006 12.962 3.255 27.526 13.002 37.017 10.094 9.83 25.617 12.921 39.221 13.098 31.688.413 62.19-14.559 90.23-27.694 28.878-13.527 56.967-28.542 84.383-44.826a1277.856 1277.856 0 0 0 41.408-25.681 1097.289 1097.289 0 0 0 19.929-13.204c3.777-2.562 7.356-5.371 11.201-7.644-1.884-1.754-2.725-4.512-1.147-6.92-11.115-9.648-15.742-26.865-16.282-40.796-.438-11.245 1.218-22.458 2.524-33.597.659-5.617 1.473-11.224 2.318-16.816.334-2.209.589-4.572.979-6.904-30.013 16.493-60.867 31.181-92.538 44.23-16.234 6.689-32.676 12.703-49.345 18.214l-3.379 1.112c-15.794 5.17-31.966 10.054-48.293 13.009-.873.158-1.582-1.131-.65-1.542 15.912-7.021 32.375-12.943 48.526-19.409l2.654-1.081a5.336 5.336 0 0 1-.951-.138c-9.472-2.286-18.87-5.809-28.16-8.775-8.622-2.753-18.309-4.482-26.368-8.638-.62-.32-.273-1.182.331-1.223 9.058-.628 18.891 2.012 27.772 3.565l3.336.585c5.589.985 11.302 2.045 16.864 3.426.201-1.863 1.242-3.734 2.723-4.831 16.297-12.069 14.642-36.445 16.385-54.42l1.292-13.345c2.273-23.355 4.679-46.707 8.333-69.888.195-1.238 2.11-.883 2.118.286.188 28.735-1.981 57.337-3.068 86.027l-.169 4.707c-.601 17.702-1.072 36.085-12.221 49.706 1.559-.911 3.667-.911 4.93.591 1.552 1.847 2.448 3.921 2.42 5.956a1637.064 1637.064 0 0 0 30.088-12.98c32.093-14.218 63.513-30.129 94.102-47.345 3.292-1.853 6.421-.397 8.049 2.046l.234-.033c.04-.006.08-.01.121-.011l.233-.01.026.001c4.306-2.366 10.172-.681 13.867 2.77.109.104.202.216.299.326a49.484 49.484 0 0 0 13.01-8.528c8.112-7.352 14.983-16.443 20.973-25.559 11.031-16.79 20.401-35.461 35.302-49.282 12.107-11.229 27.117-18.22 42.864-22.609-.066-.46.11-.95.428-1.276.809-.829 1.386-1.116 2.431-.613a.376.376 0 0 1 .167.157l1.536-2.625c.839-1.425 1.7-2.86 1.999-3.237a243.16 243.16 0 0 1 5.496-6.672c3.167-3.703 6.776-7.357 10.955-9.925 9.15-5.621 18.768-2.44 28.176.632 5.683 1.857 11.349 3.774 17.023 5.659l.585.192c4.231 1.359 9.182 2.548 11.074 7.03.749 1.774.865 3.615.516 5.401 40.184-10.219 84.815-5.524 124.028 6.472 1.505.46 3.008 1.698 3.326 3.324 4.492 23.041 6.494 46.67 4.461 70.104-1.755 20.228-6.237 40.051-14.683 58.57l-.48 1.046c-7.937 17.163-20.518 38.319-39.731 43.698-11.601 3.248-24.432 1.333-36.263.738-11.5-.579-23.253-.663-34.643-2.471-10.144-1.61-19.032-6.157-25.301-14.405-5.408-7.116-8.256-15.716-10.589-24.271-1.068.34-2.129.701-3.173 1.11-4.407 1.721-8.141 4.499-11.517 7.768-7.129 6.904-12.659 15.289-20.118 21.877-6.752 5.964-14.446 10.602-22.699 14.168-17.102 7.39-35.448 10.342-53.537 14.259l-1.261.274c-13.619 2.988-27.518 6.657-39.538 13.747-.235 2.087-1.186 4.051-2.71 5.337 2.12 1.991 3.018 5.144 1.155 8.102-5.204 8.259-14.168 12.958-22.215 18.239l-.523.345a1089.955 1089.955 0 0 1-23.951 15.431c-16.365 10.246-33.072 19.928-50.015 29.184-27.251 14.887-55.087 28.93-83.427 41.668 1.701 8.369 1.079 16.998 2.357 25.422l.197 1.202c.546 3.127-.192 5.743-2.346 7.785l-.227.209.004-.028-.202.185-.068.057.023-.018a7.494 7.494 0 0 1-.766.621l-.332.213c-2.075 1.261-4.745 1.246-6.869.134l-.242-.134-.408-.234c-2.806-1.614-4.741-5.613-3.577-8.79 2.861-7.808 3.942-16.141 6.584-24.001l-2.096.937-2.763 1.205c-29.878 12.919-63.066 23.799-95.62 14.991-14.384-3.893-27.828-12.127-35.025-25.548-7.083-13.206-8.084-28.54-8.46-43.23a347.967 347.967 0 0 1 2.9-54.514c1.604-12.066 3.546-24.36 6.54-36.301-1.54-1.359-2.672-3.308-2.971-5.722-1.413-11.405 1.06-23.262 2.573-34.608 1.48-11.078 3.113-22.134 4.961-33.156 3.731-22.259 8.066-44.471 13.113-66.469 8.983-39.151 20.843-77.606 35.123-115.142l1.251-3.269c13.196-34.309 28.474-67.886 49.749-98.027 10.177-14.42 20.935-27.494 35.315-37.885 13.472-9.736 28.668-16.746 44.35-22.104 15.699-5.362 31.835-8.955 48.256-11.19 16.677-2.27 34.28-3.662 49.837-10.502-1.968-3.528-.28-8.29 3.033-10.479 11.146-7.364 21.453-16.944 31.443-25.796ZM706.39 363.92c.467-.709 1.576-.261 1.371.578-5.421 22.209-10.51 44.463-13.833 67.096-5.998 40.849-4.895 82.233-4.405 123.384l.025 2.129c.252 22.166.602 44.334 1.335 66.491.37 11.198 1.102 22.506.704 33.71-.217 6.078-1.837 11.827-2.411 17.832-.503 5.251-.055 10.583.196 15.841.168 3.496-4.992 3.347-5.343 0l-.449-4.329c-.583-5.479-1.303-10.924-3.099-16.168-2.159-6.307-3.195-12.501-3.944-19.123-1.147-10.148-1.657-20.397-2.1-30.615l-.303-7.068c-1.849-42.704-1.784-85.609 1.209-128.269l.219-3.046c2.964-40.324 8.107-83.893 30.828-118.443ZM590.835 109.773c-1.416-.582-.92-2.723.648-2.35l2.852.68c20.894 5.005 41.41 10.427 60.912 19.74 19.515 9.318 36.037 23.229 49.165 40.335 25.52 33.251 36.125 73.661 44.497 114.033 9.304 44.861 17.775 89.886 27.16 134.733l1.743 8.354c8.684 41.769 16.883 83.563 22.924 125.827l.434 3.065c6.093 43.462 9.757 88.428 3.109 132.003-1.315 8.621-15.661 6.474-15.1-2.043 1.62-24.623 2.78-49.117 1.659-73.795-1.122-24.683-3.437-49.258-6.888-73.725-2.904-20.59-7.233-40.924-11.064-61.351l-.601-3.226c-3.208-17.374-6.515-34.73-9.815-52.087l-4.931-25.988c-7.391-38.913-14.927-77.86-23.442-116.529l-.505-2.275c-8.333-37.202-20.618-76.172-45.613-105.714-25.365-29.981-61.676-45.08-97.144-59.687Zm-92.167 394.598c.61-1.359 2.744-1.21 3.4 0 2.571 4.742 2.856 10.796 3.342 16.149l.051.552c.618 6.533 1.165 13.088 1.5 19.642.635 12.439.939 24.862.9 37.317-.04 12.764-.297 25.513-.985 38.258l-.186 3.415c-.628 11.075-1.682 23.429-6.945 33.112-1.913 3.521-7.116 2.486-8.224-1.074-3.63-11.656-1.766-25.476-.835-37.414l.723-9.315c.716-9.317 1.399-18.636 1.94-27.963.742-12.761 1.354-25.533 1.943-38.3.192-4.147.399-8.295.617-12.442l.336-6.218c.287-5.202.263-10.91 2.423-15.719ZM90.52 520.89l1.608-1.552c4.933-4.828 11.166-12.262 18.459-11.801 2.908.184 4.761 2.598 4.158 5.459-1.288 6.116-7.527 9.29-12.018 13.024-4.92 4.089-9.557 8.46-14.185 12.873a277.548 277.548 0 0 0-11.908 12.087l-1.441 1.562c-1.382 1.507-11.219 10.405-10.155 12.713l.058.104c.296.442-.197 1.05-.688.895-4.248-1.342-3.983-4.983-2.377-8.672 3.086-7.088 8.49-13.645 13.209-19.698 4.706-6.039 9.8-11.662 15.28-16.994Zm423.542-177.753c-3.285-7.764-15.386-7.601-22.256-7.137-17.3 1.169-36.018 5.546-51.411 13.632-15.959 8.383-26.709 21.815-36.327 36.668l-.45.697c-9.375 14.573-18.404 31.824-33.084 41.844-7.477 5.105-16.208 9.766-25.28 11.785-.623 1.095-1.632 1.962-2.955 2.277l-.615.141c-2.584.571-6.598 1.202-10.065.824.023 1.696.005 3.379.048 4.986.122 4.605.174 9.23.174 13.838.002 9.655-.517 19.329-.114 28.983.357 8.539 1.563 17.461 5.663 25.094 3.007 5.6 6.976 9.306 11.767 12.844 11.786-7.183 25.113-11.561 38.639-14.853 16.358-3.981 33.107-6.638 49.093-12.036 7.694-2.599 15.091-6 21.793-10.619 7.113-4.905 12.546-11.541 18.136-18.032l.873-1.008c5.705-6.543 11.93-12.803 19.993-16.351 6.943-3.056 16.094-3.6 22.165-8.328 3.174-2.474 3.44-6.064 3.774-9.74-3.888.556-8.004-.335-11.879-.789l-2.008-.235c-3.664-.436-7.244-.914-10.851-1.847-.67-.173-.67-1.183 0-1.356 4.263-1.101 8.488-1.57 12.859-2.082l1.026-.128c3.954-.518 8.111-1.301 11.99-.431a32.769 32.769 0 0 1 3.111-7.708c1.979-3.557 5.724-7.59 6.23-11.745.151-1.241-.138-2.704-.723-3.801l-.202-.373c-.246-.442-.537-.886-.963-1.162-.047.055-.147.118-.364.186-2.985.94-5.589-.521-6.971-2.773-5.867.728-12.27.483-17.772.726l-5.563.27c-5.945.272-12.159.391-17.744-.81-.78-.167-1.016-1.465-.235-1.799 6.867-2.937 15.197-3.874 22.549-5.002 4.106-.631 8.242-1.111 12.36-1.666 2.742-.37 5.652-.981 8.493-1.128 7.123-8.867 3.285-22.855-6.628-26.673-3.611 1.587-6.858.664-10.803.325-3.938-.338-7.886-.567-11.84-.55-7.923.035-16.319 2.119-24.165 1.222-1.276-.147-2.462-1.845-1.193-2.881 6.005-4.901 14.613-6.499 22.236-7.543l1.581-.212c2.556-.335 5.664-.824 8.888-1.115.729-1.422 2.037-2.497 4.002-2.764.584-.08 1.171-.127 1.757-.177l-.009-.058c4.792-.23 4.584-8.324 3.27-11.43ZM185.993 494.562a4.113 4.113 0 0 1-.276.375l-.152.176.788-.32-.36-.231Zm411.691-168.774c-20.17-2.167-40.369-1.71-60.599-1.128-1.618 5.292-7.25 9.802-12.707 9.972 4.274 6.505 4.715 15.309 1.718 22.208 6.363 2.533 11.845 7.083 15.173 13.563 4.615 8.983 4.011 18.979-.55 27.281 3.893 3.524 6.19 9.247 5.96 14.641-.257 6.015-3.842 11.153-6.821 16.133-3.219 5.386-3.327 10.128-4.316 16.16-1.447 8.828-7.401 14.182-15.062 17.526l.407 1.602c1.975 7.689 4.432 15.801 10.078 21.422 7.261 7.233 18.527 7.166 28.122 7.624l.463.022c8.785.44 17.567.954 26.349 1.452l6.588.368c10.112.556 19.823.623 28.078-6.062 13.477-10.912 22.716-28.971 28.564-44.958 12.274-33.556 12.421-70.381 6.787-105.329-18.895-6.09-38.5-10.377-58.232-12.497ZM429.945 381.46l.148.011c4.153.474 7.006 3.837 8.022 7.826 1.476 5.798.752 11.04 4.303 16.274 3.653 5.382 5.899 9.691 6.43 16.34.218 2.736.118 5.465.727 8.143l.442 1.876c.469 2.001.852 3.928.619 6.076-.213 1.959-1.167 3.485-3.132 4.113-6.403 2.048-11.347-2.67-13.001-8.637-1.429-5.154.479-11.296-1.537-16.136-1.117-2.683-3.177-4.927-4.341-7.628-1.153-2.677-1.732-5.474-1.917-8.384-.351-5.504 4.517-12.117 1.801-17.104-.578-1.064.077-2.802 1.436-2.77Zm-85.053-56.798c4.336-.881 9.255-2.9 13.531-1.222 2.198.864 3.284 3.544 1.427 5.407-3.224 3.232-7.91 3.412-12.253 4.174l-.382.069a840.544 840.544 0 0 1-15.43 2.705 717.762 717.762 0 0 1-29.153 4.23c-10.012 1.239-20.052 2.342-30.106 3.172l-3.892.319c-8.493.679-17.33 1.192-25.663-.109-1.211-.189-1.016-1.952 0-2.261 9.129-2.763 19.143-3.504 28.581-4.673 10.034-1.245 20.051-2.56 30.042-4.12 9.975-1.558 19.937-3.23 29.862-5.078a827.155 827.155 0 0 0 13.436-2.613Zm156.455-8.872c-3.805-1.347-7.991-3.343-12.114-2.675-7.11 1.152-13.438 8.079-19.066 12.641l2.825-.549c14.46-2.779 33.608-5.773 45.746 3.42.031-.053.055-.106.09-.159.98-1.488 2.115-2.649 3.354-3.922.118-.111.232-.227.345-.344l.669-.712-1.529-.529c-3.275-1.158-7.155-2.652-7.768-2.871l-.042-.015c-4.175-1.414-8.355-2.812-12.51-4.285ZM382.545 12.716c-.595-7.653 11.316-7.59 11.906 0 1.287 16.57-2.442 32.983-10.468 47.51-.059.106-.124.2-.186.3 5.02 2.612 10.097 5.118 15.287 7.358 6.639 2.866 13.403 5.476 20.288 7.69 6.228 2.004 13.901 2.795 19.137 6.965 11.041 8.792 6.893 27.038 4.769 38.865l-.332 1.867c-1.057 6.086-1.822 12.33.744 18.171 2.74 6.239 8.281 10.867 13.224 15.331l.998.905c4.379 3.99 9.383 8.837 12.595 14.245 2.932-6.062 6.929-11.016 11.155-16.593 3.015-3.98.869-5.292-1.297-9.18-2.085-3.742-3.103-7.731-2.451-12 1.203-7.884 7.504-13.579 13.776-17.858 7.407-5.051 15.674-8.793 23.331-13.492 15.734-9.654 31.057-20.692 44.862-32.95.381-.34 1.041.104.736.567-10.905 16.587-23.692 30.92-39.407 43.086-6.372 4.933-13.066 9.025-19.805 13.327l-1.937 1.243c-2.706 1.753-6.081 4.095-7.304 7.079-1.231 3.001 1.394 5.267 2.807 7.753 4.487 7.895 2.322 15.261-2.997 21.956l-.248.308c-5.286 6.514-9.292 12.572-11.208 20.894-4.117 17.877 1.617 36.498 7.62 53.281l.237.661c3.247 9.046 6.698 18.026 9.519 27.217l.776 2.541c2.556 8.457 4.649 16.798 1.782 25.491-.975 2.957-5.008 3.656-6.683.873-5.909-9.814-7.382-21.624-11.086-32.414-3.61-10.516-7.755-20.842-11.242-31.401-4.49-13.595-7.495-28.229-5.864-42.489-.048-.083-.101-.161-.141-.249l-1.143-2.5c-3.117-6.77-6.127-12.682-11.795-18.078-5.912-5.629-12.329-10.612-16.981-17.426-10.105-14.801-3.856-31.266-2.635-47.45l.14-1.984c.221-3.36.343-7.927-1.852-10.253-2.469-2.618-8.259-3.286-11.535-4.445-8.466-2.996-16.809-6.487-24.755-10.679-7.564-3.99-14.891-8.398-21.713-13.562l-3.458-2.601c-5.456-4.116-11.113-8.612-14.769-14.215-.422-.645.295-1.686 1.059-1.377 6.104 2.477 11.681 6.417 17.392 9.845.089-.209.192-.42.309-.632 7.066-12.788 9.972-26.956 8.843-41.5Zm194.983 87.615c2.432-6.669 13.516-6.154 13.074 1.77-.339 6.088-2.923 11.583-5.287 17.11l-.252.592c-2.44 5.759-5.258 11.166-8.63 16.444-6.443 10.09-13.99 19.454-22.051 28.291-7.308 8.012-16.9 12.911-27.953 12.097-4.657-.343-9.358-1.528-13.439-3.854-4.847-2.764-10.111-11.063-16.295-9.053-.598.194-1.156-.682-.639-1.097 7.139-5.749 15.242 3.165 22.077 5.313 10.299 3.235 20.868-.342 27.497-8.668 6.921-8.693 13.291-18.426 19.108-27.891 2.954-4.806 5.649-9.794 7.977-14.935 2.349-5.189 2.883-10.828 4.813-16.119Zm-16.601-41.042c-.3-.921.844-1.797 1.653-1.271 4.691 3.054 8.756 7.089 13.083 10.626a649.018 649.018 0 0 0 14.548 11.553c7.159 5.519-1.144 15.679-7.446 9.65-8.624-8.247-18.069-19.031-21.838-30.558Zm-25.755-32.28c1.906-7.348 13.177-4.318 11.535 2.945l-.054.221c-3.111 11.997 1.32 24.21 10.779 31.988l.348.283c5.984 4.788-2.494 13.16-8.419 8.418-12.935-10.353-18.316-27.938-14.189-43.855Z" clip-rule="evenodd"/></g></svg>