<svg xmlns="http://www.w3.org/2000/svg" width="818" height="733" fill="none" viewBox="0 0 818 733"><g id="body/Device" fill-rule="evenodd" clip-rule="evenodd"><path id="✋ Skin" fill="#D08B5B" d="M743.718 294.928c-3.142-8.626 1.446-17.23 3.991-25.575 9.041-28.941-15.688-101.938-32.983-103.005-6.325-16.364-23.206-23.152-36.492-32.576-15.077-9.41-29.743-20.218-45.423-28.468-.872-7.795-10.324-9.727-16.104-4.151-15.875-9.875-34.912-8.041-51.929-14.511-12.93-20.9-13.9-42.878-17.324-63.041-1.492-8.79.093-17.27-5.913-25.106-20.175-28.375-99.891-40.678-129.282-23.863-15.821-9.867-16.202 8.003-18.715 19.032-2.793 5.518-4.304 11.767-3.837 18.35-7.49 15.645-13.84 35.213-29.581 46.897-19.973 14.825-50.701 20.461-70.174 27.73-4.368-4.202-5.704-10.28-5.704-10.28-30.18 6.562-59.471 18.095-84.757 36.103-28.728 8.402-48.96 31.767-63.59 56.82-1.612 2.641-1.992 5.334-1.521 7.807-44.989 65.947-66.46 144.896-69.477 224.634-28.93 17.363 13.751 173.341 23.688 205.723l.03-.013c6.446 11.412 13.764 43.976 29.896 41.457 11.066 12.512 28.701 10.052 43.718 11.013-2.446 9.382-1.244 20.117 1.667 29.388 3.443 11.036 20.339 11.41 22.735-.622 149.544 29.054 302.983 5.872 454.208 10.233 43.724.31 87.444 1.663 131.063 4.778 6.142.438 12.369-5.838 11.951-11.953-9.378-99.772-18.184-231.023-28.671-329.818-2.487-22.531-4.455-45.309-11.47-66.983Z"/><path id="👕 Top" fill="#FFCF77" d="M284.248 76.362c.049.223.101.444.157.663l-.572 1.297c-3.623 8.356-5.435 15.275-5.435 20.757 0 12.498 55.624 136.17 179.025 124.805 82.267-7.577 132.411-44.951 150.433-112.122l1.056-14.513c2.664 1.058 5.27 2.333 7.795 3.904 5.78-5.576 15.232-3.644 16.104 4.151 15.68 8.25 30.346 19.058 45.423 28.468l.922.646c13.135 9.095 29.391 15.942 35.57 31.93l2.475.158c16.515 1.083 39.549 73.906 30.508 102.847-2.545 8.345-7.133 16.949-3.991 25.575 7.015 21.674 8.983 44.452 11.47 66.983 10.486 98.795 19.294 230.046 28.671 329.818.419 6.115-5.822 11.391-11.951 11.953-126.901 11.638-604.563 2.647-608.006-8.389-2.911-9.271-4.113-26.006-1.667-35.388-15.017-.961-32.652 1.499-43.718-11.013-16.132 2.519-23.45-30.045-29.896-41.457l-.03.013c-9.936-32.382-52.618-188.36-23.688-205.723 3.016-79.738 24.488-158.687 69.477-224.634-.451-2.37-.121-4.942 1.326-7.477l.195-.33c14.63-25.053 34.862-48.418 63.59-56.82 25.286-18.008 54.577-29.54 84.757-36.102Z"/><path id="Skin" fill="#C24646" stroke="#22252B" stroke-width="1.5" d="m450.04 378.066 10.949-7.079 43.273-47.495s14.5-15.341 51.374-24.344c36.875-9.002 87.617-19.019 94.076-14.01 6.458 5.008 10.339 14.01 10.339 14.01s-3.764 13.511-12.792 13.511-76.737 13.111-76.737 13.111l-20.007 9.582s52.137-4.42 75.667-4.42 70.3-.276 70.3 6.822-29.506 16.258-40.49 17.768c-10.985 1.509-62.265 12.468-62.265 12.468l85.654 2.997s11.052 10.079 0 12.55c-11.051 2.471-45.358 9.876-45.358 9.876s-6.137 20.415-21.833 25.383c-15.696 4.968-36.297 5.687-41.668 12.136-5.371 6.449-14.424 25.211-25.852 27.374-11.428 2.164-69.765 18.192-69.765 18.192s-19.798-27.317-22.332-51.786c-2.533-24.469-2.533-46.646-2.533-46.646Z"/><path id="📱 Device" fill="#fff" d="m594.297 286.799 43.954-99.561s6.641-16.915 17.919-16.915c11.277 0 113.539 3.202 113.539 3.202s20.928 2.669 14.17 13.713c-6.757 11.045-107.24 216.559-107.24 216.559h-42.616v-10.384l47.445-13.265s8.635-9.161-4.829-9.161c-13.464 0-91.795-2.997-91.795-2.997l74.691-10.959 36.947-14.209-5.435-7.47-31.512-4.501-102.622 4.501 27.931-9.445 62.415-13.248s12.276-8.644 12.276-17.122c0-8.477-32.885-11.738-32.885-11.738l-32.353 3Z"/><path id="🖍 Ink" fill="#000" d="M396.011-19.21c.429-1.17 2.177-1.015 2.21.299.689 28.053-6.295 62.334-28.743 81.283-11.523 9.727-26.758 14.178-40.749 19.293l-1.578.583-24.718 9.208c-6.556 2.442-13.628 6.199-19.419 2.749 4.686 11.62 8.62 23.56 14.327 34.759 7.104 13.941 15.693 26.696 26.205 38.297 41.646 45.959 107.556 59.978 166.703 46.512 30.457-6.935 60.094-20.077 80.873-44.047 15.792-18.22 24.865-42.674 27.003-66.795-.625.1-1.28.096-1.953-.052-7.484-1.633-15.039-5.644-21.624-9.578l-.634-.38c-6.336-3.814-12.94-8.185-17.487-14.111-4.516-5.885-9.255-25.082-9.255-25.082-1.291-7.215-2.503-21.588-2.295-28.881.019-.688 3.072-1.094 3.398-.38 2.821 6.192 3.733 19.796 5.91 26.24l.44 1.286c2.325 6.729 4.319 14.922 9.14 20.362 9.051 10.215 22.707 14.539 34.896 19.662.875-11.545 19.315-11.276 19.081.765-.013.653-.042 1.303-.065 1.954 1.454.8 2.853 1.713 4.16 2.596l1.276.866c4.828 3.284 9.693 6.405 14.834 9.191 9.953 5.395 20.49 9.672 30.688 14.569 10.317 4.955 19.966 10.858 28.975 17.923a149.125 149.125 0 0 1 12.137 10.605l1.044 1.03c3.663 3.648 8.429 7.727 10.516 12.521.46 1.057 2.764 3.515 4.015 3.597 19.376 1.271 38.71 3.064 57.965 5.754 4.985.696 6.955 3.265 5.113 7.42-6.332 14.278-31.121 71.299-37.713 86.602.77 11.242-.27 24.477.424 35.722a1399.361 1399.361 0 0 0 3.937 49.178c5.7 58.537 14.341 116.789 22.149 175.07 3.908 29.168 7.471 58.379 10.988 87.596 1.776 14.765 3.283 29.545 4.443 44.373.483 6.178.921 12.361 1.308 18.546l.333 5.487c.461 6.904 1.516 13.498-2.756 19.424-1.937 2.688-6.361 4.202-8.908 1.148-3.202-3.839-4.392-6.707-4.698-11.75-.234-3.86-.29-7.738-.466-11.602a1170.4 1170.4 0 0 0-1.418-25.115 2335.322 2335.322 0 0 0-3.869-50.147c-5.177-58.553-15.016-116.665-21.563-175.074-3.3-29.446-5.644-58.947-6.885-88.556a855.818 855.818 0 0 1-.7-44.37c.055-5.528.317-11.03.696-16.52a1620.718 1620.718 0 0 1-30.899 66.12l-2.555 5.156c-6.832 13.762-13.847 27.575-22.058 40.549l-1.411 2.212c-3.326 5.27-7.87 13.579-13.936 15.242-4.225 1.159-9.388.343-13.72.26-4.299-.082-8.603-.1-12.899-.274-4.819-.194-9.417-.827-14.074-2.083-.774-.208-1.506-.434-2.173-.722-4.692 7.678-12.664 13.526-20.815 16.933-6.529 2.729-13.372 4.599-20.226 6.331l-2.419.607c-7.348 1.831-15.754 2.701-19.898 9.797l-.963 1.644c-3.081 5.235-6.037 9.832-11.136 13.585-5.489 4.041-11.992 6.582-18.47 8.56-6.633 2.024-13.421 3.574-20.156 5.234l-1.835.456c-4.446 1.113-8.932 2.134-13.352 3.345-1.885.516-3.804 1.048-5.654 1.684-2.166.744-3.74 1.906-5.449 3.17-1.536 5.366-8.101 8.28-13.499 7.906-2.835-.196-5.378-1.158-7.692-2.568-4.039 3.438-8.486 6.518-12.603 9.703a1758.962 1758.962 0 0 1-17.373 13.277c-12 9.045-24.091 17.97-36.308 26.719-21.685 15.53-43.839 30.349-66.372 44.619-9.395 5.95-18.853 11.89-28.404 17.688l1.019.378 2.022.764c4.779 1.784 10.104 4.667 11.03 10.242.734 4.422-1.736 7.47-6.102 8.01-5.189.641-9.227-3.025-12.458-6.525-1.426-1.543-3.022-2.977-4.388-4.566-.557-.649-.985-1.397-1.362-2.181-9.426 5.554-18.952 10.921-28.629 15.94l-2.422 1.248c-23.997 12.271-47.354 25.715-71.555 37.637-6.313 3.11-14.01 6.474-22.033 8.77 2.129 8.252 2.096 17.312 2.15 25.687.051 8.162-12.92 8.123-12.646 0l.132-3.923c.236-6.596.622-13.444 2.187-19.862-23.639 3.92-47.253-4.6-51.65-7.158-4.853-2.822-9.258-7.338-12.924-11.527-7.845-8.967-13.29-19.715-18.12-30.528C71.26 595.22 63.93 570.468 58.57 545.714 38.813 454.448 47.31 356.766 79.396 269.28c8.016-21.859 17.48-43.236 28.325-63.839l1.346-2.547c10.822-20.375 22.85-40.672 38.129-58.01 15.914-18.059 35.545-32.104 56.919-43.006 10.431-5.32 21.164-9.931 32.134-14.017a109.36 109.36 0 0 1 5.314-1.807c11.432-7.288 25.306-14.26 39.185-13.986a3.33 3.33 0 0 1 2.277.914c.669.117 1.338.259 2.008.454 1.479.429 3.041 2.05 2.829 3.715l-.072.554c-.039.27-.089.532-.173.787a8.29 8.29 0 0 1 1.46.355c13.279-3.75 26.344-9.485 39.302-14.111l2.951-1.042c10.853-3.804 21.987-7.532 30.89-15.058 8.857-7.488 15.517-17.187 20.332-27.672 5.932-12.918 8.588-26.912 13.459-40.174ZM661.87 662.11c2.629-1.956 5.738.314 6.722 2.735 3.23 7.945 1.634 20.291-2.919 27.316-4.718 7.278-16.011 4.405-16.284-4.411-.285-9.193 5.059-20.115 12.481-25.64Zm27.158-219.387c.236-1.033 1.84-1.023 2.08 0 2.189 9.323 2.138 19.362 2.781 28.921l.074 1.06c.771 10.541 1.419 21.111 1.881 31.67a4207.388 4207.388 0 0 0 3.206 62.31 3706.36 3706.36 0 0 0 1.938 30.877 59.547 59.547 0 0 1 6.685-3.191c3.452-1.395 6.813-1.555 10.522-1.517 4.517.046 7.918 4.019 7.32 8.444-.652 4.819-4.895 6.884-9.301 6.196-4.88-.764-9.781-1.947-14.708-2.437a3642.16 3642.16 0 0 0 1.717 23.859c.797 10.525 1.836 21.037 2.566 31.566.07 1.004.145 2.01.222 3.019 2.938-1.528 6.058-2.31 9.594-3.273l.92-.258c5.134-1.474 10.626-3.513 15.378-.061 3.194 2.321 3.832 6.141 1.186 9.202-4.012 4.645-9.948 3.744-15.49 3.507l-2.981-.109c-2.81-.11-5.402-.29-7.999-.999.477 6.859.728 13.744-.113 20.503-.455 3.653-5.264 4.612-6.537.884-3.325-9.739-4.012-20.242-5.229-30.443-1.136-9.527-1.827-19.124-2.571-28.694l-.226-2.87a1918.023 1918.023 0 0 1-3.991-63.216 1793.614 1793.614 0 0 1-1.801-63.299c-.106-9.587.053-19.209.428-28.795l.119-2.875c.432-9.859.13-20.321 2.33-29.981ZM249.605 663.665c.128-1.347 1.207-3.021 2.812-2.812 1.479.192 3.003.1 4.466.344 1.931.32 3.485 1.461 5.281 2.179 2.919 1.167 6.101 1.77 9.096 2.725 5.619 1.793 8.681 7.708 6.354 13.232-2.447 5.807-8.596 7.125-13.909 4.688-4.188-1.921-7.31-4.991-10.126-8.543l-.798-1.014c-1.213-1.526-2.59-3.229-3.099-5.078-.495-1.802-.251-3.888-.077-5.721Zm272.997-27.3c6.999-.986 12.977 1.407 19.453 3.662l.526.183c6.591 2.275 16.208 3.85 19.586 10.596 2.038 4.068.455 9.47-4.341 10.674-7.596 1.904-14.406-3.647-20.687-7.384l-.33-.195c-6.062-3.551-12.319-6.536-16.19-12.661-1.033-1.634-.137-4.576 1.983-4.875ZM278.283 79.772a268.358 268.358 0 0 1-8.409 1.717c-10.655 5.71-20.997 11.637-31.998 16.725-11.672 5.399-23.301 10.975-34.388 17.506-22.399 13.195-40.864 30.351-56.122 51.38-26.356 36.325-45.961 78.216-59.992 120.721a507.478 507.478 0 0 0-9.685 33.099c5.046-4.667 11.02-7.536 17.719-9.993 2.839-1.041 6.373.721 7.812 3.179.647 1.104 1.012 2.196.945 3.491-.149 2.858-2.009 6.105-5.08 6.671-7.156 1.319-14.115 3.887-21.016 6.147-1.046.343-1.945.213-2.663-.191-6.851 29.019-11.137 58.635-12.655 88.43-1.284 25.224-.492 50.646 2.302 75.835 2.147-.965 4.247-1.87 6.6-2.418 3.054-.71 6.057-1.574 9.035-2.55 8.594-2.819 12.514 11.369 3.73 13.531a105.272 105.272 0 0 1-9.89 1.962c-2.902.426-5.47.238-8.207-.208a475.172 475.172 0 0 0 8.585 46.695l.803 3.365c4.725 19.643 10.233 39.468 18.198 58.031 3.907 9.106 9.08 17.754 15.467 25.346 3.138 3.733 6.621 6.933 10.419 9.965 3.162 2.525 13.91 8 26.64 8 12.729 0 16.175-1.205 22.598-3.415 12.701-4.372 24.76-11.351 36.671-17.567l1.232-.64a1438.267 1438.267 0 0 0 15.747-8.279c-.661-5.335.496-9.816 3.276-14.744 3.005-5.331 10.451-2.676 11.004 2.776l.018.209c.084 1.229.29 2.482.546 3.731 34.991-19.167 69.241-39.677 102.946-61.049a2006.53 2006.53 0 0 0 64.357-42.539 1460.19 1460.19 0 0 0 31.455-22.293c5.44-3.967 10.855-7.965 16.245-11.998 2.245-1.68 4.447-3.444 6.697-5.133-.547-.684-1.08-1.367-1.596-2.043-8.402-11-13.853-24.112-16.569-37.639-1.64-8.162-2.432-16.635-2.673-24.957l-.106-3.618c-.166-6.097-.21-12.478.914-18.384-1.529.84-3.091 1.664-4.648 2.546a4751.322 4751.322 0 0 1-16.78 9.466c-11.216 6.291-22.465 12.51-33.857 18.478-20.348 10.661-40.896 20.801-61.999 29.889l-10.268 4.426c-17.822 7.665-35.788 15.192-54.317 20.89-10.451 3.213-26.122 7.191-36.723 9.643 0 0 12.776 12.038 3.53 16.179-9.246 4.141-16.906-11.743-17.211-13.182-4.883 1.021-18.828 3.491-18.828 3.491-13.253 2.558-26.102 7.622-37.947 14.104-4.118 2.253-5.265-2.124-.902-5.175 12.757-8.918 27.638-13.965 42.993-18.2l.754-.207a825.09 825.09 0 0 0 16.867-4.817c-.617-2.232-.973-4.548-.902-7.102.158-5.689.661-11.398.963-17.083a1358.496 1358.496 0 0 1 2.391-35.736c.364-4.588.772-9.189 1.239-13.786-3.009-1.614-5.604-3.755-8.959-4.808l-.566-.165c-3.588-.967-2.377-5.59.81-5.986 2.887-.357 5.76-.193 8.606.418.441.096.858.203 1.256.324a394.504 394.504 0 0 1 1.762-12.728c1.743-11.158 2.976-22.914 6.604-33.635.269-.794 1.448-1.078 1.885-.246 5.278 10.04 5.461 22.357 6.056 33.538l.074 1.336c.701 12.198.741 24.515.515 36.73-.232 12.588-.663 25.144-1.228 37.721-.227 5.064-.218 10.318-1.081 15.161 31.408-10.21 62.261-22.431 91.834-36.902a1781.289 1781.289 0 0 0 61.987-31.838c10.244-5.518 20.536-10.947 30.769-16.486 3.585-1.942 7.168-3.889 10.749-5.84l5.371-2.928c5.026-2.743 9.221-5.472 15.075-5.664 1.745-.058 3.31.76 4.421 1.997 3.146-2.231 6.782-3.601 10.598-3.569 5.744-7.934 11.576-15.803 17.64-23.501l4.48-5.7c7.754-9.833 15.967-19.815 25.855-27.299 4.413-3.339 9.267-5.844 14.329-7.914a7.603 7.603 0 0 1-3.396-1.84c-4.835-4.483-5.501-12.81-6.483-19.066-1.019-6.487-.625-12.293.381-18.759.391-2.513 4.553-3.036 5.569-.728 2.141 4.866 4.408 9.53 6.356 14.451l.575 1.485c2.091 5.54 6.545 11.368 6.251 17.378-.08 1.647-.632 3.082-1.484 4.236 4.249-1.411 8.559-2.669 12.803-3.981 13.357-4.127 26.765-8.138 40.379-11.34a320.018 320.018 0 0 1 10.923-2.369c1.916-9.096 4.708-18.024 8-26.791-3.117-1.597-5.135-4.274-7.819-6.655-2.512-2.23-4.238-4.945-6.381-7.505-1.951-2.329-.855-6.537 2.651-6.401l.993.041c3.632.169 7.15.545 10.444 2.24l1.173.605c1.61.835 3.371 1.793 4.94 2.924a590.798 590.798 0 0 1 6.339-14.02l2.797-5.983c7.252-15.572 14.485-31.736 23.59-46.236 4.048-6.446 9.435-10.471 17.167-11.094 7.962-.641 16.24.187 24.213.472 9.243.331 18.483.723 27.717 1.208-2.367-2.479-4.527-5.239-6.904-7.618a142.91 142.91 0 0 0-12.497-11.142c-8.673-6.841-18.209-12.478-28.114-17.332-9.907-4.855-20.105-9.088-29.405-15.086-5.885-3.795-11.145-8.571-15.944-13.739-3.021 32.59-18.758 62.868-42.4 85.616-24.556 23.625-58.49 36.605-91.686 42.126-33.86 5.632-69.199 3.565-101.59-8.204-16.701-6.069-32.719-14.739-47.004-25.614-.157.946-.346 1.881-.717 2.76-.498 1.181-1.107 2.187-1.805 3.225l-1.246 1.82c-.785 1.145-1.586 2.28-2.477 3.342-2.159 2.571-5.218 3.697-8.513 3.685-6.309-.021-11.087-6.207-9.389-12.325 1.067-3.845 3.35-6.159 6.914-7.664 1.126-.476 2.274-.875 3.429-1.267l.867-.294c1.167-.399 2.325-.78 3.526-1.001-6.764-5.97-13.04-12.462-18.66-19.468-17.627-21.971-35.013-52.742-29.12-81.921.102-.501.553-.816 1.039-.896.342-2.048 1.432-4.03 2.925-5.361a25.766 25.766 0 0 0-3.036-.608Zm183.039 504.495c3.491-1.941 7.097 2.672 4.26 5.521l-4.236 4.237c-3.931 3.951-7.757 7.943-11.122 12.446l-.815 1.1c-4.542 6.179-9.386 13.339-16.828 15.649-9.002 2.793-17.653-8.172-12.44-16.182 4.554-7 13.323-9.641 20.883-12.535 7.152-2.738 13.612-6.519 20.298-10.236Zm-290.401-32.303c2.051-2.685 7.399-1.271 5.998 2.529-4.551 12.338-6.406 29.162-17.9 37.359-3.708 2.643-9.533 1.428-12.586-1.624-3.469-3.469-3.608-8.354-1.624-12.586 2.419-5.163 8.371-8.906 12.543-12.838l.374-.358c4.488-4.359 9.342-7.438 13.195-12.482Zm480.387 14.2c3.661-1.578 13.202-4.646 16.03-1.015.132.133.245.278.336.438.693 1.206.796 2.905 0 4.101-3.295 4.952-6.727 8.648-11.412 12.172l-.525.391c-5.1 3.749-9.891 8.153-16.105 9.844-8.613 2.344-14.629-8.44-8.58-14.737 4.873-5.072 12.313-7.706 18.77-10.535l1.486-.659Zm-345.884-70.499c-1.441-2.603 1.503-5.798 4.169-4.169 7.605 4.648 16.464 8.135 25.006 10.64 3.457 1.014 6.576 4.518 6.319 8.299l-.04.572c-.102 1.336-.286 2.662-1.135 3.773-2.975 3.891-7.231 5.39-11.776 3.087-10.129-5.132-17.062-12.297-22.543-22.202Zm222.277-7.886c-.185-1.095.616-1.94 1.729-1.729 6.427 1.218 12.363 4.322 17.882 7.89 2.96 1.914 5.815 4.016 8.768 5.949 3.648 2.386 5.014 4.357 5.553 8.737.356 2.89-2.343 5.53-4.818 6.328-6.745 2.175-14.474-4.963-19.044-9.6l-.206-.209c-4.784-4.876-8.73-10.642-9.864-17.366Zm193.031-7.575c-1.465-3.956 3.584-7.236 6.886-5.293 3.109 1.829 6.482 3.346 9.415 5.442 2.696 1.927 5.153 4.21 7.738 6.299l1.277 1.011c4.74 3.81 12.564 13.234 5.786 18.701-6.45 5.203-15.002-1.442-19.332-6.3l-.302-.344c-2.491-2.877-5.562-6.003-7.369-9.364-1.701-3.163-2.855-6.794-4.099-10.152Zm-63.61-306.247c-8.079 1.568-11.372 11.54-14.774 18.04-8.029 15.34-15.413 30.961-22.829 46.602-2.283 4.811-4.506 9.659-6.749 14.498a7.53 7.53 0 0 1-.52 1.121c-4.595 9.893-9.327 19.721-14.858 29.112a252.274 252.274 0 0 1 15.257-2.392c-.258-4.809 3.035-11.244 4.663-15.292l.136-.341c2.031-5.188 4.16-13.36 9.388-16.052 1.742-.896 3.605.227 3.739 2.145.396 5.71-5.189 12.245-7.919 17.091a359.086 359.086 0 0 0-4.828 8.854c-.588 1.114-1.079 2.209-1.682 3.191 2.634-.285 5.271-.539 7.915-.724l1.723-.118c9.802-.646 20.213-.831 29.069 4.003 8.217 4.483 12.417 14.054 7.903 22.769-5.624 10.857-18.008 12.296-28.898 13.176-13.602 1.097-27.235 3.078-40.741 5.01-13.97 1.998-27.125 7.148-40.887 9.795-1.28.246-2.077-1.428-.903-2.143 10.855-6.608 24.053-10.244 36.189-13.948l.982-.3c6.583-2.022 13.017-4.332 19.827-5.479a313.105 313.105 0 0 1 19.931-2.701l.647-.06c7.342-.616 26.071-.405 25.28-11.275-.524-7.194-12.218-8.436-17.556-8.522-24.474-.392-49.124 6.104-72.383 13.064l-5.193 1.557c-9.524 2.865-19.061 5.814-28.406 9.173-10.59 3.806-18.933 9.741-26.646 17.864-8.552 9.007-16.835 18.217-25.707 26.92-5.593 5.487-11.258 10.876-16.969 16.221-1.29 1.67-2.322 3.487-3.037 5.844-1.208 3.982-.93 7.683-.474 11.773 1.15 10.329 1.404 20.765 2.845 31.062 1.336 9.539 3.204 19.428 7.165 28.277a52.298 52.298 0 0 0 5.934 10.024l1.876 2.439c.818 1.06 1.733 2.219 2.694 3.31 1.41-1.72 3.45-2.839 5.821-2.559 5.039.593 9 .451 13.943-.707 3.826-.895 7.622-1.944 11.431-2.915 7.479-1.908 15.028-3.644 22.431-5.835l1.272-.384c5.517-1.692 11.036-3.811 15.628-7.373 5.335-4.139 6.976-10.11 10.928-15.273 8.438-11.025 26.672-10.794 39.018-13.814 10.492-2.566 20.589-6.615 27.85-14.227l.424-.454c-.322-1.358.2-2.891 1.462-3.595l.275-.153a3.006 3.006 0 0 1 1.542-.378 36.262 36.262 0 0 0 1.915-3.1c.486-.897 1.701-.237 1.542.649-.095.529-.227 1.045-.352 1.562 7.033-1.809 14.758-1.464 21.899-1.459l9.267-.033c1.604-.019 3.994-.1 4.207-.196l.218-.097c.577-.251-.243.163.161-.372.445-.591.881-1.189 1.311-1.792 1.536-2.149 2.989-4.363 4.413-6.597-15.519 3.953-31.595 6.413-47.441 8.464-17 2.203-34.224 3.731-51.376 3.747-4.728.005-4.685-7.133 0-7.312 18.162-.693 36.229-1.655 54.269-3.982a465.423 465.423 0 0 0 27.857-4.484 467.887 467.887 0 0 0 10.674-2.169l2.66-.581c1.669-.369 6.385-.9 8.685-2.443.452-.777.904-1.552 1.352-2.328-.22-2.725-7.148-2.36-8.772-2.364-4.605-.009-9.211.028-13.817.04-9.211.027-18.421-.053-27.633-.127-18.404-.15-36.878-.792-55.267-.006-4.464.19-6.809-6.969-2.397-8.852 19.478-8.316 41.1-10.123 61.898-12.68 10.937-1.343 21.88-2.895 32.572-5.615l2.643-.673c6.717-1.722 14.134-3.821 19.79-7.924-8.501-3.439-19.068-3.045-27.88-3.532l-.674-.039a619.185 619.185 0 0 0-37.062-1.164c-25.294-.035-50.596.861-75.862 2.06-.634.03-.765-.971-.149-1.105 25.969-5.666 52.362-8.396 78.938-8.816a618.563 618.563 0 0 1 37.126.526l4.538.21c10.544.454 22.243.577 31.065 6.944 1.345.97 2.054 2.209 2.165 3.52 11.831-23.583 22.758-47.659 33.729-71.575 8.529-18.596 16.74-37.348 25.58-55.799l2.862-5.969c3.832-7.965 7.758-15.931 12.117-23.607-16.301-2.179-32.693-3.692-49.095-4.85-14.946-1.057-63.71-3.396-70.905-2.001Zm-7.219 255.595c1.859-1.033 4.707-.191 5.165 2.101.341 1.707.923 3.602.923 5.348 0 2.092-.748 4.365-1.147 6.411-.917 4.706-2.046 8.53-4.439 12.722-1.497 2.623-4.52 4.404-7.558 4.334-2.406-.055-4.538-.701-6.189-2.563-1.978-2.231-3.336-5.512-2.251-8.516 2.842-7.87 8.066-15.711 15.496-19.837ZM255.607 421.7c4.35-7.619 14.661-14.428 23.659-13.754 13.511 1.012 16.268 19.204 3.187 23.545-7.819 2.594-18.576-.07-25.416-4.34-1.844-1.15-2.52-3.542-1.43-5.451Zm-138.86-26.029c-.988-1.436.645-3.077 2.117-2.754 3.265.717 6.785 1.03 9.983 2.004 3.275.996 6.445 2.648 9.689 3.785 6.796 2.38 14.055 3.575 20.632 6.449 2.629 1.149 4.697 4.956 4.454 7.763l-.062.656c-.145 1.394-.386 2.609-1.166 3.882-2.093 3.418-6.24 5.184-10.154 4.132-7.261-1.95-14.356-6.961-20.547-11.124l-1.144-.76c-2.704-1.783-5.613-3.646-7.793-5.939-2.275-2.395-4.145-5.382-6.009-8.094Zm249.598-27.709c-.836-3.01 2.909-4.999 5.092-2.965 4.362 4.064 8.923 7.832 13.195 11.999l.287.284c3.059 3.074 7.51 8.998 3.531 12.976-5.098 5.098-12.197-2.466-14.932-6.408-3.469-5-5.55-10.039-7.173-15.886Zm333.805-24.887c-6.471 6.854-16.441 10.005-25.219 12.616-10.408 3.093-21.132 4.941-31.867 6.461-10.373 1.468-20.666 2.781-30.874 4.466 7.722.096 15.443.153 23.147.291 8.885.161 17.765.353 26.647.611 6.469.188 14.059-.699 20.206 1.705a11.535 11.535 0 0 1 3.047 1.762c5.168-9.189 10.121-18.505 14.913-27.912Zm-399.141-64.094c6.754-2.145 13.105-4.992 20.265-4.253 1.903.195 3.266 2.048 2.227 3.878-3.393 5.971-8.911 9.342-14.342 13.336l-.479.354c-5.945 4.422-12.328 8.451-18.793 12.08-11.131 6.246-21.106-11.631-9.865-16.877 6.764-3.157 13.869-6.256 20.987-8.518Zm121.6-15.521c10.333.68 20.66 1.142 31.006 1.56 11.984.485 7.955 18.926-2.056 15.194-9.89-3.688-19.781-7.329-29.76-10.769-3.038-1.046-2.793-6.036.617-5.992l.193.007Zm-265.027-32.807c2.678-.188 5.379.397 8.061.657l2.854.277c5.883.585 11.399 1.307 17.009 3.701 10.352 4.418 4.792 21.059-5.6 20.677-7.681-.282-14.249-3.581-20.735-7.421-5.67-3.357-9.146-7.557-12.975-12.828-1.268-1.746.499-3.703 2.226-3.879 3.042-.31 6.117-.971 9.16-1.184ZM676.5 196.669c-1.713 10.689-5.965 20.707-12.372 29.429-3.22 4.383-8.873 4.549-12.064 0-4.514-6.435-1.731-13.808 1.67-19.989l1.006-1.81c1.523-2.713 3.861-6.671 6.534-9.405l.045-.28c1.432-11.191 16.946-8.957 15.181 2.055Zm-417.935-68.598c2.576-2.32 7.32-1.623 8.156 2.153 1.17 5.288 1.882 11.246 1.116 16.614-.415 2.909-.571 6.176-1.715 8.887-1.23 2.915-3.596 5.157-5.825 7.349-4.45 4.376-13.831 2.929-15.023-3.966l-.151-.846c-.6-3.262-1.367-6.749-.479-9.983.67-2.44 2.168-4.928 3.407-7.191l.261-.482c2.482-4.622 6.351-9.023 10.253-12.535Zm362.091 11.251.932.009c7.19.142 20.336 1.893 20.406 10.778.016 2.094-1.535 4.264-3.614 4.746-4.298.996-7.076-1.543-10.139-4.109-2.505-2.098-5.425-3.773-8.458-4.979-3.276-1.303-3.062-6.451.873-6.445Z"/></g></svg>