<svg xmlns="http://www.w3.org/2000/svg" width="818" height="733" fill="none" viewBox="0 0 818 733"><g id="body/Dress" fill-rule="evenodd" clip-rule="evenodd"><path id="✋ Skin" fill="#D08B5B" d="M765.567 645.397c-2.426-22.531-3.921-45.22-4.779-67.865-.857-22.618.264-45.514.756-68.141 1.003-46.029 2.633-92.167-1.032-138.126-3.463-43.435-11.414-86.567-23.961-128.301-6.11-20.325-12.549-41.468-22.598-60.248-10.105-18.882-26.111-31.456-43.693-42.987-18.719-12.277-37.288-24.786-55.934-37.177-15.652-10.4-43.819-22.506-56.661-36.411-13.513-14.631-16.053-50.899-25.052-68.23-8.764-16.883-33.572-27.895-52.674-27.895-31.617 0-55.573-1.616-81.571 27.631-12.971 14.593-2.651 29.346-16.247 43.351-12.5 12.878-44.467 26.111-60.578 33.583-19.296 8.95-39.079 16.85-59.149 23.888-20.473 7.18-41.462 12.531-62.05 19.307-19.734 6.495-45.503 33.266-60.823 47.431-14.243 13.17-17.777 11.695-28.605 27.694-23.764 35.111-47.554 70.625-66.478 108.64-9.426 18.936-18.553 38.855-21.973 59.885-3.648 22.43-.031 44.106 5.885 65.823 6.022 22.101 25.145 43.144 31.375 65.189 2.87 10.159-6.984 21.245-2.451 30.819 2.264 4.781 5.115 9.038 8.36 13.204 2.502 3.21 12.255 2.499 13.517 6.428 1.275 3.968-5.781 12.202-5.886 16.309-.15 5.877-.383 11.754-.576 17.631l-1.14 34.745c-.75 22.832-1.498 45.665-2.247 68.497-.245 7.453-.602 14.735 1.185 21.807a15.814 15.814 0 0 1-1.818-1.98c-1.64-2.14-5.115-.326-3.724 2.177 2.322 4.177 5.66 7.117 9.584 9.229 4.559 6.721 694.983 21.733 698.38 2.083 1.906-11.025-1.563-22.828-2.95-33.782-1.444-11.409-3.16-22.769-4.392-34.208Z"/><path id="👕 Top" fill="#FDEA6B" d="m46.059 317.449 713.095 38.988c.511 4.938.964 9.881 1.358 14.828 3.665 45.959 2.035 92.097 1.032 138.126-.133 6.102-.311 12.222-.484 18.352l-70.348 11.614-500.089 12.019-124.988-14.915-5.188-8.993-3.594-15.655c1.543-6.427 4.651-13.08 2.872-19.375a69.73 69.73 0 0 0-1.81-5.487l.646-12.563L46.06 317.449Z"/><path id="🖍 Ink" fill="#000" d="M64.228 361.466c1.69-4.838 9.415-2.744 7.714 2.126-8.744 25.046-2.54 52.301 6.912 76.21 1.897 4.797-5.843 6.858-7.714 2.126-9.944-25.15-16.096-54.159-6.912-80.462m58.629 143.062c24.66 3.469 49.34 5.609 74.17 7.339 1.11.08 2.07-.089 2.9-.45-.74 11.37-1.34 22.75-1.81 34.13-6.77-.189-13.68.26-20.39.08-8.77-.24-17.53-.68-26.28-1.349a558.77 558.77 0 0 1-50.6-6.141c-6.26-1.05-14.21-1.69-21.34-3.77-6.74-1.969-12.74-5.23-15.89-11.37-2.68-5.2-3.17-11.569-3.17-17.319 0-3.961.68-7.981 1.09-11.971.51-.359.97-.79 1.34-1.269 7.44 2.349 15.16 4 22.72 5.599 12.31 2.62 24.8 4.741 37.26 6.491m-13.908-92.463c.136 7.643 2.251 14.586 6.366 21.021 2.784 4.355-4.143 8.362-6.908 4.038-4.844-7.577-7.298-16.082-7.458-25.059-.092-5.159 7.908-5.142 8 0m632.128 83.382c3.339.187 6.699.301 10.048.479 2.954 2.526 7.044 3.821 10.779 3.017.129.323.246.686.353 1.104.66 2.57.99 5.33 1.37 7.95.38 2.58.67 5.181.87 7.781.1 1.309.73 4.269-.07 5.41-.72 1.029-2.31.939-3.41 1.069-2.96.32-5.96.471-8.94.721l-16.88 1.469c-5.51.481-11.56.331-16.95 1.781-.92-10.811-1.76-21.62-2.54-32.441 8.35 1.231 17.08 1.2 25.37 1.66m-700.12-17.929c3.36 6.489 6.46 12.869 12.89 16.769.84.5 1.78.77 2.74.84-.72 3.09-1.17 6.25-1.57 9.17-.88 6.431-1.07 13.08.54 19.42 1.57 6.17 4.17 11.681 9.27 15.631 2.37 1.84 4.96 3.239 7.68 4.349-.46 1.29-.73 2.571-.59 3.981-.65 3.269-1.08 6.6-1.55 9.789-1.03 7.08-2.06 14.17-2.87 21.29-1.62 14.16-2.89 28.32-3.96 42.53-1.07 14.17-1.84 28.361-2.48 42.561-.33 7.26-.62 14.519-.89 21.789-.27 7.471-1.48 15.11 1.82 22.041 2.66 5.6 11.65 5.279 14.41 0 3.5-6.711 2.47-14.681 2.56-22.041.09-6.93.21-13.869.36-20.8.3-14.189.74-28.37 1.09-42.559.34-13.85.76-27.691 1.04-41.541.14-7.25.15-14.5.19-21.75.02-4.02.19-8.309-.11-12.5 2.5.59 5.02 1.09 7.51 1.6 19.01 3.9 38.22 6.74 57.55 8.5 9.71.88 19.45 1.5 29.19 1.851 7.16.259 14.58.759 21.85.49-.57 17.359-.83 34.729-.8 52.1.02 12.529.19 25.059.5 37.589.17 6.59.31 13.18.51 19.77.09 2.961.09 5.95.29 8.9.06.92.19 1.811.36 2.691a67.444 67.444 0 0 0-1.66 5.45c-2.2 8.399-2.2 16.47-1.22 25.029.84 7.26 6.95 13.99 15.02 11.441 1.31-.411 2.62-.841 3.92-1.281 11.88 1.35 23.83 1.661 35.88 1.89 17.61.341 35.23.45 52.85.54 34.56.181 69.13.271 103.7.37 69.47.2 138.94.39 208.41.59 19.28.061 38.56.11 57.84.171 9.98.029 19.94.039 29.91.42 4.65.18 9.31.43 13.96.5 5.39.09 10.16-1.461 15.31-2.87 2.91-.811 4.06-3.731 3.44-6.2 4.66 1.109 10.31-1.25 11.9-6.5 1.16-3.811.73-7.941-1-11.471v-.01c-3.34-21.09-7.58-42.08-10.91-63.18-3.65-23.11-7.16-46.269-10.25-69.469-2.32-17.521-4.23-5.101-5.88-22.701 7.19.56 15.32-1.629 22.44-2.56 5.11-.659 10.26-1.19 15.38-1.89-.38 5.16-.27 10.42-.41 15.37-.27 9.83-.15 19.62.1 29.451.48 18.969 1.55 7.929 3.26 26.819 1.73 19.03 3.85 37.99 6.42 56.931 1.32 9.75 2.73 19.489 4.22 29.219.69 4.54 1.4 9.071 2.13 13.611.87 5.349 1.15 10.42 5.16 14.439 3.05 3.05 9.28 2.79 11.3-1.46 2.56-5.37 1.4-9.97.45-15.609-.77-4.531-1.51-9.061-2.24-13.59-1.56-9.711-3.04-19.431-4.43-29.16-2.68-18.75-5.21-37.531-7.47-56.33-2.28-18.951-4.64-7.881-6.88-26.83-1.13-9.561-2.26-19.101-3.58-28.63-.67-4.901-1.09-10.12-1.97-15.171.28-.039.56-.09.84-.14 6.08-1.11 11.27-4.54 12.8-10.8 1.46-5.99-.28-12.88-1.51-18.759-1.05-5.008-1.999-11.401-5.223-15.692 11.36-14.47 18.749-32.678 23.462-50.183 5.134-19.071 7.283-38.978 7.738-58.686a346.402 346.402 0 0 0-5.106-67.856c-.092-4.731-.31-9.46-.661-14.184-3.44-46.359-17.88-101.229-63.66-122.89-.18-.089-.37-.17-.56-.25-3.59-4.29-8.07-8.15-11.69-11.759-6.41-6.401-13.11-12.521-20.21-18.161-14.06-11.169-29.48-20.089-45.51-28.12-16.21-8.13-32.66-15.759-48.5-24.63-13.8-7.74-26.22-17.06-38.01-27.58-13.25-11.83-22.68-27.78-26.38-45.19-.19-.91-1.54-.66-1.56.21-.97 31.91 20.57 60.11 45.36 77.95 29.64 21.311 65.43 31.4 95.49 52.061 7.47 5.13 14.46 10.92 21.11 17.069-10.19-1.04-20.56-.38-30.11 2.44-3.76-.23-7.54-.299-11.31-.48-8.62-.43-17.25-.829-25.88-1.21a5841.66 5841.66 0 0 0-156.4-4.859c-69.41-1.231-138.91-1.471-208.31.54-18.82.54-117.78-3.21-126.94-2.151 13.47-11.66 28.25-21.179 44.5-29.01 20.33-9.77 41.34-16.29 63.05-22.25 44.71-12.27 91.14-24.1 126.92-55.27 8.89-7.75 16.79-16.66 23.26-26.53 6.18-9.42 13.05-21.48 13.22-32.97.12-8.16-11.24-11.13-15.28-4.14-2.51 4.33-3.75 9.08-5.8 13.62-2.04 4.5-4.46 8.84-7.15 12.99-5.29 8.16-11.85 15.44-18.99 22.01-15.22 14.02-33.66 24.29-52.74 32.06-43.32 17.63-90.7 25.07-131.75 48.311-17.96 10.169-35.15 24.2-45.94 42.099-1.74.271-3.47.59-5.2.95 1.29-1.63 2.59-3.259 3.9-4.88.86-1.06-.47-2.459-1.52-1.52-20.41 18.16-39.21 37.77-56.25 59.15-16.3 20.46-31.5 41.901-42.26 65.861-19.34 43.04-23.6 92.269-13.61 138.29a217.266 217.266 0 0 0 11.45 36.689c2.52 6.13 5.25 12.17 8.29 18.061"/></g></svg>