<svg xmlns="http://www.w3.org/2000/svg" width="818" height="733" fill="none" viewBox="0 0 818 733"><g id="body/Explaining" fill-rule="evenodd" clip-rule="evenodd"><path id="✋ Skin" fill="#D08B5B" d="M749.703 401.342c-6.686-20.545 1.278-44.275-3.927-66.423-1.784-8.76-5.175-41.307-8.579-60.338-1.905-10.646 9.489-13.952 11.239-18.201 12.322-38.17-77.565-127.967-83.052-131.275-8.222-4.752-15.497-8.842-23.531-13.697-23.436-8.232-51.54-31.134-72.786-16.424-36.812-54.798-22.249-122.313-42.224-130.337-19.975-8.024-78.963-24.243-112.687-3.533-20.214 14.956-18.724 40.703-27.947 61.936-5.414 9.995-8.073 24.474-14.376 30.993-21.413 22.15-48.115 25.968-77.968 29.728-2.273.286-4.665-5.898-6.875-5.134-50.356 17.404-108.95 22.482-165.978 119.937-8.054 13.937-29.78 36.298-22.516 52.404-47.868 111.31-94.968 361.846 36.377 424.326 4.198 2.685 32.68-11.715 37.321-11.582 7.736.223-7.087 19.006 0 15.659 52.029 3.948 338.316-6.236 448.054 3.948 75.463-.565 123.26 12.666 140.685-.565-6.966-16.833-6.643-34.865-4.441-52.662 16.037-11.934-3.788-96.036-2.11-120.663 15.012-17.996 3.059-85.489-4.679-108.097Z"/><path id="👕 Top" fill="#9DDADB" d="m290.922 83.606-.483.311c-.08.053-.158.106-.234.163-.514.386-.433 1.085.173 1.319a16.46 16.46 0 0 0 2.525.74c2.648 3.842 4.717 8.59 6.162 10.996 4.151 6.914 39.784 50.385 45.11 55.971 8.653 9.076 51.266 43.203 51.844 42.522 6.854 4.095 13.956 7.769 21.333 10.904 43.656 18.551 99.651 20.234 137.168-10.582 2.796.765 29.32-37.426 33.421-51.106 1.999.554 4.476-14.107 3.093-13.883 1.206-8.289-13.321-38.062-14.7-39.486.208-.066.415-.128.623-.187.121.261.398.459.722.374 2.771-.722 5.579-1.103 8.385-1.046 2.134.043 17.369 6.984 17.961 7.268l1.094.526C727 157 745.785 252.216 750 252c-1.774 2.248-49.933 70.338-52.522 76.356-.538-13.012 8.361 333.866 8.983 341.11.255 2.987.274 10.039.695 12.878-3.058.167-110.239-7.149-309.54-5.951-63.642.383-220.943 7.307-220.943 7.307l-.052-.433c-.45-4.248-.058-12.485-.121-16.718 6.041-3.489 11.97-7.197 17.83-10.841C207.673 647.409 290 572 350.505 504.53c35.869-39.998 80.615-66.916 83.037-69.533.047-.053.07-.113.105-.168.126.093.282.182.482.154 27.871-3.983 69.453 4.588 100.067-11.26 13.667-7.074 60.042-55.239 73.71-68.549.409-.4.705-.821.912-1.251 9.114-5.553 44.63-33.705 47.143-37.182l.748-1.047c2.777-3.931 6.951-8.074 2.112-11.85-5.098-3.979-14.87.8-20.249 3.091l-.749.314a124.967 124.967 0 0 0-7.711 3.486c-3.191-8.94-10.972-9.125-19.357-7.891-5.978.881-11.781 2.926-17.607 4.483a741.412 741.412 0 0 1-22.28 5.582c-13.425 3.142-28.942 8.889-42.523 11.269-.359-.417-.857-.746-1.522-.912-4.65-1.162-9.781-.272-14.551-.184-4.086.075-8.174.083-12.261.025l-2.452-.042c-8.761-.179-20.513-4.252-29.272-4.404l-.523-.322-.518-.328c-2.26-1.459-4.71-3.41-5.379-5.866-.083-.307 8.873-20.918 9.002-37.596.073-9.273-3.11-17.949-3.869-22.549-1.853-11.23-6-4-12 7s-14 21-20 29c-7.734 10.312-15.319 13.427-19.262 19.404a83.958 83.958 0 0 0-1.966 3.13c-1.542-1.538-14.543 29.089-12.27 34.988C399.919 344.997 336 427 197 486c.886-5.517 25-151 19-175s-85.35-112.701-93.601-114.67c.826-1.346-31.4 20.67 26.601-36.33 58-57 96.649-66.653 125.523-77.243 1.616-.503 3.225-1.01 4.825-1.524-.404.715.513 1.505 1.217.923 3.992-3.3 7.457-1.752 10.357 1.45Z"/><path id="🖍 Ink" fill="#000" d="M725.779 278.152c-7.199 10.47-13.813 21.249-19.792 32.461-3.083 5.783-5.959 11.681-8.548 17.699-.538-13.012-.656-26.178-2.177-39.062-.109-.93-1.66-1.382-1.823-.248-1.68 11.683-1.957 23.668-2.592 35.476a8.246 8.246 0 0 0-2.429-.353c-8.64 0-17.15.708-25.759 1.406-3.858.312-7.894.551-11.829 1.166a117.358 117.358 0 0 0 8.84-11.047c2.777-3.931 5.951-10.074 1.112-13.85-5.345-4.171-15.827 1.284-20.998 3.405a124.967 124.967 0 0 0-7.711 3.486c-3.191-8.94-12.972-10.125-21.357-8.891-5.978.881-11.781 2.926-17.607 4.483a741.412 741.412 0 0 1-22.28 5.582 733.188 733.188 0 0 1-40.523 8.269c-.359-.417-.857-.746-1.522-.912-4.65-1.162-9.781-.272-14.551-.184-4.904.091-9.809.084-14.713-.017-8.761-.179-17.513-.252-26.272-.404-2.49-1.509-5.647-3.675-6.42-6.516-.965-3.545 2.049-7.472 3.448-10.49 5.373-11.588 7.252-24.556 5.144-37.176-.376-2.25-1.15-4.71-2.268-7.015 9.597 1.027 19.069 1.724 28.718 2.039 19.267.627 38.533 1.284 57.809 1.427 38.541.287 77.083.289 115.624.007 21.792-.159 43.534-.359 65.299-1.472a201.924 201.924 0 0 0-5.183 6.877c-.348-.104-.803.083-.75.515l.053.451c-3.073 4.292-6.031 8.652-8.943 12.888m-42.855 398.467-26.868-.856-52.739-1.678c-34.827-1.109-69.653-2.178-104.485-3.139-34.748-.958-69.513-1.972-104.271-.888-34.837 1.087-69.585 3.898-104.357 6.155-19.331 1.253-38.676 2.339-58.043 2.859-18.445.494-37.053-.254-55.469 1.062-.619-4.553-.164-9.093-.231-13.628 6.041-3.489 11.97-7.198 17.83-10.842 21.364-13.288 41.558-28.321 60.606-44.754a379.973 379.973 0 0 0 8.641-7.713c-1.978 4.322-.395 9.894 5.274 11.724 6.913 2.23 13.991 1.438 21.171 1.269a9674.234 9674.234 0 0 1 64.629-1.3 9691.69 9691.69 0 0 1 83.529-1.037c56.02-.452 112.001.311 168.012 1.321 15.75.285 31.484.638 47.234.281 7.88-.178 15.792-.235 23.663-.659 6.306-.341 12.65-1.233 18.955-2.035.795 10.981 1.626 21.959 2.552 32.93.613 7.244 1.243 14.488 1.865 21.732.255 2.987.274 6.038.695 8.877-6.053.332-12.069.513-18.193.319m6.159-310.077c-.22 8.405-.337 16.816-.397 25.228a7.045 7.045 0 0 0-2.469-.861c-9.795-1.495-20.276-.361-30.186-.194-9.579.16-19.191.106-28.761.558-9.589.453-19.174.994-28.761 1.49-4.498.235-8.947.436-13.41 1.045-3.058.417-6.969.387-10.236 1.257 13.705-13.273 27.336-26.624 41.004-39.934.409-.4.705-.822.912-1.252 9.114-5.553 17.862-11.803 25.784-18.96 6.283 2.422 13.435 2.728 20.096 3.268 8.611.699 17.116 1.406 25.759 1.406.584 0 1.131-.057 1.646-.158-.423 9.031-.744 18.062-.981 27.107M333.236 529.828c20.923 6.682 43.592 6.607 65.359 7.945a3097.818 3097.818 0 0 0 69.607 3.518c46.399 1.802 92.768 4.252 139.16 6.201a9536.665 9536.665 0 0 1 79.48 3.674c1.879.094 3.671-.388 5.252-1.27a2820.425 2820.425 0 0 0 3.144 52.304c.151 2.179.319 4.356.474 6.536-12.467-1.564-24.839-3.061-37.399-4.121-14.104-1.192-28.201-2.196-42.325-3.133-27.523-1.824-55.09-4.268-82.663-5.158-56.208-1.817-112.54-1.199-168.769-.799a9611.832 9611.832 0 0 0-71.59.777c-7.994.118-16.585-.714-24.154 2.076-.072.026-.133.065-.204.092 22.835-21.636 43.292-45.547 64.628-68.642m73.552-69.171c34.967 6.366 70.482 5.93 105.926 6.56 36.267.646 72.583.218 108.856.293 20.605.043 41.387.948 61.918-.885 2.426-.217 4.306-1.137 5.647-2.442a2504.357 2504.357 0 0 0 2.004 65.482 12.936 12.936 0 0 0-4.297-.999c-46.35-2.727-92.703-5.201-139.11-6.712-46.37-1.511-92.797-3.303-139.192-2.742-22.641.274-46.583-1.174-68.913 3.76 8.486-9.017 17.154-17.867 26.221-26.341 13.219-12.353 27.325-23.924 40.94-35.974m26.715-25.704c.047-.053.07-.112.105-.167.126.093.28.157.482.153 32.732-.738 69.453 9.588 100.067-6.26 13.667-7.074 24.985-18.255 35.972-29.002l.019.239c.072.872.441 1.922 1.325 2.308 3.611 1.584 7.84 1.688 11.717 2.252 4.459.65 8.838 1.03 13.336 1.3 9.917.595 19.833 1.225 29.753 1.786 9.898.56 19.841.606 29.752.853 9.938.247 20.349 1.45 30.186.032a7.054 7.054 0 0 0 2.419-.807c.015 12.725.131 25.449.25 38.166.02 2.073.06 4.145.084 6.216-1.328-1.216-3.153-2.067-5.482-2.272-18.241-1.606-36.623-.892-54.928-.83l-53.928.179c-36.297.121-72.565.475-108.856 1.166-17.648.336-35.219 1.821-52.609 4.676 7.041-6.414 13.886-13.017 20.336-19.988M149.099 666.318c-6.701 2.049-13.353 1.16-20.067 2.564a3.638 3.638 0 0 0-1.143.457c-20.106-8.59-33.508-25.828-42.68-45.144-9.668-20.361-16.332-42.127-20.796-64.191-9.204-45.487-9.22-92.651-4.456-138.669 4.68-45.21 13.949-90.175 27.175-133.654 9.08-29.854 20.654-60.015 36.723-87.236 18.555 12.432 32.945 30.332 46.501 47.828 16.199 20.909 30.797 43.035 43.864 66.025-1.351 3.938-1.561 8.878-2.209 12.398-1.249 6.788-2.377 13.661-3.264 20.507-1.895 14.633-3.713 29.274-5.65 43.901-3.831 28.924-8.405 57.769-13.458 86.503-.409 2.33.245 4.298 1.448 5.775-10.022 5.282-19.913 10.799-29.55 16.779-21.187 13.147-40.988 28.462-56.534 48.104-.404.51.229 1.192.729.73 33.338-30.804 74.756-50.144 115.421-69.257 20.781-9.768 41.46-19.693 61.398-31.113 20.85-11.94 40.734-25.434 59.792-40.058 21.762-16.698 42.247-34.954 61.45-54.54 2.262-2.309 1.714-5.199.012-7.025.575-.178 1.039-.678 1.069-1.512.461-12.791 4.302-23.688 11.822-34.04 6.976-9.605 15.867-17.52 23.887-26.21 3.564-3.862 6.97-7.885 10.011-12.177 3.131-4.417 5.038-9.293 7.763-13.908 3.183-5.393 5.891-2.638 7.366 2.244 1.673 5.534 1.569 12.013.897 17.702-.711 6.02-2.544 11.889-5.184 17.33-2.48 5.111-5.339 10.31-3.67 16.168 2.743 9.627 14.503 15.202 23.412 17.37 9.92 2.414 20.297 1.945 30.342.693 12.58-1.569 25.1-3.865 37.535-6.307a732.29 732.29 0 0 0 42.921-9.777c6.677-1.733 13.307-4.012 20.049-5.447 2.404-.511 6.853-1.279 9.678-.026-36.315 21.648-75.906 36.07-116.117 48.637-4.996 1.56-2.947 9.105 2.166 7.855 43.199-10.562 83.841-30.165 122.52-51.635.592-.33 1.094-.839 1.463-1.441a124.212 124.212 0 0 1 11.881-3.539c1.803-.438 11.077-3.498 12.236-2.322 1.643 1.665-4.042 7.072-5.462 8.644-10.108 11.197-22.131 20.336-35.145 27.891-13.201 7.662-27.247 13.771-41.359 19.536-15.808 6.458-32.517 11.534-47.883 18.957-6.104 2.949-1.821 12.966 4.61 10.935 8.288-2.619 16.341-6.468 24.395-9.738 6.842-2.776 13.685-5.551 20.488-8.422a446.414 446.414 0 0 0 14.119-6.233c-6.988 6.576-13.977 13.152-20.964 19.731-12.1 11.392-23.597 24.369-38.389 32.359-14.614 7.894-31.286 8.812-47.553 8.642-8.167-.086-16.298-.345-24.465-.016-8.595.346-16.228 1.667-24.373 4.372a.813.813 0 0 0-.351.242c-.285-.347-.768-.521-1.267-.226-22.133 13.086-42.308 30.062-61.711 46.84-19.998 17.293-38.815 35.682-56.744 55.107-17.161 18.591-34.185 37.254-52.859 54.36-18.233 16.702-37.718 31.868-58.064 45.904-11.086 7.648-22.446 15.013-34.2 21.597-6.281 3.518-12.66 7.062-19.576 9.176m1.861-503.398c7.926-8.903 16.457-17.155 25.484-24.789 3.983 1.179 8.164 1.509 12.377 1.552 6.429.064 12.872.332 19.301.266 12.379-.127 24.753-.518 37.135-.585 25.317-.138 50.642-.145 75.959.075 3.317.029 5.71-1.389 7.187-3.449 5.125 5.81 10.407 11.486 15.733 17.072 8.653 9.076 17.878 17.735 27.698 25.626-1.912.013-3.823.03-5.724.017a19182.14 19182.14 0 0 0-78.99-.377c-34.936-.092-69.981.199-104.872 1.988-9.684.496-19.444.697-29.094 1.641-5.234.512-10.462 1.109-15.691 1.666-1.07.114-2.096.257-3.103.418 5.121-7.358 10.637-14.424 16.6-21.121m139.923-79.357c-.236.16-.491.303-.717.474-.514.386-.433 1.084.173 1.318a16.46 16.46 0 0 0 2.525.741c2.648 3.841 4.717 8.59 6.162 10.995 4.151 6.914 8.924 13.5 13.78 19.93a274.91 274.91 0 0 0 2.97 3.842c-23.515-.056-47.018.064-70.519.953-12.373.469-24.788.862-37.135 1.79-5.077.382-10.151 1.023-15.212 1.657 26.34-19.04 55.962-33.579 86.649-44.373-.042.047-.085.082-.127.13-.676.75.333 1.721 1.094 1.093 3.992-3.3 7.457-1.752 10.357 1.45M409.699 307.36a83.958 83.958 0 0 0-1.966 3.13c-1.542-1.538-3.696-2.566-6.471-2.652-30.805-.961-61.595-1.801-92.417-1.822-15.2-.01-30.538-.522-45.719.23-7.623.378-15.243.828-22.862 1.26-5.327.302-10.986.678-16.188 2.22a571.537 571.537 0 0 0-39.832-60.408c32.976 4.045 66.517 3.614 99.68 4.737 37.573 1.273 75.167 1.547 112.753 2.437a7245.288 7245.288 0 0 1 46.89 1.264c1.663.05 3.384.096 5.107.051l-.391.804c-2.901 5.992-6.549 11.507-10.8 16.625-9.038 10.882-19.955 20.256-27.784 32.124m-40.413 64.595c-1.141-3.172-3.921-5.612-8.35-5.41-25.24 1.146-50.527 1.941-75.738 3.602-12.281.81-24.612 1.355-36.873 2.429-6.324.555-12.637 1.586-18.934 2.406-4.317.563-8.837 1.216-12.978 2.75.803-8.865 1.511-17.737 2.126-26.622.493-7.138.643-14.341.605-21.497a253.52 253.52 0 0 0-.317-10.886 3.48 3.48 0 0 0 1.111.067c.646-.08 1.249-.156 1.809-.306 5.803 2.271 12.371 2.772 18.517 3.211 7.29.519 14.578 1.072 21.868 1.592 15.511 1.107 31.168 1.035 46.713 1.542 30.601.997 61.208 1.577 91.815 2.396-1.42 6.093-1.47 12.35.803 18.249-1.583-.525-3.406-.281-4.962 1.256a588.155 588.155 0 0 1-27.215 25.221m-89.034 64.785a9.932 9.932 0 0 0-3.191-4.379c-5.352-4.124-15.122-1.75-21.546-1.436l-22.816 1.117c-2.308.112-14.088.713-22.74 2.557a1631.318 1631.318 0 0 0 4.86-40.572c.304-2.844.586-5.689.865-8.534 4.076 1.311 8.506 1.792 12.71 1.992 6.3.3 12.629.808 18.935.907 12.599.198 25.268-.424 37.869-.634 22.692-.377 45.387-1.46 68.069-2.355-22.773 18.485-46.836 35.351-71.936 50.693-.358.219-.721.427-1.079.644m-71.672 8.012c1.917.255 3.818.338 5.272.486 7.3.736 14.486 1.404 21.823 1.511l21.824.319c1.547.021 3.094.045 4.641.067-19.156 10.464-38.9 19.836-58.365 29.704a1538.358 1538.358 0 0 0 4.805-32.087m208.733-238.264c43.656 18.551 99.651 20.234 137.168-10.582 3.728 1.02 7.851 1.359 11.143 1.689 7.396.743 14.724 1.426 22.156 1.659 14.485.452 28.983 1.129 43.474 1.308 29.315.362 58.632.531 87.948.792 2.495.023 4.491-.737 6.005-1.958a198.696 198.696 0 0 1 8.252 15.484 182.416 182.416 0 0 1 9.352 23.846 11.214 11.214 0 0 0-1.728-.172c-38.527-.666-77.083.442-115.617.603-38.543.161-77.081-.004-115.623.27-10.666.077-21.253.079-31.892.87-5.537.412-11.14.592-16.624 1.486-.613.099-1.237.187-1.866.275-7.349-4.295-16.472-3.398-24.872-3.556a7160.998 7160.998 0 0 0-85.805-1.103c-37.625-.258-75.158.703-112.759 2.014-18.708.651-37.345 1.758-55.812 4.637-1.24-1.605-2.468-3.218-3.724-4.81-13.085-16.584-28.597-37.815-50.129-42.954a247.478 247.478 0 0 1 2.515-4.013c14.918 3.934 31.375 3.735 46.617 4.559 17.569.949 35.101 1.605 52.691 2.037 34.965.859 69.923 1.398 104.895 1.929 9.706.148 19.412.303 29.118.465 5.235.087 10.471.188 15.707.268 2.925.045 5.54.037 8.327-.934 2.581-.899 5.097-2.248 7.593-3.365a6.079 6.079 0 0 0 2.157-1.648c6.854 4.095 13.956 7.769 21.333 10.904M587.902 144.8c5.491 1.524 11.158 1.777 16.963 2.215 7.62.577 15.222.674 22.862.723 12.181.078 24.365-.006 36.542-.342 5.231-.144 8.287-3.645 9.194-7.655.126.102.256.202.382.306 14.821 12.211 28.25 26.177 39.63 41.636-27.406.086-54.815.104-82.221.288-14.489.098-28.989.693-43.474 1.066-7.106.182-14.108.771-21.184 1.443-.14.014-.288.026-.431.039a95.988 95.988 0 0 0 2.221-2.644c8.458-10.481 15.415-23.395 19.516-37.075m178.187 550.191c2.418-6.653 1.479-13.788 1.342-20.784-.14-7.178-.217-14.352-.241-21.531a5470.31 5470.31 0 0 0-.297-42.098c-.314-28.388-.642-56.798-1.759-85.168-2.208-56.086-6.461-112.035-13.403-167.744-3.374-27.084-7.562-54.106-13.245-80.807.08-.107.158-.217.238-.325 5.659-7.562 12.095-14.552 17.655-22.165.493-.676.699-1.542.694-2.417.203-.099.407-.203.614-.321 4.612-2.626.447-9.785-4.164-7.124.532-.306-7.126-19.96-7.937-21.939-2.915-7.108-6.193-14.058-9.889-20.794a206.095 206.095 0 0 0-7.117-11.946c-.437-2.916-2.012-5.619-4.718-7.065a224.379 224.379 0 0 0-15.344-19.569c-22.381-25.5-50.336-46.085-80.877-60.748-4.413-2.118-8.957-3.884-13.485-5.733-4.82-1.97-9.29-4.547-14.04-6.616-7.729-3.365-15.36-3.172-22.952.391-.649.305-.184 1.303.476 1.131 4.888-1.274 9.895-1.488 14.795-.104 4.801 1.356 8.451 4.352 12.645 6.852 7.47 4.455 15.821 7.359 23.478 11.517 10.125 5.502 20.02 11.543 29.485 18.175-9.807.519-19.621.894-29.438 1.154-7.291.194-14.579.227-21.86.651-5.182.301-10.571.216-15.75 1.053 1.249-8.585 1.251-17.247-.31-25.61l-.001-.009a66.847 66.847 0 0 0-1.396-5.992c-1.197-4.207-5.032-4.838-7.816-3.246-.276-.203-.554-.403-.821-.62-3.335-2.708-6.337-5.948-8.948-9.353-5.423-7.075-9.806-15.265-13.125-23.52-3.362-8.36-5.744-17.107-8.077-25.798-1.17-4.357-2.436-8.69-3.628-13.045-1.036-3.785-1.79-7.966-3.693-11.415-.357-.646-1.431-.524-1.602.21-1.008 4.32-.475 9.247-.29 13.652.204 4.89.485 9.733 1.136 14.585 1.349 10.068 3.525 19.965 7.012 29.525 3.343 9.168 7.755 17.723 13.747 25.447 3.981 5.131 9.635 11.923 16.184 14.69.856 9.632.758 19.274-1.517 28.81-2.976 12.482-8.675 24.347-16.505 34.512-16.418 21.314-41.818 33.357-68.317 35.839-27.416 2.567-55.472-3.564-80.107-15.622-27.401-13.412-50.132-34.104-70.549-56.438-11.77-12.874-23.974-25.541-34.882-39.162-1.933-2.414-5.027-7.315-8.697-11.73 3.735-.034 7.568-.593 10.874-1.017 6.84-.878 13.525-2.237 20.209-3.937 12.497-3.178 25.675-7.6 36.595-14.595 23.107-14.803 32.127-33.58 35.208-59.449.974-8.178-13.167-10.164-14.484-1.96-2.023 12.61-5.084 18.745-9.109 30.858-3.871 11.643-9.478 15.98-20.195 22.398-10.061 6.026-21.495 9.526-32.579 13.143-6.142 2.004-12.357 3.832-18.551 5.674-3.943 1.173-8.624 2.196-12.624 4.007-2.087-1.83-4.264-3.212-6.456-3.735.161-.27-.048-.692-.452-.612-.644.13-1.286.271-1.93.404a7.152 7.152 0 0 0-1.934.406c-38.606 8.36-75.68 26.163-107.118 50.415a23.922 23.922 0 0 0-4.577 2.497 3.443 3.443 0 0 0-1.392 2.231 271.17 271.17 0 0 0-13.743 12.006c-35.686 33.377-58.297 77.777-74.126 123.445-15.593 44.991-26.148 92.17-31.952 139.407-5.917 48.15-6.6 97.3 1.983 145.178 4.608 25.708 12.068 50.972 23.079 74.684 9.888 21.296 25.983 45.556 51.263 48.149.081.081.157.166.248.242 9.919 8.168 24.687 2.527 35.057-2.353a158.918 158.918 0 0 0 4.899-2.422c-.858 3.303-1.245 6.761-1.424 10.002-.373 6.731 9.118 7.113 10.915 1.527 15.385 2.705 31.272 2.743 46.833 2.657 17.387-.096 34.768-.698 52.135-1.516 34.458-1.625 68.875-4.109 103.356-5.238 69.818-2.286 139.827 2.599 209.589 5.059l58.71 2.071c19.995.705 39.97.84 59.804 3.544 7.293.994 10.087-6.153 8.03-10.606.513-2.991.002-6.27-.279-9.793a2173.102 2173.102 0 0 1-1.483-19.756 6525.643 6525.643 0 0 1-2.611-38.543c-1.682-26.039-3.129-52.097-4.537-78.152-2.799-51.805-4.942-103.649-6.518-155.505-.385-12.64-.887-25.284-1.521-37.915a191.48 191.48 0 0 0 2.236-3.609c2.424-4.043 4.801-8.112 7.256-12.137 4.925-8.068 9.88-16.083 15.058-23.992 4.472-6.83 9.085-13.555 13.905-20.141 5.984 50.533 11.303 101.117 13.745 151.974 2.689 56.014 4.116 112.114 4.892 168.185.217 15.665.363 31.331.53 46.996.087 8.158.174 16.31.107 24.468-.065 7.801-1.244 16.336 1.524 23.72 1.614 4.306 7.258 4.382 8.851 0Z"/></g></svg>