<svg xmlns="http://www.w3.org/2000/svg" width="818" height="733" fill="none" viewBox="0 0 818 733"><g id="body/Gaming" fill-rule="evenodd" clip-rule="evenodd"><path id="✋ Skin" fill="#D08B5B" d="M764.153 391.112c0-8.092-11.2-22.455-11.219-29.784 9.416-1.683 17.288-14.44 15.202-22.429-3.675-2.809-13.308-8.339-17.292-10.921-24.273.736-15.048-33.033-17.795-50.198-2.766-16.794-4.82-34.354-8.868-51.243-7.19-13.514-10.564-28.664-17.436-42.11-3.069-4.456-8.029-8.541-9.514-13.718-15.034-16.42-35.73-26.262-52.762-40.169 6.61-2.116 6.169-11.031 5.742-16.756 1.538-7.469-.105-16.837-6.917-21.045-2.302-7.5-12.364-10.118-18.248-5.34-3.865-17.323-18.986-27.833-34.826-34.26l.042-.153c-15.975-6.34-35.122-9.5-51.062-5.936 8.414-93.75-63.389-97.19-99.83-89.312-18.639 4.03-46.606 16.575-52.96 34.016-3.587 9.847-13.88 41.603-15.345 51.732-27.827-15.88-60.087-36.818-84.223-4.85-4.833 5.571-10.181 9.71-17.413 11.623-22.58 5.86-52.55 6.055-65.384 29.073-7.671 14.26-.772 23.656-2.833 37.921C99.569 188.632 14.628 451.585 33.7 573.918c4.588 43.779 26.988 121.268 82.277 111.607 28.2 30.844 501.524 30.844 550.331 0 40.175 10.508 80.997-5.758 97.845-44.236 21.395-52.762-1.278-109.743-5.296-163.868-2.44-13.665-6.072-24.512-8.013-38.502-.809-5.829 1.981-15.527 0-20.901.935-3.498 13.309-18.815 13.309-26.906Z"/><path id="👕 Top" fill="#78E185" d="m364.257 37.034 1.669.714 5.732 2.484-1.202 2.756c-3.382 7.756-7.183 15.217-11.349 22.242l-.785 1.312-1.205 1.993.061.068c.52.575 1.049 1.172 1.591 1.79l63.079 67.777c26.608 28.566 40.656 43.595 42.143 45.089 6.203 6.231 12.301 7.009 17.881 1.753l.629-.595 1.034-.996.706-.693c3.643-3.598 7.264-7.577 12.469-13.58l58.263-82.647-3.68-8.222c-6.755-15.184-10.443-24.061-11.065-26.632l-.28-1.262-.583-2.713 2.66-.792c9.593-2.857 20.211-2.108 32.257 1.454l.697.21 2.006.62c8.161 2.536 12.782 4.242 17.515 6.77 6.44 3.439 11.195 7.71 14.163 13.276 3.413 6.407 6.025 9.626 10.424 12.23l.344.2.428.24.45.243c.389.206.821.424 1.341.68l1.847.892c5.83 2.794 8.508 4.584 10.802 8.112 2.534 3.895 2.963 7.542 2.18 12.819l-.069.456-.123.746-.476 2.741-.114.695c-.309 1.962-.361 3.688-.139 5.138l.056.33 1.277 6.789-2.534-1.609 7.009 5.713c9.81 8.03 15.656 13.012 21.769 18.631l1.69 1.563.332.309c11.015 10.274 19.962 20.18 27.45 30.755 8.122 11.465 15.003 24.004 20.561 37.36l.629 1.529.051.201a1009.16 1009.16 0 0 1 20.042 99.031l.482 3.229 2.443 16.559-8.042-14.679c-1.252-2.285-4.717-4.549-9.039-6.236l-.408-.156-.296-.111-.618-.22c-4.743-1.651-9.525-1.807-14.006-.418l-.463.15-1.36.456-1.209-.773c-2.228-1.423-4.725-2.626-7.468-3.617l-.69-.243-2.894-.993 1.049-2.874c.793-2.172-.661-6.436-2.758-8.266-3.265-2.833-7.959-3.627-15.249-3.09l-.988.079-.782.071-1.173.116-3.7.397-.001.017a35.472 35.472 0 0 0-.087 1.78l-.006.41.001.4c.016 1.377.135 2.649.364 3.836l.104.503.835 3.724-3.815-.068-1.664-.025c-5.57-.067-11.419.021-18.306.248l-6.798.253-17.34.733-15.211.534-4.533.151-.216-2.868c-.286-3.785-3.522-6.298-9.254-7.414l-.369-.07-5.988-1.083 4.919-4.464.397-.374.411-.4c3.956-3.939 5.285-7.546 3.656-11.032-1.905-4.086-7.782-5.281-13.179-3.061l-.372.156-.382.171c-1.015.47-2.022 1.06-3.63 2.097l-2.052 1.335-.746.476c-1.779 1.122-2.955 1.755-4.443 2.369-3.935 1.629-7.611 1.743-13.641.99l-.538-.068-1.28-.171-3.266-.455-.808-.106-.821-.102c-6.162-.733-10.064-.337-13.358 1.768-2.108 1.346-3.301 3.069-5.143 7.092l-.875 1.94-.386.833c-2.216 4.717-3.897 6.98-7.207 8.944-2.112 1.257-4.114 2.008-7.648 3.036l-2.516.727-.894.27c-.54.167-.988.317-1.462.487-3.849 1.368-7.331 3.334-10.603 5.97l-.508.414-.551.459c-3.185 2.688-5.908 5.601-10.557 11.063l-3.386 3.995-1.203 1.401-.995 1.139-.318.359-.946 1.054c-7.374 8.094-14.752 15.558-22.266 22.476l-1.577 1.442-1.624 1.462-1.337 1.185c-4.37 3.849-9.09 7.745-16.422 13.631l-9.088 7.28-2.859 2.307c-8.587 6.955-13.817 11.441-19.147 16.507l-1.322 1.266-.094.543c-.051.304-.107.653-.168 1.046 0 0-5.202 32.097-.479 58.419 4.724 26.321 6.397 15.62 11.178 22.081l1.107 1.486c2.621 3.488 4.643 5.956 6.835 8.248l2.589 2.673 2.978 2.413 1.881 1.137c1.359.821 2.714 1.466 4.072 1.929 1.873.644 4.376-.626 5.607-2.862l.115-.22.802-1.608 1.796-.052c.421-.012.85-.076 1.269-.193 4.252-1.171 6.367-6.234 4.288-10.165l-.115-.21-1.077-1.912-.552-.962c-.793-1.358-1.526-2.506-2.267-3.519l-.279-.373-4.134-5.437 10.407.971.851.084 1.169.123 3.748.427c3.901.438 7.668.835 11.342 1.194l3.128.299 5.473.5 1.123.112 2.431.257 5.823.63 2.074.213 1.155.112c1.112.105 2.109.19 3.11.265l1.1.079c8.386.571 14.931.192 20.872-1.481 9.664-2.736 19.381-8.383 29.901-16.733 10.752-8.537 18.528-16.576 23.207-24.917.088-.157.101-.281.04-.433l-.045-.095-1.778-3.262 3.563-1.051c2.847-.84 5.263-1.911 7.293-3.282 6.25-4.205 8.342-12.62 3.81-17.019l-.201-.188-.275-.25-3.827-5.736 5.536-.817c1.852-.285 3.478-.608 4.998-1.004 10.118-2.63 15.317-10.698 10.837-18.461l-.15-.253-1.808-2.99 3.229-1.335a42.65 42.65 0 0 1 2.201-.834l.485-.168.485-.164 1.815-.601c3.839-1.266 7.597-2.23 11.343-2.887a74.295 74.295 0 0 1 8.891-.986l1.112-.047 1.241-.043.007-.036.726.01 2.537-.087-.05.13c3.764.093 7.547.46 11.331 1.097l.895.153c1.314.23 2.563.468 3.897.74l5.775 1.224c1.051.218 1.967.397 2.876.56l.879.153 9.302 1.573-8.502 4.089-.218.108-.219.115-.938.517c-5.778 3.265-9.196 6.988-9.999 11.581-1.251 7.166 2.825 10.466 12.434 11.58l.803.087.847.078.556.045 24.064 1.63-22.785 4.371c-5.518 1.059-11.093 2.49-16.723 4.275-.437.138-.91.308-1.422.512l-.392.159-2.316.959-2.222 1.606c-3.9 2.893-4.988 5.763-3.042 8.613l.134.189 1.207 1.652-1.096 1.726c-3.148 4.958-2.736 11.275 1.027 16.41 3.14 4.283 8.221 7.009 15.152 8.572l.537.118 1.522.325 2.221.349 1.611.221 1.236.145.834.086 1.282.119 3.497.295c4.97.424 7.522.766 10.584 1.531 4.111 1.025 7.732 2.695 12.55 5.542l.561.334 1.186.716 2.302 1.415 2.227 1.383.751.462.929.561c6.857 4.093 11.376 5.63 16.133 4.912 3.022-.455 5.558-1.56 7.807-3.318l.353-.282 3.451-2.84-.102-.576.751-1.032c1.438-1.977 7.563-13.511 7.567-13.519 3.953-6.941 7.763-11.734 12.578-14.906l.415-.268.946-.579 1.08-.229.545.085c1.585.248 2.055.952 2.502 2.143.115.304.206.64.296 1.047l.083.404.085.46.132.798.139.935.156 1.151.169 1.33c.132 1.072.277 2.316.441 3.782l1.814 16.712.499 4.439.46 3.958.115.958.391 3.206.428 3.353c1.101 8.449 2.19 15.245 3.318 20.401l.208.927.14.601.362 1.541c6.472 27.715 9.753 50.599 9.916 73.525.147 24.645-5.228 46.641-16.886 64.772-11.114 17.3-27.335 29.856-45.614 34.188-9.635 2.275-19.192 1.778-26.895-2.054-1.406-.699-2.405-1.417-4.227-2.941l-.606-.509c-2.407-2.038-3.469-2.747-4.751-3.046a4.575 4.575 0 0 0-.459-.085l-.22-.023-2.723-.208-.048-2.731c-.103-5.819-2.88-8.095-2.619.985 0 0 .501 13.084.637 14.734l.096 1.085.037.382-1.609 5.614c-70.204 26.811-477.194 27.276-539.988 1.05l-1.796-.802-11.104-5.329s22.251-5.184 7.037-3.261C99 685 80 675 69.702 658.162l-3.754-6.194-1.15-1.924-.636-1.082c-1.53-2.618-2.621-4.621-3.775-6.925-4.657-9.299-8.524-19.306-11.703-30.07-5.916-20.029-9.015-41.727-9.94-66.268-1.675-44.389 2.906-91.24 13.022-140.054 9.811-47.347 24.68-93.369 44.297-136.888 9.807-21.754 20.616-42.56 32.467-62.394l1.274-2.121 1.387-2.292 1.423-2.335 1.431-2.328 1.305-2.103 1.315-2.099 1.326-2.095c12.106-19.025 22.87-33.063 35.312-45.175 11.056-10.763 22.703-21.682 34.942-32.758l-.263-4.637-.011-.085c-.259-1.526-4.867-14.563-.211-24.721l.531-1.141c4.212-8.918 4.825-6.624 8.856-9.437l.165-.117c8.84-6.33 20.104-10.671 33.46-13.567 3.426-.743 6.65-1.074 11.192-1.255l.628-.024.823-.028 3.532-.107c6.655-.213 11.645-2.56 15.493-7.417l.285-.365.288-.382.27-.37c.939-1.313 1.837-2.813 3.286-5.387l.992-1.76.477-.832.489-.838c1.661-2.817 2.84-4.475 4.507-6.288 5.035-5.474 12.847-8.689 21.083-9.224 14.605-.953 28.983 2.963 50.14 11.959Zm191.671 281.665-1.19 5.855a9.042 9.042 0 0 0-.184 1.624l.003.394.084 2.67-2.643.392c-2.138.317-4.258.647-6.356.992l-2.092.349-19.729 3.346 18.037-9.062.366-.179.099-.05.693-.331 2.169-1.008 5.336-2.45 5.407-2.542Z"/><path id="🖍 Ink" fill="#000" d="M540.417 16.75c1.118 4.787.097 10.184.284 15.097.178 4.695.732 9.363 1.548 13.989 8.582-4.514 18.724-5.094 28.504-3.641 12.651 1.88 27.29 6.04 37.205 14.492 2.448 2.088 4.476 4.56 6.174 7.285 2.038 3.27 3.339 6.964 6.57 9.307 4.998 3.625 11.194 5.028 15.999 9.045 4.899 4.095 7.94 10.217 8.583 16.535.343 3.363-.212 6.507-.85 9.787-.572 2.951-.291 4.162.486 7.003.61 2.23-.554 4.761-2.452 5.991a308.16 308.16 0 0 1 12.027 8.668c22.979 17.44 42.41 39.18 55.88 64.76l.326.635.376.764c3.283 6.744 11.872 26.46 12.939 30.893a224.491 224.491 0 0 1 2.189 6.977 225.43 225.43 0 0 1 4.628 18.794l.341 1.727c1.035 5.312 2.816 11.604 2.529 17.266a1007.044 1007.044 0 0 1 7.882 46.569c.295 2.042-.518 3.701-1.78 4.802 3.017.485 6.015 1.081 8.98 1.682l1.722.362.862.19c6.176 1.393 12.27 3.421 16.315 8.608 4.361 5.611 4.45 12.821.07 18.471-3.719 4.8-9.15 7.08-14.82 8.52-1.119.28-2.25.54-3.38.769-.759.16-1.259-.879-.54-1.279l1.203-.665 1.642-.9c4.274-2.356 8.71-5.015 11.075-9.265 3.211-5.77.67-11.111-4.84-14.04-4.613-2.456-10.318-3.085-15.441-3.923l-2.115-.35c-5.355-.855-10.818-1.41-16.223-.798-4.73.54-9.52 2.151-13.341 5.04l-.354.278-.365.307c-3.351 2.904-8.169 9.426-1.85 11.306 4.83 1.428 10.715 1.073 15.792 1.35l.657.04c4.25.29 8.691.29 12.99.8 1.54.179 3.061.429 4.551.78 4.27 1.01 2.8 6.69-.961 7.09-.92.1-1.859.149-2.8.17-2.46 1.85-5.86 2.69-8.769 3.839a677.738 677.738 0 0 1-8.38 3.261c2.42.11 4.84.31 7.25.61.779.089.789 1.14 0 1.22-5.801.59-11.601 1.23-17.381 2.039-8.949 1.241-17.84 2.901-26.529 5.43-6.351 1.857-12.625 4.067-18.71 6.648l-1.841.792-.76.331c-5.522 2.394-12.667 5.195-15.84 10.469-1.66 2.75-2.389 7-.049 9.631 2.502 2.833 7.745 2.51 11.25 2.647l.28.013c7.42.36 14.849.409 22.279.15 15.57-.55 31.151-2.25 46.441-5.241 2.82-.549 4.04 3.681 1.2 4.341-18.036 4.19-36.269 6.489-54.774 6.596l-2.027.004c-7.208 1.378-14.278 3.433-21.288 5.752l-1.401.468c-4.14 1.399-11.21 2.79-13.651 6.899-1.619 2.73-1.05 4.601.551 5.871 2.819 2.23 8.819 2.649 11.739 2.76a596.833 596.833 0 0 0 52.671-.37c5.72-.3 11.829-1.15 17.529-.601 2.451.24 3.271 3.84.611 4.511-7.03 1.78-14.913 1.625-22.176 1.852l-.835.028c-7.8.279-15.609.4-23.409.38a613.548 613.548 0 0 1-20.077-.408l-5.912-.235-1.048-.05c-3.151-.168-6.369-.532-9.163-1.828-2.58 4.32-.651 10.11 2.679 13.53 3.17 3.261 7.741 4.861 12.12 5.861.411.09.821.179 1.231.26 9.62 1.959 19.42 1.79 28.42 6.209 7.569 3.72 14.5 9.92 22.979 11.39 7.58 1.32 13.09-2.019 17.13-8.199.221-.34.441-.68.651-1.021 3.179-5.12 5.469-10.759 8.82-15.78 1.71-2.559 3.64-5.019 6-7.019 1.059-.911 8.479-4.85 9.64-6.03 4.99-5.121.57-15.89 1.87-22.31 1.519-7.471 8.09-10.1 12.03-15.891 7.489-11.019-13.051-21.34-6.91-33.39a.774.774 0 0 1 .309-.33c.54-.29 1.401.071 1.351.781-.681 8.98 7.88 15.16 10.97 22.939 3.519 8.851-2.101 14.211-7.84 20.121-7.361 7.59-2.181 16.09-3.82 25.23a12.61 12.61 0 0 1-1.005 3.199c1.258.78 2.228 2.072 2.441 3.876 2.524 21.4 5.237 42.734 9.667 63.838l.948 4.483 1.269 5.982c3.157 14.961 6.105 29.981 6.665 45.276 1.759 12.907 2.457 25.922 1.415 38.915-3.16 39.551-25.271 80.931-65.441 93.07-9.299 2.811-19.16 3.54-28.7 1.571-3.269-.67-7.849-2.151-11.96-4.391.245 2.636.439 5.272.52 7.902 1.355 1.508 1.967 3.786 1.196 5.735-3.276-1.078-6.254-2.784-8.935-5.119l-.444-.395c-1.59-5.907-2.055-12.369-2.286-18.592l-.06-1.77c-.061-1.72-.1-3.41-.161-5.06-.339-10.27-.099-20.56.43-30.82l.39-7.553c.893-17.617 1.62-35.192 1.131-52.857-.56-20.33-2.3-40.571-4.48-60.79-1.131-10.431-2.41-20.84-3.721-31.25-1.049-8.38-2.809-17.4-2.839-26.04-6.731-1.44-13.34-4.201-17.481-9.85-4.39-5.99-5.039-13.65-1.14-19.791-3.769-5.159-.679-10.019 3.981-13.299-7.16-4.011-11.15-14.951-12.21-22.56-.721-5.221-.95-13.031 1.279-18.901a71.182 71.182 0 0 0-9.599.991c-3.701.65-7.33 1.599-10.911 2.78l-1.813.599a46.71 46.71 0 0 0-2.967 1.091c6.471 10.699-1.84 20.4-12.5 23.17-2.029.529-4.099.9-6.189 1.199-4.71.651-9.521.85-14.191 1.281-8.939.819-17.929 1.99-26.899 2.37-1.971.09-3.24-.83-3.841-2.111-.019-.019-.029-.03-.029-.049a2.735 2.735 0 0 1-.401-1.08c.031.03.071.05.1.07-.43-2.401 1.011-5.32 4.171-5.67 12.95-1.461 26.079-1.53 39.069-2.6l.832-.069c4.078-.352 8.881-.999 12.109-3.581 3-2.4 3.269-5.521 2.069-8.34-.02.069-.039.149-.05.22-.09.559-.859.54-1.109.149-.75-1.139-.941-2.26-.75-3.34a13.355 13.355 0 0 0-3.17-2.67c-5.231-3.179-12.11-4.049-18.061-4.99-6.509-1.029-13.069-1.5-19.639-1.809-12.93-.611-25.901.44-38.62 2.759-.531.091-.75-.649-.23-.819a142.731 142.731 0 0 1 15.159-4.11c-.12-.021-.239-.04-.359-.071-.45-.11-.771-.659-.62-1.099.019-.071.05-.14.08-.2-2.181-1-3.09-4.36-.45-5.72 8.229-4.25 17.889-6.171 26.92-7.921 8.67-1.67 17.429-2.84 26.2-3.879 14.83-1.74 31-1.7 45.269-6.381l.587-.197c5.811-2.004 12.748-6.065 13.154-12.922.599-10.371-14.811-7.67-21.231-7.42-17.569.67-35.119 1.89-52.609 3.77-3.571.38-7.141.769-10.71 1.17-5.47.609-10.95 1.25-16.41 1.929-3.05.381-6.17.881-9.31 1.361-.98.24-1.94.41-2.9.5a.273.273 0 0 1-.18-.04c-4.57.64-9.16 1.129-13.62.99-.511-.01-.83-.811-.29-1.051 5.76-2.439 12.17-3.879 18.599-5.01 3.981-2.969 8.79-5.349 12.741-7.649 5.42-3.16 11.63-7.81 17.78-9.7 2.769-2.18 5.909-3.93 8.8-5.12-.83-1.29-1.13-3.081-.981-4.59.551-5.41 4.881-8.431 9.881-9.491 1.55-.319 3.34-.559 5.25-.649.039-1.01.489-2 1.489-2.74l.295-.224.21-.167c3.356-2.726 10.019-10.399 1.995-10.959-4.259-.301-7.86 2.82-11.25 4.93-7.04 4.39-13.849 4.609-21.889 3.519l-3.614-.519-.601-.081c-5.813-.763-11.71-.868-14.955 5.06-3.481 6.341-4.7 12.121-11.721 15.611-6.709 3.33-14.159 3.99-20.319 8.57-6.601 4.899-11.561 11.779-16.96 17.879-11.91 13.44-25.54 25.311-39.58 36.471l-2.498 1.979c-12.929 10.218-26.276 20.279-40.752 28.151a.665.665 0 0 1-.29.07c-.39-.04-.681-.54-.33-.88 16.91-16.43 36.69-29.75 54.059-45.74 7.7-7.09 15.03-14.551 22.08-22.29 6.16-6.79 11.62-14.42 18.801-20.2 3.489-2.811 7.26-4.96 11.479-6.46 3.941-1.411 8.361-2.111 11.991-4.271 7.11-4.219 6.42-14.219 13.53-18.76 6.096-3.895 13.523-2.472 20.282-1.547l.808.108c4.38.58 8.91 1.07 13.09-.66 4.139-1.71 7.469-4.91 11.639-6.61 5.811-2.39 14.05-1.82 17.031 4.57 2.849 6.1-1.04 11.62-5.58 15.67 6.189 1.12 11.62 4.11 12.08 10.21 4.54-.151 9.07-.311 13.609-.47 15.811-.55 31.7-1.611 47.521-1.33-.361-1.611-.521-3.271-.541-4.96-.009-.94.031-1.88.1-2.84.12-1.641 1.2-2.631 2.801-2.801l3.573-.382 1.196-.118c6.694-.633 14.18-.766 19.281 3.66 2.74 2.391 4.95 7.891 3.61 11.561 3.119 1.07 6.09 2.439 8.8 4.17 5.37-1.801 11.01-1.6 16.409.279l.641.229c3.839 1.409 9.279 4.078 11.365 7.886a1006.484 1006.484 0 0 0-20.463-101.957c-5.475-13.424-12.393-26.255-20.782-38.097-21.13-29.84-51.571-50.36-78.91-73.95-2.412 2.654-5.011 5.181-7.441 7.612l-1.03 1.036c-4.95 5.013-10.113 9.81-15.39 14.475-11.029 9.75-22.638 18.749-34.164 27.892-23.235 18.433-44.242 38.006-61.72 62.071-.314.434-1.185.181-.942-.396 11.988-28.497 36.84-50.162 59.416-70.265 11.872-10.571 24.022-20.887 35.437-31.957 5.322-5.161 10.477-10.5 15.34-16.097l1.21-1.404c3.18-3.722 10.626-15.086 15.547-6.887 1.031 1.715.986 3.909 0 5.626-1.398 2.44-3.173 4.767-5.114 7.002a349.003 349.003 0 0 1 20.268 11.911c-.38-2.021-.285-4.255.068-6.49l.116-.71.481-2.772c.691-4.086 1.046-7.886-1.547-11.871-3.242-4.986-9.355-6.541-14.225-9.422-5.61-3.32-8.54-7.762-11.544-13.4-5.753-10.793-18.75-15.121-29.92-18.593l-1.406-.436c-10.322-3.2-21.488-4.911-31.808-1.837a99.416 99.416 0 0 0 3.818 13.275c1.685 4.606 5.534 9.727 5.14 14.702-.272 3.443-4.402 7.123-7.829 4.492-4.854-3.724-5.824-9.79-7.125-15.567a106.75 106.75 0 0 1-2.403-17.03c-.329-5.509-.072-11.015.608-16.487l.521-4.02.126-.932c.567-4.063 1.411-8.327 3.696-11.511.22-.306.758-.313.858.112ZM399.588-6.093c.073.325.124.646.17.967.334 1.37.459 2.687.418 4.01a6.29 6.29 0 0 1-.104 1.428c-.179 1.557-.554 3.155-1.061 4.902a141.297 141.297 0 0 1-3.696 11.006c-2.73 7.153-5.953 13.978-9.937 20.52-7.197 11.817-16.346 21.626-27.132 30.105 2.047 1.689 4.048 3.446 6.053 5.17 9.691 8.34 19.12 17.059 28.253 26.007 16.219 15.893 32.112 32.081 47.632 48.657 7.655 8.175 15.168 16.457 22.64 24.795l.245.28.265.316c2.653 3.208 7.957 10.861 11.914 9.632 1.998-.622 4.102-3.603 5.464-5.025l2.509-2.616c.834-.875 1.662-1.754 2.477-2.646 14.596-15.992 28.407-32.598 41.375-49.955a630.213 630.213 0 0 0 27.258-39.532c2.818-4.44 5.097-9.212 9.25-12.526 3.048-2.432 7.271-.202 6.503 3.785-1.21 6.279-5.556 11.589-8.978 16.896a625.532 625.532 0 0 1-10.552 15.839 645.874 645.874 0 0 1-21.627 29.558c-6.442 8.31-13.164 16.407-20.067 24.34l-1.887 2.16c-7.425 8.465-14.713 17.451-22.918 25.177-7.347 6.919-15.371 4.903-22.064-1.821-8.465-8.501-16.324-17.695-24.469-26.506a3695.956 3695.956 0 0 0-49.338-52.37l-5.462-5.69c-6.369-6.648-12.712-13.337-18.889-20.15l-.797-.887c-7.045-7.925-14.208-17.852-24.223-21.881-.724-.291-.458-1.32.324-1.175 6.411 1.185 11.763 4.415 16.743 8.274 4.476-7.407 8.47-15.215 11.952-23.201l-2.234-.97c-15.984-6.907-33.999-13.87-51.16-12.751-6.916.45-14.295 3.07-19.07 8.262-4.324 4.703-6.483 11.045-10.451 16.054-4.545 5.737-10.473 8.319-17.748 8.552l-3.538.107c-4.068.132-7.97.346-12.097 1.24-11.182 2.425-22.971 6.358-32.349 13.075-3.402 2.436-6.914 5.786-8.559 9.477-1.631 3.657-2.1 7.936-2.259 11.883-.077 1.924.5 4.465.018 6.306.055-.211.08-.099.087.121 1.499 1.182 2.52 3.147 2.631 5.105 9.348-4.872 19.025-9.142 28.89-12.991 10.984-4.285 22.309-7.72 33.636-10.971 11.086-3.181 22.69-4.497 33.991-6.765 1.439-.29 1.939 1.654.598 2.17-11.878 4.562-23.371 9.97-35.348 14.262-11.971 4.29-23.853 8.935-35.477 14.097-22.468 9.981-44.171 22.681-61.872 39.912-17.288 16.83-30.623 37.275-43.025 57.831-12.49 20.701-23.637 42.156-33.572 64.195-19.654 43.599-34.392 89.44-44.095 136.264-9.443 45.566-14.719 92.759-12.962 139.332.834 22.12 3.536 44.257 9.82 65.531 3.002 10.164 6.76 20.095 11.508 29.576 5.007 9.996 11.753 18.9 16.325 29.066.376.836.52 1.639.499 2.385 19.5 16.895 50.022 5.51 71.126-4.577 48.56-23.22 96.22-48.63 141.52-77.79 44.71-28.781 87.08-60.901 128.45-94.24-3.2-3.3-6.021-7-8.5-10.35-5.12-6.92-8.97-14.76-11.62-22.941-3.1-9.58-4.061-19.83-3.18-29.839l.25-2.831c.843-9.452 1.816-19.044 3.89-28.28.019-.119.11-.17.21-.17.099 0 .2.061.24.17 5.59 17.891 6.04 37.12 12.319 54.781 2.53 7.1 6.45 13.96 11.151 19.85 2.03 2.549 4.41 4.76 6.839 6.92.161-1.101.38-2.19.71-3.26l.262-.847c.325-1.029.728-2.172 1.288-3.184a33.796 33.796 0 0 1-2.319-.76c-.601-.219-.731-1.189 0-1.349 1.99-.46 4.04-.69 6.13-.79.33-.05.649-.06.969-.04 3.911-.121 7.891.16 11.661.22 6.53.1 13.04.219 19.559.51 12.481.539 26.57 2.93 38.851.029 11.16-2.639 22.16-10.08 31.109-17.08 7.82-6.119 13.851-13.389 20.34-20.639-.466.073-.928.142-1.389.206l-4.185.573c-5.282.706-11.553 1.259-15.745-1.279-1.601-.97-1.14-3.17.49-3.771 4.279-1.569 9.59-.269 14.149-.489 3.58-.171 7.201-.55 10.731-1.29a45.65 45.65 0 0 0 3.449-.85c8.36-2.41 18.181-10.89 11.541-20.15-.25-.35.029-.67.369-.731a.515.515 0 0 1 .441.111c7.559 6.259 3.629 17.479-3.521 22.29-2.459 1.66-5.239 2.82-8.119 3.67.55 1.009.649 2.25-.011 3.429-5.599 9.981-15.079 18.75-23.96 25.801-9.119 7.239-19.639 14.069-30.949 17.27-13.061 3.679-27.41.91-40.66-.26a782.913 782.913 0 0 1-21.51-2.211c-1.921-.219-3.91-.389-5.931-.579 1.901 2.5 3.411 5.38 4.401 7.11 3.22 5.619.25 13.02-5.99 14.739a8.314 8.314 0 0 1-1.98.3c-1.681 3.37-5.681 5.851-9.381 4.58-1.609-.549-3.16-1.299-4.649-2.199-23.271 20.44-47.771 39.619-72.97 57.6-46.73 33.34-95.711 63.79-146.5 90.56-11.44 6.03-22.967 11.898-34.592 17.537l-10.006 4.823c-11.075 5.33-22.41 10.631-34.172 13.939a64.811 64.811 0 0 1-7.154 1.565 2.9 2.9 0 0 0-.025.633c-2.212.294-4.142.339-5.79.134l-.375-.051c-14.417 1.008-29.838-2.512-39.113-13.042-1.546 1.085-3.8 1.205-5.789-.356-10.003-7.849-15.966-19.799-21.199-31.208-5.306-11.573-9.465-23.634-12.521-35.99-6.104-24.678-8.525-50.134-8.653-75.519-.461-97.819 24.037-196.497 66.589-284.316 10.792-22.273 22.688-44.13 35.894-65.067 13.17-20.88 28.463-40.285 48.048-55.513 5.632-4.378 11.491-8.381 17.534-12.069-4.056-2.01-5.667-7.123-5.951-11.665-.63-10.087.572-21.708 6.478-30.22 8.285-11.94 23.116-19.301 36.868-22.881 7.179-1.868 14.605-2.957 22.01-3.325 3.818-.191 7.785.437 11.557.025 3.328-.362 5.386-2.348 7.3-4.96 4.903-6.692 8.095-13.712 15.128-18.618 7.216-5.033 16.567-6.96 25.26-6.437 10.127.609 19.366 4.599 28.285 9.184 8.05 4.138 15.864 8.722 23.479 13.612a216.406 216.406 0 0 0 3.934-9.874 193.423 193.423 0 0 0 6.109-19.656c1.697-6.721 1.449-15.597 6.575-20.651 4.457-4.393 13.04-2.668 14.485 3.825ZM745.067 442.37l-.036.008c-10.368 6.144-15.326 21.498-20.206 28.208.399 2.25.679 4.54 1.229 6.67 1.261 4.891 2.91 9.741 4.821 14.401 3.36 8.23 7.57 16.07 11.46 24.049 3.13 6.417 6.197 12.952 8.583 19.707a3.95 3.95 0 0 0-.701.947c-2.588 4.847-4.614 3.894-9.389 2.836l-.003-.01c-2.731-8.359-6.67-16.209-10.21-24.23l-.861-1.959-.851-1.959c-2.958-6.865-5.657-13.793-7.229-21.151-1-4.69-1.41-9.511-1.469-14.301-2.59 2.131-5.701 3.661-9.62 4.25-8.388 1.267-15.984-3.986-22.818-8.201l-1.54-.942c-4.279-2.603-8.52-5.008-13.453-6.237-5.6-1.399-11.39-1.399-17.079-2.11-.681-.09-1.37-.18-2.061-.289 2.22 7.35 3.25 15.33 4.571 22.69 1.84 10.32 3.34 20.73 4.78 31.11 2.8 20.12 4.75 40.399 5.739 60.69.958 19.646.476 39.218-.235 58.858l-.355 9.577c-.284 7.798-.518 15.605-.38 23.405.38.029.76.09 1.141.18 3.94.92 6.629 4.939 10.23 6.73 7.599 3.78 16.78 3.73 24.87 1.82 18.4-4.361 33.7-17.201 43.779-32.89 12.101-18.82 16.541-40.971 16.4-63.131-.166-24.94-4.205-48.785-9.828-72.862l-.361-1.537c-4.732-20.059-7.696-64.136-8.918-64.327ZM229.826 392.05c.105 6.708-2.623 13.883-4.122 20.401-1.614 7.023-3.224 14.046-4.856 21.066l-1.467 6.29c-1.223 5.241-2.428 10.486-3.508 15.759-.888 4.335-1.26 10.048-2.715 14.827 17.307-7 34.641-13.929 51.946-20.906 21.32-8.599 42.74-16.96 64.11-25.42 21.29-8.42 42.46-18 64.181-25.2 5.17-1.72 8.67 6.53 3.719 8.819-22.06 10.231-45.4 18.241-68 27.202l-32.691 12.978c-29.969 11.892-59.959 23.725-90.099 35.151-20.53 7.781-40.98 15.791-61.64 23.18-9.85 3.521-19.789 6.851-29.59 10.5-8.21 3.06-17.09 7.601-20.13 16.42-.16.46-.79.271-.72-.2 1.23-8.54 7.571-13.88 14.72-17.92 9.489-5.375 19.911-9.287 29.927-13.598l1.363-.591c20.453-8.92 41.071-17.479 61.75-25.895a4.38 4.38 0 0 1-.335-1.596l-.059.016c-.376-3.823 1.377-7.232 2.638-10.788l3.617-10.204c2.41-6.795 4.572-13.674 6.799-20.53 2.329-7.166 4.68-14.325 7.027-21.485 1.988-6.065 3.324-13.294 6.725-18.715.41-.653 1.54-.286 1.41.439Zm398.289-15.082-.258 1.302c-.3 1.523-.582 3.058-.652 4.598a37.901 37.901 0 0 0 1.33 11.95c1.05 3.849 2.519 7.57 4.61 10.98 1.98 3.209 4.85 5.73 6.68 9.02.189.349.309.699.359 1.04.7-.29 1.391-.55 2.061-.761 5.58-1.769 11.279-3.25 17.059-4.359l-.917-.062-.592-.048c-9.657-.817-18.769-3.976-16.8-15.251 1.114-6.374 6.116-10.648 11.478-13.677l.672-.372c.289-.161.59-.321.879-.46-4.85-.82-8.369-1.83-14.319-2.83a76.997 76.997 0 0 0-11.59-1.07ZM186.924 238.085c9.496 19.186 16.64 39.586 22.03 60.283a378.042 378.042 0 0 1 6.587 30.263l.583 3.397.331 1.844c1.659 9.069 3.766 18.893 1.329 27.741-.795 2.891-5.595 4.035-6.939.908-4.054-9.44-3.484-20.291-4.659-30.393a390.133 390.133 0 0 0-5.02-31.613c-4.033-20.104-9.695-39.738-16.006-59.224l-.704-2.165c-.536-1.443 1.798-2.394 2.468-1.041Zm365 85.832c-2.83 1.331-5.66 2.551-8.16 3.77-.189.101-.389.19-.59.291 2.83-.48 5.67-.93 8.51-1.351-.029-.92.061-1.829.24-2.71Zm110.734-9.609a2.98 2.98 0 0 0-1.128.667l-.159.16c-.39.363-.666.792-.827 1.287-.25.478-.366.992-.345 1.542l.143 1.063c.19.678.533 1.265 1.029 1.765l.809.625c.546.316 1.13.495 1.751.537l.268.01h.81c.463-.016.898-.13 1.307-.345a2.98 2.98 0 0 0 1.128-.667l.159-.16c.391-.363.666-.792.827-1.287.215-.409.33-.845.345-1.308v-.233l-.143-1.064a3.98 3.98 0 0 0-.85-1.574l-.179-.191-.809-.626a3.977 3.977 0 0 0-1.751-.536l-.268-.009h-.576a3.012 3.012 0 0 0-1.541.344Zm-26.019-1.353c-2.125.39-3.33 2.966-2.793 4.919.594 2.163 2.649 3.124 4.714 2.828l.206-.033c2.418-.445 4.787-.273 7.09.576 2.026.748 4.383-.837 4.92-2.794.614-2.234-.759-4.17-2.794-4.92-3.65-1.348-7.565-1.272-11.343-.576ZM215.328 170.9c4.839 7.091 7.86 16.517 10.84 24.62l.298.806c3.168 8.516 6.224 17.099 9.074 25.728 5.689 17.225 13.103 35.25 14.473 53.446.253 3.358-4.886 4.704-6.376 1.728-4.281-8.557-6.583-17.477-9.116-26.651-2.416-8.749-4.933-17.468-7.451-26.188-2.517-8.715-4.952-17.456-7.431-26.182-2.411-8.489-5.768-17.928-6.32-26.763-.072-1.148 1.453-1.36 2.009-.544Zm109.209-57.085c6.459 4.483 11.749 11.04 17.215 16.648a1091.668 1091.668 0 0 1 16.436 17.243c9.057 9.71 17.95 19.579 27.135 29.171 18.304 19.115 39.011 36.705 64.273 45.689 6.113 2.174 3.435 11.984-2.692 9.764-25.839-9.368-47.244-26.689-66.125-46.284-9.779-10.148-18.752-20.992-27.501-32.029a1175.401 1175.401 0 0 1-12.163-15.577l-2.397-3.145c-5.037-6.646-11.2-13.27-14.886-20.774-.207-.422.247-1.023.705-.706Z"/></g></svg>