<svg xmlns="http://www.w3.org/2000/svg" width="818" height="733" fill="none" viewBox="0 0 818 733"><g id="body/Gym Shirt" fill-rule="evenodd" clip-rule="evenodd"><path id="✋ Skin" fill="#D08B5B" d="M56.573 653.859c-1.361.044-.932-.353-.432-.449l.432.449Zm40.185 29.873c38.027 4.508 76.101.384 113.941-3.751 76.66-5.683 152.781 10.873 229.592 5.824 95.992-4.045 192.245-11.641 287.918 1.16 26.463.608 68.671 7.749 59.074-33.215-12.606-105.319-29.46-210.107-47.514-314.615-15.301-58.589-16.407-159.929-58.305-200.672-6.126-5.593-28.097-23.685-33.906-26.114-28.879-10.752-80.941-19.142-102.42-41.934C527.74 40.977 535.833.806 508.78-22.894c-23.71-19.358-75.46-15.266-100.809-.73-20 12.968-23.133 38.156-35.595 56.783-3.074 4.463-10.376 15.222-14.499 18.693-10.037 9.663-45.288 19.815-55.468 21.68-57.447 11.772-86.091 19.045-131.274 57.219C53.077 251.276 69.812 464.446 37.145 622.052c-1.337 17.326-11.87 40.838 6.922 51.993 16.185 7.753 35.215 6.909 52.691 9.687Z"/><path id="🖍 Ink" fill="#000" d="M531.968 30.348c.141-.41.8-.48.9 0 1.611 7.369 4.63 15.45 7.69 22.36 3.11 7 7.36 13.43 12.73 18.89 11.25 11.44 25.72 16.66 41.59 16.67l.38.01c.073-.533.156-1.067.232-1.6l.108-.8c1.45-10.96 14.46-10.64 17-2.37 1.29.41 2.58.82 3.86 1.25l.256.092c2.155.82 9.454 4.455 10.794 3.488 2.95-2.121 6.32.31 7.44 3.02 1.831 4.437 2.136 9.921 2.731 14.735l.079.624.09.75c41.75 10.851 65.18 52.621 77.14 91.101 6.48 20.86 10.72 42.38 14.98 63.78 4.56 22.89 8.761 45.84 13.21 68.74 8.77 45.129 17.07 90.36 24.28 135.76l2.091 13.184c6.605 41.747 13.039 83.47 18.449 125.406 2.92 22.61 5.66 45.24 8.3 67.89.473 4.039.942 8.079 1.407 12.123l.694 6.067c.619 5.44 1.669 10.82-1.021 15.91-5.83 11.039-23.49 10.959-24.49-3.18-.199-2.81.75-4.96 2.32-6.46l-.022-.237c-.015-.142-.031-.246-.037-.293-.521-2.81-.661-5.78-.981-8.621-.7-6.059-1.38-12.119-2.07-18.189-1.33-11.561-2.67-23.12-4.06-34.67-2.809-23.43-5.78-46.83-8.929-70.21l-3.122-23.117c-10.44-77.057-21.321-154.098-35.639-230.543-3.9-20.81-7.909-41.59-12.02-62.36-3.9-19.67-8.28-39.25-14.82-58.24-10.68-31.02-29.35-60.07-55.27-80.43.4 3.89.69 7.8 1.06 11.69.95 9.99 1.96 19.97 2.98 29.95 3.71 36.16 8.74 72.26 17.32 107.619 4.25 17.521 9.43 34.811 15.74 51.701 3.11 8.32 6.5 16.53 10.22 24.59 3.68 7.97 10.131 16.49 10.52 25.37.18 4.11-4.12 7.76-8.099 7.32 1.859 16.36 2.909 32.89 4.019 49.21 1.62 23.639 2.91 47.32 4.8 70.94 3.38 42.31 7.62 84.56 12.06 126.77.88 8.368 1.837 16.73 2.784 25.09l.792 7.02c.534 4.55 1.34 10.004-1.076 14.04a69.543 69.543 0 0 1 4.501 16.14c1.089 6.94-2.88 14.72-10.981 14.42-.92-.031-1.84-.111-2.76-.21-7.51 1.74-15 3.27-22.8 3.32-9.96.07-19.94-.13-29.9-.2-19.269-.13-38.54-.26-57.81-.42-69.76-.56-139.55-.53-209.3-1.65l-27.907-.443c-25.584-.412-51.171-.886-76.743-1.817-17.61-.64-35.219-1.29-52.82-2l-3.583-.137c-15.53-.565-31.078-.856-46.437-3.233-.385-.065-.551-.465-.492-.816l.022-.094-.67-.15c-.39 1.68-8.49-5.38-8.43-10.07-3.36-4.37-1.79-11.35-1.43-16.41.35-4.93.79-9.87 1.18-14.8.83-10.53 1.54-21.07 2.39-31.6 3.43-42.46 6.39-85.03 8.31-127.58.97-21.45 1.75-42.91 2.57-64.36.369-9.766.884-19.541 1.841-29.262l.249-2.429c1.05-9.859.95-20.459 4.58-29.75a.143.143 0 0 1 .27 0c3.67 9.041 4.02 19.551 4.76 29.471.13-.04.26-.06.4-.09 5.07-2.41 10.19-4.58 14.99-7.56.65-.4 1.28-.821 1.92-1.23 7.55-23.1 16.3-45.82 24.35-68.77 26.01-74.21 40.37-153.241 43.55-231.82-19.84 12.79-41.448 22.741-62.452 33.426l-1.968 1.004c-20.69 10.58-40.5 22.59-55.23 40.94-12.84 15.98-21.23 35.45-29.08 54.22-8.43 20.17-16.03 40.7-22.98 61.42-14.1 42.04-25.02 85.11-33.54 128.62-8.41 42.94-14.42 86.199-18.44 129.76-2.05 22.22-3.92 44.46-5.49 66.73-.8 11.27-1.51 22.55-2.17 33.84-.32 5.48-.56 10.97-.92 16.45-.22 3.16-.26 6.419-1.3 9.419-.87 2.5-2.41 4.591-3.85 6.801-2.63 4.03-9.27 4.76-11.74 0l-1.07-2.062c-1.415-2.745-2.708-5.51-2.9-8.678-.18-3 .19-6.13.36-9.141.33-6.089.71-12.189 1.09-18.279.8-12.81 1.69-25.62 2.69-38.42 1.99-25.64 4.55-51.21 7.77-76.73 11.33-89.63 27.69-178.79 58.91-263.85 7.72-21.03 16.33-41.891 26.05-62.08 9.4-19.52 21.29-37.95 38.55-51.39 15.888-12.374 34.357-20.657 52.707-28.696l2.293-1.004c20.57-8.99 41.1-18.67 62.58-25.35-.48.06-.95.12-1.359.26-.471.15-.75-.46-.46-.79 1.219-1.35 1.729-2.74 3.13-4.07a49.995 49.995 0 0 1 3.009-2.627l1.489-1.185c2.725-2.163 5.59-4.374 9.021-5.128 4.851-1.06 7.231 3.35 5.87 6.8.7-.91 2.58-.64 3.07.61 15.96 41.16 26.44 84.73 47.92 123.62 15.86 28.73 37.14 55.26 65.38 72.61 15.17 9.32 32.531 16.48 50.46 17.61 16.1 1.01 31.59-3.081 45.281-11.53 26.54-16.37 43.87-45.11 56.229-72.96 13.59-30.66 23.29-63.33 28.99-96.45-18.06.25-37.12-7.99-49.13-21.42-6.32-7.07-11.03-15.68-13.42-24.86-2.41-9.26-1.64-16.87 1.44-25.73Zm-151.51-24.05c2.201-3.93 7.081-5.23 11.071-3.63 4.429 1.78 5.76 6.08 5.13 10.45-.731 5.12-4.021 10.65-6.58 15.12-2.68 4.68-6.13 8.99-9.701 13.02-6.719 7.6-13.91 14.45-22.439 20.05-8.49 5.57-18.091 9.74-27.96 12.07l-2.346.547c-7.678 1.755-18.6 3.767-24.995-.406-.309-.201-.3-.611 0-.811 3.46-2.41 8.091-2.84 12.07-3.98 4.34-1.25 8.691-2.67 12.84-4.45 8.191-3.52 16.031-8.16 23.01-13.7 7.011-5.56 13.79-12.19 18.481-19.84 2.36-3.84 4.37-7.87 6.299-11.93 1.951-4.07 2.93-8.59 5.12-12.51Z"/></g></svg>