<svg xmlns="http://www.w3.org/2000/svg" width="818" height="733" fill="none" viewBox="0 0 818 733"><g id="body/Hoodie" fill-rule="evenodd" clip-rule="evenodd"><path id="✋ Skin" fill="#D08B5B" d="M790.748 715.543c19.326-.933 11.553-34.738 10.166-47.153-15.301-45.344-11.704-94.816-17.722-142.344-3.749-44.368-8.566-88.598-12.618-132.932-7.958-89.994-65.105-273.198-130.32-302.661-8.215-36.046-42.146-69.694-85.076-69.694-29.28-34.66-64.523-59.052-109.726-54.127-18.68.85-36.796 20.662-54.695 24.488-10.022 1.382-98.962-2.175-116.778 8.406-12.41 6.372-23.613 18.147-19.964 33.138 5.822 18.162-12.271-1.49-50.014 17.895-76.963 46.223-30.973 108.06-28.935 109.976-48.028 66.823-90.007 121.035-109.43 202.712-12.588 60.639-11.171 123.238-21.718 184.188-3.724 21.134-9.437 41.545-15.619 62.068-6.7 26.859-9.958 93.803-13.65 94.401-6.728 1.671 3.887 15.483 11.015 15.494 197.624 32.781 398.362 1.358 597.048-3.776 55.993-1.947 112.046-2.396 168.036-.079Z"/><path id="🧥 Jacket" fill="#9FD8E5" d="M391.006 49.962c0 21.032 73.03 99.184 98.233 94.028 16.802-3.437 42.189-25.853 76.16-67.249V49.962l-7.337-29.153c41.56 1.465 74.162 34.409 82.192 69.644 64.563 29.169 121.218 209.019 130.066 299.934l.254 2.727c4.052 44.334 8.869 88.564 12.618 132.932 6.018 47.528 2.421 97 17.722 142.344l.091.77c1.596 12.984 8.682 45.469-10.257 46.383-55.99-2.317-112.043-1.868-168.036.079-198.686 5.134-399.424 36.557-597.048 3.776-7.128-.011-17.743-13.823-11.016-15.494 3.693-.598 6.951-67.542 13.651-94.401l1.272-4.244c5.689-19.097 10.88-38.147 14.347-57.824 10.547-60.95 9.13-123.549 21.718-184.188 19.423-81.677 61.402-135.889 109.43-202.712-2.038-1.916-48.028-63.752 28.935-109.976 37.743-19.385 55.836.267 50.014-17.895-3.649-14.99 7.554-26.766 19.964-33.138 17.816-10.58 106.756-7.024 116.778-8.406 4.656-.995 9.326-3.072 14.017-5.615l-.813 2.71c-8.637 28.946-12.955 49.528-12.955 61.747Z"/><path id="🖍 Ink" fill="#000" d="M491.219 166.433a.703.703 0 0 1 1.406 0l1.395 13.469c1.698 16.45 3.332 32.868 4.517 49.395a1276.332 1276.332 0 0 1 2.941 61.868c1.66 71.937 1.99 143.912 2.13 215.867a6166.24 6166.24 0 0 1 29.2-1.951c6.606-.427 13.213-.836 19.82-1.239l16.847-1.021 6.936-.426c4.687-.29 10.012-1.47 13.289 2.682 1.312 1.662 1.97 3.822.747 5.795-2.821 4.551-7.154 4.392-12.055 4.589-4.624.187-9.248.37-13.872.548-9.909.385-19.817.748-29.729 1.026-10.402.292-20.799.529-31.197.706-.105 30.377-1.362 60.715-2.721 91.058l-.615 13.655c-1.663 36.926-3.452 73.884-5.993 110.761-.209 3.019-4.48 3.013-4.687 0-2.862-41.529-4.75-83.147-6.622-124.732-1.358-30.151-2.148-60.31-2.524-90.473-1.375.009-2.749.028-4.123.033-39.027.17-78.044.34-117.071-.026a.99.99 0 0 1 .172.256c2.824 6.667 3.093 15.175 3.024 22.33-.079 8.206-1.184 16.312-3.074 24.292-6.771 28.588-24.237 54.194-44.129 75.363l-.65.689c-4.692 4.958-10.075 9.939-12.956 16.254-2.943 6.448-3.964 13.99-5.416 20.919l-.17.796-5.678 26.226c-1.804 8.33-2.316 20.479-8.91 26.489-6.152 5.608-14.302 2.679-17.197-4.541-2.261-5.635-.009-11.824 1.33-17.456l10.491-44.1c1.724-7.192 3.608-14.43 7.328-20.891 3.811-6.617 9.398-11.414 15.099-16.322 10.795-9.294 20.705-19.934 29.086-31.454 8.378-11.516 15.538-24.21 20.559-37.558 2.514-6.682 4.574-13.624 5.995-20.622 1.351-6.641 1.339-13.519 2.784-20.089.099-.454.482-.765.921-.903-.104-.293.055-.689.465-.715l31.918-2.051c28.371-1.83 56.742-3.707 85.088-5.852l5.009-.362c-.389-40.245-.059-80.498.668-120.758.666-36.919.68-73.848 1.778-110.762.546-18.321 1.723-36.599 3.033-54.882 1.34-18.698 3.485-37.238 5.413-55.88ZM191.527 380.498c-.34-2.05 2.239-3.32 3.428-1.445 13.591 21.422 20.144 44.691 22.906 69.76 2.44 22.125 1.721 44.569.506 66.752-1.296 23.66-2.808 47.314-4.337 70.961l-2.349 36.263-5.895 90.909c-.422 6.503-1.898 12.416-7.497 15.439a13.444 13.444 0 0 1-2.309 1.583c-3.025 1.617-7.037.8-8.786-2.304l.701.462c.611.384-.075-.153-2.058-1.61l-1.683-2.178c-1.223-1.838-2.004-3.645-2.318-5.83-.488-3.395.144-7.119.366-10.531l3.864-59.612c3.005-46.343 6.514-92.673 9.159-139.04 1.232-21.61 2.095-43.241 1.511-64.889-.582-21.528-1.679-43.421-5.209-64.69ZM309.101-18.557l.754-.127c26.995-4.484 56.349-3.645 81.02 9.368.204.107.111.446-.118.436l-7.941-.317c-25.139-.984-50.2-1.567-74.918 4.34l-2.53.609C296.466-2.077 287.17.582 280.02 6.46c-6.834 5.62-10.237 14.29-13.509 22.27l-.438 1.053c-3.319 7.883-7.521 15.358-14.798 20.287-9.425 6.383-20.76 5.601-31.567 6.468-19.028 1.53-34.585 15.32-42.325 32.194-4.687 10.218-6.686 21.674-7.082 32.848-.203 5.689-.232 11.6.526 17.251.242 1.807 2.476 8.39 3.615 8.232 2.531-.351 4.845.969 5.634 2.992a416.934 416.934 0 0 1 19.323-17.561c16.549-14.093 34.374-26.866 53.146-37.842 14.327-8.378 29.439-16.678 45.088-22.953a7.432 7.432 0 0 0-3.646.835c-.518.271-1.033-.379-.624-.809 4.929-5.186 10.833-5.924 16.785-4.54 1.27-.405 2.541-.796 3.817-1.167.635-.185.951.69.433 1.028l-1.462.934c6.493 2.175 12.868 6.45 17.915 9.824 14.498 9.69 27.259 21.534 40.195 33.157l2.352 2.107c11.387 10.167 23.063 20.047 36 28.203 6.772 4.269 13.885 8.218 21.346 11.155 6.399 2.521 16.818 4.108 19.815 10.871 2.664 3.236 1.551 7.366-1.569 9.544-5.262 5.791-15.788 2.05-22.058-.362-7.559-2.908-14.882-6.403-21.866-10.502-13.559-7.96-26.061-17.857-37.707-28.385-12.163-10.996-23.636-22.677-35.466-34.018-5.126-4.914-10.133-9.943-15.267-14.85l-2.578-2.442c-2.62-2.457-6.353-6.287-10.344-8.605-7.519 4.485-15.154 8.785-22.605 13.386-10.401 6.422-20.496 13.307-30.435 20.419-19.134 13.691-37.266 29.025-54.099 45.461-30.872 30.142-57.174 64.562-80.151 101.008l-1.745 2.778c-13.057 20.86-25.404 42.394-34.159 65.444-9.633 25.365-14.318 52.038-16.863 78.963-2.526 26.732-3.378 53.599-6.2 80.306-2.896 27.391-8.6 54.177-15.088 80.913l-1.547 6.339c-5.87 23.944-11.93 47.889-14.948 72.398-1.61 13.092-2.58 26.363-2.36 39.561.22 13.275 2.305 26.256 3.988 39.391.645 5.032-4.307 9.232-8.738 9.899-5.096.765-9.474-2.486-11.058-7.22-4.938-14.757-5.835-31.07-5.68-46.559.156-15.725 2.163-31.347 4.987-46.801 5.554-30.398 14.125-60.167 21.295-90.201 6.32-26.472 10.56-52.99 12.846-80.109 2.373-28.136 3.794-56.366 8.123-84.299 4.273-27.576 12.313-53.916 24.438-79.061 11.04-22.894 24.802-44.443 39.23-65.33 17.521-25.363 36.764-49.498 58.274-71.488-1.932-.084-3.916-.708-5.738-1.844-5.574-3.477-8.17-10.278-8.968-16.488-1.868-14.527-1.417-29.693 2.319-43.896 6.027-22.912 21.669-43.27 44.339-51.529 5.835-2.126 12.038-2.902 18.222-3.055 5.868-.146 12.277.62 17.939-1.24 9.012-2.963 12.875-13.577 16.259-21.623l.156-.37c4.339-10.253 9.547-19.04 18.945-25.443 10.027-6.831 22.589-9.938 34.419-11.944ZM565.599 21.99c8.112-2.814 18.254-.26 26.187 2.198 8.838 2.74 17.005 7.786 24.007 13.779 7.387 6.32 13.492 14.124 17.805 22.842l.412.84c3.939 8.087 8.426 19.189 6.44 28.073a9.147 9.147 0 0 1-.196.73c16.095 7.923 30.959 17.847 43.903 30.425 15.072 14.645 27.834 31.31 38.634 49.314 42.893 71.507 50.443 157.387 55.509 238.936l1.263 20.677c2.751 44.649 5.97 89.192 14.333 133.225l.61 3.179c8.938 46.102 21.734 92.557 20.438 139.851-.389 14.17-21.331 14.074-21.938 0-2.286-52.973-14.648-104.119-23.019-156.264-14.729-91.741-7.349-186.321-28.219-277.143-8.19-35.642-20.877-70.215-38.994-102.03-8.949-15.717-19.188-30.904-31.182-44.463-10.319-11.667-21.044-22.895-33.103-32.703-3.854 3.86-11.553 1.893-13.565-3.734-1.382-3.867-.979-8.388-1.866-12.44-.823-3.758-1.958-7.485-3.47-11.025-3.014-7.055-7.438-13.83-12.545-19.54-5.517-6.172-11.858-11.3-18.953-15.534-7.144-4.263-14.957-5.536-22.491-8.651-.254-.105-.278-.445 0-.542Zm31.516 490.295a.428.428 0 0 1 .721-.299c2.844 2.617 4.563 6.373 6.656 9.592a197.847 197.847 0 0 0 7.607 10.89c5.326 7.096 11.255 13.784 17.231 20.337a245.9 245.9 0 0 0 17.627 17.433c6.658 5.963 14.119 11.282 20.168 17.884 12.622 13.776 14.661 32.683 17.324 50.436l.292 1.921c1.624 10.536 3.079 21.1 4.391 31.679.638 5.146 1.274 10.297 1.794 15.456l.159 1.634c.463 5.051.588 10.175-2.312 14.588-3.105 4.721-10.164 6.376-14.361 1.849-7.211-7.777-5.859-21.591-6.797-31.596a985.59 985.59 0 0 0-2.638-24.787l-.501-4.124c-1.16-9.386-2.102-18.959-4.249-28.182-1.893-8.122-5.5-14.252-11.418-20.136-5.962-5.927-12.157-11.46-17.66-17.843-5.837-6.77-11.102-14.029-15.846-21.605-4.058-6.48-7.31-13.532-10.29-20.576l-.494-1.173c-2.88-6.869-7.629-15.811-7.404-23.378Zm104.112-295.045c.063-.958 1.479-.973 1.5 0 .179 8.24.351 16.48.522 24.721 1.376 66.402.528 132.961 7.19 199.135 3.142 31.201 8.928 61.943 15.623 92.557 3.426 15.665 7.02 31.293 10.435 46.96 3.328 15.269 6.897 30.612 9.537 46.023 2.594 15.147 4.918 30.41 5.961 45.751l.128 2.001c.449 7.431 2.592 18.361-1.5 24.948-4.434 7.136-12.923 7.264-17.674.452-4.461-6.395-3.352-17.771-4.14-25.4-.801-7.773-1.648-15.552-2.61-23.307-1.877-15.127-4.35-30.22-6.922-45.244-5.357-31.288-13.127-62.182-18.862-93.42-5.878-32.009-10.056-64.247-10.232-96.837-.175-32.867 3.304-65.67 5.06-98.465 1.784-33.308 3.812-66.591 5.984-99.875ZM387.547 10.707c1.783-6.002 8.075-9.755 14.213-8.07 5.625 1.547 10.269 8.373 8.07 14.215-2.4 6.373-6.594 11.808-10.13 17.601-3.266 5.353-8.03 9.569-11.357 14.826l3.666 3.953a430.47 430.47 0 0 0 5.534 5.858l6.394 6.623c4.981 5.148 9.992 10.268 15.145 15.238 15.152 14.615 30.544 28.75 47.513 41.266 3.863 2.848 7.756 5.68 11.758 8.332l1.492.988c2.746 1.798 5.809 3.565 9.126 3.261 8.059-.74 15.342-9.3 20.88-14.627l.29-.277c13.725-13.059 26.434-27.338 37.545-42.69a308.703 308.703 0 0 0 7.182-10.39c-5.372-6.274-4.089-18.523-4.385-26.133-.209-5.351-.225-10.703-.254-16.058l-.015-1.08c-.065-3.466-.221-6.79 2.028-9.643.131-.165.402-.16.569-.072 3.081 1.614 4.03 4.317 5.344 7.349l.138.314c1.6 3.64 3.132 7.313 4.682 10.973 1.623 3.831 3.111 7.72 4.619 11.598a224.502 224.502 0 0 1 2.027 5.436c.399 1.163.812 2.32 1.236 3.474l.1.09c.56.474 1.035.977 1.444 1.495 1.719.86 3.085 2.426 3.726 4.728 1.395 5.011-1.492 9.097-4.067 13.075-10.46 16.16-22.384 31.559-35.638 45.528a303.62 303.62 0 0 1-20.719 19.855l-1.261 1.091c-6.476 5.566-13.508 10.838-22.158 12.141-10.123 1.523-18.361-3.512-26.11-9.31l-.773-.582c-7.346-5.561-14.544-11.317-21.518-17.338-14.219-12.276-27.746-25.458-39.751-39.919-11.678-14.066-23.221-29.793-30.419-46.718-.439-1.031.715-2.11 1.619-1.25 3.516 3.348 6.899 6.877 10.242 10.45.093-5.26-.878-10.566-.338-15.86.659-6.436.469-13.544 2.311-19.74Z"/></g></svg>