<svg xmlns="http://www.w3.org/2000/svg" width="818" height="733" fill="none" viewBox="0 0 818 733"><g id="body/jacket"><path id="✋ Skin" fill="#D08B5B" fill-rule="evenodd" d="M405.834-33.286c21.926-15.291 93.109-3.77 122.454 0 15.417 1.981 24.519 21.984 32.617 52.396 42.252-10.358 97.7-20.169 137.531 7.907 12.302 10.711 14.603 28.965.412 39.151-4.624 3.117-13.535 5.765-14.945 8.467-5.708 14.524-12.075 33.721-11.062 49.171 18.139 162.2 54.502 324.842 80.079 486.006l.678 6.101c2.998 27.419 5.425 59.771-13.204 81.601-12.524 10.616-30.339 9.153-45.645 12.214-144.287 19.33-289.977.852-434.85 6.747-24.687 1.391-49.505 3.187-74.251 3.371l-.011-.287c2.668-.019 5.336-.057 8.007-.112-2.736-80.576-8.381-161.04-10.203-241.652-.575-25.408-.743-50.825-.241-76.236.102-5.149-7.898-5.149-8 0-.167 8.432-.241 16.862-.276 25.293-5.992-4.699-12.655-8.425-19.049-12.618-4.318-2.832-8.33 4.092-4.038 6.907 7.584 4.974 15.656 9.148 22.231 15.503.266.258.544.455.827.621.147 80.99 5.692 161.922 9.213 242.806.521 11.97.994 23.94 1.409 35.914l.13 3.861c-26.788.199-53.49-1.492-79.848-7.633-4.453 6.205-14.825 7.437-20.098-.574-2.638-3.024-3.169-8.167-7.252-9.319-1.098-.859.597-1.469 1.373-1.064-36.059-103.325-3.153-295.874 25.92-401.729 12.719-54.578 43.291-105.106 46.474-161.605.335-26.629-18.761-58.708 5.45-80.102-3.571-19.558 14.919-35.856 33.587-37.145C214.23-62.288 315.933 34.47 371 35.448c7.551-12.557 24.344-61.418 34.834-68.734Zm309.589 543.133c-.005-5.147-8.005-5.156-8 0 .054 54.747 4.757 120.29 11.52 174.584.628 5.041 8.636 5.104 8 0-6.763-54.294-11.466-119.837-11.52-174.584Zm-375.229 70.27c4.541-2.432.505-9.34-4.037-6.909-33.341 17.856-64.498 39.195-94.464 62.209-4.027 3.092-.047 10.045 4.038 6.908 29.966-23.015 61.122-44.353 94.463-62.208Zm289.324-10.219c-3.153-3.786-9.907.147-6.797 4.176 7.24 9.378 16.236 16.766 26.779 22.17 4.519 2.317 8.529-4.392 4.198-6.821l-.16-.086c-8.998-4.613-17.111-10.724-23.415-18.67l-.605-.769ZM229.137 335.806c1.117-5.016-6.594-7.157-7.714-2.126-2.355 10.574-.643 21.822 1.805 32.299l.165.697.334 1.387c.44 1.802 2.124 2.807 3.857 2.936 29.428 2.178 58.533-7.822 86.746-15.199l2.088-.541 2.085-.531c4.989-1.256 2.876-8.974-2.127-7.714l-2.228.568c-27.123 6.987-55.057 16.84-83.361 15.601l-.297-1.303c-1.856-8.284-3.169-17.147-1.492-25.422l.139-.652Zm451.726-19.494c.038-5.15-7.961-5.154-8 0l-.01 1.01c-.095 8.116-.762 19.645-8.717 23.947-7.075 3.826-16.469.953-23.963-1.973l-1.522-.604-2.197-.894c-4.761-1.949-6.835 5.787-2.126 7.714l1.177.476c10.19 4.073 23.28 7.949 33.338 1.798 9.834-6.016 11.728-18.764 11.989-29.472l.017-.819.014-1.183Z" clip-rule="evenodd"/><path id="🧥 Jacket" fill="#fff" fill-rule="evenodd" d="m658.646 7.787.82.15 22.636 4.21-22.959 1.73a105.705 105.705 0 0 0-9.7 1.21l-1.379.249.591-.03c8.386-.39 16.78.294 25.055 2.032 8.161 1.711 15.404 4.04 21.884 7.209l.774.384.999.513.481.23.382.177c1.775.819 2.496 1.241 3.247 2.259 1.488 2.016.853 4.293-1.064 6.022-1.439 1.297-3.294 1.939-5.729 2.307-.36.054-.727.102-1.126.147l-2.153.212c-4.014.418-6.662 2.591-7.062 5.961-.394 3.302 1.542 6.65 4.319 7.473l.204.056.259.06c.359.08.678.169.986.28l.229.09.501.204.023.004.017.012.477.196.126.242.074.058c.284.23.402.394.589.748l.162.315.132.457.037.148.023.122.004.036.131.835.035.284.012.185.001 12.828-3.289-6.58-.113.094c-1.594 1.282-3.637 2.335-6.237 3.361l-.527.205-1.371.506-2.707.968-.624.23-.555.215c-.438.172-.814.332-1.156.49a7.433 7.433 0 0 0-1.369.802l-.23.182-1.303 1.077-3.21-1.119a108 108 0 0 1-1.047-.375l-3.114-1.158-2.664-.982a407.604 407.604 0 0 0-9.595-3.384l-3.672-1.223-2.678-.874c-.93-.3-1.913-.615-2.995-.96l-15.135-4.782-2.915-.934a523.365 523.365 0 0 1-4.631-1.52l-2.827-.95-2.739-.942c-8.915-3.098-17.441-6.412-32.628-12.546l3.294 1.878 2.447 1.382c2.932 1.65 6.145 3.44 9.738 5.429l16.341 9.028 3.272 1.829 7.32 4.115 3.867 2.157c6.925 3.843 11.841 6.443 17.079 8.997a269.286 269.286 0 0 0 12.549 5.726l1.634.692 2.505 1.043 1.976.858 1.337.586.882.376c4.729 1.98 7.501 2.492 10.582 1.688l.217-.062.211-.074 6-2.301-2.089 6.077c-.238.693-.474 1.394-.708 2.101l-.42 1.29-.343.675a423.498 423.498 0 0 0-5.993 12.426l-1.071 2.326-.619.459a2.123 2.123 0 0 0-.606.747 215.463 215.463 0 0 0-2.31 4.646l-.782 1.642-.808 1.739c-3.534 7.603-6.74 15.409-10.899 26.298l-5.478 14.517-.819 2.165a1408.106 1408.106 0 0 0-19.02 53.367 1428.753 1428.753 0 0 0-31.184 106.975c-18.101 72.537-30.18 146.166-36.1 220.273a941.652 941.652 0 0 0-2.416 41.723l-.12 3.597-.384 3.182c-.298 2.51-.578 4.947-.842 7.33l-.156 1.424c-1.925 17.642-2.85 31.522-2.753 44.812.049 6.594.249 12.738.624 18.655l.089 1.362 1.488 21.761-7.307-20.551a187.104 187.104 0 0 1-1.581-4.654l-.711-2.199-.343-1.103a107.444 107.444 0 0 1-.969-3.427l-1.292-4.889-.321-1.174a72.784 72.784 0 0 0-.937-3.139l-.387-1.16-.284-.811c-.519-1.451-1.131-2.999-2.095-5.343l-1.486-3.606-.298-.734v-.585l.049-1.939c.103-4.629.078-9.502-.058-14.969l-.124-4.284-.131-3.672-.046-1.17-.687-16.515-1.324-36.673-.207-6.193c-.148-4.608-.27-8.776-.373-12.842l-.089-3.715-.029-1.262c-.807-36.387-.505-73.819.838-112.751l.133-3.772.136-3.715c2.256-60.478 6.156-111.955 15.408-213.297l1.537-16.768 2.304-24.817.53-5.824c1.07-11.862 1.838-21.11 2.488-30.17l.282-4.037c1.089-16.01 1.749-32.634 2.07-50.892l.053-3.283-1.443 5.015-1.248-16.681c-.378-5.05-1.016-9.719-1.957-14.069l-.206-.927-.405-1.772-.317-1.175c-.536-1.987 2.826-11.124 2.826-11.124l1.904-.456 2.304-.542c36.693-8.566 65.276-11.377 91.554-6.656Zm-361.7-14.848 1.106.305.7.198c5.613 1.613 11.573 3.896 18.449 6.946l1.968.883c.879.396 5.958 2.405 7.977 3.266l.345.149c7.455 3.274 11.9 6.713 12.88 11.774l.061.344c2.175 2.085 4.696 4.09 7.565 6.013l.725.479.686.442a149.552 149.552 0 0 0 8.754 5.19l.745.401.515.272 4.949 1.7 6.119 2.122 1.227.42c6.378 2.171 10.14 3.312 14.646 4.418l2.527.618c9.587 2.326 18.08 4.138 26.265 5.558 8.334 1.44 16.89 2.701 25.736 3.806l2.988.365c2.946.348 5.832.61 10.332.962l7.276.563 4.918.4-2.618 4.182c-6.858 10.96-12.15 23.171-18.07 40.44l-.661 1.94c-5.371 15.869-9.149 30.169-15.652 57.609a1541.516 1541.516 0 0 0-24.303 125.925 1569.822 1569.822 0 0 0-10.619 87.148l-.38 4.137-5.976-.007a830.475 830.475 0 0 0-2.939-27.697c-3.694-30.009-9.012-59.475-15.96-88.227l-.656-2.694-.285-1.16.591-1.039c.355-.624.495-1.325.395-1.939-.729-4.532-2.061-8.668-4.605-14.91l-2.594-6.267-.581-1.438-.043-.15a722.512 722.512 0 0 0-8.794-28.611l-1.045-3.137-.045-.146c-4.519-16.155-8.96-29.492-14.178-41.989a291.582 291.582 0 0 0-13.91-28.678l-.977-1.75-.089-.171c-6.558-13.635-13.535-26.526-20.943-38.607l-1.189-1.925-.109-.315a5.477 5.477 0 0 0-1.14-1.928l-.195-.202-.249-.244-.543-.853-4.337-1.085c-12.203-3.052-24.903-3.32-39.08-1.206l-.947.145-.952.151c-10.409 1.691-19.351 3.997-35.595 8.933l-15.979 4.893-2.273.678-2.149.633c-7.788 2.268-14.609 3.981-21.232 5.268l-.902.172-2.451.46-1.212.22c-7.297 1.3-12.406 1.652-17.237.728l-.439-.088-.537-.12-.479-.12c-5.64-1.505-7.724-5.588-5.128-11.282 2.147-4.713 6.804-8.056 13.649-10.985l.993-.416.247-.101.26-.056c1.63-.35 3.19-.97 4.675-1.873 2.995-1.817 4.248-5.574 2.891-8.676-1.4-3.178-5.228-5.27-7.893-4.197l-2.012.799-2.201.867-1.356-1.938a4.01 4.01 0 0 1-.217-.342l-.103-.192-.066-.137-.166-.145-.165-.166a3.035 3.035 0 0 1-.747-1.435 3.288 3.288 0 0 1-.074-.532l-.006-.171c-.006-.356.02-.641.13-1.635.484-4.318 3.31-7.804 8.202-11.812l.79-.638.236-.187c9.363-7.42 21.237-11.236 31.326-8.894.494.112.978.237 1.472.382l.498.152.589.197c3.103 1.075 5.527-.246 6.656-3.198 1.138-2.974.373-6.256-2.034-8.028l-.217-.153-.735-.49-.858-.589-.95-.67-.436-.315-.629-.468c-4.832-3.653-7.486-7.064-6.71-11.1l.054-.257.069-.303.129-.283.408-.87.422-.867.119-.238.158-.214c1.663-2.24 4.449-3.94 8.439-5.589l.466-.19c1.666-.671 6.322-2.306 7.018-2.573l.052-.02c13.786-5.592 28.764-8.818 43.827-9.477 14.787-.644 29.602.955 43.632 4.752Z" clip-rule="evenodd"/><path id="👕 Top" fill="#E86BBB" d="m555.166 147.048-.179 1.359-.171 1.36c-4.9 39-9.03 88.079-12.63 127.21-7.18 78.01-11.58 156.34-10.97 234.699.159 20.264.892 40.465 1.827 60.696l.203 4.335c1.05 22.05 2.66 45.35 8.8 66.62.68 2.349 2.19 3.7 3.93 4.19.072 2.48.214 4.966.381 7.429l.129 1.841c.71 9.95 2.74 30.62 7.08 39.639 4.23 8.801 11.28 15.781 20.27 19.622a40.375 40.375 0 0 0 7.68 2.381c-54.589 1.117-126.288-.646-180.979-1.965 5.685-.893 8.907-5.389 9.659-11.118 1.5-11.5-1.32-23.389-7.7-33.059-.66-1-1.44-1.89-2.31-2.65l.152-6.362c.107-4.774.158-9.549-.112-14.318-.58-10.52-1.45-21.04-2.21-31.55-1.54-21.05-2.73-42.14-3.2-63.24-.96-42.2-.26-84.44 2.13-126.58 4.79-84.19 15.94-177.84 34.19-260.19 1.33-6 2.67-12 4.06-17.99 14.19 7.37 39.45 10.019 54.96 10.12 19.44.12 47.45-4.351 65.01-12.479Z"/><path id="🖍 Ink" fill="#000" fill-rule="evenodd" d="M718.804 684.719c-6.763-54.294-11.466-119.837-11.52-174.584-.005-5.156 7.995-5.147 8 0 .054 54.747 4.757 120.29 11.52 174.584.636 5.104-7.372 5.041-8 0m-50.101-336.645c-10.45 6.391-24.173 1.958-34.515-2.274-4.709-1.927-2.635-9.663 2.126-7.714 7.871 3.221 19.375 7.963 27.682 3.471 8.291-4.484 8.665-16.818 8.727-24.957.039-5.154 8.038-5.15 8 0-.084 11.073-1.565 25.078-12.02 31.474m-19.342 248.458c-10.543-5.404-19.539-12.792-26.779-22.17-3.147-4.077 3.806-8.056 6.908-4.038 6.372 8.254 14.674 14.567 23.909 19.301 4.588 2.352.535 9.252-4.038 6.907M598.684 317.33c-18.09 72.491-30.23 146.28-36.18 220.76a943.551 943.551 0 0 0-2.54 45.33c-.48 3.94-.94 7.89-1.37 11.84-1.63 14.939-2.88 30.12-2.77 45.16.05 6.75.26 13.47.72 20.199-.8-2.25-1.54-4.509-2.26-6.759-1.47-4.61-2.44-9.39-3.94-13.97-1.24-3.79-2.84-7.42-4.33-11.09v-.01c.45-15.03-.57-30.2-1.09-45.16-.67-19.38-1.5-38.74-1.93-58.13-.86-38.78-.43-77.59.97-116.349 2.81-78.101 9.91-155.83 17.07-233.611 1.99-21.63 4.13-43.25 5.61-64.921 1.49-21.899 2.09-43.839 2.26-65.798.01-1.58-2.39-2-2.83-.47-.39-5.21-1.08-10.41-2.23-15.44 17.25 11 35.44 20.51 53.27 30.51 9.39 5.27 18.74 10.63 28.42 15.35 5.32 2.598 10.69 4.99 16.17 7.25 5.68 2.34 11.11 5.56 17.36 3.928a6.978 6.978 0 0 0 1.54-.599c-.71 1.35-1.42 2.69-2.1 4.051a435.557 435.557 0 0 0-6.79 14.149c-.58.43-1.09 1.021-1.49 1.79a216.32 216.32 0 0 0-3.09 6.279l-.6-.569c-.84-.79-2 .399-1.26 1.26.34.389.67.77 1 1.16-6.52 14.03-11.82 28.78-17.28 43.181a1409.27 1409.27 0 0 0-19.06 53.479 1431.129 1431.129 0 0 0-31.25 107.2m-258.63 263.075c-33.341 17.855-64.497 39.193-94.463 62.208-4.085 3.137-8.065-3.816-4.038-6.908 29.966-23.014 61.123-44.353 94.464-62.209 4.542-2.431 8.578 4.477 4.037 6.909m-112.61-209.118c-1.733-.129-3.417-1.134-3.857-2.936-2.701-11.058-4.816-23.104-2.304-34.383 1.12-5.031 8.831-2.89 7.714 2.126-1.981 8.894-.407 18.508 1.65 27.377 29.079 1.273 57.768-9.162 85.589-16.169 5.003-1.26 7.116 6.458 2.127 7.714-29.512 7.432-60.038 18.557-90.919 16.271m578.9 294.963c.03-.07.06-.15.08-.22 1.71-5.18 1.751-11.2 1.941-16.629.33-9.661-.021-19.341-.891-28.971-1.84-20.27-5.8-40.21-10.53-59.981-9.37-39.159-22.61-77.259-29.8-116.949-14.11-77.91-10.76-159.03-38.45-234.179-11.51-31.241-27.95-61.271-50.29-86.091 1.63-4.96 3.22-9.93 4.77-14.92 2.71-8.68 5.48-17.64 7.15-26.58.04-.24.09-.49.12-.74 9.51-4.1 18.16-11.83 19.64-22.11.64-4.44-.099-9.36-2.019-13.65 3.92-3.62 6.439-8.32 5.839-14.62-1.12-11.86-14.97-14.91-24.61-17.23a97.8 97.8 0 0 0-33.539-2.12c-5.66.62-11.261 1.66-16.731 3.22-4.75 1.35-9.92 2.74-13.73 6-.45.38-.079 1.12.461 1.12 7.71-.029 15.39-2.86 23.18-3.23a96.315 96.315 0 0 1 24.299 1.97c7.82 1.64 15.62 4.04 22.73 7.75 2 1.05 4.93 1.76 2.58 3.88-1.72 1.55-5.1 1.681-7.31 1.91-4.89.51-9.109 3.37-9.729 8.59-.55 4.61 2.199 9.83 7.099 10.87.27.061.52.13.74.22.13.25.33.46.31.12 0 0 .01-.01.01 0 .12.73.16 1.02.16 1.07-.03-.06-.08-.31-.12-.51.03.18.091.47.171.9-.11-.47-.021.681-.111.86-2.6 4.8-10.289 6.151-14.769 8.22-.87.4-1.621.87-2.261 1.4-1.06-.37-2.139-.74-3.229-1.15-5.37-2.01-10.731-3.96-16.171-5.77-10.5-3.51-21.13-6.64-31.63-10.16-19.88-6.66-39.1-15.07-58.61-22.69-.62-2.3-1.34-4.55-2.19-6.74-.17-.459-.99-.61-1.08 0-.3 1.94-.54 3.89-.74 5.85-.08.18-.1.38-.06.57-1.13 11.4-.829 23.07-1.409 34.46-.72 14.2-2.73 28.3-3.3 42.51v.26c-2.1 12.13-4.001 24.3-5.721 36.51-1.93-.6-4.14-.48-6.4.73-15.98 8.53-33.94 13.28-52.01 14.34-9.1.529-18.11.231-27.16-.82-5.95-.68-11.81-1.92-17.68-3.1 3.09-12.95 6.41-25.84 10.16-38.599 3.09-10.491 6.53-20.93 10.78-31.02 4.29-10.19 9.63-19.92 14.6-29.8 2.29-4.57-.41-11.56-6.36-11.08-1.76.14-3.52.25-5.29.33-17.22.82-35.13-1.1-52.13-2.81-19.35-1.96-38.96-3.992-58.14-7.18-1.42-.23-1.999 1.7-.599 2.17 9.1 3.06 18.089 6.518 27.419 8.81 9.6 2.37 19.26 4.53 29 6.22 9.33 1.61 18.7 2.96 28.1 4.1 6.13.75 12.33 1.13 18.5 1.63-8.31 13.28-14.04 28.258-19.03 43.008-6.41 18.941-11.12 38.431-15.73 57.881-9.86 41.69-17.99 83.8-24.35 126.17-4.56 30.38-8.25 60.88-11.02 91.46a833.73 833.73 0 0 0-2.95-27.8c-3.78-30.711-9.3-61.22-16.68-91.27.66-1.16.97-2.55.75-3.9-1.33-8.26-4.83-15.45-7.9-23.11-3.05-10.7-6.34-21.33-9.88-31.88-4.02-14.37-8.53-28.52-14.3-42.34a295.042 295.042 0 0 0-15.04-30.74c-6.69-13.91-14.039-27.519-22.109-40.53a8.453 8.453 0 0 0-2.071-3.29c-1.47-2.32-2.96-4.61-4.48-6.88-.99-1.48-3.83-.58-3.08 1.3.35.881.7 1.76 1.06 2.631-32.87-8.22-65.1 4.35-96.41 13.63-7.9 2.35-15.88 4.47-23.98 6-6.37 1.2-13.79 2.66-20.14 1.338-4.25-.879-6.13-2.809-4.06-7.349 2.14-4.699 7.98-7.79 13.05-9.869a18.037 18.037 0 0 0 5.6-2.24c4.22-2.56 6.07-7.9 4.08-12.45-1.81-4.11-7.09-7.65-11.76-5.77-.67.27-1.33.53-1.99.79-.07-.1-.15-.24-.22-.44-.67-1.83-.96.36-.67-2.26.48-4.28 5.01-8.17 8.11-10.62 7.71-6.11 18.85-10.63 28.8-8.32.75.17 1.5.38 2.24.64 10.25 3.55 15.24-11.21 7.05-16.71-.5-.33-1.13-.75-1.82-1.24-3.41-2.37-8.4-6.36-7.04-9.96 1.68-4.47 11.59-7.04 15.34-8.56 13.56-5.5 28.21-8.62 42.83-9.26 14.71-.64 29.61.98 43.8 4.948 6.96 1.941 14.11 4.891 20.69 7.872 5.91 2.67 18.77 6.2 19.59 13.68.18 1.65 2.53 2.21 3.04.41 4.03-14.36-11.61-23.63-21.93-29.56-6.77-3.902-14.449-6.33-21.879-8.72-7.12-2.3-14.39-3.99-21.81-5.012-15.93-2.179-32.051-1.899-47.851 1.161-14.39 2.791-30.4 7.55-42.03 16.81-7.14 5.68-10.37 14.72-7.5 23.54.1.29.2.59.3.88-12.85 2.3-25.01 9.66-33.14 19.92-6.68 8.43-10.18 20.16-4.2 29.971-.25.18-.5.37-.74.57-5.7 4.56-9.94 11.18-11.2 18.42-2.47 14.279 6.16 24.269 18.23 28.089-2.99 2.921-5.86 6.02-8.67 9.12-6.29 6.95-12.3 14.519-17.6 22.24-10.74 15.64-19.92 32.67-27.95 49.83-16.51 35.24-26.92 73.17-32.44 111.63-2.78 19.38-4.64 38.86-5.35 58.42-.82 22.3.01 44.61-.42 66.92-.42 21.44-2.79 42.36-7.58 63.261-4.59 19.989-10.71 39.579-16.25 59.309-6.25 22.22-13.13 44.34-16.43 67.25-1.67 11.659-2.87 23.35-1.94 35.14.94 12.01 5.3 22.28 9.32 33.45 1.02 2.851 4.13 4 6.62 3.39.56 5.35 2.58 10.57 5.59 15.09 6.39 9.58 16.23 15.69 27.5 17.91 12.7 2.49 25.79 1.9 38.65 1.44 13.95-.5 27.91-.95 41.86-1.53 14.605-.603 29.209-1.223 43.814-1.846a4001.516 4001.516 0 0 0-1.71-44.895c-3.521-80.884-9.066-161.816-9.213-242.806a4.268 4.268 0 0 1-.827-.621c-6.575-6.355-14.647-10.529-22.231-15.503-4.292-2.815-.28-9.739 4.038-6.907 6.394 4.193 13.057 7.919 19.049 12.618.035-8.431.109-16.861.276-25.293.102-5.149 8.102-5.149 8 0-.502 25.411-.334 50.828.241 76.236 1.861 82.338 7.711 164.523 10.375 246.829 39.2-1.675 78.402-3.362 117.608-4.793l95.67-3.479c6.69-.239 10.45-5.021 11.27-11.271 1.5-11.5-1.32-23.389-7.7-33.059-.66-1-1.44-1.89-2.31-2.65.15-6.89.43-13.791.04-20.68-.58-10.52-1.45-21.04-2.21-31.55-1.54-21.05-2.73-42.14-3.2-63.24-.96-42.2-.26-84.44 2.13-126.58 4.79-84.19 15.94-167.84 34.19-250.19 1.33-6 2.67-12 4.06-17.99 14.19 7.37 31.45 10.019 46.96 10.12 19.44.12 38.45-4.351 56.01-12.479-.12.909-.24 1.809-.35 2.719-4.9 39-9.03 78.079-12.63 117.21-7.18 78.01-11.58 156.34-10.97 234.699.17 21.711 1 43.351 2.03 65.031 1.05 22.05 2.66 45.35 8.8 66.62.68 2.349 2.191 3.7 3.931 4.19.09 3.1.289 6.21.509 9.27.71 9.95 2.74 30.62 7.08 39.639 4.23 8.801 11.281 15.781 20.271 19.622 11.42 4.869 23.769 3.469 35.829 2.689 52.44-3.42 104.84-8 157.25-12.02 7.3-.56 14.6-1.11 21.89-1.68 6.49-.5 13.2-.941 18.96-4.31 6.55-3.83 11.66-22.64 9.4-30.42-.41-1.42-1.03-2.82-1.85-4.08" clip-rule="evenodd"/></g></svg>