<svg xmlns="http://www.w3.org/2000/svg" width="818" height="733" fill="none" viewBox="0 0 818 733"><g id="body/jacket-polka-dots"><path id="✋ Skin" fill="#D08B5B" fill-rule="evenodd" d="M456.906-38.817c29.132 1.438 74.492 13.927 76.76 21.909 3.541 12.464-4.069 59.19 8.659 84.36 5.425 10.73 26.027 9.767 34.01 13.262 26.71 11.69 105.781 33.864 122.085 61.783 6.531 11.186 46.671 149.975 67.999 220.782 2.405 7.983 5.121 15.366 8.073 22.203l1.085-5.313c8.697-42.795 13.045-68.703 13.045-77.722 0-14.093-11.242-73.552 0-88.673 11.129-14.969 37.95-27.209 50.017-27.453l.361-.003c7.923 0 14.798-2.477 20.625-7.43l8.542-4.296c43.459-21.808 68.85-33.77 76.172-35.886 11.684-3.378 31.57 3.818 21.627 14.622-6.629 7.203-23.285 19.945-49.97 38.225l-10.062 7.995 1.216.635c13.003 6.846 20.649 12.608 22.938 17.286 2.358 4.822 1.227 10.526-3.396 17.112l.701.684c5.846 5.736 8.768 9.584 8.768 11.543v9.571c5.815 8.516 7.269 15.618 4.362 21.306-2.908 5.689-7.518 10.618-13.831 14.787-4.651 12.236-10.191 20.945-16.618 26.126-6.427 5.181-17.535 9.495-33.324 12.94L862.462 365.7l-11.577 47.994-5.834 53.553 1.694 1.227c7.851 5.718 12.88 9.957 12.88 14.337 0 6.824-31.677 167.302-80.961 174.485-10.658 1.553-65.935-6.066-84.085-20.83l.268 1.595c4.271 25.793 3.367 39.187-2.71 40.183-74.687 12.245-286.804 16.028-636.35 11.35-2.08-185.522 7.324-309.076 28.21-370.664 53.421-157.513 112.319-211.312 132.924-215.92 18.049-4.036 80.638-28.946 98.134-35.558 11.421-4.316 13.868-17.255 26.882-17.255l1.052.005c12.586.126 23.748 2.377 30.019-4.096 16.456-16.987 11.856-40.5 18.683-63.014 3.761-12.405 29.466-23.673 65.215-21.909Z" clip-rule="evenodd"/><path id="🧥 Jacket" fill="#BA98DE" d="m341.937 50.197 1.052.005c3.111.031 6.135.192 9.019.32l-6.077 20.706-.132 2.175c-3.946 71.394 31.015 105.57 104.882 102.53 73.868-3.04 110.61-26.404 110.228-70.092l-.023-1.33V77.324l1.163.222c5.607 1.05 11.01 1.733 14.286 3.168 26.71 11.69 105.781 33.864 122.085 61.783 6.531 11.186 46.671 149.975 67.999 220.782a217.63 217.63 0 0 0 2.434 7.575v13.994l-.232.848c-7.475 27.959 2.478 50.818 29.859 68.577 19.408 12.588 39.34 20.759 59.796 24.514.879 1.359 1.349 2.685 1.349 4.024 0 6.824-31.677 167.302-80.961 174.485-10.658 1.553-65.935-6.066-84.085-20.83l.268 1.595.25 1.533c3.983 24.79 2.996 37.674-2.96 38.65-74.687 12.245-286.804 16.028-636.35 11.35-2.08-185.522 7.324-309.076 28.21-370.664 53.421-157.513 112.319-211.312 132.924-215.92 18.049-4.036 80.638-28.947 98.134-35.558 11.421-4.316 13.868-17.255 26.882-17.255Z"/><path id="🖍 Ink" fill="#000" fill-rule="evenodd" d="M376.87 5.663c1.71-3.388 6.249-2.949 9.244-1.412 8.983 6.567-.416 19.296-2.901 27.31-6.392 15.544-17.494 30.735-32.82 38 1.27 15.452 2.709 30.87 3.24 46.37 19.595 24.305 52.632 33.176 81.959 39.998 46.061 12.738 98.045-13.36 113.591-58.889-17.693-10.053-23.419-36.375-18.14-54.739.459-1.29 2.459-1.86 3.17-.42 4.845 9.965 4.199 22.122 9.707 31.967 52.868 5.061 121.098 25.009 155.733 67.763 15.349 21.39 21.429 49.21 28.989 74 16.13 51.108 28.982 103.25 44.801 154.41l1.865-9.68c5.111-26.666 9.755-53.693 6.303-80.811l-.062-1.298c-1.127-21.577-7.88-61.675 8.854-76.243 15.137-11.567 37.065-20.862 56.06-15.53 33.803-15.042 62.979-40.372 98.98-50.238 11.08-2.28 27.02.42 24.401 15.451-7.258 26.289-37.653 36.493-58.431 50.049 13.319 3.609 29.556 19.806 19.15 33.93-.09.25-.17.44-.25.59 8.439 3.74 9.621 13.14 7.55 21.2-.21 2.13-.77.3.481 2.23 9.522 8.98 5.313 34.013-9.031 34.859.939 11.861-6.68 23.381-16.33 29.851-10.401 6.97-25.44 7.27-34.051 16.81-20.217 35.648-27.191 77.732-29.395 118.554 13.327 4.988 25.284 19.905 13.176 32.56-.239.028-.478.056-.72.076-7.019 18.731-9.729 38.698-13.441 58.26-5.711 33.379-20.594 64.026-39.599 91.832-21.978 36.807-81.077 30.972-110.85 7.218.119 6.232 1.146 12.427-.85 18.449-2.946 6.499-10.129 3.691-10.84-2.709-15.739 8.851-19.446-20.365-1.95-15.731-1.346-21.121-2.126-42.272-2.759-63.429-19.808 6.411-20.662-26.451-.401-19.88l-.024-9.085c-.149-69.662.621-139.562 9.814-208.675.85-5.17 2.29-10.17 3.13-15.31.09-.531.92-.38.923.129 1.423 96.76-4.901 193.727 1.697 290.521 5.493 1.674 7.683 7.977 11.75 11.649 9.029 8.336 21.325 12.395 33.349 13.809 33.67 4.721 48.207-5.562 63.201-34.828-6.763 4.519-15.901-3.461-11.779-10.614l.129-.216c4.281-7.579 16.37-3.037 14.839 5.45 15.075-24.14 22.965-51.361 28.792-78.98l.788-3.3c2.833-11.725 6.509-25.161 13.311-35.77-41.482-10.572-82.06-42.783-88.551-86.976-10.532 33.089-24.8 65.434-38.399 97.616-4.2 11.19-5.95 23.219-11.97 33.6-1.4 2.4-4.95 1.78-5.742-.751-5.414-24.206 10.992-47.23 19.51-69.02 6.956-12.315 26.922-68.552 39.301-68.688-13.91-60.968-32.463-121.48-50.132-181.689-17.085-81.298-51.902-96.975-125.66-122.572 13.304 67.796 74.044 133.421 41.723 204.53l-.786 1.844c-3.306 7.841-6.052 15.741-3.744 24.346 2.24 8.35 7.34 15.6 11.421 23.11 22.808 42.421 7.108 91.963-1.711 136.14-11.14 51.807-22.145 103.662-33.66 155.39-2.27 10.319-3.741 20.95-7.17 30.95-1.77 5.16-10.6 4.67-10.029-1.35 1.089-11.68 4.369-23.07 6.771-34.54 14.338-74.26 33.739-147.645 46.075-222.23 7.935-55.212-23.304-63.696-22.138-99.37 4.246-18.245 15.485-34.527 14.84-53.97 2.498-59.516-40.854-108.617-46.206-166.501l-9.45-3.371a1308.85 1308.85 0 0 1-14.144-5.14c24.755 173.125 17.238 350.032 4.863 524.012-2.528 8.028-.123 90.107-10.722 85.13-.535 3.134-2.2 6.215-5.82 6.199-32.87.301-65.75.821-98.62 1.213-15.811-1.457-37.543 4.579-50.991-4.543-15.527-4.431-17.312-72.481-21.463-87.469l-1.618-10.9c-26.384-178.109-49.995-359.893-31.03-539.766-26.386 1.014-31.832 29.491-33.789 50.225-4.893 45.763-34.461 85.173-35.879 131.461-.12 11.23 2 22.109 6.489 32.42 11.91 25.262 32.508 54.467 17.113 82.681-18.207 21.964-16.631 27.745-9.95 54.888 18.797 89.732 50.013 175.997 79.708 262.513-6.452 33.627-45.26-91.209-48.911-100.622-17.179 8.638-26.563-20.028-6.859-22.07-12.656-42.362-24.303-85.041-34-128.19l-.257-1.216c-4.283-19.936-12.708-43.281 1.519-60.965 36.686-37.099-24.237-78.566-16.552-123.509-6.636 4.92-16.681-.256-16.53-8.52-.301-9.304 12.197-14.07 18.211-6.971 6.184-36.463 27.696-68.295 34.206-104.651l.294-1.708c2.206-12.849 2.828-26.369 9.139-38.08-8.591 5.58-17.74 10.09-27.15 14.07 16.825 14.053-15.756 26.879-13.06 5.17-92.268 26.694-113.123 63.92-147 149.41 6.328-6.148 17.168 1.808 13.38 9.649-3.022 8.26-16.205 5.845-16.2-2.959l-1.544 3.682c-20.543 49.119-39.24 99.431-48.636 151.998 18.432-2.602 13.74 26.855-2.96 18.55-6.703 46.75-6.809 94.162-5.99 141.289 15.547-8.152 16.015 19.55.15 11.651.58 38.62 1.43 77.24 2.07 115.86.13 8.22-12.55 8.18-12.75 0-1.48-59.341-4.18-118.79-2.897-178.149-1.207-103.026 28.411-202.326 72.541-294.616 39.047-106.265 92.983-118.35 192.216-149.246 9.16-13.597 28.73-26.457 44.697-17.919 8.933-14.42 13.47-31.504 20.08-46.868ZM206.853 376.021c.37-1.31 2.24-.981 2.3.31.83 16.67.09 33.449-1.05 50.19-.691 10.22-1.54 20.429-2.26 30.58-1.91 26.78-3.45 53.59-4.62 80.42.41-.17.83-.321 1.27-.44a11.315 11.315 0 0 1 6.06 0 11.232 11.232 0 0 1 4.733 2.652l.287.278a8.54 8.54 0 0 1 2.36 3.66 8.554 8.554 0 0 1 .986 4.03l-.007.36c-.009 2.059-.519 3.969-1.559 5.75a11.492 11.492 0 0 1-4.08 4.089 11.358 11.358 0 0 1-5.75 1.55c-.22.021-.441.041-.66.051a8.388 8.388 0 0 1-4.281-.95l-.199-.06c-.5 13.61-.91 27.23-1.21 40.85-.27 11.87-.63 23.74-.87 35.609l-.111 5.938-.218 13.123c-.071 5.397-.036 10.564-1.871 15.653l-.22.587c-1.32 3.399-2.349 8.13-5.881 10.02-2.819 1.509-6.619.95-8.239-1.991-1.36-2.459-.181-6 1.83-7.66-.04-.109-.1-.209-.15-.319-.31-.901-.781-1.75-1.06-2.66-.881-2.88-.64-5.95-.65-8.941 0-5.279.179-10.559.32-15.83.31-11.22.67-22.429 1.109-33.639 1.487-37.605 4.285-75.21 7.491-112.709l1.088-12.657c1.449-16.831 2.949-33.68 5.072-50.424.099-.8.2-1.6.31-2.401a11.193 11.193 0 0 1-3.041-2.239c-3.369-3.538-5.412-8.826-7.328-13.383l-.441-1.037c-2.08-4.86-4-9.78-4.99-15l-.094-.48c-.452-2.223-1.343-6.163 1.014-7.24 1.23-.56 2.009-.16 2.41 1.07.051.16.009.34-.08.48.97 1.489 2.49 2.88 3.45 4.26l3.286 4.698 1.624 2.361c2.06 3.031 4.26 5.931 6.53 8.791 1.789-12.56 3.98-25.07 7.39-37.3Zm134.74 279.89c4.11-3.221 10.8-1.471 10.8 4.47 0 5.969-6.7 7.69-10.8 4.469l-.204-.151-.196-.159c-2.232-1.744-2.307-6.285-.169-8.178l.169-.141c.129-.111.26-.21.4-.31Zm-178.69-11.601c1.86 0 3.59.47 5.2 1.411.7.53 1.39 1.069 2.09 1.61 1.28 1.279 2.16 2.8 2.65 4.55l.371 2.739c.049 1.42-.241 2.74-.891 3.971a7.798 7.798 0 0 1-2.13 3.32c-.94 1.01-2.04 1.72-3.319 2.129a7.63 7.63 0 0 1-3.618.899l-.353-.008c-1.869 0-3.6-.47-5.21-1.411-.7-.529-1.39-1.07-2.09-1.609a10.312 10.312 0 0 1-2.649-4.551c-.121-.91-.24-1.83-.371-2.74a7.865 7.865 0 0 1 .89-3.97 7.783 7.783 0 0 1 2.13-3.319c.941-1.01 2.04-1.721 3.32-2.131a7.678 7.678 0 0 1 3.627-.897l.353.007Zm467.76-19.02 2.621.351c2.51.57 4.529 2.42 5.879 4.53a7.319 7.319 0 0 1 1.17 3.66c.291 1.3.23 2.61-.18 3.92a7.377 7.377 0 0 1-1.76 3.35c-.299.47-.65.9-1.049 1.28-.821 1.37-2.06 2.269-3.341 3.19a7.029 7.029 0 0 1-3.51 1.12c-.83.22-1.67.22-2.51 0a7.028 7.028 0 0 1-3.5-1.12c-.639-.49-1.279-.99-1.91-1.48-.559-.65-1.08-1.32-1.57-2.02-.329-.77-.65-1.531-.969-2.291-.591-1.83-.301-3.449.02-5.279.049-.31.13-.59.24-.891l.216-.581c.575-1.519.883-2.035 1.903-3.358l.389-.52a6.69 6.69 0 0 1 .622-.74c.639-.66 1.55-1.211 2.269-1.78 1.54-.89 3.2-1.33 4.97-1.341Zm-339.18-6.399c1.45.01 2.811.37 4.07 1.1l1.64 1.27c1 1.01 1.69 2.189 2.08 3.561.09.718.191 1.439.29 2.149a6.106 6.106 0 0 1-.7 3.12c-.319 1-.88 1.859-1.67 2.6a6.16 6.16 0 0 1-2.6 1.67 6.046 6.046 0 0 1-2.809.696l-.301-.006c-1.46 0-2.82-.37-4.08-1.101l-1.64-1.259c-1-1.01-1.69-2.2-2.08-3.571-.09-.719-.19-1.429-.29-2.149-.04-1.11.19-2.149.7-3.11.33-1 .88-1.87 1.67-2.6a5.98 5.98 0 0 1 2.6-1.67 6.054 6.054 0 0 1 2.787-.704l.333.004Zm-66.33-3.31c2.089-.02 4.21.57 5.92 1.78 1.66 1.179 2.919 2.45 3.73 4.36.22.521.439 1.03.63 1.55.86 2.29 1.02 4.59-.17 6.83-1.15 2.17-3.63 3.12-5.851 3.769-1.879.561-4.009.651-5.879-.019-.93-.33-1.84-.68-2.68-1.19-1.57-.97-2.42-2.121-3.47-3.541a8.842 8.842 0 0 1-1.23-4.539c0-1.631.41-3.14 1.23-4.55 1.609-2.75 4.59-4.43 7.77-4.45Zm-106 1.93c2.641 0 4.96 1.22 6.551 3.279 1.609 2.091 2.199 4.691 1.489 7.282-.75 2.739-3.019 5.139-5.83 5.829-2.079.51-3.78.49-5.85.139-1.75-.299-3.089-1.34-4.43-2.42-1.53-1.25-2-3.529-1.75-5.369.24-1.84 1.091-3.04 2.381-4.131l.009-.029-.48.37c.181-.16.36-.33.541-.5.059-.1.109-.21.159-.32a8.32 8.32 0 0 1 2.99-2.99 8.252 8.252 0 0 1 4.22-1.14Zm615.59-30.29a8.27 8.27 0 0 1 4.36 0c1.071.25 2 .74 2.791 1.469a6.141 6.141 0 0 1 1.95 2.019l.159.282c1.141 1.94 1.32 4.159.83 6.319-.609 2.67-3.069 5.101-5.73 5.73l-.09.017-.089.024c-1.08.34-2.171.39-3.25.14a5.994 5.994 0 0 1-3.03-.97 9.714 9.714 0 0 1-2.93-2.92 6.067 6.067 0 0 1-.971-3.041 4.181 4.181 0 0 1 0-2.159 6.06 6.06 0 0 1 .971-3.04l1.279-1.651.131-.109a8.125 8.125 0 0 1 3.619-2.11Zm-100.68-52.92c13.11 0 13.09 20.34 0 20.34-13.109 0-13.09-20.34 0-20.34Zm-479.981-2.57a7.843 7.843 0 0 1 4.131.18c.83.35 1.65.7 2.47 1.039l2.1 1.622c.39.329.58.689.94 1.159l.45.589c.651.87.666 1.055 1.38 2.911.48 1.78.48 3.559 0 5.341a9.481 9.481 0 0 1-1.03 2.419 9.908 9.908 0 0 1-1.457 1.933l-.283.287a7.806 7.806 0 0 1-3.33 2.14 5.1 5.1 0 0 1-2.61.7c-1.38.31-2.761.25-4.13-.181-.83-.349-1.65-.699-2.471-1.039l-2.099-1.62-1.62-2.1-.516-1.232-.524-1.238-.37-2.75c-.05-1.43.24-2.75.889-3.99.25-.871.691-1.64 1.33-2.281a5.19 5.19 0 0 1 1.861-1.859 5.2 5.2 0 0 1 2.28-1.33c.81-.47 1.68-.7 2.609-.7Zm648.42-14.531a5.939 5.939 0 0 1 3.051.69c.33.111.651.25.96.411a7.987 7.987 0 0 1 2.88 2.87c.58.92.9 1.91.95 2.979a5.943 5.943 0 0 1-.064 2.902l-.086.289a7.77 7.77 0 0 1-.989 2.189c-.042.08-.091.16-.151.23a7.824 7.824 0 0 1-2.66 2.581 7.927 7.927 0 0 1-3.95 1.07c-2.83 0-5.27-1.53-6.76-3.881-.21-.33-.33-.75-.479-1.09-.131-.32-.341-.729-.452-1.099a8.123 8.123 0 0 1 0-4.26 6.013 6.013 0 0 1 1.431-2.721 6.099 6.099 0 0 1 2.25-2.059 7.985 7.985 0 0 1 3.71-1.092l.359-.009Zm-553.519-9.949a8.311 8.311 0 0 1 4.137-.087l.344.087c1.099.26 2.05.76 2.869 1.5.91.6 1.641 1.39 2.17 2.369a8.428 8.428 0 0 1 0 8.5 8.433 8.433 0 0 1-3.029 3.021l-1.1.53c-.92.58-1.9.89-2.961.939a3.99 3.99 0 0 1-2.119 0 3.928 3.928 0 0 1-2.01-.539 3.94 3.94 0 0 1-1.761-1.031 5.943 5.943 0 0 1-2.049-2.229l-.811-1.911-.279-2.12.279-2.109.441-1.04a8.345 8.345 0 0 1 2.169-3.72 8.43 8.43 0 0 1 3.71-2.16Zm495.92-16.87a8.289 8.289 0 0 1 4.36-.2c.979 0 1.899.25 2.75.75.93.259 1.729.719 2.41 1.4 1.189.769 2.12 1.789 2.81 3.059l1.099 2.611c.66 1.689.42 4.18.021 5.88a8.08 8.08 0 0 1-1.92 3.659 5.406 5.406 0 0 1-1.931 1.931 8.071 8.071 0 0 1-3.205 1.798l-.334.091-.12.03c-.021.01-.04.01-.06.01-.01.011-.031.011-.041.011a7.284 7.284 0 0 1-1.479.209 8.299 8.299 0 0 1-4.36-.199c-.86-.361-1.73-.731-2.6-1.1-.74-.56-1.471-1.131-2.21-1.701-.57-.739-1.14-1.48-1.71-2.209a8.033 8.033 0 0 1-1.29-4.061 5.468 5.468 0 0 1 0-2.9c0-.989.25-1.899.739-2.75a8.14 8.14 0 0 1 2.261-3.519c.739-.571 1.47-1.141 2.21-1.701.87-.37 1.74-.739 2.6-1.099Zm-637.8-35.8a8.496 8.496 0 0 1 4.53 0l2.029.85c1 .54 1.791 1.269 2.391 2.2a6.306 6.306 0 0 1 1.529 2.9c.591 1.52.521 3.93.051 5.48-.53 1.76-1.35 3.16-2.62 4.48-2.11 2.18-5.351 2.81-8.22 2.15-.791-.18-1.541-.53-2.221-.96-2.169-1.34-3.629-3.68-3.619-6.27 0-.28.02-.56.06-.839a6.502 6.502 0 0 1-.17-1.782l.3-2.259.019-.06a8.366 8.366 0 0 1 2.17-3.72 8.46 8.46 0 0 1 3.395-2.072l.326-.098h.05Zm754.59-224.549c-2.732-22.397-13.003-46.493-44.33-33.341l-2.327.872c-7.751 2.934-16.784 6.79-21.502 13.568-3.25 4.67-2.151 13.72-2.6 19.17-2.043 17.72-.947 35.415 1.181 53.06 2.747 41.359-5.949 84.211-23.262 121.8 17.327 28.035 40.516 54.184 72.149 65.869 1.338-31.875 7.579-63.165 14.221-94.269l.262-1.356c2.656-14.025 3.985-28.42 13.197-40.085 18.738-20.343 44.51-8.829 56.841-41.509-2.59-1.31-1.16-5.79 1.961-4.929 10.815 1.919 12.572-18.13 5.17-22.961-7.713-4.703.052-13.379-3.231-19.641-1.83-2.699-5.78-2.789-7.571-5.9-4.746-11.449 19.006-18.786-8.926-31.693-5.717-2.033-12.107-.772-17.873-.795-8.482.792-15.223 6.768-22.98 8.648 8.446 21.869-12.865 42.928-32.1 25.461-10.467 9.893-22.172 32.444 3.271 21.931 12.453-8.311 23.174-19.054 37.63-24.172l.306-.095c5.366-1.759 28.848-13.167 27.684-3.293-8.796 8.489-23.303 8.389-33.49 15.28-14.123 6.531-23.154 22.357-40.061 22.138-3.898 23.667 22.959 9.267 32.96 2.74l2.773-1.504c14.107-7.621 28.426-14.681 44.877-14.775 4.54-.03 4.52 6.97 0 7.03-21.44.134-38.89 13.535-56.85 23.499-1.768 13.815 18.463 7.767 26.14 5.729 8.049-1.131 20.976-9.837 28.021-5.238 2.755 7.079-9.37 6.552-13.591 8.7 19.272 9.256 2.387 15.085-2.78.86l-1.513.516c-12.905 4.336-44.198 13.263-40.476-8.596-4.723 2.09-10.482 3.34-15.701 2.18-13.015 19.25-33.776 11.801-3.6-1.32-6.8-3.163-9.071-15.375-2.539-19.92-23.753-1.45-6.118-26.371 3.713-34.676a58.648 58.648 0 0 1-2.665-2.864c-5.669 2.7-11.628 4.34-18 4.92-6.099.549-7.458-9.83-1.439-10.68 6.45-.91 12.391-2.63 18.07-5.871 8.608-3.717 11.546 12.255 20.161 12.821 4.699.93 7.878-3.19 8.819-7.309ZM661.714 436.121c2.08 0 3.929.871 5.439 2.25 1.51 1.38 2.16 3.451 2.25 5.43.04 1.06-.18 2.05-.66 2.97-.31.95-.84 1.77-1.59 2.471-1.4 1.389-3.47 2.25-5.439 2.25-2.08 0-3.93-.871-5.441-2.25-1.509-1.391-2.16-3.451-2.25-5.441-.04-1.05.181-2.04.66-2.96a5.716 5.716 0 0 1 1.371-2.259l.219-.211c1.401-1.4 3.47-2.25 5.441-2.25Zm63.026-47.426.333.005c1.76.011 3.391.45 4.91 1.33.66.51 1.32 1.01 1.971 1.521a9.71 9.71 0 0 1 2.5 4.3 9.65 9.65 0 0 1 0 5.169 6.73 6.73 0 0 1-1.11 2.781 9.744 9.744 0 0 1-3.441 3.429c-1.49.871-3.1 1.3-4.83 1.31a9.51 9.51 0 0 1-4.83-1.31c-1.44-.849-2.58-2-3.43-3.429-.59-.83-.96-1.79-1.12-2.781a9.65 9.65 0 0 1 0-5.169 9.67 9.67 0 0 1 2.246-4.035l.254-.265c.88-.95 1.92-1.62 3.13-2.011a7.3 7.3 0 0 1 3.417-.845Zm-480.998.535c.741-.2 1.471-.2 2.211 0 1.1.05 2.129.38 3.08.981.56.439 1.12.87 1.68 1.3l.489.586c1.043 1.271 1.07 1.488 1.87 3.424.331 1.08.381 2.16.141 3.24 0 .73-.19 1.41-.551 2.04a4.006 4.006 0 0 1-1.049 1.79 4.077 4.077 0 0 1-1.451 1.46 6.12 6.12 0 0 1-2.759 1.45l-2.151.289a26.976 26.976 0 0 0-.849-.109 6.148 6.148 0 0 1-.986-.11l-.325-.071-.295-.079a6.19 6.19 0 0 1-1.144-.46c-.7-.2-1.31-.55-1.831-1.07a6.251 6.251 0 0 1-2.139-2.33l-.14-.32c-.19-.341-.35-.69-.471-1.07a3.967 3.967 0 0 1-.519-1.93 5.801 5.801 0 0 1 .053-2.738l.087-.303.77-1.83c.4-.619.82-1.25 1.359-1.76a23.09 23.09 0 0 1 1.566-1.218l.274-.181a6.218 6.218 0 0 1 3.08-.981Zm-107.629-17.709c4.049 4.051 2.26 11.49-3.409 12.93l-.651.16c-5.48 1.39-10.42-3.56-9.03-9.039l.16-.641c1.44-5.67 8.88-7.46 12.93-3.41Zm673.44-42.84c-.04-.56.68-.759 1.04-.429 4.82 4.32 7.89 9.5 13.74 12.849 5.881 3.361 11.94 3.09 18.07 5.26 2.08.74 2.09 3.521 0 4.25-11.6 4.051-31.97-9.68-32.85-21.93Zm-545.05-.88a7.427 7.427 0 0 1 3.881-.17c.88 0 1.699.22 2.449.659.83.231 1.541.651 2.15 1.25a4.972 4.972 0 0 1 1.75 1.75 7.307 7.307 0 0 1 1.74 3.301l.34 2.59-.34 2.59c-.33.769-.66 1.55-.98 2.32l-.894 1.211c-.724.965-.84.976-2.596 2.279-1.119.709-2.329 1.1-3.619 1.15-.861.24-1.721.24-2.59 0-.87 0-1.691-.22-2.45-.66a4.93 4.93 0 0 1-2.151-1.25 7.396 7.396 0 0 1-2.5-2.73c-.33-.77-.659-1.551-.979-2.32l-.351-2.59.351-2.59.019-.08a9.66 9.66 0 0 1 2.46-4.221l1.941-1.5c.759-.489 1.549-.739 2.369-.989Zm466.81 1.94c2.769-.761 5.81.039 7.839 2.07a8.114 8.114 0 0 1 2.071 7.83c-.75 2.7-2.92 4.889-5.63 5.62-.81.219-1.63.34-2.46.3a7.777 7.777 0 0 1-3.9-1.06l-1.56-1.211a5.715 5.715 0 0 1-1.601-2.489c-.49-.92-.71-1.91-.67-2.98l-.009-.19c-.031-.38.019-.761.14-1.13 0-.391.06-.771.16-1.141.73-2.699 2.93-4.88 5.62-5.619Zm-597.16-27.079a4.84 4.84 0 0 1 2.49.559c.81.26 1.5.7 2.08 1.34.64.58 1.08 1.28 1.34 2.08.41.771.59 1.601.56 2.49 0 1.17-.3 2.26-.88 3.26-.34.441-.68.88-1.02 1.31-.8.81-1.75 1.36-2.85 1.67l-.64.22c-.94.34-1.86.36-2.84.231-1.03-.141-1.981-.421-2.82-1.061a5.355 5.355 0 0 1-1.95-1.95l-.55-1.3c-.12-.439-.17-1.099-.2-1.56 0-.07 0-.129-.01-.2 0-.39.12-1.339.219-1.73.221-.82.67-1.6 1.181-2.26a4.748 4.748 0 0 1 1.78-1.63l.066-.05.074-.05c.229-.16.47-.32.71-.491 1-.579 2.09-.878 3.26-.878Zm516.391-7.101c1.6 0 3.09.41 4.47 1.21.049.019.099.04.139.061a8.805 8.805 0 0 1 3.151 3.149 8.647 8.647 0 0 1 1.199 4.431 8.617 8.617 0 0 1-1.199 4.429 8.81 8.81 0 0 1-3.151 3.151c-.04.029-.09.048-.139.069a8.87 8.87 0 0 1-4.47 1.21 8.868 8.868 0 0 1-4.461-1.21 8.927 8.927 0 0 1-4.39-7.649 8.898 8.898 0 0 1 4.39-7.641 8.768 8.768 0 0 1 4.461-1.21Zm-415.283-11.564.273-.005a5.662 5.662 0 0 1 2.959.67c.95.309 1.78.84 2.481 1.59l1.46 1.219.423.343c.07.058.139.117.206.178a7.936 7.936 0 0 1 2.031 3.489c.12.771.219 1.53.3 2.3.219 2-.96 4.051-2.26 5.471a5.911 5.911 0 0 1-2.49 1.599c-.92.481-1.92.7-2.981.66-2.17-.189-4.229-.65-5.789-2.33-.181-.2-.351-.41-.53-.62l-1.25-1.44a7.638 7.638 0 0 1-1.97-3.39c-.101-.69-.19-1.37-.28-2.05-.091-2.05.909-3.97 2.25-5.429 1.238-1.353 3.338-2.179 5.167-2.255Zm-50.477-21.056c10.399 0 10.379 16.131 0 16.131-10.391 0-10.371-16.131 0-16.131Zm522.881-22.616.328.006c1.721.01 3.33.44 4.821 1.31l1.939 1.49a9.7 9.7 0 0 1 2.461 4.22c.109.849.22 1.7.34 2.54a7.214 7.214 0 0 1-.83 3.69 7.185 7.185 0 0 1-1.971 3.08c-.869.93-1.89 1.59-3.079 1.97-1.14.6-2.37.88-3.681.83a9.53 9.53 0 0 1-4.83-1.31c-.649-.5-1.289-1-1.939-1.49a9.578 9.578 0 0 1-2.34-3.85l-.11-.37-.35-2.55a7.19 7.19 0 0 1 .829-3.68c.381-1.19 1.041-2.21 1.971-3.08a7.168 7.168 0 0 1 3.08-1.97 7.164 7.164 0 0 1 3.361-.836Zm-46.842-30.194c.93-.031 1.79.159 2.601.58a5.087 5.087 0 0 1 2.159 1.389c1.291 1.031 2.08 3.09 2.08 4.76s-.789 3.731-2.08 4.76c-.84.83-1.83 1.41-2.97 1.73l-1.79.241c-1.74.08-3.51-.83-4.75-1.971-.25-.229-.49-.459-.74-.68-1.129-1.04-1.619-2.59-1.69-4.08a4.373 4.373 0 0 1 .5-2.219c.231-.72.63-1.331 1.19-1.861.25-.22.49-.449.74-.68 1.351-1.25 2.93-1.879 4.75-1.969Zm296.78-53.79c6.571-8.004 2.745-13.701-7.13-11.721-17.01 2.301-33.019 13.051-48 20.76-16.351 8.636-33.202 15.759-49.881 23.874 6.882 4.224 12 10.839 15.91 18.387 7.805-5.927 17.782-8.761 27.521-9.13 17.669-16.922 46.93-20.797 61.58-42.17Zm-776.319 26.571a10.58 10.58 0 0 1 5.016 1.263l.333.186 2.14 1.66a7.941 7.941 0 0 1 2.2 3.41c.66 1.26.96 2.63.91 4.09.05 1.46-.25 2.82-.91 4.08a7.889 7.889 0 0 1-2.2 3.41c-.59.77-1.35 1.37-2.26 1.811-.851.349-1.69.709-2.54 1.069-.95.3-2.05.34-3.08.39-1.87-.01-3.609-.48-5.231-1.42l-2.099-1.619a7.811 7.811 0 0 1-2.151-3.341 7.74 7.74 0 0 1-.896-3.645l.007-.355c0-.079 0-.17.011-.26.119-.94.25-1.88.378-2.819.331-1.381.961-2.591 1.901-3.611.24-.48.56-.87.971-1.19 1.319-1.32 2.878-2.22 4.679-2.731.94-.119 1.88-.25 2.821-.378Zm464.299-26.491c1.35 0 2.6.34 3.761 1.01.509.391 1.009.78 1.509 1.17a7.355 7.355 0 0 1 1.92 3.29l.271 1.979a5.682 5.682 0 0 1-.651 2.872 5.6 5.6 0 0 1-1.54 2.399 5.496 5.496 0 0 1-2.399 1.54c-.881.47-1.841.68-2.871.641-1.34 0-2.6-.341-3.76-1.021-.5-.38-1.01-.77-1.51-1.16a7.437 7.437 0 0 1-1.817-2.978l-.093-.312-.269-1.981a5.563 5.563 0 0 1 .639-2.869c.3-.929.821-1.73 1.54-2.4a5.6 5.6 0 0 1 2.401-1.54 5.53 5.53 0 0 1 2.565-.645l.304.005Zm-405.849-10.836.349.006c1.99.01 3.84.51 5.56 1.51.74.571 1.481 1.141 2.22 1.721a10.99 10.99 0 0 1 2.841 4.859l.389 2.92c.06 1.52-.26 2.93-.95 4.24-.439 1.371-1.2 2.55-2.28 3.55a8.15 8.15 0 0 1-3.54 2.271 8.236 8.236 0 0 1-4.24.949c-1.99 0-3.84-.5-5.56-1.5-.739-.57-1.479-1.149-2.229-1.72-1.361-1.38-2.301-3-2.831-4.86l-.39-2.93c-.06-1.51.26-2.929.95-4.24a8.201 8.201 0 0 1 2.271-3.539c1-1.08 2.179-1.841 3.549-2.281a8.278 8.278 0 0 1 3.891-.956Zm370.28-27.494a5.24 5.24 0 0 1 2.729 0c1.36.059 2.631.469 3.811 1.219l2.07 1.601c.029.029.06.06.09.1a10.12 10.12 0 0 1 2.599 4.46l.361 2.69a7.646 7.646 0 0 1-.87 3.89 7.623 7.623 0 0 1-1.851 3.026l-.329.323c-.931 1-2.021 1.71-3.291 2.12a5.027 5.027 0 0 1-2.59.701 7.697 7.697 0 0 1-4.09-.181c-.809-.35-1.63-.69-2.449-1.029l-.261-.151c-3.09-1.689-5-5.229-5-8.699 0-3.471 1.91-7.021 5-8.711.091-.039.17-.09.261-.14 1.18-.75 2.449-1.16 3.81-1.219Z" clip-rule="evenodd"/></g></svg>