<svg xmlns="http://www.w3.org/2000/svg" width="818" height="733" fill="none" viewBox="0 0 818 733"><g id="body/Killer" fill-rule="evenodd" clip-rule="evenodd"><path id="✋ Skin" fill="#D08B5B" d="M407.257-42.74c66.554-28.658 115.71-6.41 131.709 28.297 12.66 27.463 12.91 85.567 37.672 108.588 120.532 88.961 146.816 243.968 171.42 382.551 11.027 66.924 18.036 134.497 20.873 202.263.26 6.216-5.668 12.204-11.911 11.913-178.027-8.605-356.421-7.954-534.442-.258-10.505.076-21.155-.894-31.072-4.623-13.973 5.476-22.82-11.377-22.466-23.037-1.185-7.736-8.934-13.1-14.576-18.044-13.355-11.081-24.154-23.802-31.51-39.648-10.527-21.48-11.972-45.117-21.346-66.665-4.252-12.445-5.878-25.44-7.89-38.35-5.24-12.956-6.892-26.855-7.457-40.618-19.755-12.415-10.145-42.861-8.33-62.047 3.098-22.271 6.396-44.542 10.426-66.665C111.93 178.682 219.267 91.724 366.683 61.034c29.603-18.859 29.603-99.051 40.574-103.775Z"/><path id="🔪 Knife" fill="#FDEA6B" d="m495.468 192.888 1.077 1.269 1.093 1.263c7.693 8.803 16.26 16.833 25.002 24.657l2.501 2.231 2.408 2.133 12.266 10.834 5.47 4.787c10.96 9.55 22.029 18.983 32.993 28.515 28.811 25.04 57.57 50.12 86.17 75.4 15.09 13.33 30.141 26.719 45.11 40.21-3.38-.172-6.78.25-10.21.281-5.53.048-11.07-.281-16.549-1.011-1.927-.26-3.85-.569-5.765-.921l-1.434-.272-1.431-.287-.04-.27-.02-.07c-.072-.161-.298-.12-.396.016l-.03.056-.014.057-.01.101-1.428-.31c-6.181-1.373-12.273-3.155-18.263-5.16-17.86-5.99-35.219-13.71-52.03-22.19-32.7-16.48-63.47-36.71-91.71-60-15.429-12.73-30.17-26.441-44.59-40.3 1.071-3.01 2.071-6 3.14-8.79 2.435-6.35 4.789-12.746 7.11-19.148l1.388-3.842 1.55-4.311.333-.951 1.452-4.273c2.032-5.907 4.405-11.861 9.247-15.865 1.166-.96 2.408-1.814 3.682-2.631l.639-.406 1.289-.802ZM322.879 94.207c4.939-8.559 14.376-6.653 22.65-3.78l.292.102 1.155.414 1.148.424 3.465 1.31 1.562.6c8.276 3.254 16.118 7.407 24.14 11.205l1.607.755-1.752.769-1.172.522-1.173.53c-8.8 4.009-17.588 8.796-23.403 16.428-1.353-1.472-3.421-2.379-5.434-3.118l-.376-.137-1.727-.61-6.059-2.209-11.444-4.155-.213-.074c-1.938-.643-6.179-1.383-7.516-2.846-.664-.715-.692-1.637-.576-2.576l.026-.202.13-.802.097-.554.116-.585c.815-3.907 2.506-8.04 4.457-11.411Z"/><path id="🖍 Ink" fill="#000" d="m386.179 25.294.666-1.835c4.031-11.14 8.97-11.97 6.59-1.17l-.36 1.627c-2.061 9.24-4.527 18.79-9.579 26.873-8.71 13.94-31.531 19.11-46.75 24.069.049.35.049.702.009 1.032 9.3 1.42 18.85 5.899 26.64 10.92 7.13 4.609 13.57 9.779 18.37 16.649l23.481-10.2c7.75-3.36 15.559-7.36 23.979-8.71 11.87-1.9 30.17 4.46 28.771 19.431-.181 2.019-1.451 3.519-3.01 4.259a30.553 30.553 0 0 1 3.579-.09c7.94.27 19.16 7.3 15.011 16.57-1.061 2.389-4.12.82-4.361-1.18-1.57-13.149-15.16-10.059-24.589-7.91-8.531 1.94-16.96 4.32-25.21 7.229-8.821 3.111-17.351 7.071-25.221 12.161-8.119 5.259-15.709 11.64-15.209 22.14.019.22-.33.33-.431.119-4.19-8.939 3.97-18.369 10.601-23.519 9.599-7.449 20.84-12.81 32.199-16.99 5.841-2.145 11.862-3.833 17.906-5.329l1.395-.341c3.55-.86 7.229-1.85 10.929-2.45-1.367-.335-2.561-1.328-3.092-3.122l-.068-.249c-5.34-21.15-33.96-4.138-45.549.971-8.291 3.65-16.681 7.15-24.88 11.02l-1.057.503c-6.356 3.05-12.981 6.655-17.254 12.397-10.96 14.7-1.12 34.55 2.34 50.07.99 4.45 1.94 9.17 2 13.741.048 3.741-1.099 7.268-2.028 10.868l-.541 2.121c.479.011.969.511.809 1.02-3.889 12.7-10.47 24.741-16.88 36.321-6.54 11.819-13.27 23.58-20.49 34.989-25.68 40.58-55.08 78.89-87.33 114.46-15.46 17.051-32.18 32.96-47.27 50.349-7.02 8.091-13.589 16.571-19.07 25.811-2.96 4.99-5.62 10.17-7.86 15.54l-.442 1.063c-1.836 4.388-3.641 8.257-7.058 11.767-1.699 1.75-5.1 1.01-5.64-1.49-2.51-11.76 5.811-24.46 11.851-34.06 6.519-10.36 14.139-20.02 22.239-29.19 2.29-2.6 4.62-5.159 6.98-7.691-10.559 2.901-21.68 3.67-32.44 5.571-11.02 1.94-21.97 4.25-32.649 7.61a142.35 142.35 0 0 0-28.08 12.25c-4.281 2.45-8.47 5.14-12.39 8.15-.371.28-.731.58-1.091.871 6.4 16.08 11.32 32.759 16.46 49.25 3.509 11.273 6.939 22.576 10.347 33.887l7.653 25.453c5.521 18.349 10.12 38.309 19.851 55 4.2 7.199 9.879 13.708 16.379 18.929 3.151 2.54 6.581 4.47 10.14 6.34 2.24 1.18 4.22 2.71 6.3 4.109 1.369-1.562 3.446-2.529 5.995-2.12l.285.051c8.05 1.58 16.351-1.27 23.51-4.79 7.46-3.68 14.891-8 21.2-13.439 12.41-10.711 22.7-24.061 32.731-36.941 35.759-45.96 66.21-96.3 91.029-148.96 12.61-26.78 24.381-54.01 35.44-81.471 5.531-13.718 10.98-27.468 16.29-41.279l.701-1.847c4.757-12.672 8.922-26.429 16.569-37.603a.742.742 0 0 1 .23-.239c.02-.321.121-.621.281-.881 2.37-3.79 6.909-4.901 10.84-6.66 4.429-1.991 8.849-3.97 13.269-5.949 3.481-1.561 8.58-2.881 11.19-5.84 2.96-3.33 3.951-9.261 5.39-13.381 3.261-9.31 6.79-18.51 10.32-27.72 3.1-8.09 5.781-16.77 10.13-24.309 3.713-6.432 9.02-9.824 15.154-13.528l1.331-.804c2.564-1.562 5.298-3.434 6.315-6.359 1.66-4.78-2.03-9.351-5.95-11.63-8.71-5.051-19.14.779-26.779 5.231-7.681 4.479-15.17 9.859-23.381 13.33-.18.069-.31-.201-.18-.321 6.6-6.047 14.666-11.028 22.246-15.942l1.884-1.228c5.03-3.291 10.761-6.5 16.82-7.39-1.259-.42-.87-2.05.33-2.199 11.92-1.452 24.021.409 35.821-2.371 10.529-2.48 19.719-8.43 27.079-16.26 6.94-7.38 12.44-15.92 17.57-24.619 2.981-5.061 5.891-10.161 8.91-15.202.45-.76.901-1.6 1.361-2.5-5.401-1.25-10.901-5.27-14.571-8.39-5.7-4.84-9.86-11.38-12.759-18.2-6.8-16.01-6.261-34.32-1.17-50.7.309-1 1.79-1.05 2.08 0 3.909 14.03 4.259 29.242 10.399 42.62a47.568 47.568 0 0 0 10.11 14.28c2.14 2.07 4.3 3.81 6.92 5.25 2.81 1.55 5.81 2.06 8.04 4.52.13.14.25.28.36.43 1.307-.176 2.431.012 3.331.574l.189.127.04-.06c-4.03-2.75-8.08-5.47-12.37-7.87-1.139-.64-.309-2.17.83-1.97l2.822.499c9.431 1.68 19.039 3.59 27.648 7.78a202.45 202.45 0 0 1 27.37 16.131c17.14 11.979 32.74 26.13 46.39 41.96 25.18 29.21 42.98 64.33 53.99 101.15 13.76 46.01 19.08 94.34 24.891 141.869a2785.374 2785.374 0 0 1 7.483 68.366l.597 6.225c1.109 11.74 2.309 23.46 3.439 35.17 2 3.14 2.141 6.87.96 10.111.87 9.489 1.651 18.989 2.271 28.519 1.58 24.59 2.599 49.26 3.04 73.91.439 25-.471 49.96-.761 74.96-.119 10.521-16.06 10.48-16.31 0-.639-27.62-2.62-55.25-4.03-82.85-1.38-26.94-2.66-53.869-4.309-80.789a946.406 946.406 0 0 1-.451-7.691c-2.325.886-5.205 1.252-7.649 1.737l-.601.124a126.508 126.508 0 0 1-14.826 2.251l-1.617.137c-4.527.312-27.737.811-41.457-1.689 1.09 17.61 2.19 35.22 3.4 52.82 1.38 20.07 1.64 40.17 2.651 60.26.509 10.04 1.119 20.01 2.399 29.99.584 4.542 1.181 9.092 1.894 13.618l.367 2.262c.64 3.89 1.439 7.22-.211 10.69 1.44 4.45-.8 10.06-6.699 9.61-37.821-2.83-75.731-4.03-113.651-4.199-65.468-.311-130.897 2.311-196.336 4.111l-17.685.479c-61.297 1.677-122.896 3.468-183.908-3.311-.131 7.81-14.731 7.721-13.951-.99l.191-2.101c.879-9.478 2.018-19.295 4.959-28.419-2.44.07-4.89-.029-7.19-.79-3.269-1.069-6.41-3.01-9.25-4.93-6.32-4.26-11.66-9.51-16.269-15.57-9.051-11.89-15.061-25.979-19.811-40.05-5.051-14.997-9.672-30.166-13.989-45.387l-4.647-16.485c-5.898-20.966-11.69-42.25-15.204-63.768-.379.5-.9.93-1.589 1.24-18.801 8.4-34.881-8.83-38.061-26.25-1.872-10.273-1.433-20.788-1.276-31.187l.016-1.113c.16-11.979.21-23.96.821-35.93 2.019-40.02 11.349-78.799 25.859-116.08 13.67-35.091 30.19-70.46 51.471-101.63 10.109-14.8 21.769-29.02 35.819-40.27 14.82-11.85 31.481-20.861 48.931-28.2 17.83-7.5 36.319-13.43 54.83-19.03 20.42-6.18 41.08-11.49 62.09-15.22 1.529-.27 3.029.18 3.88 1.58a73.368 73.368 0 0 1 2.099 3.77c2.87-1.8 7.28-2.24 10.151-3.12 9.009-2.79 25.219-4.46 32.36-10.82 8.142-7.247 12.056-16.908 15.693-26.885ZM81.475 463.1c-1.269 1.16-2.54 2.32-3.849 3.41 1.709-.72 3.259-.24 4.399.82-.199-1.41-.38-2.82-.55-4.23Zm413.32-270.449c-1.94 1.199-3.86 2.399-5.61 3.839-6.286 5.199-8.411 13.687-11.031 21.089l-.168.471c-3.221 8.96-6.471 17.94-9.881 26.83-1.069 2.79-2.069 5.78-3.14 8.79 14.42 13.859 29.161 27.57 44.59 40.3 28.24 23.29 59.01 43.52 91.71 60 16.811 8.48 34.17 16.2 52.03 22.19 6.451 2.16 13.02 4.06 19.691 5.47l.01-.101c.029-.239.42-.349.46-.059l.04.27c2.859.59 5.74 1.09 8.63 1.48 5.479.73 11.019 1.059 16.549 1.011 3.43-.031 6.83-.452 10.21-.281-14.969-13.49-30.02-26.88-45.11-40.21-28.6-25.28-57.359-50.36-86.17-75.4-12.791-11.12-25.724-22.106-38.462-33.302l-12.267-10.834c-10.84-9.586-21.613-19.326-31.004-30.284l-1.077-1.269Zm-127.83 74.319c-.87-1.07.451-2.43 1.521-1.52 6.39 5.409 13.609 7.78 21.279 10.69 1.79.68 1.651 3.53-.469 3.5-8.911-.16-16.941-5.92-22.331-12.67Zm89.521-133.201.639-.255c9.01-3.533 20.699-5.29 27.791 2.906 5.14 5.95 6.449 17.21-.25 22.4-1.61 1.25-5.021.18-4-2.33 2.939-7.17 3.56-16.561-5.69-19.32-8.024-2.395-17.409 2.277-24.716 5.528l-2.09.922c-14.25 6.326-28.403 13.992-37.134 27.389-.23.34-.841.121-.69-.29 6.969-19.299 28.31-29.69 46.14-36.95Zm-105.57-41.33-3.464-1.31c-8.81-3.288-19.781-6.628-25.246 2.84-2.048 3.54-3.81 7.921-4.572 11.997l-.098.554c-.21 1.259-.481 2.61.42 3.58 1.389 1.52 5.909 2.259 7.729 2.92l11.445 4.155 5.715 2.085c2.6.95 5.96 1.9 7.88 3.99 6.72-8.82 17.41-13.84 27.5-18.25-9.09-4.23-17.899-9.02-27.309-12.56Z"/></g></svg>