<svg xmlns="http://www.w3.org/2000/svg" width="818" height="733" fill="none" viewBox="0 0 818 733"><g id="body/Macbook" fill-rule="evenodd" clip-rule="evenodd"><path id="✋ Skin" fill="#D08B5B" d="m996.082 209.472-42.838 4.204c-68.388 5.225-136.749 16.137-204.613 22.686-1.69-2.75-4.997-2.297-7.005-.386-6.772-.593-14.362-5.769-20.496-.385-.199-.028-.399-.061-.6-.08-10.922-20.963-18.471-43.322-25.799-65.711-4.676-13.765-10.969-27.09-22.597-36.332-19.844-13.775-65.311-41.708-88.613-40.534-.386-4.172-2.331-8.472-5.525-11.25 7.039-11.999-21.103-19.828-23.088-18.437 1.272-40.088-17.585-74.902-59.165-82.885-37.25-7.762-90.233-9.066-110.267 29.863-2.202-.248-24.713-.365-26.891-.121-3.387-4.29-40.576 36.353-25.334 50.502-136.272 60.282-213.757 53.089-251.475 222.558-5.1 15.92-5.47 33.341-10.855 48.906-19.157 44.731-34.694 92.362-38.561 141.034-9.34 2.393-10.414 18.86.404 21.242 4.132.911 7.588 2.155 10.601 4.514-2.355 39.886 7.291 131 13.37 130.719 12.393 39.443 67.675 50.575 106.812 36.714-6.747 12.693 0 20.674 0 27.456 140.827 5.328 294.807 2.259 435.595 9.566 18.009-.256 36.951 4.423 54.714 1.73 10.833-2.597 10.851-19.63-.137-21.736l48.013-10.428c-1.073-.405 19.791-14.283 35.56-40.216 14.677-29.01 4.688-64.028 11.339-95.584 51.944-4.248 104.747-6.064 156.123-14.861 7.005 20.959 37.329-4.107 46.968-14.19l-.036-.047c4.664-1.276 8.405-5.648 8.53-10.824 3.271-4.674 3.958-11.262.821-15.779 14.378-82.968 36.299-167.68 44.223-251.428 2.8-.62 5.44-1.848 7.67-3.74l-.18-.181c3.79-4.224 4.53-11.515-1.79-15.104-5.09-2.898-9.35-1.999-14.878-1.455Z"/><path id="👕 Top" fill="#FFCF77" d="m453 520 11 7 90 29 55 7 45-7v77l9 72c-4 7.333-42 7.333-114 0-45.898-4.675-213.644-6.943-251.836-7.941L295 697c-44.88-1.295-89.213-1.295-133 0v-27l125-62 112-63 54-25ZM389.229 3.932l8.266 6.172-18.047 29.65 87.913 71.111v56.799l27.832 26.324 15.909-26.324 22.417-29.812 15.931-48.324-5.424-31.836 10.908-1.028a117.6 117.6 0 0 1-.026 6.583c1.985-1.39 30.126 6.438 23.088 18.437 3.193 2.778 5.138 7.078 5.525 11.25 23.301-1.174 68.769 26.759 88.613 40.534 11.628 9.242 17.92 22.567 22.597 36.332l1.101 3.358 1.137 3.447 1.145 3.445c6.329 18.935 13.162 37.699 22.416 55.461.201.019.4.052.599.08 6.135-5.384 13.724-.208 20.496.385 1.961-1.866 5.162-2.342 6.885.199l.12.187-84.371 16.621-55.661 195.244-48.472-39.346-26.018 3.869-68.709 24.781-79.913 20.758-182.431 50.295h-23.231L44.639 475.939l-12.183-4.021c4.023-48.26 19.464-95.48 38.464-139.848 5.385-15.565 5.756-32.986 10.855-48.906 37.718-169.469 115.203-162.276 251.476-222.558-15.243-14.149 21.947-54.791 25.333-50.502l.214-.019.461-.024.595-.021c5.316-.155 23.646-.037 25.622.185a57.885 57.885 0 0 1 3.753-6.293Z"/><path id="💻 Computer" fill="#fff" d="m1009.57 215.4-2.52 14.005c-.59.196-1.2.361-1.82.498a826.593 826.593 0 0 1-2.76 25.072l-15.582 86.839c-2.688 15.364-5.239 30.76-7.771 46.161l-3.356 16.543-2.079 10.282c-4.486 22.266-8.845 44.46-12.67 66.531a10.876 10.876 0 0 1 1.351 2.679l-.294 1.244-.205.829-.209.82c-3.018 11.6-8.269 22.85-20.643 26.263-9.335 2.574-19.576 2.807-29.215 3.823l-1.068.116-168.659 18.967c-20.38 2.292-40.749 4.652-61.117 7.037l-17.657 2.071c-24.61 2.85-49.362 5.093-73.609 10.251a5.43 5.43 0 0 0-2.231 1.014c4.883-18.483 9.557-36.942 13.793-55.612 4.768-21.013 9.293-42.067 14.393-63.004 10.274-42.18 21.791-84.083 34.399-125.626a1949.276 1949.276 0 0 1 8.119-26.102l1.941-6.069 1.494-4.836c2.312-7.373 5.172-14.951 11.952-19.019 7.933-4.76 18.752-5.549 27.75-7.195l6.093-1.145A1958.409 1958.409 0 0 1 866.7 224.83c45.958-4.719 92.076-7.786 138.25-9.285l4.62-.145ZM590.95 504.943l.431.036-6.3 50.361c-1.007-.705-2.286-1.137-3.847-1.133-20.665.061-40.474-6.543-59.634-13.804l-2.918-1.112-8.134-3.127c-8.269-3.168-16.582-6.266-25.05-8.836l-3.424-1.033-1.74-.513c-6.411-1.872-13.155-3.573-19.824-3.997l-.909-.05 1.942-1.019c.284-.149.533-.316.754-.496 3.671.272 7.349.198 11.221-.5 7.282-1.311 14.363-3.844 20.865-7.371l2.904-1.574 1.188-.63.786-.407.781-.395c5.584-2.784 10.924-4.527 17.975-3.045 8.004 1.685 15.018 5.999 22.233 9.644l1.281.638.861.416.878.413.888.405c9.757 4.391 25.285 9.129 29.027-4.137 1.503-5.33.326-10.321-2.282-14.697 4.86-.42 13.542 5.31 20.047 5.963Zm242.878-165.927.117.604c1.38 7.427-2.08 14.533-7.316 19.712-4.295 4.248-11.896 6.609-14.049 12.72-1.226 3.477.078 6.774 2.596 9.073l-.58.287-.567.29-.553.292-.54.295-.525.297c-8.554 4.915-15.521 12.906-7.806 22.559 8.752 10.951 27.039 11.306 39.923 10.449l.868-.061c12.494-.936 27.293-5.133 34.067-16.669 3.107-5.292 2.765-11.692-1.566-16.221-2.613-2.732-7.274-5.538-11.548-5.87.187-2.408-.1-4.734-.947-6.697-1.832-4.243-6.707-7.1-11.409-7.203.381-9.009-6.835-17.903-12.149-25.105l-.542-.739-.527-.727c-2.438-3.392-7.654-1.491-6.947 2.714Zm7.129 9.589 4.841 18.134-.083.15c-1.705 3.238 2.765 6.913 5.416 4.193l.267-.288c3.147-3.25 7.977 1.119 8.037 4.577.086 4.87-3.084 8.634-6.86 11.122l-.265.171-.696.433c-3.099 2.048-.753 6.331 2.654 5.809 4.216-.645 7.671-3.989 9.801-8.164 2.276.652 4.866.573 7.263 1.914 6.04 3.378 2.567 9.288-1.367 12.86l-.159.143-.321.279c-7.216 6.154-17.041 8.292-26.302 8.75l-.534.024c-9.355.4-21.543.534-29.561-4.968-4.99-3.424-6.435-8.28-2.212-12.879 2.388-2.599 4.799-5.221 7.281-7.755 3.715 1.773 7.033 1.054 10.832-.624.487-.216.217-.961-.26-.961-2.096-.002-9.787-3.893-10.161-6.379-.345-2.301 3.909-4.24 5.978-5.352l.3-.165.26-.151a38.135 38.135 0 0 0 6.063-4.551c4.726-4.35 8.158-9.806 9.657-15.777l.131-.545Z"/><path id="🖍 Ink" fill="#000" d="M388.072 1.184c4.243-10.663 18.586-6.518 16.987 4.684-.957 6.71-4.632 13.797-7.933 19.678-2.688 4.787-5.754 9.459-9.911 13.047a406.574 406.574 0 0 0 22.957 19.872c8.594 6.891 17.631 13.243 26.972 19.081 8.191 5.12 16.752 9.656 24.473 15.498 7.179 5.431 13.719 11.963 17.047 20.49 3.545 9.08 2.004 18.458-.606 27.532l-.3 1.026c-2.667 8.99-7.284 19.827-.882 28.297 3.259 4.312 7.997 7.366 12.088 10.813a93.91 93.91 0 0 1 10.179 9.975c6.825 7.802 12.376 16.581 15.879 26.363l.313.889c3.003 8.659 5.197 19.267 1.14 27.769-1.164 2.437-4.918 1.645-5.57-.728-1.474-5.376-1.397-11.006-2.633-16.458-1.286-5.67-3.426-11.052-6.221-16.144-5.408-9.851-12.732-18.265-21.385-25.379l-2.59-2.106c-6.75-5.54-12.952-11.417-14.322-20.585-1.466-9.809 2.464-19.153 4.991-28.437 1.761-6.47 2.336-12.672.433-18.519-2.325 3.795-5.497 7.397-8.006 10.61-4.997 6.401-10.041 12.763-15.072 19.137-5.158 6.536-10.189 13.175-14.98 19.986a1137.161 1137.161 0 0 0-6.376 9.18c-1.589 2.306-3.805 4.61-5.537 6.962.421 1.258.389 2.708-.374 3.738-9.185 12.41-22.252-13.484-25.66-20.026-6.94-13.323-12.105-27.477-19.068-40.797-7.215-13.808-15.431-27.248-24.588-39.854-5.539-7.625-11.747-14.787-16.814-22.654-11.937 10.824-27.645 18.08-42.073 24.66-15.853 7.229-32.322 13.134-48.575 19.404l-4.801 1.865c-28.005 10.93-56.694 22.937-79.971 42.35-27.353 22.813-43.535 54.609-55.582 87.535-13.868 37.905-25.341 76.833-36.036 115.736a2094.217 2094.217 0 0 0-15.548 59.959c-4.302 17.672-7.868 35.52-12.848 53.01 10.1-.357 21.619 3.553 30.242 4.682 39.299 5.144 78.069 13.344 115.172 27.541 4.583 1.754 5.909 6.331 4.911 10.041 2.643-.746 5.284-1.502 7.927-2.244-2.896-4.437-1.514-12.369-1.286-17.287l.014-.338c.234-6.553.945-13.113 1.406-19.654.878-12.469 2.02-24.847 3.54-37.244l.388-3.1c1.722-13.488 2.995-27.055 4.874-40.52l.222-1.541c-.901-3.445-1.95-6.848-3.051-10.236-2.934-9.025-7.075-17.52-10.704-26.261-.428-1.029 1.038-1.62 1.723-1.003 6.146 5.529 11.028 12.543 14.95 19.879.068-.346.128-.693.199-1.039l.447-2.203c1.104-5.372 2.446-11.024 5.742-15.381.351-.463 1.045-.56 1.377 0 3.154 5.337 3.507 12.096 3.992 18.169.549 6.87.618 13.827.521 20.716-.189 13.463-1.138 26.964-1.894 40.405-.742 13.208-2.198 26.249-4.075 39.327l-.357 2.453c-.918 6.225-1.669 12.528-2.879 18.71l-.342 1.683c-.647 3.066-1.045 7.389-2.333 10.98a9176.8 9176.8 0 0 1 99.579-27.148c24.033-6.414 48.091-12.732 72.139-19.09 1.269-2.287 2.849-4.423 4.821-6.332 6.497-6.292 15.107-9.099 23.004-4.256.642.395.696 1.401 0 1.782a146.319 146.319 0 0 0-4.518 2.559l14.44-3.911c10.793-2.925 21.715-6.58 32.762-8.619 20.347-10.041 42.231-17.309 63.665-24.492l2.526-.854c10.974-3.742 22.326-7.931 33.665-10.005 8.301-1.518 18.045.314 21.383 8.818 4.226 2.785 8.202 6.058 12.039 9.277 2.774 2.326 5.433 4.799 8.137 7.207l.498.438c2.211 1.918 3.962 3.202 4.505 6.255.28 1.577-.722 3.709-2.667 3.5-5.951-.637-10.79-7.535-14.826-11.654-3.118-3.184-6.261-6.476-9.107-9.975-1.659.903-3.933.741-4.989-1.259-5.476-10.369-20.477-3.184-28.777-.725l-11.89 3.519a2742.736 2742.736 0 0 0-17.819 5.335c-16.304 4.951-32.528 10.492-48.98 15.039 1.472 1.618 1.269 4.496-1.527 5.591-12.878 5.053-27.006 7.666-40.385 11.133a8404.297 8404.297 0 0 0-25.328 6.612 20.705 20.705 0 0 0-2.926 8.083c-1.611 11.351 1.495 24.447 4.521 35.425l.456 1.638c2.487 8.826 6.146 19.646 13.761 25.219 1.859 1.359 4.226 2.305 6.612 2.519a49608.132 49608.132 0 0 1 44.728-23.003c2.763-1.419 5.316.502 5.936 2.786 5.259-.863 10.506-2.223 15.285-3.845 8.03-2.727 14.3-7.928 21.828-11.525 14.566-6.958 29.441 1.589 42.482 8.087l3.006 1.477c5.848 2.838 18.015 8.289 20.822.528 2.714-7.508-5.867-15.532-11.409-18.911-6.606-4.029-14.298-6.185-21.764-7.981a136.661 136.661 0 0 0-12.919-2.474c-4.924-.693-10.01-.589-14.751-2.186-2.356-.792-2.718-4.534 0-5.152 7.298-1.661 16.008.151 23.624 2.002l3.981.981c7.673 1.883 15.42 4.246 22.409 8.002 5.082 2.732 10.446 6.882 13.95 11.962 3.043-2.827 6.83-2.731 10.775-1.683l2.141.596c3.536.979 6.402 1.654 9.843.975.46-2.503.926-5.007 1.425-7.511 4.903-24.614 10.28-49.134 16.213-73.523 10.234-42.068 22.076-83.674 35.426-124.853l1.34-4.117c3.079-9.419 5.557-19.681 10.521-28.334 4.695-8.182 12.217-12.895 21.154-15.391 10.142-2.832 20.799-4.314 31.145-6.227 2.308-.426 4.622-.831 6.932-1.25-1.952-3.525-3.41-7.526-4.722-10.596l-.23-.532c-2.82-6.429-5.353-12.973-7.799-19.553l-1.829-4.946c-4.417-11.911-8.976-23.626-15.185-34.766-6.536-11.724-15.207-21.309-26.016-29.242-22.038-16.176-48.601-24.427-69.976-41.714-.876-.708.247-1.919 1.136-1.471 14.433 7.252 30.014 12.183 45.026 18.087l2.961 1.168c11.866 4.704 23.916 9.825 34.186 17.44 11.45 8.492 20.468 19.038 27.246 31.579 6.68 12.362 10.953 26.199 15.666 39.403l1.26 3.518c1.901 5.276 3.865 10.536 6.115 15.67 1.786 4.076 5.119 8.729 6.634 13.385 4.145-.719 8.289-1.44 12.438-2.133a1993.74 1993.74 0 0 1 271.807-26.399c3.57-.101 5.41 3.299 4.88 6.407-8.74 51.681-16.5 103.539-25.024 155.259a9492.262 9492.262 0 0 1-11.397 67.674c-1.967 11.422-4.241 22.8-6.104 34.239-1.504 9.238-2.596 18.548-5.178 27.572-2.316 8.091-5.87 15.893-11.707 22.066-6.292 6.654-15.074 9.875-23.914 11.397-22.441 3.862-45.459 5.439-68.082 8.012l-120.447 13.703c1.76 15.999 1.892 31.748 1.084 47.933l-.46 8.836c-.377 7.106-.826 14.224-1.847 21.257-1.28 8.823-5.316 16.294-11.261 22.884-5.459 6.052-12.091 11.216-18.542 16.164-6.696 5.138-13.615 10.097-21.488 13.274l-1.022.406c-6.907 2.696-19.864 6.872-29.304 5.346 1.234 6.183 3.622 12.831 1.505 18.949-.982 2.841-4.697 4.258-6.973 1.841-4.509-4.791-4.861-11.119-5.929-17.369a496.632 496.632 0 0 1-2.92-19.574c-1.646-12.651-2.927-25.418-3.318-38.176a465.119 465.119 0 0 1 .459-39.31c.363-6.721.813-13.438 1.666-20.116a403.26 403.26 0 0 1 1.161-8.539c.155-1.036.327-2.067.512-3.096l-10.811 1.22c-16.577 1.85-33.161 3.521-49.855 3.781-1.977.03-3.498-.87-4.492-2.181-1.059 1.725-2.903 2.959-5.544 2.949-23.313-.087-45.023-7.71-66.227-16.694-10.688-4.53-21.21-9.434-31.914-13.925-9.991-4.192-20.672-7.183-30.422-11.905l-25.62 13.438a11.093 11.093 0 0 1-.685 1.809c-1.668 3.405-4.957 5.252-8.316 6.643-3.224 1.338-6.563 1.754-9.816 1.416a38410.106 38410.106 0 0 1-58.313 30.503l-19.452 10.14c-38.756 20.179-77.359 40.689-116.359 60.394l-2.871 1.445c-13.471 6.755-27.936 13.602-42.885 18.711-.266 3.784-.098 7.464.219 11.469l.076.872c.446 4.733 1.402 10.664-2.395 14.033-1.975 1.752-5.503 1.759-6.846-.883-2.437-4.791-.249-12.344.523-17.549.274-1.851.608-3.754 1.102-5.6-17.138 5.102-34.795 7.576-52.235 4.711-16.98-2.787-30.131-13.484-40.733-26.568-11.19-13.807-19.14-29.898-23.406-47.147-4.855-19.628-5.172-39.898-5.058-60.003.12-21.409.913-42.924 3.517-64.189-2.853-.671-6.017-1.251-8.9-1.051-1.428 2.285-4.198 3.247-6.701 2.95-5.443 6.003 8.363 12.138 12.775 13.674 1.532.534 1.368 3.022-.4 2.947l-1.112-.053c-6.818-.363-13.86-1.527-17.87-7.862-3.211-5.078-2.246-11.094 1.583-15.235 2.529-23.912 8.575-47.197 14.202-70.523 5.522-22.895 11.663-45.643 18.172-68.276l2.918-10.13c10.248-35.489 20.96-71.264 35.097-105.342 7.059-17.016 15.191-33.719 26.214-48.556 10.275-13.831 22.406-25.666 36.35-35.774 25.995-18.846 56.497-30.233 86.467-41.082l1.342-.485c15.531-5.618 31.024-11.303 46.378-17.39 13.579-5.383 26.588-12.208 40.103-17.672a69.458 69.458 0 0 1-1.271-2.418l-.25.21a2.556 2.556 0 0 1-.132.098c-1.359.942-3.36.479-4.48-.578-3.163-2.984-2.092-6.297.019-9.391l.275-.394c2.582-3.617 4.885-7.441 7.268-11.189l1.492-2.344c4-6.262 8.203-12.565 13.537-17.74a29.091 29.091 0 0 1 8.039-5.529c-.245-.518 1.903-1.577 2.512-1.044 9.077-3.322 19.52-2.626 29.416-1.71m356.624 544.951-12.62 1.435a8695.726 8695.726 0 0 1-41.665 4.62l-30.172 3.279c-.077 1.72-.286 3.402-.324 4.701-.197 6.697-.344 13.397-.483 20.096a465.159 465.159 0 0 0 .911 40.271c.857 12.986 1.985 25.974 3.739 38.873l.359 2.578.208 1.356c1.431.138 2.837.818 4.006 2.215 2.552 3.047 11.793.085 15.402-1.199 5.935-2.112 11.524-5.68 16.681-9.258 5.036-3.494 9.571-7.567 13.929-11.859l3.565-3.526c3.547-3.525 7.098-7.28 9.271-11.713 2.947-6.012 3.328-13.392 4.192-19.94 1.064-8.054 2.331-16.107 3.67-24.121m-357.024-122.35-1.309.344c-47.551 12.635-95.031 25.643-142.728 37.72-23.604 5.978-47.32 11.521-70.953 17.384l-3.826.957c-18.644 4.712-37.512 10.383-51.789 23.906-.527.498-1.292-.267-.796-.796 15.387-16.38 37.271-23.314 58.283-29.325 3.884-1.111 7.773-2.196 11.658-3.301-28.576-10.187-57.603-19.05-87.3-25.371-7.647-1.628-15.383-2.823-23.024-4.457-5.33-1.14-10.533-2.788-15.806-4.156l-4.147-1.043-.055 13.108c-.07 18.565-.036 37.115.91 55.677l.18 3.439c1.105 20.657 2.83 41.743 10.16 61.221 5.958 15.828 15.453 30.739 27.87 42.268 6.283 5.833 13.038 10.374 21.388 12.616 7.753 2.081 15.876 2.325 23.846 1.77 38.229-2.667 72.259-23.434 105.467-40.628 54.317-28.123 108.64-56.232 163.012-84.247a26.67 26.67 0 0 1-4.113-3.464c-7.291-7.53-11.137-17.838-13.663-27.821-2.689-10.626-4.297-22.015-4.484-32.985m70.402 75.126a.71.71 0 0 1 1.058.607c.168 4.153-2.127 8.249-3.842 11.99l-.181.399c-2.083 4.634-4.364 9.206-6.723 13.706a677.143 677.143 0 0 1-14.729 26.655c-10.284 17.641-21.712 34.539-35.22 49.899-3.051 3.47-8.069-.979-6.111-4.715 9.44-18.01 20.445-35.015 31.773-51.872 5.671-8.44 11.338-16.888 17.065-25.29a464.06 464.06 0 0 1 7.294-10.439l1.499-2.058m572.07-348.958c-47.715 1.441-95.376 4.553-142.866 9.43a1958.409 1958.409 0 0 0-159.31 23.007l-5.468 1.028c-9.118 1.728-20.257 2.441-28.375 7.312-8.559 5.135-10.872 15.867-13.72 24.717a1975.865 1975.865 0 0 0-9.786 31.309c-12.608 41.543-24.125 83.446-34.399 125.626-5.1 20.937-9.625 41.991-14.393 63.004-4.236 18.67-8.91 37.129-13.793 55.612a5.43 5.43 0 0 1 2.231-1.014c24.248-5.159 48.999-7.401 73.61-10.251l2.381-.278c25.459-2.994 50.918-5.966 76.392-8.83l168.659-18.967c9.947-1.118 20.603-1.27 30.283-3.939 16.458-4.54 20.315-22.94 23.076-37.593l.084-.443c8.325-44.273 14.952-88.931 22.716-133.316M591.405 505.029c-6.548-.432-15.51-6.429-20.478-5.999 2.608 4.376 3.785 9.367 2.282 14.697-4.183 14.832-23.1 7.158-32.212 2.627-7.471-3.717-14.685-8.265-22.956-10.006-9.37-1.97-15.718 1.756-23.634 6.051-6.502 3.527-13.583 6.06-20.865 7.371-3.872.698-7.55.772-11.221.5-.221.18-.47.347-.754.496l-1.942 1.019c8.781.402 17.725 3.112 25.897 5.593 8.468 2.57 16.781 5.668 25.05 8.836l8.134 3.127c20.066 7.683 40.836 14.98 62.552 14.916 1.561-.004 2.84.428 3.847 1.133m-30.336-96.835c6.469-.791 12.44.057 17.609 4.268 6.234 5.078 10.422 13.5 19.384 14.053 2.613.161 3.22 3.835.623 4.603-6.671 1.975-12.072-1.634-16.617-6.32l-3.056-3.193c-4.491-4.65-8.634-8.246-16.255-7.968-8.162.298-16.338 2.184-24.447 3.143a888.485 888.485 0 0 1-27.585 2.811c-.428.037-.501-.637-.1-.736l10.321-2.569m33.879-34.538 1.067-.107c9.393-.912 17.984-.947 26.374 4.106l1.609.973c7.564 4.597 15.797 10.013 20.527 17.457.774 1.219-.505 2.652-1.8 2.342-9.091-2.182-15.737-8.852-23.382-13.844-8.58-5.602-17.443-4.678-27.226-3.808-9.472.843-18.939 2.001-28.318 3.58-8.813 1.482-17.654 3.822-26.556 4.568l.002-.018c-1.017-.002-1.597-1.529-.56-2.047 9.034-4.511 19.497-6.646 29.324-8.707m314.304-97.34c-.908-4.343 4.434-6.357 6.91-2.912l.526.727c5.349 7.328 13.085 16.524 12.692 25.844 4.702.103 9.577 2.96 11.409 7.203.847 1.963 1.134 4.289.947 6.697 4.274.332 8.935 3.138 11.548 5.87 4.331 4.529 4.673 10.929 1.566 16.221-6.775 11.536-21.574 15.732-34.067 16.669l-.445.032c-12.904.892-31.498.651-40.346-10.42-8.535-10.679.898-19.325 10.571-24.02-2.518-2.299-3.822-5.596-2.596-9.073 2.153-6.111 9.754-8.472 14.049-12.72 5.235-5.18 8.695-12.285 7.316-19.713m7.011 8.986c-1.423 6.184-4.919 11.84-9.788 16.322a38.135 38.135 0 0 1-6.063 4.551l-.26.151c-1.92 1.078-6.641 3.098-6.278 5.517.374 2.486 8.065 6.377 10.161 6.379.477 0 .747.745.26.961-3.799 1.678-7.117 2.397-10.832.624-2.482 2.534-4.893 5.156-7.281 7.755-4.223 4.599-2.778 9.455 2.212 12.879 8.018 5.502 20.206 5.368 29.561 4.968 9.416-.402 19.481-2.502 26.836-8.774l.321-.279c3.997-3.555 7.648-9.579 1.526-13.003-2.397-1.341-4.987-1.262-7.263-1.914-2.13 4.175-5.585 7.519-9.801 8.164-3.407.521-5.753-3.761-2.654-5.81l.696-.432c3.892-2.484 7.214-6.31 7.125-11.293-.06-3.459-4.89-7.827-8.036-4.577l-.145.155c-2.633 2.968-7.271-.772-5.539-4.061l.083-.149m-618.96-190.113c-.011-.743 1.034-1.021 1.399-.378 6.112 10.753 9.307 23.934 12.563 35.781 3.41 12.41 6.162 24.946 8.635 37.574 5.009 25.571 7.678 50.995 7.86 77.057.025 3.721-6.038 4.711-6.631.898-3.937-25.351-7.709-50.728-11.676-76.072-1.996-12.747-4.318-25.445-6.542-38.154m54.901-17.977c-.45-1.483 1.708-1.979 2.26-.623 12.266 30.109 16.42 64.231 8.545 95.996-1.205 4.859-8.322 2.754-7.413-2.044m154.825-120.083c-.062-1.11 1.379-1.285 1.922-.521 5.812 8.189 8.223 19.156 18.42 23.388 5.091 2.113 10.82 1.745 15.318 5.314 3.007 2.387 5.313 6.155 3.056 9.77-.728 1.168-2.766 1.753-3.754.484-1.442-1.849-2.205-4.063-4.164-5.449-2.763-1.955-6.489-2.076-9.657-2.995-4.098-1.188-7.71-3.267-10.668-6.356m86.625-160.219c.599-.305 1.174-.11 1.557.408.547.738.48 1.456-.19 1.962.895 1.83 1.952 6.411 2.103 7.078a322.766 322.766 0 0 0 1.944 8.078c1.374 5.417 2.578 10.876 3.953 16.295 1.458 5.744 3.195 11.427 5.128 17.028.125.363.262.733.406 1.109l.22.567.054-.086c.393-.62 1.211-.187 1.114.47-.09.597-.211 1.192-.313 1.79l.203.536c1.264 3.403 2.13 6.987-.19 9.99-.868 1.123-1.823 1.788-3.013 1.986-1.908 6.29-4.302 12.463-6.865 18.391l-.751 1.732c-3.77 8.65-7.791 17.186-13.794 24.55-6.554 8.04-15.569 13.53-21.278 22.34-2.656 4.098-4.504 8.407-6.004 13.035l-.564 1.757c-1.065 3.274-2.293 6.446-5.364 8.366-.98.612-2.448.417-3.238-.418-6.297-6.661.295-19.099 4.092-25.548 5.278-8.968 12.917-14.705 20.566-21.471 8.245-7.293 13.504-17.049 18.591-26.66 3.116-5.888 6.124-11.903 9.291-17.817-3.309-2.924-4.368-8.733-5.489-12.77l-.102-.363c-1.853-6.466-3.325-13.1-4.255-19.763-.895-6.406-1.268-12.72-1.031-19.163l.068-1.641m15.453 18.724c-.731-1.002.479-2.137 1.482-1.928 6.099 1.261 12.061 4.953 17.534 7.937l.584.317c4.369 2.356 8.765 5.242 11.059 9.82 2.495 4.974 2.29 10.703 1.95 16.11l-.033.505c-.417 6.483-.484 13.219-1.856 19.585-.702 3.258-3.653 4.176-6.176 3.406-3.002 9.479-11.435 16.463-17.595 23.943-7.854 9.536-6.376 22.411-5.555 33.896.332 4.65-5.452 5.972-8.431 3.491l-6.865-5.702a926.266 926.266 0 0 1-3.424-2.863 201.91 201.91 0 0 1-2.9-2.485l-1.432-1.264c-.635-.568-3.436-3.697-4.255-3.827-1.983-.315-6.696 4.913-8.309 6.553l-.205.204c-3.036 2.977-5.779 6.18-8.334 9.577-.47.624-1.389.106-1.053-.615 2.29-4.904 4.952-9.593 8.113-13.981l.638-.874c2.103-2.834 4.926-7.838 8.638-8.675 4.533-1.021 9.059 3.524 12.357 6.047l.208.158a322.373 322.373 0 0 1 4.668 3.581c-.162-8.551.918-17.191 5.333-24.56 3.113-5.197 7.777-9.046 11.768-13.512 4.443-4.973 6.763-11.085 10.785-16.264.518-.666 1.232-1.025 2.005-1.139.155-4.163.768-8.368 1.242-12.487l.137-1.233c.479-4.475 1.611-9.94-.58-14.132-2.069-3.958-6.818-6.752-10.334-9.438l-2.872-2.227M357.074 15.24a22.351 22.351 0 0 0-5.109 4.034c-4.901 5.199-8.405 11.669-11.815 17.893-1.836 3.352-3.606 6.741-5.457 10.085a225.699 225.699 0 0 1-2.47 4.331c-.387.662-1.537 1.978-2.107 2.789a85.475 85.475 0 0 0 1.956 2.626c.255.33 17.836 19.48 23.964 26.976 9.384 11.481 17.772 23.608 24.943 36.588 7.022 12.711 12.368 26.169 18.873 39.126 3.256 6.487 6.892 12.928 11.527 18.542.179.219.368.426.551.642 1.769-4.779 6.301-9.896 8.528-12.834l.208-.277c5.049-6.806 10.381-13.407 15.829-19.896a534.15 534.15 0 0 1 15.304-17.424l1.966-2.134c3.641-3.933 8.266-9.818 13.596-12.628a25.53 25.53 0 0 0-1.992-3.019c-4.994-6.526-12.054-11.262-19.019-15.535l-4.518-2.748c-17.028-10.377-33.79-21.234-48.573-34.717-7.821-7.134-15.534-14.607-22.108-22.928l-2.325-2.942m16.66-21.687c-7.974.669-16.585.51-23.954 3.108 6.551 6.193 12.778 12.88 19.175 19.177.569-4.259 1.733-8.466 2.719-12.619"/></g></svg>