<svg xmlns="http://www.w3.org/2000/svg" width="818" height="733" fill="none" viewBox="0 0 818 733"><g id="body/Paper" fill-rule="evenodd" clip-rule="evenodd"><path id="✋ Skin" fill="#D08B5B" d="M710.107 196.567c-8.717-33.8-16.733-48.131-32.216-59.879-14.483-10.988-35.624-20.217-66.472-26.959-32.13-5.616-33.04-22.312-41.096-49.146-2.351-8.067-13.997-10.214-19.023-4.4a23.123 23.123 0 0 0-2.213-2.097c.685-3.847-4.918-14.875-4.731-18.555 1.954-38.412-10.613-57.702-41.978-64.873-6.821-1.56-53.154-2.478-59.805-.64-29.076 8.038-57.699 33.557-53.318 64.297-9.127 11.926-18.06 19.204-32.141 23.047-21.928 2.783-10.912 313.384 27.172 499.466 16.34 79.84 407.05-56.051 389.395-96.038 2.503-7.33-2.059-15.385 0-22.954 1.49-5.478 5.306-7.743 7.227-13.167 2.703-7.633-.237-17.872-3.28-25.661-1.247-3.882 2.296-8.06 3.28-12.021 4.669-18.683-6.023-17.036-13.73-29.526.114-.039 2.119-8.955 2.11-8.911 1.18-6.366-1.777-14.521-4.356-19.835-1.743-3.591-5.476-5.839-9.186-5.427 3.736-12.681 8.461-23.233 13.542-35.45 8.986-21.536 17.531-44.065 30.435-63.558 5.284-7.981 1.016-15.323-7.535-15.867-27.678-1.758-55.053-5.742-82.081-11.846Z"/><path id="📱 Device" fill="#EC7495" d="M666.899 199.178 603.72 306.087s14.988 1.496 21.053 4.409c6.066 2.914 33.916 38.314 33.916 38.314l4.425 19.494-10.485 15.716 4.089 9.868s2.917-6.685 10.181-11.875c7.264-5.19 23.283-13.709 23.283-13.709s-5.324-2.848-5.324-6.191-4.689-17.605 5.324-22.992c10.012-5.388 61.751-17.996 61.751-17.996l52.435-110.591-137.469-11.356Z"/><path id="👕 Top" fill="#9DDADB" d="m385.058 58.087 200.614 35.205 92.219 43.396 15.054 11.597-89.226 157.802-137.77 25.133-35.1 91.159 7.164 102.756 224.126-26.719 96.677-11.486 22.727 91.737-4.106 37.739-5.971 19.137-239.67 64.699s-122.043-11.829-143.677-11.829c-21.634 0-180.253 15.751-180.253 15.751l-36.7-3.922s-81.198-85.57-93.792-116.024c-12.594-30.455-39.827-215.58-39.827-215.58l2.998-28.445L110.7 159.677s9.368-8.506 21.179-22.989c11.811-14.482 253.18-78.6 253.18-78.6Z"/><path id="🖍 Ink" fill="#000" d="M748.149 318.846c-18.13.921-36.28 5.231-52.68 13.04-6.71 3.2-12.79 7.82-14.57 15.42-.9 3.881-.68 7.891-.201 11.811.361 2.969.451 6.759 3.031 8.769.44.34.91.6 1.4.79-6.05 2.73-11.811 6.011-16.931 9.39-4.679 3.09-9.489 7.85-11.649 13.22a52.38 52.38 0 0 0-.54-1.72c-3.68-10.879-9.35-19.789-18.28-25.78-1.014-3.695-11.897-19.599-22.006-18.999-11.07.65-19.974 1.459-29.985 6.549-3.649-.08-7.29-.03-10.889.13-.62.02-.59.861 0 .93 2.92.371 5.84.78 8.76 1.26 6.94 1.111 13.86 2.52 20.629 4.27 8.121 2.101 16.521 4.21 24.111 7.88 14.719 7.131 23.83 25.771 21.96 41.99-.31 2.66-1.34 10.7-5.031 9.87-3.119-.7-4.359-7.21-5.449-9.62-2.92-6.4-8.18-10.58-14.49-13.41-7.41-3.33-15.34-5.58-23.021-8.199-4.349-1.49-8.699-2.981-13.059-4.461-4.46-1.529-8.7-3.64-13.45-2.57-2.87.65-3.2 4.07-1.59 6.031 2.45 2.989 6.09 3.869 9.62 5.099 4.66 1.62 9.31 3.241 13.96 4.86 7.189 2.5 14.72 4.61 21.729 7.67l-.219.5c-.571-.16-1.241.41-1.13 1.11 1.05 6.47 2.51 13.95.889 20.431-1.279 5.139-5.79 10.83-11.649 9.319.92-.84 1.26-2.29.64-3.63-2.321-4.96-32.72-24.54-35.43-17.269-.09.259.189.449.41.41 2.31-.481 6.18 3.459 8.029 4.709 2.67 1.801 5.38 3.56 8.021 5.41 2.89 2.021 5.71 4.141 8.46 6.33 2.16 1.721 3.79 3.51 6.269 4.381a5.241 5.241 0 0 0-2.769 3.239c-1.12 3.83-3.28 7.08-7.03 8.771-3.93 1.759-8.36.649-12.5 1.08-5.64.569-10.56 3.25-14.67 7.08-8.63 8.059-12.96 22.26-25.03 26.069-7.21 2.271-15.21.84-22.51-.19-8.15-1.15-16.09-2.06-24.3-.86-7.86 1.151-15.29 3.87-22.47 7.19-6.73 3.11-14.17 6.631-20.14 11.27-1.23-3.79-2.47-7.54-3.411-11.41-2.219-9.149-3.419-18.47-3.71-27.87-.269-8.949.231-17.939 1-26.85.381-4.45.981-8.88 1.361-13.33.099-1.12.3-2.32.45-3.519 10.66-6.291 21.859-11.11 33.149-16.07.031-.01.061-.031.091-.04.35-.161.69-.31 1.04-.46a.213.213 0 0 0-.04-.061c1.29-.789 2.19-1.84 2.73-3.02 16.27-10.79 29.87-25.519 40.01-42.7 4.25-7.2 8.34-14.67 13.9-20.979 5.92-6.731 12.95-10.731 21.65-12.811 10.17-2.439 20.65-3.9 31.07-4.73 5.69-.449 12.049-1.15 18.25-1.119 4.32.029 8.549.399 12.43 1.469 5.75 1.58 9.11 5.951 12.72 10.37 3.45 4.241 6.88 8.491 10.1 12.911 3.049 4.189 5.93 8.519 8.43 13.059 1.5 2.72 2.89 5.521 4.06 8.41.41 1.021.95 2.18 1.2 3.24.25 1.07-.21 2.201.99 2.201-4.95.069-8.24 12.412-3.32 12.122 6.918-.403 10.396-8.696 9.04-16.053-2.418-13.127-15.477-28.981-18.061-32.34-5.71-7.42-11.599-17.1-20.739-20.55-.13-.05-.27-.099-.4-.14 2.66-2.52 4.76-5.539 6.77-8.61 2.07-3.16 4.539-6.78 5.22-10.53.43-2.389-2.54-3.75-3.95-1.66-2.05 3.05-3.04 6.91-4.57 10.261-1.56 3.399-3.46 6.609-4.96 10.039-3.61-1.11-7.51-1.619-11.48-1.789 5.01-6.78 13.569-19.861 14.6-21.541 4.74-7.78 9.25-15.799 13.56-23.83 4.659-8.7 8.65-17.76 13.11-26.56 2.53-4.989 5.08-10.02 7.89-14.86.97-1.66 2.01-3.32 3.19-4.83.23-.299.52-.549.79-.83.31-.17.63-.36.81-.459 1.619-.93 2.19-3.09 3.329-4.461 1.821-2.209 3.961-2.469 6.701-2.5 5.839-.06 11.7.17 17.53.33 8.57.24 17.13.58 25.69 1.03 2.59.14 5.17.28 7.76.44 12.45.741 24.89 1.71 37.3 2.901 10.98 1.049 21.96 2.76 32.95 3.58-14.88 35.35-31.38 70.06-50.061 103.56-.189.339-.33.679-.419 1.019Zm-82.56 91.07a41.573 41.573 0 0 0-6.9 4.031c.36-2.43.45-4.991.35-7.561 1.79 1.92 4.08 3.02 6.55 3.53Zm102.45-60.809a.5.5 0 0 0-.41.279c-3.32 6.85-1.931 14.5 3.49 19.87 2.84 2.8 9.03 5.96 8.829 10.56-.17 3.72-4.219 6.84-5.949 9.91-1.61 2.86-2.21 6-.92 9.101 1.65 3.969 6.26 5.549 7.84 9.45 2 4.949-1.25 10.92-3.53 15.229-2.12 3.99-4.861 7.98-6.68 12.2-12.19 6.311-39.85 17.77-43.181 18.411a567.452 567.452 0 0 1-12.21 2.24 751.408 751.408 0 0 1-23.549 3.729c-4.48.63-8.97 1.25-13.46 1.74-3.92.42-8.34.99-11.5-1.959-6.37-5.961-2.8-15.951 1.23-21.971.08-.119.08-.23.05-.33 3.8-.89 7.59-1.93 11.37-2.66 7.27-1.4 14.59-2.579 21.92-3.629 15.06-2.151 30.22-3.571 45.359-5 3.75-.361 3.79-6.26 0-5.91-21.75 1.99-43.609 3.879-65.069 8.07a300.096 300.096 0 0 0-16.03 3.549c-2.51.621-5.2 1.591-7.83 1.621-.16 0-.321 0-.48-.011-5.15-.159-5.9-4.569-3.07-8.239.35-.451.71-.901 1.08-1.33 5-5.961 11.229-9.941 17.649-14.061 7.191-.98 14.361-3.16 21.401-4.76 17.38-3.96 34.76-7.92 52.15-11.87 3.409-.78 1.96-6.02-1.45-5.25-13.2 2.991-26.4 5.98-39.601 8.97l-19.319 4.381c-3.86.869-8.681 2.619-13.221 3.25-2.239.309-4.409.349-6.369-.11-6.33-1.5-6.65-9.411-3.92-14.111 3.06-5.279 8.84-8.58 13.97-11.57 8.89-5.19 18.35-8.92 27.59-13.22l4.92-1.08c9.54-2.1 20.44-3.13 29.42-6.979 2.69-1.141 1.219-5.381-1.44-5.321-6.97.151-14.26 2.63-21.07 4.1-7.37 1.6-14.75 3.19-22.12 4.78-.74.16-5.12 1.56-5.78 1.25-.42-.2-.57-1.659-.71-2.62-.451-3.16-.78-6.479-.29-9.65 1.08-7.11 7.01-10.45 13.01-13.18 13.36-6.07 28.01-9.869 42.59-11.39 3.36-.35 6.72-.569 10.1-.68 3.969-.12 7.24-.82 9.25 3.09 3.16 6.16 4.9 14.081 5.94 21.111Zm-18.554 223.344c-2.911-10.068-2.119-20.818-4.113-31.087-1.029-5.298-2.434-10.554-3.968-15.726-1.238-4.178-3.303-8.622-3.537-12.982-.014-.291.329-.459.565-.325 4.107 2.352 7.261 7.437 9.603 11.427 2.804 4.775 4.945 9.775 6.672 15.032 3.442 10.473 6.268 23.106 1.829 33.661-1.321 3.142-5.961 3.771-7.051 0Zm-113.608 76.216c-4.338-3.027-7.499-7.259-11.178-10.994-3.618-3.673 2.038-9.33 5.657-5.656 3.139 3.185 5.864 7.165 9.558 9.742 1.778 1.239 2.601 3.48 1.436 5.473-1.03 1.759-3.7 2.672-5.473 1.435ZM611.685 532.32c7.919-3.424 15.707-7.153 23.995-9.619 4.953-1.475 7.05 6.248 2.127 7.713-7.633 2.273-14.792 5.661-22.084 8.813-4.682 2.024-8.751-4.87-4.038-6.907Zm-83.63-2.396c-1.937-4.778 5.806-6.837 7.714-2.126 2.197 5.422 4.715 10.705 6.912 16.127 1.935 4.778-5.806 6.838-7.714 2.127-2.197-5.422-4.716-10.705-6.912-16.128Zm-82.545 95.419c-1.29 1.72-3.441 2.652-5.473 1.436-1.702-1.02-2.741-3.732-1.435-5.473 3.813-5.082 7.676-10.103 12.145-14.634 3.623-3.673 9.277 1.988 5.657 5.657-3.991 4.046-7.488 8.475-10.894 13.014ZM433.707 89.952c3.672 2.508 6.889 5.555 10.026 8.69 3.647 3.645-2.011 9.301-5.658 5.656-2.643-2.642-5.309-5.324-8.406-7.438-1.789-1.222-2.592-3.495-1.435-5.473 1.037-1.772 3.688-2.653 5.473-1.435Zm120.091 128.737c-2.076 4.157-3.945 8.232-4.063 12.957-.126 5.147-8.126 5.15-7.999 0 .153-6.183 2.433-11.545 5.154-16.995 2.302-4.613 9.2-.556 6.908 4.038Zm44.062-103.393c4.301-2.867 8.302 4.066 4.039 6.908l-10.369 6.912c-4.299 2.866-8.3-4.066-4.038-6.908l10.368-6.912ZM406.745 296.069c-.734 5.084-8.442 2.909-7.715-2.126 1.125-7.782 2.498-15.461 4.609-23.041 1.382-4.96 9.097-2.84 7.714 2.127-2.111 7.58-3.484 15.259-4.608 23.04Zm-28.049 91.64c-5.149-.109-5.15-8.109 0-8 4.66.099 9.241 1.325 13.736 2.447 5 1.249 2.868 8.962-2.127 7.714-3.8-.949-7.669-2.077-11.609-2.161Zm-10.354 184.6c-1.769.861-3.584 1.636-5.372 2.454a7917.077 7917.077 0 0 0-33.085 15.219c-14.9 6.897-29.915 13.551-44.851 20.373-15.231 6.958-30.422 14.008-45.594 21.094-7.148 3.337-14.35 6.552-21.538 9.802-6.146 2.779-13.743 7.635-20.49 8.092-.347.024-.463-.415-.265-.64 2.549-2.899 6.615-4.585 9.965-6.469 3.422-1.926 6.908-3.737 10.378-5.574 7.234-3.833 14.477-7.635 21.781-11.333a11603.86 11603.86 0 0 1 43.889-22.064c14.932-7.477 29.845-15.004 44.908-22.215a7831.458 7831.458 0 0 1 32.842-15.631c1.663-.787 3.309-1.636 5.009-2.34 2.259-.935 3.976-.744 6.306-1.32 3.8-.938 5.445 3.894 2.528 5.998-2.402 1.733-3.666 3.215-6.411 4.554Zm-53.407 82.031c-.821-1.995.898-4.421 2.794-4.921 2.271-.598 4.092.782 4.921 2.794 2.193 5.335 5.317 10.23 9.338 14.364 3.594 3.694-2.06 9.353-5.657 5.657-5.039-5.182-8.659-11.238-11.396-17.894Zm-39.291-128.411c-3.647-3.646 2.011-9.302 5.657-5.656l10.368 10.367c3.647 3.647-2.012 9.303-5.657 5.657l-10.368-10.368Zm-106.37-16.903c-7.454 2.186-16.148 4.196-21.23 10.555-.248.311-.665-.088-.516-.398 6.506-13.488 25.164-18.219 38.082-22.944 9.137-3.343 18.512-6.115 27.966-8.591-.945-10.785 1.661-22.344 2.567-33.076.967-11.458 1.754-22.946 2.158-34.44.413-11.725.513-23.529.127-35.257-.384-11.685-1.901-23.227-2.565-34.873-.064-1.126 1.504-1.18 1.842-.249 3.926 10.807 5.603 22.778 6.881 34.173 1.316 11.739 1.753 23.444 1.585 35.251-.174 12.14-.88 24.251-1.849 36.352-.459 5.736-.992 11.464-1.495 17.196-.384 4.374-.562 8.713-1.454 12.948a954.458 954.458 0 0 1 17.114-4.01c18.166-4.099 36.408-7.903 54.498-12.336 8.88-2.175 17.633-4.781 26.473-7.095 8.324-2.179 17.11-4.821 25.656-5.793 3.05-.348 3.438 3.824 1.419 5.24-6.946 4.877-16.171 8.273-24.194 11.003-8.052 2.739-16.422 4.71-24.675 6.739-17.211 4.233-34.585 7.694-51.933 11.299-17.324 3.601-34.681 7.175-51.81 11.618-8.249 2.14-16.47 4.288-24.647 6.688Zm-40.847-214.023c-4.454 2.615-8.475-4.302-4.037-6.908 5.807-3.408 11.996-5.969 18.235-8.467 4.788-1.916 6.848 5.824 2.127 7.715-5.607 2.244-11.107 4.598-16.325 7.66Zm-16.128 297.215c-4.466 2.59-8.49-4.326-4.037-6.907 6.254-3.625 13.103-6.044 19.584-9.216 4.611-2.258 8.661 4.645 4.037 6.908-6.48 3.172-13.33 5.59-19.584 9.215Zm-7.254-168.713c4.318 4.102 10.081 6.033 15.515 8.188 4.738 1.877 2.66 9.611-2.127 7.714-6.77-2.685-13.666-5.136-19.045-10.246-3.742-3.554 1.925-9.201 5.657-5.656Zm47.771-229.125c4.747 1.862 2.668 9.596-2.127 7.715-5.318-2.086-10.81-3.674-16.128-5.76-4.746-1.862-2.668-9.595 2.127-7.715 5.318 2.086 10.81 3.674 16.128 5.76Zm84.273-91.008c5.044-.85 7.192 6.86 2.127 7.715-6.284 1.061-12.472 2.302-18.432 4.608-4.813 1.862-6.878-5.876-2.127-7.714 5.961-2.306 12.149-3.548 18.432-4.609Zm27.845 221.583c-4.625-2.274-.567-9.17 4.037-6.907 4.852 2.385 9.879 4.229 15.173 5.356 5.041 1.074 2.894 8.785-2.127 7.715-5.958-1.27-11.627-3.481-17.083-6.164Zm26.299-124.815c4.98-1.364 7.086 6.355 2.127 7.715-8.725 2.39-17.708 3.633-26.497 5.76-5.009 1.212-7.128-6.504-2.127-7.714 8.789-2.128 17.773-3.369 26.497-5.761Zm111.566-39.168c5.064.937 2.906 8.646-2.126 7.715-5.357-.991-10.786-1.007-16.217-1.01-5.156-.002-5.147-8.002 0-8 6.17.003 12.261.17 18.343 1.295Zm363.86 41.795c-13.07-1.25-26.16-2.25-39.27-3-.611-.031-1.21-.07-1.821-.101-.069-.139-.159-.27-.25-.41-4.279-6.28-7.429-12.559-10.159-19.66-2.61-6.76-5.14-13.729-9.16-19.829-4.585-6.95-10.775-12.388-17.559-17.101-4.115 2.767-7.934 6.007-11.428 9.441-3.677 3.613-9.335-2.043-5.657-5.657a87.95 87.95 0 0 1 9.922-8.418c-4.045-2.458-8.172-4.768-12.198-7.066a605.965 605.965 0 0 0-46.31-23.849c-7.33-3.391-14.75-6.401-22.22-9.451-4.021-1.64-7.99-3.75-12.01-5.65.29-2.84-.56-6.02-2.74-7.89-1.61-1.37-2.86-1.88-4.78-2.85-.43-.15-.69-.24-.81-.29.09.02.35.1.779.24 1.021.47 1.101.33.241-.41-.05-1.62-3.241-5.04-3.97-6.71-2.54-5.73-3.33-11.79-7.08-17.01-5.17-7.19-13.85-9.91-21.941-7.47-.839-8.65-1.059-17.68-4.319-25.4-.09-.21-.38-.3-.51-.07-3.4 5.79-3.69 12.24-3.95 18.92-.25 6.27-.011 12.68.81 18.91-.52.4-1.05.78-1.6 1.15-2.58 1.7-5.36 3.01-8.28 3.98-5.56 1.84-11.39 2.64-17.22 2.92-15.05.72-30.56-.8-45.36-3.38-14.97-2.61-37.92-6.53-51.24-14.02-8.791-4.94-16.9-10.97-25.121-16.81 2.981-9.6 3.741-19.92.741-28.03-.36-.97-1.88-1.15-2.17 0-1.88 7.74-2.43 15.52-4.93 23.17-.04.11-.08.23-.12.34-.78-.53-1.56-1.05-2.34-1.57-1.8-1.19-4.25-.3-5.33 1.4-17.271 27.21-44.62 28.77-73.34 33.63-31.431 5.32-63.02 11.06-93.24 21.47-28.9 9.96-56.52 24.461-78.4 46.121-4.953 4.904-9.585 10.129-13.957 15.584 4.23.533 8.425 1.363 12.566 2.664 4.903 1.54 2.796 9.261-2.127 7.714-5.322-1.672-10.703-2.499-16.139-2.911-14.867 20.338-26.459 43.399-36.483 66.098-19.227 43.521-31.742 89.869-37.5 137.056 3.161-1.895 6.38-3.7 9.68-5.379 4.583-2.331 8.626 4.573 4.037 6.908a166.344 166.344 0 0 0-14.842 8.547 499.33 499.33 0 0 0-2.415 62.198c1.17 49.48 7.85 100.41 22.96 147.62 7.41 23.17 17.23 46.151 31.86 65.731 6.62 8.869 14.14 16.869 23 23.539 4.29 3.24 8.83 6.131 13.62 8.57 6.17 3.16 14.21 4.2 19.53 8.67 1.75 1.471 3.1 3.41 4.12 5.6-.59 4.16-.66 8.33.48 12.49.36 1.301 1.34 2.36 2.55 2.87.02.36.02.71.02 1.05 0 .16.24.2.27.041l.15-.94c.39.129.8.19 1.22.19 15.19.057 30.399-.313 45.609-.829-1.176-3.603-2.45-7.175-3.673-10.778-1.661-4.894 6.068-6.975 7.714-2.126 1.431 4.212 2.927 8.387 4.258 12.614 16.297-.606 32.589-1.334 48.852-1.871 34.59-1.151 69.17-1.531 103.769-2.26 53.731-1.139 107.853-3.471 161.667-1.19 1.861-3.95 3.944-7.809 5.919-11.705 2.33-4.598 9.23-.545 6.908 4.038-1.373 2.707-2.795 5.38-4.146 8.082 10.899.566 21.787 1.314 32.652 2.335 18.54 1.739 36.901 4.829 55.421 6.75 18.829 1.959 37.25 1.61 55.93-1.5 3.36-.56 5.34-2.591 6.16-5.111a.128.128 0 0 0 .069-.06c.96-1.12 1.861-2.049 2.79-2.86a19.683 19.683 0 0 1 3.721-1.87c2.63-1 5.37-1.61 8.15-2.02 3.06-.459 6.16-.5 9.22-.879 2.579-.33 5.1-.821 7.619-1.42 4.531-1.08 8.831-2.49 13.111-4.361 3.73-1.629 7.099-3.969 10.28-6.52 6.58-4.81 12.279-10.949 17.26-17.33 2.9-3.73 5.63-7.6 8.11-11.629 4.32-6.981 8-14.231 11.72-21.541a79.271 79.271 0 0 0 3.708-6.649c-7.27-2.142-14.61-3.888-22.317-4.012-5.152-.083-5.151-8.083 0-8 8.839.141 17.2 2.206 25.507 4.666a78.386 78.386 0 0 0 1.152-3.255 57.39 57.39 0 0 0 2.49-7.02l1.2-3.24c.9-3.74 1.8-7.49 2.71-11.24 1.81-6 3.239-12.09 4.29-18.26.88-4.06 1.56-8.15 2.02-12.29 1.4-10.03 2.54-20.04 2.62-30.18-.12-6.25-.52-12.49-1.2-18.7-.29-4.22-.78-8.42-1.44-12.59-.86-6.2-1.71-12.339-3.14-18.46l-3.21-12.42a238.187 238.187 0 0 0-9.451-25.36c-.199-.519-1.21-1.66-1.819-1.67-.46-.01-1.101.41-.891.971.021.049.04.109.061.159-.21-.47-.41-.95-.62-1.42-.18-.44-.88-1.319-1.42-1.309-.03 0-.061 0-.1.009.14-.099.27-.23.4-.379 3.59-4.25 5.92-9.841 8.49-14.761 2.13-4.06 4.14-8.34 4.72-12.93.509-4.029-.18-8-2.71-11.26-2.88-3.71-8.3-5.45-5.29-10.81 3.42-6.1 8.45-11.39 3.44-18.32-2.55-3.53-6.59-5.469-9.59-8.54-3.45-3.55-5.091-8.3-5-13.15.21.12.49.061.59-.24 2.9-8.76.8-18.379-2.17-26.91-1.62-4.629-5.051-5.9-9.04-6.129 17.279-33.75 33.449-68.041 47.86-103.121.48-1.15.95-2.299 1.419-3.45.701-1.72-.779-4.009-2.489-4.39-12.46-2.73-25.44-3.6-38.13-4.799Z"/></g></svg>