<svg xmlns="http://www.w3.org/2000/svg" width="818" height="733" fill="none" viewBox="0 0 818 733"><g id="body/Pointing Up" fill-rule="evenodd" clip-rule="evenodd"><path id="✋ Skin" fill="#D08B5B" d="M823.24 31.118c-10.317-28.417-2.567-64.395-23.833-87.909-6.29-3.823-9.626-1.696-12.215 4.97-1.563 8.772-5.225 38.975 7.945 38.961 1.657 18.863.621 37.863-3.435 56.375-9.719-1.559-16.805 3.436-23.896 7.151-5.287 2.77-10.576 4.829-16.961 2.927-26.359-4.646-33.871 23.034-34.191 45.628-.387 11.024-1.423 36.722-6.279 47.419-21.978-45.517-68.136-66.24-112.117-76.472-6.894-1.907-12.777-4.513-17.199-8.967-37.056-14.63-19.254-62.567-36.302-90.117-26.684-32.752-58.73-42.176-99.102-36.563-35.323 3.906-59.334 39.787-57.156 73.656.653 6.911-3.495 14.18-5.935 21.292-24.382 29.175-62.321 42.228-94.952 59.857-108.837 53.194-146.555 93.845-188.85 207.035-19.786 42.587-43.465 83.919-51.329 130.822-9.24 55.27-9.27 111.848-6.053 167.662-6.006.721.53 43.627 5.798 58.49 1.805 5.094 6.13 8.767 11.52 8.682 10.84 5.269 36.29 26.5 47.628 25.796 36.633-2.256 72.242 1.233 107.535-.571 38.184-1.952 75.999-9.075 114.345-8.151 66.872 1.611 18.995 5.581 88.18 8.722 43.675 2.014 203.013-21.839 246.564-17.945 35.424 7.452 51.585-5.111 46.181-42.118-1.998-14.186-8.378-45.733 12.61-47.073 9.928 1.152 18.146 11.073 25.585 16.87 65.698 48.913 132.815 13.693 138.104-66.717 9.957-67.442 23.918-83.375-6.431-150.723-96.019-250.715 48.645-216.652-49.029-334.084-7.627 6.641-5.688-11.084-6.73-14.905Z"/><path id="👕 Top" fill="#78E185" d="M362.212 84.622c62.579 31.917 112.068 47.876 148.466 47.876 36.398 0 100.507 7.431 192.325 22.295l45.339 99.639 100.045 19.546.444 2.604c4.874 27.961 14.188 61.799 30.168 103.525 30.349 67.348 16.388 83.281 6.431 150.723-5.289 80.41-72.406 115.63-138.104 66.717-7.439-5.797-15.657-15.718-25.585-16.87-20.568 1.313-14.852 31.637-12.735 46.202l.125.871c5.404 37.007-10.757 49.57-46.181 42.118-43.551-3.894-202.889 19.959-246.564 17.945-69.185-3.141-21.308-7.111-88.18-8.722-38.346-.924-76.162 6.199-114.345 8.151-33.437 1.709-67.157-1.333-101.763.261l-53.401-25.486c-19.75-141.416-16.75-234.141 9.002-278.174 25.622-43.813 59.932-115.836 102.928-216.07a179.3 179.3 0 0 1 1.994-2.095l189.591-81.056Z"/><path id="🖍 Ink" fill="#000" d="M786.751-58.668c5.24-5.15 13.57-3.87 18.68.71 5.2 4.65 8.33 11.96 11 18.26 11.98 28.33 9.19 59.35 15.25 88.99 11.09 5.99 21.101 13.81 28.19 24.33 10.77 15.98 15.88 34.591 10.48 53.53-2.79 9.8-7.53 18.88-10.91 28.47-3.61 10.21-5.82 20.82-6.88 31.601-1.04 10.58-1.18 21.219-.88 31.839.16 5.5.45 10.991.74 16.48.26 4.921 1.132 10.055-.045 14.876l-.145.555c.46-.071.91-.161 1.36-.26 3.861-.861 7.26-2.201 11.29-1.671 3.14.41 4.77 3.03 3.44 5.99-.58 1.29-1.35 2.37-2.28 3.29 8.1 59.901 22.25 118.84 31.56 178.55 4.22 27.091 6.79 54.261 5.34 81.69l-.153 2.72c-1.478 25.184-5.11 52.936-17.907 74.96-5.98 10.311-14.2 19.46-24.16 26.05-4.561 3.02-9.45 5.38-14.76 6.56-27.52 10.96-56.62 8.27-82.57-6.219-11.67-6.511-23.31-14.101-32.84-23.521-4.63-4.58-9.099-10.41-11.84-16.78.01 1.43-.249 2.892.04 4.301l.577 2.786c4.322 20.7 20.794 97.201 21.013 103.623.118 3.465-29.047 3.382-32.213 3.487l-.087.003c-47.237 1.969-94.503.917-141.713-1.034l-3.727-.156c-45.785-1.938-95.608-4.543-141.442-5.879l.095-.766c.548-4.118 3.218-22.425 3.516-23.828l.011-.048c1.299-5.235 3.805-21.518 2.486-26.92-3.398-13.914-18.708-10.736-29.48-9.261l-2.269.297c-1.743.241-5.986.864-5.946.906-1.145-1.193 1.578-4.576 2.248-5.481l.537-.745c2.894-4.05 5.513-8.258 5.227-13.476-.696-12.749-18.913-12.029-27.865-11.146-.631.062-.889 1.048-.162 1.196l1.766.368c5.679 1.219 18.294 4.326 18.009 9.025-.162 2.67-3.005 4.638-4.742 6.32-1.915 1.855-3.818 3.852-5.231 6.129-2.72 4.383-3.338 10.296-.647 14.859 3.104 5.263 8.61 5.877 14.124 5.398l.313-.028c1.213-.114 2.427-.231 3.64-.348l7.281-.713c1.803-.175 7.596-1.692 9.288-.646 2.398 1.483-.486 8.06-1.027 10.226l-.029.154c-.465 3.137-.743 36.001-.79 38.172-35.719-.829-71.443-8.771-107.161-6.905-28.376 1.482-56.675 4.044-84.998 6.269l-.715-6.081c-7.85-66.204-20.159-153.561-14.251-219.045.462-5.126-7.541-5.095-8 0-6.108 67.714 7.262 158.674 15.039 225.737-12.057.915-24.119 1.747-36.195 2.381l-3.08.157c-41.092 2.054-83.506 2.176-123.72-7.248-1.24-.29-1.66-1.53-1.4-2.56-.4.23-1 .1-1.17-.46-4.685-15.443-7.065-54.761-9.188-71.776l-.142-1.113c-2.18-16.531-3.43-33.25-4.33-49.881-1.82-33.27-1.6-66.58.86-99.81 7.83-105.99 39.01-213.07 104.45-298.25 15.82-20.59 33.83-39.43 55.44-54 21.2-14.3 44.98-24.37 69.11-32.55 15.95-5.41 32.15-10.04 48.35-14.66.613-.307 1.226-.609 1.843-.906l.927-.443c5.76-2.731 11.43-5.721 17.33-8.151l1.304-.53c8.549-3.43 18.51-6.465 27.766-6.36 14.99-7.55 27.58-18.96 26.36-37.26-.5-7.52 11.3-7.51 11.72 0 1.1 19.98-11.209 34.15-26.9 43.66l.075.076.075.084c2.45 2.78 5.07 5.36 7.9 7.76 16.94 14.42 38.37 26.39 59.79 34.27 25.13 9.25 50.24 12.02 76.23 4.54 13.59-3.91 26.42-9.94 38.21-17.74 3.6-2.38 7.05-4.93 10.36-7.66-3.13-4.28-5.63-8.89-7.73-13.78-4.219-9.84-7.71-23.17-3.4-33.56 1.06-2.56 5.27-4.14 6.74-.88 4.05 8.92 5.74 18.56 10.46 27.28a67.937 67.937 0 0 0 6.19 9.44c0 .16 17.72 3.19 17.72 3.19 21.42-.01 41.59 8.22 60.54 18.5 11.201 6.078 22.21 12.542 33.187 19.015l21.453 12.655c1.58.93 3.35 1.83 5.12 2.791-2.07-10.221-3.08-20.641-2.4-30.971 1.03-15.58 7.09-32.62 23.14-38.17 7.59-2.63 16.37-1.82 23.74 1.1 3.4 1.35 7.1 3.14 10.26 5.53 1.531-6.88 7.98-12.04 14.46-14.32a28.14 28.14 0 0 1 6.43-1.44 46.934 46.934 0 0 1-.055-3.371l.015-.87c.1-5.1.06-10.2-.05-15.29-.2-9.65-.66-19.1-1.64-28.72-.819-7.963-2.24-15.836-3.296-23.767l-.437-3.41c-.89-6.716-2.384-15.08 2.903-20.272ZM142.406 592.52l-1.788-1.062c-5.856-3.455-11.888-6.642-18.982-5.042-6.758 1.523-11.552 7.01-14.071 13.193-1.19 2.921-1.811 5.867-2.27 8.979-.258 1.742-.432 3.499-.738 5.234l-.103.537c-.138.691-.35 1.653-.543 2.488-1.844-.812-3.701-2.099-5.21-2.863l-1.217-.612c-2.856-1.422-5.828-2.775-8.94-3.433-6.742-1.425-14.221.636-18.075 6.676-3.297 5.164-3.23 11.252-1.968 17.041l.09.403c.547 2.402 3.374 12.021 7.486 10.618 3.999-1.365 4.533-6.681 4.836-10.223l.022-.338c.136-2.671-.393-8.283 2.632-9.297 3.779-1.266 11.05 4.519 14.34 6.031 5.886 2.702 12.351 3.5 17.14-1.758 4.293-4.714 4.656-11.614 5.767-17.593l.287-1.506c.589-3.037 1.73-7.89 5.092-7.767 2.747.102 5.763 2.948 8.027 4.299 2.499 1.492 5.094 2.735 7.806 3.795 6.329 2.474 13.366 3.264 20.099 2.534 3.901-.422 6.441-2.285 7.82-5.953a17.652 17.652 0 0 0 1.069-3.337c2.186-8.213-9.758-14.076-14.162-6.728-5.081-.193-9.811-1.561-14.446-4.316ZM877.5 537.598c-3.642-2.598-8.588-2.039-11.843.888l-.194.181c-.903.872-2.937 3.14-4.254 5.134l-.413-.32a21.63 21.63 0 0 1-.192-.153l-.178-.148c-2.692-2.275-5.505-4.36-8.969-5.289-9.026-2.426-17.229 3.617-21.17 11.365-1.869 3.675-2.669 7.47-3.601 11.433l-.08.365c-.375 1.847-.864 5.591-2.483 6.506-.595.336-1.945-.328-3.281-1.099-3.047-1.758-5.782-3.999-8.768-5.852-7.006-4.348-14.967-6.144-22.835-3.01-7.789 3.101-13.369 10.42-13.5 18.95-.097 6.287 4.113 17.258 12.036 16.492 1.587-.154 3.63-1.131 3.887-2.96.683-4.854-3.145-10.817 1.245-14.826 4.245-3.876 8.643-.616 12.486 2.072l2.753 1.932c4.472 3.106 9.078 5.951 14.741 6.29 7.164.428 13.778-3.528 17.383-9.627 3.259-5.512 3.307-11.747 5.855-17.408.557-1.237 1.993-2.376 1.515-2.946 1.931 1.006 4.422 3.904 5.625 4.715 5.99 4.042 13.998 4.012 19.249-1.346 2.092-2.132 3.424-4.764 4.973-7.275.56-.908 1.259-1.748 1.77-2.682.187-.343.494-1.619.746-2.756l.389-1.806.04-.295c.332-2.735-.634-4.887-2.932-6.525Zm-230.715-23.872c-6.881-3.613-15.364-2.239-21.563 2.139-6.951 4.909-10.362 12.45-12.682 20.42-1.688 5.803-2.497 13.805-7.348 18.007-5.646 4.89-15.111-.301-21.071-2.229-7.211-2.331-15.876-3.286-22.912.163-6.895 3.381-10.218 10.276-10.93 17.663-.665 6.894.323 15.973 4.256 21.742.387.568 1.126.422 1.371-.18 2.585-6.365 2.087-13.647 4.186-20.234 2.241-7.031 7.493-8.519 14.161-6.627 6.955 1.972 13.324 5.664 20.477 6.978 7.626 1.401 15.177-.043 21.189-5.083 5.058-4.24 8.121-10.416 10.191-16.569 2.017-5.999 2.346-14.03 6.642-19.01 1.084-1.257 2.973-2.775 4.727-2.936 2.606-.24 3.548 1.696 5.653 3.181 5.553 3.918 14.417 3.997 17.817-2.895 1.113-2.257 1.665-5.461 0-7.67-2.919-3.871-5.316-3.839-9.168-3.002a3.524 3.524 0 0 1-.413-.416l-.118-.143c-1.019-1.291-2.998-2.528-4.465-3.299Zm-272.537-40.677c-.228-5.181-6.465-10.153-11.385-6.533a61.168 61.168 0 0 0-2.341 1.783l-.314.339c-.916-.003-1.769-.243-2.673-.532l-1.582-.507c-4.151-1.317-8.143-2.378-12.574-1.406-7.625 1.674-12.463 8.252-14.947 15.235-2.315 6.507-1.555 13.146-2.641 19.818-1.03 6.326-4.281 8.795-10.385 7.44l-.312-.072c-12.141-2.907-25.974-11.038-36.618.109-11.499 12.041-3.977 31.165 8.61 38.902.55.338 1.158-.218 1.033-.794-1.672-7.778-6.551-15.196-4.916-23.452 1.133-5.722 5.109-8.43 10.783-7.518 11.934 1.92 23.096 11.43 35.336 4.528 6.114-3.45 9.483-9.928 11.006-16.564 1.372-5.973.983-12.708 3.612-18.342 2.876-6.165 7.72-1.695 12.94-.854 7.385 1.191 17.761-2.682 17.368-11.58Zm400.377-184.233c.024-5.148-7.976-5.154-8 0-.295 65.221-30.807 125.507-36.288 190.08-.434 5.13 7.568 5.101 8 0 5.483-64.592 35.993-124.754 36.288-190.08ZM114.024 395.577c-4.212-4.77-10.382-3.29-15.394-.9-7.528 3.589-14.732 7.624-21.638 12.288-1.7 1.146-.628 3.639 1.372 3.256 5.065-.974 9.995-2.065 14.909-3.645 3.693-1.186 7.537-2.909 11.388-3.52a23.065 23.065 0 0 1-.879 2.606c-.632 1.748-1.366 3.459-1.989 5.213-1.24 3.492-2.357 7.034-3.44 10.579l-.538 1.773c-2.251 7.432-4.438 18.249 5.95 20.537 3.854.847 7.674-.832 11.259-2.152l.739-.267 13.078-4.635c1.558-.552 4.444-.937 5.736-1.905l-.207.993c-.268 1.317-.53 2.61-1.097 3.923l-.317.724c-3.248 7.365-7.344 14.734-3.555 22.875 3.246 6.975 10.919 10.285 18.313 8.305 7.027-1.881 12.112-9.794 8.474-16.677-1.356-2.566-5.322-3.821-7.843-2.219l-.677.451c-.794.518-2.16 1.407-2.193 1.572-.188.049-.385.098-.585.147.424-1.248.71-3.166 1.082-4.016l1.368-3.108c2.546-5.84 4.753-11.782 2.811-18.332-5.563-18.756-24.428-8.092-38.344-2.74.203-.792.404-1.575.574-2.342.6-2.716 1.256-5.416 1.905-8.12l1.331-5.578c1.199-5.141 2.131-10.866-1.593-15.086Zm711.988-20.934c.012-.444-.534-.784-.917-.526-8.897 5.981-14.849 18.469-11.506 29.108 1.623 5.166 5.075 9.697 9.921 12.205 6.025 3.116 12.678 1.93 19.008.596l2.689-.574c1.895-.399 3.765-.691 5.694-.159.662.183 1.43.76 2.059.884-.26.442-.536 1.209-.676 1.493l-.459.923c-.46.935-.909 1.907-1.191 2.89-.946 3.295-.712 6.833.82 9.908 2.854 5.728 8.84 8.957 15.072 9.505 3.713.329 13.068-2.922 15.28 1.017 4.39 7.818 16.891 2.56 14.461-6.097-1.643-5.853-6.304-9.635-12.079-11.218-3.077-.843-6.262-.729-9.391-.384-1.226.135-2.448.325-3.675.455l-.921.085c.24-.019-2.543-.086-3.661-.16l.238-.641c.035-.091.067-.17.096-.231 1.244-2.661 2.166-5.312 2.091-8.285-.137-5.361-3.607-10.038-8.166-12.619-4.203-2.381-9.208-3.331-13.986-2.8-5.252.584-12.716 4.744-17.881 2.552-3.891-1.652-5.212-7.413-5.272-11.188-.09-5.686 2.194-11.075 2.352-16.739ZM463.634 337.35c-14.314-6.424-26.606 4.548-35.006 15.046-.433.542.112 1.454.795 1.032l1.115-.696c6.859-4.301 14.463-9.383 22.962-7.918 7.694 1.326 9.6 6.361 8.068 13.222l-.449 1.93c-1.628 7.065-2.876 14.377 1.178 20.948 3.827 6.204 11.294 8.915 18.287 9.081 8.066.191 15.029-3.561 22.404-6.178l.584-.204c3.132-1.081 14.559-3.907 14.717 2.529.074 2.941-3.076 6.398-4.287 9.042-1.585 3.46-2.64 7.094-2.621 10.936.047 9.581 8.041 17.363 17.5 12.715 3.677-1.808 4.625-6.993 2.707-10.325-2.701-4.696-3.795-4.452-1.902-9.384l.546-1.388c2.329-5.943 4.183-12.06 1.567-18.297-5.226-12.457-20.896-13.966-32.091-9.841l-.409.155c-6.968 2.699-27.837 13.515-26.398-1.78.566-6.025 2.394-11.803 1.116-17.894-1.188-5.656-5.135-10.376-10.383-12.731Zm-68.973-51.159c-2.613-4.601-11.385-2.955-10.658 2.886l.232 1.818c.298 2.488.363 4.826-1.356 7.039-2.086 2.686-5.657 3.498-8.898 3.087-6.862-.869-11.238-7.231-18.79-5.745-6.13 1.206-10.363 6.222-12.814 11.691-2.595 5.792-2.54 12.071-4.473 18.035-2.226 6.859-6.973 6.543-12.901 4.143l-1.276-.524c-5.671-2.358-11.361-4.978-17.68-3.851-10.495 1.873-19.533 18.01-9.7 25.802 1.775 1.406 4.877.672 4.802-1.988l-.01-.504c-.05-4.841 1.171-11.087 6.719-12.228 5.883-1.21 12.53 4.158 17.993 5.704 14.149 4.002 22.209-6.647 24.612-19.242l.087-.483c.768-4.408 1.374-12.566 5.985-14.63 2.459-1.101 5.082 1.608 7.137 2.699 3.193 1.694 6.619 2.77 10.231 3.045 13.362 1.019 28.545-13.034 20.758-26.754Zm334.374-17.397c-4.403-1.907-10.969-.846-12.045 4.9l-.653 3.616c-1.279 6.984-3.316 15.716-10.181 18.232-4.294 1.573-9.225-1.184-13.076-2.865-4.625-2.021-9.134-3.754-14.199-4.234-10.277-.974-17.932 4.972-21.567 14.264l-.318.827c-2.931 7.808-6.894 22.741-.474 29.074.937.925 2.826 1.376 3.976.513 3.792-2.846 4.752-7.522 6.054-11.908l.113-.375c1.382-4.555 2.515-9.571 5.01-13.675 4.638-7.627 16.739 1.082 22.56 3.093 9.559 3.303 19.472 1.373 26.777-5.692 4.614-4.463 7.342-10.112 9.218-16.091 1.198.619 2.441 1.155 3.78 1.517 5.1 1.381 11.15.653 15.033-3.211 7.288-7.251 3.335-20.258-7.777-18.155-2.188.414-3.624 2.504-3.884 4.639l-.149.337c-2.796-.924-5.853-3.791-8.198-4.806ZM214.119 204.01c-10.382-10.681-28.399-4.891-35.5 6.439-1.473 2.349.96 5.327 3.546 4.613 6.181-1.703 14.903-8.407 21.435-4.14 4.842 3.163 2.208 11.43 1.765 16.055l-.064.69c-.561 6.295-.688 14.909 4.216 19.622 2.822 2.713 7.151 2.346 10.873 1.958l1.184-.122c4.388-.441 8.747-1.215 12.95-2.565 3.864-1.24 7.525-2.925 11.155-4.71l.908-.448c1.607-.797 6.966-3.958 8.571-1.972.837 1.036-1.237 5.574-1.668 6.586-1.628 3.806-3.698 7.39-5.191 11.264-2.631 6.825-2.851 14.525.844 21.038 3.58 6.311 11.337 11.424 18.212 6.576 3.936-2.776 3.925-7.826 0-10.604-2.077-1.47-4.171-2.439-5.029-4.905-1.12-3.216.321-6.626 1.716-9.603l1.67-3.54c3.7-7.907 7.397-17.001 2.228-25.083-5.338-8.345-16.187-8.477-24.394-5.001-4.684 1.984-8.958 4.645-13.839 6.18a53.964 53.964 0 0 1-10.226 2.162c-.771-4.162.32-8.821.331-12.956.018-6.281-1.152-12.862-5.693-17.534ZM749.481 55.432c-17.52-2.57-26 13.1-27.21 28.19-1.09 13.7 1.13 27.44 4.6 40.761 1.3 4.939 2.76 9.819 4.29 14.619 2.46 7.711 5.13 15.41 8.38 22.83.99 2.24 1.99 4.49 3.11 6.65 3.836 3.145 7.119 7.383 10.103 11.455l1.961 2.689.526.726c5.07 6.94 9.4 14.14 12.94 21.97 3.371 7.457 5.881 15.232 7.831 23.168l.48 1.982c1.5 6.107 3.712 13.397 1.039 19.081 5.25 1.619 10.47 3.089 16.05 3.869 7.7 1.08 15.71 1.15 23.48.87 7.507-.275 15.006-.861 22.481-1.658l5.386-.593c.558-.063 1.116-.129 1.673-.199-.21-.26-.39-.55-.52-.869-1.919-4.601-1.672-9.935-1.885-14.883l-.025-.548c-.28-5.489-.45-10.98-.52-16.48-.13-10.32.15-20.67 1.28-30.94.979-8.989 2.51-17.98 4.9-26.71 2.41-8.85 6.09-17.16 9.49-25.66 3.36-8.4 6.131-17.029 5.83-26.19-.19-5.82-1.47-11.48-3.64-16.83a.549.549 0 0 1-.38.13c-6.81-.25-13.26-2.22-19.84-3.88-6.98-1.77-14.13-3.22-21.27-4.08l-1.518-.178c-5.951-.668-12.434-.993-17.932 1.558-5.95 2.77-9.7 8.93-11.96 14.84l-.252.681c-4.016 11.203-3.095 26.157 9.322 31.459 3.85 1.65 12.64 2.66 14.62-2.56.89-2.38-.94-5.899-1.63-8.149-.81-2.681-1.34-5.321-1.28-8.121.048-2.456 1.924-4.308 4.311-4.507l.219-.013c4.34-.189 13.29-5.189 14.16 2.01.17 1.4-.9 2.87-2.03 3.551a24.123 24.123 0 0 1-7.14 2.799c.34 1.5.82 2.97 1.291 4.43.279-.14.589-.229.919-.26 3.67-.3 7.3.281 10.97.32l2.006.014c2.848.028 5.331.181 8.094 1.656 2.55 1.36 2.1 4.77 0 6.23-5.51 3.82-14.84 1.58-20.58-2.3.25 1.97.13 3.98-.71 6.09-2.48 6.261-9.59 9.38-15.949 9.65-5.651.24-11.051-1.54-15.561-4.66-.92 3.29-2.4 6.45-3.04 9.861-.84 4.479.16 9.719-1.399 13.929-1.561 4.241-7.591 7.08-11.081 2.92-5.11-6.08-3.52-15.71.97-21.87 2.39-3.26 6.73-7 11.15-7.59-3.07-2.889-5.53-6.46-7.08-10.4-.11.05-.24.06-.38.02-14.37-3.929-22.19-16.95-22.67-30.62a28.696 28.696 0 0 1-3.31 2.05c-2.75 1.48-6.28.18-7.13-2.89-.78-2.86 1.49-6.39 4.68-6.15 1.82.15 3.65.16 5.46-.14.25-.04.49-.09.74-.14.16-1.05.37-2.1.63-3.14-5.43.62-11.11-.27-16.36-1.43-4.52-.99-3.47-8.18 1.08-8.01l.731.032c5.969.286 14.783 1.25 19.899-2.532.9-1.3 1.9-2.53 2.98-3.69.14-.29.26-.6.37-.92 2.75-7.92-10.28-12.44-16.15-13.3ZM592.209 166.85c-6.821-1.824-13.999.661-18.69 5.811-3.942 4.329-5.984 9.645-7.808 15.079l-1.042 3.126c-1.516 4.426-3.258 7.938-8.677 6.251-6.946-2.163-12.967-5.931-20.52-5.634-6.866.271-13.585 3.224-18.365 8.174-4.89 5.063-7.224 12.117-6.186 19.067l.068.426c.541 3.202 5.224 14.63 10.188 9.369 2.215-2.346 1.778-4.943 2.304-7.924.5-2.84 1.57-5.625 3.323-7.928 3.108-4.082 8.107-5.673 12.994-4.229 6.446 1.905 12.139 5.832 19.083 5.924 7.305.098 13.507-3.69 17.536-9.637 3.253-4.801 4.413-10.42 6.702-15.64l.22-.498c1.922-4.295 3.232-5.846 7.634-3.792l1.538.737c6.591 3.132 14.004 5.998 20.819 1.583 6.331-4.101 9.03-12.343 3.705-18.344-2.938-3.313-9.739-2.749-11.648 1.501a61.746 61.746 0 0 0-.952 2.215 8.457 8.457 0 0 1-1.688-.696c-3.572-1.61-6.674-3.907-10.538-4.941Zm-199.119-48.52c-7.781-4.193-14.276 4.054-13.033 11.5l.06.327c.046.224.151.715.282 1.277a9.262 9.262 0 0 1-1.182-.218l-1.808-.221c-2.841-.33-5.596-.502-8.44.41-6.713 2.154-10.014 8.679-10.176 15.366-.161 6.664 3.287 12.039 4.3 18.405 1.036 6.51-5.703 4.651-10.102 4.175l-.172-.018c-6.12-.619-12.554-.63-17.64 3.359-5.253 4.119-7.58 11.237-6.838 17.754.67 5.886 4.353 14.945 11.025 15.875.659.092 1.409-.053 1.747-.711 2.698-5.246-1.056-11.039-.632-16.574.467-6.087 4.348-7.1 9.699-6.706 5.193.382 10.373 1.484 15.502-.065 5.564-1.682 9.602-6.456 10.744-12.088 1.259-6.207-1.055-11.982-2.556-17.881-.499-1.959-.744-3.93-.4-5.933.074-.433.45-.833.586-1.004.854-.16 2.132.249 2.863.327l1.037.102c5.635.509 11.063.168 15.09-4.488 2.063-2.386 2.825-5.301 2.619-8.379l-.103-1.242c-.11-1.196-.321-2.773-.942-3.431l-.008-.032c.208-.28.406-.567.587-.866l.176-.302c1.726-2.877.725-7.096-2.285-8.718Zm398.612-72.99c-7.75 0-15.071 2.53-20.931 9.42 2.09 1.99 3.76 4.3 4.681 7.01a42.945 42.945 0 0 1 9.019-3.67c9.49-2.65 22.47-2.61 30.45 3.9 4.18 3.4-.41 9.5-4.91 8.45-4.03-.94-7.53-2.68-11.76-2.88-3.67-.18-7.27.3-10.79 1.36-5.37 1.622-10.25 4.69-13.84 8.92-1.2 1.42-2.25 2.96-3.13 4.622-6.7 12.719-1.65 30.959 7.6 41.429-3.63-12.06-.01-26.28 7.22-36.27 8.704-12.027 21.723-13.39 35.438-11.513l.453.063c13.269 1.87 29.699 5.14 39.619 14.89a56.25 56.25 0 0 0-3.411-6.54c-7.519-12.38-19.989-22.04-32.929-28.93-2.17-1.17-4.36-2.25-6.54-3.25-8.29-3.81-17.53-7.01-26.239-7.01Zm4.239-94.48-.031.142-.019.079c-.459 4.066.623 8.734 1.175 12.838l.075.582c1.16 9.34 2.69 18.69 3.19 28.1.486 9.049.299 18.435-.789 27.445l-.161 1.285c-.64 4.91-1.02 10.67-2.679 15.71 6.379.61 12.759 2.66 18.559 4.84 2.08.79 4.15 1.62 6.21 2.5-2.58-13.71-3.96-27.62-6.76-41.29l-.551-2.72c-3.044-15.123-5.901-30.342-13.769-43.87-1.05-1.8-2.18-3.31-3.46-4.92-.28-.37-.61-.61-.99-.72Z"/></g></svg>