<svg xmlns="http://www.w3.org/2000/svg" width="818" height="733" fill="none" viewBox="0 0 818 733"><g id="body/Polo and Sweater" fill-rule="evenodd" clip-rule="evenodd"><path id="✋ Skin" fill="#D08B5B" d="M96.774 708.934c61.232 1.714 119.075 3.605 180.189 0 97.796-6.049 384.794 4.855 447.879 0 4.761-.366 21.133 4.855 21.474 0 2.773-33.807 4.571-375.844-3.668-399.378-8.239-23.535-48.907-136.669-100.726-189.423-14.449-14.252-36.437-19.772-48.583-36.242-10.472-17.96-9.659-28.5-20.001-37.95-4.488-4.1-15.072-5.762-22.937-11.454-7.908-7.859-.421-25.159-3.667-36.103-6.69-27.326-31.337-44.857-58.276-48.988-37.442-8.959-76.97-.488-94.904 28.923-6.676 10.947-3.123 24.254-11.334 41.796.586 13.257-14.891 16.46-24.142 21.713l-18.371 18.568c-56.6 31.846-123.184 49.042-172.777 91.828-42.164 42.773-84.102 92.211-102.81 150.081-3.873 15.769-5.137 32.067-6.742 48.18-4.582 47.088-17.34 92.791-28.32 138.658-12.52 57.789-24.192 119.135-7.317 177.471 4.864 12.347 63.958 41.743 75.033 42.32Z"/><path id="Path" fill="#FDEA6B" d="m381.967 19.992 4.782.512V57.32l62.531 65.049 11.428 13.063c-6.812 24.291.047 36.437 20.579 36.437 30.798 0 6.988-8.949 12.779-21.061l.244-.496c4.199-8.293 18.566-25.881 43.102-52.765l28.144-47.043v-8.59l.953.39c2.658 1.106 4.95 2.236 6.508 3.659 10.342 9.449 9.529 19.99 20.001 37.95 12.146 16.469 34.134 21.99 48.583 36.242 51.819 52.754 92.487 165.888 100.726 189.422 8.239 23.535 6.441 365.572 3.668 399.379-.341 4.855-16.714-.366-21.474 0-63.085 4.855-350.084-6.049-447.88 0-61.114 3.605-118.956 1.714-180.188 0-11.075-.577-70.169-29.974-75.034-42.321-16.874-58.336-5.203-119.681 7.317-177.47l1.085-4.511c10.541-43.603 22.395-87.103 27.004-131.832l.232-2.315c1.605-16.113 2.869-32.411 6.742-48.18 18.708-57.87 60.646-107.308 102.81-150.081 49.097-42.358 114.846-59.636 171.075-90.878l1.701-.95 18.372-18.568.562-.313c9.302-5.072 24.154-8.408 23.58-21.4l.068-.146Z"/><path id="🖍 Ink" fill="#000" d="M390.31-16.973c.49-1.6 2.601-1.15 2.761.37 1.59 15.08-.41 30.84-2.33 45.82-.92 7.23-1.451 14.75-2.851 21.88-.18.76-.35 1.53-.51 2.29.46.82 1.821 1.74 2.47 2.37l2.823 2.744 5.657 5.477c11.071 10.72 22.14 21.449 33.21 32.17l16.25 15.749c5.571 5.399 11.901 10.57 16.79 16.59 2.651 3.269 3.25 7.279.64 10.779-1.29 1.73-3.609 2.99-5.96 3.25.92 1.28 1.63 2.73 2.08 4.341.92 3.28-2.399 7.309-5.929 5.939-4.01-1.54-7.321-4.3-11.401-5.62-4.12-1.34-8.599-1.599-12.87-.88-1.96.33-3.88.821-5.75 1.441 20.011 9.21 41.66 14.5 63.74 15.259 4.5.151 8.991.09 13.46-.209 7.521-.491 14.99-1.63 22.33-3.47a135.928 135.928 0 0 0 17.021-5.471c2.72-1.08 5.409-2.269 8.01-3.619l.228-.134c.588-.368 11.453-6.53 11.642-7.456.189-.926.189-1.248-.164-2.054-.354-.806-1.334-1.362-1.334-1.362-3.357-1.435-6.835-2.77-10.502-2.795-8.441-.05-17.651 6.191-24.63 10.441-7.67 4.67-14.721 10.129-22.101 15.19a.936.936 0 0 1-.54.17c-.779 0-1.5-.961-1-1.711 5.289-7.787 12.429-14.272 19.896-19.933l3.01-2.256c6.839-5.1 14.839-10.749 23.155-11.981 10.189-1.5 20.83 4.851 29.92 8.57l16.099 6.59c2.87 1.17 5.991 2.17 8.88 3.5l-6.747-21.108a8779.042 8779.042 0 0 1-10.062-31.68l-.646-2.07c-3.317-10.726-6.361-21.883-11.885-31.68-1.32-2.35-2.83-4.56-4.32-6.792-1.55-2.309-2.13-4.858-4.079-6.92-3.86-4.09-9.391-6.49-14.671-8.059-1.29-.38-.909-2.08.301-2.21 5.418-.57 10.585.693 15.481 2.978l2.035.971c4.631 2.19 9.145 4.228 12.583 8.16 7.839 8.98 11.91 20.288 15.651 31.446l1 2.995c1.399-.46 10.909 2.44 12.099 3.13 35.651 15.07 63.111 43.129 83.191 76.009 22 36.03 33.979 77.2 43.869 117.941a1957.692 1957.692 0 0 1 8.775 37.825c-12.493 4.807-25.771 7.322-37.466 14.094-4.455 2.579-.431 9.495 4.037 6.908 10.954-6.342 23.431-8.685 35.156-13.139 6.357 29.263 12.012 58.686 16.748 88.232 14.551 90.68 23.74 182.839 23.16 274.759-.01 2.031-.609 4.3-1.72 6.25.651-.319 1.161-.7 1.451-1.159 3.689-5.791 12.939-.42 9.229 5.4l-.542.844c-2.784 4.292-5.383 7.572-10.277 9.995-4.931 2.441-10.271 2.851-15.71 2.991-18.49.487-36.993.804-55.502 1.032-2.538-19.797-3.57-39.785-7.067-59.467-.899-5.061-8.61-2.916-7.714 2.127 3.377 19.006 4.458 38.3 6.815 57.436-39.57.427-79.162.431-118.702.542-53.585.158-107.163.047-160.746.016l-22.964-.007c-61.9 0-123.801-.2-185.7-.61l-14.721-.104c-5.856-34.521-9.842-69.337-9.916-104.417-.011-5.147-8.011-5.157-8 0 .074 35.041 4.016 69.861 9.818 104.372-14.656-.064-29.305-.011-43.962.509l-7.46.266c-14.926.511-29.882.826-44.78-.365-16.54-1.33-33.269-4.37-48.099-12.16a67.735 67.735 0 0 1-17.586-13.291c5.109-2.972 10.291-5.823 15.24-9.061 4.291-2.807.288-9.737-4.038-6.907-5.333 3.49-10.939 6.529-16.43 9.757-3.976-5.306-7.239-11.194-9.717-17.548-3.91-10.031-5.42-20.821-6.73-31.441C9.641 619.287 9 606.676 9 594.077c0-26.5 2.79-52.92 6.681-79.1 3.72-25.08 8.64-49.959 13.838-74.759l.711-3.382c5.13-24.38 10.02-48.83 15.9-73.04 5.437-22.387 11.72-44.669 19.208-66.52 6.665 4.121 13.64 7.726 20.201 12.019 4.321 2.828 8.334-4.096 4.038-6.907-7-4.581-14.466-8.388-21.53-12.864 8.373-23.398 18.201-46.25 29.984-68.137 23.599-43.83 55.4-83.041 96.13-111.98 20.389-14.48 42.759-26.33 66.25-34.95 23.95-8.8 48.769-13.62 74.149-15.6.725-.057 1.131.614 1.102 1.234l-.011.115 1 .161c.37-2.51 1.13-4.94 2.58-7.17 3.3-5.08 9.559-8.34 14.559-11.46l1.185-.737c5.949-3.687 12.227-7.32 19.146-8.612.24-.041.389.209.229.4-4.563 5.23-10.397 9.228-15.744 13.652l-1.229 1.025c-4.431 3.647-10.612 7.786-10.777 13.881-.189 7.182 1.28 14.65 1.811 21.812.53 7.138.899 14.269 1.089 21.428.691 25.651-.139 51.311-2.41 76.861l10.039-6.721c15.624-10.458 31.3-20.888 47.301-30.68 9.681-5.929 20.561-11 32.16-10.769 3.25.059 6.92.53 10.441 1.53-3.79-3.59-7.42-7.41-11.13-11.02-6.111-5.951-12.221-11.9-18.33-17.84l-17.617-17.16-17.624-17.16c-5.459-5.33-11.86-10.24-11.28-18.64.471-6.7 3.88-13.37 6.21-19.83.33-.93.63-1.85.91-2.76 4.701-15.62 7.37-31.81 12.14-47.37Zm227.691 670.194c-3.644-3.646-9.302 2.009-5.656 5.656l1.928 1.92c3.22 3.213 6.412 6.524 8.64 10.495l.327.6c2.401 4.556 9.309.518 6.907-4.038-2.969-5.631-7.692-10.177-12.146-14.633Zm-156.132-1.029c-11.601-2.215-22.782-2.215-34.383 0-5.051.965-2.912 8.677 2.127 7.715 10.146-1.938 19.982-1.938 30.129 0 5.031.96 7.186-6.748 2.127-7.715Zm-156.672-80.64c-4.992-1.265-7.122 6.449-2.126 7.714l2.46.618c8.361 2.066 16.324 3.605 25.01 1.687 4.959-1.096 2.954-8.623-1.93-7.754l-.197.039c-8.037 1.775-15.441-.334-23.217-2.304Zm278.245-51.963c-3.694-3.591-9.357 2.06-5.657 5.656 4.617 4.49 10.058 7.902 16.652 8.084 5.073.142 5.145-7.62.227-7.988l-.227-.012c-4.419-.123-7.94-2.769-10.995-5.74Zm-470.825-21.366c4.606-2.303.559-9.205-4.037-6.907l-27.648 13.823c-4.606 2.303-.559 9.207 4.037 6.908l27.648-13.824Zm546.332 1.763c-5.15-.145-5.146 7.855 0 8 4.839.135 9.798 1.968 14.109 4.061 4.612 2.24 8.673-4.656 4.038-6.908-5.636-2.736-11.823-4.977-18.147-5.153ZM400.617 461.36c4.234-2.877.236-9.813-4.038-6.908-5.832 3.962-11.116 8.645-16.855 12.727l-1.577 1.097c-4.234 2.877-.236 9.811 4.038 6.908 6.361-4.323 12.071-9.503 18.432-13.824Zm297.5-58.143c-5.148-.002-5.156 7.998 0 8l.976-.003c4.249-.023 8.728-.141 12.679 1.557l.454.204c4.632 2.182 8.697-4.713 4.038-6.907-5.793-2.728-11.85-2.848-18.147-2.851Zm-444.28-5.714.672-.253c4.81-1.727 2.736-9.461-2.127-7.713-7.328 2.633-13.029 7.606-19.386 11.922-4.236 2.877-.238 9.811 4.037 6.909 5.477-3.72 10.573-8.43 16.804-10.865Zm300.068-20.813 1.079-.578c4.58-2.357.537-9.262-4.037-6.908-3.631 1.869-6.88 4.354-10.442 6.335l-1.079.577c-4.579 2.356-.537 9.261 4.038 6.908 3.631-1.869 6.88-4.354 10.441-6.334Zm-121.703-77.488-.824-.796c-3.682-3.605-9.343 2.048-5.657 5.657 9.206 9.01 20.09 15.851 31.069 22.465l1.997 1.2c4.425 2.655 8.452-4.259 4.038-6.908l-2.931-1.761c-9.761-5.887-19.409-11.964-27.692-19.857Zm-221.382-7.469c3.102-4.028-3.644-7.97-6.797-4.176l-.111.138c-3.229 4.192-7.061 7.988-11.065 11.451l-.753.645c-2.384 2.028-6.723 6.373-10.072 6.659-5.092.433-5.138 8.437 0 8 5.182-.441 9.641-4.088 13.556-7.213a90.32 90.32 0 0 0 15.242-15.504Zm425.613-29.143c3.717-3.491-1.774-9.049-5.524-5.775l-.132.119c-6.947 6.526-16.94 8.277-25.883 10.49-4.995 1.238-2.879 8.954 2.127 7.715l4.074-1.005c9.139-2.281 18.309-4.937 25.338-11.544Zm-158.436-50.461c-4.992-1.269-7.122 6.445-2.126 7.714 8.485 2.156 16.522 4.943 24.387 8.813 4.604 2.264 8.662-4.632 4.038-6.908-8.462-4.164-17.163-7.297-26.299-9.619ZM559.72 43.487c-.12-.36.261-.77.63-.64 8.978 3.347 4.205 15.105 1.416 22.143l-.506 1.287c-4.37 11.28-10.479 22.26-17.139 32.36a272.404 272.404 0 0 1-23.09 30.19 255.937 255.937 0 0 1-11.304 12.017l-1.467 1.452c-3.939 3.871-9.019 10.671-15.13 9.921-6.58-.791-10.25-7.82-5.45-13.16 3.391-3.78 8.091-6.791 11.88-10.23a258.323 258.323 0 0 0 10.95-10.52c7.261-7.41 14.141-15.24 20.431-23.49 6.083-7.978 11.905-16.177 17.198-24.7l1.052-1.71c4.029-6.63 13.33-16.38 10.529-24.92Zm-318.079 83.798c-4.262-2.914-8.268 4.016-4.038 6.907 7.778 5.316 14.621 11.756 23.04 16.128 4.508 2.342 8.516-4.369 4.198-6.82l-.16-.087c-8.413-4.371-15.266-10.816-23.04-16.128Z"/></g></svg>