<svg xmlns="http://www.w3.org/2000/svg" width="818" height="733" fill="none" viewBox="0 0 818 733">
    <g id="body/Shirt and Coat" fill-rule="evenodd" clip-rule="evenodd">
        <path id="👕 Top" fill="#8FA7DF"
            d="m386.476 23.65-12.234 30.246 6.741 95.87 5.016.782c52.974 8.211 88.972 12.359 107.992 12.444l.588.001c19.154 0 42.106-4.278 68.855-12.835l1.218-.392 3.088-71.785h-7.282l-13.173-30.883.012-.01c.145.247.296.487.453.72 5.492 8.123 8.675 1.562 21.578 4.435 15.448 3.44 22.306 19.053 35.906 30.721 6.315 5.418 19.568 7.972 25.911 11.696l6.662 3.915c20.875 12.313 44.869 27.27 57.467 46.754 14.768 22.842 24.948 44.519 34.348 69.929 20.262 54.769 34.326 110.658 44.375 168.134 10.186 58.253 16.307 117.229 20.982 176.159a3504.063 3504.063 0 0 1 5.526 81.992l.375 6.838c.801 14.882.105 29.444-13.426 38.608-9.695 6.564-22.561 7.564-33.935 8.238l-.619.037c-84.094 4.932-168.19 9.827-252.284 14.733l-126.141 7.375c-20.989 1.23-41.978 2.45-62.967 3.664l-51.232 2.959c-24.147 1.374-48.323 2.563-72.501 2.423-30.421-.178-60.712-2.424-90.851-6.479l-2.66-.362c-18.961-2.618-46.455-9.242-49.861-31.983-.49-3.265 2.385-5.305 4.798-4.836-.794-3.701-1.287-7.409-1.758-10.628-2.021-13.76-3.29-27.608-3.917-41.5-1.258-27.798-.198-55.725 2.58-83.401 4.598-45.789 11.043-91.497 17.702-137.046l1.483-10.119c7.083-48.258 15.516-96.435 28.712-143.442 12.19-43.424 31.206-88.598 57.373-116.057 26.167-27.458 63.475-51.314 101.81-65.927 3.32-1.266 69.28-15.707 73.724-13.604l.798-.626c13.151-10.382 31.911-28.618 51.226-22.875l.044-.073c.455-.837 2.24-6.44 4.704-13.81h2.794Z" />
        <path id="✋ Skin" fill="#D08B5B"
            d="M400.426-16.606c15.976-20.254 32.816-26.693 57.7-25.184 16.875-.603 33.705 3.777 47.994 13.453 13.092 6.841 24.702 16.258 32.989 28.38 7.087 10.364 1.702 35.974 8.176 47.055a62.668 62.668 0 0 0-.096 3.298c0 9.589 6.674 20.29 20.02 32.102l.53.466v69.68c-22.438 6.899-50.219 10.349-83.341 10.349-32.629 0-66.566-5.478-101.813-16.435l-1.603-.502-6.741-75.73 6.741-20.956-.001-17.552 2.605-7.85c4.612-13.804 11.673-34.023 16.84-40.574Z" />
        <path id="👕 Top_2" fill="#9FD8E5"
            d="M380.982 146.056s59.245 17.252 99.69 17.252 83.98-17.252 83.98-17.252l-7.062 567.912-113.674 1.389-62.934-569.301Z" />
        <path id="🖍 Ink" fill="#000"
            d="M185.956 394.025c-.438-.82.578-1.557 1.252-.966 15.313 13.438 23.33 35.019 25.011 54.967 1.781 21.153-.744 43.054-1.709 64.198-1.074 23.552-2.039 47.113-3.35 70.654-1.331 23.884-2.765 47.76-3.994 71.649l-2.765 53.738c-.294 5.727.343 12.77-1.855 18.115-3.406 8.286-13.524 7.003-15.65.078l-.066-.228-.194.15c-1.876-6.241-.472-13.653-.154-20.106l2.897-58.713c2.046-41.5 3.872-83.001 6.07-124.493l.748-13.83c1.027-18.618 1.815-37.19 2.448-55.802l.206-6.206c.601-18.688.124-36.331-8.895-53.205ZM557.165 49.511c8.531-.81 14.973 2.019 22.718 4.999 3.374 1.297 6.569 2.796 9.806 4.348 4.053 1.943 6.659 5.378 9.154 9.01l1.334 1.958c10.391 15.224 17.381 32.788 25.268 49.363 9.226 19.389 18.544 38.736 27.573 58.217l4.456 9.598c2.228 4.799 4.449 9.601 6.636 14.418l3.781 8.384c3.797 8.503 7.202 17.498 1.789 26.27-5.033 8.158-13.956 14.47-21.021 20.776a53672.131 53672.131 0 0 1-17.686 15.783c12.189 12.206 20.372 27.575 25.182 44.057 6.834-2.847 15.175-3.393 22.241-4.625 9.891-1.724 11.103 13.25 1.768 13.067-6.894-.135-14.982.569-22.054-.883a138.183 138.183 0 0 1 2.688 16.427c2.972 28.895-3.522 57.958-10.294 85.916l-.558 2.295c-7.355 30.26-14.329 60.599-20.568 91.11a2280.966 2280.966 0 0 0-16.871 92.088c-5.082 31.357-8.678 62.887-12.543 94.41-.585 4.771-3.587 8.86-8.859 8.86-4.392 0-9.412-4.099-8.86-8.86 3.988-34.328 9.644-68.476 15.263-102.569 9.679-58.713 21.86-116.915 35.873-174.735l2.448-10.069c6.305-26.115 12.025-53.023 8.862-79.96-2.576-21.935-11.747-45.321-29.873-58.945l-.552-.41c-4.234-3.105-5.863-9.043-1.693-13.132 2.654-2.602 5.311-5.202 7.969-7.799l15.956-15.578 3.217-3.146c2.683-2.619 5.378-5.222 8.153-7.745 1.68-1.526 6.235-4.436 6.568-6.946.217-1.639-1.723-4.516-2.509-6.025l-3.602-7.269c-2.045-4.145-4.027-8.32-6.024-12.489-4.138-8.636-8.336-17.246-12.384-25.925l-24.321-52.112c-6.861-14.702-12.973-30.223-21.943-43.815l-1.768-2.65c-1.476-2.23-2.78-4.377-3.714-7.106-.897-2.625-2.023-5.507-3.681-7.747-3.885-5.257-11.311-8.24-17.524-9.34-.898-.16-.572-1.4.199-1.474ZM370.112 35.824c.54 0 .622.77.124.92-7.496 2.255-14.659 5.892-20.503 11.142-2.796 2.512-5.611 5.363-7.337 8.745-.661 1.294-1.026 2.66-1.294 4.078l-.086.475c-.445 2.56-1.083 3.986-2.384 6.036l-.223.348c-7.427 11.469-12.632 24.208-17.391 36.963l-10.364 27.811-10.357 27.815-10.014 26.887c-1.844 4.948-3.74 9.875-5.635 14.803-.82 2.135-1.702 4.254-2.452 6.415-.103.295-.431 2.074-.677 2.506l.084.147c2.089 3.514 7.66 6.45 10.818 9.003l10.874 8.791c7.753 6.269 15.705 12.362 23.225 18.911 4.724 4.112 1.785 11.476-3.483 13.193-8.828 2.876-17.477 6.318-26.173 9.572-3.513 1.314-7.17 2.458-10.642 3.907l-2.114.913c-.825.371-.428.368-.395 1.891.033 1.598.486 3.263.746 4.833 2.929 17.71 6.034 35.39 9.311 53.039 11.592 62.411 25.441 124.366 41.236 185.845 7.978 31.047 16.534 61.941 24.687 92.942 8.133 30.918 18.834 61.393 29.052 91.674 2.883 8.539-10.658 12.216-13.47 3.713-11.776-35.614-22.549-71.539-33.674-107.355-19.766-63.64-35.342-128.662-49.118-193.841a2740.043 2740.043 0 0 1-21.879-115.749l-1.499-9.069c-1.028-6.464-1.613-13.198 3.412-18.313 4.906-4.994 13.329-6.763 19.785-9.105l.469-.172c4.108-1.533 8.246-3.01 12.368-4.533-6.072-4.78-12.069-9.666-18.126-14.443-4.886-3.854-9.849-7.63-14.665-11.572-3.971-3.252-7.209-7.427-7.623-12.715-.422-5.405 1.894-10.42 3.762-15.377l.179-.479a1509.41 1509.41 0 0 1 5.559-14.825l11.67-30.519c7.416-19.393 14.519-38.943 22.319-58.185 3.086-7.615 6.449-15.11 10.423-22.308 1.916-3.471 3.971-6.868 6.204-10.144 2.502-3.674 4.773-5.465 8.65-7.492 6.199-3.241 11.064-8.675 17.289-12.016 6.11-3.28 12.396-5.03 19.332-5.106Zm20.124-34.599c.237-.407.865-.226.873.237.162 9.638-2.128 19.487-3.537 29.017-1.415 9.564-1.869 19.66-3.916 29.121-.042.44-.127.875-.248 1.302l-.098.324c-.864 2.651-3.111 4.898-5.868 5.6.867 4.804 1.684 9.616 2.371 14.454 1.18 8.316 2.257 16.644 3.316 24.975l1.268 9.997a5848.927 5848.927 0 0 1 3.512 28.275c2.927 1.224 5.914 2.234 8.973 3.109 7.045 2.016 14.261 2.836 21.531 3.549 14.806 1.452 29.725 2.125 44.582 2.95l3.183.179c16.704.957 33.499 1.127 50.161-.587a173.926 173.926 0 0 0 24.516-4.297c4.094-1.027 8.073-2.561 12.159-3.565 1.355-.333 2.566-1.101 3.924-1.921a4.27 4.27 0 0 1 2.551-1.562l.299-.052.295-.043.102-.046-.008.032a8.823 8.823 0 0 1 2.379-.01c.298-7.35.621-14.7 1.026-22.048 1.087-19.736 4.088-40.324.082-59.888-.134-.658.761-.89.994-.274 7.861 20.711 6.978 43.358 7.374 65.156.387 21.317.153 42.649.047 63.971 1.527.65 2.889 1.531 3.968 2.767 2.155 2.47 2.775 6.764 0 9.148-1.23 1.057-2.591 1.791-4.035 2.3a9445.528 9445.528 0 0 1-.394 55.572c3.523 2.721 3.852 9.182-.133 11.867-.663 59.988-1.753 119.978-2.657 179.957l-1.894 125.838c-.252 16.766-.67 33.531-.82 50.295l.119.047.42.194c.705.332 1.756.868 1.973 1.416a.698.698 0 0 1 .065.316c1.156.162 2.301.708 3.292 1.648 2.446 2.324 1.949 5.827 0 8.194l-.521.633c-1.215 1.475-3.522 2.043-5.406 1.743.019 10.463.086 20.928.053 31.391-.01 3.196-.059 6.392-.114 9.588l-.132 7.663c-.087 4.372-.475 9.93-4.954 11.894-5.053 2.217-9.584.401-11.63-4.731-.554-1.39-.435-2.685-.233-4.059-.063-2.065-.386-4.458-.346-6.374l.167-7.989c.026-1.232.076-2.463.111-3.695l-.146.015c-17.954.872-36.034.446-54.018.436l-7.999.011c-6.673.006-13.361-.03-20.025-.285l-2.498-.106c-4.989-.234-10.236-.309-15.408-.755a777.86 777.86 0 0 1 1.824 15.94c.52 5.043-4.685 9.328-9.328 9.328-5.514 0-8.668-4.334-9.328-9.328-3.116-23.556-4.391-47.332-7.368-70.903-2.666-21.112-4.978-42.272-7.328-63.424l-.786-7.051c-8.6-76.976-16.95-153.981-24.937-231.024l-3.718-36.015c-3.756-36.3-7.534-72.602-10.72-108.955a5376.46 5376.46 0 0 1-5.081-62.376c-1.159-15.284-1.887-30.483-2.361-45.737-1.869-1.923-2.806-4.73-1.978-7.63a86.932 86.932 0 0 1 1.641-5.056c-.037-1.65-.076-3.3-.108-4.954-.03-1.564 1.558-2.369 2.829-2.11 2.31-5.593 4.854-11.138 6.977-16.677 3.436-8.966 6.268-18.627 11.122-26.922ZM198.341 98.126c35.919-22.51 78.675-38.708 121.498-36.964.974.04 1.248 1.524.237 1.75-22.842 5.1-45.935 11.311-67.56 20.352-21.688 9.068-42.31 21.278-60.677 35.951-33.888 27.072-60.228 62.285-77.572 101.978-10.159 23.252-17.28 47.8-23.498 72.357-6.58 25.989-12.003 52.258-16.512 78.685-8.906 52.201-14.09 104.977-16.85 157.844-2.807 53.778-1.65 107.594-3.652 161.38-.346 9.319-13.666 9.137-14.343 0-4.536-61.151-2.023-123.278 2.172-184.386 3.772-54.934 10.36-109.753 20.966-163.803l.924-4.684c9.916-50.007 21.876-101.225 45.848-146.512 20.466-38.663 52.062-70.786 89.019-93.948Zm498.79 238.998a.567.567 0 0 1 1.084 0c4.094 11.462 4.242 24.395 5.33 36.478l.086.928c1.043 11.02 1.829 22.054 2.56 33.097l.272 4.142c2.933 45.05 6.599 90.05 12.124 134.863 5.504 44.644 12.948 88.977 20.996 133.222.897 4.926-1.284 9.944-6.451 11.363-4.554 1.251-10.399-1.554-11.362-6.451-4.997-25.396-9.038-50.826-12.643-76.442-6.346-45.107-11.082-90.422-14.127-135.872a1357.518 1357.518 0 0 1-2.843-68.521c-.173-10.614.102-21.253.668-31.856l.136-2.446c.624-10.837.56-22.17 4.17-32.505ZM309.004 624.066c.48-.26 1.074.274.77.77-6.955 11.303-16.364 21.049-25.458 30.655-9.507 10.041-18.779 20.385-28.478 30.229-7.008 7.111-18.281-4.36-10.885-10.885 10.399-9.172 21.268-17.888 31.852-26.856l4.628-3.923c8.678-7.331 17.614-14.597 27.571-19.99Zm330.341-5.661c-.519-.989.667-1.791 1.473-1.136 5.61 4.562 10.638 10.004 16.055 14.818 5.365 4.769 10.93 9.217 16.647 13.555 5.741 4.356 11.607 8.538 17.631 12.495 4.997 3.282 10.147 5.911 15.38 8.636 2.423.312 4.667 1.501 6.463 3.756 2.84 3.566 3.142 10.29-.797 13.386l-.707.555c-4.597 3.613-10.054 4.053-14.579 0-5.053-4.524-9.829-9.503-14.681-14.285l-1.458-1.428c-5.214-5.068-10.301-10.3-15.097-15.767l-4.342-4.939c-8.054-9.185-16.438-19.084-21.988-29.646ZM613.503 88.871c-.933-.618-.358-2.282.794-1.885l2.113.73c8.827 3.068 17.914 6.47 25.929 11.193 8.613 5.075 16.566 11.121 24.164 17.607 15.727 13.425 29.107 29.934 40.478 47.141 22.816 34.529 36.926 74.073 48.318 113.64 12.147 42.188 21.499 85.284 29.135 128.502 7.759 43.921 13.745 88.238 17.679 132.667a1124.396 1124.396 0 0 1 3.893 65.747c.337 11.298.326 22.588.232 33.89a444.33 444.33 0 0 0 .028 8.717l.111 8.716c.059 5.511.719 11.302-.591 16.686-2.108 8.667-16.438 7.05-15.967-1.808-.432-2.947-.449-5.993-.337-9.045a45.3 45.3 0 0 0-.224-1.203 4.913 4.913 0 0 1 .425-3.187c.074-1.464.141-2.919.165-4.349.094-5.819.088-11.615-.073-17.432-.339-12.266-.827-24.532-1.32-36.792-.985-24.5-2.355-49.011-4.341-73.451-6.91-85.07-21.501-170.625-46.01-252.468-11.383-38.006-27.076-75.315-49.581-108.157-9.99-14.58-21.261-28.047-33.756-40.546-12.574-12.577-26.43-25.089-41.264-34.913Zm-169.588 548.4 1.699 12.285c.849 6.143 1.689 12.289 2.487 18.438 5.421-.742 10.967-1.053 16.191-1.516 9.145-.81 18.353-1.202 27.525-1.581 18.967-.782 38.029-2.139 57.015-2.044.195.001.379.014.563.029l.942-24.239-13.34-.021c-11.302-.018-22.602-.114-33.904-.211-10.179-.087-20.361-.101-30.538-.313l-4.362-.104c-7.718-.208-16.24.221-24.278-.723Zm107.541-35.183c-.544.064-1.098.118-1.687.143-2.642.111-5.305.034-7.949.056-5.63.049-11.259.087-16.89.086a2775.81 2775.81 0 0 0-33.777.203c-11.59.14-23.172.341-34.763.364-5.616.01-11.214-.139-16.828-.296.908 7.978 1.857 15.95 2.905 23.903 8.718-1.178 18.095-.584 26.615-.665l1.106-.015c11.629-.199 23.268-.052 34.9-.038 11.966.014 23.931.053 35.898.151l9.831.081.019-.495c.288-7.818.474-15.646.62-23.478Zm-116.219-38.166c1.09 9.417 2.113 18.85 3.156 28.28a43.661 43.661 0 0 1 2.11-.274c5.624-.588 11.236-1.092 16.88-1.442 11.251-.697 22.501-1.065 33.77-1.367 11.588-.311 23.178-.549 34.77-.713 5.632-.079 11.259-.071 16.891-.032 2.642.018 5.311-.065 7.948.112.314.021.615.054.913.088l.198-14.158c.034-2.359.07-4.718.108-7.077-8.704.537-17.553.332-26.251.334l-2.005.005c-10.929.05-21.862-.1-32.789-.327-11.273-.235-22.523-.603-33.776-1.325-4.559-.291-9.085-.68-13.619-1.18l-2.268-.259c-1.973-.233-4.005-.421-6.036-.665Zm117.642-39.954c-20.963 1.664-41.814 2.359-62.833 2.566l-3.154.027c-18.574.141-37.301.907-55.919.415 1.113 9.651 2.223 19.302 3.342 28.951 2.666-.124 5.345-.125 7.951-.219 5.301-.191 10.584-.239 15.888-.251 10.927-.025 21.854.07 32.782.048 11.262-.024 22.522-.214 33.782-.426 9.129-.171 18.355-.858 27.509-.833l.652-30.278Zm.887-41.174c-2.429.807-5.297.859-8.441 1.003l-8.115.404c-3.761.184-7.523.358-11.287.495-12.541.459-25.082.888-37.625 1.287-12.853.408-25.768.645-38.623.24-6.297-.199-12.541-.529-18.819-1.054-1.552-.13-3.134-.215-4.719-.327 1.461 12.787 2.928 25.572 4.4 38.357 18.529-2.274 37.201-3.69 55.707-6.042l16.734-2.137c16.725-2.134 33.437-4.228 50.223-5.994l.565-26.232Zm.893-41.629c-3.564.88-7.626.836-11.049 1.052l-.634.044c-6.485.492-12.987.738-19.487.898-12.74.314-25.488.471-38.232.549l-7.663.048c-10.216.06-20.426.086-30.646-.153-6.555-.152-13.095-.473-19.645-.801-1.962-.099-3.968-.164-5.98-.265 1.369 12.106 2.752 24.209 4.132 36.313 2.152-.342 4.314-.602 6.375-.95 5.279-.892 10.548-1.604 15.865-2.241 11.516-1.38 23.092-2.373 34.662-3.211 11.878-.861 23.766-1.589 35.646-2.422l8.414-.593c2.805-.195 5.609-.383 8.415-.555 4.792-.294 10.362.038 15.115-1.005 1.287-.536 2.716-.659 4.147-.353l.565-26.355Zm1.079-48.727c-1.233 1.566-3.075 2.387-5.271 2.671-11.439 1.484-23.172 1.722-34.708 2.422l-2.034.128c-11.911.785-23.829 1.401-35.749 2.034-12.245.65-24.488 1.18-36.743 1.607-5.202.181-10.431.202-15.642.136l-2.232-.034c-2.14-.036-4.381-.031-6.627-.104 1.243 11.32 2.498 22.639 3.771 33.955 2.29-.249 4.579-.439 6.8-.674 6.546-.692 13.084-1.376 19.645-1.893 12.432-.98 24.873-1.569 37.328-2.185 12.743-.631 25.493-1.051 38.238-1.646 6.179-.289 12.356-.648 18.517-1.216 4.318-.397 9.447-1.867 13.952-1.327.246-11.292.502-22.583.755-33.874Zm1.005-43.65a5.016 5.016 0 0 1-.7.866c-5.036 4.976-11.243 4.592-17.916 5.114l-.41.033c-6.541.55-13.085 1.073-19.633 1.545-13.089.945-26.204 1.606-39.312 2.195-13.415.603-26.916 1.018-40.344.744-8.599-.176-17.605-.145-26.376-.983 1.347 12.467 2.702 24.933 4.067 37.398 2.466-.465 4.948-.821 7.299-1.191 5.925-.932 11.856-1.869 17.815-2.555a2001.875 2001.875 0 0 1 35.75-3.81c10.204-.989 20.404-1.993 30.614-2.897l6.128-.53c12.183-1.025 24.52-2.715 36.742-2.965 2.014-.041 4.292 1.055 5.446 2.785.27-11.917.55-23.833.83-35.749Zm.846-35.337c-3.111.378-6.463.163-9.334.257-7.259.237-14.519.457-21.779.671l-43.561 1.286c-14.831.437-29.714.765-44.551.555-6.526-.092-13.082-.102-19.606-.457l-2.174-.132c-2.685-.179-5.98-.204-9.198-.531l3.799 35.187c8.729-1.261 17.724-1.733 26.378-2.472l1.849-.163c12.764-1.163 25.589-1.932 38.376-2.798 13.117-.888 26.215-1.966 39.314-3.069 6.547-.55 13.093-1.099 19.635-1.701l.808-.079c6.18-.646 11.991-2.018 17.464 1.625a5.68 5.68 0 0 1 1.857 2.041c.239-10.073.473-20.147.723-30.22Zm1.015-41.065c-26.529 1.068-53.062 1.878-79.611 2.234-14.944.2-29.869.059-44.811-.253a352.642 352.642 0 0 1-19.486-.942l-2.425-.195c-3.078-.259-6.312-.447-9.532-.757 1.331 12.098 2.651 24.198 3.961 36.3 3.168-.589 6.478-.86 9.254-1.215l.63-.084c6.897-.949 13.859-1.502 20.79-2.112 13.496-1.189 27.059-1.955 40.591-2.606 13.857-.667 27.721-1.232 41.58-1.848l13.861-.62c2.309-.103 4.619-.203 6.929-.301 3.301-.139 6.601-.272 9.901-.409 1.628-.067 3.32-.288 4.95-.204l.464-.062c.214-.027.403-.049.576-.068a6.591 6.591 0 0 1 1.427-.83l.306-.119.645-25.909ZM398.389 233.47c1.232 10.891 2.45 21.785 3.652 32.68 3.784-.432 7.613-.671 11.226-.996 7.285-.653 14.604-1.225 21.911-1.561l14.604-.678c9.735-.45 19.469-.886 29.211-1.241 26.662-.973 53.323-2.088 79.969-3.449.188-7.389.382-14.778.58-22.167-1.279 1.37-3.127 2.271-5.555 2.265-27.974-.075-55.97.087-83.941-.373-14.001-.231-27.986-.57-41.971-1.288-6.843-.351-13.724-1.067-20.515-2.008-2.896-.401-6.065-.687-9.171-1.184Zm-4.477-38.809a8162.057 8162.057 0 0 1 3.874 33.478c3.474-.62 7.063-.95 10.304-1.391 6.964-.947 13.971-1.701 20.985-2.097 13.648-.772 27.304-1.161 40.971-1.451 27.969-.594 55.966-.59 83.941-.811 2.628-.021 4.579 1.019 5.86 2.571.194-6.967.399-13.934.61-20.902-2.702-.285-5.381-.689-7.86-.862a1838.359 1838.359 0 0 0-22.866-1.455 3460.713 3460.713 0 0 0-47.762-2.385c-15.927-.693-31.859-1.37-47.791-1.96l-6.967-.254c-11.08-.412-22.347-.933-33.299-2.481Zm-5.01-42.017c1.369 11.299 2.717 22.6 4.062 33.903l.409 3.498c13.325-2.59 27.368-3.349 40.805-3.92 15.935-.678 31.842-1.027 47.791-.978 15.933.048 31.842.425 47.762 1.083a1826.6 1826.6 0 0 1 23.859 1.14c2.186.118 4.749.055 7.387.093.057-1.776.106-3.552.167-5.327.242-7.194.479-14.388.726-21.581-5.377 2.762-12.368 3.876-17.772 5.053l-.617.136c-8.923 2.004-18.034 3.303-27.142 4.097-17.886 1.56-35.958.977-53.827-.534l-3.13-.268c-15.691-1.36-31.959-3.085-47.171-6.968-7.246-1.849-14.737-4.437-21.23-8.188a84.385 84.385 0 0 1-2.079-1.239ZM539.99 18.368c.155-.61 1.07-.75 1.371-.179 2.113 4.014 2.899 8.832 4.366 13.133 1.579 4.624 3.052 9.282 4.794 13.85 3.639 9.544 7.932 18.715 13.05 27.556 5.069 8.754-9.124 15.003-12.854 5.42-3.851-9.89-7.016-20.117-8.931-30.568-.935-5.099-1.768-10.268-2.038-15.449-.233-4.45-.859-9.422.242-13.763Z" />
    </g>
</svg>