<svg xmlns="http://www.w3.org/2000/svg" width="818" height="733" fill="none" viewBox="0 0 818 733"><g id="body/Sporty Tee"><path id="✋ Skin" fill="#D08B5B" fill-rule="evenodd" d="M114.306 712.167c11.971.739 23.941 1.324 35.911 1.77 156.53 5.832 312.934-12.012 469.368-15.916 54.477-1.434 108.675-.718 163.012 3.656 5.324.428 11.412-5.3 10.758-10.758-10.039-86.654-22.598-173.078-29.107-260.088-.005-4.602.589-9.197 2.171-13.533.298-.34 1.844-4.152 3.219-4.388-.449.332 1.586-.252.29-.152 7.856-1.286 15.561-9.766 9.86-17.881-58.732-90.017-138.906-172.177-164.7-279.095-6.094-28.906-28.106-30.693-51.556-42.618-7.316-4.351-25.207-16.405-28.119-24.785-6.955-30.203 5.293-59.792-30.49-72.013-23.622-6.55-65.374-12.09-89.275-5.183-29.155 9.703-26.973 42.557-43.884 65.16-8.747 13.073-23.657 30.973-37.425 32.977-6.673.97-11.588-12.527-18.25-11.598C212.235 82.945 70.741 255.01 26.105 350.26c-10.06 29.977 22.381 20.933 20.388 51.063-2.457 57.161-7.83 130.337-4.643 187.566 2.985 33.216.776 68.019 11.1 99.986-2.778 3.374 1.215 6.783 4.473 8.249 4.105 6.981 44.497 14.075 56.883 15.042Z" clip-rule="evenodd"/><path id="👕 Top" fill="#E86BBB" d="M316.089 57.721c6.213-.866 6.618 17.404 12.635 18.194 27.926 39.206 71.204 52.221 121.253 52.221 53.131 0 96.213-15.978 129.245-47.935l3.027 1.275c15.635 6.646 28.42 13.348 32.839 34.306 25.794 106.918 105.968 189.078 164.7 279.095 5.701 8.115-2.004 16.595-9.86 17.881 1.296-.1-.739.484-.29.152-1.375.236-2.921 4.048-3.219 4.388a34.495 34.495 0 0 0-1.647 6.448s-65.796 13.939-83.484 14.321c-177.617 3.843-502.431-1.644-502.431-1.644L42.81 384.963c-7.78-11.683-24.274-12.146-16.705-34.702 44.636-95.25 186.13-267.317 289.984-292.54Z"/><path id="🖍 Ink" fill="#000" fill-rule="evenodd" d="M384.683.343c2.7-12.15 22.03-6.94 18.72 5.16-5.13 18.71-15.77 36.39-30.789 48.8-11.601 9.58-27.41 18.13-43.091 19.71 1.47 1.43 2.88 2.96 4.36 4.42 3.34 3.32 6.89 6.4 10.55 9.36 7.521 6.08 15.34 11.55 23.88 16.13 34.11 18.301 72.641 22.521 110.74 18.26 18.08-2.02 36.43-5.449 53.43-12.06 7.881-3.059 15.54-7.08 22.301-12.16l1.769-1.328c3.555-2.684 8.298-6.47 10.52-10.611-6.76 1.519-15.31-5.681-20-9.87-5.129-4.6-9.45-10.531-12.64-16.611-6.25-11.93-9.56-27.32-4.319-40.11.349-.85 1.469-.71 1.569.21 1.55 14.91 5.57 28.89 16.271 39.93 4.75 4.89 10.439 8.99 16.649 11.84l.874.401c2.646 1.224 5.431 2.66 6.546 5.279.431-.05.86-.01 1.27.1.37.1.71.21 1.04.33-.74-1.45-1.129-3.16-1.06-5.18.261-7.83 11.011-8.07 12.5-1.1-.27-.92-.63-.03.05.25a2.147 2.147 0 0 0-.05-.25l.02.074.041.176h-.011c.027.127.049.258.064.39l.014.175-.009-.146a3.901 3.901 0 0 0-.036-.293l-.023-.125c.1.049.24.08.4.08l.066.026c.251.108 1.134.52 1.395.624 1.789.66 3.789.869 5.619 1.439 3.971 1.22 7.471 3.24 9.891 6.68 1.74 2.47 2.709 5.3 3.109 8.24 17.57 8.45 34.2 19.43 48.131 33.021 31.09 30.319 52.769 68.269 70.559 107.55 9.055 19.997 17.123 40.419 25.015 60.896l1.245 3.234c8.46 22.009 15.941 44.259 17.78 67.92.17 2.12-.53 4.11-1.74 5.76.43 1.78.651 3.56.59 5.299-.01.271-.029.541-.05.811 2.84-.05 5.62 1.14 8.26 4.48 1.07-.34 2.23-.381 3.37-.011 6.95 2.22 8.07 9.851 9.38 16.241 1.351 6.6 1.94 13.36 1.95 20.089 0 2.411-1.38 5.451-3.72 6.481-4.4 1.939-9.139 3.21-13.69 4.97a259.29 259.29 0 0 1-10.31 3.74c1.92 3.349 2.54 8.01 3.58 11.54 1.63 5.51 2.94 11.04 4.041 16.68 7.459 38.35 12.629 77.11 19.609 115.54 3.49 19.25 7.551 38.37 11.69 57.49 2.04 9.4 4.21 18.779 6.54 28.119a841.817 841.817 0 0 0 5.033 19.239l.697 2.522c1.52.84 2.82 2.11 3.72 3.849 3.291 6.361 1.4 13.531-4.91 17.111-6.86 3.9-15.049.219-18.83-6.111-2.66-4.469-3.53-10.389-4.84-15.36a807.602 807.602 0 0 1-4.25-16.799c-9.239-38.113-15.426-76.893-20.089-115.82l-.331-2.78c-2.37-20.04-4.66-40.13-6.14-60.26-.73-9.89-1.31-19.78-1.67-29.691-.18-5.099.11-10.229.4-15.32.13-2.229.32-4.47.39-6.699l.023-.318c.018-.226.044-.523.065-.835l.022-.377c-6.9 2.16-13.9 3.96-20.969 5.479-15.041 3.25-30.431 5.061-45.781 4.141 2.14 25.42 4.93 50.779 8.83 75.969 3.76 24.261 8.1 48.47 13 72.531 2.451 12.09 5.1 24.15 7.89 36.17 1.5 6.42 3.21 12.799 4.561 19.25.799 3.839 1.049 7.049-.561 10.64 1.773 4.827 3.347 9.679 4.896 14.248l.464 1.362c2.74 8 7.94 16.179 2.51 24.04-2.809 4.059-7.389 6.38-12 6.52-.08.049-.17.11-.26.159-2.48 1.33-5.34 1.591-8.06 1.021-4.13.809-8.27 1.59-12.42 2.3-10.25 1.77-20.55 3.229-30.87 4.46-19.65 2.339-39.43 3.62-59.199 4.33-72.381 2.609-144.841-1.971-217.25-.651-36.891.67-73.781 2.33-110.611 4.531-18.38 1.1-36.77 2.28-55.16 3.19l-5.692.276c-16.446.787-32.904 1.395-49.338.194a1.1 1.1 0 0 1-.74-.33c-5.67-.64-11.369-5.861-10.8-11.89 2.45-25.681 4.9-51.36 7.36-77.051 4.37-45.769 8.78-91.539 13.24-137.3l.645-6.606c1.498-15.42 2.929-30.875 3.655-46.354-3.66-.259-7.309-.589-10.96-.99-39.555-4.331-77.475-16.295-113.885-32.01l-1.475-.639c-3.28-1.431-6.87-2.861-10.55-4.39.061 6.989-.17 13.989-.2 20.909-.05 11.491.04 22.981.07 34.46.07 23.66.97 47.33 2.15 70.951 2.07 41.719 4.5 83.379 8.18 124.999.93 10.47 2.191 20.92 3.08 31.39.531 6.17-.74 11.311-6.389 14.551-2.78 1.6-4.93.93-7.69-.36-6.74-3.161-6.93-10.63-7.57-17.13-.49-4.901-.94-9.8-1.38-14.71-.94-10.47-1.75-20.941-2.41-31.431-2.61-41.68-3.37-83.319-1.57-125.049a1497.934 1497.934 0 0 1 3.643-58.566l.376-4.494c1.32-15.571 2.17-31.91 4.9-47.58-11.01-4.88-21.92-11.09-26.98-21.411-6.559-13.4.65-24.859 10.92-32.75-.1-1.33 0-2.65.28-3.849 2.95-12.771 7.89-25.391 12.66-37.57 4.81-12.241 10.12-24.29 15.96-36.081 23.44-47.23 55.46-90.389 93.63-126.75 18.96-18.059 39.71-34.75 61.86-48.75 10.98-6.93 22.24-13.33 33.9-19.03l1.724-.839c8.117-3.939 17.221-8.127 26.247-10.32.939-.7 1.889-1.36 2.849-1.99 3.55-2.361 8.37-.651 10.47 2.719 1.021-.79 2.2-1.49 3.55-2.12l1.334-.61c8.1-3.646 17.825-7.056 26.616-4.66 5.46 1.49 9.76 5.51 11.691 10.63 4.429-2.34 8.779-4.75 13.029-7.7 6.83-4.72 13.02-10.58 18.58-16.73 11.15-12.37 19.25-26.86 22.87-43.17Zm386.89 390c-.76.221-1.56.301-2.39.2 1.5.176-1.504 1.062-2.328 1.487l-.062.034c-1.5.859-3.009 1.689-4.54 2.49-3.57 1.879-7.219 3.569-10.93 5.16-7.31 3.11-14.86 5.5-22.61 7.25-7.58 1.709-15.53 2.709-23.3 2.869-5.2.1-11.37-.139-16.75-1.67.621 9.43 1.31 18.85 2.08 28.26l10.625-2.436c10.626-2.438 21.241-4.936 31.725-7.974 7.87-2.279 15.63-4.949 23.3-7.83 4.02-1.51 8.01-3.109 11.95-4.829 1.961-.857 3.799-1.875 5.616-2.907l1.554-.883c-.36-4.21-1.02-8.34-1.979-12.5-.5-2.2-1.351-4.46-1.961-6.721Zm-727.58-44.41c-1.35 4.381-3.42 8.471-8.14 9.461-1.67.35-3.069.16-4.23-.41l-.278.561c-3.881 7.965-5.02 16.373 3.908 22.509 4.031 2.77 8.42 5.17 12.96 7.319 8.119 3.863 16.765 6.969 24.917 10.128l1.623.633c14.58 5.72 29.39 10.93 44.43 15.289 15.261 4.41 30.79 7.95 46.511 10.2 6.629.941 13.309 1.601 20 2.031.109-9 .059-18.01.029-27.01-2.38-.301-4.74-.62-7.019-.891-6.941-.809-13.861-1.799-20.741-3.029-14.37-2.57-28.59-6.12-42.46-10.66-25.7-8.43-49.61-20.481-71.51-36.131Zm281.77-275.68c-5.84-6.18-17.01-3.95-24.059-.95-2.131.91-4.281 1.83-6.321 2.94l-.395.222c-2.376 1.368-2.364 2.181-1.204 4.908 1.509 3.59 3.609 7.06 5.609 10.39 8.561 14.291 19.83 26.731 32.7 37.24 45.58 37.2 111.06 50.321 168.06 37.861 27.356-5.974 53.744-18.032 73.882-37.808l1.834-1.825c8.12-8.125 19.266-19.886 18.484-31.927-.37-5.791-5.1-6.121-9.93-7.24-1.979-.46-3.87-1.111-5.51-2.03 1.32 5.69-5.709 14.149-9.34 17.7-7.61 7.449-16.77 13.269-26.459 17.62-18.441 8.29-38.5 12.21-58.471 14.689-22.66 2.821-45.81 2.571-68.3-1.599-19.57-3.63-38.86-10.5-55.7-21.2-7.72-4.901-15.33-10.491-21.77-17l-1.369-1.384c-4.649-4.71-10.059-10.405-12.841-16.586-1.06.01-2.11-.021-3.16-.091-.74-.04-1.139-1.09-.4-1.48.83-.44 1.66-.88 2.49-1.31-.139-.46-.26-.91-.36-1.37-.08-.39.33-.75.69-.53.5.3.98.62 1.45.96.13-.06.26-.13.39-.2Z" clip-rule="evenodd"/></g></svg>