<svg xmlns="http://www.w3.org/2000/svg" width="818" height="733" fill="none" viewBox="0 0 818 733"><g id="body/Striped Tee" fill-rule="evenodd" clip-rule="evenodd"><path id="✋ Skin" fill="#D08B5B" d="M47.468 592.466c-2.994 27.446-9.776 57.68 3.152 83.575-8.142.365-1.536 2.72 2.858 3.53 2.508 1.942 5.88 2.711 9.051 2.441 16.464 3.48 33.46 4.741 50.177 6.71 208.718 17.336 418.835 12.732 627.943 5.262 6.801-.295 11.364-5.235 11.885-11.889 7.664-97.922 11.478-196.147 11.283-294.368-3.405-34.517 22.684-21.048 8.767-66.532-11.188-47.975-27.747-94.672-48.863-139.168-14.596-28.955-28.349-59.422-50.596-83.433-7.03-.971-13.015-7.954-18.956-11.854-6.017-1.172-10.477-6.281-16.575-7.852-11.621-3.023-37.627-9.453-47.524-1.72-.391-.108-.787-.199-1.178-.31-1.937 2.148-4.598.537-6.043-1.392-4.945-3.84-26.559-4.234-29.012-10.126-12.788-11.6-16.209-36.014-16.209-50.296-4.782-5.373-5.114-4.376-11.605-7.215-6.364-8.027-14.052-15.02-22.633-20.532-48.291-31.707-118.368 1.704-129.673 56.817-17.871 14.15-36.266 28.524-58.155 35.898-10.682-5.496-22.851-7.25-34.188-7.26-8.451-.307-20.129-5.194-25.621 3.7C163.356 106.698 107.592 194.67 67.94 278.022c-5.557 11.868-12.206 24.294-10.505 37.815 1.168 16.193 18.742 25.831 15.421 42.992-4.826 47.206-10.317 94.364-15.342 141.556-3.35 30.693-6.698 61.387-10.046 92.08Z"/><path id="👕 Top" fill="#78E185" d="M255.753 76.451c5.492-8.893 17.17-4.006 25.621-3.7 11.337.011 23.506 1.765 34.188 7.26.436-.146.871-.296 1.305-.449l.633 1.406-46.506 6.552 23.452 42.533c55.224 51.665 116.612 74.626 184.165 68.885 66.877-5.683 112.837-41.396 137.882-107.136l.752-2.002-31.811-8.832-.001-3.373c1.161.487 2.415.421 3.459-.736.391.11.787.202 1.178.309 9.897-7.733 35.903-1.303 47.524 1.72 6.098 1.57 10.558 6.68 16.575 7.852 5.941 3.9 11.926 10.883 18.956 11.854 22.247 24.011 36 54.478 50.596 83.433 21.116 44.496 37.675 91.193 48.863 139.168 8.907 29.109 1.427 34.072-4.22 42.921l-.465.07c-7.655 1.19-14.783 2.869-21.384 5.036-14.095 4.627-27.972 10.476-41.633 17.546l-1.575.821 17.283 307.102-10.791.371c-176.263 6.018-353.157 9.335-529.244-1.456l16.471-292.254-137.03-76.049c-1.348-2.953-2.317-6.065-2.562-9.465-1.701-13.521 4.948-25.947 10.506-37.815 39.652-83.353 95.416-171.324 187.813-201.572Z"/><path id="🖍 Ink" fill="#000" d="M723.417 367.272c-5.974 2.163-14.348 4.271-18.62 9.158-.492-4.554-.99-9.107-1.49-13.661 12.518-.297 25.063-.405 37.588-.755a170.185 170.185 0 0 0-17.478 5.258M695.914 653.72c-4.308.04-8.63.34-12.935.508a19087.235 19087.235 0 0 1-75.63 2.783 18928.38 18928.38 0 0 1-100.523 3.227c-67.021 1.971-134.076 3.165-201.088 5.419-18.591.625-37.181 1.111-55.755 2.123-9.625.524-19.295.975-28.874 2.09-8.081.94-16.047 2.526-24.083 3.708.539-10.471 1.044-20.944 1.569-31.414.497-9.906.961-19.813 1.422-29.721 31.369 1.641 62.775 2.304 94.186 2.584 33.226.297 66.442 1.121 99.67 1.185 65.781.131 131.568-.697 197.347-1.357 18.604-.188 37.21-.374 55.815-.561l27.907-.281c4.644-.046 9.315.053 13.954-.139 4.952-.206 7.959-1.614 11.553-4.946 1.917-1.777 1.997-5.396 0-7.159-2.884-2.547-5.561-4.501-9.559-4.787-3.926-.281-8.023.105-11.961.157l-25.914.341-49.835.655c-33.224.437-66.448.884-99.67 1.39-32.56.497-65.123.867-97.677 1.685-33.239.837-66.439 2.348-99.67 3.416-35.372 1.136-70.726 2.493-106.018 5.147a8961.754 8961.754 0 0 0 2.364-55.105c70.075 3.814 140.198 6.529 210.39 6.648 73.128.125 146.252-1.125 219.353-3.033 10.301-.27 20.602-.542 30.901-.865 5.316-.167 10.632-.321 15.948-.513 3.908-.142 7.924-.309 11.457-2.178 6.972-3.688 8.175-14.457-.097-17.403-4.522-1.61-9.319-.036-10.419 4.041-.338.033-.66.06-.941.071-3.987.15-7.975.261-11.961.387-8.639.274-17.277.555-25.916.826a9947.156 9947.156 0 0 1-145.559 3.491c-64.49 1.074-128.975 2.067-193.457 3.541-33.206.76-66.402 1.745-99.604 2.587.793-19.969 1.542-39.938 2.217-59.909.079-2.34.165-4.682.25-7.023 4.758 1.046 9.63 1.625 14.477 2.311 8.411 1.19 16.848 2.071 25.295 2.962 15.916 1.679 31.884 2.709 47.859 3.591 32.569 1.796 65.147 3.063 97.75 4.056 64.493 1.964 129.066 2.392 193.585 2.171 35.035-.119 70.283.342 105.301-1.185 2.158.59 4.382.529 6.533-.174 1.766 31.22 3.631 62.433 5.464 93.649 1.237 21.061 2.328 42.193 3.847 63.261-2.967-1.461-5.698-2.289-9.268-2.258M88.782 336.542c-6.144-3.006-12.92-5.749-18.344-10.007-5.929-4.656-7.385-10.122-5.563-17.428.136-.546.296-1.089.438-1.633 43.691.107 87.271-1.816 130.943-2.853 44.37-1.053 88.724-1.938 133.106-2.188 88.511-.498 177.011 1.498 265.48 3.983 31.861.894 63.721 1.776 95.583 2.646-.727 7.768-.447 15.727-.612 23.44-.145 6.775-.107 13.56-.006 20.344-16.668-.041-33.332-.401-50.002-.589-41.269-.465-82.516.72-123.775 1.664-82.515 1.888-165.052 3.373-247.551 5.858-22.407.674-44.958 1.029-67.468 1.988a210.671 210.671 0 0 0-2.602-10.92c-1.54-5.748-3.278-11.656-7.883-15.649-.221-.193-.527-.109-.626.165-1.749 4.847-1.307 9.782-.795 14.861.405 4.012.679 8.035.882 12.063-13.997.736-27.965 1.771-41.86 3.322a3661.253 3661.253 0 0 0-11.929-5.871c-15.803-7.737-31.611-15.464-47.416-23.196M596.013 480.87c-32.599.263-65.2.291-97.798.082-64.527-.414-129.033-2.001-193.546-3.283-17.955-.355-35.886-.708-53.844-.709-9.297 0-18.625.062-27.912.465-5.845.254-11.771.291-17.589.993.702-18.795 1.433-37.609 1.41-56.413 61.546 9.321 123.753 11.881 185.907 13.715a6739.863 6739.863 0 0 0 188.949 2.913c17.903.027 35.806-.013 53.708-.119 8.619-.05 17.239-.116 25.858-.197 4.633-.044 9.294.05 13.923-.145 4.895-.206 7.852-1.366 11.271-4.848 1.75-1.781 1.839-4.855 0-6.629-6.103-5.887-13.283-4.609-21.216-4.511a7304.405 7304.405 0 0 1-165.098.175c-62.98-.644-125.946-2.044-188.911-3.519-34.81-.815-69.613-.591-104.395 1.097a609.43 609.43 0 0 0-.103-9.367c-.229-11.824-1.381-23.648-3.183-35.341 17.046-.059 34.091-.423 51.06-.641 41.263-.529 82.517-1.36 123.775-2.188l122.778-2.462c40.9-.82 81.926-.879 122.777-3.087 22.046-1.192 44.1-2.812 66.163-3.663l.129 6.075c.531 24.845 1.502 49.666 2.755 74.485a8381.79 8381.79 0 0 0 1.89 35.773c-.316-.031-.639-.05-.971-.053-32.573-.216-65.208 1.138-97.787 1.402M80.177 265.098a476.37 476.37 0 0 1 12.168-28.547c18.604 5.251 38.449 7.96 57.649 9.763 20.44 1.921 40.92 3 61.444 3.419 40.462.826 80.924-1.093 121.343-2.763 83.136-3.433 166.264-5.94 249.478-6.101 23.239-.046 46.477.062 69.714.324a5955.1 5955.1 0 0 1 34.853.487c5.975.103 11.949.216 17.924.339 2.645.054 5.322.25 7.965.17 3.535-.107 6.117-1.17 9.398-2.449 3.767-1.467 5.989-7.765 1.288-9.852-4.696-2.086-8.464-3.308-13.673-3.421a5296.089 5296.089 0 0 0-47.797-.811 4970.329 4970.329 0 0 0-62.741-.368c-41.165.005-82.33.492-123.483 1.46-82.62 1.943-165.055 7.702-247.645 10.173-22.764.682-45.571.815-68.336.132-22.05-.661-44.053-2.517-66.076-3.298 7.607-16.036 16.214-31.653 25.926-46.502 36.713 1.29 73.347.336 110.068-.782 19.269-.587 38.538-1.182 57.805-1.843l28.902-.99 13.953-.478c5.01-.172 10.283.152 15.149-1.165.881-.239 1.581-.749 2.108-1.399 12.952 6.663 26.651 11.919 40.738 15.814 30.578 8.455 63.466 11.627 95.091 9.025 25.38-2.088 50.673-8.37 72.987-20.67 50.393 4.639 101.492 2.459 151.992 2.129 4.825-.031 6.832-4.451 6.025-8.097 16.207 34.927 26.943 72.792 36.992 109.622 6.244 22.889 11.798 45.921 17.085 69.036-.22.019-.439.039-.658.06.613-2.532-.765-5.517-4.232-5.597-20.438-.469-40.942.705-61.388.894-.575-5.114-1.15-10.229-1.756-15.341-.828-6.964-1.814-13.911-2.657-20.874-.305-2.525-.589-4.963-.936-7.361 16.188.44 32.375.885 48.563 1.312 10.506.278 10.487-15.992 0-16.312-88.956-2.724-177.916-5.476-266.902-6.986-89.04-1.512-178.387-2.444-267.359 2.121-48.485 2.486-96.85 5.811-144.732 14.013 3.72-12.978 8.907-25.792 13.763-38.286m75.719-123.626c1.611 1.208 2.127 1.97 4.535 2.393 2.611.457 5.296.603 7.932.861 5.64.552 11.294.758 16.953 1.026 11.3.537 22.599 1.105 33.907 1.449 22.447.681 45.375 1.646 67.812.648 5.489-.244 7.986-4.77 7.487-8.894a131.09 131.09 0 0 0 13.709 14.563c7.878 7.169 16.382 13.524 25.347 19.132-5.816.213-11.738.942-17.227 1.178l-27.906 1.197c-19.602.842-39.202 1.746-58.801 2.662-36.273 1.695-72.422 3.805-108.557 7.265 10.32-15.509 21.88-30.138 34.809-43.48m590.37 75.333c-15.326-42.068-35.085-85.767-70.643-114.661-18.277-14.852-38.639-25.126-61.699-29.993-.708-.15-.99.858-.299 1.085 39.878 13.083 69.389 47.701 89.352 83.179 3.617 6.429 6.969 13.012 10.139 19.694-1.032-1.258-2.611-2.095-4.747-2.059-47.156.792-94.867-.007-141.917 4.6 1.201-.8 2.402-1.599 3.58-2.44 12.853-9.16 24.418-20.368 33.978-33.062 5.758 1.46 11.82 1.816 17.695 2.375 7.841.745 15.736 1.086 23.602 1.509 7.854.421 15.738.461 23.601.651 5.404.131 15.967 1.028 15.973-7.238.006-8.275-10.568-7.399-15.973-7.291-7.864.155-15.744.178-23.601.547-7.532.352-15.109.637-22.619 1.311-4.581.411-9.294.681-13.9 1.409 7.495-11.183 13.462-23.364 17.445-36.212.401-1.293.533-2.501.467-3.62 1.69-1.783 2.768-4.226 2.768-6.464 0-5.322-4.147-8.44-8.994-8.995-19.184-2.193-40.32-5.318-55.78-17.931-6.977-5.692-12.589-12.421-17.871-19.662-5.935-8.14-8.16-18.393-8.183-28.356-.001-.56-.928-.728-1.013-.137-2.905 20.199 1.285 43.257 15.782 58.39 14.234 14.86 33.569 20.426 53.19 23.677-8.09 23.107-21.443 43.404-40.19 59.365-20.89 17.785-47.334 27.297-74.294 30.887-29.086 3.873-59.571 1.99-88.174-4.332-27.554-6.092-54.508-16.986-76.934-34.371-11.314-8.772-21.722-19.112-30.791-30.178-7.485-9.133-13.224-19.318-19.649-29.102 23.971 6.572 52.953-2.406 73.032-15.088 11.827-7.468 22.188-16.792 30.7-27.884 4.198-5.471 7.933-11.246 11.013-17.421 1.602-3.212 3.042-6.516 4.367-9.851.819-2.06 1.622-4.176 1.622-6.441a9.184 9.184 0 0 0-1.261-4.662c-1.718-1.823-2.06-2.351-1.026-1.587-1.687-3.454-6.564-4.331-9.684-2.54-1.163.67-3.898 1.965-5.243 4.127-.909 1.462-1.398 3.21-1.98 4.814-.919 2.532-1.845 5.035-2.999 7.473a102.72 102.72 0 0 1-9.56 16.15c-6.701 9.289-15.314 17.688-24.696 24.243-9.849 6.88-20.464 12.506-31.977 16.019-12.16 3.709-24.196 4.817-36.742 6.176-.134-.186-.264-.373-.398-.558-.242-.334-.765-.226-.786.213-.01.21-.005.419-.011.629-1.789.839-1.937 3.36.056 4.328.739 11.605 5.747 23.034 11.204 33.077 2.273 4.183 4.841 8.236 7.623 12.151a8.701 8.701 0 0 0-2.786-.553c-22.445-.86-45.367.248-67.812 1.069-10.977.402-21.942 1.017-32.91 1.605-5.653.302-11.32.495-16.953 1.08-2.817.293-5.651.523-8.453.945a21.82 21.82 0 0 0-.57.095c6.932-6.827 14.239-13.294 21.953-19.328 25.306-19.796 54.37-35.925 85.38-44.697.294-.083.251-.586-.074-.552-61.678 6.307-113.055 45.174-148.995 93.975-19.942 27.079-35.067 57.056-48.082 87.967-6.56 15.581-12.767 31.439-17.965 47.532-2.642 8.178-3.833 16.853-.049 24.877 2.902 6.156 8.257 10.731 13.87 14.365.373.243.757.467 1.134.704-5.738 19.99-9.582 40.502-13.27 60.952a1504.33 1504.33 0 0 0-10.503 66.897c-6 44.721-10.596 89.535-12.603 134.625a1189.078 1189.078 0 0 0-1.088 37.434c-.08 6.244-.045 12.487.04 18.731.097 6.987-.849 14.872 2.708 21.108 4.753 8.332 13.984 5.464 18.044-.234l.18.234a19.5 19.5 0 0 0 .94-2.169 9.554 9.554 0 0 0 .825-2.989c.765-3.87.477-7.8.446-12.005-.045-5.916-.01-11.832.006-17.748.033-11.169.16-22.334.478-33.501.637-22.326 1.881-44.633 3.582-66.904 3.38-44.24 8.366-88.277 12.633-132.43 2.172-22.481 4.792-45.02 5.244-67.621 5.267 2.773 10.702 5.286 15.96 7.962l29.259 14.895c9.459 4.815 18.932 9.6 28.409 14.382 9.556 4.82 19.048 11.194 29.799 12.38 5.747.633 7.827-7.109 4.441-10.723-4.422-4.722-10.294-7.656-16.197-10.404a814.13 814.13 0 0 0 23.553.501c.108 9.886-.241 19.793-.737 29.657-1.22 24.194-2.916 48.345-4.522 72.516-3.338 50.243-6.569 100.513-9.09 150.803l-1.853 36.952c-.3 5.988-.717 11.984-.887 17.977-.19 6.724-.025 15.152 6.198 19.304 4.396 2.931 9.127 1.55 12.427-2.482 4.413-5.391 4.406-13.202 4.761-19.818.082-1.529.155-3.058.234-4.587 6.74.873 13.431 2.08 20.2 2.74 8.268.806 16.588 1.281 24.892 1.494 16.933.436 33.839.592 50.777.592 33.52.001 67.037-.572 100.552-1.113 67.032-1.082 134.056-2.959 201.065-5.039a19190.012 19190.012 0 0 0 84.587-2.817c9.105-.324 19.052.854 27.066-3.873.232 2.877.468 5.755.721 8.629.481 5.447 4.31 10.126 10.125 10.126 5.464 0 10.16-4.634 10.125-10.126-2.041-49.683-6.458-99.37-9.957-148.969-3.213-45.558-6.225-91.179-10.82-136.628 1.304.843 2.897 1.365 4.776 1.373 6.003.025 11.995-3.698 17.611-5.677a179.285 179.285 0 0 1 17.265-5.141 156.76 156.76 0 0 1 10.407-2.141c-.421 7.111-.313 14.285-.445 21.37-.203 10.891-.541 21.778-.806 32.667-.521 21.455-.706 42.911-1.116 64.367-.826 43.254-2.186 86.485-4.498 129.686a2677.97 2677.97 0 0 1-3.463 54.375c-.453 6.15-1.513 12.685.802 18.58l.22-.127c1.615 5.076 8.714 7.511 12.068 1.734 5.227-9.006 4.022-21.913 4.622-32.045a2670.616 2670.616 0 0 0 1.735-32.626 2324.458 2324.458 0 0 0 2.146-65.31c.824-43.571.684-87.205-1.98-130.712-.729-11.896-1.749-23.77-2.796-35.64-.785-8.898-1.218-18.039-2.606-26.942a169.31 169.31 0 0 1 20.536-1.753c6.685-.167 10.996-6.196 9.579-12.577-11.097-49.983-26.535-99.119-44.05-147.199"/></g></svg>