<svg xmlns="http://www.w3.org/2000/svg" width="818" height="733" fill="none" viewBox="0 0 818 733"><g id="body/Sweater" fill-rule="evenodd" clip-rule="evenodd"><path id="✋ Skin" fill="#D08B5B" d="M335.817 732.115c-60.185-1.295-114.972 2.341-172.927-9.414l-.074-1.952c-12.431-.358-8.316-11.975-5.817-20.1-233.894-10.406-81.335-580.496 80.75-618.827 7.94-1.354 16.566-2.07 25.312-2.155 11.284-3.446 22.404-4.057 34.2-7.2 1.132-4.13 1.317-6.518 6.321-5.295 17.961-17.152 50.279-32.951 61.184.519 14.351-19.947 22.581-43.27 28.577-66.888l.97.159c2.548-6.28 6.72-14.226 11.795-15.537 7.91-2.62 22.826-2.015 31.426-3.078 18.646-1.293 40.305-4.462 58.178-.185 44.663 10.934 25.307 63.658 61.519 97.982 16.618-6.88 42.665-4.993 58.586 3.198 10.253 8.21 5.112 17.468 3.314 26.148 114.357-10.308 144.784 122.328 168.383 209.765 9.468 29.088 18.865 48.808 34.991 71.266 20.948 26.253 32.711 60.633 11.249 88.329 30.64 61.139-2.623 118.603-37.817 164.757-6.892 7.391-18.071 27.956-28.172 29.362-2.741 2.505-7.119 5.588-10.208 7.827l3.725 4.884c.445 4.51.474 9.357 3.558 13.379 2.967 2.891 6.139 5.855 6.227 10.171-4.728 5.487-10.834-.642-15.321-3.367-1.72 3.38-1.473 11.409-6.984 11.097-136.652 9.372-276.603 15.516-412.945 15.155"/><path id="🖍 Ink" fill="#000" d="M390.673 1c10.866 14.148-6.839 57.409-14.987 72.415 55.708 23.26 117.875 33.401 177.381 20.192-15.455-14.784-32.532-62.027-19.809-78.633l.583 2.989c4.314 21.964 9.59 44.75 25.433 61.55 22.434-5.953 76.976-5.42 68.044 29.964 138.488.325 139.638 167.899 185.811 261.4 22.153 35.711 56.454 72.344 27.734 115.254 5.644 13.534 9.577 27.884 11.04 42.459 4.511 47.56-24.592 88.268-50.831 125.176-9.244 10.14-16.977 27.138-30.414 31.475a66.191 66.191 0 0 1-4.29 3.379c2.668 3.886.504 10.066 3.629 13.471l1.22 1.182c2.05 2.01 4.866 4.992 5.428 7.66l.266 2.306c.114.903.139.854.073-.148l-.038-.317c-.042-.434.02-.4.187.104l.072.227c1.407 4.034-1.559 8.652-5.609 9.725-12.056 6.461-24.873-12.448-20.838-25.101-66.852 28.834-205.71-23.314-272.884-49.164-12.837-5.155-25.005-11.848-37.987-16.581l-.967-.471c-14.982-7.377-29.919-18.076-47.491-13.796-73.929 31.661-142.674 84.376-224.628 94.772 12.82 24.484-24.909 27.764-17.35.415-223.022-28.933-84.048-508.248 34.423-600.833 37.716-35.922 63.09-27.686 108.916-38.056 1.053-3.86 4.917-7.097 9.008-6.548 16.286-15.488 50.011-30.577 63.927-5.42 8.511-13.3 14.429-28.074 18.567-43.271 1.649-6.035 2.235-12.93 6.381-17.776Zm-87.306 718.289c-11.891-9.419 6.176-24.271 16.47-18.283 3.179 3.89-7.807.009-6.433 8.627 2.002 5.726-3.974 13.347-10.037 9.656Zm242.704-11.693c-8.461-15.927-1.033-23.024 11.676-10.622 11.603 8.753-3.962 22.975-11.676 10.622Zm-117.847-1.488c-11.932-6.41-14.9-35.654 4.468-21.596 17.232 6.127 12.498 28.048-4.468 21.596ZM294.418 82.468c-23.857 6.596-50.474 3.754-72.355 17.414-53.527 33.693-84.31 91.777-107.466 148.818l-.7 1.729C66.909 366.114 29.301 500.609 68.84 623.531c19.97 55.921 69.127 79.899 125.077 60.474 140.419-45.486 257.764-154.834 407.094-173.46 2.105-17.287-2.673-34.325-8.772-50.486-91.611 3.815-179.441 33.474-267.229 57.348-5.112 22.394-30.657 48.476-45.962 65.85-13.827 18.508-48.03 24.081-52.237-4.375l-.673.762c-11.281 12.651-36.03 34.573-43.628 7.267-1.711-14.322 7.467-26.711 11.981-39.74l-.477.352c-8.342 6.235-42.865 35.66-45.267 16.066.154-18.463 5.999-36.633 16.602-51.756 10.653-13.965 23.742-27.11 37.999-37.433.752-4.38 2.12-8.614 3.145-12.946-1.565-16.289 4.858-31.579 6.542-47.529 3.884-14.964 4.731-42.981 15.566-53.508 8.317 8.859.077 42.643-.349 55.567-2.97 15.709-1.685 31.762-7.378 47.038 16.058-8.781 33.46-13.237 50.945-13.988 1.781-34.299 50.337-22.321 72.826-19.66 34.327-12.206 178.451-7.93 202.279 17.728 11.895-1.381 23.268-2.468 35.342-3.297 14.043-8.932 52.782-5.276 58.754 12.289 15.615 4.623 29.181 12.507 42.875 21.513 4.239-69.889-14.303-138.734-9.788-208.727.407-4.067 2.288-7.593 2.21-11.728-.009-.491.706-.472.75 0 6.745 20.435 8.028 42.248 11.819 63.44 4.994 36.961 13.768 73.495 16.678 110.69 1.267 31.257-3.811 64.688 8.657 94.32 1.776 4.218-1.154 11.088-5.245 12.892-34.167 14.35-73.918 4.036-105.12-13.458-66.484 21.283-131.524 46.563-192.772 80.313 11.787 3.103 22.388 10.003 33.059 15.734 15.191 5.258 30.278 10.809 45.454 16.113 75.105 22.707 153.704 53.191 233.055 48.568 24.395-4.164 35.367-14.615 49.849-33.284l2.389-3.1c25.873-33.468 55.445-68.907 59.781-112.321.988-14.091-.35-28.109-1.166-42.148-3.486 3.567-7.227 6.9-10.847 10.35-5.024 4.787-11.446-1.249-8.981-6.929 5.331-16.14 14.725-31.369 16.35-48.452.274-16.068-10.258-30.362-19.563-42.576-72.404-89.107-40.822-276.212-184.227-294.379-61.191 128.678-269.842 75.185-330.015-27.29l-1.804-3.166ZM133.706 624.857c.604-17.54 28.522 5.297 25.944 14.87-1.564 13.23-17.609 7.05-21.242-1.883-2.255-4.086-4.154-8.332-4.702-12.987Zm552.795-18.049c4.025-7.341 27.998 13.769 15.572 20.702-8.414 4.437-11.635-5.958-13.462-12.197-.997-2.611-2.887-5.624-2.11-8.505Zm-410.02 9.63c-15.099-8.958 17.953-21.023 19.194-6.411.485 9.918-12.904 9.39-19.194 6.411Zm280.607-38.589c7.584-10.113 7.764 25.707 3.267 28.139-2.076 3.277-6.729 2.503-7.968-1.042-3.187-9.129 1.611-18.515 4.701-27.097Zm-358.836 6.304-.164.607c-.842 3.287 1.138-1.049.375-.409-.068-.072-.14-.134-.211-.198Zm163.938-85.665c-34.547-39.339-96.863-49.101-143.431-25.763-6.86 2.01-12.879 7.641-19.055 11.323a50.099 50.099 0 0 1 4.708-1.438c-20.456 17.411-37.869 41.257-41.013 68.409 18.649-11.535 35.032-25.988 47.955-44.048 4.249-7.414 16.453-2.321 13.855 5.839-8.385 23.048-21.215 45.292-26.587 69.11 20.098-14.549 34.93-35.959 43.269-59.209 3.506-9.972 19.112-5.915 16 4.41-4.118 13.667-8.512 27.288-12.419 41.02l-1.053 3.749c-1.31 4.727-2.079 9.055 3.536 10.353 18.095 1.167 42.352-38.818 53.135-52.44 5.291-6.444 9.97-20.426 19.96-18.389 12.436-8.13 27.432-9.083 41.14-12.926Zm398.329 62.911c2.064-1.792 4.595-3.031 7.335-2.118l.266.095c8.282 2.897 1.862 14.23-5.24 10.243-2.413-1.809-5.034-3.33-7.912-4.321-1.725-1.776 4.521-2.579 5.551-3.899Zm-385.446-33.082c2.438-11.428 25.015 4.111 16.98 12.16-7.625 5.831-16.329-4.85-16.98-12.16Zm-271.978 1.594c21.195-13.798 23.749 19.615-7.591 9.854-2.578-3.9 5-7.723 7.591-9.854Zm542.528-68.769c11.582 13.858 16.154 31.967 18.206 49.553.467 3.458 1.287 7.277 1.118 10.846 7.907 1.161 16.049 1.463 23.787-.092-1.909-6.869-3.09-13.943-3.808-21.076-10.446-15.577-22.455-30.202-39.303-39.231Zm-30.899 44.078a58.509 58.509 0 0 1-.182 5.745c10.242 1.203 20.331 3.773 30.355 6.273l-.065-3.044a251.904 251.904 0 0 0-.081-3.056c-9.908 2.671-22.081-.095-30.027-5.918Zm26.607-23.511c-11.441-4.631-21.927-7.527-34.231-6.754 3.639 7.824 6.268 16.022 7.229 24.443 5.01 1.42 10.687 1.821 15.525 1.571 4.908-.252 9.438-2.611 14.107-2.717-.531-5.552-1.319-11.114-2.63-16.543ZM532.5 485.616c7.238-2.894 17.896 5.083 9.957 11.334-5.78 3.926-13.687-1.339-18.379-4.926-2.586-2.97 6.161-5.869 8.422-6.408Zm-143.464-26.598c-3.135 9.642-23.764 5.408-33.215 10.601l.836.482c9.081 5.291 18.941 12.809 20.63 22.366a960.316 960.316 0 0 1 36.333-13.337c-7.223-8.07-15.523-14.716-24.584-20.112Zm140.113-9.453c-54.264-19.456-113.406-18.886-170.33-17.074l1.497.45c24.541 7.446 53.275 19.014 66.066 41.904 33.531-10.936 67.841-19.991 102.767-25.28Zm105.647 15.361c-8.349-14.785-24.604-21.396-40.508-20.285l-2.506.41c1.731.607 3.359 1.465 4.822 2.684 2.612 2.176 2.568 6.959.259 9.35 2.929 4.341 5.679 8.868 8.108 13.544 8.768-6.117 19.283-6.999 29.825-5.703Zm146.601.324c-18.995 11.148-32.744-41.05-8.804-29.838l1.707 1.829c6.935 7.486 17.657 20.139 7.097 28.009Zm-445.416-24.441c-6.067 4.924-13.131 8.495-19.275 13.368 10.101 2.558 20.029 5.953 29.423 10.419 7.654-6.563 16.859-10.741 26.605-13.687-11.689-4.841-24.218-8.072-36.753-10.1Zm-248.737 1.1.089-.237c2.94-8.259 20.69-20.509 29.507-17.301.412-.02.82.383.796.797l.144 1.023c.496 3.631.752 7.186-1.644 10.424-4.291 6.916-8.388 15.533-16.641 18.229-8.133 2.579-15.1-5.134-12.251-12.935Zm228.509-3.444-2.711-.144c-12.45-.694-30.377-1.827-36.457 10.592 10.5-.072 21.18 1.079 31.772 3.332 1.585-4.773 4.186-9.571 7.396-13.78Zm68.004-52.759c-1.895-3.616 5.133.348 6.766-.208 3.033.186 5.772.809 7.488 3.537 2.749 4.375-2.592 9.065-6.799 6.799-4.06-2.243-3.084-8.094-7.455-10.128Zm238.527-20.236.259-.026c4.196-.467 22.174-4.559 22.127-.113l-.344.483c-5.654 8.057-13.025 23.917-24.528 18.263-7.39-4.209-5.907-16.785 2.486-18.607Zm-125.213-.657c3.319-6.117 10.43 8.086 12.545 10.613 3.01 6.74-5.674 11.996-9.957 5.82-2.659-4.817-3.842-11.025-2.588-16.433Zm-311.408-14.035c4.768-2.415 16.826-2.632 13.525 5.519-6.432 8.529-18.23 4.401-25.435-1.062-3.684-4.239 9.62-2.515 11.91-4.457Zm115.912-31.643c-.432-6.108 6.381-8.292 10.974-6.297 8.196 3.561 14.548 16.66 11.954 25.132-2.088 8.404-14.808 10.264-18.85 2.464-2.324-7.202-2.637-14.078-4.078-21.299Zm422.172 11.402c9.414-1.993 19.285-8.302 28.954-6.525 3.014 1.133 4.109 4.561 1.86 7.05-1.271 5.741-36.111 4.463-30.814-.525Zm-272.168-21.913c4.006-7.269 13.213-14.981 22.048-14.35 5.419-.18 7.536 7.613 2.762 10.2l-.159.067c-2.997 1.196-25.727 7.029-24.651 4.083Zm125.114-11.717c-13.558-1.944-13.478-34.553-5.404-28.185 2.752 7.997 9.74 12.762 13.736 19.853 2.02 4.863-3.815 9.708-8.332 8.332Zm-411.641-7.217c5.761.882 35.677-17.312 30.195-2.75-3.567 4.082-8.083 4.18-13.145 4.557l-.138-.014c-2.596-.167-21.466 2.073-16.912-1.793Zm206.908-29.614c-5.986-.694-27.759-46.184-17.11-43.319l1.625 1.065c11.799 7.789 24.809 17.745 30.074 31.039 2.074 7.925-7.182 16.288-14.589 11.215Zm133.925-18.713c.862-.391 1.623.835.757 1.296-3.698 1.963-7.714 6.119-10.038 9.626-7.958 9.953-17.372-7.635-5.141-8.957 4.462.321 10.328-.11 14.422-1.965Zm-253.956-55.066c11.042-2.844 16.381 11.716 7.477 17.736-4.453 3.818-46.288 15.77-48.793 10.973 5.248-8.533 31.47-25.715 41.316-28.709Zm414.772 2.039c30.569-2.502 31.39-8.096 9.799 16.832-12.747 11.188-25.664-11.732-9.799-16.832ZM523.62 113.825c-10.602.9-21.248 1.17-31.877.826 1.638 3.507.218 8.61-4.434 7.902-2.188 14.197-3.183 28.622-5.945 42.723-.725 3.297-1.752 6.499-2.734 9.715 20.24 1.494 40.782.656 60.509-4.352-7.328-18.36-10.508-37.791-15.519-56.814Zm-85.508-6.054c-.096 1.484-.517 2.952-1.212 4.192-9.156 15.861-17.194 32.411-26.872 47.936 20.886 7.737 42.834 12.782 64.979 14.776-3.346-20.198-.377-40.797-1.07-61.165a288.665 288.665 0 0 1-35.825-5.739Zm134.12-2.341c-10.595 2.851-21.375 4.99-32.237 6.52.043 1.708-.94 3.302-2.459 3.939 2.38 17.731 7.07 35.176 7.138 53.25 22.64-5.547 40.538-20.954 55.387-38.33l-3.375-2.46c-9.024-6.606-18.13-13.655-24.454-22.919ZM363.549 65.35c-13.133-8.06-31.314-4.626-41.95 5.869-4.713 4.203-8.804 9.885-14.171 13.187a7.368 7.368 0 0 1-2.044.867c3.697 6.99 9.347 13.69 14.123 19.456 25.61 22.362 54.44 41.142 86.126 53.498 1.297-19.01 7.875-37.472 15.393-54.938a237.414 237.414 0 0 1-20.702-7.294c-.864 4.571-5.149 8.101-7.859 11.649-6.149 7.201-10.247 16.006-16.102 23.332-6.522 6.835-17.603-1.882-12.916-9.965C371 109.983 380.761 100 392.101 92.491c-7.475-3.354-14.603-7.301-21.497-11.717-.292.304-.593.594-.898.874-.461-2.846-4.378-2.097-6.461-1.631-1.484-1.257-3.498.326-5.151.738a7.018 7.018 0 0 1-.589-1.393c-8.489 8.385-14.874 21.664-25.827 26.671-4.512 1.245-9.744-3.235-8.024-8.023 2.897-7.352 26.401-22.955 34.165-27.078-1.699-2.472-.34-3.693 2.414-3.326.473-.592 1.198-.775 1.953-.273.479-.644.928-1.31 1.363-1.983Zm-170.265 73.857c5.323.026 11.608-2.193 16.387.881 7.028 8.044-10.389 10.809-17.215 1.12-.664-.735-.228-2.006.828-2.001Zm392.727-49.555c1.521 1.793 2.037 4.409 1.482 6.759 6.66 10.169 10.319 21.681 13.666 33.117l.937-1.163c15.174-18.964 23.779-36.158-9.57-38.03a90.187 90.187 0 0 0-6.515-.683Zm-317.784 26.683c-27.548-20.12 31.728-9.128 14.651 3.171-5.255 1.908-10.293-.215-14.651-3.171Z"/></g></svg>