<svg xmlns="http://www.w3.org/2000/svg" width="818" height="733" fill="none" viewBox="0 0 818 733"><g id="body/Sweater Dots" fill-rule="evenodd" clip-rule="evenodd"><path id="✋ Skin" fill="#D08B5B" d="M581.972 71.25c-18.521-13.481-27.707-35.553-34.617-39.31-5.085-2.765-4.992-21.838-15.184-28.59-13.676-9.059-57.259-15.794-73.115-17.054-15.219-1.21-41.69 1.33-55.969 6.903-23.813 9.294-33.31 27.021-43.797 49.86 0 0 235.407 37.453 222.682 28.19Z"/><path id="👕 Top" fill="#78E185" d="M236.545 87h376.363l130.271 115.891L801 690l-82.242 25.609-508.154 8.493-158.702-44.87L42 340.165 236.545 87Z"/><path id="🖍 Ink" fill="#000" d="M748.08 601.51c-2.622-1.309-5.355-2.806-8.349-2.91-5.142-.179-5.149-8.18 0-8 4.491.157 8.435 2.029 12.387 4.002 4.611 2.302.555 9.2-4.038 6.908m-8.349-225.182c3.509.003 7.046.446 9.741 2.9 1.602 1.46 1.475 4.181 0 5.657-1.579 1.577-4.061 1.454-5.658 0 .521.473.005.004-.184-.101a.437.437 0 0 1-.082-.052c-.04-.01-.08-.018-.145-.035a18.757 18.757 0 0 0-1.254-.284c-.007.02-.893-.059-1.101-.067a36.18 36.18 0 0 0-1.317-.018c-2.17-.001-4-1.829-4-4 0-2.16 1.838-4.001 4-4m-37.615 89.736c-1.146 5.025-8.857 2.885-7.714-2.127 1.662-7.287 1.359-14.753 0-22.066-.936-5.04 6.775-7.181 7.714-2.126 1.63 8.772 1.995 17.575 0 26.319m-10.104-287.51c-5.958-1.415-11.851-1.583-17.945-1.585-5.156-.002-5.148-8.002 0-8 6.797.002 13.432.294 20.072 1.871 5.014 1.191 2.878 8.902-2.127 7.714m-19.964 194.86-10.367-5.184c-4.612-2.305-.555-9.203 4.037-6.908l10.368 5.185c4.61 2.305.554 9.203-4.038 6.907m-1.439 157.541c-4.383 6.319-10.546 10.245-17.942 12.206-4.99 1.323-7.1-6.396-2.127-7.714 5.289-1.402 9.988-3.955 13.161-8.53 2.917-4.206 9.849-.202 6.908 4.038m-27.643-281.664c-1.186-2.216-2.971-3.152-5.187-3.202-5.148-.118-5.149-8.118 0-8 5.05.114 9.681 2.65 12.094 7.165 2.429 4.543-4.48 8.58-6.907 4.037m-50.742 54.378c-1.434 1.562-4.215 1.523-5.657 0a13.388 13.388 0 0 1-2.209-3.114c-.222-.433-.431-.874-.675-1.295a8.762 8.762 0 0 0-.354-.553 4.781 4.781 0 0 1-.219-.222c-1.537-1.625-1.498-4.024 0-5.657 1.435-1.562 4.216-1.523 5.658 0a13.384 13.384 0 0 1 2.208 3.114c.222.433.431.874.676 1.296.109.187.23.372.354.552.042.037.128.127.218.222 1.538 1.625 1.499 4.024 0 5.657m-4.266 118.129c-5.21 2.384-10.924 2.384-16.134 0-1.973-.903-2.441-3.752-1.434-5.473 1.166-1.994 3.509-2.333 5.472-1.435 2.363 1.081 5.699 1.08 8.059 0 1.972-.902 4.292-.582 5.472 1.435 1.013 1.732.53 4.574-1.435 5.473m-14.211 83.615c-.895 2.119-2.828 3.245-5.088 3.331-2.239.085-3.906-1.901-4-4-.06-1.356.673-2.515 1.726-3.233.001-.074.003-.148.003-.223.001-2.242 1.832-3.903 4-4 2.159-.097 4.001 1.908 4 4-.001 1.412-.088 2.813-.641 4.125m-20.64 132.931c-6.384.103-12.622 1.624-19.007 1.728-5.159.083-5.143-7.917 0-8 6.384-.104 12.622-1.625 19.007-1.728 5.159-.084 5.143 7.916 0 8m-26.548-512.659c-3.737 3.56-8.353 5.314-12.905 7.538-4.612 2.253-8.663-4.648-4.038-6.908 3.856-1.884 8.125-3.276 11.287-6.286 3.73-3.553 9.393 2.098 5.656 5.656m-10.031 92.21c-2.622-1.309-5.355-2.806-8.348-2.91-5.143-.18-5.15-8.18 0-8 4.49.156 8.434 2.029 12.386 4.002 4.613 2.302.556 9.2-4.038 6.908m-48.091 370.084c-1.184-2.217-2.969-3.153-5.185-3.203-5.149-.117-5.151-8.117 0-8 5.05.115 9.681 2.651 12.094 7.165 2.428 4.544-4.48 8.58-6.909 4.038M451.783 414.26c-1.592-1.461-1.481-4.175 0-5.656l5.185-5.184c1.58-1.581 4.059-1.466 5.656 0 1.592 1.461 1.481 4.175 0 5.657l-5.184 5.183c-1.582 1.582-4.06 1.466-5.657 0M432.147 685c-5.771-.135-11.181-1.791-16.615-3.599-4.869-1.62-2.769-9.344 2.127-7.714 4.723 1.571 9.467 3.196 14.488 3.313 5.149.119 5.151 8.119 0 8m-25.92-171.072c-5.214-.145-9.539-2.8-13.196-6.356-3.699-3.596 1.964-9.248 5.657-5.656 2.093 2.034 4.508 3.928 7.539 4.012 5.147.143 5.151 8.143 0 8m16.096-220c.063 2.13.963 4.412 2.285 5.812 3.535 3.744-2.115 9.408-5.657 5.657-2.922-3.094-4.505-7.235-4.628-11.469-.148-5.158 7.853-5.136 8 0m-61.021-174.236c-1.674-3.278-3.868-7.122-7.205-8.933-4.532-2.459-.489-9.364 4.038-6.908 4.536 2.462 7.782 7.314 10.075 11.803 2.34 4.581-4.566 8.624-6.908 4.038m-10.37 83.197c-1.856-.053-3.698-.371-5.488-.856-.765-.208-1.521-.447-2.287-.655-.328-.089-1.721-.263-.865-.217-2.166-.116-4-1.738-4-4 0-2.079 1.84-4.116 4-4 2.969.159 5.669 1.644 8.64 1.728 5.145.145 5.149 8.145 0 8m-25.92 127.871h-8.64c-5.156 0-5.147-8 0-8h8.64c5.156 0 5.147 8 0 8m-10.078 353.693c-2.62 1.311-5.708 2.553-7.83 4.559-3.742 3.538-9.406-2.112-5.657-5.657 2.703-2.555 6.159-4.163 9.45-5.809 1.939-.97 4.323-.532 5.473 1.435 1.039 1.778.496 4.506-1.436 5.472m-19.305-101.08a7.819 7.819 0 0 0-1.028-.204c-1.36-.184-2.783-.12-4.149-.121-5.156-.003-5.148-8.003 0-8 4.057.002 8.279.059 11.469 2.9 1.619 1.442 1.462 4.194 0 5.656-1.59 1.59-4.045 1.437-5.657 0 .17.153-.413-.169-.635-.231m-5.175-135.944c1.162-2.396 1.18-3.958 1.182-6.621.004-5.156 8.004-5.148 8 0-.002 3.866-.577 7.158-2.274 10.659-.947 1.952-3.719 2.461-5.472 1.435-1.966-1.149-2.377-3.53-1.436-5.473M267.323 259.77c-4.64 1.578-8.782 3.812-12.868 6.509-4.313 2.846-8.316-4.085-4.038-6.908 4.663-3.077 9.486-5.515 14.779-7.316 4.894-1.664 6.975 6.066 2.127 7.715M240.34 125.129c-3.447.096-7.005 1.418-10.077 2.91-4.617 2.242-8.668-4.659-4.037-6.908 4.388-2.132 9.189-3.864 14.114-4.002 5.159-.145 5.137 7.856 0 8m-12.096 359.423c-1.356.061-2.515-.672-3.233-1.726l-.223-.002c-2.242-.001-3.902-1.832-4-4-.097-2.159 1.908-4.001 4-4 1.412.001 2.813.087 4.125.641 2.119.894 3.245 2.827 3.331 5.087.085 2.24-1.901 3.906-4 4M208.571 207.93c-4.913 1.605-6.999-6.122-2.127-7.714 5.719-1.869 11.563-3.316 17.281-5.185 4.913-1.605 6.999 6.123 2.126 7.715-5.717 1.868-11.562 3.315-17.28 5.184M190.63 358.928c-1.524 4.91-9.243 2.802-7.715-2.127 1.476-4.758 1.582-9.546 1.585-14.489.003-5.156 8.003-5.147 8 0-.003 5.626-.192 11.201-1.87 16.616m-53.487 180.856c-.291 1.992-1.871 3.427-3.939 3.52-2.105.094-4.076-1.907-4-4 .147-4.027 3.43-7.309 7.456-7.456 2.24-.082 3.906 1.898 4 4 .092 2.043-1.614 3.638-3.517 3.936m-27.068-229.902c-4.227 1.411-8.744 2.754-12.058 5.883-3.745 3.534-9.409-2.115-5.657-5.657 4.37-4.125 9.991-6.072 15.589-7.941 4.902-1.636 6.985 6.093 2.126 7.715M91.73 465.291c-1.162 1.986-3.515 2.345-5.472 1.435-2.624-1.22-5.52-1.179-8.35-1.182-5.155-.004-5.147-8.004 0-8 4.364.004 8.39.415 12.388 2.274 1.967.916 2.446 3.743 1.434 5.473M81.364 653.896c-2.24.082-3.906-1.899-4-4-.092-2.043 1.613-3.638 3.518-3.936.29-1.992 1.871-3.428 3.938-3.52 2.106-.095 4.077 1.906 4 4-.147 4.027-3.428 7.308-7.456 7.456m728.826 30.248c-1.359-4.89-4.469-8.84-6.819-13.24-.788-1.483-1.062-2.405-1.489-3.491-.58 1.161-1.706 2.034-3.399 2.035-3.248.001-7.047-.208-10.078 1.182-1.971.903-4.293.582-5.472-1.435-1.013-1.733-.529-4.573 1.435-5.473 4.467-2.047 9.269-2.272 14.115-2.275 1.197 0 2.103.441 2.743 1.103 1.852-25.36 1.806-50.738.054-76.116-1.869-27.12-6.17-53.7-10.67-80.47-2.179-12.98-5.009-26.09-4.459-39.31.55-13.13 6.18-25.37 2.19-38.54-1.6-5.28-4.34-10.12-6.12-15.34-1.91-5.62-1.74-11.17-.87-16.99 1.79-11.85 4.759-23.56.009-35.13-2.099-5.13-5.5-9.71-7.139-15.01-2.04-6.59-1.76-13.88-2.1-20.71-.69-13.78-.87-27.65-2.011-41.4-.509-6.16-1.619-12-4.149-17.65-2.431-5.44-6.04-10.39-7.65-16.16-1.6-5.68-1.74-11.67-2.6-17.48-.9-6.14-2.31-12.19-4.21-18.09-7.34-22.84-20.79-43.36-36.68-61.15-16.89-18.91-37.08-33.15-58.51-46.42a125067.25 125067.25 0 0 1-33.798-20.934c-.24 1.309-1.075 2.512-2.678 3.048-4.229 1.412-8.744 2.754-12.059 5.883-3.744 3.534-9.409-2.115-5.657-5.656 3.914-3.696 8.833-5.641 13.839-7.35-5.131-3.234-10.317-6.583-16.107-8.451-5.071-1.64-12.55-.21-16.661-3.93-3.229-2.93-4.25-8.36-5.489-12.34-1.55-4.94-2.89-10.15-4.86-14.95-1.34-3.28-3.29-6.43-5.75-8.97-1.08-4.16-3.061-7.96-6.561-10.27-9.159-6.06-20.409-.04-24.439 8.6-3.33-.01-6.84.72-10.08.92-6.66.42-13.33.61-20 .59-13.05-.04-26.11-.89-39.05-2.62-23.14-3.1-45.59-9.35-68.34-14.22-.13-.3-.28-.6-.46-.9-4.9-8.22-17.11-6.83-24.801-3.72-3.299 1.33-6.659 3.01-8.549 6.13-2 1.35-3.73 2.99-4.88 4.72-2.38 3.57-4.22 10.77-9.05 11.37-3.18.39-6.41-.22-9.64.24-4.04.56-7.66 1.98-11.39 3.6-28.4 12.33-57.76 26.04-88.581 30.82-7.229 1.12-14.589 2.28-20.869 6.33-5.1 3.29-9.041 7.81-13.25 12.1-4.1 4.18-7.48 6.03-13.33 6.78-7.1.91-13.25 2.87-18.44 8.03-4.31 4.29-7.12 9.77-10.5 14.75-3.441 5.08-8.49 7.94-13.73 10.89-12.39 6.98-23.93 15.41-33.98 25.52-21.17 21.32-33.99 48.72-46.91 75.42-13.97 28.88-27.03 58.11-36.09 88.95-8.88 30.28-14.16 61.43-16.6 92.87-2.57 32.99-2.93 66.11-5.07 99.12-1.07 16.49-1.88 33-2.7 49.5-.8 16.3-1.97 32.63-1.78 48.95.36 31.55 6.67 63.2 17.7 92.74 2.75 7.35 5.8 14.6 9.05 21.74 2.85 6.27 12.6 5.57 15.66 0 .7-1.28 1.25-2.6 1.71-3.94 8 .07 16.08-.55 24.03.19 14.04 1.31 28.109 2.04 42.189 2.91 27.861 1.73 55.771 2.88 83.641 4.47 2.704.154 5.408.309 8.111.47-19.861-61.473-17.285-127.932-20.428-191.864-.253-5.154 7.749-5.124 8 0 3.156 64.206.469 130.835 21.032 192.408 7.978.54 15.945 1.2 23.885 2.166 6.419.77 12.87 1.68 19.35 1.36 7.35-.35 14.53-2.03 21.7-3.49 13.03-2.65 25.58-1.45 38.66.18 13.99 1.75 28.03 2.72 42.11 3.33 56.38 2.47 113.14 4.72 169.5.95 13.64-.91 27.25-2.19 40.8-3.93 13.96-1.79 27.77-4.8 41.719-6.51 13.75-1.68 26.391 2.93 39.981 3.78 13.859.87 28.09-2.02 41.82-3.68 4.479-.543 8.963-1.071 13.448-1.595-5.774-39.575-9.057-79.448-12.246-119.305-.411-5.141 7.592-5.097 8 0 3.163 39.546 6.373 79.122 12.138 118.385 23.775-2.766 47.573-5.565 71.1-9.875 6.7-1.22 13.36-3.21 17.37-9.19 2.969-4.43 3.57-9.86 2.139-14.96"/></g></svg>