<svg xmlns="http://www.w3.org/2000/svg" width="818" height="733" fill="none" viewBox="0 0 818 733"><g id="body/Tee Selena"><path id="✋ Skin" fill="#D08B5B" fill-rule="evenodd" d="M515.847 717.808c-81.151.228-129.756-.723-221.548-2.05-106.241-2.811-134.873 2.244-194.391-9.442-9.1-1.934-16.023-4.862-23.045-8.945-2.517 2.844-6.784 7.075-10.836 4.274-7.464-4.932-4.042-22.164-5.893-31.894-3.064-85.684-7.965-173.925 8.789-258.572C58.766 407.877-.75 383.394-4 375.192 49.821 234.461 167.887 69.776 323.226 75.978c3.124 3.852 5.903 9.553 9.37 13.475 21.12-7.908 50.437-15.834 51.884-46.283 3.657-20.32 6.292-39.294 8.053-57.97.319-2.136 2.881-2.87 4.455-3.78.669-4.829 2.205-9.765 5.539-13.076 27.224-2.446 89.369 8.781 105.677 13.407 22.248 3.807 19.934 27.683 24.078 45.783 6.57 22.375 11.143 45.597 20.907 67.457 2.209.304 8.397 1.381 10.678 1.78.119-2.477-1.043-9.829 1.228-11.329 4.209-4.23 5.18 3.816 6.115 6.44 91.932-17.36 152.049 60.651 172.194 147.791 14.589 43.823 33.922 88.173 59.159 135.737 15.826 29.532-29.642 35.019-48.702 46.805 19.668 76.526 22.036 154.46 25.264 231.59.852 11.864 2.01 27.997-2.193 33.901-1.994 1.55-3.38 1.507-5.402 1.62-3.901 4.21-10.593 3.93-16.226 5.132-17.808 3.239-36.057 5.402-53.202 5.729-48.124 29.784-122.316 13.129-186.255 17.621" clip-rule="evenodd"/><path id="👕 Top" fill="#fff" d="M234 197h438v288H234z"/><path id="🖍 Ink" fill="#000" fill-rule="evenodd" d="M385.838-14.857c2.528-12.655 23.416-9.723 22.467 3.04-10.544 47.5-4.125 105.323-70.772 100.648 42.307 74.416 172.951 119.676 215.179 21.975-20.808-2.483-24.925-51.672-27.438-68.883l-.103-1.539c-.557-8.851-.371-17.055 4.951-24.625 5.31 3.975 7.444 11.174 9.242 17.739l1.317 5.258c4.402 17.521 9.008 34.964 15.992 51.687l.247.04c-.349-11.342 14.212-16.527 17.821-4.377 98.519-13.567 152.411 67.732 173.674 152.758 15.508 46.543 35.726 91.321 58.692 134.603 17.332 33.819-24.757 41.56-47.02 52.812 17.123 68.601 20.484 139.672 23.658 210.033-1.053 15.016 5.736 45.819-3.331 56.587-13.427 10.506-20.661-7.502-18.594-19.049 1.928-81.643-6.574-162.924-9.016-244.437-16.809 7.101-33.823 13.644-51.027 19.722.876 76.491 9.971 152.981 13.215 229.081 4.256 3.354 6.607 9.168 2.973 14.235-19.464 27.144-54.653 31.198-85.615 31.587-73.683.924-147.443.639-221.131.419-72.382-1.639-145.394 2.996-217.394-5.3-14.11 10.598-16.996-12.247-15.106-21.992l.718-19.52c.483-13.012.994-26.024 1.652-39.028l1.641-31.709c2.747-52.842 5.658-105.657 10.276-158.396-41.824-5.718-83.047-15.868-122.956-29.565 3.285 91.555-3.454 184.092 7.783 275.181 7.415 10.063-7.456 19.51-16.137 13.206-10.766-8.209-6.149-24.269-8.299-36.087l-.276-7.64c-3.013-82.396-7.13-166.523 8.228-247.786l-6.606-2.564c-20.137-7.861-71.925-28.885-65.134-39.258C43.674 232.335 164.615 62.895 324.792 70.947c4.058 2.816 6.13 8.302 9.14 12.234l4.765-1.73c18.455-6.755 38.498-15.32 39.044-38.035 3.494-19.356 6.265-38.716 8.097-58.273Zm263.967 353.104c22.945-32.092-136.193 18.628-147.508 21.976l-4.26 1.552c-69.701 25.338-144.841 49.84-200.419 100.347-1.168 1.279.286 3.046 1.797 2.329l.194-.115c2.211-1.23 11.785-4.648 5.002-3.353 80.305-50.642 173.602-78.461 264.765-102.792a1042.61 1042.61 0 0 1 39.922-8.829c13.48-3.276 28.691-3.24 40.507-11.115Zm-251.466-10.445c1.963-8 15.151-81.519-6.753-61.35-5.84 10.579-8.082 22.837-9.133 34.749-2.825 13.888 4.305 28.855-2.628 41.658-6.207 16.722-29.02 36.257-30.544 5.189 37.324-1.275 26.119-48.567.708-33.946-13.914 11.909-16.322 34.334-9.356 50.763-11.249-12.244-29.489-12.285-42.509-21.525-23.513-25.416 15.98-51.865 37.485-61.019 1.211-1.333 18.841-7.477 15.105-8.22-16.882.156-33.8 3.748-48.369 12.627-30.154 14.711-40.417 60.258-5.923 76.22 7.459 3.594 15.622 5.526 23.007 9.237 18.61 9.646 12.597 21.769-6.615 22.125-7.902 1.726-33.979-5.507-31.059 8.342 4.717 8.658 14.989 9.948 23.988 10.19 24.052 1.649 53.96-11.937 40.367-40.23 16.408 13.978 36.897-5.564 43.929-20.751 8.569 16.803 30.109 11.743 42.265 1.8 18.574 14.627 41.88-1.631 50.154-19.789.169 3.778.338 7.555.521 11.333.374 7.743 12.374 10.229 14.148 1.915 2.698-12.64 6.418-25.139 11.535-37.02 11.772-31.233 18.97-17.15 19.38 7.325 1.45 9.189 6.052 17.423 16.209 18.042 2.831.173 6.524-2.345 6.966-5.303l.585-3.914c1.237-8.201 2.671-16.645 5.767-24.35 2.983 25.506 36.387 25.383 45.7 4.234 19.323 11.595 39.598-4.604 48.606-21.359l.269-.507c3.148-5.73-4.851-12.66-9.424-7.271l-1.587 1.652c-8.624 8.926-22.345 21.869-33.686 10.846.377-4.971.225-10.049-.081-14.939-.367-5.832-8.417-11.02-12.994-5.805-6.451-5.481-14.465-4.692-21.213-.868-17.48 4.939-28.491 21.955-32.283 38.867-.403-13.513-4.824-28.174-19.669-29.445-15.209-.129-21.031 16.874-26.218 28.317-.301-5.125-.591-10.249-.852-15.375-.447-8.819-12.681-8.727-13.683-.261l-.027.262c-1.927 18.297-12.062 62.127-37.636 53.55 10.784-11.879 30.291-48.077 11.746-59.352-28.541-7.183-43.181 37.838-31.009 58.789l-.631.443c-6.954 4.796-18.445 10.136-22.327-.615l-.44-.992c-1.993-4.546-3.753-9.47-1.791-14.269Zm-40.827-5.075c5.404-3.154 7.327 7.292 5.948 10.798-2.21 5.624-8.238 8.757-14.246 10.901l.02-.636c.266-6.422 2.408-17.631 8.278-21.063Zm90.965-26.075c.122.753-.077 1.672-.102 2.371-.924 12.313-6.402 24.136-14.021 33.745-4.386-13.055 1.267-30.307 14.123-36.116Zm129.922-15.399c3.502-.923 7.214-.664 10.824.312-.262 4.104.629 8.209 2.416 11.976-9.319 27.986-31.227 6.443-13.24-12.288Z" clip-rule="evenodd"/></g></svg>