<svg xmlns="http://www.w3.org/2000/svg" width="818" height="733" fill="none" viewBox="0 0 818 733"><g id="body/Tee 2" fill-rule="evenodd" clip-rule="evenodd"><path id="✋ Skin" fill="#D08B5B" d="m48 350.888 716.472 56.879.75 4.869c12.006 78.19 18.07 131.236 18.193 159.139l.002.855c0 27.666 8.493 71.668 25.479 132.004l1.051 3.715L47 709.678l-9-181.612 10-177.178ZM472.17-38.817c29.132 1.438 58.492 13.927 60.76 21.909 5.05 17.777 13.172 93.874 39.882 105.565 26.709 11.691 83.731 1.032 100.034 28.952 16.303 27.92 69.844 141.732 69.844 168.252 0 17.679-174.482 23.816-523.446 18.41 4.454-142.401 23.027-217.257 55.717-224.567l2.919-.645c47.275-10.327 75.53-10.66 91.657-27.308 16.456-16.987 19.443-46.145 26.27-68.66 3.761-12.404 40.614-23.672 76.363-21.908Z"/><path id="🖍 Ink" fill="#000" d="M536.057 5.689c.11-.085.221-.11.34-.05 2.27 1.09 2.74 3.27 3.52 5.54 1.14 3.32 2.46 6.56 3.68 9.85 2.431 6.6 4.75 13.19 7.46 19.68 2.78 6.68 5.66 13.24 8.96 19.69 1.59 3.12 3.3 6.18 5.04 9.22 1.2 2.11 2.32 5.01 3.9 6.99.12-.63.29-1.23.49-1.79-.209.1-.41.21-.6.33-.4.25-.88-.25-.64-.64a7.918 7.918 0 0 1 3.26-3.03c3.54-3.93 81.569 14.825 102.9 35.89 38.633 38.151 64.71 85.32 81.86 135.5 9.47 27.69 18.19 55.65 27.2 83.49 9.52 29.44 19.46 58.75 29 88.17 2.09 6.47-2.47 12.35-8.23 14.48a729.596 729.596 0 0 1-32.44 11.14c5.29 20.31 8.99 41.05 11.65 61.85 5.49 42.89 6.18 86.65 14.831 129.09 1.986 9.74 4.499 19.343 7.154 28.92l.615 2.21c1.58 5.62 3.021 11.29 4.96 16.79 1.67 4.73 3.83 9.5 5 14.38 1.37 5.74-.65 12.01-6.02 14.96-4.31 2.37-10.48 1.39-13.08-3.06-.53-.91-.85-1.9-.98-2.9-.39-.83-.75-1.68-1.07-2.55a16.839 16.839 0 0 1-.34-1.032l-.31-1.038c-.76-2.48-1.46-4.98-2.16-7.48-1.14-4.012-2.288-8.009-3.556-11.984l-.644-1.986c-3.14-9.56-5.95-19.2-8.4-28.96-8.768-34.997-10.628-71.231-13.035-107.096l-.125-1.854c-2.18-32.14-3.48-64.21-.81-96.28l-.365.118-.365.112c-3.469 1.06-6.95 2.1-10.44 3.11-.11.04-.21.08-.32.11-2.234.691-4.53 1.348-6.865 1.959l-1.405.361-.99.27-1.043.296c-3.307.959-6.678 2.062-10.107 1.954-5.68.91-11.46 1.46-17.14 1.48 1.75 28.61 3.77 57.2 6.18 85.76 2.42 28.71 5.63 57.31 8.96 85.91 1.64 14.13 3.4 28.23 5.34 42.31.98 7.14 2 14.24 3.3 21.32 1.34 7.24 3.71 14.98 2.28 22.3-.03-.01-.06-.02-.09-.02-.48 2.12-1.76 4.02-3.99 5.33-4.09 2.39-9.81.99-12.16-3.19-.2-.35-.39-.71-.57-1.08-2.409 1.03-5.05 1.43-8.29 1.46l-43.94.44c-19.97.2-39.94.41-59.92.7-62.729.924-125.458 1.991-188.187 2.75l-23.523.27c-35.28.37-70.58 1.1-105.86 1.09-17.649 0-35.28-.06-52.93-.49-8.55-.21-17.08-.54-25.62-.89l-1.508-.069c-6.818-.337-14.056-.968-20.722.559-1.84 3.58-6.54 4.32-9 .66-5.622-8.375-7.156-20.059-8.195-30.294l-.365-3.686c-1.15-11.47-2.16-22.94-2.91-34.43-2.66-40.71-3.63-81.46-2.41-122.25.62-20.79 2.53-41.46 4.79-62.13.71-6.45 1.45-12.89 2.25-19.32l.013-2.287a63.294 63.294 0 0 0-.023-2.083l-.2-6.205c-.165-5.171-.319-10.346-.383-15.52l-.027-3.105-.03-5.78c-4.94-.47-10.21-2.11-14.47-2.9-6.909-1.29-13.8-2.68-20.67-4.15-13.76-2.96-27.37-6.46-40.89-10.33l-2.876-.826c-12.475-3.595-25.122-7.428-36.924-12.804-4.62-2.11-9.23-4.49-13.28-7.61-.24 3.28-.61 6.55-.83 9.8-.44 6.43-.96 12.84-1.39 19.27l-.412 6.117c-.675 10.194-1.283 20.378-1.558 30.603-1.22 44.6-1.43 89.39.93 133.96 1.17 22.31 2.84 44.62 5.25 66.84 1.18 10.93 2.43 21.89 3.97 32.78 1.59 11.19 4.46 22.31 5.34 33.58.84 10.87-15.78 12.45-18.51 2.51-3.27-11.919-4.102-24.777-5.825-37.031l-.195-1.359c-1.91-13.02-3.44-26.09-4.76-39.18-4.558-45.15-5.74-90.53-3.35-135.85 1.136-21.706 3.83-43.327 7.09-64.803l.38-2.477c1.484-9.618 2.874-19.236 4.555-28.812l.645-3.588c1.51-8.23 2.67-17.18 5.12-25.41l-.729-.672c-1.361-1.268-2.837-2.736-3.911-4.318-3.7-.5-6.85-3.16-6.46-7.99 1.27-15.87 7.07-32.01 12.24-46.99a432.933 432.933 0 0 1 18.03-44.24c23.99-50.61 58.54-96.56 100.79-133.37 22.41-19.53 46.97-36.85 74.11-49.18 13.38-6.09 27.22-10.8 41.72-13.34 7.18-1.26 14.43-2.24 21.73-2.45 5.922-3.497 12.954-2.026 18.688 1.808l.312.212h.011l1.469.29c.36.07.35.64 0 .72-.02 0-.05.01-.07.02.94.74 1.83 1.53 2.66 2.38 2.74 2.8 2.73 6.18 1.32 8.91 8.39 7.78 13.69 17.77 19.24 27.84 5.95 10.78 13.74 20.1 23.22 27.96 34.75 28.82 85.86 41.57 129.4 27.96 32.02-10 59.37-37.07 66.93-69.66-1.79.64-3.73.74-5.57.08-8.641-3.08-11.935-12.524-15.24-20.42l-.16-.38c-3.23-7.65-5.94-15.42-8.08-23.44-2.159-8.1-3.43-16.65-3.96-25.01-.205-3.306-.115-6.611.056-9.917l.152-2.733c.117-2.477.08-5.007 2.162-6.64Zm-140.59-22.29c.12-.3.59-.46.77-.1 7.649 15.78 2.63 37.4-4.601 52.45-7.569 15.74-18.969 27.68-32.479 38.01-1.86 1.42-3.771 2.82-5.71 4.19-11.271 7.96-21.311-13.5-8.3-17.6 13.56-6.89 24.58-19.17 32.239-32.07 4.141-6.97 7.811-14.23 10.621-21.85 2.8-7.6 4.48-15.51 7.46-23.03Z"/></g></svg>