<svg xmlns="http://www.w3.org/2000/svg" width="818" height="733" fill="none" viewBox="0 0 818 733"><g id="body/Tee Arms Crossed" fill-rule="evenodd" clip-rule="evenodd"><path id="✋ Skin" fill="#D08B5B" d="M659.933 217.977c-8.684-3.096-17.054-6.672-24.68-11.932-21.983-16.363-36.317-40.988-49.861-64.319-19.078-33.933-32.669-70.091-42.064-107.811-4.037-16.206-5.408-34.996-14.58-49.364-20.792-30.085-81.761-26.187-114.136-20.906-21.68 3.836-26.161 28.098-31.085 46.051-4.1 14.917-6.784 30.003-9.037 45.291-5.36 3.524-11.411 6.386-17.179 8.879-62.859 19.275-73.907 55.009-97.916 110.207-40.551 80.229-150.586 111.642-167.207 206.591-10.71 62.685 19.744 121.658 51.141 173.77 29.24 56.921 70.061 84.241 135.07 70.793 60.975-13.678 119.575-36.559 179.477-54.24 29.013-7.133 57.98-25.687 88.499-19.218 62.885 14.123 127.496 20.763 191.942 18.93 90.484 3.659 90.47-83.186 81.183-150.439-6.505-104.661-59.295-171.865-159.567-202.283Z"/><path id="🖍 Ink" fill="#000" d="M665.983 369.422c7.561 5 13.92 12.581 19.025 20.559a1972.89 1972.89 0 0 1-63.815-7.683c2.779-1.776 5.584-3.513 8.453-5.153 10.467-5.898 24.649-15.451 36.337-7.723ZM311.898 432.42c-3.905-1.529-5.416-7.483-6.938-10.896-4.772-10.703-9.127-21.588-13.658-32.395 17.204-4.904 33.934-10.345 51.756-12.959 19.163-2.808 38.609-3.488 57.949-2.857 39.174 1.278 77.984 7.68 116.498 14.545 38.469 6.857 76.936 13.445 115.674 18.615 37.953 5.065 76.026 8.772 114.17 12.026 7.411.633 19.768 3.298 25.728-2.534 4.719-4.619 4.872-13.138-1.033-16.893-3.678-2.341-9.007-2.375-13.209-2.915-5.292-.681-10.605-1.134-15.929-1.487-2.169-.143-4.338-.275-6.508-.407 17.417-6.567 35.608-10.148 54.49-9.15 1.068 6.487 5.879 13.161 8.512 18.511 4.598 9.34 8.182 18.793 10.535 28.949 4.918 21.228 5.132 43.26 3.743 64.911-1.276 18.052-4.017 38.02-18.177 50.805-10.721 9.68-25.847 13.264-39.88 14.391-16.31 1.31-32.872-.089-49.045-2.275-22.684-3.067-45.474-7.123-67.712-12.559-43.071-10.528-84.355-27.28-122.444-49.992-18.575-11.075-36.299-23.535-55.129-34.189-19.187-10.858-39.603-19.281-61.041-24.511-23.991-5.853-49.071-8.351-73.729-6.907-4.279.25-10.461 1.802-14.623.173Zm-27.802-10.868c2.521 8.181 4.45 17.522 9.831 24.396 5.33 6.812 13.371 9.216 21.701 9.822 10.044.729 20.206.262 30.272.636 20.645.767 41.007 4.12 60.743 10.271 18.392 5.733 35.465 14.675 51.911 24.595 15.208 9.174 29.97 19.023 45.183 28.169-4.049 1.856-8.052 3.864-12.077 5.612a1081.372 1081.372 0 0 1-25.468 10.652c-16.825 6.8-33.721 13.435-50.79 19.599a1206.625 1206.625 0 0 1-104.807 32.538c-16.886 4.412-34.012 9.565-51.555 10.299-15.556.65-29.965-3.747-42.511-12.996-26.022-19.184-46.725-46.874-63.461-74.187-9.943-16.227-18.62-33.277-25.797-50.906a391.5 391.5 0 0 1-9.885-27.125c-1.39-4.3-2.708-8.624-3.956-12.968a406.841 406.841 0 0 1-1.596-5.744c26.609-8.12 53.534-15.45 81.091-19.519 14.713-2.173 29.622-3.273 44.496-3.113 7.383.079 14.762.478 22.106 1.24 3.953.41 7.89.938 11.81 1.592 1.62.269 3.285.667 4.955.96 2.551 8.741 5.123 17.475 7.804 26.177Zm550.042-34.754c1.434-2.901 2.039-5.755 2.553-8.913.392-2.409 1.432-5.8.521-8.928-1.02-3.503-3.799-6.636-5.794-9.624a9339.801 9339.801 0 0 1-19.766-29.762c-17.887-27.041-35.652-54.16-53.445-81.262-15.79-24.051-31.314-48.318-47.585-72.046-13.913-20.29-29.078-40.245-48.122-56.025-24.079-19.952-52.751-29.351-82.7-36.685-3.271-3.395-7.64-5.25-12.31-4.873-6.598-7.483-11.842-12.71-14.219-22.226-1.139-4.558-.782-17.365-5.221-20.062-5.273-3.204-8.027 1.036-9.481 5.816-4.865 15.99.719 37.488 13.569 53.505-5.414 18.711-12.592 45.303-25.397 60.293-13.712 16.051-32.675 21.047-53.135 21.376-39.018.628-77.995-13.873-107.756-39.005-9.046-7.638-17.447-16.169-25.048-25.242-5.701-6.807-12.445-17.312-16.905-25.252 0-3.094-3.654-6.33 33.54-8.83 37.193-2.5 40.014-53.427 40.841-60.358.672-5.628 3.53-14.364-.436-18.953-1.683-1.95-5.137-2.263-7.271-.94-4.024 2.5-5.346 8.89-6.611 13.229-1.772 6.079-7.565 43.806-18.542 48.174-5.139 2.045-11.033 2.083-16.469 2.46-6.713.47-13.44.813-20.126 1.594-2.466.288-5.156 1.086-7.589 1.109-1.583.015-3.216-.754-4.746-1.294-5.164-1.825-10.324-.456-15.644.259-47.036 6.32-95.467 20.748-135.587 46.707-35.362 22.88-60.275 55.785-76.714 94.257-16.773 39.262-26.387 81.719-34.444 123.515a892.782 892.782 0 0 0-7.081 42.19c-1.957 13.641-4.405 27.587-4.991 41.366-.232 5.452 1.07 10.517 3.076 15.497 2.258 5.605 7.595 7.815 12.714 10.432 11.237 5.748 23.09 10.206 35.304 13.363 7.461 13.573 13.74 27.676 18.786 42.313-1.872 3.709-1.911 9.248-2.271 12.853-.893 8.977-1.275 18.001-1.355 27.019-.161 18.075.926 36.132 1.778 54.179.864 18.304 3.736 90.523 4.204 99.342.364 6.851-.126 16.434 3.483 22.516 5.546 9.349 19.234 9.034 25.574 1.454 157.524 33.863 453.624 23.664 572.879 6.626 15.516-2.217 10.644.242 14.59-3.678 2.961-2.944 5.481-7.985 6.3-12.036 1.094-5.408-.672-10.302-3.768-14.678-3.255-4.6-3.848-12.05-5.057-17.52-2.859-12.931-4.28-69.721-5.616-76.014-.416-1.961-.819-4.034-1.305-6.108 21.875 2.072 44.668 2.072 65.479-5.244 11.801-4.149 22.807-10.666 31.279-19.971 10.258-11.267 15.965-25.451 18.9-40.256 3.787-19.091 4.591-38.866 3.847-58.273-1.034-22.936-4.838-46.195-14.28-67.254a35.203 35.203 0 0 0 7.57-10.132Z"/></g></svg>