<svg xmlns="http://www.w3.org/2000/svg" width="818" height="733" fill="none" viewBox="0 0 818 733"><g id="body/Tee 1" fill-rule="evenodd" clip-rule="evenodd"><path id="✋ Skin" fill="#D08B5B" d="M774.281 553.022a2350.7 2350.7 0 0 1-11.084-68.462c-1.594-10.86-3.149-21.73-4.547-32.618-.979-7.628-2.47-16.351 2.72-22 7.303-7.952 13.937-14.758 14.831-26.149.841-10.717-2.783-22.4-5.049-32.803-4.752-21.816-10.668-43.362-17.205-64.704-6.641-21.683-13.923-43.162-21.31-64.6-6.906-20.044-13.546-40.269-22.541-59.5-17.071-36.495-45.95-63.522-81.642-81.568-8.877-4.488-26.983-20.51-36.257-24.097-8.526-3.298-8.495 6.333-16.886 2.705-6.708-2.9-12.954-6.767-16.71-13.244-4.078-7.033-14.305-16.869-15.862-25.055-3.299-17.351.275-32.12-12.109-45.18-10.994-11.596-25.771-19.54-41.061-23.806-33.636-9.381-78.494-2.822-98.788 28.433-9.693 14.926-13.08 32.968-26.159 45.149-11.421 10.636-8.866 17.908-23.658 23.39-.838.311-23.545-4.56-24.383-4.248-16.182-3.463-31.648 6.23-46.494 11.856-22.133 8.384-43.205 19.298-63.002 32.269-39.919 26.155-74.109 60.118-102.296 98.551-28.42 38.75-50.471 82.182-66.172 127.576a492.842 492.842 0 0 0-10.26 33.455c-1.69 6.307-3.497 12.849-1.438 19.305 1.683 5.283 5.43 9.216 9.829 12.385 5.963 4.297 17.924 7.09 17.69 15.732-.178 6.57-2.407 13.485-3.495 19.978-1.294 7.732-2.358 15.51-3.422 23.276-4.84 35.35-8.608 70.899-10.273 106.549-1.64 35.102-3.002 70.921-.566 106.013.16 2.314.85 4.438 1.963 6.233-1.039.398-1.119 2.335.174 2.609l2.716.576c1.883 1.424 4.23 2.297 6.93 2.382 1.831.058 3.661.14 5.49.234 19.302 4.035 38.6 7.846 58.153 10.732 23.768 3.508 47.606 6.367 71.518 8.693 49.135 4.776 97.883 3.192 147.083.617 49.124-2.571 98.219-3.172 147.394-1.893 49.218 1.281 98.418 3.421 147.647 4.298 54.999.977 109.914-.525 164.754-4.897 7.519-.599 12.171-6.581 10.688-14.049-8.885-44.743-18.954-89.187-26.911-134.123Z"/><path id="👕 Top" fill="#EC7495" d="m270.088 76.52 1.074-.413c14.517-5.671 29.628-14.822 45.42-11.442.558-.208 10.834 1.887 17.873 3.215l-6.681 6.973-11.79 2.268c40.673 67.128 88.778 100.692 144.315 100.692 55.536 0 97.678-33.564 126.424-100.692l3.923-1.085c.485.112 1 .271 1.552.485 9.274 3.587 27.38 19.608 36.257 24.096 35.692 18.047 64.571 45.073 81.642 81.569 8.696 18.59 15.189 38.108 21.851 57.494l.69 2.005c7.387 21.438 14.669 42.918 21.31 64.601 6.252 20.414 11.937 41.015 16.578 61.86l.627 2.844c2.266 10.403 5.889 22.085 5.048 32.803-.318 4.058-1.365 7.534-2.911 10.687l-80.447 28.947 38.326 261.394c-35.107 1.505-70.245 1.894-105.419 1.269-49.229-.876-98.428-3.017-147.646-4.297-47.685-1.24-95.295-.713-142.929 1.665l-12.096.619c-46.613 2.33-92.859 3.521-139.452-1.009l-3.175-.312-.001-38.236 16.367-212.911-82.945-15.613-81.421-39.546c-2.46-2.459-4.435-5.329-5.532-8.773-1.908-5.98-.498-12.033 1.064-17.905l.374-1.4a492.842 492.842 0 0 1 10.26-33.455c15.7-45.394 37.752-88.827 66.172-127.576 28.187-38.433 62.377-72.396 102.296-98.552 19.797-12.97 40.869-23.884 63.002-32.268Z"/><path id="🖍 Ink" fill="#000" d="M301.235 63.564c5.086-.221 10.272.602 15.346 1.1.442.044.61.726.112.83-9.08 1.897-18.062 4.492-26.98 7.128l-3.819 1.13c-10.057 2.975-19.819 6.044-29.555 10.012-19.404 7.908-37.833 18.582-54.794 30.845C136.233 161.83 88.963 233.324 59.133 307.345a525.976 525.976 0 0 0-20.525 61.653 554.65 554.65 0 0 0-3.83 15.347c-.354 1.505-1.897 5.359-1.05 6.899.747 1.361 3.655 2.202 5.006 2.91l4.561 2.365c8.897 4.585 23.717 12.123 25.203 12.857l2.318 1.141c37.911 18.585 78.418 34.345 121.079 35.436l.334-3.643c1.902-20.141 4.398-40.389 9.846-59.911.293-1.049 1.628-.695 1.75.237 3.035 23.111 2.065 46.402 1.006 69.62-1.875 41.122-4.365 82.221-6.578 123.327-1.108 20.563-2.54 41.112-3.833 61.664-1.295 20.593-1.714 41.681-4.671 62.104-.659 4.552-5.991 7.028-10.029 6.548-4.468-.532-7.905-4.467-7.926-8.978-.054-11.898 1.441-23.936 2.272-35.804a4837.534 4837.534 0 0 1 2.504-33.816c3.172-41.131 6.821-82.214 10.196-123.327 1.196-14.582 2.488-29.151 3.818-43.719-45.193-1.457-87.414-18.196-127.692-37.754-.583 13.237-1.99 26.45-3.354 39.632-3.805 36.786-7.16 73.558-9.67 110.458-1.269 18.637-2.192 37.297-2.996 55.959a1707.264 1707.264 0 0 0-1.187 36.7l-.138 7.008c-.112 4.441-.563 8.554-4.3 11.787-3.795 3.283-8.92 3.458-12.677 0-5.028-4.63-4.139-10.938-3.99-17.156a1718.803 1718.803 0 0 1 1.775-47.182c1.886-36.636 5.655-73.126 10.58-109.468l1.922-14.029c3.59-26.08 7.532-52.754 15.558-77.877a1428.758 1428.758 0 0 1-9.345-4.691c-5.506-2.788-11.199-5.404-16.55-8.481-4.247-2.441-7.909-5.789-9.09-10.73-1.319-5.505.697-11.526 2.036-16.896l.116-.472a502.049 502.049 0 0 1 4.22-16.153c6.05-21.739 13.53-43.054 22.285-63.849 17.53-41.632 40.157-81.183 67.796-116.944 24.879-32.19 54.269-61.382 88.715-83.276 16.84-10.704 34.786-19.493 53.765-25.707 8.871-2.904 18.523-5.43 27.811-6.47 5.01-.56 10.027-.881 15.061-1.1Zm90.114-65.97c6.044-6.49 18.052.226 15.15 8.82-6.826 20.22-17.696 38.662-34.66 51.948-15.946 12.49-34.961 20.601-55.439 18.87a1.217 1.217 0 0 1-.416-.11l1.765 2.393c13.854 18.74 28.47 37.223 46.087 52.541 35.893 31.211 84.763 48.045 131.953 36.07 37.128-9.421 69.838-38.78 79.458-76.196-1.379.618-3.018.83-4.817.438-7.697-1.67-15.317-9.766-20.281-15.57-5.37-6.279-9.564-13.059-12.638-20.723-5.626-14.026-7.43-32.085.252-45.672.948-1.675 3.134-.736 3.32.9l.292 2.551c1.481 12.734 3.326 25.051 9.33 36.66 2.938 5.68 6.46 11.223 10.747 15.98 2.294 2.545 4.781 4.977 7.466 7.111 2.616 2.08 5.783 3.583 8.128 5.968l.43.458.012-.082c.593-5.04 4.128-7.262 7.587-7.123 3.347.135 7.279 1.608 8.802 2.314l.144.068c23.352 11.21 44.859 25.821 65.099 42.031 41.856 33.524 73.217 77.349 88.412 128.957 7.458 25.329 11.737 51.428 16.254 77.405l2.782 15.917c4.216 23.981 8.926 48.435 18.444 70.743 2.462 5.771.564 11.183-5.473 13.452-7.538 2.834-15.104 5.578-22.682 8.288 3.721 15.963 5.99 32.479 8.778 48.521 5.926 34.099 13.187 67.98 19.413 102.034 3.183 17.412 6.055 34.882 9.235 52.296 1.531 8.386 3.129 16.76 4.683 25.142.837 4.52 1.596 9.054 2.395 13.58l.139.751c.458 2.388 1.033 4.858.376 7.247-.749 2.725-2.876 4.65-4.775 6.604-1.563 1.609-3.822 1.619-5.737.741l-.63-.291c-3.42-1.6-6.1-3.196-7.313-7.054-.768-2.443-1.045-5.195-1.547-7.712a705.088 705.088 0 0 1-2.738-14.501 3573.042 3573.042 0 0 1-5.052-29.101l-1.536-9.09c-5.27-31.329-10.275-62.849-12.805-94.509-1.123-14.045-2.312-28.079-3.513-42.115l-.901-10.528c-1.14-13.325-2.533-26.987-2.73-40.492l-4.532 1.609-22.11 7.816c-5.482 1.937-12.462 5.907-18.362 5.185-2.888-.354-5.09-1.263-6.79-2.915 2.036 28.733 4.792 57.416 8.465 85.953 3.342 25.966 7.047 51.897 11.423 77.71 2.167 12.782 4.394 25.552 6.813 38.288a1606.913 1606.913 0 0 0 3.743 19.083c.641 3.17 1.404 6.343 1.904 9.539.572 3.66-.436 5.912-2.481 8.923-1.679 2.473-5.038 3.743-7.761 2.036-3.606-2.263-5.487-4.223-6.548-8.344-.964-3.743-1.55-7.651-2.296-11.442a1627.819 1627.819 0 0 1-3.993-21.02c-2.687-14.672-5.164-29.38-7.376-44.132-7.795-51.969-12.741-104.373-15.239-156.862-1.233-25.897-1.614-51.817-1.395-77.741.112-13.288.546-26.614 1.486-39.869.952-13.417 2.932-26.566 4.7-39.854.062-.468.722-.495.75 0 .837 14.898 2.149 29.779 2.792 44.716.614 14.253.883 28.528 1.371 42.786.641 18.742 1.53 37.495 2.707 56.235 2.131-2.331 5.343-3.675 8.557-3.15 4.656-.977 9.668-3.42 14.107-4.903l16.734-5.59c8.797-2.938 17.594-5.856 26.422-8.686-7.893-26.553-13.3-53.502-17.917-80.844l-2.059-12.297c-4.075-24.204-8.47-48.419-15.852-71.858-7.761-24.642-19.375-47.552-34.782-68.299-15.187-20.447-33.664-38.451-52.688-55.291-16.287-14.416-33.71-27.432-50.322-41.452.174.93.211 1.952.058 3.076-3.532 25.85-17.017 49.923-35.81 67.828-37.755 35.971-93.642 43.434-141.964 26.566-46.743-16.316-88.07-54.958-102.671-102.775-.25-.818.846-1.143 1.286-.542.81 1.11 1.624 2.22 2.439 3.33-.055-.44.174-.92.718-1.13 17.036-6.579 33.765-15.908 46.535-29.105 6.224-6.433 11.656-13.72 15.944-21.58 2.054-3.766 3.899-7.665 5.371-11.694l.374-1.042c1.784-5.047 3.275-10.194 6.999-14.192Z"/></g></svg>