<svg xmlns="http://www.w3.org/2000/svg" width="818" height="733" fill="none" viewBox="0 0 818 733"><g id="body/Thunder T-Shirt" fill-rule="evenodd" clip-rule="evenodd"><path id="✋ Skin" fill="#D08B5B" d="M409.475-52.003c13.439-3.72 28.888-3.287 42.676-2.336 14.002.967 29.027 2.625 42.166 7.853 11.422 4.545 21.054 12.188 26.923 23.14 4.825 9.003 7.088 18.877 8.506 28.906.58 4.104 1.066 8.218 1.527 12.336l.95 8.567c.372 3.276.696 5.732 1.348 9.387 1.803 10.109 4.314 18.555 9.92 25.91 13.576 17.806 35.744 23.766 55.903 31.366 12.9 4.863 23.115 13.611 25.949 27.668 2.734 13.561 106.697 127.332 116.904 136.923l.28.259c7.917 7.128 6.985 20.527 8.093 30.31a2893.196 2893.196 0 0 1 9.212 95.549 2887.637 2887.637 0 0 1 9.037 251.333l-.04 4.747c-.099 10.642-.02 21.331-.497 31.963-.459 10.218-3.551 20.445-13.019 25.782-8.772 4.945-19.864 4.509-29.667 5.003l-.586.031a1787.794 1787.794 0 0 1-31.57 1.438c-42.786 1.583-85.611 1.754-128.422 1.557-84.93-.391-169.945-2.258-254.795 2.497-21.629 1.212-90.583-6.153-112.144-4.054-20.608 2.005-2.926 12.112-15.657 11.446-41.868-2.191-81.582-11.532-121.696-22.785-5.011-1.405-8.843-6.268-8.78-11.525a5548.179 5548.179 0 0 1 4.922-173.147 5502.344 5502.344 0 0 1 14.212-220.91l.816-9.547c1.064-12.312 1.676-24.85 4.097-36.991 2.395-12.008 7.828-22.421 15.706-31.725 7.069-8.347 87.104-73.691 106.38-86.062 18.45-11.842 37.824-21.832 56.765-32.807 7.88-4.566 15.448-2.923 22.18-8.528 3.549-2.954 55.046-22.862 68.939-29.431l.41-.195c10.634-5.102 20.42-10.634 27.768-19.456 2.463-2.957 7.294-21.588 7.303-27.541.017-10.634-.789-21.836 2.419-32.137 3.836-12.318 13.082-21.34 25.562-24.794Zm22.783 274.192-82.287 160.25h53.508l-38.355 89.037h84.229l-29.879 124.715 170.868-213.752h-64.118l64.118-84.159h-44.471l44.471-71.271-158.084-4.82Z"/><path id="👕 Top" fill="#FDEA6B" d="m622.315 212.789-31.973 364.106-266.306 6.598v-388.56l298.279 17.856Z"/><path id="🖍 Ink" fill="#000" d="M708.679 312.301c-.19.189-.39.38-.58.58.22-.31.41-.631.58-.95v.37Zm-159.92-46.681c-7.39 9.441-15.21 28.651-22.39 38.261-1.03 1.379-2.04 2.76-3.04 4.149-2.98 4.17 1 10.55 5.9 10.281 9.79-.521 19.57-1.25 29.35-1.99-20.09 22.389-36.77 50.2-55.22 73.919-1.25 1.59-2.48 3.191-3.71 4.79-4.67 6.09.01 8.851 6.39 7.21 1.32-.339 2.64-.679 3.96-1.009 9.28-2.38 18.55-4.76 27.83-7.13 5.13-1.321 10.29-2.95 15.49-3.96 2.14-.41 4.19-.07 6.21.04-.97 1.479-2.33 4.149-2.6 4.559-3.03 4.72-6.08 9.42-9.15 14.1-5.98 9.101-11.99 18.19-18.22 27.12-24.3 34.82-50.51 68.061-76.49 101.611-6.54 8.439-13.17 16.79-19.91 25.06.03-.051.05-.101.08-.15 6.07-11.821 12.14-23.63 18.21-35.451 11.54-22.459 22.97-44.979 34.63-67.379.6-1.17 1.21-2.33 1.82-3.5 2.42-4.641-1.55-9.46-6.52-8.481a817.88 817.88 0 0 0-71.97 17.598c-1.067 1.137-2.636 1.47-4.037 1.195-.953.285-1.91.559-2.863.848.289-.599.588-1.192.879-1.789-.969-.842-1.451-2.145-.821-3.772 13.645-35.208 32.353-69.197 54.519-100.325-.892.017-1.782.03-2.677.056-24.33.66-48.2 4.15-71.65 10.779-.11-2.17 1.2-5.529 1.91-7.129 2.84-6.391 6.1-12.631 9.15-18.921 6.24-12.92 12.48-25.829 18.72-38.75 6.1-12.62 12.15-25.279 17.89-38.079 3.01-6.711 6.02-13.431 9.02-20.15 2.45-5.471 4.38-10.981 6.41-16.58 5.96 1.75 82.49 2.129 101.09 3.42 4.56.32 9.13.61 13.7.86 3.64.21 8.77 1.01 11.28-2.28l.95.799c-8.26 9.88-16.18 20.031-24.12 30.17ZM249.969 82.06c.38-.17.75-.34 1.12-.51.19.27.42.52.66.77.6.61 1.19 1.27 1.81 1.87-1.2-.7-2.4-1.41-3.59-2.13Zm534.84 561.991c-.69-14.57-1.46-29.141-2.28-43.711-1.62-28.479-3.29-56.959-5.52-85.399-4.53-57.63-8.75-115.241-15.54-172.661-2.85-24.07-6.83-47.959-10.82-71.86.51-.46 1.03-.92 1.54-1.369-.55 6.539 8.33 10.68 12.73 4.159.33-.489.65-.979.97-1.489 3.81-6.16 12.59-36.381 11.98-38.941-1.1-4.61-4.16-8.709-6.55-12.769-2.09-3.551-4.2-7.101-6.34-10.62-4.27-7.051-8.67-14.03-13.28-20.861-9.55-14.139-19.99-27.719-32.29-39.589-12.73-12.3-27.34-22.411-42.43-31.58-7.25-4.401-14.73-8.39-22.35-12.111-7.52-3.66-15.75-7.71-23.85-9.79-.46-.12-.93.52-.51.86 2.15 1.7 4.4 3.3 6.69 4.84-6.2-2.15-12.59-3.7-19.03-4.25-12.47-4.38-25.09-8.39-37.5-12.96-12.2-4.5-24.22-9.56-32.33-20.22-6.93-9.11-11.31-20.26-14.68-31.12-3.7-11.97-5.17-24.41-8.59-36.4-.27-.97-1.86-1.08-2.07 0-2.44 12.58-2.33 26.72-.94 39.42 1.46 13.32 5.21 26.39 13.37 37.22 9.48 12.59 22.34 19.6 36.81 25.19 11.67 4.521 23.49 9.12 35.44 13.16-1.56 1.021-3.14 2.04-4.77 3.01-6.48 3.851-13.22 7.271-20.11 10.341-12.58 5.609-25.83 9.81-39.16 13.22-24.81 6.319-50.25 9.53-75.83 9.95-51.18.85-102.93-9.87-149.74-30.57-13.18-5.83-26.05-12.241-38.79-18.97-3.98-2.101-7.98-4.221-11.96-6.401.33-.02.67-.05 1-.08 8.89-.84 17.67-2.55 26.27-4.97 17.61-4.97 34.49-12.72 51.07-20.35 14.06-6.47 28.54-13.84 37.13-27.32 4.59-7.21 6.7-15.67 8.41-23.95 1.91-9.22 4.16-18.48 5.55-27.79.49-3.26-.24-7.67-3.74-9.21-1.4-.61-2.55-1.11-4.12-1.11-3.47 0-7.03 2.52-7.86 5.98-2.05 8.63-3.29 17.5-4.9 26.22-1.39 7.54-2.66 15.41-6.73 22.04-7.11 11.61-21.05 17.55-32.83 23.2-14.93 7.16-29.87 14.14-45.38 19.95-6.83 2.56-13.78 4.88-20.83 6.78.28-1.73.04-3.55-.98-4.92-1.7-2.26-3.63-3.76-5.82-5.49-2.38-1.88-5.58-2.86-8.39-2.03 0 .01-.01 0-.01 0-1.14-.25-2.4-.15-3.7.44-4.02 1.84-8.03 3.7-12.04 5.59-57.69 27.141-113.74 59.02-156.19 107.57-6.12 7-11.85 14.361-17.22 21.95-5.22 7.371-11.68 15.371-13.12 24.51-.12.761.99 1.111 1.18.33.34-1.41.8-2.79 1.37-4.13-1.19 4.161-1.12 8.581.56 12.93 1.99 5.12 5.64 8.511 10.25 9.86-4.63 20.291-7.74 40.851-10.24 61.64-3.59 29.95-6.14 59.971-8.06 90.07-3.84 60.071-5.55 120.441-4.31 180.621.35 17.009.93 34.02 1.81 51.02.44 8.5.92 16.989 1.47 25.489.54 8.361.1 17.571 7.39 21.981.09.33.19.649.28.979 1.77 6.17 9.66 4.191 10.4-1.41l.03-.189c5.96-4.55 5.06-12.13 4.62-19.401-.47-7.849-.97-15.689-1.39-23.529-.8-15.041-1.48-30.08-2.09-45.131-1.19-29.76-1.86-59.559-2.08-89.34-.44-59.57 3-119.05 7.08-178.449 1.71-24.851 3.71-49.591 4.32-74.431 3.19-1.66 4.17-6.379 2.57-9.559 37.78 25.779 72.84 56.599 100.99 92.42 4.7 5.979 9.19 12.139 13.49 18.41 1.4 2.039 2.73 4.16 4.07 6.279-1.3 5.91-2.31 11.92-3.63 17.59-2.72 11.711-3.87 23.86-5.43 35.761-3.17 24.17-5.4 48.559-7.29 72.859-3.72 47.99-6.48 95.971-7.35 144.101-.48 27.219-1.12 54.609.08 81.82-.89 5.319 3.9 10.52 8.91 11.19 4.39.589 8.49-1.69 10.41-5.361 13.68 1.7 27.72 2.481 41.31 2.58 18.31.13 36.62.111 54.93-.28 36.63-.8 73.25-1.739 109.87-2.829 73.24-2.16 146.48-4.33 219.73-6.5l60.93-1.8c9.16-.27 20.58 2.369 27.8-4.7a13.617 13.617 0 0 0 2.88-4.181c2.16.54 4.81.01 6.23-1.66 2.65-3.13 4.6-6.029 4.5-10.369-.09-4.061-1.21-8.34-1.79-12.36-1.1-7.55-2.16-15.101-3.17-22.661-1.99-14.94-3.85-29.899-5.56-44.87-3.5-30.609-6.68-61.29-9.16-92-4.92-60.729-6.31-121.779-6.14-182.699.02-5.45.05-10.9.08-16.351.23.291.48.56.75.791.22.189.44.379.66.58 2.56 2.25 6.82 3.41 9.89 1.28 3.77-2.441 6.37-6.101 9.31-9.41 3.09-3.47 6.27-6.851 9.48-10.21 6.22-6.5 12.65-12.731 19.21-18.891.53-.489 1.06-.989 1.59-1.47.04 19.39.02 38.771.54 58.151.78 28.79 2.34 57.55 3.77 86.3 2.84 56.929 5.78 113.839 8.61 170.759.79 15.891 1.54 31.79 2.33 47.68.4 7.95.79 15.9 1.17 23.851l.6 12.91c.22 4.62-.07 9.559 1.49 13.95 3.55 10.039 18.89 11.459 21.84 0 1.85-7.19.43-15.511.1-22.891-.34-7.279-.68-14.57-1.03-21.859Z"/></g></svg>