<svg xmlns="http://www.w3.org/2000/svg" width="818" height="733" fill="none" viewBox="0 0 818 733"><g id="body/Turtleneck" fill-rule="evenodd" clip-rule="evenodd"><path id="✋ Skin" fill="#D08B5B" d="M266.813 86.704c49.785-10.965 79.313-10.965 96.021-27.953 16.707-16.987 19.739-46.145 26.671-68.66 3.819-12.404 41.235-23.672 77.53-21.908 29.577 1.438 59.386 13.927 61.688 21.909 5.128 17.777 13.374 93.874 40.492 105.565 27.118 11.691 85.011 1.032 101.563 28.952 16.553 27.92 70.911 141.732 70.911 168.252 0 26.519-531.446 18.41-531.446 18.41s6.785-213.602 56.57-224.567Z"/><path id="🖍 Ink" fill="#000" d="M37.785 704.44c.76.54.16.55 0 0Zm-2.95-2.2c.05.04.11.08.17.12-.6-.05-.97-.66-.17-.12m786.5-70.31c-3.34-14.27-6.67-28.55-10.01-42.82-6.97-29.84-13.95-59.69-20.92-89.54-13.65-58.38-27.29-116.76-40.94-175.14-6.93-29.67-14.85-59.11-22-88.73-6.26-25.96-11.43-52.54-22.18-77.11-10.97-25.08-30.24-46.04-55.76-56.67-21.49-8.94-45.66-13.89-69.06-15.02 2.94-3.6 3.63-8.93-.66-13.28-5.32-5.39-6.4-13.4-7.82-20.53-1.77-8.91-4.52-18.46-9.82-25.96-2.24-3.17-5.5-4.65-9.34-3.8-2.36.52-4.681 1.13-6.97 1.82-.74-.74-1.47-1.53-2.11-2.49-1.45-2.22-2.39-5.47-4.47-7.17-1.41-1.16-3.011-1.44-4.66-.6-4.431 2.25-4.8 9.06-3.851 13.24.191.81.42 1.62.701 2.41-.3.14-.61.28-.92.42h-.01c-5.78-1.1-13.16 1.22-18.8 1.78a295.01 295.01 0 0 1-19.71 1.29c-13.47.43-26.96.03-40.37-1.32-13.07-1.3-26.05-3.39-38.96-5.75-8.04-1.47-17.84-2.69-24.9-7.52-.111-2.41-.17-4.83-.22-7.24-.101-4.19.12-7.48-2.11-11.16-.031-.04-.08-.05-.13-.03-2.76 1.44-4.74 3.9-6.191 6.82-2.649-.71-5.5-.61-7.969.42-3.491 1.45-6.09 3.12-8.8 5.8-4.03 3.97-5.21 8.61-6.39 13.94-.85 3.82-1.38 6.55-2.9 9.11-.33.55-.68 1.13-1.06 1.66-.14.14-.4.41-.841.87-.439.44-.879.87-1.329 1.3-.26.26-1.54 1.3-1.341 1.16-5.54 4.12-10.549 5.67-17.389 7.64-14.72 4.24-29.8 7.01-44.47 11.51-16.03 4.92-31.71 10.9-47.04 17.69-59.63 26.41-113 68.22-149.39 122.67-42.38 63.42-57.98 140.45-65.71 215.13-8.46 81.85-7.87 164.63-9.72 246.82l-.69 30.84c-.23 10.05-.85 20.87 8.07 27.64 7.95 6.02 17.63 4.13 26.43 1.42 9.42-2.89 19.01-5.19 28.72-6.84 18.32-3.09 37.22-3.46 55.7-1.66 9.93.97 22.08 4.65 30.24-3.13 2.93-2.8 4.62-6.35 6-10.08 1.72-4.6 3.73-9.11 5.73-13.63 1.65-3.72 3.29-7.46 4.93-11.19 2.66 11.65 5.32 23.3 7.98 34.96 1.05 4.59 5.84 4.94 8.73 2.71 4.72 2.53 10.92 2.48 16.28 3.1 8.62.99 17.309 1.33 25.97 1.63 16.97.58 33.94.9 50.92 1.12 34.62.44 69.24.28 103.85.13 68.569-.3 137.13-1.7 205.67-3.48 19.3-.5 38.6-.95 57.899-1.42 9.641-.23 19.29-.46 28.941-.73 2.89-.08 5.809-.35 8.55-.99h.009c1.221 1.07 2.721 1.89 4.511 2.38 6.409 1.76 12.779-2.16 14.699-8.35.891-2.84 1.511-5.44 1.29-8.2l.991-6.24c10.7 6.77 23.54 8.61 36.21 7.77 14.33-.95 28.66-3.57 42.88-5.52 13.35-1.83 34.99-1.24 35.63-19.68.23-6.75-2.621-14.32-4.14-20.82l-5.46-23.36"/></g></svg>