<svg xmlns="http://www.w3.org/2000/svg" width="818" height="733" fill="none" viewBox="0 0 818 733"><g id="body/Whatever" fill-rule="evenodd" clip-rule="evenodd"><path id="✋ Skin" fill="#D08B5B" d="M1016.74 283.357c10.24-5.347 20.25-11.156 30.09-17.202 6.93-4.147.79-14.593-6.32-10.819-3.63 1.931-7.25 3.881-10.89 5.799 2.86-2.463 5.52-5.145 7.89-8.068l-.16-.163c9.16-8.211-2.61-23.703-13.03-16.958-9.19 6.662-18.47 13.46-29.016 17.847-21.852 9.266-45.955 10.799-69.409 11.067-8.583-.645-16.781.842-25.109 2.499 3.265-13.098 11.436-22.989 15.77-35.675 3.198-12.808-15.29-21.533-21.842-9.221a291.959 291.959 0 0 0-4.64 9.155c-14.162 12.881-37.81 11.746-52.093 25.577-8.136 7.221-12.117 17.018-13.69 26.852-1.068 6.677.592 13.371-3.445 19.285-19.519 27.608-50.361 71.246-66.024 101.629-11.09-72.198-40.701-161.498-71.292-227.515-10.116-21.113-21.689-41.743-36.881-59.639 1.722-5.968-4.356-16.562-8.221-13.301-11.897-14.533-32.927-18.296-49.837-25.52-22.827-9.762-41.766-30.05-51.076-53.11-11.962-43.912-41.409-49.49-82.248-47.549-39.084-.05-68.001 16.668-76.529 56.454-17.325 30.197-58.231 25.203-87.66 33.198-21.568 4.927-42.499 12.544-62.391 22.215-22.129-20.99-101.384 67.104-108.588 89.776 4.241.822 8.456 1.811 12.633 3.017 3.72 1.076 2.158 6.695-1.594 5.795-4.669-1.121-9.368-1.893-14.089-2.429-.144.451-.27.9-.364 1.344-.53-.036-1.059-.081-1.589-.117a18.824 18.824 0 0 1 3.408 2.237c2.664 2.212-.804 6.481-3.635 4.718-2.667-1.995-6.16-1.68-9.359-2.35-.19 6.578-23.663-.781-27.31-2.961-16.204-2.027-32.875.148-48.003-7.667-20.13-4.239-40.41-8.927-60.312-14.325-5.27 2.054-10.221 9.404-6.036 14.798 2.354 2.454-.672 6.462-3.636 4.717-9.941-5.851-17.63-14.985-24.147-24.825-3.068-3.095-8.514-2.429-12.636-3.714-.551.99-.876 2.094-.871 3.226-17.485 2.878-5.012 21.975 3.778 27.925-4.663 3.036-4.84 8.982-4.432 13.947-.988 1.768-1.318 3.96-.458 5.942 3.288 7.577 10.399 13.958 15.806 20.097 5.97 6.779 11.293 13.596 18.557 19.092 27.688 21.105 61.1 32.905 95.379 37.52 12.17 1.869 29.678 4.73 37.214 15.022-1.85 12.214-5.244 23.928-8.324 35.838-4.307 15.81-4.014 32.361-4.071 48.479-.602-.484-1.758-.384-1.93.538-1.002 6.681-1.747 13.513-5.808 19.127-3.56 10.439-5.93 21.574-7.26 32.542-5.332 51.995-6.605 105.524 5.417 156.709a185.451 185.451 0 0 0 22.464 53.653c3.065 4.956 7.993 6.408 12.418 5.434 14.81 7.694 33.467 10.161 49.43 8.206 54.421-15.406 35.459 21.692 111.762 10.332 131.707-16.778 264.811 16.192 396.238-3.165 3.237 25.002 45.611 17.83 60.33 7.26 44.134-32.809 66.048-136.685 88.197-189.38 15.225-41.534 40.719-115.098 74.106-142.968 10.011-7.83 22.112-11.952 34.22-15.28 45.188-11.644 90.548-22.656 135.828-33.977 7.67-1.89 6.29-14.985-1.92-14.145-10.89 1.115-21.83 2.124-32.76 3.175Z"/><path id="🖍 Ink" fill="#000" d="M10.795 275.568c-3.06-.379-6.06-1.469-9.04-2.329-4.55-1.33-9.01-2.88-13.4-4.65-9.06-3.629-17.85-7.92-26.09-13.17-13.31-8.49-25.07-19.37-33.94-32.47l-.61-.914c-5.063-7.713-14.404-24.84-3.93-30.696-6.75-5.64-13.13-15.77-12.77-23.59.51-11.06 14.07-10.909 21.08-6.22 4.59 3.07 8.03 7.37 11.48 11.601 3.82 4.699 7.9 9.179 12.14 13.489a150.228 150.228 0 0 0 3.417 3.356l1.162 1.094c-.18-.43-.34-.87-.48-1.321-2.34-7.289.45-16.779 7.74-20.119 4.462-2.045 9.095-.797 13.418.939l.662.271c5.82 2.409 11.71 4.54 17.77 6.25 24.7 6.97 50.48 8.13 75.79 11.61 9.75 1.35 19.68 3.049 29.381 5.549 3.699-15.71 12.769-30.769 22.609-43.159 47.12-59.27 124.83-78.86 195.92-91.54 6.48-1.15 11.851 7.43 15.621 5.4 7.15-3.84 13.44-9.28 18.96-15.19 11.77-12.61 20.12-27.44 29.93-41.49 4.85-6.94 16.01-.73 11.51 6.72l-2.205 3.64c-9.077 14.915-19.128 30.284-32.145 41.85-6.92 6.14-14.6 10.99-23.38 14.019-6.65 2.291-15.98 4.221-23.26 2l-.874-1.273c.289.426.58.85.874 1.274 18.999 27.53 42.839 50.83 67.959 72.82 25.356 22.183 52.709 42.049 80.227 61.472l2.293 1.618c44.83-32.699 82.7-75.35 109.27-124.08-5.569-.67-11.079-4.24-15.839-6.9-5.73-3.22-11.12-7.06-15.32-12.18-9.15-11.15-7.96-25.52-9.61-39.05-.1-.84 1.01-1.05 1.52-.63 4.96 4.12 6.7 10.87 8.77 16.7 2.28 6.41 4.86 11.69 10.09 16.2 4.87 4.2 10.81 7.29 16.58 10.04 2.975 1.41 17.747 5.037 19.429 8.04 25.521-5.99 50.381 4.36 69.291 21.82 18.27 16.87 31.68 38.8 43.52 60.45 12.63 23.1 22.98 47.179 31.9 71.929 9.04 25.121 15.97 50.791 19.78 77.231 3.216 22.291 5.188 44.933 6.464 67.473l.156 2.817c18.879-29.63 38.229-58.95 57.979-88.01-4.49-11.99.48-24.23 8.89-33.49 9.32-10.25 22.21-15.01 34.54-20.55l1.621-.733c5.943-2.711 11.866-5.696 16.999-9.757 4.94-3.92 8.57-9.32 13.77-12.93 7.56-5.26 21.28-4.14 21.63 7.35.18 6.311-2.53 13.23-5.01 18.9-2.81 6.411-6.6 12.22-11.1 17.56a3.188 3.188 0 0 1-.666.601l-.173.109c6.22 1.03 12.49 1.86 18.88 2.15 12.89.59 25.92-.36 38.54-3.08 12.92-2.78 25.44-7.299 37.06-13.6 9.925-5.38 19.125-12.34 30.405-13.98 1.04-.16 2.09-.26 3.17-.32 1.8-.1 3.6 2.02 2.89 3.799-.39.981-.8 1.951-1.25 2.931-3.9 8.59-9.88 16.923-17.34 23.247l-.58.483c2.63-.91 5.22-1.93 7.77-3.08 14.99-6.75 28.59-16.95 44.66-21.05.76-.2 1.53-.38 2.3-.55 4.97-1.07 7.59 4.33 4.67 8.03-.47.6-.94 1.19-1.43 1.78-7.17 8.9-15.08 17.16-23.8 24.58-2.99 2.54-6.07 5-9.21 7.351-1.32.996-2.65 1.97-3.99 2.929l-.67.47c1.57-1.109 3.12-2.239 4.66-3.399 9.84-2.981 19.54-6.511 29.03-10.42 3.77-1.551 6.7 2.269 7.1 5.409 1.34 10.521-10.34 18.131-17.94 23.19-7.62 5.081-16.01 8.941-24.6 12.04-16.51 5.968-33.858 8.679-51.178 11.108l-8.412 1.172c-33.297 4.655-68.074 10.222-91.966 36.131-13.39 14.519-22.45 32.559-30.74 50.309-8.28 17.731-15.55 35.931-22.45 54.231-7.15 18.939-13.38 38.229-20 57.359-6.08 17.565-13.342 34.906-20.535 52.071l-1.135 2.709c-15.27 36.481-33.51 70.84-58.93 101.3-4.19 5.03-10.96-2.109-7.09-7.09 26.59-34.28 45.09-74.729 60.36-115.08 6.95-18.359 12.77-37.16 19.45-55.62l3.975-10.967c5.308-14.618 10.661-29.218 16.245-43.722 7.07-18.351 14.84-36.481 23.73-54.021l.944-1.847c8.703-16.921 19.044-33.598 33.276-46.403 25.618-23.059 59.706-28.591 92.664-32.972l10.369-1.367c13.934-1.851 27.903-3.896 41.453-7.621 7.82-2.139 15.46-4.88 22.64-8.66 2.86-1.5 5.65-3.149 8.35-4.949-7.7 2.26-15.51 4.109-23.46 5.559-3.89.71-7.74 1.241-11.58 1.611-9.89.978-19.695.938-29.825.409-.86-.051-1.14-1.4-.22-1.57 7.054-1.254 14.115-2.823 21.155-4.525l2.1-.515c.04-1.169.5-2.41 1.46-3.589 3.5-4.26 10.15-6.441 14.76-9.451 4.83-3.15 9.51-6.549 13.97-10.19 4.08-3.329 8-6.85 11.77-10.529l1.13-1.111c-.37.371-.75.742-1.13 1.11-10.18 4.701-19.83 10.73-30.46 14.451-8.45 2.969-17.31 4.969-26.245 5.679l-.555.044-.555.036c-9.33.67-18.72.4-27.91 2.42-1.03.23-1.35-1.15-.43-1.54 8.03-3.34 16.38-4.63 24.82-6.19.18-.66.64-1.25 1.44-1.63l2.159-1.031c6.426-3.089 12.426-6.206 17.766-11.219a56.437 56.437 0 0 0 11.6-15.35c-11.81 2.59-22.18 11.54-32.915 16.57a146.54 146.54 0 0 1-36.801 11.671l-1.449.248c-23.77 3.965-52.355 3.46-73.65-8.899-.68-.4-.19-1.309.51-1.2 6.04.99 12.02 2.16 18 3.2-1.171-1.07-1.691-2.99-.341-4.53 5.371-6.155 9.619-13.19 12.334-20.888l.519-1.505c1.251-3.571 3.363-9.116 1.207-12.337-2.06-3.07-6.91-2.65-9.81-1.35-6.03 2.72-10.04 9.511-15.12 13.61-5.54 4.48-11.84 7.8-18.29 10.77l-1.362.619c-11.156 5.018-23.076 9.242-31.848 18.101-4.72 4.76-8.78 10.71-10.14 17.38-.62 3.06-.62 6.21.2 9.24.65 2.37 2.01 3.831 1.23 6.24-1.02 3.11-4.63 6.83-6.49 9.6-2.16 3.201-4.31 6.41-6.46 9.62-4.29 6.42-8.56 12.86-12.83 19.29a3797.527 3797.527 0 0 0-33.523 51.493l-4.056 6.357-2.144 3.351-3.656 5.748c.13.531.12 1.091-.05 1.58-.624 1.776-1.791 2.989-3.242 3.869l-.259.152c-21.34 33.73-42.34 67.68-63.55 101.491-1.13 10.319-2.19 20.649-3.11 30.979-2.09 23.38-3.52 46.821-3.98 70.29-.22 11.361.69 22.79 1.18 34.14.24 5.417.569 10.827.998 16.236l.315 3.834c.423 5.269.662 10.498-1.233 15.521-1.68 4.409-6.8 5.399-9.83 2.04-39.529-1.591-79.089-2.801-118.649-3.551-70.81-1.36-141.65-1.15-212.47.22-35.57.69-71.15 1.66-106.71 2.86-17.52.58-35.05 1.4-52.58 1.64-9.445.129-24.31-3.31-25.072-13.936l-.018-.324c-1.18.32-2.4.58-3.65.77a4.164 4.164 0 0 1-1.585-.055l-.245-.065c-14.079 4.291-31.888-1.831-45.266-5.399l-1.104-.292c-12.77-3.33-23.03-8.09-31.4-18.67-14.65-18.529-19.65-43.41-22.25-66.34-2.44-21.58-2.58-43.559.39-65.099-1.75-17.549-.04-35.659 1.95-53.11.98-8.63 2.13-17.25 3.51-25.83.77-4.79 1.78-9.53 2.81-14.26.41-1.89.753-3.925 1.275-5.892l.235-.838c-1.6.21-3.35-.14-5.04-1.069-4.02-2.21-5.19-6.681-5.26-10.96-.22-12.901 1.32-26.17 2.68-38.99 1.37-12.8 3.25-25.651 5.71-38.291l.636-3.259c1.864-9.456 3.997-19.217 7.754-28.101-14.11-2.4-28.18-4.95-41.87-9.291-6.68-2.13-13.26-4.779-19.54-8.01Zm736.459 134.251c-.219.05-.429.11-.639.17-5.64 1.58-11.34 2.92-17.02 4.36-9.82 2.47-19.42 5.23-28.55 9.52-1.913 24.14-4.748 48.202-7.444 72.276l-.537 4.815c4.14-7.681 8.38-15.301 12.81-22.83a3036.625 3036.625 0 0 1 41.38-68.311Zm-678.09 2.391c.03 2.869-.57 5.85-.89 8.609-.52 4.481-.94 8.981-1.47 13.46-1.08 9-2 18.01-2.67 27.05-.43 5.771-.71 11.561-.96 17.351 5.67-21.192 13.18-41.921 20.32-62.682-1.193-.125-2.413-.417-3.671-.751l-2.119-.571c-1.25-.321-5.302-1.318-8.54-2.466Zm695.951-19.731.04.95c.15 3.37-1.87 5.27-4.32 5.76 1.42-2.24 2.85-4.48 4.28-6.71Zm-648.8-159.719c5.97.529 11.82 1.8 17.4 4l.538.21c4.127 1.593 10.162 3.594 11.512 8 .38 1.25-.64 2.279-1.81 2.38-4.48.36-9.76-4.441-13.91-6.061-4.62-1.8-9.46-3.14-14.36-3.85-11.01-1.61-22.49-.389-32.85 3.621-.61.24-.99-.731-.44-1.021 10.44-5.68 22.05-8.329 33.92-7.279Zm-126.51 28.599a91.7 91.7 0 0 1-2.06-1.889c-5.362-5.072-10.11-10.992-13.625-17.496l-.925-1.761c-2.863-5.543-6.38-13.44.35-17.434 4.02-2.389 8.86-1.79 13.34-.34.29.09.58.191.87.29 2 .701 3.93 1.54 5.65 2.34 7.47 3.43 14.06 8.42 20.96 12.821 7.476 4.77 14.858 7.82 23.487 9.605l.812.164c8.1 1.601 16.88 2.63 22.53 9.29 1.42 1.681.12 4.83-2.33 4-15.62-5.269-32.15-6.43-46.49-15.08-5.94-3.58-11.56-7.689-17.63-11.08-3.22-1.802-6.544-3.377-10.087-4.457l-1.936-.57c-1.133-.331-2.487-.658-3.397-.332-1.732.6-1.179 1.527-.643 3.145l.053.164c4.21 13.021 16.21 23.92 27.33 31.13a101.09 101.09 0 0 0 7.82 4.591c18.006 9.597 38.153 14.063 57.94 19.366 0 0 11.44 3.193 15.23 4.393 4.22-.351 9.03 1.14 12.21 2.92a22.073 22.073 0 0 1 7.461 6.78s1.81 1.51 2.14 3.85c.95 2.17 1.59 4.509 1.91 6.95.18 1.43-.18 2.529-.86 3.309 2.045 31.393-6.434 62.609-15.994 92.444l-.948 2.941-.608 1.865c-10.31 31.63-22.14 63.031-27.42 96.01-3.53 22.03-3.42 44.83-.83 66.96l.182 1.527c2.552 20.923 7.462 44.395 20.768 61.234 6.786 8.594 14.827 12.413 25.107 15.181l.563.149c9.3 2.449 18.9 5.92 28.49 6.97 8.9.969 16.36-2.34 24.37-5.441l.01-.009c16.87-14.93 24.53-36.67 30.19-58.611 14.67-56.779 12.85-115.719 4.53-173.329-4.34-30.1-10.24-59.94-16.12-89.77-2.94-14.91-6.11-29.79-8.74-44.75l-1.562-8.804c-.862-4.892-1.696-9.787-2.408-14.706-.96-6.61-1.25-13.11-1.58-19.76-8.08-13.39-19.81-24.42-33.4-32.33-9.73-5.67-20.03-9.6-30.66-12.45-30.39-8.19-63.52-7.61-94.1-13.91-10.273-2.114-20.025-5.252-29.771-9.013l-1.33-.517c-4.47-1.74-9.03-2.71-11.25 2.56-1.58 3.75-.64 7.65 1.73 10.8 5.81 7.72 17.49 11.3 26.28 14.08 5.29 1.68 10.69 3.01 16.15 4 5.46.99 10.94 1.24 16.18 3.17 2.02.74 2.42 3.95 0 4.519-6.64 1.551-13.32.221-19.92-1.069a138.973 138.973 0 0 1-21.33-6.03c-1.28-.472-2.604-.97-3.953-1.498l-1.017-.402c1.05.761 2.1 1.511 3.16 2.261.28.199.11.729-.26.599-16.317-6.088-31.165-17.072-42.667-30.068l-.572-.651c-4.05-4.641-13.28-18.681-21.06-14.771-7.306 3.667 5.147 17.803 9.88 23.583l.55.677c5.38.14 10.59 3.489 14.95 6.189 7.57 4.691 15.48 8.731 23.54 12.51 16.02 7.53 33.03 12.841 48.88 20.75.21.111.05.38-.15.351-10.09-1.611-20.07-4.181-29.82-7.37l-.435-.136-.435-.145c-6.09-2-12.1-4.259-18.01-6.67-6.57-2.679-12.99-5.689-19.22-9.099-5.64-3.08-11.9-8.63-18.44-9.45-.7-.09-1.32-.101-1.86-.05-7.51.63-1.3 13.07.8 16.79 3.43 6.11 7.57 11.75 12.32 16.9 9.63 10.46 21.3 18.75 33.93 25.2 4.31 2.2 8.72 4.14 13.2 5.92Z"/></g></svg>