<svg xmlns="http://www.w3.org/2000/svg" width="280" height="230" fill="none" viewBox="0 0 280 230"><g id="facial-hair/Chin"><path id="🖍 Ink" fill="#000" fill-rule="evenodd" d="M209.56 138.064s-44.39 6.523-64.26-2.696c-19.81-9.19-39.08-18.082-57.05-30.254-18.41-12.472-34.03-27.281-45.18-46.238C32.7 41.237 24.08 22.52 15.4 3.948c-.507-1.085-5.49-11.874-7.25-15.492-2.71-5.61-10.63-3.85-10.63 4.86 0 8.708-.39 74.66 14.83 100.603 13.73 23.431 37 39.803 60.12 54.093 25.58 15.801 59.56 32.882 90.08 37.395 27.62 4.08 59.14-7.381 79.14-26.271 20.91-19.755 26.83-46.594 37.62-72.297 2.41-5.745-6.133-9.21-8.64-3.56-4.719 10.64-61.11 54.785-61.11 54.785Z" clip-rule="evenodd"/></g></svg>