<svg xmlns="http://www.w3.org/2000/svg" width="280" height="230" fill="none" viewBox="0 0 280 230"><g id="facial-hair/Full 4" fill-rule="evenodd" clip-rule="evenodd"><path id="🎨 Background" fill="#E8E1E1" d="M-11.571-16.245C-4.503-16.245-1.608.21-1.608.21 16.367 31.206 33.67 62.114 64.544 83.44c34.271 13.733 67.981 37.123 107.031 39.687 17.604-1.848 22.768-17.961 44.509-12.291 13.871 3.37 29.446 10.017 42.27.416 10.84-7.086 18.467-17.82 27.817-26.498.476-1.566 3.581 14.958 2.643 20.543l-.725 3.172c-5.789 25.572-11.644 55.665-37.549 69.722-7.893 4.158-18.966 8.17-27.724 5.827-46.277 7.379-96.474 1.98-137.018-21.105-14.274-3.708-24.891-15.091-36.13-23.689C22.175 115.145-9.33 84.642-12.266 48.061c-2.936-36.58-1.628-64.306.694-64.306Zm139.826 72.23c15.752-25.293 47.045-21.185 71.396-9.661 13.451-9.133 31.199-7.452 45.794-1.018l-.003.008c13.444 7.355 23.626 19.431 32.986 30.982 2.277 3.069 3.182 7.192-.02 8.705-15.087 12.434-46.431 5.136-60.655-4.109-10.263-.827-8.014-15.397-19.859-5.2-7.905 7.43-17.835 12.038-28.621 14.768-24.117 8.28-46.321 6.905-67.324-6.002-2.702-.262-13.77-6.522-9.837-8.75 4.278 1.156 27.976-12.446 36.143-19.722Z"/><path id="🖍 Ink" fill="#000" d="M-15.255 10.948c.161-1.33 2.227-1.396 2.273 0 .957 29.266 10.487 61.351 26.605 86.409 38.735 63.247 117.796 94.931 193.89 84.045 55.61-.754 61.55-32.264 75.373-76.263 7.174-5.89 10.698-3.78 8.47 3.125-17.134 53.093-23.001 83.545-90.795 82.967C91.704 206.768-26.346 117.764-15.255 10.948Zm153.79 23.6c17.76-7.93 38.894-6.81 53.728 4.153l1.046.239c2.598.58 5.09 1.022 8.011.725C240.574 19 266.781 55.04 286.907 82.024c1.518.052 2.755 1.243 2.344 2.638l.644.69c-2.535 6.799-7.116 13.363-13.38 17.487-20.537 27.345-35.873 18.797-62.63 7.538-27.514-4.119-28.627 28.313-67.011 13.456l-1.448-.472c-12.627-4.171-27.123-10.496-36.304-19.637-.3-.3-.006-.877.453-.727 21.3 6.421 48.686 27.387 70.367 13.262 5.48-3.678 10.403-8.143 16.53-10.912 34.977-11.704 47.269 34.516 77.875-13.469-24.922 4.343-53.013.025-71.641-16.944-27.848 33.54-82.049 28.166-116.51 7.334-4.714.678-11.688-3.984-7.348-8.422 4.748-3.773 12.26-2.294 18.096-4.34 18.631-6.629 23.03-27.754 41.591-34.959Zm62.261 14.025c-19.684-14.002-49.122-16.36-67.96.158-11.765 11.815-19.396 28.77-38.361 31.896 32.569 18.747 79.367 19.062 104.446-10.766.788-2.58 4.869-1.467 5.362.774 17.957 12.53 40.925 19.187 63.293 15.346a78.647 78.647 0 0 0 10.637-2.515l-3.301-4.537c-17.553-24.017-40.134-51.983-73.613-32.23-.758.382-1.076-.598-1.171-1.1l-.412.3c.297.62 2.764 2.664 1.08 2.674Zm80.603 41.703c.164.147.299.308.414.475a55.133 55.133 0 0 1 1.71-.857l-.159-.117c-.631.18-1.289.345-1.965.499ZM-12.72-25.368l-.007-.96c0-9.66 2.596 2.519 3.762 4.915C-3.953-12.391.237-3.463 5.545 5.334 26.834 43.632 30.13 60.232 73.026 82.05c3.187 2.728-.16 7.626-4.119 6.62-5.921-1.506-11.506-5.279-16.664-8.322C23.032 65.284 12.137 34.552-.968 7.804-4.817-2.802-13.695-14.116-12.72-25.368Z"/></g></svg>