<svg xmlns="http://www.w3.org/2000/svg" width="280" height="230" fill="none" viewBox="0 0 280 230"><g id="facial-hair/Goatee 1"><path id="🖍 Ink" fill="#000" fill-rule="evenodd" d="M207.914 31.328c-11.121-5.009-31.091-.638-38.341 1.1-16.855 4.042-33.811 12.777-39.051 26.462-5.905 15.423 5.877 20.278 7.61 19.485 11.668.822 25.563-6.513 37.79-8.406 9.926-1.55 20.397-2.903 29.697-8.177 6.79 3.735 22.126 5.754 34.503 9.02 10.541 2.78 15.108 8.81 24.88 7.527 11.712-1.536 6.918-26.169-6.135-36.148-14.286-10.92-38.448-15.35-50.953-10.863Zm22.02 105.325c-9.729 2.373-10.383-18.953-11.473-26.487-.851-5.885-5.654-21.064-17.83-20.41-12.176.655-16.752 13.373-16.135 21.282.401 5.13 5.127 31.112-9.96 34.398-9.619-.034-20.747-.683-30.861-2.548-11.904-2.696-27.383-12.135-31.472 6.454-1.471 6.691 50.966 26.567 74.235 28.365 23.599 4.783 51.209-2.571 68.01-20.623 3.822-4.107 14.588-21.154 15.355-25.331 1.612-8.775-2.12-14.421-12.978-11.329-7.67 4.096-20.634 14.704-26.891 16.229Z" clip-rule="evenodd"/></g></svg>