<svg xmlns="http://www.w3.org/2000/svg" width="280" height="230" fill="none" viewBox="0 0 280 230"><g id="facial-hair/Moustache 6"><path id="🖍 Ink" fill="#000" fill-rule="evenodd" d="M258.53 37.24c-9.051-4.232-18.779-6.75-28.773-7.644-4.322-.387-12.812-1.608-17.409 1.212-2.15 1.32-3.967 3.163-5.408 5.416-.562-.777-1.302-1.44-1.77-2.28-2.517-4.522-17.965-4.616-22.629-4.232-11.06.91-21.825 3.507-31.963 7.874-18.201 7.84-33.491 24.129-28.683 44.808.68 2.93 3.961 4.069 6.664 3.563l54.658-10.246c4.229-.793 8.459-1.585 12.688-2.379 3.825-.716 8.513-.944 12.143-2.593 1.46.623 3.086 1.02 4.822 1.364 21.921 4.354 43.87 8.578 65.805 12.867 2.63.514 6.08-.82 6.552-3.733 3.148-19.444-9.235-35.832-26.697-43.996" clip-rule="evenodd"/></g></svg>