<svg xmlns="http://www.w3.org/2000/svg" width="280" height="230" fill="none" viewBox="0 0 280 230"><g id="facial-hair/Moustache 8"><path id="🖍 Ink" fill="#000" fill-rule="evenodd" d="M520.333-58.506c-15.998 14.593-5.72 51.151.518 41.268.93-9.152 3.788-26.688 13.064-30.236 68.23-2.91 54.14 165.795-72.958 145.031-80.98-5.464-166.511-122.74-242.663-51.372-82.74-67.397-176.167 33.643-261.37 47.481C-112.35 116.07-215.875 74.931-197.232-10.47c4.657-25.06 39.313-53.727 60.538-28.295 6.27 6.041-1.695 28.166 4.897 23.592 10.262-11.337 7.588-29.442-1.896-40.733-15.708-18.698-43.708-10.518-59.996 2.687-73.483 72.291 15.023 181.414 103.601 174.205C6.978 132.858 138.98-2.038 205.701 63.494c6.804 6.682 19.589 6.685 25.504.005 56.724-64.054 166.199 66.858 245.276 57.509 84.101 7.66 151.409-93.845 102.868-165.614-12.094-18.246-41.158-31.998-59.016-13.9Z" clip-rule="evenodd"/></g></svg>