<svg xmlns="http://www.w3.org/2000/svg" width="280" height="230" fill="none" viewBox="0 0 280 230"><g id="facial-hair/Moustache 3"><path id="🖍 Ink" fill="#000" fill-rule="evenodd" d="M350.983-17c-2.12-3.19-8.13-1.25-6.58 2.77 16.823 38.173 9.04 67.863-38.241 62.67-28.504-1.851-56.186-27.056-84.813-14.514-7.381 5.929-12.24 6.664-20.039.248-30.946-13.541-65.986 10.597-97.077 13.857-48.645 4.783-75.102-11.491-50.529-61.39 1.54-3.39-2.93-7.86-5.67-4.38C14.101 21.744 12.397 74.757 67.014 95.21c40.085 13.348 116.744 24.393 144.258-15.85 17.562 29.06 55.097 30.799 85.271 25.599C369.4 98.235 391.724 41.627 350.983-17" clip-rule="evenodd"/></g></svg>