<svg xmlns="http://www.w3.org/2000/svg" width="280" height="230" fill="none" viewBox="0 0 280 230"><g id="facial-hair/Moustache 7"><path id="🖍 Ink" fill="#000" fill-rule="evenodd" d="M258.635 38.664c-6.594-1.239-13.411-.89-19.961-2.333-6.39-1.408-11.465-5.595-17.639-7.544-5.433-1.716-11.801-.554-16.032 2.772-3.931-1.817-8.398-2.21-12.87-1.61-6.782.91-13.11 3.78-19.151 6.884-.7.36-1.401.703-2.101 1.05-11.162-.279-22.605-.257-33.558 2.135-9.699 2.12-18.868 7.051-24.652 15.29-6.473 9.22-7.642 20.962-8.64 31.858-.635 6.916 8.971 8.32 12.226 3.311 3.375-5.192 6.888-10.396 11.385-14.698 5.108-4.887 11.321-6.81 18.284-7.257 15.368-.984 30.838-.159 46.221-.84 8.917-.395 18.845-3.824 22.439-11.576 3.836 6.011 12.528 9.585 19.677 10.127 7.555.574 15.226-.799 22.706.775 7.146 1.504 15.64 6.826 14.051 15.338-.934 5 5.387 7.948 8.296 3.498 11.879-18.183.174-43.259-20.681-47.18" clip-rule="evenodd"/></g></svg>