<svg xmlns="http://www.w3.org/2000/svg" width="280" height="230" fill="none" viewBox="0 0 280 230"><g id="facial-hair/Moustache 5"><path id="🖍 Ink" fill="#000" fill-rule="evenodd" d="M294.392 32.722c-1.333-3.982-8.192-3.635-7.77 1.053.483 5.355-1.35 11.327-6.48 13.927-5.372 2.721-11.416.275-14.693-4.395-2.849-4.06-4.814-8.474-8.399-12.015-3.333-3.292-7.387-5.83-11.822-7.338-3.454-1.172-7.037-1.485-10.512-1.1-8.66-1.956-18.694 2.495-24.091 9.246-.348.435-.671.883-.983 1.334a44.607 44.607 0 0 0-1.688-2.16c-1.529-1.832-3.427-2.226-5.141-1.727-9.761-7.259-23.44-8.22-34.526-1.67-8.882 5.25-16.229 12.985-27.151 13.588-8.651.476-18.074-4.46-18.684-13.967-.32-4.963-7.084-9.102-10.879-4.506-7.978 9.665-9.574 22.501-5.16 34.186 4.658 12.33 14.148 21.014 26.164 26.124 12.976 5.516 28.182 7.432 42.219 6.995 13.994-.435 26.718-5.816 35.153-17.263a37.884 37.884 0 0 0 2.668-4.159c8.19 10.428 21.028 14.811 34.104 15.126 13.68.328 29.852-2.073 39.524-12.697 9.321-10.24 12.538-25.468 8.147-38.582" clip-rule="evenodd"/></g></svg>