<svg xmlns="http://www.w3.org/2000/svg" width="280" height="230" fill="none" viewBox="0 0 280 230"><g id="facial-hair/Moustache 4"><path id="🖍 Ink" fill="#000" fill-rule="evenodd" d="M305.269 13.005c-3.314-4.45-9.271-10.288-15.297-9.974-.771.04-1.06.875-.597 1.44 1.971 2.407 4.664 4.119 6.639 6.576 2.337 2.908 4.024 6.415 5.121 9.962 1.594 5.153 2.034 10.985.613 16.225-2.504 9.236-10.421 16.006-19.059 19.463-8.55 3.422-18.838 4.59-26.924-.423-11.935-7.402-22.058-18.072-37.059-18.283-3.509-.05-5.982 1.558-7.455 3.852-1.48-2.212-3.922-3.777-7.343-3.816-16.817-.19-29.369 11.388-43.484 18.605-9.539 4.878-21.882 3.364-31.723.14-9.283-3.038-19.36-9.141-22.862-18.778-1.933-5.322-1.5-11.536.485-16.782 1.305-3.45 3.32-6.783 5.813-9.494 2.585-2.812 5.983-4.58 8.631-7.246.541-.545.114-1.392-.597-1.441-11.246-.763-21.401 12.665-23.524 22.407-2.091 9.594 1.027 19.163 7.338 26.484 12.833 14.884 36.595 19.793 55.089 15.419 14.969-3.54 29.186-11.691 44.834-10.521 3.43.257 5.892-1.173 7.378-3.341 1.488 2.23 3.966 3.69 7.42 3.356 14.584-1.413 27.601 8.915 41.757 11.437 11.271 2.007 23.446-.7 33.104-6.772 10.095-6.347 17.201-16.528 17.669-28.666.269-6.983-1.78-14.208-5.967-19.83" clip-rule="evenodd"/></g></svg>