<svg xmlns="http://www.w3.org/2000/svg" width="280" height="230" fill="none" viewBox="0 0 280 230"><g id="facial-hair/Moustache 9" fill-rule="evenodd" clip-rule="evenodd"><path id="🎨 Background" fill="#E8E1E1" d="M245.365 32.823c-14.026-2.366-28.598 1.13-42.122 4.855-21.483-14.105-49.32.132-64.706 17.755-5.266 4.337-16.324 10.097-10.498 18.37-2.208 5.85-2.799 8.602 1.772 1.764 25.868 2.978 53.623-2.648 79.224-7.954 8.717 2.931 16.415 9.785 25.998 7.437 9.06 1.927 18.868 3.725 27.047-2.087 6.228-.253 20.084 10.931 19.862-2.075-1.927-12.466-26.645-33.21-36.577-38.065Z"/><path id="🖍 Ink" fill="#000" d="M255.884 72.845c-15.228 1.685-30.671-.79-43.422-9.633-1.331-.923-2.643-.913-3.713-.372-1.301-.144-2.632.375-3.404 1.861-3.202 6.167-13.815 4.793-19.649 4.92-19.083.367-38.832-.686-57.197 5.083 17.564-34.334 41.855-49.156 79.442-35.677-3.394 2.733 13.542-3.665 15.028-3.787 26.006-6.516 47.461 15.296 57.942 36.91-7.929-1.887-16.814-.214-25.027.695m36.324 5.843c-11.467-25.829-34.077-54.229-65.614-49.765-6.475.953-13.286 5.376-19.805 4.578-18.875-6.97-34.455-10.513-53.358.76-8.02.598-53.152 56.475-31.705 51.913 26.326-15.118 72.1-.878 88.448-14.4 32.095 21.07 58.191-1.818 76.279 11.352 3.145 2.885 7.556-.708 5.755-4.438"/></g></svg>