<svg xmlns="http://www.w3.org/2000/svg" width="280" height="230" fill="none" viewBox="0 0 280 230"><g id="facial-hair/Moustache 1"><path id="🖍 Ink" fill="#000" fill-rule="evenodd" d="M229.945 34c11.714.83 22.794 8.099 32.871 13.717 9.698 5.794 16.876 14.378 22.61 23.95l.372.625c.336.498-.264 1.06-.756.87l-.077-.037c-9.517-4.775-19.559-8.645-28.903-13.854-9.124-5.641-20.328-7.57-29.521-12.7-5.254-3.895-3.677-12.27 3.404-12.571Zm-30.469 5.683c.427 2.672-.652 6.913-4.16 8.152-6.163 2.174-11.776 3.346-17.966 5.042l-8.025 2.248c-15.415 4.342-31.061 9.003-44.708 15.843l-.428-.188c-9.913-6.202 44.851-32.076 63.76-36.198 3.474-.758 10.882 1.07 11.527 5.101Z" clip-rule="evenodd"/></g></svg>