<svg xmlns="http://www.w3.org/2000/svg" width="280" height="230" fill="none" viewBox="0 0 280 230"><g id="facial-hair/Moustache 2"><path id="🖍 Ink" fill="#000" fill-rule="evenodd" d="M279.528 190.863c2.019 1.915 6.402 6.13 10.601 7.983h3.927c.843-.158 1.671-.399 2.493-.671 1.069-2.623 1.275-5.679.75-8.757-2.968-17.046-5.619-34.307-4.206-51.656 1.331-16.357 6.039-32.634 4.768-49.147-1.773-38.967-39.4-65.95-72.341-58.06-4.253.376-8.412 1.573-12.116 3.701C162.018 12.7 98.507 49.122 110.469 108.704c2.293 16.11 5.991 31.389 4.855 47.808-.544 7.858-1.795 15.63-3.263 23.362-1.102 5.802-4.019 12.956-1.339 18.683 10.766 6.799 21.99-7.331 29.181-19.458 3.764-10.192 6.891-20.627 10.417-30.898 6.362-18.461 7.836-28.657 28.831-33.691 9.068-3.093 17.162-7.653 24.103-13.665 5.335-2.555 8.376-7.673 10.194-12.848.906 2.548-.347 5.641-.574 8.286 15.227 20.182 34.07 16.361 40.849 30.395 5.187 13.211 8.102 27.295 12.071 40.965.543 1.871 10.59 20.238 13.734 23.22" clip-rule="evenodd"/></g></svg>