<svg xmlns="http://www.w3.org/2000/svg" width="474" height="567" fill="none" viewBox="0 0 474 567"><g id="head/Afro" fill-rule="evenodd" clip-rule="evenodd"><path id="✋ Skin" fill="#D08B5B" d="M195.397 82.672c151.569-7.454 219.966 99.264 224.39 146.93 3.071 33.088-16.478 71.225-16.478 100.791 0 15.092 18.478 47.493 9.876 69.489-19.147 48.959-59.687 103.294-111.347 103.294s-118.893 14.287-175.975-67.445c-5.356-7.669-73.1-51.255-79.681-92.671C29.788 239.895 87.245 87.99 195.397 82.672Z"/><path id="🖍 Ink" fill="#000" d="M188.25 16.257c5.42-6.2 14.57-8.68 22.7-8.2 11.81.7 22.081 7.99 33.831 8.53 12.319.57 24.209-3.7 36.559-1.72 7.57 1.22 15.07 4.73 19.92 10.65 16.8-4.81 35.04 1.56 45.74 15.47 13.2-2.05 27.56 6.691 31.6 19.41 16.77.54 32.6 14.01 34.47 30.89 6.701 1.77 12.52 6.391 16.09 12.5 4.15 7.08 4.84 15.2 4.09 23.18 7.89 4.03 11.9 12.69 12.95 21.85 7.21 5.38 10.34 15.05 8.87 24.18 5.52 3.11 8.371 10.35 8.34 16.81-.03 6.03-1.629 11.371.621 17.19 2.004 5.183 2.724 9.502 1.621 14.931l-.112.529a60.495 60.495 0 0 0-.506 2.571c1.493 1.31 2.756 2.952 3.704 4.862 3.458 6.98 2.943 14.941.306 22.02 1.155 4.508 1.008 9.27-.699 13.603 3.197 4.605 4.878 10.253 4.384 16.113-.554 6.561-3.55 12.436-8.093 16.78 1.21 8.962-2.434 18.645-9.023 24.955.935 5.365.128 10.988-2.807 16.074-2.092 3.625-4.908 6.325-8.157 8.207a26.347 26.347 0 0 1-1.294 9.121c-1.383 4.256-3.725 8.177-6.807 11.335 1.839 11.758-5.201 24.805-17.592 28.104a12.565 12.565 0 0 1-2.985.424c-1.231 11.309-3.919 22.461-8.081 33.052-10.58 26.969-29.82 50.549-54.91 65.259-12.41 7.27-26.35 12.25-40.58 14.33-10.24 1.5-20.09 1.13-30.369.11-12.901-1.29-25.861-3.22-38.401-6.54l-2.017-.536c-5.198-1.393-10.679-3-15.183-5.804-5.04-3.14-7.659-7.98-8.819-13.68-.647-3.172 1.362-6.584 4.835-6.65h.224c.76.016 1.514-.013 2.277-.061l.574-.039h.029c.04-.01.061-.01.1-.01.34-.05.67-.15 1-.2 3.821-.643 7.162-.005 10.75 1.188l.45.152c6.04 2.08 12.03 4.01 18.27 5.44 6.45 1.47 12.98 2.64 19.53 3.56l.65.08.2.03.1.01c.02 0 .04 0 .06.01l1.93.24c1.521.18 3.04.34 4.56.5 2.8.28 5.6.5 8.4.66 48.33 2.72 88.92-35.33 101.17-80.95 4.44-16.51 4.73-32.98 3.42-49.46-.42-1.2-.67-2.53-.66-3.99 0-.76.041-1.51.09-2.27-1.629-15.94-4.459-31.89-6.23-47.89-2.069-18.69-3.22-37.489-2.8-56.3.21-9.29 1.2-18.49 2.5-27.689l.47-3.305a32.218 32.218 0 0 1-15.686-7.966c-9.438 5.45-21.653 5.933-30.969.178-10.44 6.547-25.026 7.141-35.539.74-6.354 4.536-14.36 6.493-22.219 4.771-3.535-.774-7.05-2.449-10.06-4.768a28.752 28.752 0 0 1-6.491.413l-.447.25c-4.99 2.63-10.518 4.361-16.207 4.168-4.212-.142-8.551-.973-12.568-2.545-4.291 2.59-8.987 4.358-14.011 4.992-7.337.925-15.255-.698-21.357-4.86-11.151 6.352-24.867 7.33-36.903 3.062-2.465 4.175-5.876 7.775-9.87 10.55.715 2.562.943 5.294.697 7.921-.404 4.324-1.488 8.201-3.261 11.683 1.869 3.888 2.431 8.662 1.385 13.454-1.491 6.834-5.467 12.779-10.615 17.409-.454 10.906-6.435 21.132-16.169 26.813-.493.287-.983.521-1.472.732a7.24 7.24 0 0 1-1.531 1.541c-6.19 5.719-15.986 5.264-23.745 2.033-.15.007-.299.02-.451.023-2.771.07-4.66-1.01-5.781-2.6-1.129.061-2.25.18-3.379.39-4.121.77-8.641 2.25-12.371 4.171-9.68 4.979-14.16 13.779-15.5 24.359-1.459 11.54 1.86 23.3 10.791 31.11 4.339 3.8 9.889 6.18 15.529 7.18 6.23 1.11 12.89-1.62 17.49 3.73.92 1.06 1.55 2.54 1.05 3.97-1.56 4.46-4.13 6.17-8.15 6.79 5.81 6.89 11.77 13.55 18.37 19.74 7.14 6.71 14.52 13.21 20.961 20.61 6.809 7.83 12.959 16.13 17.229 25.63 2.44 5.46 4.4 11.09 6.511 16.68l.377.974c2.354 5.939 5.484 11.664 1.862 17.866-1.44 2.44-4.7 4.8-7.7 4.41-8.449-1.08-11.279-6.79-13.88-14.23-1.96-5.62-3.46-11.4-5.569-16.97a63.593 63.593 0 0 0-1.276-3.067c-4.872 1.358-10.229.28-14.577-2.498a35.306 35.306 0 0 1-14.764 2.999c-6.656-.117-12.737-1.966-17.965-5.301-.416-.11-.834-.216-1.249-.335-7.953 3.046-17.267 2.502-24.468-2.435-4.663-3.197-7.851-7.464-9.663-12.215-6.025-.115-11.985-2.251-16.302-6.525-3.964-3.924-6.281-8.987-6.969-14.248-5.186-1.027-10.048-3.534-13.861-7.757-3.184-3.527-5.119-8.019-5.773-12.683-6.316-1.802-12.012-5.926-15.123-11.676-2.895-5.353-3.313-11.16-1.897-16.442l-.367-.528c-6.506-3.405-11.471-8.979-11.981-16.941a19.75 19.75 0 0 1 .715-6.681c-.222-2.399-.08-4.797.549-7.117-8.75-8.51-11.92-22.18-7.17-33.48-8.55-9.2-10.81-23.75-4.54-34.669-4.3-5.201-6.51-11.831-6.14-18.911.46-8.839 4.51-16.56 9.36-23.71-3.6-3.98-5.52-9.53-5.379-14.89.199-7.77 4.329-14.46 9.5-20-4.511-13.68.529-28.52 11.599-37.18-2.24-3.69-3.07-8.26-2.339-12.89 1.279-8.09 7.349-13.6 13.899-17.96-1.37-4.459-1.01-9.27 1.17-13.88 2.91-6.15 8.4-10.05 14.13-13.35 1.48-13.64 16.72-25.29 29.5-18.25-3.17-10.15 5.961-21.11 16.461-22.27 5.139-15.58 22.869-25.4 38.809-21.53 8.15-11.14 23.32-15.429 36.2-10.65 14.161-10.85 31.73-12.46 48.3-6.95ZM87.38 322.168c9.95-.54 17.41 7.58 22.651 15.01 4.919 6.97-7.701 14.33-11.381 6.65-1.32-2.74-2.82-5.64-4.83-8.04-.337.472-.636.962-.932 1.464l-.298.506c-.22.37-.45.75-.64 1.14.02.07-.28.99-.29 1.03-.82 2.49-2.61 4.09-5.049 4.95-3.151 1.1-6.131-1.27-7.141-4.05-1.609-4.44 2.13-8.31 6.02-10.07-3.82-.62-7.58.68-10.34 3.62-.379.41-1.02.08-1.039-.43-.321-6.97 6.969-11.44 13.269-11.78Z"/></g></svg>