<svg xmlns="http://www.w3.org/2000/svg" width="474" height="567" fill="none" viewBox="0 0 474 567"><g id="head/Bangs" fill-rule="evenodd" clip-rule="evenodd"><path id="✋ Skin" fill="#D08B5B" d="M431.63 424.844c-3.964-5.862-13.509-48.402-19.606-54.945.46-25.13 7.407-112.137-12.436-151.249 4.174-4.221 15.266-40.576 12.436-54.319 9.348-28.782-50.705-74.495-73.56-86.848-106.221-56.959-260.143 5.914-308.45 111.429C.984 252.457.45 323.603-2.832 391.978c-.388 14.636-1.733 29.386-1.718 44.004 2.099 12.845 12.284 25.926 4.563 36.607-8.53 5.899-25.767 20.271-18.092 28.421 4.498 3.745 11.683 1.572 16.564 5.173 2.485 1.39 4.035 4.437 6.94 4.9 26.547-1.008 45.28-1.094 71.907-2.17 11.657-.382 29.407 4.549 42.788-5.267 46.738 25.996 27.188-11.719 36.639-38.571 28.78 9.731 86.11 40.762 116.787 41.764 24.929 3.081 48.24-11.437 72.748-8.132 30.447 11.311 66.129 13.826 94.018-5.312 6.96-5.012 14.703.794 23.475-4.619 17.049-8.153-23.553-54.887-32.157-63.932Z"/><path id="💈 Hair" fill="#D6B370" d="M30.014 188.912C78.32 83.397 232.243 20.524 338.464 77.482c22.855 12.354 82.908 58.067 73.56 86.849 2.139 10.39-3.678 33.701-8.447 46.284-22.148 16.368-86.819 12.971-194.01-10.192l-4.115-.894-36.604 21.689-15.035 56.499c-10.095 9.988-18.252 22.182-24.472 36.582 0 0-15.133-16.621-37.568-14.5-14.588 6.209-25.33 12.975-32.225 20.297-6.758 7.175-6.893 23.262-.405 48.261l.405 1.542 32.225 10.033h14.954l41.086 50.211 5.999 51.652c-1.35 22.612 3.752 42.678-33.692 21.851-13.381 9.816-31.13 4.885-42.788 5.267-26.628 1.076-45.36 1.162-71.906 2.17-2.906-.463-4.456-3.51-6.941-4.9-4.881-3.601-12.066-1.428-16.564-5.173-7.675-8.15 9.563-22.522 18.092-28.421 7.72-10.681-2.464-23.762-4.563-36.607-.015-14.618 1.33-29.368 1.718-44.004l.289-6.161c3.05-66.476 4.399-135.266 32.557-196.905Zm373.053 204.583 9.358-35.44-.207 5.33c-.091 2.478-.16 4.664-.194 6.514 6.097 6.543 15.642 49.083 19.606 54.945l.858.914c10.13 10.9 47.837 55.109 31.299 63.019-8.772 5.412-16.515-.394-23.475 4.618-27.889 19.138-63.571 16.623-94.018 5.312-3.57-.481-7.114-.585-10.641-.419l-1.454-4.552 33.318-28.661 35.55-71.58Z"/><path id="🖍 Ink" fill="#000" d="M396.822 215.313c-.378-2.171 2.613-3.79 3.77-1.59 8.405 15.981 11.772 34.489 14.749 52.141 3.007 17.837 4.994 35.75 5.104 53.858.084 13.929-1.181 28.019-3.556 41.958l.289.992c.534 1.822 1.072 3.642 1.616 5.461l.82 2.728c1.586 5.239 3.088 10.5 4.717 15.726 3.401 10.905 6.982 21.841 11.368 32.393 4.28 10.299 9.485 20.23 15.672 29.512 5.963 8.947 15.426 16.513 19.627 26.451 1.464 3.464-.701 8.042-4.745 7.489-.263.316-.664.547-1.208.595-3.14.273-6.083.013-9.216-.282a1.36 1.36 0 0 1 0-2.718c1.331-.125 2.627-.235 3.922-.31-8.96-5.309-15.352-15.677-20.463-24.164-6.568-10.904-11.529-22.817-15.573-34.865-4.153-12.37-7.094-24.998-9.457-37.82a291.245 291.245 0 0 1-.777-4.432 294.01 294.01 0 0 1-11.388 37.13l-.638 1.666c-10.506 27.234-24.734 54.729-48.399 72.73a82.386 82.386 0 0 1-3.277 2.349l1.346.771c1.34.765 2.66 1.499 3.951 2.102 4.782 2.231 9.973 3.932 15.108 5.137 10.606 2.491 21.744 1.777 32.564 2.124 3.549.114 5.568 5.435 1.94 7.162-11.951 5.692-24.859 4.483-37.195.48-6.104-1.983-11.832-4.759-17.131-8.382-2.191-1.497-4.735-3.345-6.883-5.48-23.667 13.242-53.083 14.724-79.425 9.988-13.689-2.462-26.954-6.957-38.625-14.646-11.226-7.394-19.228-16.756-24.941-28.885-.507-1.075.902-2.414 1.767-1.364 17.945 21.796 48.827 30.89 75.995 32.62 14.496.924 29.325.156 43.262-4.181 13.221-4.116 24.565-11.66 34.037-21.693 19.199-20.337 30.703-48.003 38.965-74.332 8.988-28.643 13.268-58.78 14.151-88.755.447-15.187-.116-30.502-2.501-45.521-2.366-14.895-6.757-29.311-9.342-44.143ZM127.771 86.282c1.271-.646 2.166 1.035 1.088 1.862-22.377 17.161-42.417 38.921-58.637 61.952-29.913 42.477-49.097 91.631-57.93 142.707-5.217 30.163-6.579 60.783-6.058 91.348.207 12.141.9 24.246 1.671 36.354l.871 13.422c.405 6.253.742 12.453.481 18.737l-.07 1.452c-.415 7.312.304 14.683-1.53 21.816-.94 3.658-6.1 4.234-7.968 1.041a37.63 37.63 0 0 1-1.04-1.921c-4.378 7.14-10.048 13.523-16.339 19.225 3.007-.64 6.043-1.048 9.16-.675 4.941.592 9.373 2.5 12.51 5.844 3.112-1.403 6.313-2.369 9.994-2.389 2.711-.014 4.744 3.191 3.197 5.572-3.086 4.752-7.392 7.416-12.285 10.049-3.467 1.866-7.606.27-8.886-3.42l-.074-.224c-1.44-4.668-9.105-3.914-12.72-3.192l-1.065.217c-6.73 1.401-13.304 3.193-20.16 1.345-4.424-1.193-5.58-7.851-1.316-10.061 13.47-6.98 24.778-16.356 36.4-25.77-2.567-6.291-4.024-13.32-5.704-19.717-2.365-9.004-3.056-18.692-3.91-27.941-1.623-17.585-2.242-35.361-2.068-53.015.59-59.628 10.787-119.441 36.836-173.436 11.412-23.653 26.404-45.54 44.125-64.913 17.616-19.259 38.191-34.467 61.427-46.27Zm-20.855 292.014c-.691-.958.658-2.225 1.604-1.604 20.481 13.453 34.694 33.881 43.865 56.322 9.078 22.217 14.652 49.43 5.699 72.598-1.425 3.69-8.25 5.06-8.949 0-3.121-22.596-3.606-45.224-10.469-67.192-6.804-21.777-18.446-41.719-31.75-60.124Zm-15.88 73.356c.112-.399.764-.33.736.1-.513 7.968-.861 16.033-1.863 23.957-.487 3.851-1.131 7.677-1.68 11.519-.561 3.94-.476 7.918-2.767 11.283-3.036 4.461-11.102 3.206-10.831-2.933.187-4.235 2.133-6.953 3.956-10.67 1.17-2.383 2.188-4.846 3.17-7.321l1.46-3.712c2.903-7.361 5.68-14.598 7.819-22.223ZM54.36 430.545c.124-.627 1.135-.476 1.105.149a261.457 261.457 0 0 1-3.811 33.542c-.908 5.065-1.967 10.103-3.087 15.125l-.484 2.152c-1.198 5.29-1.971 11.509-4.655 16.235-2.682 4.723-9.05 1.293-8.225-3.468.964-5.558 4.375-11.149 6.358-16.487 1.83-4.928 3.43-9.943 4.925-14.982 3.147-10.607 5.728-21.413 7.874-32.266Zm68.296 31.31.239-.244c.932-1.013 2.322-.338 2.767.731 1.822 4.381.91 9.547.78 14.198l-.024 1.014c-.097 4.711-.03 9.124-2.166 13.474-2.594 5.281-9.429 2.001-9.958-2.697-.578-5.127 1.847-10.146 3.413-14.948.995-3.052 1.72-6.226 3.233-8.996-1.294.223-2.586.67-3.769.993-.53.143-.73-.635-.224-.815 1.956-.693 4.164-1.213 5.709-2.71Zm272.659 15.547c-.625-.699.154-1.63.965-1.252 9.74 4.549 18.85 7.508 29.597 8.477 4.657.42 4.686 7.736 0 7.312-11.216-1.01-22.971-6.039-30.562-14.537ZM52.641 323.709c8.575-19.289 35.703-36.4 53.894-18.462.341.335-.006 1.066-.501.861-11.315-4.689-25.167 1.275-32.998 9.805-6.213 6.766-9.946 15.454-10.687 24.611-.741 9.165 1.45 18.731 7.537 25.82 3.193 3.719 7.505 7.239 12.579 7.686 5.123.451 9.393-3.157 14.236-4.137 3.651-.738 6.407 1.553 6.765 5.152.789 7.943-7.12 13.274-13.974 14.569-7.374 1.392-14.9-.129-21.254-4.125-20.522-12.906-24.95-40.741-15.597-61.78Zm192.545-189.063c3.729-3.564 10.072-.021 8.696 5.063-2.926 10.82-9.145 19.965-16.035 28.645-6.629 8.351-13.731 16.376-21.343 23.845a201.818 201.818 0 0 1-24.413 20.419l-2.601 1.842c-6.119 4.315-12.602 8.677-19.452 11.784-1.654 14.25-4.89 28.31-9.786 41.771-4.715 12.962-10.715 25.489-17.985 37.212l-1.044 1.679c-6.68 10.707-14.714 22.672-26.05 28.541-.34.177-.681.285-1.017.348 2.536 1.691 4.679 3.818 5.953 6.874 1.396 3.346-1.522 6.503-4.319 7.608-5.915 2.337-11.685-1.619-17.002-5.839a21.054 21.054 0 0 0-.619 1.532c-1.189 3.37-1.539 6.814-4.605 9.05-1.457 1.063-3.252.112-4.169-1.092-3.006-3.95.106-9.331 2.75-12.559.365-.446.743-.87 1.132-1.277-1.117-.821-2.207-1.549-3.263-2.108-6.209-3.288-15.413-3.871-18.988 3.408-.274.559-1.135.27-1.135-.308.01-8.941 9.168-13.797 17.116-14.457 5.807-.481 11.424 1.555 16.651 3.926l.975.448c1.945.903 3.949 1.755 5.867 2.708-.312-.823-.307-1.791.184-2.751 6.011-11.739 16.333-21.285 23.777-32.157 7.382-10.786 13.72-22.329 18.779-34.382 4.91-11.699 8.757-23.765 11.447-36.072-.886.183-1.885-.606-1.822-1.531.15-2.238 1.245-4.254 3.168-5.113 2.118-11.576 3.199-23.348 3.136-35.215-.005-.92 1.328-.887 1.406 0a195.903 195.903 0 0 1 .225 31.797c5.002-4.602 10.277-8.977 15.093-13.701 7.247-7.108 14.258-14.406 21.021-21.975 6.9-7.722 13.422-15.728 19.386-24.199l3.121-4.442c4.799-6.81 9.728-13.549 15.765-19.322Zm-9.409-76.026c41.156-2.569 85.11 2.49 122.078 21.808 20.303 10.61 35.996 26.644 47.209 46.599 6.695 11.916 11.774 25.111 13.698 38.677 1.976 13.939-.344 26.368-9.244 37.448-3.535 4.4-9.489-.515-8.618-5.017 5.328-27.544-3.314-54.758-18.641-77.561-22.241-33.09-61.082-47.789-98.899-54.346-18.58-3.22-37.425-4.566-56.275-3.91-14.371.5-29.113 1.838-42.751 6.673-.575.204-.804-.692-.25-.903 16.268-6.213 34.428-8.39 51.693-9.468Zm61.038 62.283c2.119-1.343 4.711.035 5.439 2.214 2.568 7.682-2.814 17.831-6.414 24.479-4.074 7.523-9.313 14.557-14.723 21.164-10.823 13.214-25.048 24.24-40.658 31.17-.956.425-2.07-.729-1.193-1.545 12.078-11.247 23.029-23.305 32.509-36.832 4.658-6.647 8.543-13.659 12.253-20.862 3.32-6.446 6.442-15.766 12.787-19.788Zm69.217 9.05c1.354-4.728 9.066-3.923 8.747 1.184-.825 13.193-7.049 26.436-13.812 37.617-6.964 11.513-15.783 21.773-25.892 30.634-.498.437-1.18-.236-.729-.729 8.722-9.548 15.767-20.424 20.984-32.26 5.211-11.819 7.178-24.151 10.702-36.446Zm-38.329-2.136c1.475-4.111 8.535-3.806 8.102 1.097-1.19 13.478-9.1 27.603-16.426 38.735-7.774 11.811-17.697 22.216-28.787 30.955-.415.327-1.002-.215-.597-.597 9.961-9.385 18.039-20.226 24.434-32.318a121.797 121.797 0 0 0 8.164-19.232c2-6.14 2.939-12.588 5.11-18.64Z"/></g></svg>