<svg xmlns="http://www.w3.org/2000/svg" width="474" height="567" fill="none" viewBox="0 0 474 567"><g id="head/Bantu Knots" fill-rule="evenodd" clip-rule="evenodd"><path id="✋ Skin" fill="#D08B5B" d="M412.458 250.232c-1.143-21.883-2.146-44.494-6.342-66.042-2.057-10.563-6.171-20.315-12.826-28.794-6.088-7.759-13.75-13.777-21.522-19.754-15.62-12.013-30.639-25.313-48.123-34.605-16.777-8.916-34.914-14.298-53.709-16.715-36.198-4.655-74.218 3.093-105.652 21.682-30.49 18.032-55.001 46.015-70.168 77.918-7.538 15.854-13.2 32.586-16.25 49.889-3.635 20.626-3.306 41.31-3.175 62.167.045 7.01-.018 14.016-.367 21.009a62.45 62.45 0 0 0-.879 10.515c-6.901 9.081-9.709 21.218-5.384 32.397 6.899 17.838 26.474 25.95 44.246 22.838.795 4.637 2.712 9.206 5.099 13.653 4.081 7.6 8.643 15.044 13.485 22.181 10.017 14.767 21.448 28.154 35.087 39.703 27.037 22.894 61.287 37.895 96.806 40.066 32.337 1.976 66.441-7.22 92.812-26.189 13.687-9.845 25.532-21.91 34.333-36.358 10.281-16.878 15.86-36.308 18.755-55.731 6.354-42.641 6.015-86.873 3.774-129.83Z"/><path id="🖍 Ink" fill="#000" d="M157.467 24.09C156.245 10.32 168.938-.042 180.716 3.815c2.161.269 4.263.95 6.141 2.098 5.421 3.31 6.606 8.65 5.19 13.267 2.545 1.92 4.55 4.525 5.558 7.666 1.039 3.236.931 6.375-.047 9.11 3.695 2.44 6.488 6.124 7.137 10.687.308 2.167.184 4.316-.33 6.29 5.594 1.9 10.159 6.154 10.09 12.59 3.249.209 6.502.255 9.813.07.472-1.332 1.051-2.632 1.91-3.83 1.734-2.41 4.198-4.067 6.926-5.1l.374-.137-.006-.732c-2.089-2.315-3.067-5.235-.842-8.415a6.05 6.05 0 0 1 1.366-1.381c.184-1.38.482-2.746.848-4.09-1.844-2.57-1.644-6.833 1.449-8.11a22.364 22.364 0 0 1 .009-7.723c1.908-10.73 12.264-18.038 22.936-17.628 1.336.05 2.636.252 3.892.572 2.598.272 5.183.853 7.725 1.717 2.934.998 3.689 3.448 3.043 5.519 3.984 5.327 5.115 12.564 1.103 19.068-.153.247-.321.482-.486.719a6.914 6.914 0 0 1 2.025 2.428c1.306 2.58.984 5.854-1.009 8.007-.53.574-1.216 1.005-1.967 1.282l-.013.212c-.26 3.455-.809 6.919-1.846 10.182 4.224 3.923 7.029 9.262 7.526 15.015 1.574.146 3.147.317 4.718.495.232-1.577 1.189-2.997 2.641-4.097a17.381 17.381 0 0 1 3.844-2.207c.642-3.307 2.213-6.475 4.865-8.99a19.728 19.728 0 0 1 3.204-2.46c-.064-3.585.735-7.167 2.721-10.56 1.652-2.82 4.057-4.866 6.799-6.168 2-4.02 5.703-7.3 11.092-9.164 4.027-1.392 8.289.262 11.35 2.864l.685.6c2.809 2.479 3.824 7.034 2.788 10.548-.487 1.65-1.3 3.58-2.48 5.147 1.247 5.497-1.234 10.083-5.035 12.66 1.299 1.848 2.391 3.898 3.313 6.087 1.594 3.785-.198 8.498-3.072 11.48 1.258 2.006 2.075 4.346 2.375 6.696 1.282.075 2.556.303 3.812.66a13.312 13.312 0 0 1 3.922-6.216 24.897 24.897 0 0 1 3.02-4.603c1.798-2.154 4.128-3.706 6.671-4.338a8.676 8.676 0 0 1 1.421-2.263c-.607-7.008 4.037-14.244 11.19-14.25a37.956 37.956 0 0 1 1.861-4.835c1.449-3.11 4.52-4.971 7.851-5.583 1.956-4.766 5.799-8.232 12.394-8.81 14.733-1.29 24.001 16.574 20.403 29.4-1.07 3.81-3.575 7.316-6.9 9.469-.87.563-1.747.972-2.634 1.31-.887 1.239-2.081 2.34-3.616 3.237-.34.199-.69.378-1.05.538.035 5.724-3.916 10.379-8.82 11.86.315 3.609-.608 7.227-3.349 10.023l-.195.187-.399.358-.032.158c.975 2.512.873 5.279-.527 7.556.123 2.092.493 4.137 1.196 6.081 2.708 2.191 5.098 4.708 7.235 7.44 1.427-1.292 3.581-1.875 5.444-1.169a7.055 7.055 0 0 1 1.56-.341c.85-.086 1.683-.083 2.501-.023.378-.549.811-1.071 1.306-1.56 3.479-3.439 8.528-3.368 12.536-1.232a12.136 12.136 0 0 1 2.442-1.372c10.217-4.307 16.914 8.658 17.91 16.739.543 4.409-3.251 7.128-7.145 7.357-.791 2.673-3.331 4.597-6.168 5.25.504 3.302-1.686 6.672-4.668 7.928-1.331.561-2.619.714-3.831.551l.058.782c.235 3.101-1.333 5.075-3.48 5.95-.378 1.536-1.427 2.65-2.74 3.221 5.018 11.624 8.979 23.802 12.174 35.813 5.274 19.828 8.82 40.017 11.198 60.389 4.183 35.813 4.347 72.362.159 108.19-2.131 18.232-5.673 36.052-12.917 52.985-6.042 14.124-14.447 26.381-24.12 38.241-19.218 23.556-46.726 40.909-77.043 45.22-15.914 2.263-32.236 1.527-47.766-2.809-15.463-4.317-31.95-11.72-41.691-24.867-2.638-3.559-1.354-9.333 1.583-12.27 3.351-3.351 8.177-3.567 12.269-1.583 7.261 3.521 13.788 8.334 21.17 11.694 6.661 3.033 13.864 4.975 21.036 6.347 14.207 2.719 29.655 2.024 43.819-1.767 25.686-6.873 48.317-23.461 62.684-45.829 16.972-26.425 23.031-57.394 25.805-88.255 3.035-33.778 2.718-68.02-1.308-101.702-1.996-16.703-5.068-33.256-8.705-49.673-2.589-11.689-5.51-23.3-8.259-34.949a148.84 148.84 0 0 1-7.225-7.382l-.071-.005c-.294.073-.6.128-.928.153-13.795 1.052-28.746-.333-40.515-8.283-4.783-3.231-8.829-7.321-11.84-12.03-4.229-2.931-8.082-6.629-10.976-10.902a101.386 101.386 0 0 1-5.846-7.044c-4.603-6.078-7.049-12.457-9.794-19.47a2.8 2.8 0 0 1-.138-.474 8.271 8.271 0 0 1-1.078-2.75c-6.124-.727-12.273-1.21-18.362-1.5a434.828 434.828 0 0 0-6.481-.252c.568 2.113.91 4.305.984 6.556 1.746.078 3.526.28 5.348.572 8.546 1.36 14.027 5.737 19.217 12.594 5.052 6.674 9.079 14.701 12.071 22.508 1.834 4.78-.613 10.064-4.635 13.141-10.442.887-20.702 3.131-30.312 7.577-.338.157-.583.432-.745.756-7.674 2.286-15.405 4.377-23.131 6.152-7.459 1.714-14.991 2.427-22.491.536-3.224-.813-6.377-2.017-9.478-3.367-1.666.202-3.47-.116-5.305-1.168a127.483 127.483 0 0 1-8.325-5.203c-4.863-2.332-9.646-4.837-14.214-7.7l-.025-.035c-3.643-4.419-8.84-8.921-14.658-12.33a18.512 18.512 0 0 1-1.665-3.122c-2.503-6.089-1.458-13.454 3.822-17.642.077-1.445.706-2.86 2.101-3.995a57.68 57.68 0 0 1 3.407-2.567c-.244-.181-.49-.356-.733-.541a21.86 21.86 0 0 1-1.391-1.157c-3.525 1.932-7.081 3.823-10.718 5.507-.092.067-.179.138-.276.201-6.839 4.489-13.312 9.645-20.236 13.971-1.658 1.035-3.309 2.039-4.948 3.046a72.762 72.762 0 0 0-1.796 2.557 25.426 25.426 0 0 1-1.093 3.963 7.396 7.396 0 0 1 2.144 2.797 31.414 31.414 0 0 1 6.066 3.097l1.675.743c2.153-1.726 4.428-3.286 6.872-4.583 7.671.498 15.961 5.933 21.789 11.474.408.46.807.924 1.188 1.395.369.298.741.615 1.112.926a43.718 43.718 0 0 1 1.682 1.916c.579.703 1.233 1.09 1.897 1.252 3.57 3.352 6.915 7.124 9.203 11.043 3.674 6.292 1.099 14.135-1.59 20.309-.44 1.008-.903 2-1.389 2.981-5.142 6.927-10.017 14.048-14.889 21.171-3.283 3.173-6.543 6.366-9.662 9.686-.511.342-1.048.67-1.638.974-9.077 4.671-17.855-.587-26.503-3.862l-.966-.357c-8.911-3.223-20.004-5.34-20.566-16.944-.077-1.581-.016-3.201.141-4.839a175.919 175.919 0 0 1 7.511-17.08 10.93 10.93 0 0 1-1.499-2.043 17.11 17.11 0 0 1-2.233-3.68c-4.139 7.926-8.081 16.427-13.401 23.381-2.932 3.833-6.584 5.214-10.46 5.205-1.635.825-3.465 1.102-5.227.894l.186 2.121c.162 1.769.35 3.536.623 5.271 3.747-.061 7.663.966 11.154 2.347 10.246 4.051 20.119 9.661 30.003 14.524 4.773 2.348 11.331 4.316 15.23 7.983 2.988 2.813 2.646 6.297 1.511 9.921-.195.618-.407 1.231-.609 1.846l-.013.201c-3.187 4.015-5.37 8.806-6.954 13.752-2.588 4.4-4.393 9.338-5.623 14.177-.998 3.931-1.706 7.944-2.167 11.993l-.119 1.106-.066.13-.034.955c-.656 7.131-.578 14.352.016 21.425.166 1.969.372 3.941.629 5.906-1.114 3.485-6.403 3.97-9.144 1.832a86.901 86.901 0 0 0-9.478-6.422c-4.486 2.044-9.674 2.393-14.687.718-.358-.119-.698-.263-1.042-.399-3.757.466-7.477 1.342-11.037 2.379l-1.068.316c-5.68 1.708-11.093 3.846-15.368 8.187-7.597 7.711-10.044 20.174-8.494 30.608 1.507 10.151 7.397 21.752 18.01 24.703 4.343 1.208 9.024 1.173 13.247-.515 1.604-.641 2.979-1.57 4.333-2.589 1.662-1.252 2.975-2.661 4.947-3.453 1.801-.723 4.912-.667 5.791-.709 2.745-.133 5.068 2.016 5.876 4.474 2.464 7.501-1.236 13.011-7.181 16.698 2.501 3.786 4.845 7.741 7.321 11.318 4.626 6.684 9.511 13.144 14.574 19.5 5.197 6.527 10.737 12.738 16.776 18.5a171.25 171.25 0 0 0 8.428 7.528l1.597 1.322c2.699 2.253 5.06 4.549 4.966 8.482-.051 2.203-1.514 4.249-3.681 4.836-7.666 2.075-15.7-7.975-20.693-13.131l-.393-.401a175.774 175.774 0 0 1-16.747-19.615c-5.239-7.147-9.53-15.042-12.989-23.185-1.606-3.784-3.351-8.109-4.586-12.486-6.661 2.583-14.396 3.506-19.691 2.899a39.184 39.184 0 0 1-13.377-4.01c-.824 1.846-1.932 3.563-3.278 4.991-4.992 5.297-12.257 6.809-19.294 6.744-9.012-.082-17.1-5.765-17.426-15.353-.212-6.215 3.008-11.549 7.707-15.185 1.743-4.302 5.052-7.847 9.847-8.998-3.173-9.809-3.732-20.617-1.348-30.52 2.36-9.804 7.747-19.091 15.714-25.209l.454-.343-.192.102c-1.882 1.037-3.718 2.156-5.58 3.228l-.837.477c-8.27 4.669-17.848 8.68-27.477 6.183-15.283-3.964-16.605-23.025-3.456-30.548 4.544-2.6 9.795-3.581 14.979-4.231a13.752 13.752 0 0 1 2.868-2.794c.16-3.503 1.922-7.005 5.039-9.205 3.178-2.244 6.748-2.466 10.072-1.436a19.801 19.801 0 0 1 4.059-2.38 20.606 20.606 0 0 1 3.885-1.234c-.023-1.046-.035-2.092-.051-3.139-.21-.975-.335-1.997-.466-3.06-.235-.04-.473-.078-.704-.128-3.386-.74-6.445-2.259-9.108-4.307-4.26 2.691-9.43 3.709-15.576 1.889-5.707-1.69-11.086-7-13.745-13.101-3.645-.733-7.184-1.798-10.283-3.818-5.738 1.364-11.922-.842-14.248-6.782-1.725-4.404.349-9.728 4.047-12.458 1.077-.795 2.242-.646 3.168-.031.219-.715.476-1.423.792-2.115.127-.279.265-.551.405-.822-.138-5.834 1.979-11.474 7.275-14.604 3.93-2.323 8.619-2.576 12.844-1.234 2.32-2.163 5.26-3.815 8.912-4.722 6.42-1.596 13.179.224 17.749 5.039a19.338 19.338 0 0 1 3.06-.629c.382-2.686 1.296-5.269 3.202-7.285a15.342 15.342 0 0 1 4.782-3.407c.809-3.043 2.136-5.767 4.358-8.047a18.008 18.008 0 0 1-2.915-3.097 19.601 19.601 0 0 1-2.765-.647c-4.83-1.551-8.16-4.595-10.42-8.389-4.182 1.071-8.611.679-12.964-2.052-3.148-1.975-5.521-5.133-6.773-8.661l-3.575-1.253c-3.37-1.192-5.787-3.418-7.167-6.067-1.755.631-3.69.608-5.264-.608-9.23-7.124-2.926-18.928 6.953-21.272 4.019-.953 7.528-.41 10.648 1.043 2.22-2.139 5.005-3.745 8.192-4.469 3.717-.844 7.634-.225 11.064 1.415l.886-.012c3.454-2.565 7.887-3.714 13.304-2.475 6.133 1.403 10.314 4.836 13.148 9.307a15.9 15.9 0 0 1 3.055-2.157c3.172-1.726 6.56-2.152 9.805-1.612a138.147 138.147 0 0 1 3.366-4.599c-2.741-2.141-4.615-5.462-4.714-9.147-.828-.516-1.63-1.103-2.397-1.643-3.753-2.643-6.935-5.957-8.382-10.412-.722-2.222-.985-4.538-.901-6.86a19.414 19.414 0 0 1-1.205-.296c-15.95-4.588-22.562-26.571-9.956-38.37 6.62-6.195 16.683-2.686 23.231 1.889 4.465 3.12 8.012 6.999 11.226 11.285.151.03.298.04.45.078 4.616 1.09 8.287 4.052 10.999 7.838 4.79-.832 9.889.093 14.433 3.418 3.313 2.424 5.394 5.424 6.474 8.684 4.304-2.246 8.734-4.215 13.26-5.954.297-.713.607-1.427.966-2.136a13.229 13.229 0 0 1 2.666-3.586 20.58 20.58 0 0 1-2.993-4.328c-3.897-7.594-2.489-15.28 1.818-21.095-1.883-4.24-2.463-9.048-1.348-13.622.207-.85.468-1.665.773-2.45-2.613-4.073-4.288-8.761-4.721-13.628ZM87.529 331.282c2.765-.673 3.416-1.555 6.525-1.301a43.1 43.1 0 0 1 7.203 1.213c5.569 1.442 10.766 4.356 15.342 7.787 6.491 4.867-1.279 13.912-6.449 8.722l-.156-.162c-3.474-3.724-7.373-6.633-11.739-9.227-2.213-1.314-4.497-2.263-6.81-3.368-1.599-.763-2.523-2.012-4.027-2.807-.355-.188-.272-.763.111-.857Zm14.884-73.297c-1.528-.539-3.282.612-3.691 2.095-.439 1.598.492 3.043 1.934 3.628l.162.062c1.957.69 3.744 1.838 5.266 3.244l.322.305c2.771 2.692 7.018-1.546 4.243-4.243a22.486 22.486 0 0 0-8.236-5.091Zm71.777-109.213c-1.579-3.454-6.618-.554-5.25 2.867l.069.161c1.422 3.11.839 6.72-.711 9.65l-.153.282c-1.886 3.374 3.295 6.403 5.181 3.028 2.798-5.008 3.262-10.742.864-15.988Zm43.572-43.001-.07-.346c-.71-3.791-6.494-2.186-5.785 1.594 1.178 6.285 5.743 10.414 11.598 12.464 3.653 1.278 5.222-4.516 1.596-5.786-3.881-1.358-6.476-3.932-7.339-7.926Zm94.549-6.071-1.019-.044.776 1.024c.075-.329.154-.656.243-.98Z"/></g></svg>