<svg xmlns="http://www.w3.org/2000/svg" width="474" height="567" fill="none" viewBox="0 0 474 567"><g id="head/Bear" fill-rule="evenodd" clip-rule="evenodd"><path id="✋ Skin" fill="#D08B5B" d="M403.332 205.382c18.127-11.626 42.861-41.291 28.804-63.786-5.709-8.797-13.494-12.104-22.04-12.369-2.037-2.556-5.422-3.305-8.581-3.323l.018-.135c-11.548.212-22.897 4.257-32.185 11.011-5.988-5.261-13.425-8.253-20.629-11.488 3.021-15.195 7.631-30.017 12.866-44.582 2.825-8.387-6.124-17.222-14.562-14.688 2.076-9.093-2.694-19.653-13.084-19.536-5.555 0-11.841 2.979-17.213 4.32-3.979.995-7.898 2.015-11.738 3.312-.018-.105-.028-.21-.039-.316 10.064-7.045 9.713-23.267-5.076-21.694-6.309.556-12.723 4.85-18.557 7.473-9.617.578-18.853 3.634-28.201 5.827-25.579 6.346-52.945 12.721-74.018 28.822-36.499 14.066-81.895 35.81-86.417 78.793-64.285-24.872-112.848 54.55-54.55 85.803 11.44 5.333 24.664 8.094 37.18 5.529a1194.605 1194.605 0 0 0-8.429 32.926c-22.263 51.151-40.263 105.208-33.788 161.35.095 10.185 13.175 16.06 20.405 8.452 5.981-7.216 13.238 1.219 11.288 8.186-1.848 7.739 3.601 14.844 11.527 15.131 9.485.497 17.02-5.864 23.731-11.739-.129.127.177-.066.623-.367 16.562 39.063 32.08 8.69 52.493 26.266 4.77 4.406 8.117 9.626 14.228 12.492 14.332 7.261 25.648-5.682 39.338-7.176 12.655-.932 25.168 3.449 37.303 6.397 14.171 3.441 28.459 5.243 43.016 3.629 18.613-2.066 55.749-10.476 66.74-17.401 13.466 9.038 27.322-1.682 34.724-14.025 5.177 4.984 14.972 5.748 19.132-1.938 4.138-8.571 11.872-21.671 20.766-19.73.794.243 1.259.395 1.744.747 8.313 7.067 19.045 1.702 20.261-8.569 7.88-66.547-8.194-133.305-29.567-195.931-4.666-13.096-8.537-26.709-17.513-37.673Z"/><path id="🖍 Ink" fill="#000" d="M395.984 203.542c-.336-.922 1.076-1.452 1.542-.65 15.275 26.258 27.485 54.15 37.928 82.642 9.243 25.22 17.44 50.927 23.281 77.161l.397 1.806c5.494 25.316 8.202 52.097.997 77.354l-.348 1.201c-1.659 5.618-3.851 11.324-8.976 14.66-4.304 2.803-9.174 3.153-14.13 2.374-4.176-.657-8.154-2.477-12.339-2.981-3.155-.379-3.979 1.135-4.898 3.685l-.764 2.158c-3.28 9.147-7.284 17.66-17.982 19.587-5.761 1.039-12.02-.039-17.011-3.067-.058.194-.116.387-.164.573l-.236.901c-1.044 3.911-2.388 7.887-5.154 10.927-3.864 4.242-9.406 5.746-14.991 4.62-2.538-.511-4.922-1.664-7.331-2.625-.589 3.548-4.664 6.439-8.392 5.565-2.017-.472-3.572-1.39-4.73-2.572-5.759 4.443-13.527 6.716-20.255 8.438-9.743 2.493-20.111 3.517-30.158 3.217-10.198-.305-20.573-2.268-30.165-5.723l-1.499-.546c-8.275-3.053-16.986-6.916-23.69-12.624-1.332-.655-.553-3.074 1.035-2.561 9.106 2.944 17.6 6.403 27.157 7.819 9.018 1.336 18.075 1.557 27.162 1.007 9.214-.557 18.154-2.437 26.947-5.217 7.652-2.419 15.189-6.787 23.315-7.358.424-.587.884-1.154 1.415-1.671 7.029-6.827 14.15-3.412 22.06-.926.26.083.333.221.334.356l.097-.137.062-.084-.047.057c-.329.372.33-1.008.447-1.29l.012-.03c.909-2.481 1.261-5.147 2.03-7.67 1.834-6.026 5.263-11.539 11.831-12.981 3.242-.713 7.66.373 9.161 3.728 1.236 2.759 3.26 4.157 6.375 4.084 3.253-.075 4.45-1.972 5.583-4.83 1.843-4.65 2.838-9.488 5.866-13.59 3.405-4.614 8.494-7.308 14.244-7.529 4.431-.169 8.771 1.123 12.985 2.319l.388.117c1.924.603 5.362 1.963 6.865.961 2.253-1.503 3.417-10.27 4.069-13.548l.042-.206c1.161-5.587 1.835-11.217 2.109-16.916 1.143-23.836-3.771-47.549-9.206-70.62-11.21-47.578-26.554-93.476-43.27-139.365ZM76.575 261.715c.303-.454.965-.061.728.426-1.099 2.261-1.5 4.636-2.242 6.991-.82 2.607-2.216 5.135-3.25 7.665-1.677 4.097-3.3 8.218-4.937 12.331-3.29 8.27-6.35 16.665-9.25 25.081-5.824 16.907-10.583 34.288-14.064 51.828-3.42 17.233-6.285 35.252-6.176 52.867.05 8.011.924 16.26 4.103 23.699a36.33 36.33 0 0 0 1.704 3.422l.376.663c.053.094.109.187.165.279l.344.55c1.004-1.472 3.897-3.421 5.091-4.453l.166-.148 5.602-5.182c2.44-2.258 5.958-2.801 8.907-1.15 8.964 5.016 8.674 14.332 10.592 23.125l.085.382c.835 3.695 2.28 6.766 6.705 6.041 4.618-.757 7.286-5.451 8.794-9.488l.194-.534c2.665-7.515 12.248-7.215 15.007 0l1.034 2.732c2.14 5.601 5.055 12.358 10.577 14.575 4.643 1.864 9.963-.924 14.186-2.654 2.322-.951 5.032 1.033 5.651 3.209.168.592.281 1.158.369 1.715 4.415-.428 8.641.626 12.983 2.631 5.684 2.622 12.83 8.283 13.898 14.844 1.265 7.757-7.719 11.419-12.355 5.209-2.919-3.911-3.976-8.66-7.466-12.377-2.05-2.182-4.599-4.077-7.274-5.688-2.391 8.451-15.811 10.887-23.81 8.385-7.68-2.4-12.771-8.06-16.573-14.68-7.108 6.949-16.97 10.312-26.855 4.25-5.723-3.51-8.39-9.649-9.425-16.026-.31-1.917-.329-5.068-.879-7.836l-.533.543c-4.828 4.882-10.44 9.473-16.767 8.418-8.293-1.382-12.23-10.612-14.816-17.642-5.378-14.611-4.387-30.859-2.565-46.029 1.996-16.609 5.336-33.061 9.756-49.192 4.311-15.735 9.892-31.005 16.458-45.936 3.347-7.609 7.207-15.031 11.356-22.235 2.084-3.616 4.353-7.133 6.633-10.628 2.353-3.608 5.412-6.45 7.773-9.983ZM26.893 158.898c12.178-11.301 28.46-16.453 44.88-14.129a52.615 52.615 0 0 1 21.673 8.22c6.637 4.385 10.937 9.813 14.909 16.602.277.473-.352.922-.736.567-10.588-9.756-26.621-14.963-40.87-14.413-25.393.979-46.445 23.445-44.867 49.05.777 12.61 7.865 25.346 18.825 31.835 11.615 6.877 24.836 4.594 37.283 1.566 4.495-1.093 6.759 3.958 4.196 7.208-12.624 16.016-38.582 11.828-53.156.812-28.162-21.285-27.2-64.061-2.137-87.318Zm40.891 25.219 1.08-.186c9.086-1.5 28.428-3.23 31.273 7.856 1.45 5.646-4.158 8.686-9.066 8.436-4.047-.206-7.969-1.473-11.964-2.333-1.147 3.965-1.537 8.106-2.096 12.188-.488 3.574-6.237 2.604-6.169-.834.096-4.781 2.317-8.846 5.813-11.813a28.94 28.94 0 0 0-2.464-.288c-9.932-.667-19.745 1.177-29.023 4.583l.981.551c.468.162.268.787-.2.723l-4.615.232c-1.93.452-3.07-1.754-1.854-3.186 7.15-8.421 17.465-13.996 28.304-15.929Zm331.262-59.349c13.872-1.662 27.652 3.45 35.098 15.654 6.909 11.321 7.508 25.654 2.608 37.82-2.785 6.912-6.991 13.111-12.197 18.441-2.574 2.635-5.524 5.354-8.786 7.097-3.799 2.03-6.627 1.853-10.635 1.108-2.581-.48-4.362-3.793-3.537-6.228l.614-1.846c.671-1.983 1.298-3.452 3.134-5.322 1.602-1.631 3.519-2.952 5.28-4.406 3.787-3.129 7.306-6.621 9.938-10.794 4.811-7.631 6.479-16.402 3.763-25.105-2.915-9.346-10.633-15.399-20.304-16.527-5.492-.639-11.063-.061-16.48.897l-3.301.597c-4.607.853-8.365 1.843-11.542 6.068-.268.355-.787.323-.942-.123-1.593-4.589 3.272-8.684 6.717-10.854 5.985-3.765 13.619-5.644 20.572-6.477Zm-60.456-5.587c-.679-.865-.096-2.619 1.23-2.115 15.452 5.867 28.466 20.152 37.374 33.648 2.696 4.083 5.113 8.323 7.296 12.682 3.115-3.786 7.77-6.525 12.123-8.387l.483-.203c5.022-2.086 15.883-5.656 18.959 1.028.989 2.151.593 4.358-1.141 6.025-2.681 2.576-6.963 1.6-10.308 1.57-6.76-.058-12.128 2.078-18.11 4.152a142.488 142.488 0 0 1 3.078 7.213c1.307 3.313 2.271 6.804 3.856 9.999 1.505 3.037 3.869 5.75 5.887 8.443 2.725 3.634-.918 9.776-5.359 9.34-9.192-.904-12.855-8.5-15.386-16.551l-1.38-4.404c-2.068-6.577-4.197-13.023-7.302-19.28-3.994-8.044-8.759-15.902-14.24-23.023-5.375-6.982-11.644-13.215-17.06-20.137Zm-23.926-94.803c5.71-2.128 10.511 5.201 7.668 9.974-2.499 4.192-3.985 8.521-4.567 13.063l25.174-5.998c5.005-1.192 9.74 3.231 8.357 8.358l-3.885 14.405c5.02-1.679 10.271-2.674 15.668-3.025 4.625-.3 7.179 4.474 6.419 8.426-1.587 8.234-3.793 16.317-6.732 24.168l-2.148 5.651c-2.526 6.58-5.473 13.22-11.563 16.927-2.942 1.791-6.757-.525-6.771-3.884-.035-8.133 4.985-15.082 7.775-22.58a142.854 142.854 0 0 0 4.351-13.874c-4.726 1.337-9.172 3.456-13.371 6.25l-.628.424c-4.965 3.404-11.201-2.127-9.966-7.435l.047-.19 4.744-17.788-22.565 5.445c-4.651 1.123-8.222-2.127-8.663-6.599a45.465 45.465 0 0 1 .822-14.067c-14.914 4.697-30.134 8.35-45.401 11.764l-2.29.51c-33.505 7.44-67.74 14.01-98.479 29.933-13.575 7.031-26.022 15.355-37.343 25.65-5.594 5.087-10.711 10.685-15.191 16.778a104.772 104.772 0 0 0-5.867 8.874l-1.442 2.488c-.693 1.201-1.366 2.438-1.779 3.731l-.204.648c-.333 1.094-.694 2.532-.39 3.491.437 1.382 2.94 3.654 4.707 3.032.241-.085.363.229.227.392-1.558 1.876-3.752 2.214-5.984 1.271-3.53-1.493-4.41-4.901-4.02-8.457.967-8.801 7.091-18.506 11.933-25.69 19.939-29.587 52.749-47.29 85.845-58.383 41.15-13.792 84.769-18.5 125.512-33.683Z"/></g></svg>