<svg xmlns="http://www.w3.org/2000/svg" width="474" height="567" fill="none" viewBox="0 0 474 567"><g id="head/Bun" fill-rule="evenodd" clip-rule="evenodd"><path id="✋ Skin" fill="#D08B5B" d="M120.432 26.52c63.015-3.44 118.844-21.145 163.2 18.48 0 0 71.757-53.587 83.73-33.178 8.023 13.676-3.103 32.034-.12 48.91 19.452 33.16 18.353 89.289 19.452 102.442 2.772 33.153 20.233 157.91 20.233 187.536 0 15.121-12.468 54.726-20.233 76.766-17.282 49.057-50.271 74.058-104.372 74.058s-142.405-45.218-170.725-85.365c-2.482-3.518-18.532 6.747-35.32-11.059-18.187-19.29-28.276-56.082-28.276-78.014 0-27.83-17.986-47.13-15.894-82.755 4.672-79.558 20.897-214.14 88.325-217.821Z"/><path id="bandana" fill="#9FD8E5" d="M367.425 11.63c8.022 13.675-3.103 32.034-.12 48.91 7.506 12.796 11.952 29.012 14.645 44.86l-14.708 7.806-5.443.798c-88.249 13.011-144.572 24.72-168.97 35.128-24.648 10.514-54.56 47.441-89.736 110.782l-1.068 1.927-6.97 47.272-31.956 9.801-15.041 7.129c-.364-27.371-17.96-46.638-15.889-81.894 4.673-79.559 20.898-214.14 88.326-217.822 63.014-3.44 118.844-21.145 163.2 18.48 47.838-35.725 75.748-46.784 83.73-33.178Z"/><path id="🖍 Ink" fill="#000" d="M113.392-65.978c.82-.05 1.65-.01 2.48.071.91.04 1.82.129 2.73.31 4.63.889 8.76 3.339 11.96 6.789.09.09.16.191.24.28 1.5 1.13 2.89 2.411 4.14 3.77.22-.21.43-.419.66-.629.66-.581 1.35-1.131 2.07-1.65a27.196 27.196 0 0 1 10.35-5.53l.52-.141c.1-.03.2-.05.3-.07 2.7-.899 5.54-1.359 8.4-1.35 3.42-.11 6.85.451 10.05 1.77 3.79 1.571 7.09 4.05 9.86 7.031 1.82 1.48 3.41 3.109 5.09 4.9 3.47 3.709 6.21 8.049 7.94 12.83.24.67.45 1.359.64 2.049 4.23-.489 8.48-.839 12.73-1.01 4.77-.289 9.54-.39 14.32-.229 13.17.429 26.05 2.75 38.52 7 2.5.739 4.93 1.679 7.27 2.839 3.67 1.46 7.14 3.32 10.41 5.57l2.786 1.652c1.399.832 2.798 1.674 4.154 2.538 3.23 2.071 6.29 4.39 9.19 6.89 3.06 2.471 5.95 5.161 8.7 7.98a92.27 92.27 0 0 1 2.179 2.314c6.339 3.421 11.97 7.801 17.222 13.025a128.428 128.428 0 0 1 12.929-6.499c4.59-1.99 10.42-4.04 15.23-5.389 4.32-1.21 8.59-2.04 12.92-2.651 1.97-.34 3.95-.61 5.94-.84l-.08.031c1.4-.151 2.79-.281 4.2-.401l-.04-.01c.6-.049 1.21-.1 1.81-.14l1.46-.119c.44-.04 1.08.989 1.12 1.349l.05.37c.33.371.63.781.84 1.031.26-.021.52-.04.78-.051.78-.069 1.68 1.32 2.14 1.85l.416.489c.474.57.947 1.226 1.024 1.941.51 4.151.99 8.31 1.43 12.47.17 3.15 0 6.27-.52 9.36-.39 3-.79 6-1.19 8.99-.64 2.101-1.27 4.201-1.9 6.3-.25.801-.53 1.59-.8 2.38-1.599 5.276-3.474 10.412-5.707 15.389a70.233 70.233 0 0 1 4.561 5.599c.338.347.678.692.996 1.052a.991.991 0 0 1 .36-.34c.48-.21.83.04 1.13.451 3.15 3.009 5.44 6.52 6.86 10.529l.885 2.09c.146.35.292.7.435 1.05 1.13 3.041 2 6.161 2.72 9.32a56.063 56.063 0 0 1 1.404 7.553c2.16 7.253 3.868 14.673 5.479 21.993.254 1.152.134 2.18-.235 3.056l.942.918 1.61 1.603c2.704 2.696 5.462 5.53 7.47 8.737 2.08 3.33 3.61 6.89 5.31 10.421l.366.75.749 1.504c.809 1.642 1.198 2.55 1.915 4.535 1.19 3.311 1.83 6.64 2.13 10.151.44 5.109.38 10.679-1.86 15.429a.303.303 0 0 1-.05.1c-1.02 4.591-3.54 8.85-7.37 11.57-.82.771-1.7 1.461-2.64 2.01-2.256 1.325-4.328 1.443-6.79.83l-.31-.08c-.31-.08-.59-.15-.86-.21.4.33.6.721 0 1-.58.28-1.1.44-1.59.5.21.27.23.56-.21.8-.96.51-1.74.671-2.54.53l.168 1.39c1.312 10.52 2.486 12.601 3.512 23.901a494.87 494.87 0 0 0 3.25 34.6l.514 4.175c1.645 13.234 3.494 26.564 6.326 39.584 1.43 5.69 2.66 11.42 3.7 17.19a69.25 69.25 0 0 1 3.07 13.46c.83 4.66 1.4 9.36 1.73 14.1 1.15 3.031 1.71 6.11 1.68 9.25.15 4.22.01 8.431-.44 12.621a81.157 81.157 0 0 1-1.8 12.959 73.478 73.478 0 0 1-4.62 17.041c-1.78 6.139-3.96 12.16-6.44 18.049-3.85 9.12-8.5 17.59-13.79 25.94-4.96 7.83-10.28 15.37-16.36 22.381-7.86 9.059-16.82 17.359-26.64 24.359-5.6 4.141-11.51 7.86-17.69 11.041-7.56 3.899-15.24 7.409-23.43 9.779-5.11 1.48-10.31 2.5-15.57 3.281-10.33 1.529-21.03 1.299-31.42-.491-6.7-.9-13.29-2.46-19.52-4.69-5.12-1.839-10-3.95-14.88-6.33a57.466 57.466 0 0 1-7.25-4.18 80.064 80.064 0 0 1-10.95-8.55c-1.11-.95-2.19-1.92-3.25-2.94-.51-.45-.23-1.12.36-1.279l.18-.021c-.23-.21-.47-.42-.7-.64a.824.824 0 0 1-.13-.14c-.11-.1-.23-.199-.33-.299-.39-.341 0-1.101.34-1.281.13-.07.3-.079.49-.06-.04-.04-.07-.07-.11-.099-.04-.031-.05-.111-.04-.191l-.15-.119c-.51-.451-.25-1.11.35-1.281.293-.089.776-.043 1.28.066l.19.044-.34-.32c-.6-.52-.41-1.1.33-1.279a9.069 9.069 0 0 1 1.637.24l.403.109c.2.05.39.11.59.171-.34-.311-.68-.61-1.01-.921-.33-.289.02-1.12.32-1.289.41-.23 1.21.089 1.58.359.91.101 2.11.5 2.55.88a84.13 84.13 0 0 0 3.73 3.35c.77.24 1.5.56 2.06 1.04a78.778 78.778 0 0 0 4.47 3.94l1.163.801c.195.132.39.262.587.389 2.2 1.29 4.4 2.57 6.59 3.86 8.03 2.72 16.06 5.441 24.08 8.151l1.06.319 7.79.96c5.12.54 10.25.511 15.37-.08 3.84.051 7.65-.33 11.4-1.11 6.37-1.08 12.62-2.669 18.7-4.89 7-2.55 13.67-5.909 20.18-9.529 2.34-1.311 4.64-2.701 6.9-4.17.73-.52 1.46-1.051 2.19-1.591 4.81-3.61 9.41-7.46 13.84-11.53 2.08-1.91 4.08-3.899 6.01-5.959.28-.301.55-.59.82-.891 1.85-2.02 3.64-4.109 5.35-6.27l1.63-1.839c6.58-8.19 12.43-17 17.69-26.071 5.22-8.99 9.52-18.45 12.94-28.24 1.1-3.49 2.06-7.029 2.86-10.609a58.336 58.336 0 0 0 2.9-13.21c.15-.881.27-1.761.39-2.641l.069-1.387c.01-.232.018-.463.021-.693.2-1.399.37-2.8.5-4.2.08-1.409.13-2.82.14-4.23l-.11-8.65c-.03-.27-.06-.549-.08-.83l-.22-1.909c-.48-3.941-.85-7.891-1.33-11.83 0-.021 0-.051-.01-.081a173.7 173.7 0 0 0-.59-4.43c-.11-.88-.25-1.76-.38-2.64l-.25-1.539a98.991 98.991 0 0 0-1.71-7.965l-.3-1.126-1.74-8.75-1.96-8.61c-1.27-5.77-2.33-11.58-3.17-17.44a681.56 681.56 0 0 1-3.95-28.08c-.06-.45-.12-.91-.17-1.36a377.383 377.383 0 0 1-2.52-26.22 363.12 363.12 0 0 1-1.26-25.969c-.01-.391.25-.71.56-.891l-.028-1.667c-.037-1.474-.063.295-.076-1.387l-.019-4.623c.001-.386.005-.654.013-.673-5.343.37-8.936.067-14.095-.205l-.875-.045a118.72 118.72 0 0 1-14.1-1.52c-.02.241-.18.41-.45.46-.48.02-.93.02-1.39.031l.17.649c.01.331-.14.54-.46.63l-1.334.06c-1.781.075-3.568.11-5.336-.13-1.59-.209-3.14-.58-4.68-1.02-.95-.16-1.92-.379-2.91-.66-2.54-.73-5.06-1.71-7.61-2.489-2.6-.551-5.24-.73-8-.071-2.92.69-5.39 1.94-8.45 1.18-.61-.149-1.2-.379-1.79-.62l-.546-.038a4.938 4.938 0 0 1-.284-.032c-3.19-.459-6.03-2.479-9.07-3.56a4.946 4.946 0 0 0-3.143.236l-.257.115-1.01.75c-.407.479-.809.964-1.207 1.449l-.593.73c-1.09 1.35-2.25 2.56-3.66 3.44-1.7 1.57-3.72 2.49-6.13 2.55-1.37.04-2.73-.25-4.05-.669-4.98 1.54-10.31 1.85-15.28.35-1.97-.301-3.9-.83-5.75-1.661-.87-.39-1.74-.85-2.58-1.36-3.51 1.481-6.83 3.45-10.22 5.151l-.763.383c-3.464 1.726-7.297 3.408-11.217 3.157-4.94-.321-9.79-.98-14.63-1.811-.04 0-.09-.01-.13-.02l-.666-.111-2.421-.425-1.953-.363-.998.382c-8.015 3.033-16.797 5.399-24.852 3.277-3.51-.429-6.8-1.61-9.77-3.62-.1-.07-.2-.14-.3-.22-.47-.24-.91-.509-1.3-.799l-.084-.065-.076-.066-.04-.02c-4.39-2.019-6.91-6.32-6.47-11.139-.27-1.531-.26-3.031.04-4.63-1.43 1.689-2.89 3.36-4.37 5.019-5.413 6.519-10.715 13.167-15.624 20.089l-1.126 1.602c-2.7 3.809-5.21 7.75-7.53 11.809-2.35 4.01-4.76 7.981-7.25 11.901a247.295 247.295 0 0 0-9.384 10.995l-1.286 1.614-4.34 5.71a53.425 53.425 0 0 0-7.63 11.94 116.485 116.485 0 0 0-4.54 9.411c-.44.969-.86 1.949-1.27 2.929a97.307 97.307 0 0 0-3.53 11.76 62.254 62.254 0 0 0-1.602 8.87l-.098 1.001a60.074 60.074 0 0 0-.26 3.539c.29.171.53.34.71.51l.73.261.59.175c.921.286 2.509.876 2.13 1.604l-1.93 3.681c.2.21.29.429.16.67-1.29 2.469-2.59 4.939-3.89 7.41a.537.537 0 0 1-.18.21c1.11.509 2.19 1.069 3.22 1.679 2.01 1.201 3.49 2.59 4.86 4.21a30.8 30.8 0 0 1 4.08 2.88 30.456 30.456 0 0 1 4.13 5.45c1.08 1.86 1.96 3.8 2.64 5.83.3 1.07.44 2.18.43 3.31-1.21 8.541-10.98 2.69-11.17 1.94-1.34-5.16-2.88-8.419-6.34-12.259l-.09-.061c-2-.88-3.98-1.75-6.05-2.43-.31.06-.63.101-.95.15.36.511.18 1.011-.55 1.1-3.15.621-6.33.79-9.53.52l-4.86-.689a30.735 30.735 0 0 0-5.759 2.948l-.6.401-.11.08c-4.69 3.77-8.31 8.78-10.79 14.24-.22.487-.432.978-.634 1.473l-.297.747-.02.04c-3.24 12.731-.35 26.71 5.57 38.26 3.23 5.17 6.6 10.24 10.12 15.21l3.42 4.471c2.02 1.9 4 3.849 5.93 5.849.3.301.62.6.94.89 1.02.67 2.06 1.261 3.12 1.761.41.139.83.269 1.25.38 2.04.979 4.18 1.5 6.43 1.56a23.252 23.252 0 0 0 8.644-1.037l.556-.184.41-.15c1.52-.97 2.93-2.18 4.27-3.6.3-.31.86-.31 1.5-.14.35-.36.7-.74 1.03-1.15.23-.25.59-.259.87-.07.95-.109 3.52 1.351 2.85 2.12-.11.18-.25.34-.37.51.45.23.9.49 1.3.761 2.1.582 5.202 2.678 4.95 3.309l-.03.05a7.137 7.137 0 0 1-1.895 2.302l-.265.198-.59.41c.83.521 1.53 1.12 1.18 1.54-.16.31-.33.611-.53.881 1.7 2.1 3.39 4.219 5.07 6.339a50.877 50.877 0 0 0 6.24 10.19 43.664 43.664 0 0 0 7.47 9.23c.24.241.49.471.73.701a91.599 91.599 0 0 0 6.723 4.493l1.007.607c.53.319 1.42.719 1 1.489-.05.1-.11.181-.18.24 1.47.961 2.99 1.87 4.56 2.711l.149.092c.593.378 1.398 1.066.551 1.627-.72.48-2.63-.82-3.53-1.42-.17 0-.37-.049-.57-.109.3.159.596.332.896.502l.454.248c.35.209 2.07 1.349.87 1.83a2.457 2.457 0 0 1-1.63-.441c-.59-.29-1.17-.599-1.74-.92.2.31.2.62-.3.821-.17.009-.34 0-.51-.02 1.18.75 2.39 1.449 3.64 2.109l.202.127c.528.342 1.371.993.758 1.554-.69.619-2.59-.701-3.08-1l-1.46-.871c-.11.05-.23.07-.36.081.44.27.85.56 1.3.819l.612.333c.767.424 1.851 1.121 1.458 1.817-.392.689-1.559.122-2.312-.325l-.81-.502c-.036-.021-.071-.043-.108-.063l-.031.12a.275.275 0 0 1-.029.06c-.375.653-1.318.225-1.969-.151l-.521-.318a457.831 457.831 0 0 1-2.636-1.596l-1.304-.804h-.02c-4.51-2.711-8.68-5.41-12.61-8.89a76.856 76.856 0 0 1-6.62-6.631c-4.18-4.71-7.29-10.099-10.29-15.599-.05-.091.02-.321.14-.571-.33-.679-.65-1.37-.97-2.08-3.08.861-6.52 1.111-9.69.901a25.85 25.85 0 0 1-5.05-.861c-5.33-.74-10.47-3.17-14.91-6.08-.28-.18-.53-.38-.79-.559a35.156 35.156 0 0 1-5.22-3.601 86.91 86.91 0 0 1-9.08-8.71c-2.02-2.399-3.93-4.89-5.72-7.47-1.82-2.55-3.66-5.099-5.5-7.65-5.11-8-8.38-17.21-9.65-26.62-.62-3.469-.94-6.98-.87-10.48.05-2.53.33-5.09.82-7.639-.29-.281-.58-.56-.87-.85-.16.279-.32.48-.42.379l-2.292-2.295c-1.626-1.639-2.716-2.845-4.588-5.495-2.98-4.23-5.2-8.88-6.85-13.779-1.19-3.5-1.98-7.481-2.29-11.33-.1-.641-.2-1.291-.28-1.951-.64-5.21-.05-10.2.74-15.34.05-.339.22-.549.45-.66.058-.407.127-.825.195-1.242-6.624-7.012-11.39-15.463-11.002-25.669.122-3.216.782-6.386 2.042-9.346l.153-.334c-5.529-.85-9.915-4.734-13.21-9.548a29.74 29.74 0 0 1-.847-.696C.691 239.775-3.394 232.65-6.19 225.124a46.044 46.044 0 0 1-3.893-13.884c-.04-.346-.064-.689-.095-1.033a89.035 89.035 0 0 1-1.084-23.016c-1.373-4.717-2.49-9.517-3.255-14.429-.36-2.339-.61-4.68-.8-7.02l-.02-.129-.03-.421-.084-1.05a27.505 27.505 0 0 1-.036-.52c-1.69-21.42 3.1-42.5 11.02-62.34.69-1.784 1.403-3.564 2.138-5.33l.78-1.844c7.95-12.82 19.887-23.189 29.998-34.14 3.49-3.778-2.154-9.45-5.656-5.657C16.074 61.587 8.867 68.556 2.36 76.035c-1.149.084-2.3.115-3.448.058-2-.101-3.94-.42-5.82-.931-4.69-.69-8.96-2.58-12.84-5.36-5.19-2.419-9.62-6.98-10.06-12.93-.05-.6-.04-1.19 0-1.779-.48-2.911-.05-5.96 1.17-8.771.21-.77.48-1.53.82-2.28.99-2.23 2.62-4.369 4.61-5.82.05-.03.09-.049.13-.08.21-.219.41-.44.64-.639.34-.311.7-.6 1.08-.87-1.35-2.221-2.57-4.5-3.61-6.931-1.13-2.64-1.71-5.319-2.03-8.15-.13-1.12-.18-2.23-.2-3.339-.06-.511-.1-1.031-.14-1.551-.25-3.96.21-8.069 1.69-11.77.11-.279.25-.56.38-.85.28-.84.59-1.679.97-2.5 1.48-3.15 3.58-5.82 6.17-8.01 1.4-1.41 2.97-2.66 4.68-3.72a19.54 19.54 0 0 1 3.37-1.65c2.16-1.14 4.93-2.18 7.18-2.259.27-.011.51.02.77.02.21-5.741.95-11.991 3.22-17.191 1.32-3.769 3.3-7.119 6.28-9.53a16.75 16.75 0 0 1 6.516-4.226l.474-.164.18-.05c2.39-1.16 4.97-1.62 7.62-1.609 3.09-.161 6.24.42 8.93 1.839.56.3 1.16.67 1.73 1.07.43-.86.91-1.73 1.46-2.599 1.93-3.091 4.26-5.781 6.96-8.231.32-.29.67-.55 1.01-.829 1.31-1.19 2.7-2.29 4.14-3.29a34.612 34.612 0 0 1 10.1-4.811 33.75 33.75 0 0 1 12.857-2.087l.903.038c.2.019.4.029.59.039 4.33.281 8.6 1.341 12.68 2.94 4.23 1.671 7.81 4.2 11.14 7.1a18.32 18.32 0 0 1 2.76-3.06c.31-.269.64-.51.95-.76.24-.24.49-.47.75-.7 1.19-1.05 2.45-1.96 3.83-2.77a17.241 17.241 0 0 1 4.95-1.929c1.76-.601 3.61-.971 5.49-1.091Zm-20.55 412.25c.177-.01 9.439 3.463 14.053 5.709l.227.111c5.32 2.64 7.88 4.54 12.66 7.93.32.23.65.58.65.92 0 4.938-1.199 10.975-5.35 8.3-.6-.386-1.204-.764-1.813-1.136l-.917-.554-.03.01c.01 0 .02-.01.03-.02-9.04-5.51-18.59-9.83-28.67-12.92-.69-.25 4.42-7.97 5.83-7.54-.81-.32 3.195-.802 3.33-.81Zm94.983-218.085c-6.011.643-12.022 1.276-18.033 1.895-3.83.44-7.67.83-11.51 1.16-5.77.431-11.54.5-17.29-.29-2.04-.279-4.04-.68-6.02-1.17a66.73 66.73 0 0 1-4.18 2.811l-15.88 12.149c-10.65 8.371-21.07 17.24-30.45 27.03-16.382 17.104-29.725 37.114-38.114 59.279-.76.449-1.349 1.232-1.545 2.433-1.482 9.085-5.816 17.371-7.382 26.419-1.542 8.912.51 16.488 6.107 23.552 1.195 1.509 3.643 1.429 5.145.41.35.686 1.861.657 2.392-2.373 2.49-2.695 4.618-5.52 6.06-9.018 1.062-2.576-.723-4.362-2.889-4.713.9-3.24 1.915-6.451 3.056-9.628 3.38-9.441 7.68-18.46 13.09-26.92 4.76-7.441 10.27-13.921 16.19-20.421.07-.09.19-.119.32-.139l1.23-1.361c.17-.19.52-.17.91-.07.37-.39.73-.79 1.11-1.18.37-.4.78-.28 1.01.04.63-.14 1.78.54 2.13.761.6.399.79.849.28 1.419a6.4 6.4 0 0 1-.27.29c.69.291 1.37.68 1.9 1.061 1.85.409 4.45 2.129 4 2.64-.95.989-1.87 2-2.78 3.029.8.561 1.32 1.11 1.11 1.351-3.9 4.109-7.5 8.46-10.8 13.069a96.394 96.394 0 0 0-6.81 10.75c-3.02 5.28-5.58 10.71-7.85 16.29-.32.851-.63 1.7-.93 2.55-3.32 9.29-5.8 18.93-6.85 28.75l-.044.662c-.195 3.538-.272 13.009-.636 15.268 2.21 1.09 4.51 2.02 6.9 2.781.45.13.91.25 1.37.36.26-.11.53-.201.8-.281 2.2-.89 4.5-1.53 6.85-1.84a29.63 29.63 0 0 1 4.735-.237l.675.027c.7.02 1.39.07 2.09.141-.04-.401-.06-.79-.09-1.191-.2-.13-.35-.309-.36-.55-.47-4.5-.48-9-.03-13.5.3-2.35.65-4.69 1.03-7.029.39-1.921.84-3.81 1.33-5.701 1.3-5.299 3.03-10.47 5.13-15.529 5.98-14.431 14.55-27.441 23.17-40.381 6.29-9.449 12.24-19.11 18.75-28.4 5.54-7.91 11.36-15.7 17.57-23.1 6.2-7.389 12.75-14.5 19.82-21.079 1.14-1.051 2.29-2.071 3.46-3.08 6.7-6 13.98-10.931 21.56-15.77.29-.19.81.02 1.24.379l1.223-.752c.205-.125.41-.248.617-.368.19-.119.4.08.51.25.52-.27 1.04-.529 1.56-.79.379-.306.77-.596 1.152-.898a363.517 363.517 0 0 1-16.839-1.247Zm70.497-66.665a39.57 39.57 0 0 0-13.68-.36 86.447 86.447 0 0 0-5.723 1.028c4.301 3.75 7.76 8.549 10.005 14.072 2.426 5.97-7.251 8.543-9.643 2.659-2.307-5.676-6.674-10.03-11.949-12.64a33.33 33.33 0 0 0-3.3 2.091 36.357 36.357 0 0 0-3.9 3.66c-2.66 2.891-5.1 6.75-6.7 10.57-.62 2.08-1.08 4.22-1.37 6.42-.06.5-.12 1.01-.17 1.52-.986 10.349 1.973 20.418 7.064 29.328l.2.003a94.538 94.538 0 0 1 14.196-6.231c3.92-2.639 7.99-5.08 12.18-7.29a127.958 127.958 0 0 1 28.01-10.8l1.12-.28a121.698 121.698 0 0 1 6.901-1.547l1.389-.262h.02l-.15-1.491c-.78-5.85-3.07-11.28-6.03-16.299-2.22-3.79-5.57-7.67-9.29-10.77l-.02-.011a33.852 33.852 0 0 0-5.292-2.41l-.688-.24-3.18-.72Zm-121.9-8.889c-9.44-.891-18.88-.801-28.32-.031-6.17.611-12.3 1.46-18.4 2.54-4.13.71-8.18 1.71-12.16 2.951l2.277 4.604c3.804 7.667 7.701 15.283 12.293 22.525 2.37 3.73 4.94 7.281 7.74 10.69a53.418 53.418 0 0 0 6.25 6.78c.6.731 1.24 1.421 1.89 2.09 2.08 1.78 4.32 3.34 6.77 4.63a46.29 46.29 0 0 0 6.154 3.777l.806.404 7.5 2.879c.4.113.805.227 1.211.334l.609.157 1.14.239.856-.464c.143-.077.287-.153.434-.226.24-.129.41.121.46.3.02.071-.01.17-.06.27l1.093-.591a31.267 31.267 0 0 0 6.012 1.775c.968.181 1.938.32 2.909.439l.13.087a.733.733 0 0 1 .066.051h1.062c7.476.721 15.058-.232 22.522-1.573 10.562-1.062 21.122-2.233 31.676-3.328.2-.019.28.07.28.211l.65-.06c.94-.101 2.04 1.469 1.33 2.04.57.339 1.12.83 1.53 1.21l.24-.021a43.493 43.493 0 0 1-3.37-8.899l-1.02-5.181c-.28-1.93-.44-3.989-.47-6.02-.07-.93-.12-1.799-.12-2.56 0-.72.01-1.44.04-2.159a62.503 62.503 0 0 0-6.07-2.151c-5.85-.719-11.69-1.44-17.54-2.15-3.51.13-7.02.38-10.52.77-3.97.35-7.93.8-11.88 1.34-.37.04-1.03-.46-1.43-1.04l-1.69.231c-.88.11-1.8-1.651-.64-2.011.42-.167.84-.324 1.26-.476l.63-.224-.36.04c-.12.011-.27-.02-.44-.079-.93.119-1.86.239-2.78.349-1.167.146-.901-1.393-.083-1.755l.393-.145c-.691-.431-1.299-1.61-.444-1.996l.114-.044c.4-.159.79-.29 1.19-.44a.622.622 0 0 1 .01-.359l-1.65.209c-.15.02.567-1.033.91-1.241l.06-.029.79-.24c.12-.34.76-1.09.98-1.159 2.9-.911 5.6-1.73 8.42-2.361.14-.17.3-.3.48-.34 1.76-.42 3.54-.75 5.32-1.029.12-.181.24-.31.38-.321 4.41-.56 8.83-.69 13.27-.389.85.079 1.7.17 2.55.279 1.63.181 3.26.411 4.88.721a66.696 66.696 0 0 1 11.881 3.183l.889.336c.97.361 1.93.74 2.88 1.151.48-1.71 1.08-3.391 1.79-5.04.11-.321.23-.63.36-.94l-.97-.581c-.21.4-.64.71-.92.541-6.95-4.69-14.3-8.601-22.05-11.721a112.76 112.76 0 0 0-13.33-4.91 164.8 164.8 0 0 0-6.86-2.019 94.56 94.56 0 0 0-3.47-.681 99.878 99.878 0 0 0-18.32-3.149Zm229.013 15.873a93.385 93.385 0 0 1-2.653 4.326c-4.521 6.919-9.941 13.412-16.087 19.073a49.956 49.956 0 0 1 4.781.205c2.723.257 5.39.709 7.99 1.342.211-.169.447-.254.636-.12l.678.469a52.579 52.579 0 0 1 15.556 7.041l-.085-.626a6.774 6.774 0 0 0-.049-.313c.08-1.23.1-2.461.06-3.681-.98-7.21-3.43-13.85-6.23-20.569-.053-.13-.015-.299.066-.471a65.802 65.802 0 0 0-4.663-6.676Zm1.287-56.684c-2.09.38-4.16.87-6.22 1.48a50.23 50.23 0 0 0-11.24 3.05c-4.99 1.77-9.83 3.83-14.65 6.011-9.36 4.239-18.14 9.6-26.13 16.06-.51.389-1 .79-1.49 1.19a79.214 79.214 0 0 0-5.18 4.879c-1.73 1.88-3.47 3.761-5.2 5.65-2.12 2.221-4.56 4.23-6.48 6.63-.39.49-.73 1.03-1.04 1.571l1.13.389c.95.32.79 2.1-.15 1.84-.32-.09-.62-.2-.92-.319.13.17.22.34.24.489.06.48-.31 1.141-.9.971a6.656 6.656 0 0 1-.81-.281c-.08.31-.14.62-.14.92.05.02.1.04.16.051.66.23 1.9 1.259 2.08 1.96.14.54-.32 1.119-.91.959-.44-.12-.87-.3-1.29-.5.28.271.5.561.52.811.04.46-.36 1.109-.91.96-1.02-.281-1.84-.71-2.52-1.25-.18.239-.44.429-.65.37l-.39-.12c.107.1.205.204.299.307l.141.152c2.76 2.98 5.17 6.28 7.1 9.831.09-.101.2-.191.34-.301.9-.76 1.83-1.5 2.76-2.219l.281-.246.289-.245-2.09.69.046-.054c.148-.19.608-.82.822-1.03l.052-.046c2.87-2.569 6-4.75 9.38-6.529a41.87 41.87 0 0 1 6.9-3.611c5.75-2.67 11.61-4.699 17.63-6.579.9-.29 1.8-.6 2.7-.881.26-.09.31.02.27.2l.47-.14c.84-.27 2.27 1.21 1.7 1.9.344.28.682.592.977.885l.213.215.24-.07c.715-.22 1.92.893 2.686 1.682l.564.598c.43.46 1.27 1.41.24 1.781l-1.29.439c.04.26-.07.48-.47.63-.45.15-.89.31-1.33.471.267.233.529.475.787.72l.383.369c.453.462 1.527 1.48.579 1.93l-.119.05-1.23.44c.16.36.12.701-.42.9a196.74 196.74 0 0 0-21.04 8.551 65.33 65.33 0 0 1-16.26 6.349c-.47.151-1.49-.559-1.91-1.269l-.852.25a13.17 13.17 0 0 1-.428.119l-.14.031a44.057 44.057 0 0 1 2.3 8.929c.05.27.09.551.12.821 1.12-.091 2.23-.171 3.35-.23 7.75-.411 15.59-.161 23.36.759 3.14-1.87 6.16-3.92 9.05-6.139.88-.681 1.75-1.381 2.61-2.091 5.16-4.48 9.83-9.509 13.97-14.94a99.122 99.122 0 0 0 9.96-16.089 102.871 102.871 0 0 0 6.08-16.531c1.42-5.21 1.91-10.28 2.27-15.67.12-.88.2-1.759.27-2.64l-.008-.377-.012-.183c-.1-1.889-.29-3.78-.5-5.66Zm-73.27 66.97c-.23.08-.47.16-.71.23.14.31.27.611.4.92l.015-.006.945-.744c-.2-.09-.43-.229-.65-.4Zm71.87-81.15c1.8-.67 3.16-.8 4.08-.38-1.36.1-2.72.23-4.08.38Z"/></g></svg>