<svg xmlns="http://www.w3.org/2000/svg" width="474" height="567" fill="none" viewBox="0 0 474 567"><g id="head/Bun" fill-rule="evenodd" clip-rule="evenodd"><path id="✋ Skin" fill="#D08B5B" d="M149.486 63.867c151.57-7.453 254.411 112.079 258.835 159.745 3.071 33.087.987 77.215.987 106.781 0 15.092 7.615 60.966-.987 82.962-19.147 48.959-40.778 87.308-100.715 87.308-59.937 0-151.309-31.065-182.684-71.132-5.729-7.316-76.914-60.866-76.914-102.959 0-89.805-6.673-257.386 101.478-262.705Z"/><path id="🖍 Ink" fill="#000" d="M46.086-33.127c8.638-2.7 14.15 1.187 18.084 7.209a5.998 5.998 0 0 1 2.64.066c.23.056.79.268 1.212.433.328.137.622.303.906.48l.17-.09c.648-.706 1.329-1.352 2.064-1.872 1.651-1.168 3.353-1.508 4.968-1.268l.749-.274c6.393-2.229 13.325-1.194 17.66 4.314.84 1.064 1.517 2.248 2.096 3.498 1.3.427 2.52 1.043 3.571 1.8a13.316 13.316 0 0 1 2.353-.854c4.717-1.21 9.673-.068 13.517 2.825 1.872 1.406 3.249 3.168 4.293 5.18 1.189.28 2.364.781 3.465 1.455.946-.47 1.907-.912 2.892-1.216 3.601-1.105 7.464-1.512 11.212-1.233 8.077.598 15.888 9.823 10.49 17.745l-.168.24a29.031 29.031 0 0 0-1.833 2.944 23.473 23.473 0 0 1 5.515 3.377c8.414 6.895 9.171 17.524 7.597 27.552l-.067.418h.02c4.471.424 8.33 5.093 5.689 9.484l-.129.206c-3.575 5.523-6.639 11.623-10.054 17.436-9.451 3.407-18.564 7.603-27.145 12.687-5.345 4.681-10.434 9.631-14.911 15.138a86.251 86.251 0 0 0-6.175 8.68c1.509.725 3.375.688 4.951-.772 14.019-12.992 30.956-22.108 48.99-28.218 1.299-.441 2.151-1.271 2.629-2.253a197.329 197.329 0 0 1 24.381-5.302c2.268-2.162 4.644-4.227 6.902-6.38 2.883-2.745 6.494-2.706 9.192-.98 1.34-.611 2.711-1.15 4.102-1.635l.863-.294c.36-.118.704-.255 1.058-.364 9.656-2.95 18.485-1.855 27.981.57l1.216.317c4.428 1.174 7.213.986 11.501-.095l.482-.123c4.555-1.188 9.427-2.069 14.083-.818 4.872 1.31 8.104 4.222 11.422 7.74l.332.353c1.549 1.657 2.444 1.838 4.471 1.797l2.171-.064c8.194-.225 16.218.12 22.355 6.459 2.269 2.343 4.704 5.66 6.165 8.688l.211.452c.068.146.128.27.184.38.88-.142 2.25-.7 2.902-.826 8.93-1.733 16.382.937 22.116 7.974 1.254 1.54 3.149 4.564 4.462 6.225.46.39.894.809 1.305 1.248 2.154 1.374 5.204 1.288 7.618 1.77 6.579 1.31 13.611 3.812 16.956 10.073 1.399 2.613 1.915 5.472 2.505 8.328 2.212 1.453 3.945 3.547 5.291 5.814 1.636 2.752 2.332 6.123 4.216 8.722 1.368 1.888 3.459 2.895 5.448 4.05l.76.446c5.894 3.51 10.509 7.405 12.45 14.281l.168.612c.315 1.054 1.42 4.06.457 3.609.829.457 2.237.617 2.993.867 4.089 1.353 7.644 3.54 9.822 7.379 1.658 2.921 1.959 5.967 2.433 9.188l.202 1.301c.052.314.114.68.177 1.034l.064.348.012.008c.741.321 1.468.668 2.183 1.041 3.39 1.995 5.706 5.459 5.706 9.468 0 1.946-.608 3.462-1.493 4.815a14.395 14.395 0 0 1 1.689 3.526c.822 2.513.879 5.26.603 7.861-.332 3.119-1.133 5.96-2.076 8.94-.363 1.15-.51 2.757-1.057 3.856 1.009 1.287 1.611 2.859 1.424 4.411-.267 2.22-1.28 4.815-3.291 6.06-.983 4.85-3.099 9.806-5.182 13.771-.239.46-.53.871-.85 1.211.29 15.829-.87 31.771-.95 47.579-.09 17.21.27 34.431.87 51.62 1.01 28.49 4.62 57.951-3.79 85.732-6.88 22.739-20.661 42.259-39.14 57.059-18.92 15.14-41.728 23.901-65.95 25.271-12.32.689-24.85-.711-36.77-3.901l-1.273-.346c-11.533-3.168-24.891-8.008-33.377-16.484-4.48-4.48.05-13.97 6.62-11.361 6.51 2.591 12.351 6.421 18.81 9.121 5.77 2.409 11.791 4.26 17.89 5.62 12.23 2.75 25.2 3.351 37.63 1.64 44.88-6.14 79.85-43.409 86.75-87.601 1.91-12.237 1.875-24.676 1.746-37.042l-.142-13.55c-.11-11.335-.15-22.677.266-34.007.53-14.579 1.56-29.15 2.94-43.669l.719-7.555c.854-8.841 1.815-17.748 3.471-26.466-1.357.071-12.064-18.246-18.006-28.48-2.169-1.72-4-3.857-4.707-6.622a10.315 10.315 0 0 1-.269-1.742 94.144 94.144 0 0 0-4.087-5.918l-.313-.141a7.56 7.56 0 0 1-.539-.264c-3.134-1.776-5.751-4.468-7.542-7.588a20.32 20.32 0 0 1-1.501-3.274 105.32 105.32 0 0 0-8.036-7.142c-.276-.22-.561-.426-.839-.643-3.575-1.334-6.713-3.344-9.001-6.239a134.01 134.01 0 0 0-2.89-1.739c-2.914-.027-5.858-.707-8.722-1.884-5.24-2.151-9.425-6.405-14.689-8.375-5.567-2.083-11.432 2.651-17.347 1.796a15.32 15.32 0 0 1-4.399-1.343c-3.331 3.528-6.866 6.855-10.763 9.765-5.657 4.226-11.441 6.158-17.998 8.067-3.249 3.082-6.887 6.072-11.274 6.511-10.153 8.116-21.012 14.961-32.438 21.318-1.838 1.022-3.665 1.483-5.399 1.494-3.584 2.25-7.496 3.981-11.629 5.179a9.825 9.825 0 0 1-3.943.293l-3.586 2.922c-2.496 2.031-5.158 3.002-7.705 3.065a77.895 77.895 0 0 1-4.809 3.39c-1.771 1.159-4.068 1.64-6.376 1.499-3.525 3.448-8.096 3.811-11.924 2.223-.526.308-1.067.6-1.675.886-.826.391-1.688.722-2.567.989-3.992 4.302-9.835 6.557-15.69 5.967-4.372 2.678-9.461 4.071-14.436 3.758a196.88 196.88 0 0 0-1.918 11.478l-.054 2.812c-.006.455-.007.811-.001 1.045l.003.092c.487 12.329.753 24.665 1.234 36.996l.045.973c.547 10.773 3.198 30.414-12.638 29.987-5.901-.16-11.755-4.505-16.35-8.078l-.648-.504c-.352-.274-.713-.555-1.076-.841-3.434-.447-6.82-1.281-10.288-1.408-4.28-.15-8.78.289-12.95 1.259-7.36 1.71-14.48 5.061-19.28 11.13-.42.53-.81 1.09-1.18 1.65a8.74 8.74 0 0 1-1.69 3.13c-4.54 10.21-1.919 23.702 3.1 33.041 5.98 11.124 15.444 18.815 27.344 22.689l.596.191c8.13 2.54 11.24 7.459 15.66 14.299 4.14 6.421 8.89 12.401 13.99 18.081 9.87 10.99 23.721 20.061 29.46 33.97 1.16 2.801-2.16 5.439-4.73 4.72-10.07-2.829-17.13-10-24.45-17.13-5.066-4.938-9.938-10.074-14.509-15.469-.959.443-2.014.741-3.113.875-4.85.593-9.852.347-14.097-2.268-1.957.178-3.996-.501-5.51-1.888a24.38 24.38 0 0 1-3.6-4.125c-1.537.135-3.047.177-4.489-.063a5.762 5.762 0 0 1-1.985-.548 8.734 8.734 0 0 1-3.23-2.221c-2.023-2.171-2.797-5.236-2.424-8.15a10.24 10.24 0 0 1-1.19-.32c-2.691-.912-4.763-2.72-6.087-5.182a22.696 22.696 0 0 1-6.117-5.046c-1.967-2.329-3.451-4.954-4.323-7.853a18.788 18.788 0 0 1-2.615-1.471c-6.005-4.063-9.443-11.692-7.084-18.745l.08-.221c.12-.318.336-.859.601-1.469-.038-.498-.078-.995-.105-1.492l-.082-1.503-1.203-.51c-6-2.386-10.056-5.607-10.778-12.358-.15-1.396.392-2.821 1.247-4.011l-.004-.374c-.39-.201-.76-.408-1.087-.617-3.272-2.088-5.282-5.832-5.057-9.704.207-3.53 2.162-6.344 4.36-8.946l.629-.729.172-.196-1.453-.458c-.943-.3-1.806-.598-2.427-.946-2.404-1.347-4.442-3.169-5.7-5.483-.183-.286-.369-.569-.537-.875-1.622-2.961-1.835-6.755-.788-9.934a9.95 9.95 0 0 1 .448-1.079c-4.42-1.558-7.823-4.777-8.233-10.711-.16-2.335.35-4.66 1.462-6.651a13.93 13.93 0 0 1-.139-4.105c-1.555-1.469-2.762-3.24-3.303-5.399-1.02-4.079.849-7.959 3.627-11.518-1.028-2.814-1.081-5.99.093-8.823a15.042 15.042 0 0 1-.723-4.444c-.032-3.398 1.015-6.237 2.707-8.652-2.378-2.907-3.506-6.769-2.102-10.387.998-2.572 2.14-4.926 3.456-7.106-.69-1.657-1.093-3.514-1.093-5.593 0-3.741 1.402-6.703 3.547-9.129-.93-4.429.962-9.822 5.088-11.772 1.555-.736 3.637-1.504 5.931-2.103.861-2.69 1.76-5.368 2.71-8.028a252.373 252.373 0 0 1 4.806-12.397c-.98.858-2.01 1.66-3.073 2.386-3.366 4.278-7.827 7.983-11.576 10.2-7.431 4.396-15.931 1.789-19.6-5.566-3.449 2.574-7.587 4.098-12.002 3.577-5.006-.591-9.582-3.833-10.832-8.89a10.34 10.34 0 0 1-.302-2.319c-2.87 2.044-5.874 3.925-9.17 5.002-4.197 1.371-8.48-1.919-9.035-6.019-.218-1.625.085-3.061.732-4.274l-.41-.162a4.175 4.175 0 0 1-.203-.09c-2.2-1.031-3.91-2.921-4.721-5.101-4.766 1.844-10.222-.317-11.734-5.557a36.656 36.656 0 0 1-.5-18.609c-5.05-3.67-8.34-9.841-8.9-16.291-.41-4.63.695-8.904 2.642-12.856-4.776-1.785-6.417-8.046-4.148-12.556-3.015-1.726-4.98-5.385-5.024-8.947-1.347-2.04-1.778-4.666-.661-7.61 1.473-3.88 4.473-7.124 7.908-9.67a31.24 31.24 0 0 1-3.303-8.39c-2.845-.834-5.142-3.135-5.61-6.592-.587-4.334 2.267-8.008 6.107-8.978.425-1.32.946-2.611 1.589-3.852-1.9-4.5-1.62-10.19.83-15.11 2.17-4.35 5.7-7.01 9.95-8.85-1.08-3.7.35-7.39 3.95-10.14 4.395-3.36 9.215-5.93 14.28-7.745-.45-6.022 2.067-12.19 8.018-14.29 1.591-.562 3.248-.769 4.93-.761 1.222-2.657 3.261-4.817 5.922-6.73 4.027-2.892 11.552-1.125 13.786 3.41l.108.234c.114.257.237.492.354.74a11.795 11.795 0 0 1 3.193-5.986c4.228-4.264 8.69-4.343 12.985-2.52.788-1.954 1.742-3.813 2.902-5.512 4.211-6.163 11.169-6.949 16.262-3.61 2.042-1.796 4.322-3.18 6.843-3.968Zm30.107 370.669c8.48-3.32 18.77-2.339 27.149.85l.614.238c7.402 2.927 19.427 9.436 20.876 17.762.75 4.311-3.349 8.04-7.51 5.771-3.62-1.971-5.65-5.941-8.53-8.821-2.849-2.849-6.04-5.139-9.519-7.15-7.26-4.19-14.89-5.82-23.08-7.029-.92-.13-.67-1.361 0-1.621Z"/></g></svg>