<svg xmlns="http://www.w3.org/2000/svg" width="474" height="567" fill="none" viewBox="0 0 474 567"><g id="head/Bun 2" fill-rule="evenodd" clip-rule="evenodd"><path id="✋ Skin" fill="#D08B5B" d="M397.502 243.757c-2.376-30.744 1.306-62.968-10.548-92.19-20.668-48.485-78.624-64.651-123.555-83.11-18-5.319-78.569-6.062-99.645-13.102-47.7-15.932-59.097-34.914-97-4.58-6.397 5.183-10.4 10.815-13.32 18.51l.12.033c-.834 3.208.06 6.409 1.939 8.854-16.434 16.798-23.311 41.982-14.88 64.343 27.518 58.189 26.224 89.652 17.358 152.208-11.578 58.4 14.879 79.733 58.695 111.509-1.784 3.459-2.154 8.056.172 11.108 50.667 71.199 146.2 105.193 228.053 69.055 33.225-14.788 48.058-50.171 56.523-82.098 9.861-35.749 12.891-73.419 4.863-109.835-3.238-16.842-7.456-33.562-8.775-50.705Z"/><path id="bandana" fill="#9FD8E5" d="m34.603 156.543 30.127 20.07L172.57 62.925 136.683 34.68S71.576 82.8 58.775 95.498c-12.801 12.7-24.172 61.045-24.172 61.045Z"/><path id="🖍 Ink" fill="#000" d="M105.244-96.863c6.15-.923 10.795 2.892 13.004 8.27l.116.29c.71 1.83 1.5 3.61 2.35 5.36 15.39-7.55 37.35-5.61 47.09 9.68 6.95 10.92 2.71 23.88.09 35.46l-1.72 7.63c3.325 2.116 5.832 5.905 5.714 9.828l-.014.302-.7 10.64c2.22-2.25 4.25-4.7 6.06-7.31 1.25-2.29 2.6-4.54 4.05-6.72 8.53-12.83 27.68-1.68 20.64 12.06-1.35 2.65-2.87 5.16-4.5 7.58a67.056 67.056 0 0 0-4.51 11.01c3.33 1.45 5.89 4.67 6.16 9.53.63 11.35-5.33 20.82-14.81 26.77-2.79 1.75-5.67 2.09-8.28 1.44-.46.62-.92 1.24-1.36 1.87a60.3 60.3 0 0 1 10.12 10.45c8.82-1.32 17.69-1.94 26.56-1.96 10.84-5.31 23.82-5.2 35.47-3.21 7.5 1.28 14.7 3.77 22.08 5.56 7.78 1.88 15.68 1.95 23.55 3.23 9.92 1.61 18.62 6.19 24.09 13.5 6.01.18 12.33 2.64 17.57 5.98 12.2 7.78 24.33 15.67 36.5 23.5 4.671 3.006 6.417 7.805 5.558 13.158l-.058.342-.41 2.22.963 1.367c3.724 5.259 7.777 10.768 10.187 16.573 4.46 6.43 8.49 13.17 12.06 20.12 4.81 9.34 8.78 19.24 11.47 29.4.67 2.57 1.34 5.16 1.78 7.78.63 3.7-.34 6.57-.87 10.12-.66 4.5-.9 9.06-1.6 13.57-.47 2.99-3.01 4.46-5.67 4.54 1 7.61 1.72 15.27 2.41 22.87.97 10.86 1.63 21.75 2.2 32.64 2.94 4.27 8.95 7.65 13.29 8.82 6.01 1.61 12.31-.14 17.99-2.19 3.57-1.29 6.5 3.2 4.76 6.2-5.47 9.42-17.17 9.38-26.03 5.21-3.75-1.76-7.04-4.31-9.48-7.63.15 3.16.31 6.32.47 9.49l.149 2.871c1.802 33.532 5.691 68.218-.609 101.419-10.91 57.51-58.502 101.3-116.64 104.7-30.508 1.785-55.913-7.226-68.547-12.253-12.633-5.027-7.723-15.276 1.047-12.346 15.108 5.047 42.862 12.566 67.7 9.319 58.54-7.653 108.18-36.912 103.08-162.93-.723-17.87-2.95-35.75-3.43-53.62-.46-17.47-.29-34.95-1.06-52.41l-.257-5.957c-.3-6.961-.622-13.954-1.143-20.923-.63-2.7-1.15-5.44-1.92-8.09-2.09-7.21-4.82-14.22-8.21-20.91-.75.57-1.59.98-2.5 1.14-6.91 1.24-13.39.89-19.86-1.99-3.02-1.33-5.68-3.1-8.16-5.29-1.18-1.03-1.97-2.03-2.59-3.07-3.13.05-6.26-.89-8.22-3.14-2.235-2.564-2.607-5.213-1.732-7.665l.092-.245-.22-.08c-2.64 6.83-7.9 12.84-13.67 16.9-9.12 6.44-20.53 8.3-31.47 8.47-12.08.18-24.82-1.68-36.74-3.58-3.15-.5-6.28-1.07-9.35-1.84-.12.12-.24.26-.37.38-10.23 9.79-24.62 12.31-37.6 6.72-7.5-3.23-13.79-8.43-19.35-14.39-.08 3.12-.24 6.24-.51 9.33l-.112 1.227c-.553 5.755-1.619 11.86-5.968 16.013-7.03 6.73-17.23 4.03-25.34-.35.01.21.01.43.01.65 2.19 7.44 4.39 14.89 6.59 22.34l.474 1.587c1.6 5.29 3.354 10.587 3.836 16.123.92 10.58-6.12 21.03-17.88 17.48-6.168-1.855-11.11-7.042-15.852-11.196l-2.988-2.584c7.73 25.27 13.09 51.44 13.59 77.81.03 1.43-1.2 2.51-2.56 2.56-3.18.13-6.6-.5-9.8-1.77-.18-.01-.36-.02-.55-.05a37.174 37.174 0 0 1-15-5.67c1.03 3.27 1.49 6.78 1.22 10.45-.07.89-1.46 1.2-1.66.22-2.58-12.69-17.43-22.28-30.23-19.85-13.74 2.61-23.86 14.43-26.34 27.88-2.66 14.45 2.43 31.16 11.86 42.31 4.34 5.14 10.05 9.43 16.83 10.51 3.1.49 6.32.32 9.33-.56 1.28-.38 2.48-.91 3.7-1.41 1.78-.72 3.86-.83 5.54-1.59 3.81-1.71 7.64 1.8 5.71 5.71-1.68 3.41-3.19 5.71-5.98 7.47 2.26 2.76 4.31 6.6 5.07 7.63 3.88 5.24 7.82 10.19 12.24 14.98 4.5 4.86 9.41 9.3 14.6 13.41l2.182 1.724c4.999 3.965 9.352 7.639 12.878 13.326 2.78 4.49-.82 10.58-6.03 10.51-16.3-.23-28.15-14.55-36.59-27.06a69.68 69.68 0 0 1-3.38-5.62c-.38.61-.8 1.18-1.27 1.7l.93 2.5c2.76 7.36-9.13 12.17-12.58 5.3-2.51-4.98-5.42-9.72-8.66-14.2-1.91-.27-3.78-1.43-4.82-2.93-2.63-3.81-5.58-7.66-8.07-11.72-1.38-1.31-2.8-2.57-4.25-3.8-.42.37-.85.74-1.26 1.13a53.173 53.173 0 0 1-6.86 11.51l-.598.762c-5.345 6.736-12.307 13.63-20.922 15.278-2.63.5-5.16-2.77-2.83-4.86 6.03-5.42 13.16-9.11 18.72-15.16a67.632 67.632 0 0 0 7.417-9.703l.493-.797c.36-.59.73-1.18 1.11-1.78-2.51-1.71-5.02-3.43-7.53-5.15-6.91 5.903-15.908 8.604-23.55 13.494l-.76.496c-6.91 4.62-14.19-5.6-8.65-11.21 6.107-6.161 11.205-13.508 16.615-20.356-2.544-4.686-3.748-10.227-4.199-15.827a196.11 196.11 0 0 1-.456-4.757c-3.88.06-7.78-1.27-11.08-3.56l-1.25-.89c-4.01 1.28-8.22 1.9-12.25 1.79-9.48-.28-13.36-11.11-7.43-17.96 6.05-7 16.64-8.53 25.03-5.13.27-.14.55-.29.82-.44-.4-1.84-.31-3.509.144-4.975l-.132-.894a22.969 22.969 0 0 1-3.518-9.478c-.364-2.705-.29-5.386.336-8.057.208-.889.641-1.81.972-2.737a17.667 17.667 0 0 1-1.207-5.292c-.19-.227-.38-.46-.56-.712-4.164-5.845-3.323-12.888.64-17.618.017-.301.045-.602.086-.901a24.606 24.606 0 0 1-.639-1.582c-3.87-3.905-6.713-8.604-6.183-14.427.311-3.426 1.72-6.51 3.85-8.815-.378-1.118-.414-2.413.044-3.494-3.4-9.046-2.97-19.941-.523-30.058-.54-1.54-.82-3.21-.76-4.98.28-7.51 6.78-14.41 14.48-14.32a13.1 13.1 0 0 1 2.63.306l.01-.179c.295-2.254.915-4.337 1.82-6.206a3.933 3.933 0 0 1-1.218-.699 68.452 68.452 0 0 1-15.629 6.015c-4.025 1.008-8.148-3.567-5.646-7.345a33.867 33.867 0 0 1 3.822-4.765 48.966 48.966 0 0 0-5.969.403c-3.62.47-7.66-2-10.01-5.34-2.92 2.84-5.85 5.67-8.78 8.5-7.42 7.19-18.63 1.9-19.8-7.58-2.21-.59-4.27-1.59-6.08-3.02-11.7 5.08-24.29 7.87-37.16 8.4-9.24.38-14.64-10.38-10.32-17.98 2.9-5.1 6.5-9.68 10.65-13.66-6.44 1.97-13.09 3.39-19.88 4.3-3.67.49-8.86-2.55-10.33-5.92-5.62-12.96-5.14-26.47 1.33-39.08.25-.5.53-.98.8-1.46.67-1.67 1.4-3.32 2.19-4.94-7.96-8.3-8.65-20.64-4.36-30.97-1.72-2.79-2.38-6.15-1.21-9.19 3.33-8.75 8.13-16.83 14.19-23.77-.58-1.12-1.09-2.31-1.52-3.59-3.41-10.35.54-22.84 8.51-30.05 5.01-4.54 10.77-7.26 16.92-9 2.59-4.58 5.92-8.71 9.8-12.19.15-.33.3-.66.47-.99 6.04-11.38 17.04-17.48 28.83-18.89.46-4.45 3.46-8.7 7.82-10.08 1.2-3.85 2.99-7.53 5.45-10.87 3.87-5.26 10.3-7.74 16.36-4.29 3.32 1.89 6.5 4.06 9.48 6.46 1.339-.627 2.856-1.034 4.568-1.163l.432-.027 9.86-.5c4.13-1.83 8.25-3.75 12.38-5.62 2.48-2.05 5.25-3.76 8.27-5.03 3.42-1.43 6.92-2.24 10.43-2.51 2.85-.93 5.72-1.75 8.64-2.39 6.86-1.5 14.04-2.34 21.16-2.27.146-1.843.218-3.707.204-5.594l-.014-.946c-.16-6.05 4.67-10.88 10.36-11.74Zm-6.91 484.05c-.98.21-1.97.38-2.96.5.3.74.6 1.48.89 2.22.8.45 1.61.88 2.42 1.28-.24-1.36-.38-2.73-.35-4ZM46.957 371.92l-.665 1.224-.318.593c1.41-.11 2.83-.08 4.23.08l-.004-.149c-.18-.061-.36-.117-.532-.201a22.426 22.426 0 0 1-2.71-1.547Zm27.767-55.853c8.847.516 16.343 1.872 24.39 5.742l.69.338c7.11 3.53 18.87 10.05 17.88 19.4-.28 2.66-2.21 5.46-5.25 5.25-8.33-.57-13.09-8.97-18.73-14.21-5.69-5.28-12.68-10.71-19.57-14.34-.974-.511-.59-2.128.47-2.18h.12Zm-40.12-123.19c-2.12.07-1.41 2.13-.32.41.09-.14.2-.28.32-.41ZM149.04 55.355c-20.078.528-40.285 12.383-55.326 24.366-13.085 10.425-24.384 22.825-34.389 36.19a208.23 208.23 0 0 0-6.65 20.296c-1.23 4.52-2 9.09-3.03 13.65l-.32 1.398c-.81 1.512-1.41 3.139-1.849 4.82 1.823 1.828 4.188 3.137 6.792 3.758.84.2 1.536.633 2.087 1.207 2.096-3.498 3.928-7.19 4.994-11.104l.04-.181a228.754 228.754 0 0 1 13.095-19.168c12.94-17.05 27.19-32.59 44.32-45.52 12.99-9.8 27.51-17.48 42.95-22.47-3.779-3.049-8.071-5.46-12.714-7.242Z"/></g></svg>