<svg xmlns="http://www.w3.org/2000/svg" width="474" height="567" fill="none" viewBox="0 0 474 567"><g id="head/Buns" fill-rule="evenodd" clip-rule="evenodd"><path id="✋ Skin" fill="#D08B5B" d="M397.205 173.681c-32.974-46.705-115.835-51.966-168.204-51.67-103.421-.862-125.076 118.013-130.477 201.313-11.031 1.876-21.759 5.722-29.038 14.391-8.863 10.556-11.925 28.675-3.615 40.481 5.52 7.84 14.234 10.459 23.35 10.896 30.191-2.881 36.382 24.029 51.251 44.208 38.156 51.546 104.256 68.267 164.881 68.523 20.592.548 45.398 2.093 58.586-17.282 41.652-72.196 42.559-167.947 45.126-249.762.353-20.946.264-43.12-11.86-61.098Z"/><path id="🖍 Ink" fill="#000" d="M468.373 214.195c.418.791.727 1.667.898 2.62.543 3.025-.572 5.338-2.035 7.584.192 1.566.299 3.084.382 4.419.466 7.496-1.252 17.771-7.861 20.831-.103.124-.208.247-.317.37-.51.83-1.288 1.548-2.311 2.072a8.944 8.944 0 0 1-.771.489c-.068.058-.14.11-.212.162a3.071 3.071 0 0 0-.158.117c.08-.084.158-.17.236-.256l.172-.187c-3.656 1.458-7.187 1.759-10.956 1.316-2.33.842-4.665 1.471-6.636 1.958-6.151 1.519-14.083 2.735-20.078.145-1.747-.754-3.196-1.753-4.285-2.944.09 4.64.226 9.279.427 13.919.41 11.73.39 23.45.3 35.19-.1 13.21-.47 26.43-1.18 39.63-.33 6.63-.86 13.25-1.57 19.85-.6 6.43-1.3 12.85-2.11 19.25-1.91 13.16-5.06 26.42-8.9 39.14-1.67 5.52-3.5 11.11-5.58 16.57-.88 2.51-1.81 4.99-2.82 7.45-5.33 12.89-11.97 25.33-20.94 36.07-4.9 5.86-10.31 11.13-16.35 15.56-4.85 3.78-10.1 6.98-15.87 9.5-12.4 5.42-26.24 6.64-39.65 6.44-5.116-.069-10.538-.973-15.609-1.818l-.311-.052c-3.96-.65-7.97-1.52-11.94-2.54-3.52-.82-7-1.77-10.43-2.88a54.056 54.056 0 0 1-11.86-4.69l-6.68-2.51c-2.79-1.05-5.5-2.3-8.13-3.73l-7.26-3.39a99.886 99.886 0 0 1-8.8-4.79c-.3-.16-.64-.43-.77-.73-.309-.171-.62-.339-.931-.507a71.69 71.69 0 0 1-1.299-.713c-.12-.06-.03-.41.13-.75-.13-.27-.11-.57.25-.84.27-.21.7-.15 1.15-.01-.04-.03-.07-.06-.1-.09-.5-.27-.99-.53-1.48-.8a.8.8 0 0 1-.11-1.34c.13-.1.28-.15.43-.16-.01 0-.02-.01-.03-.01-.09-.06-.02-.34.11-.65-.25-.32-.33-.71.11-1.05.603-.473 1.955.302 2.586.664l.134.076c.392.218.789.428 1.184.638l.716.382c.04-.09.12-.17.25-.25-.93-.49-1.85-.99-2.77-1.49-.57-.3-1.31-.93-.56-1.52.6-.48 2.15.34 2.89.76.09-.07.19-.1.31-.12a18.29 18.29 0 0 0-.394-.215 15.111 15.111 0 0 1-.586-.325c-.9-.5-.29-2.06.64-1.54.055.035.11.067.165.1.055.032.11.065.165.1.636-.057 1.517.437 1.972.692l.068.038c3.13 1.97 6.39 3.69 9.77 5.17 2.28 1.08 4.57 2.15 6.87 3.19 2.26 1.12 4.59 2.09 6.98 2.91 6.01 2.34 12.08 4.52 18.21 6.54 8.59 2.35 17.48 4.24 26.4 4.98 1.16.09 2.32.17 3.48.21 1.266-.01 2.532-.018 3.797-.025 1.273-.008 2.544-.015 3.813-.025 4.476-.463 8.953-.918 13.422-1.372l1.358-.138c1.72-.24 3.4-.54 5.06-.89a58.4 58.4 0 0 0 2.6-.68c.2-.027.399-.062.599-.098.1-.018.201-.036.301-.052 2.11-.56 4.18-1.23 6.25-2.01 1.3-.53 2.59-1.09 3.87-1.68 4.23-1.97 8.39-4.57 12.31-7.55 2.455-2.445 4.91-4.888 7.365-7.33 2.455-2.443 4.91-4.885 7.365-7.33l4.49-6.12c5.8-8.29 10.39-17.53 14.2-26.96l6.06-17.46c.63-2.1 1.23-4.2 1.8-6.31 1.15-4.72 2.3-9.44 3.45-14.15.38-1.73.75-3.45 1.11-5.17 2.21-10.71 3.43-21.58 4.48-32.45 1.92-19.78 2.44-39.62 2.58-59.48.09-11.87-.01-23.74-.25-35.6-.14-6.875-.24-13.75-.34-20.625v-.015c-.13-7.3-.27-14.61-.46-21.91-.01-.16.05-.3.13-.42-.02-.86-.03-1.72-.04-2.59-.01-.57.21-.82.53-.87-.06-5.21-.1-10.41-.11-15.61 0-.34.16-.56.37-.69v-1.32c-.87-3.62-2.05-7.17-3.58-10.55-.52-1.22-1.1-2.41-1.74-3.57-.79-1.74-1.82-3.32-3.08-4.77a21.402 21.402 0 0 0-3.84-4.74l-.92-.66-.92-.66c-.51-.27-1.26-.74-1.92-1.28-.595-.365-1.188-.733-1.78-1.1-.593-.368-1.185-.735-1.78-1.1-.69-.36-.24-1.26.25-1.5v-.03c-.11-.05-.23-.11-.36-.22a58.479 58.479 0 0 0-4.5-3.84.85.85 0 0 1-.86-.14c-.92-.86-1.86-1.69-2.82-2.49-2.15-1.41-4.4-2.7-6.75-3.84-3.77-1.78-7.63-3.31-11.59-4.61a79.879 79.879 0 0 0-2.316-.71l-.253-.075c-.467-.022-.933-.046-1.399-.069-.751-.038-1.501-.076-2.252-.108a1094.632 1094.632 0 0 0-135.955 2.494c-11.138.899-22.262 1.97-33.367 3.211-2.094.234-4.277.416-6.503.602-8.163.682-16.907 1.412-23.965 4.929-.38.19-.742.391-1.095.598.608 3.901 2.07 7.722 3.489 11.434.216.564.431 1.126.642 1.685 2.463 6.536 4.67 13.198 4.451 20.276-.154 4.936-1.215 9.682-2.743 14.32-.783 6.613-2.844 13-5.032 19.275-10.767 30.874-16.628 62.484-16.026 95.257a4.633 4.633 0 0 1-.534 2.296l.018.129c.191 1.39.382 2.781.607 4.167.898 5.523-6.385 8.27-8.898 4.609a1.049 1.049 0 0 1-.619.3c-.64.06-1.69-.99-1.99-1.47-.39-.72-.8-1.42-1.24-2.09-.06-.03-.11-.05-.16-.07l.397.82a290 290 0 0 1 .413.85c.44.88-1.25 1.31-1.75.5-.45-.71-.9-1.39-1.35-2.04-.26.19-.55.24-.74-.07a33.088 33.088 0 0 0-5.51-6.88c-3.21-2.62-6.72-4.21-10.71-5.14-3.14-.45-6.36-.47-9.47-.11-3.57.42-7.33 1.31-10.56 2.94-2.63 1.81-5.27 3.62-7.91 5.43-.65.68-1.27 1.39-1.85 2.13-1.83 2.37-3.3 4.9-4.51 7.59l-.071.24a16.93 16.93 0 0 1-.08.26c-.74 2.26-1.22 4.58-1.43 6.96l-.04 4.51c-.012 1.502-.024 3.005-.04 4.51.4 3.91 1.4 7.71 2.93 11.32.72 2.13 1.85 4.03 3.38 5.71.82 1.42 1.75 2.71 2.79 3.91 2.11 1.4 4.41 2.59 6.86 3.53.6.16 1.2.32 1.81.44 3.15 1.21 6.41 1.86 9.78 1.95 4.26.29 8.431-.08 12.511-1.11 2.52-.45 4.96-1.18 7.32-2.19 2.26-1.14 4.39-2.51 6.38-4.11.22-.14.55-.06.91.12l.23-.167c.363-.263.725-.524 1.08-.813.2-.14.38.03.47.21l.12-.09c.79-.54 2.96 1.15 1.98 2.15.42.26.84.57 1.22.89 1.74.07 5.25 3.27 4.59 3.77-.98.85-2.01 1.63-3.06 2.37.93.69 2.15 1.76 1.58 2.19-1.02.97-2.13 1.81-3.31 2.53-.8.61-1.62 1.19-2.48 1.72-.93.55-1.88 1.02-2.86 1.46 1.71 3.31 3.34 6.65 4.86 10.05 1.01 2.41 2.18 4.74 3.53 6.98 1.72 3.41 3.78 6.61 6.19 9.59 1.96 3.3 4.26 6.33 6.89 9.1 3.25 3.7 6.74 7.18 10.45 10.4 1.48 1.05 2.99 2.07 4.56 3.01a74.64 74.64 0 0 0 12.81 7.77c.53.29.95.93.33 1.43-.02.01-.04.01-.06.03 1.48.84 2.97 1.67 4.47 2.49l.05.027c.605.327 1.725.933.85 1.643-.58.48-2.37-.38-3.44-.94.086.046.176.095.267.146l.203.114.055.029c.443.238 2.121 1.139 1.005 1.721-.59.1-1.15 0-1.69-.29-.56-.21-1.12-.44-1.67-.68.02.18-.08.35-.37.49-.23.04-.45.04-.67.02 1.22.69 2.44 1.37 3.67 2.04.36.19 2.06 1.13.94 1.71-.55.11-1.08.02-1.59-.26-.93-.35-1.85-.76-2.74-1.21-.105-.06-.21-.118-.315-.175-.105-.058-.21-.115-.315-.175-.16 0-.32-.02-.48-.05.98.53 1.97 1.04 2.97 1.54.59.32 1.58.97.73 1.63-.59.45-2.18-.36-3.12-.89-.06.07-.13.15-.23.23-.614.464-2.071-.376-2.806-.8-.104-.06-.194-.112-.264-.15-4.96-2.66-9.75-5.41-14.36-8.56-2.82-1.81-5.57-3.71-8.26-5.78-5.15-3.98-9.83-8.61-14.12-13.49-2.93-3.34-4.52-5.22-7.36-9.27-4.56-6.52-8-13.32-11.31-20.53-.05-.11.05-.39.2-.67-.68-1.67-1.34-3.36-2-5.11-1.72.23-3.45.39-5.16.49-4.03.23-7.94-.13-11.73-.96-4.59-.59-9.13-1.89-13.15-3.93-2.41-1.21-4.73-2.5-6.93-3.94a40.626 40.626 0 0 1-5.69-3.65c-7.75-5.92-11.96-15.11-12.99-24.65-.79-4.2-.96-8.52-.49-12.69a42.04 42.04 0 0 1 2.01-8.92c1.83-6.41 5.24-12.34 10.18-16.83.83-.85 1.7-1.66 2.63-2.42 2.75-2.25 5.87-4.06 9.19-5.38.64-.31 1.29-.6 1.94-.87l-.79-1.82c-.28.08-1.25-.08-1.37-.42-.197-.534-.386-1.076-.574-1.616l-.356-1.014c-.18.11-.41.17-.66.18v1.01c.01.29-.54 2.09-.84 1.15-.19-.526-.368-1.059-.546-1.592-.114-.34-.228-.68-.344-1.018-.25-.16-.44-.35-.51-.57-.03-.09-.06-.18-.1-.27-.02-.01-.05-.01-.07-.02v.31c.01.19-.49 1.63-.58 1.35a117.12 117.12 0 0 1-4.24-14.56 77.36 77.36 0 0 1-1.79-8.26c-.49-2.51-.92-5.03-1.29-7.57l-.09-.63a2.159 2.159 0 0 0-.015-.067l-.015-.073-.008-.074a20.303 20.303 0 0 0-.092-.746c-.4-2.87-.73-5.75-.98-8.65-.53-5.96-.74-11.95-.68-17.93-.082.031-.159.07-.237.11l-.143.07c-2.598 1.106-5.343 2.01-8.136 2.73-4.805 6.944-12.476 11.643-21.67 12.137a28.605 28.605 0 0 1-9.398-1.09c-.314.072-.638.13-.974.174-1.579.206-2.85-.132-4.165-.482-.737-.196-1.487-.395-2.314-.505-.299-.04-.594-.078-.885-.115-3.304-.425-6.122-.787-8.314-2.754a6.784 6.784 0 0 1-2.11-.29c-6.327 1.517-13.05-1.827-15.275-8.835-3.795-2.224-6.82-5.523-8.852-9.351-3.916-5.02-7.047-11.175-8.99-17.642a2.485 2.485 0 0 0-.036-.073c-.019-.036-.038-.072-.055-.11-.985-2.136-1.454-4.427-1.494-6.725-1.048-6.546-.772-13.1 1.22-18.861-.083-3.123.65-6.378 1.995-9.331 1.629-3.581 4.113-7.698 7.336-10.086.008-3.67 1.585-7.71 3.652-10.448 4.125-5.469 10.107-8.36 16.58-8.778 3.293-8.439 13.268-10.41 21.872-7.601 3.574-3.652 8.809-5.396 14.034-4.775 4.418.525 8.194 2.638 11.32 5.55.824.235 1.645.48 2.465.735a13.762 13.762 0 0 1 8.85-.72c5.064 1.305 8.367 5.141 10.652 9.541.729.502 1.44 1.02 2.136 1.561a8.661 8.661 0 0 1 2.085 1.337c.914.487 1.69 1.288 2.163 2.45 1.29 1.33 2.49 2.737 3.552 4.246a206.994 206.994 0 0 1 2.462-5.478c1.379.415 3.046-.122 3.74-1.964l.176-.469c4.436-11.771 12.333-32.728 19.78-42.454-8.808 5.997-19.562 9.158-30.244 8.84a59.942 59.942 0 0 1-1.383-.058c-5.742.99-11.575 1.082-16.93.008a88.555 88.555 0 0 1-10.525-4.634 95.052 95.052 0 0 1-2.467-1.338c-.257-.216-.5-.45-.742-.684l-.287-.275a6.693 6.693 0 0 1-2.225-.212c-2.947-.779-5.674-2.74-7.384-5.26a10.368 10.368 0 0 1-.802-1.439c-1.855-1.814-3.462-3.869-4.643-6.272-1.39-2.81-2.24-5.97-2.33-9.13-.58-3.1-.54-6.29.54-9.25.075-.202.159-.4.243-.598.05-.117.099-.234.147-.352.024-.082.045-.166.067-.25.03-.12.061-.242.103-.36a14.695 14.695 0 0 1 1.206-2.885c.18-.915.477-1.822.895-2.705.047-.427.105-.854.174-1.28-3.178-5.994-2.052-13.834 2.705-18.707-.658-3.15.012-6.49 1.929-9.285 1.408-2.054 3.365-3.675 5.582-4.8.23-.117.843-.318 1.575-.55a21.168 21.168 0 0 1 2.632-2.014c.225-5.86 6.074-9.24 11.139-12.167l.728-.421c1.65-.958 2.846-2.334 4.044-3.71 1.257-1.446 2.515-2.892 4.299-3.856 3.12-1.685 6.955-2.072 10.555-2.436.795-.08 1.579-.16 2.34-.251 9.928-1.196 20.499-2.12 30.476-1.04 5.539.6 10.126 3.276 12.023 7.658 4.765.563 9.012 4 12.372 7.537 4.194 4.413 7.765 9.11 8.996 14.91.82.443 1.565.985 2.238 1.597-.025 4.078-.557 8.163-1.683 12.012.331 2.3-.362 4.498-1.534 6.49a18.315 18.315 0 0 1-.344 5.594c2.28 4.045.146 10.158-3.048 14.169l-.024 2.262c.19-.1.375-.216.548-.363 9.187-7.818 18.536-9.973 28.635-12.3 5.832-1.345 11.914-2.746 18.359-5.33 15.878-3.064 32.084-5.015 48.348-5.664a15.249 15.249 0 0 0-.275-.038c-.123-.016-.246-.032-.369-.052-8.196-1.342-16.068-4.713-22.838-9.556-1.792-.454-3.491-1.263-5.012-2.616-1.478-1.314-2.501-2.83-3.089-4.456a46.765 46.765 0 0 1-.794-.87c-5.082-1.248-8.952-5.645-8.304-11.425-3.218-3.81-4.402-8.512-3.313-13.41-1.798-3.036-1.955-6.865-.613-10.072-2.826-3.432-3.046-8.304-.83-12.187-2.023-2.875-2.47-6.685.026-10.09 1.178-1.608 2.81-2.622 4.588-3.112.502-1.853 1.523-3.574 3.127-4.903a10.455 10.455 0 0 1 2.572-1.568c.332-1.913 1.413-3.727 3.493-5.154a8.654 8.654 0 0 1 2.87-1.297c.909-2.25 2.495-4.223 4.726-5.504 2.694-1.545 5.827-1.75 8.682-.94 3.728-5.634 11.908-7.818 17.579-3.64 4.722-2.921 10.662-2.305 14.906 1.248 5.132-3.033 11.505-1.81 15.53 2.42 6.449-3.524 14.961-.921 18.414 5.756 6.508-.722 12.641 3.538 14.376 9.704.281.228.56.463.838.698l.075.064c3.899.187 7.604 1.715 9.789 5.34 1.092 1.812 1.596 3.94 1.522 6.025 2.331 1.26 4.214 3.327 5.021 6.006.756 2.512.471 4.997-.523 7.162 3.246 3.453 4.104 8.835 1.804 13.172a10.256 10.256 0 0 1 1.369 5.566c-.115 2.969-1.492 5.362-3.365 7.405 2.355 4.25 1.437 9.702-2.391 12.682-2.199 7.796-7.765 12.983-16.293 16.165-4.283 1.598-8.764 2.829-13.331 3.733 18.275 2.459 36.254 6.78 53.524 13.225.94.35 1.737.214 2.346-.195.165.088.333.172.5.257.213.108.427.217.638.332 4.76 2.61 9.42 5.44 13.96 8.47 0-.5.01-1 .03-1.51-.088-4.115.345-8.168 1.438-12.075-1.43-1.95-2.5-4.171-3.082-6.461-1.453-5.714 1.311-13.845 6.276-15.797 1.74-4.826 5.697-8.318 10.547-9.692a11.96 11.96 0 0 1 1.251-.997 9.895 9.895 0 0 1 3.286-1.46c.597-2.614 2.056-5.021 4.476-6.71 3.415-2.385 7.454-2.644 11.002-1.343.675-.227 1.36-.424 2.051-.595 5.712-4.862 14.615-4.504 19.641 1.185 3.45-1.577 7.516-1.647 11.048.475 2.826 1.698 4.585 4.436 5.273 7.44 5.35.165 10.244 3.715 11.787 9.013 4.93.558 8.963 4.416 9.819 9.272 3.145.438 6.05 1.916 7.817 4.855a9.862 9.862 0 0 1 1.375 4.335 10.706 10.706 0 0 1 4.093 3.427c1.886 2.644 2.25 5.73 1.557 8.636.065.132.132.262.2.392.097.189.194.377.285.57.513 1.092.925 2.263 1.292 3.452 1.658 2.39 2.424 5.314 2.272 8.25.352 1.242.693 2.487.976 3.738 1.12 4.91 1.54 10.14.77 15.14-.38 2.42-.93 4.8-1.71 7.11-.08.44-.21.85-.36 1.24-.43 1.82-.98 3.61-1.68 5.36-1.68 2.23-3.44 4.4-5.29 6.5-1.56 2.34-3.34 4.5-5.35 6.48a38.451 38.451 0 0 1-4.73 3.96c-3.355 2.689-7.109 4.786-11.114 6.15a45.152 45.152 0 0 0-2.154-.382c-4.548 2.504-11.704 2.787-16.08 2.77-4.822-.018-9.238-1.236-12.91-3.537l.751 1.497.525 1.048c-.106.061-.22.116-.312.187-.794-1.315-1.68-2.483-2.724-3.323-1.425-1.149-3.723-1.252-4.711.607a3.035 3.035 0 0 0-.052.098c-.527.991-.453 1.942-.051 2.718.147.211.293.424.439.636.052.06.102.124.159.18l-.026.003c1.365 1.099 2.709 3.791 3.983 6.408a87.87 87.87 0 0 1 2.451 4.658c.449.662 1.246 1.243 2.094 1.412-.166 1.26.414 2.563 1.366 3.209.25-.504.554-1.02.945-1.552 4.298-5.838 12.742-8.357 19.101-5.689a43.434 43.434 0 0 1 3.828-.492c4.198-.277 8.453.053 12.599.922a26.12 26.12 0 0 1 3.663 2.632c.97.84 1.87 1.72 2.71 2.63.65.487 1.289 1.003 1.916 1.541 2.542 1.367 4.409 3.989 5.977 6.599a37.733 37.733 0 0 1 3.272 5.608c4.36 7.46 9.391 16.722 5.46 24.057ZM118.697 358.36a21.49 21.49 0 0 1 3.75 6.18c.36.73-.08 1.17-.82 1.04-.33-.05-.78-.29-1.24-.61.07.17.15.32.22.49.39.77.06 1.32-.83 1.03-.05-.03-.1-.06-.14-.09.46.82.88 1.66 1.24 2.54.39.78.04 1.32-.84 1.02-.46-.26-.9-.56-1.32-.89l.157.34c.14.304.28.607.403.92.4.79-.06 1.2-.84 1.02-.67-.37-1.29-.81-1.87-1.32-.059-.046-.114-.097-.167-.146l-.083-.074c.26.65-.23 1.05-.88.92-.92-.18-2.65-1.73-3.07-2.55-.03-.05-.05-.1-.08-.15-.49-.33-1.02-.79-1.42-1.23-.32.46-.94.8-1.22.24-.84-2.29-2.15-4.25-3.94-5.9a15.442 15.442 0 0 0-3.71-3.81c-.78-.66-1.59-1.29-2.42-1.89-1.47-.67-3-1.18-4.6-1.52a7.57 7.57 0 0 0-.55-.144c-.14-.034-.28-.067-.42-.106l-.117-.022c-.67-.122-1.332-.244-2.003-.338-2.89-.4-5.79-.47-8.69-.21-.52.02-1.02-.38-1.24-.84-.65.03-1.29.06-1.94.12-1.07.04-.84-1.47-.03-1.62 1.02-.19 2.04-.33 3.04-.45a.621.621 0 0 1-.01-.27c-1.83-.09-3.65-.05-5.49.14-.8.04.15-1.44.59-1.52.104-.021.208-.036.313-.052.098-.014.196-.029.297-.048a.3.3 0 0 1-.04-.08h-.05c-1.1.05-1.85-1.7-.53-1.94.159-.029.315-.053.47-.077.168-.026.334-.052.5-.083-.06-.17-.07-.32-.01-.46-.57-.01-1.13-.01-1.7-.01.15-.01.28-.326.417-.656.147-.356.302-.728.493-.754l.446-.061.434-.059c.02-.37.58-1.23.82-1.28 1.9-.32 3.76-.54 5.6-.61.18-.42.44-.98.69-.98 2.09-.03 4.1-.01 6.1.2.08-.06.16-.09.23-.08.33.08.63.15.95.23 1.11.16 2.22.39 3.35.72 2.67.79 5.34 2.04 7.65 3.59 2.18 1.46 4.35 2.98 6.25 4.8.67.57 1.3 1.19 1.9 1.83.97.8 1.91 1.62 2.81 2.43 1.1 1.01 2.17 2.05 3.19 3.13Z"/></g></svg>