<svg xmlns="http://www.w3.org/2000/svg" width="474" height="567" fill="none" viewBox="0 0 474 567"><g id="head/Cornrows" fill-rule="evenodd" clip-rule="evenodd"><path id="✋ Skin" fill="#D08B5B" d="M430.548 316.86c6.194-44.703-7.034-87.844-24.171-128.7-.941-2.488-2.434-4.643-4.353-6.175-48.363-97.477-119.426-106.304-218.565-99.59-2.929-.066-3.103-.014-5.327-1.009-.368-39.598-45.593-60.573-80.008-47.508C-54.508 104.807-6.514 304.492 23.859 434.857c10.836 50.465 21.675 100.927 32.513 151.39.364 1.688 1.13 3.147 2.15 4.377a145.3 145.3 0 0 1-4.693 1.683c-3.526 1.2-2.125 6.457 1.545 5.605 3.597-.835 7.063-1.954 10.492-3.173 5.346 1.16 9.828-2.333 14.025-5.119 49.146-19.434 69.778-83.305 82.384-130.358 51.251 36.16 133.144 63.242 191.743 30.726 54.908-33.066 74.682-102.041 70.781-162.92 4.007-1.844 5.624-5.864 5.729-10.055h.024c-.001-.051-.004-.102-.004-.153Z"/><path id="💈 Hair" fill="#A55728" d="M172.06 58.283c.556 4.39.485 9.838.148 15.138-.342 5.384-.961 10.652-1.494 14.572a230.012 230.012 0 0 1-.903 6.04l-.028.168-.03.179-.016.09-.004.022-.001.006v.002l-.739-.128.739.128-.052.301-.248.18-.053-.074a.639.639 0 0 1 .052.074h-.001l-.006.005-.025.018-.099.072-.389.28-1.488 1.081a1547.426 1547.426 0 0 0-22.926 17.016c-13.428 10.17-28.703 22.148-36.237 29.482-1.811 1.762-3.736 4.607-5.72 8.294-1.978 3.674-3.99 8.137-5.984 13.097-3.99 9.918-7.9 21.776-11.34 33.188-3.439 11.409-6.406 22.36-8.513 30.459a850.31 850.31 0 0 0-2.467 9.708 574.29 574.29 0 0 0-.66 2.688l-.1.414-.069.29-.028.118 6.641 68.097.098 1.004-.972-.193h-.004a1.544 1.544 0 0 0-.216-.001 2.555 2.555 0 0 0-.82.218c-.708.309-1.772 1.069-2.883 2.963-2.243 3.822-4.594 12.121-4.594 29.954 0 17.556 8.82 27.653 17.656 33.392 4.428 2.877 8.862 4.658 12.192 5.72 1.664.53 3.048.88 4.014 1.096a30.8 30.8 0 0 0 1.476.295l.016.002.004.001.313.048.184.258 43.146 60.58.046.064.031.073 9.461 21.814.131.304-.135.302-.684-.307c.684.307.684.307.683.308l-.001.002-.005.011-.019.043-.076.17-.058.131-.239.536a1055.54 1055.54 0 0 0-5.158 11.828c-3.335 7.773-7.782 18.362-12.228 29.633-4.447 11.272-8.889 23.216-12.219 33.7a285.1 285.1 0 0 0-.903 2.896 158.566 158.566 0 0 1-2.85 4.388 235.652 235.652 0 0 1 2.323-7.738c3.345-10.531 7.801-22.51 12.254-33.797 4.453-11.288 8.905-21.892 12.244-29.673a1076.823 1076.823 0 0 1 5.167-11.847l.133-.301.095-.212.037-.083-9.298-21.439-42.92-60.264-.11-.02a34.9 34.9 0 0 1-1.169-.242 49.3 49.3 0 0 1-4.141-1.131c-3.42-1.09-7.984-2.922-12.554-5.891-9.163-5.952-18.34-16.479-18.34-34.65 0-17.894 2.347-26.532 4.802-30.714 1.237-2.108 2.522-3.118 3.576-3.578a4.33 4.33 0 0 1 .945-.292l-6.577-67.437-.013-.125.03-.121.729.173-.73-.174.001-.003.003-.012.011-.046.043-.181.171-.707c.15-.62.372-1.531.66-2.695a852.99 852.99 0 0 1 2.472-9.726c2.11-8.111 5.083-19.081 8.53-30.514 3.445-11.431 7.369-23.337 11.383-33.315 2.007-4.989 4.041-9.507 6.055-13.248 2.007-3.73 4.019-6.735 5.995-8.658 7.612-7.411 22.965-19.445 36.378-29.602a1538.484 1538.484 0 0 1 22.949-17.034c.645-.47 1.149-.834 1.49-1.082l.274-.198.026-.157c.05-.3.122-.742.211-1.305.177-1.127.42-2.742.685-4.69.53-3.9 1.145-9.13 1.484-14.466.34-5.343.401-10.755-.161-15.031-.175-1.325-.407-2.525-.703-3.57a47.964 47.964 0 0 1 2.213 3.558Zm-41.925-27.45 2.142 1.09c3.102 1.576 7.328 3.713 11.831 5.96 6.926 3.457 14.476 7.16 19.59 9.48a51.654 51.654 0 0 1 2.605 2.78c-4.757-1.98-14.328-6.656-22.865-10.918a1856.138 1856.138 0 0 1-15.544-7.852l-1.02-.522-.2-.102-15.615-.155c6.335-.876 12.792-.77 19.076.239Z"/><path id="🖍 Ink" fill="#000" d="M84.041 37.602c11.331-7.34 25.874-10.072 39.224-9.537 7.12.285 13.767 2.06 20.331 4.726 6.084 2.472 11.448 6.023 17.372 8.729.36.164.088.669-.252.6-7.015-1.416-15.251-.56-22.364.453l-.708.102c-6.991 1.015-14.105 1.54-20.996 3.15-12.694 2.968-24.5 9.433-31.468 20.678-9.097 14.686-11.429 33.696-10.456 50.64.492 8.573 2.182 17.007 4.814 25.18 1.58 4.905 5.251 9.84 6.966 14.987a219.214 219.214 0 0 1 4.047-7.231c-6.355-2.995-8.137-11.319-8.466-18.831-.979-.946-1.609-2.315-1.63-3.572-.056-3.379.74-6.438 2.091-9.237.772-7.928 2.408-15.832 5.224-23.261C98.823 66.01 127.982 39.723 161.05 42.32c9.088.714 17.931 4.573 22.63 12.777 3.775 6.588 3.8 14.535 1.196 21.542a25.746 25.746 0 0 1-2.956 5.67 930.41 930.41 0 0 1 10.725-2.635c12.396-2.988 24.855-5.33 37.547-6.631 17.285-1.772 34.926.909 50.765 7.808a351.743 351.743 0 0 1 12.964 3.599c18.909 5.638 38.309 13.002 53.582 25.871 7.027 5.921 12.056 12.809 16.138 20.373 15.289 13.631 29.909 29.083 40.229 46.759 21.263 36.419 26.341 81.468 27.215 122.871.803 38.034-2.538 76.458-9.666 113.829-3.236 16.96-8.467 32.722-19.049 46.631-11.784 15.489-27.501 27.692-45.137 35.88-35.905 16.67-80.344 19.095-115.244-1.558-10.497-6.211-1.045-22.402 9.558-16.351 34.455 19.661 78.427 15.17 111.579-5.674 14.005-8.805 26.074-20.846 33.741-35.591 5.599-10.77 8.002-23.12 10.082-35.145l1.106-6.432c6.423-36.978 9.327-74.907 7.782-112.42-1.542-37.42-7.477-77.95-28.673-109.763-11.18-16.78-25.437-31.48-40.412-44.884a826.842 826.842 0 0 0-3.161-2.815c-5.853-3.517-11.919-6.588-17.888-9.209l-1.27-.549c-3.433-1.464-8.235-3.354-12.69-4.866-6.368-2.161-12.839-4.081-19.337-5.811a324.467 324.467 0 0 0-10.259-2.534 169.092 169.092 0 0 1 3.553 3.339c5.534 5.377 9.924 11.767 15.171 17.405.593.636-.155 1.564-.909 1.177-7.979-4.094-16.827-6.744-25.158-10.061-7.877-3.136-15.532-6.746-23.269-10.206-1.938-.868-3.87-1.795-5.797-2.712-7.609.078-15.218.257-22.81.69 9.178 6.533 17.56 14.254 24.503 22.721.573.697.052 1.814-.912 1.567-14.534-3.722-28.356-9.191-42.17-14.923l-6.61-2.751c-4.858-.246-9.723-.361-14.589-.289l-2.358.039c-5.108.097-10.207.3-15.27 1.074-1.204.183-2.384.357-3.556.517-7.125 2.908-13.981 6.414-20.15 11.035l1.607-.095c9.754-.555 19.699.285 29.145 2.803 18.354 4.895 34.015 16.682 45.411 31.711.341.45-.322 1.076-.769.77-14.337-9.815-30.966-14.759-48.003-17.444-8.235-1.299-16.716-1.746-25.03-1.099-6.884.535-14.005 2.96-20.854 1.783a143.629 143.629 0 0 0-5.386 7.168c.907-.058 1.818-.111 2.735-.154 9.836-.462 19.853.169 29.457 2.433 19.183 4.525 35.213 16.041 49.877 28.684.29.25-.084.696-.398.516-15.903-9.178-34.387-11.921-52.402-13.577-9.072-.834-18.246-1.212-27.338-.488-4.165.331-8.284 1.018-12.437 1.445-.336.035-.685.044-1.031.06a228.144 228.144 0 0 0-8.2 17.215c7.513-2.016 15.62-3.074 23.378-2.552 15.758 1.061 31.388 8.286 43.967 17.527.394.289.174 1.059-.361.857-13.692-5.173-27.265-5.215-41.554-3.219-6.699.936-13.33 2.206-19.802 4.198-3.254 1.002-6.47 2.095-9.559 3.534-1.402.652-2.767 1.412-4.147 2.129a206.635 206.635 0 0 0-2.98 11.337c23.355 1.317 45.358 12.341 64.507 24.993.463.306.174 1.158-.398.942-11.431-4.313-23.866-6.307-35.991-7.468-10.602-1.015-21.006-.463-31.547-.167a208.703 208.703 0 0 0-1.353 12.047c1.695.475 3.358.987 4.957 1.468 5.26 1.58 10.508 3.707 15.415 6.173 9.968 5.009 18.045 11.78 26.172 19.307.424.393-.018 1.251-.593 1.018-9.433-3.813-19.74-6.255-29.67-8.416a473.972 473.972 0 0 0-15.455-3.097 46.607 46.607 0 0 0-1.518-.245c-.049 9.176.47 18.355 1.614 27.46l.222 1.706c.62 4.608.113 9.065-2.938 12.248 4.22-2.805 9.048-4.748 14.4-5.493 14.09-1.961 27.138 3.669 36.005 14.559.415.509-.225 1.177-.729.729-8.605-7.657-21.866-9.012-32.553-5.407-9.894 3.337-17.332 11.304-20.313 21.273-3.168 10.594-1.717 22.29 4.06 31.734 2.878 4.705 7.035 8.911 12.237 10.98.642.256 1.296.469 1.957.654 3.14-1.148 6.519-.628 9.748.827l.419.197c2.06-.012 4.111-.075 6.104-.057 3.879.037 5.744 4.155 4.116 7.22.923 1.691 1.599 3.591 2.41 5.248 1.465 2.99 2.999 5.961 4.541 8.913 2.181 2.502 4.264 5.092 5.678 8.112a31.61 31.61 0 0 1 1.548 3.927 277.648 277.648 0 0 0 3.706 5.44c4.08 5.828 8.377 11.349 13.142 16.64 2.864 3.18 6.159 6.019 9.191 9.067.919.122 1.82.748 2.104 1.648l.248.861c.977 1.101 1.912 2.235 2.754 3.443 1.868 2.679 1.356 5.397-.285 7.356 2.599 16.216.829 33.468-2.648 49.192-2.248 10.16-4.873 20.311-8.396 30.112-1.791 4.982-3.96 9.768-6.957 14.144-1.643 2.398-3.783 5.191-6.183 7.473-.365 2.656-.839 5.29-1.518 7.872-8.051 30.597-41.007 39.912-68.6 43.82-5.327.753-10.598-.533-13.499-5.494a11.463 11.463 0 0 1-1.362-3.649 9.475 9.475 0 0 1-3.395-1.692 147.545 147.545 0 0 1-.626 5.786c-.63 4.862-7.194 6.324-8.839 1.196-6.942-21.642-10.713-44.461-15.47-66.7-4.747-22.192-10.048-44.266-14.953-66.424l-6.21-27.965c-15.155-68.476-29.349-137.828-25.865-208.255 1.902-38.444 8.956-76.788 24.054-112.314C13.163 90.573 34.39 57.324 68.678 51.273c.236-.041.446-.017.642.033 4.072-5.295 8.937-9.958 14.721-13.704Zm20.69 372.225c2.765 9.173 4.739 18.577 5.813 28.174 1.789 15.995.902 32.38.125 48.418-.715 14.734-2.412 29.596-5.301 44.064-2.773 13.892-7.119 27.512-13.58 40.149a96.388 96.388 0 0 1-3.348 5.986c3.573-1.191 6.8-2.577 10.16-4.499 4.228-2.42 8.098-5.54 10.215-8.831 3.398-5.279 4.538-11.144 5.035-17.436 1.278-16.182 1.869-32.412 2.684-48.621l.181-3.53c1.318-25.326 3.046-51.298.465-76.651-3.631-.954-6.907-2.827-9.93-5.177a79.776 79.776 0 0 1-2.519-2.046Zm-27.615-30.668c.763 7.704 1.493 15.409 2.154 23.12 2.345 27.371 3.794 54.894 2.461 82.36-.694 14.303-2.088 28.646-4.498 42.767-1.086 6.365-2.4 12.728-3.866 19.024l-.495 2.096c-1.489 6.236-2.438 14.03-7.206 18.565l.036.941c3.347-5.08 6.443-10.791 8.66-16.108 9.88-23.689 11.684-49.477 13.47-74.736 1.1-15.567 1.914-31.154 3.187-46.708l.618-7.485c.71-8.711 1.32-17.358 1.237-26.061-1.903-2.837-3.449-5.82-4.409-8.882a9.82 9.82 0 0 1-.334-1.489c-4.024-1.907-7.813-4.51-11.015-7.404Zm54.075 54.203c1.985 6.605 3.605 13.294 4.759 20.011 1.838 10.692 2.941 21.451 3.426 32.246l1.014-3.814c2.553-9.539 5.267-19.091 8.629-28.348-5.319-3.724-9.763-9.572-13.629-14.46a124.425 124.425 0 0 1-4.199-5.635Zm-76.17-293.739c-2.044 6.598-3.83 13.271-5.677 19.923-4.338 15.626-7.154 31.68-9.108 47.764-7.797 64.218-1.303 128.696 7.19 192.494 3.52 26.434 7.345 52.829 10.63 79.294.086-2.597.16-5.194.206-7.788.998-56.174-8.457-111.562-12.243-167.446l-.227-3.406c-1.716-26.129-2.766-52.746.34-78.78 1.598-13.4 4.414-26.514 8.161-39.462l2.23-7.606c1.508-5.114 3.11-10.364 5.012-15.455-.254-.488-.496-.98-.72-1.473-2.632-5.784-4.463-11.864-5.794-18.059Zm6.587-75.7c-19.626 25.304-36.095 52.183-46.059 83.099-22.804 70.756-17.713 146.417-4.498 218.539 6.227 33.982 14.257 67.568 21.584 101.314-7.843-60.599-17.957-121.065-19.567-182.247-.879-33.392.848-66.94 7-99.816l.363-1.933c2.637-13.894 5.902-28.615 12.587-41.101 3.63-6.78 7.637-13.107 12.39-19.163 2.003-2.554 4.253-4.602 6.64-6.475-.7-17.443 1.938-36.358 9.56-52.216Zm32.02 269.598c9.764.384 19.519 3.106 27.208 9.452 6.015 4.963-2.563 13.351-8.529 8.528-6.488-5.244-12.307-11.201-19.223-15.971-.824-.569-.598-2.054.544-2.009ZM77.43 307.506c-2.17 1.119-4.328 1.345-6.787.741a3.951 3.951 0 0 1-.261-.074l-.503-.163c.215 2.328.441 4.656.665 6.984 1.984-2.794 4.285-5.324 6.886-7.488Zm-9.719-140.491a280.296 280.296 0 0 0-1.727 21.741c-.291 7.078-.413 14.179-.446 21.282l-.009 3.044.013-.058a230.889 230.889 0 0 1 14.17-41.905c-1.045.174-2.105.146-3.149.02-2.388-.289-4.678-1.348-6.727-2.587a18.089 18.089 0 0 1-2.125-1.537Zm99.595-83.685c-4.173 1.886-8.203 4.054-12.391 5.897-8.305 3.656-16.431 7.906-24.117 12.731-7.778 4.883-15.271 10.024-22.162 16.114-.807.714-1.607 1.436-2.406 2.157a69.316 69.316 0 0 0-.331 4.75 58.91 58.91 0 0 0-.019 2.674c13.003-16.107 28.724-28.815 48.668-36.81 3.457-1.385 6.971-2.62 10.517-3.761a24.607 24.607 0 0 0 2.241-3.752Zm-.371-15.451c-2.319-3.078-8.985-2.827-13.188-2.141-6.796 1.11-12.782 3.486-18.607 6.926-6.885 4.064-12.824 9.57-17.471 16.046a112.421 112.421 0 0 1 6.996-3.637l1.63-.77c9.011-4.224 18.771-8.24 28.627-9.55 4.56-.605 9.464-1.482 14.071-.988-.227-2.24-.893-4.34-2.058-5.886Z"/></g></svg>