<svg xmlns="http://www.w3.org/2000/svg" width="474" height="567" fill="none" viewBox="0 0 474 567"><g id="head/Cornrows 2" fill-rule="evenodd" clip-rule="evenodd"><path id="✋ Skin" fill="#D08B5B" d="m154.012 59.337 8.637 10.271a275.317 275.317 0 0 0-13.544 10.16l-.003-.01c19.67-12.835 41.456-20.421 64.99-20.421 45.329 0 137.401 38.937 158.214 67.022 10.329 13.938 29.524 56.725 39.48 103.243 8 37.376 19.899 142.97 8 182.648-15.228 50.78-65.329 97.714-116.989 97.714-51.66 0-131.864-37.296-188.947-119.028-2.61-3.737-32.584-8.069-53.966-22.097l5.614 61.848 4.267 35.978-.942 2.56c-15.314 41.417-27.45 63.024-36.407 64.822-9.14 1.835-27.753-13.147-55.84-44.946l-3.588-15.064c-9.116-38.425-13.673-59.051-13.673-61.877l.006-.515c.134-6.503 2.375-43.312 2.42-53.217l.001-148.464C-8.052 109.546 20.774 59.337 48.218 59.337h105.794Z"/><path id="🖍 Ink" fill="#000" d="M82.439 25.138c8.881-3.44 19.17-2.79 27.6 2.39 16.551-.71 33.011 8.97 41.64 23.1.18.2.371.4.541.6l1.829 2.132c1.732 2.035 3.558 4.279 5.005 6.595-7.088.162-12.993 3.051-17.115 8.886-2.941 4.164 3.796 8.12 6.802 4.182l.106-.144c2.475-3.503 6.211-4.86 10.37-4.93 1.194-.02 2.1-.478 2.74-1.152.255.93.483 1.868.692 2.811 20.942-8.145 43.518-10.302 66.003-8.37a26.47 26.47 0 0 0-2.444 5.103c-.719 2.037.815 4.376 2.794 4.92 2.14.588 4.074-.666 4.849-2.604l.071-.19c.864-2.448 2.275-4.549 4.169-6.178 10.585 1.435 21.095 3.717 31.348 6.66 12.323 3.538 24.53 7.857 36.468 12.802-2.022.793-3.769 2.133-4.992 4.37-2.442 4.466 4.271 8.465 6.818 4.196l.09-.158c.25-.457.471-.733.633-.89l.058-.053.352-.162.656-.188.252-.061c.222-.05.314-.047.899-.08.778-.044 1.557-.04 2.336-.04 1.832-.002 3.001-1.023 3.53-2.329a384.59 384.59 0 0 1 17.42 8.392l1.358.703c17.634 9.214 34.341 21.314 44.032 39.117.641 1.19.84 2.49.681 3.73 2.069 2.48 4.069 5.04 5.989 7.64 5.86 7.96 10.15 17.01 14.21 25.98 8.17 18.04 13.67 36.57 17.96 55.89 4.151 18.62 7.5 37.44 10.611 56.26 3.449 20.91 6.319 42 6.92 63.21 1.06 37.81-6.331 75.84-27.561 107.67-18.939 28.4-47.459 50.95-81.28 58.17-34.4 7.34-70.8.18-97.909-22.74-4.371-3.69-3.77-11.14 0-14.92 4.27-4.26 10.569-3.67 14.919 0 25.53 21.59 62.69 24.92 93.451 13.92 28.44-10.18 50.719-33.66 64.389-60.03 16.68-32.16 19.491-69.1 16.93-104.68-1.399-19.54-4.31-38.92-7.31-58.27l-1.811-11.647c-1.975-12.616-4.051-25.215-6.758-37.703l-.634-2.909c-3.308-15.059-7.184-30.504-13.176-44.661-3.141-7.43-6.92-14.59-10.79-21.66a370.06 370.06 0 0 0-2.311-4.16c-1.06.37-2.27.43-3.54.03-10.93-3.4-22.16-5.68-33.589-6.44a147.941 147.941 0 0 0-15.631-.199c-8.917-.519-18.083.265-26.577 2.999a187.082 187.082 0 0 0-2.516-2.109 5.916 5.916 0 0 1-.682-.087c-2.167-.426-3.691-1.966-4.609-3.911a5.847 5.847 0 0 1-.132-.309 183.561 183.561 0 0 0-3.289-2.456c-2.696.699-5.058-1.544-5.694-4.002-.6-.405-1.21-.797-1.816-1.194a8.71 8.71 0 0 1-1.407.246c-1.985.143-3.902-.161-5.661-1.108-2.227-1.199-3.65-3.133-4.602-5.33-3.368.207-6.776-.886-9.787-2.862-2.444-1.603-4.316-3.816-6.177-6.025-22.678-10.115-47.33-16.087-72.04-17.617a98.958 98.958 0 0 0-7.238 1.673c-.565.154-1.367.456-2.29.818 5.509-.666 11.089-.732 16.748.083 26.854 3.883 47.769 23.989 65.77 42.968 4.282-.865 8.61 4.68 4.647 8.352l-30.897 28.631c.758 3.202-2.914 6.358-6.131 5.589a1579.205 1579.205 0 0 0-16.204-3.795c-5.64 2.729-12.731 2.262-17.847-1.694-.238-.184-.755-.478-1.204-.77-.42.347-.985.695-1.21.843-1.819 1.204-4.035 1.558-6.16 1.22-2.186-.347-4.159-1.456-5.86-2.837-1.083-.879-3.606-4.55-5.01-4.82l-.137-.016c.937.027-2.075 2.826-2.884 3.405-1.888 1.347-3.975 2.055-6.324 1.797-4.094-.45-7.614-4.181-9.616-7.626l-.151-.265-.063-.164-.053.178c-.01.031-.021.065-.035.102-.3.811-1.242 1.733-1.882 2.3-1.824 1.613-4.082 2.322-6.494 1.901-2.042-.355-3.758-1.588-5.138-3.081l-.215-.238c-.408-.46-3.098-4.074-2.673-4.94l.049-.073-.134-.028c-1.636.402-3.009-.001-4.015-.844-5.614-1.23-11.155-2.663-16.519-4.485-.42 1.18-.831 2.36-1.23 3.55 2.929 1.81 5.639 4.39 8.129 6.23 4.721 3.48 9.44 6.96 14.15 10.45l18.662 13.766 2.134-.573c2.727-.732 5.067.856 6.068 3.282l.082.21a18.205 18.205 0 0 0 1.437 2.987c4.665-.186 8.615 2.678 9.892 6.786a26.467 26.467 0 0 1 3.506.149c3.259.358 5.456 2.778 4.866 6.101l-.045.228-.079.37c1.889.802 3.259 2.351 3.563 4.693a8.883 8.883 0 0 1 1.175 2.511c1.363 4.785-1.289 10.698-2.701 15.281l-.109.359a660.766 660.766 0 0 1-2.794 9.006l-2.365 7.439c-6.556 20.732-12.948 42.591-7.642 64.325 1.131 4.6-4.75 6.68-7.3 3.08-6.182-8.716-12.861-16.929-19.874-24.813l-.34-.054c-4.911-.987-6.818-4.456-9.072-7.992a8.802 8.802 0 0 1-4.136.217c-1.998-.385-3.788-1.526-5.201-2.967-1.197-1.222-2.294-4.356-3.709-5.133-1.77-.971-5.328.417-7.442.105-1.719-.253-3.324-.843-4.881-1.584-2.862 3.901-4.759 8.487-5.224 13.431-.181 1.88-.741 3.47-1.551 4.79 2.98-.11 5.97.1 8.921.65 10.92 2.03 18.75 8.77 23.15 18.81.189.44-.381.8-.641.38-6.529-10.05-20.74-10.56-31.06-7.02-10.96 3.76-17.11 13.41-19.299 24.42-2.4 12.07.679 25.08 7.25 35.36 3.049 4.78 7.21 9.14 12.739 10.9 6.571 2.09 12.64-1.65 19.37.28 4.58 1.31 6.601 5.74 5.77 10.17-.33 1.74-.94 3.26-1.76 4.58 2.421 4.8 4.66 9.74 7.51 14.28 4.4 7.01 9.721 12.81 15.52 18.66 5.99 6.04 12.09 11.96 18.5 17.56 6.141 5.37 13.181 9.19 19.621 14.11 4.52 3.45 6.759 8.29 4.529 13.83-1.839 4.58-8.04 8.48-13.06 6.41-9.61-3.96-18.02-10.7-25.679-17.64-7.1-6.44-13.281-14.14-17.951-22.5-4.405-7.881-7.652-16.832-10.39-25.454l-.34-1.076c-1.29-4.1-2.649-8.71-3.529-13.36-5.27 2.88-12.421 3.3-18.06 2.52-9.111-1.25-17.421-5.84-23.701-12.53-2.927-3.113-5.514-6.664-7.748-10.513.203 2.343.324 4.61.454 6.673 5.221 5.718 7.315 13.97 5.462 21.499 4.368 4.496 5.592 11.245 3.312 16.991 4.781 4.742 4.601 12.288 2.534 19.141 5.652 6.317 6.187 16.158 1.774 23.286l-.133.512c4.456 7.456 3.451 17.092-2.132 23.676 3.813 7.396 3.223 17.344-6.306 20.214-3.473 1.045-6.839.153-9.358-1.793 2.3 11.439 3.329 23.052.262 34.544-1.221 4.56-5.681 7.89-10.371 7.89-3.92 0-6.77-1.97-8.739-4.87.23 5.77-.12 11.57-1.35 17.42-.742 3.533-4.019 6.288-7.498 7.141 1.255 1.415 1.755 3.462.552 5.593-5.101 9.03-17.426 5.285-18.259-3.366-3.481-2.598-5.099-6.864-5.769-11.473-.976-6.722-1.33-13.333-2.436-19.969l-.423.396-.218.188-.07.48c-.634 3.28-2.484 5.577-4.885 6.947.522 5.722-.444 11.549-4.074 15.894-2.418 2.896-6.537 4.036-10.068 3.408-.222.011-.449.01-.685-.021-7.997-1.063-12.624-8.648-10.519-15.61-3.22-3.946-4.576-8.953-3.623-13.901-6.231-4.126-6.104-13.188-3.946-20.467-6.532-5.155-8.989-14.792-5.707-22.451-5.887-7.311-6.706-17.499-2.706-25.824-6.477-5.321-6.44-15.594-.016-21.036-3.421-6.791-5.484-14.928-2.065-21.143-2.412-2.662-3.736-6.456-3.457-10.122.409-5.384 3.971-9.104 8.391-11.583l.306-1.684c1.038.129 2.144-.161 3.119-1.097a16.625 16.625 0 0 1 2.985-2.29 3.859 3.859 0 0 0 2.868-1.33c1.926-.654 3.997-.943 6.294-.969 4.961-.054 5.136-7.473.519-7.954a3.986 3.986 0 0 0-2.822-1.198l-.853.004c-1.993.019-4.006.142-5.856.934a6.577 6.577 0 0 0-2.808 2.237c-.127 1.434-.907 2.864-2.596 4.045-1.951 1.364-4.619 1.523-6.707.289-2.923-1.728-2.953-4.425-2.616-7.357.738-6.414-2.95-12.45-2.072-19.012.389-2.901 1.355-5.406 2.93-7.429-3.321-4.971-3.907-11.388-1.35-16.845-5.327-5.731-6.248-14.565-2.851-21.462.049-.167.087-.338.14-.503.384-1.172.913-2.229 1.496-3.24a16.494 16.494 0 0 1 .071-16.649c-4.591-5.352-4.737-13.869-.654-19.635.024-.478.074-.956.115-1.434-1.874-4.865-1.424-10.396.953-14.92a29.312 29.312 0 0 1-1.92-6.302c-1.071-5.78-.52-11.4 1.08-17.04.259-.89.549-1.78.859-2.67.052-3.863.199-7.709.393-11.548-.76-3.249-.883-6.821-.9-10.136l-.005-2.15c-.037-5.471-.418-13.482 3.041-18.133-2.221-5.024-1.308-11.354 2.399-15.336-2.602-4.475-3.148-9.97-.533-14.935.42-.799.907-1.543 1.441-2.247-.216-4.547.741-9.236 3.164-13.755 1.574-2.942 3.925-5.489 6.72-7.527a19.076 19.076 0 0 1-.066-1.798c.049-2.646.636-5.303 1.624-7.782-1.773-3.026-2.595-6.437-1.558-10.113 1.16-4.16 4.211-7.74 8.02-9.76.307-3.922.92-7.821 1.796-11.668-2.341-5.213-.477-12.093 4.814-15.164-.69-4.166-.068-8.486 2.964-11.74a11.646 11.646 0 0 1 3.96-2.788c-.702-4.189.09-8.547 2.987-11.958 2.366-2.785 5.872-4.477 9.44-4.726 1.374-7.286 8.335-12.734 15.679-12.3.918-3.208 3.111-6.005 6.513-7.423a11.164 11.164 0 0 1 2.628-.735c5.972-6.024 14.863-10.107 22.56-12.198 7.72-2.089 15.547-2.29 22.176.138l.483.182.54-.07c2.341-.26 4.68-.41 7.02-.47Zm-58.67 493.736c-2.062-.643-4.362.761-4.921 2.793-.59 2.148.724 4.276 2.794 4.921 2.579.804 5.288 1.005 7.976 1.007 2.161.002 4-1.84 4-4 0-2.171-1.831-3.998-4-4-2.186-.002-3.8-.082-5.849-.721ZM5.426 476.395c-3.083.003-5.727.739-8.013 2.899-1.524 1.441-1.562 4.224 0 5.658 1.578 1.448 3.867 1.532 5.486.154l.312-.28c.038-.034.067-.061.09-.084.13-.084.261-.17.399-.242l-.26.171c-.2.143.261-.091.52-.201l.081-.034.026-.006.207-.016c.383-.02.768-.019 1.152-.019 2.092-.002 4.096-1.838 4-4-.098-2.166-1.758-4.002-4-4Zm58.178-25.378c4.33-2.655.462-9.445-3.88-7l-.157.092c-2.226 1.366-4.964 1.181-7.486 1.182-5.147.003-5.156 8.003 0 8l.852-.003c3.697-.028 7.437-.286 10.671-2.271Zm-34.075-29.199c-3.271-.615-6.936-1.165-10.378-.79l-.571.071h-1.059c-.92 0-1.811.37-2.526.952-1.132.47-2.204 1.1-3.182 1.947-3.897 3.379 1.782 9.017 5.657 5.658.215-.187.465-.341.743-.467l.213-.09h4.279c.389 0 .768-.081 1.137-.198 1.389.191 2.683.466 3.56.631 5.032.947 7.188-6.762 2.127-7.714Zm-3.653-76.78c-6.27-2.908-13.214-2.887-19.013 1.151-4.147 2.888-.295 9.698 3.888 7.009l.149-.101c.52-.362 1.054-.665 1.594-.94 2.944.851 5.907.891 8.753-.155l.371-.143.221.086c4.64 2.152 8.708-4.741 4.037-6.907Zm68.277-12.534c-6.334-.71-6.385-10.716 0-10 13.481 1.512 25.713 7.505 34.672 17.797 4.167 4.786-2.695 11.789-6.94 7.216l-.131-.145c-7.124-8.184-16.738-13.65-27.6-14.868Zm-70.959-51.373c-1.408-.154-2.813-.231-4.196-.164-3.322.16-7.368 2.376-5.91 6.38 1.169 3.208 5.001 3.335 6.893 1.624.787.019 1.573.071 2.356.151 2.089.215 4.158.613 6.217 1.019 5.029.989 7.182-6.72 2.127-7.715l-2.236-.442c-.753-.147-1.514-.292-2.277-.424a3.95 3.95 0 0 0-1.47-.419l-.265-.01h-1.239Zm-39.745-62.065-.47-.063c-6.755-.864-17.598-.069-18.418 8.529-.453 4.762 6.427 5.061 7.785.989a52.11 52.11 0 0 1 14.971-.525c1.89-1.92 1.905-5.611-1.241-6.532-.444-1.194-1.371-2.217-2.627-2.398Zm154.405-14.523c-1.561-1.433-4.121-1.623-5.657 0a13.38 13.38 0 0 0-2.209 3.114l-.389.772c-.066.128-.134.255-.204.38-.131.233-.278.455-.421.681l-.096.095-.137.142c-1.439 1.521-1.622 4.168 0 5.657 1.561 1.433 4.12 1.623 5.657 0a13.418 13.418 0 0 0 2.209-3.114l.389-.77c.065-.128.133-.255.203-.381.131-.234.279-.456.421-.682l.159-.159.075-.078c1.439-1.52 1.621-4.168 0-5.657Zm-82.026-10.417c-5.636-3.994-12.338-4.18-17.519.625-3.739 3.469 1.755 9.025 5.525 5.776l.132-.119c.137-.128.276-.24.414-.347a3.847 3.847 0 0 0 2.517.942c.257.001.513 0 .769.006l.384.013.206.017.026.005.18.077c.329.148.783.377.16-.013.139.073.269.159.401.243l.23.209c1.508 1.426 4.117 1.614 5.614.037 2.651-.896 4.058-5.278.961-7.471Zm55.103-13.104.102-.033c4.942-1.411 2.841-9.132-2.127-7.715-5.271 1.505-7.788 6.41-8.842 11.434-.443 2.113.62 4.324 2.794 4.921 1.986.545 4.475-.67 4.921-2.794.313-1.493.673-2.76 1.244-3.936l.346-.672c.161-.306.218-.356.763-.833.092-.08.508-.273.799-.372ZM27.225 140.73l-.773-.176c-4.815-1.055-11.205-1.605-14.112 3.167-2.65 4.348 4.035 8.306 6.788 4.196.042-.001.09 0 .146.004l.091.01 1.234-.1c1.537-.011 3.008.261 4.499.614 5.006 1.185 7.143-6.527 2.127-7.715Zm172.836-30.754c3.645-3.645-2.01-9.304-5.656-5.656-2.883 2.883-5.664 5.786-7.538 9.449-.983 1.922-.502 4.34 1.435 5.473 1.787 1.045 4.485.495 5.473-1.435 1.624-3.175 3.674-5.217 6.286-7.831Zm-45.994-9.568c-3.601 2.132-5.932 5.644-7.347 9.709-.71 2.04.809 4.375 2.794 4.92 2.133.586 4.082-.663 4.849-2.604l.071-.19c.379-1.087.985-2.371 1.734-3.34.64-.827 1.635-1.655 2.385-1.93 1.803-.662 3.081-2.296 2.914-4.204-2.965 1.025-5.718-.208-7.4-2.361ZM46.27 83.008c-3.633-3.372-8.507-3.819-12.911-1.778-1.961.908-2.452 3.735-1.435 5.473 1.176 2.011 3.505 2.347 5.472 1.435-.505.234.407-.075.801-.188.05.024.71-.006.938-.003l.275.017c.002.002-.066 0-.202-.004a6.8 6.8 0 0 1 .569.155l.238.083c-.12-.025.42.327.57.444l.028.022c3.77 3.5 9.441-2.145 5.657-5.656Z"/></g></svg>