<svg xmlns="http://www.w3.org/2000/svg" width="474" height="567" fill="none" viewBox="0 0 474 567"><g id="head/doctor-nurse-2" fill-rule="evenodd" clip-rule="evenodd"><path id="background" fill="#8FA7DF" d="M195.323 463.406c-5.63 5.735-13.798 1.188-20.76-.078-59.772-16.268-123.93-65.923-135.857-125.977l-5.958-17.366c-2.123-3.517-3.756-14.203-3.225-15.103.462.094 3.803-2.224 4.256-2.112-4.256-31.435-3.441-59.313 8.736-99.257-20.228-13.853-6.584-37.072 13.81-35.754.263-13.437 4.054-23.525 14.922-37.769 42.307-52.77 115.568-73.62 183.852-69.48 52.762 1.683 87.78 14.245 111.21 39.863 11.971 10.274 21.161 21.481 20.332 36.222l5.327.12.154 2.148c5.714-2.37 70.157 15.08 71.633 22.198l-1.813 2.366c2.423 4.225 2.564 7.637 1.35 13.423-2.311 10.872.136 22.646-.474 33.409-.554 1.835-8.883 3.792-12.066 4.127-15.344 3.681-31.618 7.881-48.489 10.296.831 37.652-3.499 76.197 10.147 112.669l6.117-5.221c10.264 73.688-16.535 184.61-102.645 183.543-42.301-.818-85.41-30.932-120.559-52.267Z"/><path id="✋ Skin" fill="#D08B5B" d="M147.878 366.793c-6.293-6.595-3.805-23.219 6.736-14.259 3.258-2.711 7.681-2.217 11.574-.851 10.64 3.924 21.611 7.065 32.983 7.813 4.03-2.035 9.504.088 14.194-.994l.438-.111c3.01-.837 5.699 2.002 4.955 4.954-1.213 3.02-.676 7.778-3.736 9.554-3.858 16.357-7.946 32.508-11.897 48.828 3.072 5.727-.555 12.819-2.044 18.741l-.467 2.404c-2.24 11.253-6.969 29.684-20.641 19.974-6.629-.385-13.05-2.994-17.667-7.934-4.83-4.784-2.419-10.701-4.469-16.206l-.624-2.786c-5.071-22.758-9.51-45.646-9.335-69.127Zm.036-80.294c1.162-6.978 4.745-74.274 17.907-58.55l.021-.003c-.03-.502.046-.37.159.018.15.031.28.113.388.222 30.254-1.704 60.118 6.302 90.359 7.131 31.558 2.927 63.848.17 95.095 1.01 16.261-2.141 32.38-4.775 48.108-9.521 4.059-1.161 6.1 3.613 4.089 6.279 3.195 16.926-1.725 34.502.027 51.684.534 13.682 1.867 27.41 3.521 40.894 2.143 8.049-8.055 16.288-12.255 6.905-48.137-20.065-75.348-9.045-122.758 2.256.703 6.96-53.908 9.556-57.566 4.243-19.535-.839-39.11-2.68-58.353-6.214-8.27-.298-10.756-5.962-7.893-13.182-.098-11.304-2.888-21.728-.849-33.172Z"/><path id="😷 Face Mask" fill="#fff" d="M408.716 339.589c-40.357-12.426-83.705-18.4-123.617-1.506-13.405 3.193-27.031 5.705-40.817 6.443-6.821.591-15.074-1.628-20.921 2.719-39.54-4.933-76.721-13.462-115.442-22.849-5.797-1.406-26.01-8.483-31.145-9.369-14.236-2.455-53.772-25.446-50.637-3.605-.422 7.053 2.104 13.728 9.92 14.589 61.38 12.165 122.375 26.159 184.814 32.96.699 2.316 1.782 4.567 2.779 6.772-5.011 30.855-14.126 61.071-24.49 90.529-19.575 11.299 22.127 25.251 31.081 27.787 7.845 4.989 16.033 9.422 24.234 13.791 25.581 15.152 57.79 28.72 85.629 11.07 12.789-4.138 23.317-12.229 32.403-21.722 29.189-33.777 50.346-95.974 41.865-140.167-.369-2.708-1.834-9.53-5.656-7.442Z"/><path id="🖍 Ink" fill="#000" d="M462.543 173.36c-3.849 11.9-5.446 25.11-4.25 37.64-125.66 33.43-257.856 25.738-382.25-9.411 5.898-8.85 7.383-20.836 3.18-30.679 102.736 37.314 216.443 40.665 323.64 23.322 19.17-3.262 45.28-5.893 59.71-20.962l-.03.09m-306.14 54.79c-9.434 32.791-14.291 67.361-14.76 101.41-3.25-.62-6.51-1.27-9.76-1.94-.509-35.467-.584-71.072-4.71-106.33 9.836 2.397 19.544 4.523 29.41 6.5-.07.11-.13.23-.18.36m45.87 224.26c7.702-26.002 16.821-52.668 19.422-79.849.4-3.014.591-6.062.617-9.165.138-3.639.139-7.287-.004-10.943.237-1.109.49-2.092 1.12-2.908.333-.209.624-.492.856-.819.182-.131.376-.257.598-.373 4.332-2.284 12.372.08 17.271.31 10.651.499 21.994.759 32.155-2.896.404-.144.688-.395.873-.688 28.884-5.54 57.777-16.832 87.032-10.368 16.712 2.734 35.392 12.502 52.37 8.42-.596 21.545-.839 43.209-4.14 64.548-9.83 74.557-65.04 127.737-140.841 93.538-24.687-9.99-47.769-23.562-72.329-33.878 2.8-4.199 3.9-11.419 5-14.929m-52.97-68.83c-.782-9.237-1.008-18.519-1.21-27.78 22.386 2.338 45.705 6.829 67.98 5.456-.072 1.765-.151 3.411-.129 4.78.007.45.017.898.026 1.347-6.227 32.06-16.248 63.32-27.737 93.857-8.018-1.609-15.967-3.622-23.7-6.3-8.225-23.013-13.428-46.959-15.23-71.36m-17.38-38.14c.01-3.5.01-7 0-10.5 27.266 5.953 54.918 9.989 82.691 12.622.832 1.744 1.256 3.849 1.438 6.076a5.018 5.018 0 0 0-1.429-.257c-27.72-1.021-55.31-3.702-82.7-7.941m11.61 9.72c-3.236 35.293.399 63.019 10.12 95.67-8.31-3.51-16.34-7.72-24.01-12.47 1.26-28.32 2.04-56.67 2.23-85.021 3.88.641 7.77 1.25 11.66 1.821m260.79-25.24c-14.34-1.363-27.941-6.581-42.14-8.76-47.928-8.264-91.459 22.497-139.04 20.11-2.22-1.809-5.95-1.45-8.6-1.671a709.814 709.814 0 0 1-64.74-8.529c2.611-34.098 4.947-68.689 9.55-102.74 80.41 15.803 163.652 16.735 244.44 3.07-6.374 32.443-7.615 66.287.53 98.52m42.41 24.91c.01 53.408-3.128 106.827-6.62 160.019-97.953 51.992-220.443 42.414-313.91-15.09 1.07-15.989 2.01-32 2.81-48.019 11.497 6.913 54.371 26.883 65.86 19.83 20.937 13.798 43.077 26.014 65.78 36.641C363.211 558.863 425.728 469 425.021 373.387c-.294-6.598 4.381-46.723-5.648-47.259-.742-.285-1.526-.504-2.228-.794-1.051-.436-2.087-.772-3.187-.752-8.692-30.374-5.482-62.619-6.065-93.892 12.59-2.161 25.131-4.692 37.55-7.67-1.268 43.929 2.189 87.855 1.29 131.81m-324.35-29.29c-29.744-6.835-58.253-18.06-88.08-24.611.722-29.834 1.064-60.025 10.09-88.779 10.85 4.273 22.89.499 30-8.34 16.02 7.3 33.17 12.58 50.42 16.89-2.66 34.8-1.75 69.96-2.43 104.84m-.41 18.29c-29.49-4.668-58.177-12.318-87.31-18.741-.18-.299-.55-.469-.97-.229-1.051.209-2.234-.142-3.31-.04-3.193-4.691-2.583-10.442-3.221-15.57-.02-3.19-.94-4.991 2.45-4.47 31.353 7.656 61.134 20.728 92.621 27.97-.09 3.69-.17 7.381-.26 11.08m-3.09 87.36c-32.876-22.197-54.587-55.374-74.445-88.841-1.242-3.986-2.893-7.886-4.896-11.366a25.22 25.22 0 0 0-.837-1.357c26.657 10.591 54.976 16.512 83.068 21.954-.69 26.551-1.62 53.09-2.89 79.61m-77.79-256.95c1.519-1.664 3.268-3.02 5.156-4.106a53.98 53.98 0 0 1 4.318-.574c4.882-.438 12.878-.64 16.147 3.778 1.808 2.442 2.57 6.132 2.976 9.572.017.447.02.892-.007 1.34-1.658 33.765-49.246 15.787-28.59-10.01m37.25-7.45c100.755 9.936 203.098-5.402 301.99-24.63 25.856 4.079 52.8 7.889 76.29 21.15-11.47 14.76-36.28 16.539-53.1 19.369-108.35 19.505-218.895 8.67-325.47-15.609.09-.1.19-.189.29-.28m187.471-88.049c33.612-1.59 70.362 3.537 96.909 25.608 8.571 8.535 14.309 19.483 22.17 28.321-99.994 23.16-202.901 30-305.29 32.919C128.29 115 194.848 80.643 265.814 78.741m203.413 88.757c.038-.151.071-.303.082-.464.053-.736.032-1.517.005-2.255a9.975 9.975 0 0 0-.067-.854c5.407-11.471-42.024-24.452-63.173-28.536-1.985-.786-4.056-1.401-6.004-2.028-2.674-.86-5.438-1.793-8.242-2.127-.977-14.041-11.331-24.926-22.005-34.384-29.172-31.786-73.694-40.067-115-41.369-69.277-3.949-143.652 16.11-188.75 71.759-8.02 10.426-14.96 22.478-15.85 35.84-21.6 1.677-33.325 28.653-15.05 43.59-8.495 29.429-12.671 61.433-4.723 91.437-1.442.367-2.823.956-4.008 1.867-.043.033-.08.071-.12.106-5.527 2.052-2.807 13.332-1.39 18.26.767 3.192 2.897 8.869 6.488 8.953 3.446 3.953 5.768 8.798 8.029 13.665 9.712 39.44 46.48 82.241 78.744 103.952-1.02 19.33-2.23 38.64-3.54 57.939-.14 1.981 1.18 3.91 2.81 4.901 97.878 60.415 226.715 72.629 328.81 15.349 8.45 2.684 11.983-8.867 6.62-12.638 5.793-95.872 10.072-193.04-3.07-288.471 4.797-1.66 15.04-2.499 17.291-7.219 3.615-8.437-.403-18.812.79-27.932-.184-6.016 2.711-13.429 1.323-19.341"/></g></svg>