<svg xmlns="http://www.w3.org/2000/svg" width="474" height="567" fill="none" viewBox="0 0 474 567"><g id="head/doctor-nurse-3" fill-rule="evenodd" clip-rule="evenodd"><path id="background" fill="#8FA7DF" d="M309.785 532.983c-36.157 0-82.943-27.81-110.923-44.448-.236-.146-.625-.379-1.042-.629-.51-.306-1.069-.64-1.338-.812l-1.301-.832-3.506-.23a136.367 136.367 0 0 1-10.463-1.091l-1.066-.151-1.051.229c-.286.063-.6.141-.928.225-.213.054-.513.132-.7.171h-.007c-.176-.07-.608-.272-1.353-.818l-.993-.726-1.198-.279c-7.562-1.751-13.05-3.793-17.793-6.621l-.924-.551-1.058-.196c-10.144-1.874-21.292-22.977-27.281-34.314-.948-1.794-1.821-3.447-2.612-4.893l-2.73-4.991-5.129 2.46c-7.069 3.392-14.496 5.111-22.073 5.112-25.96.002-51.159-20.243-59.916-48.138l-.033-.103c-4.027-12.067-4.127-24.976-4.2-36.381.677-16.496-1.565-34.833-22.999-46.071-14.974-8.942-21.513-20.068-18.417-31.342 4.034-14.684 22.964-25.758 44.033-25.758 1.082 0 2.182.029 3.27.084l5.566.286.695-5.53c1.14-9.064 2.105-11.717 8.321-14.952l3.238-1.686-.009-3.651c-.047-18.741-6.308-36.076-12.362-52.84-8.827-24.441-17.165-47.528-5.207-72.353 13.77-25.765 36.935-47.023 67.002-61.484C131.427 26.151 164.177 19 198.008 19c27.152 0 53.627 4.751 76.563 13.737l.151.058c58.43 21.096 126.325 73.492 137.372 138.697 3.922 27.625-.396 55.911-4.598 77.475l-.074.379c-.336.439-1.032 1.138-1.476 1.584-.771.776-1.569 1.576-2.261 2.514l-1.717 2.323.746 2.792c8.194 30.655 11.164 58.692 8.829 83.33l-.135 1.42.519 1.327c3.479 8.917 2.911 17.705 2.254 27.88-.317 4.9-.644 9.965-.51 15.307.065 35.598-9.045 71.166-24.998 97.588-12.995 21.524-36.95 47.246-77.274 47.554-.591.013-1.104.018-1.614.018"/><path id="✋ Skin" fill="#D08B5B" d="M410.58 342.019c-7.236-40.03 1.116-100.282-27.295-131.482-6.693-28.916-13.194-51.565-46.376-57.246-63.435-8.792-131.828 20.077-173.591 67.956-46.539 46.394-71.753 236.382 6.093 261.297 4.403 1.371 10.751-.828 12.799-5.209 20.134-38.885 31.117-80.985 41.808-123.107 33.087 8.352 65.734-6.584 98.266-11.18 18.507-3.078 37.431-2.253 55.499 2.858 7.276 2.058 16.174 6.449 23.101 1.904 4.021 1.765 10.337-.548 9.696-5.791"/><path id="😷 Face Mask" fill="#fff" d="M415.791 373.007c-.583-4.828-1.58-9.989-4.92-13.733-2.592-9.27-16.226-8.084-23.826-10.951-22.823-4.816-46.48-6.611-69.544-2.424-15.939 1.994-31.221 6.705-46.731 10.611-14.739 3.587-31.238-.538-45.171 5.925-39.142-20.262-74.525-46.097-110.044-72.028-22.198-15.282-46.195-28.899-63.053-50.443 1.761-4.87-4.384-10.63-7.693-5.141-5.48 10.804-.084 27.205 12.329 30.184 3.305 4.567 7.111 12.169 13.429 12.252 9.338 8.437 16.506 19.26 28.805 23.87 15.644 9.978 31.048 20.234 46.71 30.168l15.863 10.021c4.566 2.884 10.298 8.082 16.01 6.374 13.01 7.959 26.657 14.829 40.003 22.2-2.941 25.734-4.087 51.886-15.878 75.613-2.111 8.38-18.272 25.643-14.049 32.016-1.359.087-7.874 1.057-6.374 2.443 7.03.613 13.047 5.13 19.284 8.084 35.772 16.248 90.921 58.157 130.358 36.205 21.408-.311 34.316-17.367 47.701-31.37 15.179-14.961 22.46-35.29 27.377-55.573 5.372-20.95 11.335-42.488 9.414-64.303"/><path id="🖍 Ink" fill="#000" d="M32.411 99.247C78.452 17.12 192.617-1.95 275.731 28.997c62.624 23.794 126.733 72.79 139.953 141.823 3.728 26.088.391 53.174-4.617 78.881-.518 2.664-3.036 4.508-5.659 4.897 7.958 28.773 12.562 58.58 9.681 88.404l.015.035c2.355-.333 4.395.221 5.369 2.541.745 1.777.077 4.344-.066 6.189-.202 2.612-.376 5.227-.588 7.839-.224 2.771-.831 5.298-1.677 7.792-.326 7.03-1.03 14.085-.829 20.225-.852 58.569-22.819 131.645-86.999 147.214-52.95 10.219-103.569-24.841-146.588-51.408-1.004 1.6-2.261 3.071-3.156 4.162-4.036 4.919-10.735-1.26-8.226-6.367l-.104-.061c8.635-10.286 15.784-21.503 21.676-33.348 2.972-12.267 9.174-23.479 13.197-35.56 2.59-7.775 4.455-15.784 4.915-23.984.325-5.771-.087-11.542-.149-17.321a38.637 38.637 0 0 0-1.047-1.376c-8.151-.418-17.533-7.307-25.079-10.054a545.01 545.01 0 0 1-59.162-33.129c-1.844 38.681-13.666 81.257 10.253 115.666 4.913 8.261 10.71 15.963 17.099 23.132 2.285 2.729 2.824 4.868 3.877 8.096 1.135 3.481-2.717 7.922-6.401 6.401-12.773-3.976-26.49-31.387-32.019-43.497-22.892 15.092-53.605 5.501-71.06-13.251-16.913-17.087-23.162-41.331-22.537-64.825l.021-.712c.768-28.482-4.279-35.223-28.015-49.848-19.728-13.288-17.643-38.592 1.95-50.864 11.322-6.826 26.517-10.352 39.648-7.751-2.046-7.714.467-18.964 9.592-19.827-.779-4.67-.957-9.631-.35-14.375-5.094-39.402-35.77-75.75-16.238-115.489Zm327.093 249.691c-44.359-9.775-87.681 21.121-131.685 11.16l-1.388.627c-1.382.635-2.724 1.343-3.815 2.547-1.314 1.451-2.145 3.197-2.38 5.149-.15 1.244-.039 2.069-.364 2.96.204 3.689.25 7.381.153 11.067.795 7.811-.669 16.258-2.56 23.673-4.967 26.518-16.638 52.045-31.575 74.106 26.076 10.064 50.057 24.862 76.01 35.224 75.802 34.182 131.002-18.977 140.84-93.54 2.963-19.291 3.506-38.854 3.962-58.337.037-1.703.102-3.416.151-5.133-16.707.228-31.418-6.439-47.349-9.503Zm-318.66-95.321c-18.848-.138-45.025 8.659-45.886 28.653 1.293 17.092 22.887 19.664 32.516 31.021 25.393 29.189-.104 71.191 35.378 101.467 14.635 13.513 34.17 16.869 51.275 5.861-4.128-18.494-2.57-37.381.65-56.109.009-4.815.192-9.627.621-14.431.405-4.547.989-9.048 1.686-13.553l.436-2.784c.585-3.853 1.094-7.937 2.876-11.404-11.266-7.443-22.218-15.416-32.778-23.775-.13 1.93-.223 3.859-.299 5.788.403 3.637.273 7.408-.193 10.893.053 18.694 1.887 37.334 2.737 56.016.014 3.164-4.415 3.572-5.34.722-4.046-12.459-4.369-25.566-3.848-38.566.186-4.638.552-9.283 1.11-13.908-.775-4.93-.878-9.797-1.44-14.799-.533-4.721-1.906-9.297-2.565-13.984l-11.263-9.057c-9.88-7.941-20.929-15.897-25.674-28.051Zm9.978-14.908-.549-.572c-1.628-1.689-4.144-4.17-5.026-3.708l-.076.05a.288.288 0 0 1-.399-.026c-6.499 12.049 6.04 25.778 15.25 32.998 44.846 37.233 94.193 69.404 147.935 92.229 1.874.508 4.543 2.054 6.177 3.869.307-.035.603-.092.882-.177.3-.157.585-.343.837-.569-53.933-30.807-106.438-66.705-151.168-110.198-3.974-2.642-7.37-5.477-9.99-8.974-.07-.027-.139-.051-.209-.086-1.837-.922-2.949-2.821-3.664-4.836Zm305.917-76.138c-35.907-14.403-78.358-7.563-114.104 4.659-45.852 16.415-81.751 51.919-104.198 94.462a326.274 326.274 0 0 0-2.324 6.138c.569 4.895-2.003 10.455-3.11 15.068-.909 3.791-1.181 7.442-1.444 11.307l-.058 1.008c-.036.541-.092 1.049-.248 1.521 28.99 21.037 59.529 39.85 89.805 58.826 47.376 2.003 90.686-28.372 138.417-20.173 15.618 2.402 30.663 8.519 46.561 9.03 5.815-55.035-14.614-107.593-35.058-157.723l-2.429-5.955c-2.724-6.742-5.501-14.049-11.81-18.168ZM292.392 46.848c-65.595-30.357-146.058-31.186-206.128 8.996-42.109 26.921-64.213 64.031-41.727 112.679 6.912 16.563 10.707 32.219 9.322 49.627l.514 3.507c.458 3.117.947 6.226 1.69 9.278 1.232 5.067 4.286 9.787 7.284 14.354 19.862 15.259 39.592 30.703 59.799 45.494 19.946-99.286 130.978-164.281 227.993-140.763 6.491 1.365 11.551 4.627 15.615 8.958 5.124 2.427 9.929 5.499 13.84 9.561 1.682 1.747-.581 4.95-2.67 3.46a156.32 156.32 0 0 1-4.233-3.151c2.578 4.773 4.597 9.957 6.348 14.985 6.986 16.969 13.771 33.965 19.496 51.407l.808-5.452c3.102-21.096 5.748-42.341 1.651-63.531-15.024-49.72-51.781-88.87-97.304-113.263-3.811-.412-7.608-.982-11.454-1.166-5.906-.283-11.806-.094-17.703-.525-.498-.037-.546-.65-.113-.828 5.003-2.058 10.952-3.297 16.972-3.627Zm-79.526 72.314c26.071-9.639 54.908-16.667 82.762-13.713 3.106.826 3.412 5.964 0 6.6-7.357 1.369-15.403.324-22.9.828-64.109 2.768-121.374 43.591-158.789 89.416 21.404-38.507 58.288-67.133 98.927-83.131ZM127.199 81.94l2.12-1.063c11.24-5.599 24.157-11.33 36.821-9.18 3.624.616 3.534 5.583.952 7.284-10.182 6.704-22.938 8.937-33.97 14.053l-.891.422c-34.198 15.915-59.59 45.659-78.042 77.873-.31.529-1.05.154-.942-.399 7.866-39.538 38.974-70.932 73.952-88.99Z"/></g></svg>