<svg xmlns="http://www.w3.org/2000/svg" width="474" height="567" fill="none" viewBox="0 0 474 567"><g id="head/doctor-nurse-2" fill-rule="evenodd" clip-rule="evenodd"><path id="background" fill="#8FA7DF" d="M422.69 196.993c-2.275-4.497-2.874-3.813 1.056-7.8 14.431-21.718-21.723-38.471-16.049-61.416 3.582-23.528-23.342-31.724-35.509-49.507-8.307-21.732-12.78-38.584-38.659-37.691-16.423-2.913-33.533 15.057-46.961 7.974-4.846-3.515-6.016-8.31-7.753-12.6-14.638-43.241-66.712-20.227-87.818 8.627-8.571 12.465-27.564 15.456-39.61 3.909-22.679-17.467-54.472-2.581-60.89 23.935-9.165 28.369-25.328 34.107-52.89 33.257-29.13 6.231-26.808 41.992-8.226 59.31 15.756 29.99-31.021 32.717-21.927 71.264 1.993 10.212 6.579 20.8 12.89 30.08.792 5.318 2.659 10.445 5.39 15.082 1.258 2.133 2.733 4.152 4.31 6.06a8.815 8.815 0 0 0-.95.554c-3.645 2.475-5.4 7.052-4.102 11.323a10.715 10.715 0 0 0 1.944 3.619c-2.663.652-5.194 1.668-7.272 2.873C13.04 309.681 9.036 317.03 8.3 324.523c-13.85 19.575-14.952 51.927 4.229 64.911 9.437 6.557 22.17 10.107 27.389 22.349 4.594 11.313-3.72 20.037 1.2 30.638 16.278 36.333 75.818 25.844 98.748 2.476 36.636 55.067 106.756 56.606 166.396 60.66 76.431-3.519 124.866-103.647 101.023-169.593 0 0-.881-2.525-.878-2.525 7.982-24.469-.764-52.698-.271-78.046 22.367-.757 26.031-42.055 16.554-58.4"/><path id="✋ Skin" fill="#D08B5B" d="M133.104 340.028c-.401-2.459.96-5.1 4.099-4.78 13.821 1.37 27.641 3.201 41.271 5.891 31.238 2.381-17.365 82.592-26.891 95.051-12.043 12.673-18.65-40.406-19.45-47.682l-.421-6.168c-.941-14.095-1.594-28.472 1.392-42.312Zm6.27-41.972c25.587-102.949 168.972-167.779 257.32-102.808 3.55 3.54-1.95 9.03-5.5 5.5a56.542 56.542 0 0 0-5.42-4.71c24.364 33.66 15.488 78.997 20.23 118.021 6.102 5.484-1.021 12.843-7.71 10.229-12.21-3.04-24.06-6.91-36.47-9.26-16.998-3.157-34.422-4.029-51.59-1.68-7.582 9.724-32.019 12.577-44.25 16.29-29.065 7.317-59.631 8.138-88.64.129-13.609-2.254-27.102-8.501-40.584-10.738-4.502-.392-2.565-5.817-1.32-8.382l.096-.859c.47-4.043 1.265-8.488 3.838-11.732Z"/><path id="😷 Face Mask" fill="#fff" d="M412.588 354.647c-2.116-23.863-26.561-33.04-47.469-34.1-17.55-5.306-36.325-2.79-53.728 2.036-33.657 4.778-65.988 16.369-99.936 19.572-5.861-6.202-16.212-5.826-24.207-7.938-23.482-5.122-46.796-10.985-70.078-16.943-15.531-3.963-30.94-8.338-46.386-12.615-13.304-5.259-30.379-4.759-40.552-15.535-1.12-1.017-2.825.284-2.106 1.705-9.627 17.772 146.535 51.073 164.908 54.639 5.105 26.403-9.308 55.565-22.7 77.735-2.845 4.016-6.038 7.78-9.486 11.292-3.74 3.341-16.856 12.834-6.563 15.51 10.613 22.091 35.561 30.881 57.957 36.283 40.179 14.22 83.822 22.91 123.893 3.408 31.14-9.339 42.52-24.125 55.581-52.83 12.567-25.424 24.427-53.274 20.872-82.219"/><path id="🖍 Ink" fill="#000" d="M240.478 6.181c12.918-1.142 27.321 3.14 36.091 13.041 3.662 4.134 5.649 8.839 7.548 13.81l1.611 4.255c.938 2.455 2.122 5.236 4.224 6.716 3.376 2.38 7.653-.37 10.811-1.869 21.044-9.986 54.733-12.85 67.934 10.98 3.975 7.174 4.659 15.715 8.863 22.734 2.889 4.824 7.386 8.551 11.803 12.005l3.172 2.471c10.132 7.941 19.434 16.139 21.156 29.782 1.043 8.266-.843 17.234 2.728 25.026 3.352 7.314 9.663 12.765 13.492 19.767 4.906 8.971 5.416 22.353-1.584 30.149 10.805 21.673 6.355 49.496-11.121 66.546-1.34 1.307-2.84 1.86-4.295 1.87l.402 7.019c.338 5.848.692 11.696 1.156 17.532.671 8.441 1.292 16.896 1.458 25.364l.025 1.325c.122 7.036.038 13.578-2.691 20.13 9.39 26.939 7.338 59.006-.748 85.745-7.679 25.396-22.649 48.305-42.909 65.444-10.198 8.627-21.516 16.439-33.809 21.766-11.104 4.812-22.505 6.377-34.554 5.854-14.915-.647-29.857-2.257-44.683-4.052l-7.517-.92c-13.471-1.662-27.017-3.474-40.17-6.799-14.17-3.582-27.595-9.455-39.728-17.618l-1.477-1c-10.837-7.387-21.791-15.974-29.482-26.654-4.666 4.331-10.897 7.41-16.376 9.569-11.454 4.512-24.293 7.035-36.555 7.76-20.842 1.231-43.139-7.057-51.28-27.766-1.701-4.328-2.435-8.921-2.029-13.564.488-5.559 3.209-11.458.895-16.901-4.225-9.944-17.046-13.485-25.103-19.457-17.314-12.832-21.485-36.281-14.543-55.902 3.367-9.518 8.975-18.717 15.384-26.509 4.398-5.347 10.318-9.421 16.855-9.867-3.729-5.025-3.532-14.861 1.372-17.357-4.54-4.013-8.492-8.607-11.899-13.902l-.823-1.285C7.65 261.316 1.596 250.372-.11 238.422c-1.957-13.703.412-28.982 9.772-39.675 7.302-8.344 21.394-16.15 13.215-28.77-4.329-6.678-9.633-11.755-12.655-19.347-2.917-7.329-3.745-15.322-2.151-23.062 2.8-13.587 13.917-25.164 27.687-27.599 8.531-1.509 17.498.255 25.89-1.976 6.071-1.615 10.575-5.745 13.894-10.945 6.617-10.369 9.394-22.705 16.192-32.985 7.924-11.983 20.682-18.374 34.971-18.75 7.264-.193 14.737 1.093 21.248 4.377 6.605 3.33 12.803 9.78 20.395 10.713 6.898.847 12.613-4.947 16.963-9.484 4.955-5.17 9.696-10.41 15.108-15.13 11.356-9.903 24.729-18.255 40.059-19.608Zm124.1 316.283c-13.725-2.598-27.96-2.998-41.815-1.206-25.133 3.251-48.445 14.175-73.3 18.708-19.51 3.558-39.261 2.187-58.682-1.121 2.154 4.791 2.464 11.68 1.586 17.656.255 13.719-2.852 27.418-8.202 40.305-4.12 9.921-9.688 19.226-16.18 27.773-3.236 4.261-6.679 8.356-10.375 12.227a133.83 133.83 0 0 1-8.401 8.067l-.597.515c11.885 7.949 21.634 18.686 33.805 26.387 12.586 7.964 26.252 12.65 40.784 15.649 13.194 2.724 26.611 4.525 39.987 6.128l9.662 1.15c10.978 1.3 22.059 2.513 33.068 2.699 22.5.383 42.793-12.67 58.983-27.322 18.367-16.623 33.215-37.408 41.225-60.975 3.208-9.437 5.386-19.226 6.534-29.129.176-7.181.24-14.353-.722-21.603-.698-5.256-1.802-10.406-3.424-15.457-.561-1.745-1.367-3.418-2.211-5.076-1.114-.389-2.084-1.087-2.652-2.076l-.126-.039-4.649-1.951c-11.198-4.678-22.192-9.016-34.298-11.309ZM28.357 306.401c-9.767 1.521-16.363 12.86-20.749 20.717-5.482 9.82-9.573 20.096-9.098 31.545.359 8.635 3.442 17.582 9.067 24.222 6.237 7.36 15.5 10.317 23.18 15.759 6.752 4.785 12.641 11.58 13.299 20.164.378 4.945-1.316 9.615-1.641 14.492-.261 3.907.486 7.854 2.084 11.427 8.211 18.356 30.977 20.989 48.478 18.486 8.824-1.262 17.914-3.219 26.218-6.524 3.726-1.482 7.418-3.397 10.571-5.892a25.02 25.02 0 0 0 2.007-1.792c-1.159-2.092-2.066-4.39-2.927-6.1-2.497-4.965-4.675-10.103-6.559-15.33-3.752-10.415-6.234-21.264-7.826-32.209-1.629-11.199-2.432-22.468-2.465-33.783-.016-5.44.02-10.885.454-16.307l.129-1.478c.247-2.635.393-5.403.889-8.063a520.227 520.227 0 0 1-61.253-19.239l-3.053-1.181c-4.446-1.75-11.371-4.689-16.862-8.509-1.482.286-2.796.107-3.943-.405Zm89.83 30.475c.158 1.919.178 3.863.241 5.777l.044 1.145c.26 5.643.242 11.291.444 16.937.391 10.901 1.116 21.852 2.77 32.639 1.634 10.661 4.126 21.214 7.799 31.363a122.034 122.034 0 0 0 6.543 14.926c.426.818.963 1.664 1.527 2.531.084-.136.177-.265.267-.398l-.62-1.972a61.78 61.78 0 0 0-.322-.975 234.285 234.285 0 0 1-4.542-14.85c-2.577-9.55-4.573-19.281-5.792-29.1-1.293-10.405-1.789-20.919-1.534-31.4l.098-3.94c.188-6.73.598-14.153 2.592-20.528a505.157 505.157 0 0 1-9.515-2.155Zm12.971 2.892c.595 8.06-.602 16.679-.549 24.636.065 9.92.815 19.825 2.247 29.642 1.43 9.814 3.397 19.525 6.054 29.083a234.99 234.99 0 0 0 4.236 13.591 49.718 49.718 0 0 0 1.845-1.537 134.54 134.54 0 0 0 11.566-11.55 124.944 124.944 0 0 0 17.728-25.968c7.879-15.4 12.241-32.181 12.842-49.334-7.541-.281-15.191-1.537-22.677-2.684l-2.799-.423a525.305 525.305 0 0 1-26.718-4.672c-1.26-.254-2.517-.52-3.775-.784Zm152.197 30.26c2.986-.672 6.033 2.586 4.182 5.439-5.981 9.225-20.608 12.799-30.838 14.249-11.847 1.679-23.331.355-34.585-3.686-.603-.217-.56-1.283.162-1.197 10.686 1.272 21.702.341 32.086-2.486 5.104-1.389 10.159-3.2 14.893-5.566 4.656-2.327 8.96-5.596 14.1-6.753ZM91.597 355.529l2.98.027c2.508.043 5.123.262 7.013 2.068 6.191 5.914-3.652 12.278-7.679 15.661l-.129.109c-5.691 4.841-12.6 13.246-20.625 13.371-2.338.037-4.019-2.304-3.435-4.509 1.533-5.792 7.018-8.872 11.606-12.166l7.968-5.72c.854-.613 2.19-1.324 3.466-2.103l-.567-.052c-5.276-.461-15.202-.638-17.157-.654l-.184-.001c-6.981-.028-14.005.225-20.958.839-.98.087-1.102-1.401-.224-1.657 8.566-2.495 17.087-4.083 25.981-4.766 3.975-.306 7.959-.456 11.944-.447Zm272.948 7.854c-.229-.27.067-.727.398-.515.922.59 3.412 1.158 4.548 1.78l3.32 1.833c.554.304 1.108.607 1.665.906 3.614 1.944 7.401 3.45 11.297 4.727 4.065 1.331 8.255 2.327 12.513 2.789 3.661.396 7.013.404 10.509 1.746 2.706 1.038 2.702 4.478 0 5.514-7.882 3.024-18.167-.816-25.536-3.985-3.999-1.72-7.763-3.96-11.278-6.523-1.702-1.24-3.294-2.543-4.769-4.053-1.311-1.34-1.501-2.844-2.667-4.219Zm-336.409-74.06a11.59 11.59 0 0 0-1.269 4.041c.233 7.238 10.929 11.681 17.472 14.34 12.607 5.121 25.785 9.221 38.779 13.205a523.476 523.476 0 0 0 32.543 8.844c.317-.18.774-.132.948.221a526.808 526.808 0 0 0 19.131 4.136 523.772 523.772 0 0 0 25.833 4.408c8.482 1.231 17.118 1.766 25.585 3.067a117.077 117.077 0 0 0-.126-3.399 393.28 393.28 0 0 1-13.128-2.644c-25.433-5.554-50.76-12.304-75.781-19.531l-11.853-3.44c-10.024-2.913-20.047-5.852-29.994-9.006-10.087-3.197-20.092-7.256-28.14-14.242Zm314.627-114.488c-32.049-6.291-65.393-3.24-95.971 8.095-29.551 10.954-55.623 30.034-75.474 54.461-9.535 11.734-17.584 24.791-24.057 38.448-6.553 13.825-10.173 28.31-14.673 42.814 18.612 4.729 37.307 9.299 56.162 12.668 13.22 2.362 26.656 3.883 40.104 3.519 12.878-.35 25.359-3.068 37.698-6.618 23.683-6.818 46.694-15.424 71.658-15.733 21.319-.264 45.422 3.823 64.38 14.522-.148-5.545.209-11.083.107-16.715-.153-8.494-.696-16.975-1.261-25.448-1.081-16.223-.984-32.61-2.735-48.771l-.159-1.419c-1.559-13.496-4.615-27.491-12.991-38.497-10.411-13.68-26.713-18.17-42.788-21.326Zm.396-23.395C294.323 135.275 236 149.043 195.61 179.735c-21.844 16.6-39.274 37.432-52.292 61.558-6.716 12.448-12.03 25.587-16.225 39.09-3.546 11.415-5.665 23.134-8.262 34.764l10.405 2.657c.859-17.245 7.443-34.689 14.71-50.147 7.585-16.133 17.762-31.06 29.682-44.303 22.559-25.06 51.985-43.201 84.328-52.636 31.952-9.321 69.743-11.729 101.681-.977 15.322 5.157 28.986 12.725 38.065 26.415-9.908-22.347-31.79-37.183-54.543-44.716ZM254.721 16.696c-14.174-3.88-28.112 1.19-39.822 9.25-6.107 4.203-11.768 9.231-16.933 14.541-4.327 4.45-8.31 9.204-13.268 12.988-4.712 3.597-10.292 6.197-16.35 5.807-6.836-.439-12.724-4.308-18.336-7.867-6.444-4.084-12.558-6.652-20.279-6.905-7.216-.236-14.576 1.114-20.793 4.926-10.318 6.33-14.514 18.706-19.06 29.261l-.656 1.51c-4.058 9.246-9.04 18.71-18.139 23.833-13.466 7.584-30.592.17-43.267 9.162-12.663 8.984-14.33 27.078-6.734 39.895 6.226 10.504 17.269 19.679 10.872 32.996-4.67 9.72-15.433 14.553-20.338 24.105-6.818 13.278-5.431 30.174 1.036 43.289l1.629 3.296c3.833 7.718 7.962 15.544 13.722 21.931 7.113 7.888 16.144 14.174 25.147 19.922 3.694 1.02 7.425 1.94 11.14 2.869l2.784.7c14.485 3.677 29.013 7.178 43.501 10.841l5.271 1.342c-.816-14.678 2.499-29.803 6.725-43.697 4.751-15.618 11.737-30.911 20.252-44.829 30.421-49.718 83.308-83.055 141.198-89.663 48.313-5.515 105.809 11.65 124.372 60.997 1.71 4.548-3.676 7.056-7.08 5.117 6.299 12.252 8.858 26.2 10.097 39.821.178 1.967.341 3.937.492 5.908 11.4-14.52 12.747-35.557 2.786-51.41-1.706-2.715-.749-6.936 2.071-8.553l.2-.109c4.539-2.332 4.641-7.901 3.221-12.291-2.096-6.483-6.847-11.85-10.614-17.391-4.394-6.467-7.048-13.254-7.567-21.09-.49-7.402 1.185-15.496-2.021-22.467-2.225-4.839-6.322-8.54-10.355-11.892l-.417-.346c-9.716-8.035-19.736-14.848-24.466-27.076-2.594-6.71-3.451-14.338-8.071-20.102-3.362-4.192-8.178-6.786-13.29-8.189-11.562-3.175-23.987-.81-35.046 3.142l-.736.269c-6.369 2.376-12.607 5.846-19.527 3.356-5.387-1.937-8.403-6.796-10.489-11.839-2.206-5.334-3.49-11.162-7.197-15.734-3.94-4.858-9.704-7.993-15.665-9.624ZM28.769 288.27l-.106.151c.466.303.93.607 1.402.896-.44-.342-.867-.696-1.296-1.047Zm41.849-92.317 4.103-.281c18.455-1.233 40.449-1.998 55.456 9.995 2.889 2.311 3.981 6.127 1.12 8.999-3.065 3.075-8.217 2.294-12.155 2.388l-2.974.071c-4.641.123-9.341.344-13.869 1.264-4.538.923-9.494 3.637-14.14 2.495-1.498-.368-2.403-2.061-1.996-3.518 1.912-6.843 11.393-8.431 17.365-9.226 4.086-.543 8.148-.678 12.265-.618.919.013 1.837.045 2.756.07a54.85 54.85 0 0 0-5.685-2.732c-4.179-1.728-8.494-3.05-12.906-4.034-9.63-2.144-19.515-2.748-29.34-3.279-1.03-.056-1.02-1.522 0-1.594Zm26.695-73.036.098.013c16.231 3.289 29.865 11.983 44.423 19.364 3.359 1.704 6.77 3.311 10.283 4.671l1.528.579c2.258.881 10.273 4.192 11.493 2.993.344-.337-7.041-8.083-7.817-9.079l-.886-1.143c-2.032-2.655-3.748-5.257-3.625-8.793.07-2.016 2.27-3.447 4.091-2.348 4.703 2.837 6.962 8.839 10.668 12.834l.36.384c2.616 2.752 5.896 5.645 4.93 9.841-2.028 8.814-14.598 3.831-19.787 1.829-19.879-7.67-36.013-22.62-55.985-29.956-.702-.258-.473-1.241.226-1.189Zm235.795-54.22c1.311-.163 2.113.595 2.188 1.826.033.552-.692.644-.961.259-.082-.116-1.341 5.743-1.396 6.254-.134 1.233-.214 2.469-.331 3.703l-.272 2.802c-.18 1.867-.347 3.735-.439 5.613-.254 5.179-.251 10.415.064 15.598l.093 1.413c.012.174.22 1.466.444 2.935a49.85 49.85 0 0 0 .822-2.786c1.203-4.603.501-9.674 3.807-13.328 1.931-2.133 5.1-1.237 6.552.844 2.427 3.479 1.317 8.537.087 12.753l-.965 3.2c-1.177 3.872-2.687 8.426-5.826 11.027-3.101 2.57-7.486 2.691-10.426-.175-2.836-2.763-2.891-7-2.973-10.686-.251-11.317 1.146-22.883 5.061-33.546l.314-.84c.681-1.786 1.592-6.544 4.157-6.865Zm-129.885-6.676c5.177-6.053 12.734 15.565 14.18 19.757l1.146 3.322c2.994 8.63 6.442 17.775 12.937 24.151-.521-3.153-1.81-6.461-2.296-9.09l-.216-1.187c-.817-4.569-1.466-9.352-.617-13.905.286-1.54 1.805-2.915 3.28-3.281.892-.22 1.605-.23 2.497 0 1.519.392 2.93 1.726 3.28 3.28 1.414 6.295 1.353 12.919 2.676 19.298l.166.818c1.016 5.164 1.386 10.028-1.31 14.817-1.214 2.156-4.239 2.959-6.354 1.666-9.004-5.504-14.524-14.343-17.89-24.156-1.603-4.674-2.821-9.505-3.951-14.326l-.804-3.448c-.916-3.806-4.365-17.513-5.929-16.685-.681.359-1.273-.473-.795-1.031Z"/></g></svg>