<svg xmlns="http://www.w3.org/2000/svg" width="474" height="567" fill="none" viewBox="0 0 474 567"><g id="head/Dreads 1" fill-rule="evenodd" clip-rule="evenodd"><path id="✋ Skin" fill="#D08B5B" d="M242.041 75.26c56.78 0 115.51 44.012 136.324 72.097 24.066 32.475 43.051 188.372 34.145 241.271-8.906 52.899-53.145 110.556-129.944 110.556-76.798 0-123.536-9.46-125.41-23.2-1.874-13.739-50.654-90.219-50.654-90.219s-49.89-14.032-50.085-47.551c-.195-33.519 26.735-45.714 26.735-45.714s-9.602-132.279 14.58-166.718C121.914 91.342 185.26 75.26 242.04 75.26Z"/><path id="🖍 Ink" fill="#000" d="M275.105 8.19c8.928-1.966 12.56 11.847 3.744 13.38a207.515 207.515 0 0 0-18.053 3.968c2.438-.146 4.857.123 7.207.927l1.388-.484c19.237-6.66 40.109-11.686 60.334-6.566 16.584 11.959-24.134 13.788-30.698 15.368 21.909 1.326 44.666-3.633 65.953 4.273 8.167 3.255 4.921 15.824-9.616 10.024a7.545 7.545 0 0 1 .283 3.238c6.59.65 13.417 2.45 19.409 6.25 44.74-1.103 60.867 35.308 23.204 22.72a12.382 12.382 0 0 1 2.481 2.743l.59.043c9.98.803 36.342 6.546 34.939 18.485 6.913 1.509 14.449 4.053 19.677 8.182 5.851 4.621-.532 13.564-6.995 11.839-1.955-.523-3.779-1.359-5.569-2.278-.701.764-1.604 1.526-2.745 2.277 11.264 9.124 26.19 16.788 32.045 30.542 1.051 3.307-1.241 7.262-4.653 8.073-11.876 2.822-21.615-6.293-29.735-14.97 1.748 4.781 2.908 9.417 3.222 13.51 6.178 3.301 14.06 9.782 19.291 17.154 8.661 4.893 19.435 12.924 19.694 22.879.189 7.239-6.868 11.225-13.369 10.035l-.219-.05c3.099 5.348 4.64 11.137 5.68 17.53l.634.391c6.133 3.808 12.283 8.465 12.46 16.005.136 5.769-5.621 9.404-10.957 8.223a12.144 12.144 0 0 1-2.142-.693c.023.194.045.387.062.582 2.163 1.64 4.307 3.299 6.392 5.034l1.714 1.436c7.127 6.04 13.883 12.85 11.805 23.017-.71 3.48-4.246 5.289-7.477 5.609-.72.072-1.412.077-2.093.054l.276.721c4.48 11.925 7.327 30.963-7.079 29.323 2.256 19.463-9.534 22.358-17.594 12.58 9.497 11.293 26.789 82.76-3.42 70.055-1.331 15.969-4.267 32.153-11.58 46.597l-.212.475c-3.73 8.096-20.158 32.106-25.468 14.534 3.81-21.794 14.681-42.475 16.435-64.809-2.134-.333-3.956-2.398-4.748-4.675-2.299 11.447-7.572 21.686-14.822 30.762a109.632 109.632 0 0 1-3.866 9.042c-4.561 9.5-10.441 18.3-17.17 26.39-3.6 4.33-7.42 8.54-12.12 11.709-3.741 2.521-8.111 4.181-12.321 5.781-6.849 6.84-15.639 12.01-24.229 16.14-14.16 6.79-29.51 10.54-45.04 12.42-15.88 1.909-31.92 1.45-47.67-1.28-15.05-2.6-31.181-9.25-40.45-21.92-.8-1.09.689-2.12 1.669-1.67 26.901 12.45 57.13 15.7 86.451 11.77 13.679-1.83 27.139-5.61 39.63-11.48 10.54-4.95 19.429-12.15 28.889-18.67 1.841-2.45 3.7-4.86 5.821-7.1l3.309-3.47c2.473-2.606 4.901-5.248 7.11-8.1 6.821-8.79 12.47-18.76 16.201-29.25 7.255-20.419 5.293-42.585 4.011-63.865l-.111-1.875a934.468 934.468 0 0 0-5.291-58.899c-1.713-.556-3.355-1.515-4.704-2.694-5.337-33.28-20.722-67.287-46.71-89.735 15.223 21.18 23.86 45.26 25.652 71.473.31 4.554-5.93 4.503-7.387.986-14.465-37.8-21.829-78.576-66.071-93.357-17.56 23.707-25.237 52.49-40.022 77.586-3.743 5.845-11.89 3.044-12.501-3.335-1.721-17.989 5.522-35.845 14.512-51.582l-7.316 8.752c-56.345 67.538-60.95 77.624-54.898 181.086-.551 5.176-7.23 7.636-10.287 2.744-17.169-32.776-9.801-73.04-4.9-108.067a314.867 314.867 0 0 0-5.076 10.48c-1.109-3.585-3.06.399-2.596 5.712-2.98 6.714-5.792 13.623-8.33 20.667.161 22.425 7.625 43.865 7.64 66.255.504 6.252-7.961 7.22-10.994 2.934-2.589-3.659-4.996-7.186-7.088-10.911.299 9.353 4.074 17.656 6.671 26.411 1.773 3.122 2.586 6.37 1.431 9.888l-.118.342c-1.902 5.772-8.867 7.001-13.253 3.051.096 3.652-.23 7.333-1.34 10.776 4.678 6.009 8.98 12.239 12.174 19.154 1.831 4.294-.643 7.874-4.23 9.609 2.996 7.477 4.233 15.214 1.622 22.614-.78 2.23-4.04 3.03-5.311.69-4.17-7.7-6.5-16.18-10.46-23.97a112.042 112.042 0 0 0-2.288-4.254c-4.444-3.772-8.062-8.345-11.485-13.175-12.274 14.424-23.88-16.489-26.077-25.898l-.981-.907c2.379 22.31 15.687 42.716 15.905 65.115-.478 4.667-5.595 8.964-10.31 5.829-16.35-12.215-19.832-34.308-24.362-52.847a7.714 7.714 0 0 1-2.285.694c-.862 12.543 28.402 53.098 4.694 53.159-26.245-13.237-23.272-51.408-26.797-76.155-1.604 7.369-.188 19.475-5.563 24.819 22.805 55.378-15.56 37.715-25.024-3.728-1.15 1.674-2.532 3.195-4.217 4.499-3.446 2.667-8.006 2.581-10.536-1.337-5.208-8.065-3.363-17.634-1.177-26.522-20.232-8.743-28.906-28.974-30.454-50.428a24.61 24.61 0 0 1-1.7 2.242c-2.424 2.815-7.31 1.812-9.042-1.148-5.062-8.653-2.6-19.668 1.65-28.986-1.35-.566-2.552-1.432-3.352-2.573-6.929-11.373-9.067-24.219-8.349-37.265a22.474 22.474 0 0 1-3.087 2.58c-3.422 2.356-7.773-.208-8.945-3.586-3.792-10.93 4.755-21.978 11.956-29.382 2.533-2.604 5.417-5.089 8.562-7.194 1.5-4.109 3.11-8.103 4.76-11.928-2.416-4.842-3.788-10.042-4.341-15.419-2.047 3.318-4.595 6.273-8.29 8.511-3.43 2.079-7.368-.666-7.589-4.29-.666-10.936 8.036-20.561 14.542-28.672l.653-.839c1.15-1.5 2.955-3.908 5.01-6.157.33-.986.673-1.967 1.029-2.941-5.049 2.701-12.837.724-12.395-6.271 1.01-22.678 25.105-33.672 32.092-53.715-35.413 31.395-31.635-8.937-6.726-24.623 1.994-1.651 4.052-3.203 6.139-4.706-2.841-1.776-3.72-5.737-1.102-8.602 7.276-7.963 18.34-9.609 28.71-10.479 3.707-.311 7.33-.346 10.976-.061l.996.085.283-.08c2.41-2.822 5.117-5.413 7.698-7.64-19.607-3.701-1.02-32.066 43.783-21.74a88.942 88.942 0 0 1 7.533-3.35c-6.685-.319-13.35-.92-19.966-2.262-5.898-1.197-6.886-9.997-1.683-12.681 20.803-10.28 44.802-7.741 67.089-2.575-.545-1.018-.8-2.15-.811-3.314-7.384-.709-8.038-11.954.462-12.6 14.262-1.085 27.905 1.66 40.505 7.114a58.873 58.873 0 0 1 4.868-.358c2.376-24.793 35.182-4.231 42.395 7.701 14.298-8.872 29.526-15.637 46.036-19.204Z"/></g></svg>