<svg xmlns="http://www.w3.org/2000/svg" width="474" height="567" fill="none" viewBox="0 0 474 567"><g id="head/Dreads 2" fill-rule="evenodd" clip-rule="evenodd"><path id="✋ Skin" fill="#D08B5B" d="M242.041 75.26c56.78 0 115.51 44.012 136.324 72.097 24.066 32.475 43.051 188.372 34.145 241.271-8.906 52.899-53.145 110.556-129.944 110.556-76.798 0-123.536-9.46-125.41-23.2-1.874-13.739-50.654-90.219-50.654-90.219s-49.89-14.032-50.085-47.551c-.195-33.519 26.735-45.714 26.735-45.714s-9.602-132.279 14.58-166.718C121.914 91.342 185.26 75.26 242.04 75.26Z"/><path id="🖍 Ink" fill="#000" d="M203.758-10.155c7.636-8.987 21.105-.492 20.8 9.328 3.049.825 6.645 3.673 8.032 7.384 3.001-.194 6.027.402 8.752 1.96l.575-.707c9.445-11.531 21.944-21.426 34.841-12.934 3.511 2.31 5.082 6.13 4.308 10.27l-.059.293.285-1.278c.291-1.215-.143 1.215-.306 1.73l-.02.058c-.341.865-.681 1.301-.989 1.956 13.204-9.381 33.31-3.89 22.716 14.27l4.308-1.68c14.906-5.76 33.44-11.947 47.029-1.59 6.073 5.843-.668 13.634-6.858 15.523l1.064-.178c11.877-2.017 36.655-7.002 40.194 8.46 1.274 5.562-2.439 9.628-7.123 11.866 9.911-.036 19.686 1.598 28.262 6.434 8.157 5.798 1.564 15.391-6.967 14.973 2.645 3.27 3.523 8.805.969 12.338 4.848 1.273 9.321 2.91 13.443 5.461l1.133.146c8.241 1.028 17.642 1.64 22.175 9.733 6.672 17.56-17.085 16.861-27.282 10.693a10.31 10.31 0 0 1 1.305 3.204l3.305.927c12.466 3.468 26.574 7.298 34.6 17.79 3.679 6.037-1.441 16.298-9.133 14.464 20.844 9.926 12.855 36.076-7.529 22.473-.954.882-2.114 1.538-3.328 1.827l4.301 2.332c10.925 5.981 24.064 14.17 21.783 27.749-2.17 7.187-12.139 5.873-17.206 3.123 8.853 7.613 17.207 15.855 24.795 24.767l2.1 2.498c5.902 7.073 16.168 20.094 5.047 26.898-13.71 6.978-20.544-13.628-28.518-20.983 6.376 15.002-14.352 25.465-21.587 10.354a11.864 11.864 0 0 1-3.635.074c6.238 6.612 23.108 51.852 2.124 41.932-3.342-3.536-6.275-7.4-8.97-11.456a1151.09 1151.09 0 0 1 7.426 78.024l.567 9.447c.579 9.799 1.018 19.64-.083 29.407-1.271 11.37-4.54 22.04-9.49 32.34-4.561 9.5-10.441 18.3-17.17 26.39-3.6 4.33-7.42 8.54-12.12 11.709-3.741 2.521-8.111 4.181-12.321 5.781-6.849 6.84-15.639 12.01-24.229 16.14-14.16 6.79-29.51 10.54-45.04 12.42-15.88 1.909-31.92 1.45-47.67-1.28-15.05-2.6-31.181-9.25-40.45-21.92-.8-1.09.689-2.12 1.669-1.67 26.901 12.45 57.13 15.7 86.451 11.77 13.679-1.83 27.139-5.61 39.63-11.48 10.54-4.95 19.429-12.15 28.889-18.67 1.841-2.45 3.7-4.86 5.821-7.1l3.309-3.47c2.473-2.606 4.902-5.248 7.11-8.1 6.821-8.79 12.47-18.76 16.201-29.25 7.256-20.419 5.294-42.585 4.011-63.865l-.111-1.875a934.505 934.505 0 0 0-6.45-68.04 988.002 988.002 0 0 0-4.127-28.163c-2.42-3.937-5.004-7.746-7.897-11.314 2.354 9.148-5.797 21.864-15.792 15.827-11.445-9.784-10.892-25.576-20.484-37.557-9.943-15.359-78.551-45.231-98.949-49.426 3.286 4.781 9.289 8.111 10.689 13.753 25.085 22.164-15.806 33.962-28.575 2.376.283 10.516 1.349 20.941 3.688 31.205 3.407 9.426 6.082 36.743-11.003 28.5-8.179 2.362-14.415-4.604-15.441-12.464-5.908 17.761-.321 46.137-11.154 59.227-3.322 3.443-8.455 1.15-10.182-2.781-10.018-2.624-9.164-14.303-10.379-22.663-9.137 33.321-20.573 56.45-22.148 91.21 7.07 10.065-8.438 17.467-15.094 9.401-9.342-13.497-.728-31.948 1.47-46.722-2.628-.136-5.228-1.302-7.398-3.851-1.183 4.637-.504 10.746-.105 15.775-5.924 23.16-28.445 8.325-27.513-10.461a170.523 170.523 0 0 0-2.177 16.047c4.35 5.004 7.574 10.994 9.48 17.351 1.372 4.594-3.298 7.348-6.862 6.681-1.897 6.471-10.122 11.14-15.532 4.955-5.347-5.408-6.276-13.223-6.703-21.004-.744-.791-1.198-1.827-1.123-3.082.069-1.179.358-2.179.818-3.021a81.347 81.347 0 0 0-.378-4.66c-4.14 12.876-1.446 26.368-1.084 39.555 7.31 4.117 15.657 5.876 24.04 7.614l1.215.252c2.589.54 3.41 4.4 1.46 6.02 5.19 5.08 9.67 11.14 14.04 16.73 5.803 7.416 11.352 15.126 16.751 22.853l3.168 4.539c9.255 13.182 22.051 31.04 16.321 47.278-.78 2.23-4.04 3.03-5.311.69-4.17-7.7-6.5-16.18-10.46-23.97-3.889-7.64-8.729-14.72-13.53-21.8l-2.769-4.103c-4.61-6.852-9.178-13.779-13.411-20.837l-2.948-4.887c-2.769-4.615-5.511-9.384-7.552-14.343-7.27 1.752-14.877.495-21.85-2.536l-.088.484-.177.872c-.995 4.191-6.778 7.057-10.472 4.315-8.842-6.666-12.442-16.588-13.38-27.197a59.386 59.386 0 0 1-4.525-9.436c-.58 6.533-3.102 12.868-10.869 12.671-13.479-1.106-14.801-13.836-11.157-26.497-15.957 4.873-17.826-17.692-12.79-29.584-1.87-.559-3.602-1.673-4.593-3.173l-.827 1.45c-3.067 5.309-6.543 10.464-11.388 13.22-6.77 3.849-16.611-.919-16.161-9.396 1.45-13.816 13.56-24.338 20.932-35.41a12.47 12.47 0 0 1-4.016-.112c-14.735 8.22-21.768-11.126-16.578-22.334 3.803-10.07 10.687-18.73 18.065-26.364l-2.163 1.292c-3.902 2.298-8.255 4.517-12.546 3.615-28.07 18.445-37.284-12.576-5.784-22.272l-.01-.144c-3.162-3.049-4.534-7.875-2.076-12.695-11.554 4.059-28.05-5.124-17.865-17.673 6.643-6.256 14.48-11.637 23.168-14.452a26.816 26.816 0 0 1-.394-7.005l-.518.071c-5.486.789-12.248 3.029-15.63-2.877-1.716-2.974-1.515-7.876 1.297-10.188 9.684-7.962 20.732-14.584 32.733-17.269.44-1.461.9-2.914 1.385-4.359-10.237-.19-21.731-13.788-9.972-21.493 10.338-5.267 20.989-8.655 32.662-8.341-6.844-6.748-2.803-18.98 6.297-20.861-5.96-12.69 8.764-19.238 19.747-17.237-.404-5.638 2.615-11.922 8.423-13.337-3.047-17.842 15.845-16.154 27.682-11.925-3.964-6.878.11-14.97 7.102-17.382 11.452-2.592 22.408 8.315 31.127 15.005-2.973-6.979-.465-13.413 6.616-16.193 7.294-2.855 15.153 2.661 21.24 6.41 3.31-4.157 8.961-5.511 14.03-5.254.542-1.561 1.336-2.863 2.355-3.892-.028-9.618 16.346-14.905 22.061-5.946.972-6.23 3.535-12.223 7.162-16.49ZM408.613 164.28l.189 1.036c.242.214.47.44.703.66.73.172 1.434.354 2.102.541a56.243 56.243 0 0 0-2.994-2.237Zm12.64-25.239-.222.308a2.858 2.858 0 0 1-.118.149c.618.234 1.233.473 1.846.719l.919.376.324.143c-.913-.573-1.828-1.14-2.749-1.695ZM273.855 11.983l-.552.137-.495.12c-.057.014-.109.02-.16.04l.144-.03c-.261.198-.604.432-.889.62.28-.023.559-.05.84-.066.367-.274.738-.548 1.112-.82Z"/></g></svg>