<svg xmlns="http://www.w3.org/2000/svg" width="474" height="567" fill="none" viewBox="0 0 474 567"><g id="head/Flat Top Long" fill-rule="evenodd" clip-rule="evenodd"><path id="✋ Skin" fill="#D08B5B" d="M242.041 75.26c56.781 0 139.891 37.916 146.141 74.395 7.365 42.99 23.724 204.644 14.818 257.543s-43.635 91.986-120.433 91.986c-76.799 0-134.12-41.881-147.282-56.262-13.161-14.38-29.109-59.129-29.109-59.129s-42.048-7.128-42.243-40.646c-.195-33.519 21.123-43.878 21.123-43.878S73.551 160.221 97.733 125.781c24.181-34.439 87.528-50.522 144.308-50.522Z"/><path id="🖍 Ink" fill="#000" d="M413.472 252.336c3.109 33.79 4.279 67.87 4.88 101.79.58 32.14-2.25 65.66-20.561 93.14-16.009 24.04-40.389 41.49-67.54 50.91-15.45 5.37-32.559 7.36-48.879 7.85-8.43.25-16.88-.109-25.26-.979-1.055-.111-2.115-.205-3.173-.3-7.098-.632-14.138-1.26-19.308-6.621-1.63-1.69-1.609-5.16.801-6.26 4.59-2.09 7.699-2.31 12.73-1.62 4.169.569 8.35 1.02 12.549 1.31 9 .63 18.061.65 27.061-.04 16.54-1.27 33.46-5.94 48.479-13.02 23.55-11.12 43.781-29.341 54.701-53.25 12.519-27.375 11.89-59.032 11.304-88.51l-.024-1.21c-.651-32.7-1.86-65.299-4.7-97.89-1.077-12.329-2.61-24.591-4.144-36.858-.432-3.453-.864-6.906-1.286-10.362a338.547 338.547 0 0 0-3.971-24.94c-.49-2.494-1.065-4.968-1.64-7.439-.432-1.86-.864-3.717-1.259-5.581-.67.109-1.351.17-2.05.199-4.181.141-8.75-.879-11.851-3.849-1.189.81-2.7 1.32-4.519 1.41-11.116.55-22.346.305-33.55.061-6.122-.134-12.236-.267-18.32-.27-17.28-.01-34.57-.001-51.861.049-2.636.008-5.273.018-7.91.028-14.645.056-29.313.112-43.939-.278-3.1-.082-6.219-.136-9.35-.19-13.1-.227-26.39-.457-39.19-2.83-5.33 18.941-5.141 39.75 5.97 56.67 3.139 4.771.589 10.39-3.5 13.37-4.181 3.041-11.696 7.704-18.126 8.183-.249.561-.501 1.12-.753 1.678-.377.835-.753 1.669-1.118 2.501-3.069 6.993-5.834 14.03-7.769 21.434a163.935 163.935 0 0 0-2.577 11.598c.059.684.12 1.365.193 2.046 0 .062.008.123.017.191l.003.029c.04.281.09.6.12.78l.271 1.442c.277 1.479.554 2.957.849 4.429.93 4.75 1.649 9.54 2.16 14.349.93 8.8.84 20.241-7.74 25.45-4.59 2.791-10.09 2.5-14.941.629-2.704-1.044-5.072-2.448-7.513-3.895-.501-.297-1.005-.596-1.516-.894a60.693 60.693 0 0 0-2.397-1.307c-1.009-.532-2.015-1.061-2.984-1.663-.479-.299-.939-.66-1.369-1.04-3.25.69-6.42 1.98-8.2 2.86-4.77 2.37-8.96 5.8-12.52 9.74-7.57 8.391-9.84 20.211-8.78 31.181.99 10.21 5 21.939 13.07 28.729 3.51 2.96 7.89 4.69 12.52 4.641 2.28-.02 4.38-.501 6.58-1.081.939-.246 1.972-.354 3.005-.462 1.356-.142 2.71-.283 3.845-.737 2.969-1.19 6.63 2.439 5.42 5.419-.269.663-.504 1.302-.731 1.919-.541 1.472-1.036 2.819-1.84 4.051 8.281 13.52 17.351 26.62 27 39.19 6.119 7.962 12.999 15.033 19.911 22.135 2.916 2.996 5.837 5.999 8.709 9.075 4.271 4.58 6.051 13.6-1.679 15.56-6.799 1.738-12.082-4.496-16.274-9.443a128.574 128.574 0 0 0-1.627-1.897c-18.349-20.87-32.219-44.831-38.71-71.88-2.929 2.08-6.29 3.211-9.83 3.7a31.903 31.903 0 0 1-20.359-3.989c-23.4-13.511-29.06-50.02-18.1-72.9a41.223 41.223 0 0 1 11.305-14.246 3.346 3.346 0 0 1-.282-2.461c.423-1.581.888-3.142 1.376-4.698-.533-.237-.923-.728-.849-1.456.372-3.807.737-7.615 1.101-11.422l.2-2.078a771.559 771.559 0 0 0-.171-6.19c-.143-4.735-.287-9.475-.23-14.24.055-5.069.228-10.136.401-15.203.199-5.828.398-11.656.42-17.487.064-18.883.478-37.757.893-56.631.42-19.126.84-38.252.896-57.389.06-18.59.1-37.21-.39-55.79-.006-.131-.009-.26-.011-.39l-.009-.35c-.061-2.28-.206-4.678-.355-7.14-.82-13.59-1.755-29.105 10.555-37.25 2.39-1.58 5.37-1.6 7.97-.58 7.48-5.21 16.86-7.72 25.83-9.17C132.255 2.27 145.567.99 158.886-.29c3.895-.375 7.792-.75 11.686-1.146 8.979-.91 18.429-1.259 27.469-1.059 4.703.103 9.438-.066 14.18-.236 4.474-.16 8.955-.321 13.421-.254 10.439.17 20.96.56 31.439 1.42l.738-.07c.249-.022.497-.044.743-.07 15.876-1.522 31.731-.717 47.594.088 3.842.195 7.683.39 11.526.552 18.779.79 38.609 2.73 55.47 11.72 2.168 1.153 4.005 2.465 5.572 3.928 2.197.309 4.292.931 6.175 1.979 5.428-1.097 11.488 1.335 12.772 7.634 1.87 9.23 2.58 18.539 1.46 27.9a16.29 16.29 0 0 0-.042.363c-.012.106-.024.215-.038.326 2.267 8.684 2.116 18.168.232 26.733a482.893 482.893 0 0 1 1.31 32.51c.01 1.64.033 3.286.057 4.935.084 5.891.169 11.826-.376 17.664-.614 6.571-3.318 11.769-7.573 16.759-.802.94-2.157 1.096-3.284.868a4.108 4.108 0 0 1-.776-.234c2.1 4.501 3.839 9.227 5.541 13.849.377 1.025.753 2.045 1.13 3.056 3.3 8.86 6.5 17.87 8.769 27.05 4.601 18.509 7.63 37.37 9.391 56.36ZM94.805 336.103c-.95-.655-1.907-1.316-2.943-1.807-.13-.061-5.61-1.84-4.55.51.36.78-.58 1.65-1.25.96-1.9-1.93-.84-4.25.97-5.97 3.269-3.11 8.15-2.391 12.16-1.65 5.58 1.03 11 3.47 15.7 6.6 5.06 3.37 11.31 8.04 12.31 14.43.91 5.87-4.93 12.34-10.94 8.41-3.252-2.13-5.529-5.298-7.814-8.476-1.629-2.266-3.263-4.537-5.256-6.444-2.351-2.24-4.891-4.21-7.58-6.011-.27-.18-.538-.366-.807-.552Z"/></g></svg>