<svg xmlns="http://www.w3.org/2000/svg" width="474" height="567" fill="none" viewBox="0 0 474 567"><g id="head/Flat Top" fill-rule="evenodd" clip-rule="evenodd"><path id="✋ Skin" fill="#D08B5B" d="M242.042 75.26c56.781 0 130.074 35.617 136.324 72.097 7.366 42.99 46.806 207.947 37.9 260.846-8.906 52.9-56.9 90.981-133.698 90.981-76.799 0-134.121-41.881-147.282-56.262-13.162-14.38-37.553-65.721-37.553-65.721s-41.12-5.468-41.314-38.987c-.195-33.519 26.734-45.714 26.734-45.714s-9.602-132.279 14.58-166.719c24.182-34.439 87.528-50.522 144.309-50.522Z"/><path id="🖍 Ink" fill="#000" d="M374.89 141.471c-.041-.769 1.079-.859 1.289-.179 12.25 40.47 19.801 72.009 27.75 113.5l2.348 12.205c6.273 32.553 12.611 65.154 17.963 97.865l.315 1.953c2.681 16.932 4.226 34.029.865 50.997-3.14 15.86-11.72 30.4-22.86 41.98-21.53 22.381-51.451 36.36-81.55 42.61-15.22 3.16-30.92 4.38-46.43 3.28a166.996 166.996 0 0 1-23.02-3.24l-.835-.179c-7.631-1.647-14.403-3.612-18.456-10.792-1.019-1.809-.609-4.909 1.531-5.839 4.04-1.741 7.01-2.47 11.419-1.97 4.21.479 8.321 1.75 12.481 2.54 7.95 1.51 16.03 2.269 24.12 2.45 15.89.35 31.82-1.64 47.01-6.38 26.099-8.15 52.62-23.74 67.87-47.06 17.939-27.433 10.796-60.727 6.043-91.023l-.144-.917c-4.812-30.967-9.57-61.933-14.189-92.919l-1.971-13.281c-5.179-35.09-10.069-60.14-11.549-95.601ZM109.9 55.581c13.027-8.585 29.214-10.695 44.514-10.577l1.916.025c19.591.298 118.208 2.645 151.226 3.367l7.854.166c10.396.196 31.364.4 42.167.598l.623.012c5.3.1 10.6.14 15.9.31l.777.028c3.97.17 7.274.763 10.383 3.562 1.581 1.418 2.198 3.581 2.053 5.642l-.023.268 7.87.69c5.344.472 8.17 5.265 6.047 10.115l-.107.235c-3.77 8.04-6.65 31.44-8.67 40.09-1.06 4.55-1.911 9.17-2.411 13.82-.399 3.661-.439 7.33-2.479 10.55-4.351 6.87-16.59 6.81-16.81-2.92-.01-.31 0-.61.03-.9-30.8-1.35-72.85-1.22-103.61.62-28.73 1.72-57.33 5.62-85.48 11.59a552.41 552.41 0 0 0-21.3 4.95c-5.79 1.46-12.9 2.33-18.08 5.46-5.8 3.52-5.69 9.83-5.06 15.84.676 6.37 1.804 3.088 3.402 8.893l.098.367c1.65 6.3 3.69 12.53 6.39 18.45 1.54 3.38 4.021 6.63 3.08 10.52-.53 2.19-2.261 4.53-3.85 6.06-7.241 6.95-19.48 2.52-24.4 12.04-5.149 9.954-5.277 23.439-5.714 34.455l-.026.645c-.319 7.59-.23 15.2.27 22.77.45 6.899 2.289 13.73-.07 20.36-1.721 4.82-7.34 5.27-10.28 1.35-.337-.45-.647-.912-.936-1.376l-.284-.464-.019.01c.279.44.539.891.789 1.35.27.51-.4 1.07-.81.63-6.92-7.53-17.03-6.03-24.86-.76-7.93 5.36-11.06 15.54-11.47 24.671-.46 10.128.44 22 4.66 31.359 1.78 3.96 4.32 7.6 8.53 9.11 1.911.68 3.73.59 5.72.75 2.07.159 4.56 1.2 6.57 1.06 2.611-.186 4.956 2.795 4.214 5.294l-.054.166c-.039.12-.08.24-.119.35.1.09.2.2.27.36 7.599 15.53 18.019 29.35 29.539 42.17 5.771 6.41 12.17 12.3 18.86 17.75 3.3 2.69 6.78 5.381 10.45 7.55 1.22.709 2.339 1.19 3.711 1.581.639.179 1.369.269 1.989.479l.644.22.126.04c1.84.21 3.39 1.43 4 3.34 1.59 4.98-1.3 9.38-6.24 10.75-5.352 1.496-10.396-1.132-14.638-4.149l-.282-.201c-8.65-6.229-16.62-13.22-23.52-21.38-13.65-16.11-22.201-34.76-26.159-55.39-.98 2.11-2.3 3.95-4.59 5.23-3.56 2-7.81 2-11.71 1.33-7.85-1.33-14.54-6.12-19.01-12.6-4.642-6.72-6.37-14.88-7.42-22.83-1.04-7.961-1.55-15.95-.51-23.93 1.49-11.46 6.3-22.79 15.65-29.07-7-15.25-8.23-32.35-7.73-49.05.61-20.56 4.16-41.35 6.89-61.72l7.76-57.91.318-2.335c1.873-13.623 4.153-27.319 9.251-40.155 5.03-12.65 12.67-24.09 24.19-31.68Zm-32.66 273.96c12.82-6.22 26.67-.49 33.57 11.58 6 10.494-11.838 17.431-14.814 6.614l-.086-.334c-1.96-8.19-9.94-15.27-18.27-16.37-.69-.099-1.2-1.099-.4-1.49Z"/></g></svg>