<svg xmlns="http://www.w3.org/2000/svg" width="474" height="567" fill="none" viewBox="0 0 474 567"><g id="head/Gray Medium" fill-rule="evenodd" clip-rule="evenodd"><path id="✋ Skin" fill="#D08B5B" d="M288.305 508.383c-20.7-.057-39.647-4.09-57.624-12.921-21.706-7.082-45.409-10.941-63.024-26.618-8.578 1.819-17.37-6.987-24.486-12.23-11.606 42.703-72.006 35.6-97.527 8.001-15.612-13.184-21.892-45.799 5.22-54.427-44.42-30.17-60.464-82.286-57.41-138.679 3.212-94.598 75.938-192.946 169.413-209.354 18.44-3.244 37.377-2.9 55.738.957 10.253 2.224 20.164 6.536 31.137 6.34 42.558-6.727 89.301-5.954 124.453 21.283 56.183 37.589 63.992 112.798 57.427 173.266l.266.566c-3.266 22.196-8.694 42.525-18.959 55.907-.799 19.239-7.484 60.307-7.979 76.543 1.199 75.55-41.711 109.082-116.645 111.366"/><path id="💈 Hair" fill="#C93305" d="M142.899 76.357c38.338-12.97 62.531-6.27 98.309.894l2.205.439 3.47.678c35.901-2.408 66.825-10.288 101.487 6.907 72.123 30.324 85.472 114.033 80.504 183.937l-.294 1.3c-2.349 10.199-5.654 20.737-12.601 28.844-11.661-57.397-49.149-95.288-95.247-131.467l-1.647-1.993c-5.724-6.901-11.967-14.07-19.516-18.938.248-2.231.371-4.467.331-6.672-.055-3.046-4.404-5.608-6.672-2.959l-.433.536c-2.959 3.593-18.509 20.864-26.378 29.727l-.981 1.107-2.374 2.699-4.007 4.798c-43.263 51.721-88.896 103.643-153.422 128.467-15.462-9.778-34.218-1.168-43.88 12.607-27.456 32.002 4.371 92.346 46.571 75.976 2.562 22.132 13.638 47.082 28.664 63.776-16.464 22.971-42.805 27.116-67.445 14.115-24.052-10.746-39.617-33.302-24.852-58.252.31-.18.629-.354.954-.524 11.32 7.553 24.513 12.502 38.155 13.504l1.033.069c8.522.402 8.386-13.018-.262-13.705-57.196-7.27-82.589-72.587-82.646-123.809C-.505 198.251 55.706 105.48 142.9 76.358Z"/><path id="🖍 Ink" fill="#000" d="M41.082 409.145C-93.469 290.261 44.566 22.719 219.632 58.216c17.718 5.933 35.711 7.992 54.06 3.596 92.467-14.439 168.112 64.022 164.202 154.797.651 15.526.525 31.066-1.153 46.53-1.919 20.326-7.16 42.064-18.848 58.961-.135 11.35-6.817 53.923-7.89 73.953l-.206 4.183c-1.065 20.585-3.363 41.58-12.412 60.351-27.828 50.423-99.513 61.244-150.913 46.555l-2.137-.702c-9.548-3.174-20.372-7.403-26.434-15.4-3.204-4.225 2.1-9.619 6.511-8.47 5.678 1.48 10.384 4.941 15.685 7.4 34.575 15.28 75.468 10.163 109.598-4.11l1.032-.435c61.125-24.812 44.381-113.074 52.427-163.401 1.83-63.907-51.472-107.427-91.631-149.695l-1.202-1.339c-4.126-4.575-8.484-9.035-14.221-10.011-1.571 4.767-5.435 8.824-9.019 12.301l-8.105 8.759c-8.106 8.749-16.229 17.461-24.469 26.096-40.006 40.639-80.767 95.815-142.434 99.97 3.791 3.43 7.115 7.349 11.088 10.579 1.676 1.677-.033 4.492-2.281 3.917-4.192-1.071-6.873-5.047-9.624-8.154-33.306-13.981-60.658 37.684-32.44 59.073 10.468 11.084 41.057 2.65 33.984 16.318 7.72 24.21 19.603 48.56 39.704 64.754 5.902 4.456 15.12 6.713 19.036 13.273.945 1.581.463 4.161-1.312 5.002-8.539 3.981-17.712-2.715-24.27-7.759-34.632 67.697-161.628-7.097-104.876-55.963ZM246.881 78.352l-3.47-.679c-37.002-7.32-61.394-14.567-100.514-1.332C55.704 105.464-.507 198.235 1.923 288.402c.057 51.222 25.45 116.539 82.646 123.809 8.648.687 8.783 14.107.262 13.705l-.261-.017c-14.099-.88-27.747-5.993-39.381-13.86-15.608 25.278.034 48.215 24.352 59.08 24.64 13.001 50.981 8.856 67.445-14.115-15.026-16.694-26.102-41.644-28.664-63.776-42.2 16.37-74.027-43.974-46.571-75.976 9.662-13.775 28.418-22.385 43.88-12.607 66.521-25.592 112.963-79.984 157.429-133.265l2.374-2.699c7.785-8.794 25.686-28.656 27.672-31.224 2.231-2.887 6.736-.288 6.792 2.813a51.998 51.998 0 0 1-.331 6.672c8.279 5.339 14.988 13.446 21.163 20.931 46.098 36.179 83.586 74.07 95.247 131.467 7.242-8.452 10.526-19.547 12.895-30.144 4.968-69.904-8.381-153.613-80.504-183.937-34.662-17.195-65.586-9.315-101.487-6.907ZM83.325 340.886c-3.003-2.681 16.838-3.005 18.711-.905l.427.146c7.104 2.497 20.111 10.55 13.724 18.91-9.108 8.583-15.451-16.9-32.862-18.151Z"/></g></svg>