<svg xmlns="http://www.w3.org/2000/svg" width="474" height="567" fill="none" viewBox="0 0 474 567"><g id="head/Gray Bun" fill-rule="evenodd" clip-rule="evenodd"><path id="✋ Skin" fill="#D08B5B" d="M428.872 194.624C409.167 75.447 258.707 53.96 160.663 79.044c-1.807-22.924-16.249-43.18-34.271-56.504C49.836-32.549-40.798 60.981-22.653 141.589c3.255 24.419 22.775 52.284 50.086 48.105-34.33 64.967-47.744 195.97 27.893 236.466 7.297 5.193 8.508 15.74 14.124 22.503 9.117 10.907 48.068 24.8 69.14 13.666 6.621 6.084 14.26 12.004 23.191 14.109 46.138 36.932 113.565 45.265 169.747 30.026 34.614-5.874 70.496-21.488 88.304-53.389 15.089-24.279 8.136-52.726 1.217-78.423-2.989-14.136-4.935-28.385-6.133-42.754 2.454-2.865 2.591-6.843 3.203-10.466 2.657-12.841 8.463-24.758 11.367-37.562 6.497-29.066 5.369-60.12-.614-89.246"/><path id="💈 Hair" fill="#E8E1E1" d="M1.05 65.474C18.071 33.059 51.439 14.77 84.81 17.279c34.142 2.566 60.271 26.105 66.321 64.112l.177 1.156.364 2.467-.332.113.16.28.286.479c.339.552.755 1.18 1.323 2l.76 1.083 2.555 3.586.181.257.544.784 1.097-.388c53.496-18.68 113.083-18.488 166.346 1.375l1.612.608 1.485.573.838.218c32.656 8.636 58.751 29.404 76.614 59.139l.539.904.544.928c16.306 28.003 24.667 62.617 24.079 97.369l-.021 1.064-.008.17-.09 1.048c-.776 8.34-2.875 15.794-7.218 27.161l-.554 1.441-.86 2.2-2.677 6.781-.655 1.688-7.68 20.163 1.422-20.237c.159-2.251.247-4.227.322-7.244l.014-.544.172-8.564.051-1.913c.027-.89.056-1.693.09-2.477l.055-1.168.103-1.816.024-.378-.049-.408c-1.635-12.862-7.539-23.845-17.701-34.249l-.53-.538-.536-.536-.642-.632c-7.488-7.322-15.057-12.921-30.739-23.194l-.677-.443-9.112-5.929-3.411-2.236c-7.519-4.953-12.101-8.161-16.947-11.901l-1.043-.811-.817-.642c-8.389-6.64-14.942-13.165-19.973-20.204l-.468-.661-.991-1.421.708-1.516-.011.02-.001-.006.034-.162.048-.271.049-.328a32.42 32.42 0 0 0 .219-2.461c.019-.347.036-.702.049-1.061l.017-.543.008-.468-.187.552c-9.714 28.038-32.734 51.432-65.182 68.696l-.986.521-1.115.581c-31.981 16.551-71.103 26.053-105.021 26.322l-1.093.005-1.08.003-.834-.687c-3.112-2.565-8.84.628-7.798 5.196 9.64 42.26 11.662 86 5.775 128.149l-.209 1.469-.023.139-.224 1.193a154.983 154.983 0 0 0-.583 3.407l-.318 2.025-1.227 8.205-.557 3.515-.241 1.426c-2.073 11.963-4.699 20.101-9.472 27.12l-.457.661-.469.449-.459.46c-.94.968-1.531 1.752-1.82 2.3l-.061.122-.035.075.083.033c1.517.544 4.622.434 7.208-.276l.321-.092.302-.094 2.094-.68 1.461 2.053.435.605a158.537 158.537 0 0 0 2.684 3.589l1.233 1.598 2.848 3.659-2.614 1.806c-8.822 6.094-21.154 4.883-34.257-.831l-.511-.225-.185-.09c-6.248-3.307-10.34-7.303-17.08-15.82l-.79-1.003-3-3.847-1.142-1.441a99.333 99.333 0 0 0-2.163-2.62l-.229-.265-.798-.912-.176-.353c-3.298-6.638-8.014-11.053-16.268-15.802l-1.164-.66-.746-.511c-20.944-14.522-33.306-37.429-38.504-67.138-4.063-23.222-3.643-49.351.08-78.695l.18-1.4.191-1.458c3.222-24.696 10.59-47.754 21.761-68.746l.581-1.084.524-.965-2.62-2.079-1.076-.837a36.028 36.028 0 0 0-2.129-1.541l-.316-.203-.294-.182-.08.147-1.999-.214c-8.443-.902-16.767-4.549-23.544-10.171l-.558-.471-.543-.544c-13.098-13.319-19.53-31.784-19.535-52.87C-13.74 103.732-8.626 83.897.12 67.21l.433-.818.497-.918Z"/><path id="🖍 Ink" fill="#000" d="M427.294 255.319c-1.138 14.37-7.229 27.3-12.328 40.692.557-7.924.295-16.17.85-24.398-5.93-51.523-75.997-65.059-103.197-104.018 1.03-2.2 1.401-21.871-2.655-16.339-15.733 68.845-109.244 103.384-173.266 103.517-4.842-3.99-14.445.225-12.631 8.179 9.574 41.971 11.67 85.876 5.522 128.523-2.897 15.059-3.386 33.179-12.421 46.155-9.59 9.121 1.939 9.853 8.284 7.794 1.769 2.487 3.636 4.902 5.51 7.308-9.114 6.296-22.412 2.862-31.845-1.329-10.493-5.554-16.491-16.317-24.094-24.944-4.151-8.355-10.447-13.157-18.541-17.682-45.03-30.604-43.866-97.738-37.402-146.259C37.916 118.132 198.172 48.465 326.783 98.625c69.457 17.761 101.999 89.573 100.511 156.694M8.389 173.576C-19.078 146.222-13.55 98.402 3.717 66.868 38.315.981 136.584 3.122 148.35 82.984c-50.113 17.167-92.4 53.978-117.575 100.459-8.197-.876-16.121-4.527-22.387-9.867m420.483 21.07C409.167 75.469 258.708 53.982 160.663 79.067c-1.806-22.925-16.248-43.18-34.271-56.506-76.556-55.088-167.19 38.442-149.045 119.05 3.255 24.419 22.775 52.284 50.086 48.105-34.33 64.967-47.743 195.97 27.893 236.466 7.297 5.194 8.508 15.741 14.124 22.502 9.117 10.908 48.068 24.802 69.14 13.667 5.01 6.147 33.447 24.841 31.374 6.516-2.092-4.937-8.556-6.225-12.86-8.665-9.046-4.994-16.905-12.032-23.08-20.299 19.395-54.688 17.917-115.581 7.052-171.891 64.93-3.266 141.332-31.726 169.971-94.221 19.36 45.48 79.398 51.333 94.564 102.182.915 26.707-4.812 53.018-.659 79.738 1.219 26.172 15.054 52.17 7.055 78.17-22.346 56.698-102.789 65.018-155.936 62.648-12.624-1.042-23.101-7.864-33.479-14.341-6.22-2.952-13.624 3.223-9.813 9.814 14.551 20.305 44.48 22.08 67.462 21.348 59.643-3.536 145.839-21.157 148.935-94.805-1.967-29.195-13.423-57.135-14.259-86.625 2.453-2.865 2.59-6.843 3.202-10.466 2.657-12.842 8.464-24.758 11.367-37.562 6.497-29.066 5.37-60.119-.614-89.246"/></g></svg>