<svg xmlns="http://www.w3.org/2000/svg" width="474" height="567" fill="none" viewBox="0 0 474 567"><g id="head/hat-hip" fill-rule="evenodd" clip-rule="evenodd"><path id="✋ Skin" fill="#D08B5B" d="M418.581 283.192c-.398-22.402-.838-45.252-4.168-67.436-3.256-21.688-12.213-41.292-27.605-57.041-32.693-33.453-80.083-41.624-124.195-49.112L187.194 96.8c-23.009-3.905-47.556-10.147-70.803-4.609-11.455 2.73-21.183 9.069-30.074 16.57-8.57 7.23-17.784 14.994-23.591 24.721-5.817 9.741-7.818 21.128-9.71 32.145a494.425 494.425 0 0 0-4.966 37.487 469.646 469.646 0 0 0-.97 75.661c.829 12.219 2.148 24.403 3.832 36.533a473.234 473.234 0 0 0 2.845 17.994c.314 1.763.553 3.715.875 5.687-2.38 6.766-3.731 13.773-3.622 20.75.32 20.552 17.668 33.491 35.156 40.438 10.14 4.028 20.741 6.765 30.704 11.265 10.481 4.733 17.615 12.406 24.781 21.159 13.667 16.694 29.09 31.698 46.701 44.216 37.338 26.541 84.63 39.094 129.934 29.566 10.87-2.286 21.836-5.836 31.607-11.185 10.316-5.647 18.073-13.83 24.587-23.505 12.095-17.961 20.769-38.186 27.331-58.767 6.693-20.994 11.444-42.026 14.035-63.917 2.582-21.82 3.126-43.862 2.735-65.817Z"/><path id="🖍 Ink" fill="#000" d="M177.911 18.764c31.21-4.293 74.287 9.66 89.83 37.794 74.206-17.494 167.799-18.067 228.96 40.17 63.819 69.082-16.341 160.167-69.494 180.703 3.87 18.807-2.164 139.292-44.859 193.035-33.884 45.536-112.791 66.551-149.304 12.162l-.285-.449c-3.911-6.281-.542-6.08 3.473-1.407 35.754 31.442 84.367 31.979 121.828-1.203 70.208-60.65 62.969-209.36 29.561-295.391-95.13-10.448-196.984 18.385-262.689 89.994l4.443 26.748c.757 4.557 1.617 9.11 2.273 13.683.42 2.93.467 5.844-1.563 8.216-6.703 7.83-18-3.936-27.295-8.616-2.744-.386-5.493-.535-8.189-.345-44.658 5.752-35.859 92.382 13.223 77.197 4.124-2.569 7.667-1.785 9.267 1.943 11.699 10.716 19.413 29.828 38.85 48.236 6.858 6.905 13.099 12.682 20.813 18.221 4.531 4.582 18.203 9.254 13.869 17.095-8.196 17.842-56.527-38.203-65.072-53.702-26.773 10.572-56.443 6.981-84.188 4.397-146.37-7.61-126.83-161.9-6.854-259.311 22.584-16.626 47.501-30.189 73.402-40.626 3.536-1.425 1.991-7.231-1.595-5.786-17.138 6.907-33.845 15.128-49.77 24.643l-.025-5.689c-.023-9.581.127-19.556 1.791-28.31.832-6.066 2.231-12.545 4.385-17.42 2.663-14.942 44.378-66.234 115.214-75.982ZM92.648 333.746c2.26-2.147 6.479.413 8.491.349 5.145.704 10.033 2.877 13.845 5.559a37.27 37.27 0 0 1 5.755 3.952l.04-.011c-.011 0-.025.011-.037.014l.139.094c2.146 1.525 10.003 10.114 5.039 7.804a39.93 39.93 0 0 0-1.131-1.396.923.923 0 0 1-.166.182l.279.414c4.219 6.347-3.065-.34-4.186-2.116-.053.043-.113.072-.172.103l1.459 1.777c.204.252.365.453.498.623l.308.298c4.878 4.794 5.03 9.109-.637 2.02.223.334.402.688.427 1.002l.336.429c4.449 5.733.83 3.697-1.381 1.248l-.185-.21.038.057c2.057 3.169-2.024.945-2.746-.75l-.03-.077c-.786-.641-1.27-1.36-1.435-1.542l-.031-.031c-3.826-3.92-9.372-7.237-14.083-8.744a25.406 25.406 0 0 0-2.072-.308 62.576 62.576 0 0 0-8.591-1.299c-.354-.042-.713-.302-.981-.638-4.376-.147-3.025-1.941-1.21-2.274l.032-.005-.36-.031c-2.809-.274-4.727-1.282-1.887-1.9l.36-.072a3.7 3.7 0 0 1-.121-.207c-2.432-.267-.845-2.631.505-2.059-.568-1.857 2.028-.93 2.352-1.206.247-.274.554-.516.73-.529.783-.552.404-.502.809-.52Zm14.88-30.065-.57.333a4.868 4.868 0 0 1-1.411.553 34.82 34.82 0 0 1 1.993.925c-.01-.404-.018-.806-.018-1.209l.006-.602Z"/></g></svg>