<svg xmlns="http://www.w3.org/2000/svg" width="474" height="567" fill="none" viewBox="0 0 474 567"><g id="head/hat-beanie" fill-rule="evenodd" clip-rule="evenodd"><path id="✋ Skin" fill="#D08B5B" d="M244.801 58.706c44.772 0 98.49 21.705 103.057 22.139l.123.006c2.403 0 11.792 7.153 28.168 21.46l-17.737 34.594 1.436 1.371c6.868 6.585 12.732 12.587 17.36 17.319 37.792 38.634 44.584 190.324 35.678 243.223-8.906 52.899-25.402 104.662-102.201 104.662-76.798 0-162.238-46.177-175.4-60.558-8.774-9.586-18.63-14.179-29.567-13.778a409.05 409.05 0 0 1-1.338-1.697l-1.609-.228c-15.137-2.192-25.983-5.143-32.538-8.851-12.803-7.244-26.876-45.323-26.876-53.711 0-8.305-21.012-68.717-21.433-75.11l-.006-.177c0-5.345-27.451-29.912-27.451-37.714 0-7.803-5.533-7.329 0-34.823l1.608-8.077c5.888-29.272 17.413-77.744 61.355-98.806C105.718 86.805 199.578 58.706 244.8 58.706Z"/><path id="🧢 Hat" fill="#9DDADB" d="M371.59 111.481c-13.777.406-29.787 1.021-46.639 1.957-24.662 1.368-51.119 3.421-75.01 6.498-23.906 3.08-45.188 7.179-59.532 12.622-14.192 5.386-25.825 18.35-35.291 34.922-9.458 16.557-16.693 36.614-22.136 56.023-5.442 19.403-9.084 38.127-11.366 52.003a493.708 493.708 0 0 0-2.456 16.649 325.678 325.678 0 0 0-.7 5.823l-.033.308-.008.078-.002.019-.001.005-.746-.075.746.076-.043.421-.382.181h-.001l-.002.001-.011.005-.042.02-.17.082a160.886 160.886 0 0 0-3.217 1.616 238.615 238.615 0 0 0-9.11 4.973c-7.543 4.325-17.596 10.592-27.645 18.361-5.023 3.883-8.137 6.802-9.991 8.986-1.877 2.211-2.375 3.565-2.386 4.332-.01.647.334.979.787 1.192a2.877 2.877 0 0 0 .897.248l.055.005.007.001h.003l.727.037-.018.731h-.026.026v.006l-.001.017-.002.071a104.896 104.896 0 0 0-.022 1.358 256.439 256.439 0 0 0 .367 16.85c.279 4.991.751 10.383 1.538 15.345.79 4.975 1.888 9.465 3.396 12.683 1.443 3.077 4.717 5.612 8.991 7.671 4.253 2.049 9.375 3.57 14.337 4.685 4.958 1.115 9.727 1.818 13.258 2.244 1.766.212 3.22.355 4.232.444.505.045.901.076 1.169.096l.304.022.077.006.019.001h.006l-.048.749.048-.749.521.034.15.5 6.234 20.877.041.138-.012.143-.886 9.944a35.1 35.1 0 0 0-1.448-.651l.827-9.282-6.045-20.243a136.741 136.741 0 0 1-5.368-.54c-3.564-.429-8.386-1.14-13.408-2.269-5.016-1.128-10.261-2.679-14.659-4.797-4.375-2.109-8.033-4.837-9.698-8.387-1.599-3.41-2.723-8.066-3.519-13.084-.798-5.03-1.274-10.477-1.555-15.496a257.955 257.955 0 0 1-.357-17.772 4.225 4.225 0 0 1-.798-.279c-.784-.37-1.669-1.142-1.647-2.572.02-1.311.814-3.008 2.743-5.28 1.95-2.297 5.155-5.289 10.216-9.202 10.12-7.823 20.234-14.127 27.817-18.475a240.071 240.071 0 0 1 9.167-5.005 172.284 172.284 0 0 1 2.573-1.301l.419-.206.117-.057v-.001c.03-.276.075-.685.136-1.218.123-1.068.31-2.635.568-4.636.517-4.003 1.32-9.743 2.464-16.7 2.288-13.911 5.941-32.693 11.402-52.165 5.459-19.467 12.734-39.655 22.277-56.362 9.535-16.692 21.391-30.012 36.062-35.58 14.518-5.51 35.947-9.626 59.872-12.708 23.941-3.083 50.437-5.138 75.119-6.508 17.204-.955 33.532-1.577 47.503-1.982l-.781 1.523Z"/><path id="🖍 Ink" fill="#000" d="M49.976 108.863c24.083-25.562 160.804-65.1 229.976-56.719l2.075.269c5.52.7 10.96 1.76 16.329 3.2 17.354 4.053 35.28 10.19 49.619 20.441 11.971 8.386 49.734 22.081 38.604 44.019 4.127 7.819 5.667 17.479 2.878 25.18-.351 2.66-1.171 5.11-2.22 7.65 8.817 13.011 15.798 27.725 21.449 41.72 9.875 35.221 16.02 71.875 16.92 107.81 2.994 68.272-4.492 149.823-63.954 193.971-35.921 27.975-92.189 28.915-132.556-5.771-2.291-2.711-13.064-10.027-9.469-11.31 1.07 1.13 2.17 2.23 3.29 3.31a.649.649 0 0 1-.04-.37l-1.054-.954c-1.983-1.835-4.553-4.497-1.626-3.976.129.15.27.28.409.43.62.372 1.088.694 1.453.978l.187.151-.058-.061c-1.686-1.798-2.697-3.631-.176-2.46l.334.162a92.365 92.365 0 0 0 3.42 3.41c-.019-.13 0-.26.071-.4l-1.082-1.045c-1.055-1.034-.894-1.039-.378-1.875-2.244-3.145 1.945-1.277 2.239-.05 2.621-.62 4.922 4.3 6.61 4.9 73.999 56.89 181.386 6.411 179.647-152.114l-.027-3.102c-.508-50.689-4.774-102.788-25.74-148.674-2.039-4.42-4.32-8.72-6.829-12.88-1.73-3.12-3.58-6.16-5.57-9.12a82.529 82.529 0 0 1-16.49-3.05 78.855 78.855 0 0 1-5.54-1.6c-26.88 1.466-53.161 3.061-80.116 4.573l-8.42.524c-22.834 1.468-46.449 3.82-64.875 17.943-18.08 12.858-18.162 38.213-33.639 52.33-22.07 14.979-22.231 28.486-26.481 50.56.315 16.64 11.853 40.817-9.32 47.82 3.572 5.093-1.407 2.646-1.799.86-.04.01-.08.02-.11.02 3.183 5.917-1.496 2.191-1.91.29-.25-.07-.5-.25-.75-.5 3.207 5.184-1.977 1.554-1.67.61-6.197-9.525-18.951-11.004-27.941-8.48-.11.34-.51.37-.76.19-38.226 8.284-28.363 87.42 10.811 79.77 1.677-.342 1.637.463 1.97.54-.905-2.376 1.646-1.409 1.619-.91l.155-.008c.123-.01.073-.024.165.008-.875-4.859 4.049 2.181 3.66 2.47.151-.09.321-.14.471-.16l-.17-.461c-.817-2.177-.747-1.272-.741-2.519-.614-1.541-.659-.867-.515-1.871 2.158-1.672 2.795 3.4 3.515 3.771-1.234-1.72-.253-3.125.911-2.191 8.823 18.558 20.22 35.995 34.949 49.731 1.611 1.27 3.241 2.52 4.93 3.7 6.265 5.457 15.875 8.966 21.74 13.8 0 .08-.039.18-.099.28l.134.121.136.129 2.04.98c.6.51 1.14 1.08 1.619 1.71.511.59.96 1.24 1.341 1.93.19.84-.23 1.19-1.03.83-.351-.12-.7-.26-1.05-.39.02.03.029.05.05.07.115.174.891 1.974-.004 1.681l-.106-.041c-.491-.18-.98-.38-1.46-.57.57.71 1.089 1.48 1.549 2.13.491.51.79 1.11.911 1.79-.021.38-.23.54-.61.49-.58-.19-1.15-.39-1.721-.6l.162.31c.404.793.977 2.124-.041 1.68-.871-.27-1.71-.58-2.55-.92-.071.14-.21.19-.49.06-2.67-.95-5.25-2.11-7.72-3.48-2.17-1.58-4.361-3.13-6.54-4.7a50.211 50.211 0 0 1-5.92-4.14c-12.646-8.168-23.717-18.544-32.5-30.1-14.689 12.721-44.058.568-62.225-9.39-16.07-8.9-22.385-25.356-24.018-43.098-3.395-23.886-22.915-32.062-21.557-84.472-.03.01-.061.01-.101.01-.71-.21-1.4-.49-2.05-.85-.67-.32-1.3-.7-1.89-1.16l-.73-1.01a6.2 6.2 0 0 1-.98-.65l-.134.174c-.427.515-.14-.26-.115-.414l-1.268-1.725c-3.007-4.105-6.306-8.711-8.993-12.395l-.085.15c-.06.113-.093.194-.064.23-6.395-9.188-12.41-20.286-14.08-31.03-1.973-8.276-1.202-16.804.519-24.47 7.379-26.845 31.55-87.593 63.29-113.63Zm173.548 371.253-.401-.357.352.442c.185.228.374.433.682.642a.554.554 0 0 1-.011-.22 13.233 13.233 0 0 1-.622-.507Zm56.122-414.483c-46.908-4.033-93.045 6.301-137.807 18.81l-3.088.888c-25.452 7.262-52.365 13.797-73.874 29.342-30.051 23.017-45.57 59.633-59.111 93.44-11.825 25.118-5.78 53.441 12.04 70.98 1.854-17.429 5.015-34.348 9.955-51.131 1.03-2.622.25-3.481 2.473-3.823 3.356 45.228-13.173 78.644 19.537 132.246 14.193 25.292-2.237 43.798 37.843 57.107l1.084.414c8.35 3.151 17.469 5.638 25.648 3.877l-.733-1.192c-.747-1.227-.974-1.823.113-2.348-.029-.06-.069-.12-.11-.19-.879-1.66-1.729-3.34-2.54-5.04-.329.11-.659.19-1 .28.221.41.25.82-.369.96a17.427 17.427 0 0 1-6.783.917l-.497-.037c-2.617-.16-4.266-.637-5.741-1.08-.49-.08-.98-.16-1.46-.26-4.745-1.052-9.768-3.728-13.02-6.38-37.057-21.048-33.227-92.697 12.45-99.47.938-45.112 22.395-121.22 58.005-164.207 32.188-39.541 120.062-56.679 181.198-50.636.891.295 1.782.593 2.673.894 9.432.838 18.421 5.04 27.86 6.992-6.777-5.079-14.465-8.462-22.384-11.337-15.778-9.651-33.866-14.873-51.341-18.556-3.62-.89-7.29-1.38-11.021-1.46Zm-187.08 274.55c2.456-1.334 2.175-.046 2.74-.42 17.666-1.441 36.715 14.026 46.59 26.92-.78.81-2.89-1.59-3.26-1.97-.05.05-.11.09-.17.11l.275.388c4.003 5.744-3.932-1.015-4.675-2.408a.59.59 0 0 1-.41.08c.629.617 2.55 2.226 2.88 3.37l.509.424c4.803 4.112 4.404 7.206-1.048 1.366.129.27.179.52.089.72l.188.125c2.681 1.874 4.886 7.096-.718 1.735.583 3.916-5.553-3.653-5.75-3.6-10.618-8.335-26.251-16.441-39.57-17.53l-.458-.053c-2.444-.314-3.6-1.039-2.742-2.637-3.01-.716-2.305-2.198-.88-2.15-2.123-1.396-.212-2.731 1.02-2.21-.847-2.345 2.55-.783 2.86-1.11 1.763-2.719 2.238-.451 2.53-1.15Zm-37.03-145.35c8.485-3.108 33.548 6.196 31.543 18.518-1.194 2.829-5.128 4.45-7.893 2.853l-3.609-2.424c-6.28-4.206-11.944-7.894-18.687-11.562-3.67-1.821-5.25-5.687-1.354-7.385Zm48.275-18.311-3.277-2.133c-17.684-11.573-42.683-29.11 1.652-10.966 5.053 2.167 11.767 3.449 14.524 8.261 4.331 8.869-7.067 9.465-12.899 4.838Zm1.987-51.929c-1.419-5.385 16.238.934 21.378 2.6l.783.295c5 1.863 10.732 3.592 13.722 7.907 3.504 5.962-3.588 7.197-7.981 4.504-9.007-5.886-18.882-10.327-27.902-15.306Zm44.901-25.085c-9.939-10.854 16.66-.456 20.644 2.43l.114.085c2.973 2.093 2.37 6.601-.423 7.925-7.947.151-13.795-6.473-20.335-10.44Zm45.226-11.891c-15.8-11.355 5.013-5.954 12.242-1.504 4.927 4.345-.148 11.68-12.242 1.504Z"/></g></svg>