<svg xmlns="http://www.w3.org/2000/svg" width="474" height="567" fill="none" viewBox="0 0 474 567"><g id="head/Hijab" fill-rule="evenodd" clip-rule="evenodd"><path id="✋ Skin" fill="#D08B5B" d="M260.282 105.173c150.513 4.766 159.592 76.257 159.592 196.152 0 119.895-78.08 195.446-106.83 208.639-28.75 13.192-104.453 69.857-172.771 43.744-68.318-26.113-48.534-136.436-48.534-183.838 0-47.403 18.031-269.462 168.543-264.697Z"/><path id="🧕 hijab" fill="#9FD8E5" d="M114.805 295.445c31.12-126.898 87.932-188.811 170.435-185.739 123.755 4.609 122.45 130.745 114.686 119.244-5.073-7.514-40.587-33.763-106.542-78.747l-4.077-2.777-174.502 148.019Z"/><path id="🖍 Ink" fill="#000" d="M321.342 470.587c-27.64 15.43-59.289 16.03-89.02 6.32-17.83-5.809-34.179-14.79-49.48-25.53-13.31-9.35-25.19-19.72-36.96-30.731-9.69-21.369-18.319-42.699-22.36-65.949-3.62-20.87-4.1-42.54.1-63.37 31.061-25.55 61.931-51.31 92.76-77.149 15.7-13.161 31.44-26.25 47.37-39.131 8.09-6.54 16.101-13.18 24.16-19.75 1.33-1.08 2.651-2.16 3.981-3.24 16.639 12.18 34.479 22.621 51 35 8.649 6.49 17.059 13.4 25.069 20.669 4.2 3.811 8.301 7.741 12.301 11.771 3.659 3.681 7.189 8.96 12.38 10.351a5 5 0 0 0 2.009.139c6.94 60.76 11.87 126.37-17.86 181.55-12.97 24.07-31.359 45.59-55.45 59.05Zm-179.809 22.331c-3.806-3.487 1.866-9.13 5.656-5.658 23.806 21.806 54.928 33.365 86.364 38.715 5.072.865 2.909 8.572-2.127 7.714-32.821-5.586-65.079-18.042-89.893-40.771Zm-28.566 33.457c-4.544-2.438-.499-9.341 4.037-6.908 18.547 9.947 38.89 15.115 59.524 18.605 5.075.858 2.91 8.565-2.126 7.714-21.335-3.608-42.27-9.133-61.435-19.411Zm75.485-337.027c15.39-13.811 31.93-26.952 49.401-38.041 17.679-11.22 36.989-17.93 57.859-18.09-1.46 1.17-2.85 2.47-4.26 3.679-3.939 3.371-7.87 6.761-11.8 10.141-7.86 6.77-15.74 13.529-23.5 20.41-15.28 13.56-30.61 27.05-45.86 40.64-29.31 26.12-57.989 52.809-86.05 80.27.151-.67.311-1.34.47-2.009 9.29-38.801 34.56-70.811 63.74-97Zm120.64-54.441c.1-.3.171-.591.211-.87 40.05 5.22 73.5 34.689 84.559 73.49-.96 1.34-1.49 2.93-1.29 4.619l.3 2.561c-1.37-1.359-2.78-2.63-3.979-3.84a325.711 325.711 0 0 0-12.281-11.801c-8.59-7.829-17.509-15.149-26.91-21.979-16.349-11.88-34.05-22.8-53.54-28.5 1.28-1.05 2.561-2.1 3.851-3.14 3.849-3.131 7.42-5.71 9.079-10.54Zm71.801-41.49c-24.59-26.87-58.641-46.55-94.5-53.39-34.241-6.54-69.691-2.23-102.04 10.48-67.691 26.6-121.101 85.091-146.111 152.87-14.58 39.49-19.36 82.78-14.98 124.58 4.36 41.609 16.89 84.58 39.69 119.98 2.09 3.241 4.38 6.35 6.78 9.36-1.07 12.22-5.15 24.2-11.57 34.62-.345.558-.71 1.106-1.07 1.655-6.573 4.923-13.392 9.543-20.05 14.312-5.768 4.132-11.478 8.371-16.903 12.948-5.121 4.321-11.068 9.133-14.535 14.965-2.841 4.777-4.001 11.272-.123 15.828 4.673 5.488 12.59 3.553 18.92 3.553.543 0 1.084.012 1.625.018 1.9 1.195 3.859 2.275 5.756 3.28 19.17 10.161 38.41 20.211 57.67 30.211 38.361 19.93 76.561 40.661 115.71 59.01 18.141 8.51 37.561 15.949 57.88 15.92 19.061-.03 36.29-7.6 51.17-19.11 16.96-13.111 31.141-29.76 44.9-46.079a812.509 812.509 0 0 0 16.18-19.841c10.16-3.39 20.24-4.38 29.3 2.16 7.27 5.25 16.85-1.89 17.02-9.771a62.944 62.944 0 0 0-.36-8.279c-1.819-16.801-10.04-32-19.3-46.099-5.059-7.711-10.389-15.282-15.75-22.782-1.26-1.769-2.5-3.539-3.7-5.34 21.53-31.699 38.61-66.849 49.11-103.58 11.031-38.649 14.781-78.729 12.321-118.779-3.781-61.38-20.62-126.34-63.04-172.7Z"/></g></svg>