<svg xmlns="http://www.w3.org/2000/svg" width="474" height="567" fill="none" viewBox="0 0 474 567">
    <g id="head/Long">
        <path id="✋ Skin" fill="#D08B5B" fill-rule="evenodd"
            d="M431.901 270.053c-3.79-62.202-23.974-132.723-83.378-163.263C217.564 54.232 45.38 186.588 36.263 321.8c-3.177 46.284 22.52 96.859 69.482 109.727 10.441 13.833 26.231 22.281 41.816 29.613 185.627 96.307 305.534 18.02 284.34-191.087Z"
            clip-rule="evenodd" />
        <path id="💈 Hair" fill="#D6B370" fill-rule="evenodd"
            d="M474.189 231.36c-6.56-18.22-13.49-36.3-20.78-54.24-7.1-17.46-13.513-35.297-22.33-51.93-52.66-99.34-148.42-99.34-197.92-86.36-25.67-11.06-73.751-7.94-100.48 2.04-43.272 16.157-96.021 79.715-114.056 108.271-39.82 63.049-64.67 146.966-38.22 219.822 3.458 9.522 7.867 18.341 12.83 26.84-3.126 4.238-6.725 8.252-10.712 12.196-11.848 11.722-23.696 23.058-33.931 36.279-10.171 13.139-18.603 27.111-24.88 42.516-11.836 29.052-12.406 61.948 3.242 89.669 13.614 24.12 37.73 42.081 64.902 43.794 1.395.194 2.792.372 4.195.513a78.55 78.55 0 0 0 13 16.15c15.35 14.6 51.94 22.09 72.81 22.57 1.07.86 2.15 1.72 3.23 2.57 12.77 10.05 26.17 20.19 40.83 27.34 9.93 4.85 22.95 8.9 33.31 5.4 4.7 3.14 12.41 2.48 17.07-.09 7.66-4.22 13.89-11.82 17.68-19.6 9.19-18.89 6.98-39.56 4.62-59.74-2.6-22.29-5.1-44.59-7.64-66.88-1.99-17.43-4.07-35.15-9.37-51.94-2.74-8.7-6.33-17.06-10.97-24.92.12-.66.1-1.32-.09-1.94-1.52-4.94-4.66-7.53-8.38-10.89-.48-.43-.96-.87-1.43-1.32-1.86-2.12-3.85-4.09-5.98-5.76-.82-.83-1.63-1.67-2.44-2.51-6.73-7.05-13.09-14.46-18.74-22.4-5.48-7.7-10.43-15.74-15.14-23.93-4.79-8.33-7.96-17.52-12.74-25.79-.41-.71-1.45-.85-2.03-.26-1.48 1.53-2.43 3.23-2.25 5.02l-.74.11c-.28-2.7-2.77-4.9-6.15-4.31-5.06.88-9.22 1.21-13.6-.47.77-5.11 1.48-10.23 2.18-15.36 1.28-9.44 2.47-18.91 3.49-28.38 2.47.59 4.92 1.44 7.32 2.52 3.42 1.53 6.65 3.59 9.41 6.12 2.72 2.5 4.6 5.87 7.92 7.61 3.82 1.99 8.43-1.3 7.31-5.62-2.27-8.73-15.12-13.73-23.07-15.38-2.73-.57-5.52-.81-8.31-.75.63-6.08 1.19-12.16 1.65-18.25.22-2.88.42-5.76.61-8.65 6.18-1.87 12.8-2.43 19.23-1.55 2.12 1.69 4.24 3.36 6.29 5.05 6.51 5.38 12.99 10.79 19.39 16.3.58.49 1.15.98 1.73 1.48 3.8 3.27 8.54.03 7.9-4.6-5.22-37.94 18.02-68.12 45.23-91.5 30.12-25.89 84.88-28.905 120.7-73.75 16.497 3.358 53.33 13.33 68.53 37.55 21.28 33.94 18.5 64.35 20.12 102.85 1.62 38.53 5.74 78.72-3.01 116.71-8.07 35.03-29.92 64.96-63.82 78.72-.84.34-1.69.67-2.54.99-17.53 6.61-36.66 8.48-55.1 5-20.41-3.86-37.45-13.2-54.43-24.69-.98-.65-2.41.69-1.67 1.67 22.38 29.66 66.34 39.57 101.21 31.74 1.63-.37 3.25-.77 4.86-1.21-7.8 22.43-6.23 47.05 3.93 68.89 6.11 13.14 15.43 24.51 26.78 33.48 12.51 9.88 28.03 17.86 36.71 31.73 7.95 12.71 5.59 26.99-8.02 34.33-3.43 1.86-4.75 7.87-1.35 10.51 1.3 1 2.6 2.02 3.93 3.02 7.62 5.75 28.55 16.55 31.94 16.95 30.1 3.57 50.34-18.53 63.31-44.6 15.23-30.6 11.27-67.89-5.51-97.03-13.46-23.38-39.97-46.42-29.43-76.01 3.76-10.57 11.45-19.58 18.92-27.72 8.52-9.27 17.68-17.95 25.85-27.55 8.12-9.53 15.32-19.9 19.34-31.86 5.87-17.48 2.95-36.38-1.46-53.83-9.45-37.46-21.72-74.42-34.79-110.75Z"
            clip-rule="evenodd" />
        <g id="🖍 Ink">
            <mask id="path-3-inside-1_0_1996" fill="#fff">
                <path fill-rule="evenodd"
                    d="M474.189 231.36c-6.56-18.22-13.49-36.3-20.78-54.24-7.1-17.46-13.513-35.297-22.33-51.93-52.66-99.34-148.42-99.34-197.92-86.36-25.67-11.06-73.751-7.94-100.48 2.04-43.272 16.157-96.021 79.715-114.056 108.271-39.82 63.049-64.67 146.966-38.22 219.822 3.458 9.522 7.867 18.341 12.83 26.84-3.126 4.238-6.725 8.252-10.712 12.196-11.848 11.722-23.696 23.058-33.931 36.279-10.171 13.139-18.603 27.111-24.88 42.516-11.836 29.052-12.406 61.948 3.242 89.669 13.614 24.12 37.73 42.081 64.902 43.794 1.395.194 2.792.372 4.195.513a78.55 78.55 0 0 0 13 16.15c15.35 14.6 51.94 22.09 72.81 22.57 1.07.86 2.15 1.72 3.23 2.57 12.77 10.05 26.17 20.19 40.83 27.34 9.93 4.85 22.95 8.9 33.31 5.4 4.7 3.14 12.41 2.48 17.07-.09 7.66-4.22 13.89-11.82 17.68-19.6 9.19-18.89 6.98-39.56 4.62-59.74-2.6-22.29-5.1-44.59-7.64-66.88-1.99-17.43-4.07-35.15-9.37-51.94-2.74-8.7-6.33-17.06-10.97-24.92.12-.66.1-1.32-.09-1.94-1.52-4.94-4.66-7.53-8.38-10.89-.48-.43-.96-.87-1.43-1.32-1.86-2.12-3.85-4.09-5.98-5.76-.82-.83-1.63-1.67-2.44-2.51-6.73-7.05-13.09-14.46-18.74-22.4-5.48-7.7-10.43-15.74-15.14-23.93-4.79-8.33-7.96-17.52-12.74-25.79-.41-.71-1.599-1.18-2.179-.59-2.5 1-.5.5-3 1h-6c-5.06.88-9.211 1.36-13.591-.32.77-5.11 1.48-10.23 2.18-15.36 1.28-9.44 2.47-18.91 3.49-28.38 2.47.59 4.92 1.44 7.32 2.52 3.42 1.53 6.65 3.59 9.41 6.12 2.72 2.5 4.6 5.87 7.92 7.61 3.82 1.99 8.43-1.3 7.31-5.62-2.27-8.73-15.12-13.73-23.07-15.38-2.73-.57-5.52-.81-8.31-.75.63-6.08 1.19-12.16 1.65-18.25.22-2.88.42-5.76.61-8.65 6.18-1.87 12.8-2.43 19.23-1.55 2.12 1.69 4.24 3.36 6.29 5.05 6.51 5.38 12.99 10.79 19.39 16.3.58.49 1.15.98 1.73 1.48 3.8 3.27 8.54.03 7.9-4.6-5.22-37.94 18.02-68.12 45.23-91.5 30.12-25.89 84.88-28.905 120.7-73.75 16.497 3.358 53.33 13.33 68.53 37.55 21.28 33.94 18.5 64.35 20.12 102.85 1.62 38.53 5.74 78.72-3.01 116.71-8.07 35.03-29.92 64.96-63.82 78.72-.84.34-1.69.67-2.54.99-17.53 6.61-36.66 8.48-55.1 5-20.41-3.86-37.45-13.2-54.43-24.69-.98-.65-2.41.69-1.67 1.67 22.38 29.66 66.34 39.57 101.21 31.74 1.63-.37 3.25-.77 4.86-1.21-7.8 22.43-6.23 47.05 3.93 68.89 6.11 13.14 15.43 24.51 26.78 33.48 12.51 9.88 28.03 17.86 36.71 31.73 7.95 12.71 5.59 26.99-8.02 34.33-3.43 1.86-4.75 7.87-1.35 10.51 1.3 1 2.6 2.02 3.93 3.02 7.62 5.75 28.55 16.55 31.94 16.95 30.1 3.57 50.34-18.53 63.31-44.6 15.23-30.6 11.27-67.89-5.51-97.03-13.46-23.38-39.97-46.42-29.43-76.01 3.76-10.57 11.45-19.58 18.92-27.72 8.52-9.27 17.68-17.95 25.85-27.55 8.12-9.53 15.32-19.9 19.34-31.86 5.87-17.48 2.95-36.38-1.46-53.83-9.45-37.46-21.72-74.42-34.79-110.75Z"
                    clip-rule="evenodd" />
            </mask>
            <path fill-rule="evenodd" stroke="#000" stroke-width="20"
                d="M474.189 231.36c-6.56-18.22-13.49-36.3-20.78-54.24-7.1-17.46-13.513-35.297-22.33-51.93-52.66-99.34-148.42-99.34-197.92-86.36-25.67-11.06-73.751-7.94-100.48 2.04-43.272 16.157-96.021 79.715-114.056 108.271-39.82 63.049-64.67 146.966-38.22 219.822 3.458 9.522 7.867 18.341 12.83 26.84-3.126 4.238-6.725 8.252-10.712 12.196-11.848 11.722-23.696 23.058-33.931 36.279-10.171 13.139-18.603 27.111-24.88 42.516-11.836 29.052-12.406 61.948 3.242 89.669 13.614 24.12 37.73 42.081 64.902 43.794 1.395.194 2.792.372 4.195.513a78.55 78.55 0 0 0 13 16.15c15.35 14.6 51.94 22.09 72.81 22.57 1.07.86 2.15 1.72 3.23 2.57 12.77 10.05 26.17 20.19 40.83 27.34 9.93 4.85 22.95 8.9 33.31 5.4 4.7 3.14 12.41 2.48 17.07-.09 7.66-4.22 13.89-11.82 17.68-19.6 9.19-18.89 6.98-39.56 4.62-59.74-2.6-22.29-5.1-44.59-7.64-66.88-1.99-17.43-4.07-35.15-9.37-51.94-2.74-8.7-6.33-17.06-10.97-24.92.12-.66.1-1.32-.09-1.94-1.52-4.94-4.66-7.53-8.38-10.89-.48-.43-.96-.87-1.43-1.32-1.86-2.12-3.85-4.09-5.98-5.76-.82-.83-1.63-1.67-2.44-2.51-6.73-7.05-13.09-14.46-18.74-22.4-5.48-7.7-10.43-15.74-15.14-23.93-4.79-8.33-7.96-17.52-12.74-25.79-.41-.71-1.599-1.18-2.179-.59-2.5 1-.5.5-3 1h-6c-5.06.88-9.211 1.36-13.591-.32.77-5.11 1.48-10.23 2.18-15.36 1.28-9.44 2.47-18.91 3.49-28.38 2.47.59 4.92 1.44 7.32 2.52 3.42 1.53 6.65 3.59 9.41 6.12 2.72 2.5 4.6 5.87 7.92 7.61 3.82 1.99 8.43-1.3 7.31-5.62-2.27-8.73-15.12-13.73-23.07-15.38-2.73-.57-5.52-.81-8.31-.75.63-6.08 1.19-12.16 1.65-18.25.22-2.88.42-5.76.61-8.65 6.18-1.87 12.8-2.43 19.23-1.55 2.12 1.69 4.24 3.36 6.29 5.05 6.51 5.38 12.99 10.79 19.39 16.3.58.49 1.15.98 1.73 1.48 3.8 3.27 8.54.03 7.9-4.6-5.22-37.94 18.02-68.12 45.23-91.5 30.12-25.89 84.88-28.905 120.7-73.75 16.497 3.358 53.33 13.33 68.53 37.55 21.28 33.94 18.5 64.35 20.12 102.85 1.62 38.53 5.74 78.72-3.01 116.71-8.07 35.03-29.92 64.96-63.82 78.72-.84.34-1.69.67-2.54.99-17.53 6.61-36.66 8.48-55.1 5-20.41-3.86-37.45-13.2-54.43-24.69-.98-.65-2.41.69-1.67 1.67 22.38 29.66 66.34 39.57 101.21 31.74 1.63-.37 3.25-.77 4.86-1.21-7.8 22.43-6.23 47.05 3.93 68.89 6.11 13.14 15.43 24.51 26.78 33.48 12.51 9.88 28.03 17.86 36.71 31.73 7.95 12.71 5.59 26.99-8.02 34.33-3.43 1.86-4.75 7.87-1.35 10.51 1.3 1 2.6 2.02 3.93 3.02 7.62 5.75 28.55 16.55 31.94 16.95 30.1 3.57 50.34-18.53 63.31-44.6 15.23-30.6 11.27-67.89-5.51-97.03-13.46-23.38-39.97-46.42-29.43-76.01 3.76-10.57 11.45-19.58 18.92-27.72 8.52-9.27 17.68-17.95 25.85-27.55 8.12-9.53 15.32-19.9 19.34-31.86 5.87-17.48 2.95-36.38-1.46-53.83-9.45-37.46-21.72-74.42-34.79-110.75Z"
                clip-rule="evenodd" mask="url(#path-3-inside-1_0_1996)" />
        </g>
    </g>
</svg>