<svg width="474" height="567" viewBox="0 0 474 567" fill="none" xmlns="http://www.w3.org/2000/svg">
<g id="head/Long Bangs">
<path id="&#226;&#156;&#139; Skin" fill-rule="evenodd" clip-rule="evenodd" d="M405.866 203.178C395.565 165.992 356.19 149.766 320.728 147.191C224.714 137.21 126.984 190.734 84.4183 277.525C50.3453 343.428 49.2783 412.658 122.52 450.287C126.52 452.492 130.697 454.849 134.963 456.989C138.669 460.435 142.486 463.746 146.652 466.526C186.535 492.752 235.486 504.095 282.924 501.635C352.965 500.223 377.969 452.696 393.27 391.747C409.408 331.068 418.433 265.226 405.866 203.178V203.178Z" fill="#D08B5B"/>
<path id="&#240;&#159;&#146;&#136; Hair" fill-rule="evenodd" clip-rule="evenodd" d="M451.844 553.684C448.574 543.794 444.474 534.204 440.644 524.514C439.834 519.684 439.294 514.814 439.155 509.904C438.624 492.364 441.905 474.674 445.584 457.594C453.064 422.884 460.994 388.534 464.974 353.184C472.084 289.954 467.854 224.204 439.094 166.484C414.174 116.484 371.944 75.5939 317.394 60.2739C301.268 55.7429 284.671 53.2439 267.96 52.2459C265.891 51.9169 263.825 51.5949 261.769 51.2849C238.525 47.7809 214.995 46.0349 191.501 47.5459C152.541 50.0529 113.945 61.2489 81.4966 83.3929C48.8276 105.69 25.6156 136.954 14.8146 175.087C3.57859 214.757 4.53159 257.72 -14.8714 294.912C-20.6034 305.9 -27.2944 316.346 -33.6754 326.966C-50.6064 345.857 -68.9884 366.858 -73.0164 392.833C-77.9864 424.934 -59.5164 452.064 -42.0364 477.114C-26.2364 499.734 -4.79641 530.974 -21.0564 558.824C-28.7264 571.964 -41.0164 581.794 -50.2464 593.774C-59.8164 606.214 -67.2864 620.494 -71.1464 635.754C-78.3964 664.413 -71.7264 694.284 -52.3364 716.684C-42.2364 728.344 -29.2664 736.054 -15.2264 742.064C-0.856407 748.204 13.1836 754.034 25.0636 764.484C30.4936 769.254 35.4636 774.484 40.1636 779.964C44.5436 786.814 49.6436 793.214 55.3936 799.074C61.7236 805.524 74.1236 796.694 68.3136 789.104C67.8836 788.544 67.4636 787.994 67.0336 787.434C62.7836 781.894 58.5136 776.354 54.0436 770.994C40.7136 749.873 35.5836 724.014 42.2136 699.344C43.9336 692.934 46.3536 686.854 49.3646 681.114C50.0036 682.784 50.7036 684.434 51.4436 686.064C54.3236 692.384 58.3646 699.873 63.5036 706.274C63.7036 710.663 64.3646 715.014 65.6436 719.274C73.5636 745.684 100.044 758.714 123.924 768.854C126.264 769.854 128.574 770.814 130.844 771.764C137.084 774.373 143.684 765.484 139.794 760.123C138.774 758.714 137.784 757.274 136.844 755.814C125.644 738.474 120.314 717.734 123.334 697.074C126.514 675.224 139.394 657.144 152.184 639.794C164.744 622.734 178.234 605.324 183.854 584.514C190.074 561.524 184.414 538.604 174.814 517.444C166.024 498.081 154.315 480.234 144.496 461.404C147.858 464.757 151.327 468 154.901 471.128C158.92 474.646 163.049 478.672 167.812 481.152C171.334 482.985 174.862 478.597 172.073 475.63C168.407 471.732 163.716 468.72 159.645 465.241C155.737 461.902 151.942 458.429 148.241 454.862C143.684 450.471 139.349 445.873 135.169 441.136C131.824 432.615 129.068 423.865 126.824 414.984C123.774 402.964 120.954 390.174 121.174 377.714C121.394 364.934 128.034 355.984 136.874 347.404C140.618 343.771 144.398 340.181 148.171 336.584C156.207 330.685 163.787 324.095 171.15 317.523C184.27 305.812 196.96 293.433 209.079 280.692C212.33 277.274 215.554 273.818 218.738 270.322C229.863 258.906 240.473 246.986 250.474 234.654C260.414 231.034 269.964 226.244 278.924 220.604C275.024 224.554 271.084 228.454 267.164 232.384C258.434 241.144 249.365 249.944 239.244 257.083C238.204 257.824 238.834 259.394 240.115 259.144C252.984 256.574 265.024 252.294 276.264 245.474C287.694 238.534 297.764 229.104 307.164 219.644C312.484 217.244 317.615 214.154 322.304 211.114C322.554 210.954 322.804 210.784 323.054 210.623C318.434 225.264 311.655 241.844 297.204 247.064C296.734 247.234 296.764 248.014 297.324 247.984C309.498 247.27 319.282 241.793 327.006 233.81C333.218 229.34 339.146 224.603 344.803 219.446C350.283 214.45 355.474 209.092 360.404 203.544C353.514 217.193 345.796 230.539 338.184 243.734C337.784 244.434 338.624 245.384 339.344 244.894C355.414 234.014 367.604 219.974 377.574 203.373C379.046 200.929 380.451 198.445 381.821 195.942C380.787 199.859 379.658 203.751 378.449 207.623C376.26 214.632 374.105 221.657 371.912 228.662C370.73 232.439 369.289 236.13 367.708 239.758C366.576 242.354 365.094 244.945 364.864 247.792C364.849 247.981 365.055 248.105 365.22 248.064C371.628 246.462 377.595 239.154 382.161 234.627C384.704 232.106 387.086 229.339 389.277 226.421C389.684 243.228 389.964 260.037 389.594 276.894C388.905 307.854 386.905 338.804 384.344 369.663C382.084 396.944 380.414 425.574 365.194 449.284C353.414 467.634 334.314 480.333 313.564 486.484C311.734 487.034 309.894 487.524 308.044 487.964C278.004 495.094 248.084 487.014 221.524 472.734C213.544 468.444 206.724 480.083 214.424 484.873C243.244 502.814 279.774 508.924 312.394 500.884C311.365 539.413 330.354 575.964 349.244 608.644C359.814 626.934 370.394 645.104 377.865 664.934C384.204 681.774 388.514 699.244 389.964 717.214C391.684 738.394 389.994 759.694 387.034 780.694C386.874 781.833 386.714 782.984 386.544 784.123C385.884 788.634 389.934 792.413 394.324 790.104C413.734 779.904 422.104 758.163 427.194 738.064C431.954 719.234 435.184 700.034 436.984 680.704C439.624 687.994 441.764 695.464 443.424 703.083C443.655 704.174 443.874 705.264 444.094 706.354C445.354 712.724 454.994 712.274 456.534 706.354C456.814 705.284 457.084 704.214 457.334 703.134C465.284 670.984 467.424 637.454 463.224 604.583C461.014 587.294 457.324 570.234 451.844 553.684Z" fill="#D6B370"/>
<g id="&#240;&#159;&#150;&#141; Ink">
<mask id="path-3-inside-1_0_808" fill="white">
<path fill-rule="evenodd" clip-rule="evenodd" d="M451.844 553.684C448.574 543.794 444.474 534.204 440.644 524.514C439.834 519.684 439.294 514.814 439.155 509.904C438.624 492.364 441.905 474.674 445.584 457.594C453.064 422.884 460.994 388.534 464.974 353.184C472.084 289.954 467.854 224.204 439.094 166.484C414.174 116.484 371.944 75.5939 317.394 60.2739C301.268 55.7429 284.671 53.2439 267.96 52.2459C265.891 51.9169 263.825 51.5949 261.769 51.2849C238.525 47.7809 214.995 46.0349 191.501 47.5459C152.541 50.0529 113.945 61.2489 81.4966 83.3929C48.8276 105.69 25.6156 136.954 14.8146 175.087C3.57859 214.757 4.53159 257.72 -14.8714 294.912C-20.6034 305.9 -27.2944 316.346 -33.6754 326.966C-50.6064 345.857 -68.9884 366.858 -73.0164 392.833C-77.9864 424.934 -59.5164 452.064 -42.0364 477.114C-26.2364 499.734 -4.79641 530.974 -21.0564 558.824C-28.7264 571.964 -41.0164 581.794 -50.2464 593.774C-59.8164 606.214 -67.2864 620.494 -71.1464 635.754C-78.3964 664.413 -71.7264 694.284 -52.3364 716.684C-42.2364 728.344 -29.2664 736.054 -15.2264 742.064C-0.856407 748.204 13.1836 754.034 25.0636 764.484C30.4936 769.254 35.4636 774.484 40.1636 779.964C44.5436 786.814 49.6436 793.214 55.3936 799.074C61.7236 805.524 74.1236 796.694 68.3136 789.104C67.8836 788.544 67.4636 787.994 67.0336 787.434C62.7836 781.894 58.5136 776.354 54.0436 770.994C40.7136 749.873 35.5836 724.014 42.2136 699.344C43.9336 692.934 46.3536 686.854 49.3646 681.114C50.0036 682.784 50.7036 684.434 51.4436 686.064C54.3236 692.384 58.3646 699.873 63.5036 706.274C63.7036 710.663 64.3646 715.014 65.6436 719.274C73.5636 745.684 100.044 758.714 123.924 768.854C126.264 769.854 128.574 770.814 130.844 771.764C137.084 774.373 143.684 765.484 139.794 760.123C138.774 758.714 137.784 757.274 136.844 755.814C125.644 738.474 120.314 717.734 123.334 697.074C126.514 675.224 139.394 657.144 152.184 639.794C164.744 622.734 178.234 605.324 183.854 584.514C190.074 561.524 184.414 538.604 174.814 517.444C166.024 498.081 154.315 480.234 144.496 461.404C147.858 464.757 151.327 468 154.901 471.128C158.92 474.646 163.049 478.672 167.812 481.152C171.334 482.985 174.862 478.597 172.073 475.63C168.407 471.732 163.716 468.72 159.645 465.241C155.737 461.902 151.942 458.429 148.241 454.862C143.684 450.471 139.349 445.873 135.169 441.136C131.824 432.615 129.068 423.865 126.824 414.984C123.774 402.964 120.954 390.174 121.174 377.714C121.394 364.934 128.034 355.984 136.874 347.404C140.618 343.771 144.398 340.181 148.171 336.584C156.207 330.685 163.787 324.095 171.15 317.523C184.27 305.812 196.96 293.433 209.079 280.692C212.33 277.274 215.554 273.818 218.738 270.322C229.863 258.906 240.473 246.986 250.474 234.654C260.414 231.034 269.964 226.244 278.924 220.604C275.024 224.554 271.084 228.454 267.164 232.384C258.434 241.144 249.365 249.944 239.244 257.083C238.204 257.824 238.834 259.394 240.115 259.144C252.984 256.574 265.024 252.294 276.264 245.474C287.694 238.534 297.764 229.104 307.164 219.644C312.484 217.244 317.615 214.154 322.304 211.114C322.554 210.954 322.804 210.784 323.054 210.623C318.434 225.264 311.655 241.844 297.204 247.064C296.734 247.234 296.764 248.014 297.324 247.984C309.498 247.27 319.282 241.793 327.006 233.81C333.218 229.34 339.146 224.603 344.803 219.446C350.283 214.45 355.474 209.092 360.404 203.544C353.514 217.193 345.796 230.539 338.184 243.734C337.784 244.434 338.624 245.384 339.344 244.894C355.414 234.014 367.604 219.974 377.574 203.373C379.046 200.929 380.451 198.445 381.821 195.942C380.787 199.859 379.658 203.751 378.449 207.623C376.26 214.632 374.105 221.657 371.912 228.662C370.73 232.439 369.289 236.13 367.708 239.758C366.576 242.354 365.094 244.945 364.864 247.792C364.849 247.981 365.055 248.105 365.22 248.064C371.628 246.462 377.595 239.154 382.161 234.627C384.704 232.106 387.086 229.339 389.277 226.421C389.684 243.228 389.964 260.037 389.594 276.894C388.905 307.854 386.905 338.804 384.344 369.663C382.084 396.944 380.414 425.574 365.194 449.284C353.414 467.634 334.314 480.333 313.564 486.484C311.734 487.034 309.894 487.524 308.044 487.964C278.004 495.094 248.084 487.014 221.524 472.734C213.544 468.444 206.724 480.083 214.424 484.873C243.244 502.814 279.774 508.924 312.394 500.884C311.365 539.413 330.354 575.964 349.244 608.644C359.814 626.934 370.394 645.104 377.865 664.934C384.204 681.774 388.514 699.244 389.964 717.214C391.684 738.394 389.994 759.694 387.034 780.694C386.874 781.833 386.714 782.984 386.544 784.123C385.884 788.634 389.934 792.413 394.324 790.104C413.734 779.904 422.104 758.163 427.194 738.064C431.954 719.234 435.184 700.034 436.984 680.704C439.624 687.994 441.764 695.464 443.424 703.083C443.655 704.174 443.874 705.264 444.094 706.354C445.354 712.724 454.994 712.274 456.534 706.354C456.814 705.284 457.084 704.214 457.334 703.134C465.284 670.984 467.424 637.454 463.224 604.583C461.014 587.294 457.324 570.234 451.844 553.684Z"/>
</mask>
<path fill-rule="evenodd" clip-rule="evenodd" d="M451.844 553.684C448.574 543.794 444.474 534.204 440.644 524.514C439.834 519.684 439.294 514.814 439.155 509.904C438.624 492.364 441.905 474.674 445.584 457.594C453.064 422.884 460.994 388.534 464.974 353.184C472.084 289.954 467.854 224.204 439.094 166.484C414.174 116.484 371.944 75.5939 317.394 60.2739C301.268 55.7429 284.671 53.2439 267.96 52.2459C265.891 51.9169 263.825 51.5949 261.769 51.2849C238.525 47.7809 214.995 46.0349 191.501 47.5459C152.541 50.0529 113.945 61.2489 81.4966 83.3929C48.8276 105.69 25.6156 136.954 14.8146 175.087C3.57859 214.757 4.53159 257.72 -14.8714 294.912C-20.6034 305.9 -27.2944 316.346 -33.6754 326.966C-50.6064 345.857 -68.9884 366.858 -73.0164 392.833C-77.9864 424.934 -59.5164 452.064 -42.0364 477.114C-26.2364 499.734 -4.79641 530.974 -21.0564 558.824C-28.7264 571.964 -41.0164 581.794 -50.2464 593.774C-59.8164 606.214 -67.2864 620.494 -71.1464 635.754C-78.3964 664.413 -71.7264 694.284 -52.3364 716.684C-42.2364 728.344 -29.2664 736.054 -15.2264 742.064C-0.856407 748.204 13.1836 754.034 25.0636 764.484C30.4936 769.254 35.4636 774.484 40.1636 779.964C44.5436 786.814 49.6436 793.214 55.3936 799.074C61.7236 805.524 74.1236 796.694 68.3136 789.104C67.8836 788.544 67.4636 787.994 67.0336 787.434C62.7836 781.894 58.5136 776.354 54.0436 770.994C40.7136 749.873 35.5836 724.014 42.2136 699.344C43.9336 692.934 46.3536 686.854 49.3646 681.114C50.0036 682.784 50.7036 684.434 51.4436 686.064C54.3236 692.384 58.3646 699.873 63.5036 706.274C63.7036 710.663 64.3646 715.014 65.6436 719.274C73.5636 745.684 100.044 758.714 123.924 768.854C126.264 769.854 128.574 770.814 130.844 771.764C137.084 774.373 143.684 765.484 139.794 760.123C138.774 758.714 137.784 757.274 136.844 755.814C125.644 738.474 120.314 717.734 123.334 697.074C126.514 675.224 139.394 657.144 152.184 639.794C164.744 622.734 178.234 605.324 183.854 584.514C190.074 561.524 184.414 538.604 174.814 517.444C166.024 498.081 154.315 480.234 144.496 461.404C147.858 464.757 151.327 468 154.901 471.128C158.92 474.646 163.049 478.672 167.812 481.152C171.334 482.985 174.862 478.597 172.073 475.63C168.407 471.732 163.716 468.72 159.645 465.241C155.737 461.902 151.942 458.429 148.241 454.862C143.684 450.471 139.349 445.873 135.169 441.136C131.824 432.615 129.068 423.865 126.824 414.984C123.774 402.964 120.954 390.174 121.174 377.714C121.394 364.934 128.034 355.984 136.874 347.404C140.618 343.771 144.398 340.181 148.171 336.584C156.207 330.685 163.787 324.095 171.15 317.523C184.27 305.812 196.96 293.433 209.079 280.692C212.33 277.274 215.554 273.818 218.738 270.322C229.863 258.906 240.473 246.986 250.474 234.654C260.414 231.034 269.964 226.244 278.924 220.604C275.024 224.554 271.084 228.454 267.164 232.384C258.434 241.144 249.365 249.944 239.244 257.083C238.204 257.824 238.834 259.394 240.115 259.144C252.984 256.574 265.024 252.294 276.264 245.474C287.694 238.534 297.764 229.104 307.164 219.644C312.484 217.244 317.615 214.154 322.304 211.114C322.554 210.954 322.804 210.784 323.054 210.623C318.434 225.264 311.655 241.844 297.204 247.064C296.734 247.234 296.764 248.014 297.324 247.984C309.498 247.27 319.282 241.793 327.006 233.81C333.218 229.34 339.146 224.603 344.803 219.446C350.283 214.45 355.474 209.092 360.404 203.544C353.514 217.193 345.796 230.539 338.184 243.734C337.784 244.434 338.624 245.384 339.344 244.894C355.414 234.014 367.604 219.974 377.574 203.373C379.046 200.929 380.451 198.445 381.821 195.942C380.787 199.859 379.658 203.751 378.449 207.623C376.26 214.632 374.105 221.657 371.912 228.662C370.73 232.439 369.289 236.13 367.708 239.758C366.576 242.354 365.094 244.945 364.864 247.792C364.849 247.981 365.055 248.105 365.22 248.064C371.628 246.462 377.595 239.154 382.161 234.627C384.704 232.106 387.086 229.339 389.277 226.421C389.684 243.228 389.964 260.037 389.594 276.894C388.905 307.854 386.905 338.804 384.344 369.663C382.084 396.944 380.414 425.574 365.194 449.284C353.414 467.634 334.314 480.333 313.564 486.484C311.734 487.034 309.894 487.524 308.044 487.964C278.004 495.094 248.084 487.014 221.524 472.734C213.544 468.444 206.724 480.083 214.424 484.873C243.244 502.814 279.774 508.924 312.394 500.884C311.365 539.413 330.354 575.964 349.244 608.644C359.814 626.934 370.394 645.104 377.865 664.934C384.204 681.774 388.514 699.244 389.964 717.214C391.684 738.394 389.994 759.694 387.034 780.694C386.874 781.833 386.714 782.984 386.544 784.123C385.884 788.634 389.934 792.413 394.324 790.104C413.734 779.904 422.104 758.163 427.194 738.064C431.954 719.234 435.184 700.034 436.984 680.704C439.624 687.994 441.764 695.464 443.424 703.083C443.655 704.174 443.874 705.264 444.094 706.354C445.354 712.724 454.994 712.274 456.534 706.354C456.814 705.284 457.084 704.214 457.334 703.134C465.284 670.984 467.424 637.454 463.224 604.583C461.014 587.294 457.324 570.234 451.844 553.684Z" stroke="black" stroke-width="20" stroke-linejoin="round" mask="url(#path-3-inside-1_0_808)"/>
</g>
</g>
</svg>
