<svg xmlns="http://www.w3.org/2000/svg" width="474" height="567" fill="none" viewBox="0 0 474 567"><g id="head/Long Curly" fill-rule="evenodd" clip-rule="evenodd"><path id="✋ Skin" fill="#D08B5B" d="M343.407 146.718c-65.77-53.456-171.167-70.813-241.57-16.882-54.704 50.613-77.342 194.439-67.661 266.711 2.692 46.355 38.107 98.896 90.094 84.235 8.828-.869 17.4-4.253 26.309-4.962 10.657-1.227 21.395-1.248 32.031.255 23.176 3.278 43.721 15.583 66.215 21.336 41.739 10.674 88.31 3.494 124.238-20.55 118.727-78.058 64.947-254.593-29.656-330.143Z"/><path id="🖍 Ink" fill="#000" d="M334.649 498.695c1.221-.421 2.44-.86 3.65-1.31.08.28.21.549.361.81.17.42.34.829.529 1.239-1.519.011-3.04-.26-4.54-.739m-2.439-518.02a28.593 28.593 0 0 0-1.861-3.49c1.7.55 3.401 1.31 4.941 2.29-1.04.35-2.061.75-3.08 1.2M72.42 138.834l-.208-.034c.892-2.375 2.48-4.617 4.236-6.236.315-.291.656-.56.986-.838a50.22 50.22 0 0 0-5.014 7.108m475.349 248.349c-.88-8.34-2-16.649-3.45-24.91-1.39-7.909-2.56-16.369-6.59-23.389-4-6.99-8.01-13.781-12.769-19.93.679-3.14 1.58-6.09 2.359-8.47 4.5-13.7 8.931-31.1-.42-43.83-2.17-2.95-4.819-5.21-7.85-7.25-1.29-.87-3.429-1.66-4.42-2.86-.7-.85-.459-.39-.49-.81-.17-2.26 5.13-7.03 6.37-8.82 2.321-3.311 4.05-7.04 5.37-10.85 5.22-15.08 1.67-31.69-1.469-46.801-1.66-8.009-3.49-16.039-4.091-24.219-.56-7.68.49-15.18 1.11-22.82.601-7.541.441-15.32-2.79-22.301-1.58-3.4-3.969-6.4-6.88-8.74-2.839-2.289-6.38-3.619-9.149-5.899-2.761-2.271-1.971-5.34-1.25-8.48.989-4.26 2.239-8.49 2.359-12.89.22-7.67-2.91-15.14-7.799-20.94-5.041-5.99-12.241-10.04-20.021-10.95-3.56-.42-7.06.29-10.6.04-3.5-.24-4.259-1.99-4.92-5.19-1.519-7.33-.9-14.57-4.509-21.41-3.2-6.08-8.891-10.2-15.181-12.63-11.529-4.46-24.939-3.54-37.1-.91-7.179-21.12-29.589-34.97-51.639-35.14-3.441-5.84-9.271-10.2-15.92-12.76-11-4.25-22.651-1.77-34.11-1.77h-.05a49.078 49.078 0 0 0-3.45-.09 60.921 60.921 0 0 1-3.241-.27c-13.04-1.54-25.94-6.88-38.86-1.65-5.76 2.33-10.34 5.92-13.239 10.5-4.37 1.19-8.681 2.55-12.91 4.13-18.331.48-36.491 10.31-45.76 26.24-13.05-1.48-27.21 1.03-35.841 11.69-2.248 2.774-3.989 6.034-5.143 9.494-8.8 2.846-16.943 7.916-22.272 15.554-4.863 6.97-5.797 15.983-2.508 23.465-7.856 5.69-13.995 13.838-16.952 23.457-1.797 5.846-2.064 11.884-.908 17.637-8.043 1.784-15.736 5.091-22.552 10.054-7.143 5.199-16.064 13.474-16.534 22.998-.035.699-.008 1.398.048 2.095-15.725-1.105-31.76 1.559-42.388 14.166-7.981 9.459-11.45 21.64-9.32 32.73-18.71 3.8-36.401 13.58-48.741 28.04-8.97 10.51-16.94 23.87-16.46 38.179.15 4.311 1.16 8.651 2.91 12.661v.009a72.876 72.876 0 0 0-2.26 4.651c-11.59 8.109-20.01 20.82-24.75 34.83-3.83 11.349-6.24 26.09-2.15 37.64a27.515 27.515 0 0 0 2.33 4.959c-.77.821-1.5 1.641-2.21 2.471-7.81 9.129-15.72 20.629-15.18 33.199.22 5.061 2.1 10.151 5.17 14.33-10.8 10.951-19.499 24.771-18.64 40.201.74 13.43 8.111 27.07 19.66 33.52-1.93 10.35.65 21.27 8.71 29.35 4.02 4.04 8.76 6.7 13.78 8.12 1.12 12.19 11.94 22 23.43 24.819 2.14.531 4.28.851 6.41 1 10.34 5.071 22.67 4.49 33.22-.16 3.11 3.951 7.16 7.171 11.88 9.481a38.74 38.74 0 0 0 6.04 2.349c14.9 4.41 30.18-1.569 43.21-8.549.42-.22 1.19-.5 1.87-.81 1.8 2.01 5.08 4 6.79 4.98 5.8 3.33 12.89 4.879 19.55 4.44 7.81-.52 14.7-3.1 21.08-6.77.931.16 1.87.25 2.811.3 6 .319 11.349-1.58 16.16-4.58 3.179.42 6.439.38 9.739-.2 7.271 1.849 14.351-1.09 20.04-5.76 2.521-2.07 4.65-4.5 6.931-6.82 2.369-2.411 4.17-2.97 6.939-4.59 6.551-3.83 7.34-13.54 4.5-20.561.54-1.229.851-2.599.851-4.119-.021-13.26-6.13-25.42-13.63-36.03-3.351-4.73-6.99-9.361-10.981-13.56-3.21-3.371-7.719-8.84-12.469-10.211-.29-.209-.591-.42-.891-.619.921-3.221 1.46-6.5 1.231-9.85a20.228 20.228 0 0 0-3.13-9.48c5.969-11.57 8.49-24.26 7.29-37.5 4.859-6.891 8.54-14.5 10.439-22.84 1.17-5.16 1.841-10.59 1.75-15.881-.04-2.539-.97-5.75-.989-8.379.14.83 1.22-2.27 1.64-3.041 4.819-8.949 11.009-15.929 12.04-26.479.599-6.171-.861-12.99-4.561-18.05 2.37-9.34 2.34-19.371-1.39-28.28-1-2.38-2.149-4.71-3.469-6.92.609-1.86 1.17-3.74 1.889-5.431.281-.67.56-1.349.84-2.029 2.71-2.391 5.231-5 7.351-7.561 4.699-5.669 8.29-12.169 8.74-19.66.22-3.75-.66-7.34-1.75-10.899-.481-1.61-.771-3.4-1.341-4.97-.319-.871-1.09-1.76-1.359-2.58l-.151-.45c.04-.12.071-.37.071-.841.009-3.59.479-7.1.5-10.559 3.29 3.32 7.25 5.799 11.75 7.25 9.069 2.91 18.53 1.59 26.559-2.9 8.641 5.92 18.35 11.279 28.531 13.43 6.049 1.279 12.11.75 18.179 1.54 6.03.79 11.861 3.42 17.54 5.47 12.641 4.57 25.25 9.259 37.93 13.71 10.24 3.59 21.32 6.44 32.041 4.42 3.01 4.639 6.92 8.56 11.93 11.44a35.322 35.322 0 0 0 11.599 4.13c3.6.61 7.821.37 10.74 2.84 2.85 2.4 4.63 5.979 7.19 8.68 2.851 3.02 6.37 5.64 10.06 7.52a39.43 39.43 0 0 0 9.05 3.31c-.269 6.83-.53 13.65-.61 20.49-.149 14.86-.09 29.719-.289 44.58-.2 14.809-.67 29.62-1.45 44.41-.741 13.88-1.781 27.809-5.091 41.35-10.98 44.93-52.11 77.1-98.15 78.74-13.669.49-27.2-1.43-40.27-5.451-13.539-4.169-25.63-12.75-39.51-15.389-3.63-.681-7.05 2.97-4.97 6.479 3.581 6.031 7.93 9.711 13.88 13.34 6.231 3.791 13.17 6.601 20.02 9.061 12.6 4.519 25.931 7.14 39.301 7.87 10.199.559 20.439-.14 30.429-2.06.701 2.15 1.941 4.241 2.88 6.231.14.29.611.089.521-.211-.151-.5-.25-.94-.29-1.3 3.359 4.38 8.549 7.41 13.88 8.881a30.814 30.814 0 0 0 11.62.919c1.25-.141 2.439-.35 3.62-.61 3.939 3.45 8.979 5.75 14.039 6.9-.869 5.28 1.74 11.041 7.791 12.541 2.539.63 4.979.639 7.42.409 1.97.92 4.09 1.64 6.34 2.13 2.929.64 6.429-.181 8.639-2.3 1.21.85 2.34 1.44 3.46 2.789 4.611 5.561 14.55 1.131 14.99-5.299 1.46 0 2.93.02 4.401.07.349.16.699.32 1.059.49 6.43 2.989 13.09 5.6 20.201 3.25a18.557 18.557 0 0 0 3.599-1.62c5.01.45 9.95.46 15.031-1.18 3-.971 5.819-2.51 8.169-4.53 7.84 2.3 16.111 3.34 23.911.489 5.839-2.129 10.54-5.489 13.849-9.92 5.061.181 10.2-1.039 14.83-3.449 7.92-4.1 13.47-11.89 17.34-19.699 8.521-17.23 13.561-35.741 15.54-54.831 1.95-18.8-.83-37.5-2.79-56.191"/></g></svg>