<svg xmlns="http://www.w3.org/2000/svg" width="474" height="567" fill="none" viewBox="0 0 474 567"><g id="head/Long Afro" fill-rule="evenodd" clip-rule="evenodd"><path id="✋ Skin" fill="#D08B5B" d="M408.514 274.944c-6.864-83.675-27.764-157.785-125.969-160.945-44.318.396-89.557 9.811-130.311 27.231-99.056 49.666-130.485 231.147-43.214 304.201-.519.295-.644 1.148-.031 1.56 18.03 12.13 38.071 22.11 58.143 30.496 53.466 22.604 116.407 32.422 170.934 7.903 83.213-35.408 84.461-133.933 70.448-210.446Z"/><path id="🖍 Ink" fill="#000" d="M572.306 235.943c3.42-3.08 5.97-7.12 7.26-11.65 1.18-4.13 1.26-8.64.01-12.76-1.34-4.42-4.23-7.94-3.58-12.54.07-.45.16-.92.3-1.39 2.5-8.66 8.65-14.91 6.45-24.51-.62-2.71-1.79-5.15-3.42-7.07.18-2.08.34-4.18.47-6.28 3.61-8.45 3.48-18.49-.37-26.81-.47-4.26-1.18-8.48-2.18-12.63.46-3.67-.18-7.71-1.36-10.92-2.073-5.648-4.635-11.213-7.415-16.688.327-1.496.18-3.078-.646-4.485-1.502-2.557-3.487-4.805-5.516-7.002-1.435-2.564-2.88-5.105-4.313-7.614-.664-1.153-1.397-2.432-2.205-3.787 2.202-4.087 3.378-8.069 1.049-12.873-.875-1.805-3.281-3.136-5.262-3.018-2.165.129-4.35.226-6.547.309-4.106-4.959-8.759-9.41-13.745-11.971-5.05-4.28-10.17-8.48-15.15-12.77-1.41-1.22-2.83-2.44-4.24-3.66l-.03-.1c-1.04-3.79-2.21-7.53-3.38-11.29-.73-2.33-.95-4.77-3.22-6.04-4.74-2.65-12.03-3.07-17.47-3.52-.54-.48-1.08-.95-1.62-1.43 2.47-6.58 2.03-13.57-1.08-20.16-1.06-2.24-4.74-3.25-6.76-1.77-4.66 3.42-10.19 4.63-15.66 4.13-8.04-6.18-40.47-34.127-45.481-37.076-.062-.106-.112-.212-.178-.317a40.667 40.667 0 0 0-10.084-11.006l-1.647-1.721c.483-3.43 1.754-6.74 3.8-9.51.22-.32.47-.63.72-.93 3.58-4.26-.79-9.74-5.79-7.51-.36.16-.72.32-1.08.49-3.844 1.714-8.097 3.577-12.526 5.149-1.621-.607-3.273-1.157-4.78-1.763l-16.136-6.487c-2.656-1.069-5.464-1.973-8.033-3.228-.896-5.96-6.868-9.867-13.07-9.663a11.614 11.614 0 0 1 1.645-3.309c.22-.31.46-.61.71-.9 3.19-3.71-1.07-10.59-5.63-7.29-.32.23-.65.46-.97.69a77.735 77.735 0 0 1-3.875 2.531c-2.099-.916-4.463-1.125-6.937-.156-5.478 2.145-10.528 4.326-15.351 7.688-.196.138-.399.253-.597.382-2.394-2.893-6.195-4.827-9.618-4.806l-.186-.002c-2.559-3.899-7.25-6.165-11.78-5.614.306-5.595-5.295-10.588-10.394-11.195-5.958-.708-11.328 2.751-13.116 8.563l-1.493 4.856c-4.626-2.335-9.508-4.124-14.608-5.017-11.613-2.034-22.968.132-34.159 3.356-1.118.322-2.235.653-3.352.983-1.596-1.849-3.093-3.742-4.524-5.509-2.47-3.05-8.4-.61-8 3.31.278 2.705-.821 4.651-2.59 6.034-1.943.284-3.821.37-6.653.313-3.743-.076-5.446-.193-9.36-1.719-1.824-.71-4.095-2.577-5.158-4.253-4.075-6.427-14.426-8.158-19.356-2.03-5.188-2.271-11.738.861-14.618 5.277-1.507 2.309-4.651 3.6-8.609 4.71-2.971.832-6.009 1.462-9.061 2.013-1.36-1.845-4.224-3.082-6.325-1.535a116.27 116.27 0 0 0-4.168 3.237c-10.51 1.447-20.965 1.5-30.986-2.599-8.484-3.47-16.274 6.007-14.874 13.963-2.457 1.28-5.123 2.13-7.55 3.47-5.295 2.927-9.643 7.552-12.293 12.986a50.914 50.914 0 0 0-1.313 2.954 134.76 134.76 0 0 0-5.846 5.01c-3.18-1.63-6.35-3.26-9.53-4.89-2.38-1.22-6.39-.37-6.86 2.79-.77 5.2-2.64 9.51-5.31 13.12-8.68 4.56-17.03 9.68-25.02 15.37-9.19 2.88-18.96 4.56-26.99 6.45-2.75.65-4.25 4.24-2.7 6.63 1.64 2.53 3.28 5.06 4.91 7.59-4.57 4.46-8.86 9.12-12.91 13.94-11.27 13.4-20.7 28.09-29.14 43.65-3.34 1.35-6.68 2.69-10.02 4.04-3.22 1.3-4.67 5.04-2.06 7.79 1.24 1.31 2.35 2.69 3.3 4.14-4.73 7.83-10.3 14.97-18.09 19.65-2.37 1.42-4.15 3.65-5.1 6.18-.81.54-1.61 1.12-2.4 1.71-2.2 1.66-3.53 5.28-.95 7.43 1.81 1.52 3.51 3.32 4.95 5.31.31 1.129.63 2.269.95 3.399-7.24 6.66-13.26 14.4-17.78 23.08-1.07-.17-2.17-.06-3.06.6-8.08 5.97-8.32 15.48-5.07 23.98-1.96 12.81-.7 25.94 3.08 38.35-4.97 4.96-7.96 12.12-9.18 19.02-2.15 12.12-2.3 30.76-2.86 43.13-5.42 5.23-9.28 12-11.43 19.28l-5.43 2.7c-1.61.8-2.79 2.91-2.69 4.69.46 8.61 4.01 15.41 8.72 21.57 1.67 4.75 4.14 9.13 7.38 13.33 2.24 2.88 4.43 5.64 6.36 8.75.2.31.32.6.41.8-.76.82-1.39 2.18-1.94 3.15-4.62 8.14-4.69 17.681 1.87 24.771-2.47 2.02-2.55 6.099-.37 8.599 14.19 16.21 26.02 35.921 45.71 44.531.09.15.17.299.24.449-3.99 9.6-4.53 14.59-1.27 24.51.02.09.05.17.08.26 1.74 5.2 4.94 13.531 10.71 15.151 1.82.51 3.61.739 5.38.729 4.58 4.41 9.15 8.83 13.72 13.25.4 2.19.65 4.4.73 6.63.13 3.73 3.64 6.751 7.42 5.651 1.33-.39 8.69-7.54 10.04-7.5.68.68 1.34 1.359 2 2.049 2.43 2.55 5.8 6.57 6.08 9.24.54 5.03 3.84 10.79 9.17 11.81 2 2.03 5.2 2.64 7.65-.01.16-.17.32-.34.49-.49l.77-.09c1.18 3.52 2.36 7.041 3.55 10.551 2.33 6.92 11.23 11.369 17.55 7.329 1.02.61 2.02 1.26 3.02 1.91 1.52.97 3.06 1.961 4.64 2.891.09.26.18.519.26.769 1.02 3.11 5.26 4.78 7.87 2.99.81.26 1.64.47 2.48.64 4.41.87 8.85.631 13.11-.839 3.05-1.04 5.96-3.031 9.24-3.301.205-.017.416-.003.624-.009 2.676 5.482 8.79 10.206 13.61 11.811 6.312 2.103 12.772 1.351 18.52-1.224a43.01 43.01 0 0 0 5.826 8.752c1.29 1.5 3.62 1.18 4.95 0 2.526-2.239 5.036-4.489 7.542-6.742 1.814-.699 3.645-1.538 5.555-2.318 5.974-2.44 12.523-3.451 18.048-6.977 2.623-1.674 5.09-3.81 7.122-6.285 3.828-2.21 7.345-4.963 10.513-8.118 1.58.01 3.23-.36 4.83-1.17 6.69-3.4 10.21-10.32 10.52-17.4 5.42-12.75 8.62-26.349 9.5-40.269.28-4.57.33-9.18-.02-13.75-.24-3.22-1.05-5.371-2.27-8.281-.41-.95-.78-1.819-1.07-2.779.07-3.08.11-6.161.15-9.231.83-2.59 2.31-4.999 4.37-7.029 3.19-3.14 4.65-9.661 1.75-13.541-1.89-2.51-3.77-5.02-5.66-7.53.53-10.77 3.11-27.91-2.61-29.71.23-1.6.72-3.18 1-4.77 1.34-7.64.54-14.47-3.52-21.15-.85-1.39-1.57-2.62-2.16-3.82l-1.11-6.6c-.57-3.39-1.13-6.81-1.61-10.25-.25-4.38-.48-8.76-.73-13.15-.23-4.04-.49-8.08-.76-12.13.11-1.81.27-3.62.5-5.43 1.37-10.79 5.78-14.78 13.42-22.28a80 80 0 0 0 3.56-.64c5.45-1.13 11.15-2.88 16.76-2.25 6.09.68 11.54 3.31 17.46-.05 1.74-1 5.57-3.76 5.9-5.95.02-.14.05-.26.09-.35.41-.06.94-.11 1.27-.12 4.7-.16 9.19 1.69 13.93 1.18 5.61-.6 10.63-3.09 13.93-6.78 4.23 1.04 8.55 1.51 12.94.93 3.68-.48 6.98-1.68 10.24-3.46 2.37-1.28 1.62-1.65 4.2-.61 5.87 2.38 11.18 5.52 17.79 3.89 3.43-.84 6.39-2.69 8.88-5.18.59-.58 1.59-1.45 2.26-2.27 3.14 1.59 11.04 5.18 12.34 5.5 3.68.9 7.58.76 11.16-.44 2.63-.88 5.85-3.28 8.16-3.77 2.99-.64 9.63 3.52 13.2 4.95 6.26 2.51 12.89 3.13 19.23.54 2.18-.89 6.42-4.44 8.05-4.41 2.65 3.27 10.05 21.16 12.27 27.69 8.99 26.4 11.32 108.83 7.17 129.86-.16.62-.33 1.23-.5 1.85-5.1 18.29-10.41 36.89-18.94 53.93-8.05 16.06-19.18 30.52-35.15 39.29-16.56 9.1-36 11.49-54.62 10.26-11.99-.78-23.78-3.19-35.38-6.21-6.06-1.57-12.07-3.319-18.05-5.139-2.61-.79-5.26-1.531-7.82-2.451-4.52-1.63-6.89-1.759-11.22.331-3.94 1.9-4.95 7.509-2.9 11.039 3.34 5.76 9.46 6.16 15.37 7.84 6.02 1.71 12.06 3.35 18.14 4.82 11.65 2.8 23.49 4.95 35.43 5.94 21.38 1.79 43.41-.97 62.87-10.3a82.17 82.17 0 0 0 6.37-3.409 232.46 232.46 0 0 1-2.31 3.169c-2.16 2.91-.56 7.861 2.47 9.451.96.5 1.92.98 2.89 1.45.13.31.27.62.43.93 2.77 5.56 8.57 8.84 14.48 10.26 7.02 1.68 14.88.489 22.02.279l19.85-.599c1.56-.04 3.12-.091 4.68-.141 7.86-.24 15.71-.47 23.56-.71 7-.21 6.67.331 13.24-2.469 2.93-1.26 5.33-3.041 7.35-5.411 1.26-.56 2.48-1.2 3.65-1.93 3.76-2.34 7.1-5.48 10.18-8.94 5.23 1.65 12.56.12 13.58-6.45 1.64-10.51 15.3-15 21.68-22.6 5.15-6.13 8.83-14.16 8.64-21.87 12.98-6.28 20.04-22.83 21.69-36.87.77-6.51.65-13.48 1.76-20.1.49-.53.93-1.09 1.3-1.69 3.26-5.27 6.1-10.7 8.6-16.26 3.4-2.45 7.49-3.96 11.77-4.21 10.52-.61 12.5-14.8 2.47-18.22-.05-.02-.09-.03-.14-.05 2.72-6.8 2.49-14.85-.81-21.29.14-.7.27-1.39.4-2.09 5.63-6.05 8.86-14.46 8.5-22.65 2.57-1.81 5.45-3.21 8.6-4.08 4.87-1.34 4.9-7.28 1.3-9.94a16.832 16.832 0 0 1-3.65-3.7c2.49-7.48 1.51-16.13-3.58-22.27l9.69-12.42c2.14-2.74 3.27-7.39 0-9.99-2.09-1.67-4.18-3.33-6.28-4.99Z"/></g></svg>