<svg xmlns="http://www.w3.org/2000/svg" width="474" height="567" fill="none" viewBox="0 0 474 567"><g id="head/Medium Straight" fill-rule="evenodd" clip-rule="evenodd"><path id="✋ Skin" fill="#D08B5B" d="M407.277 307.815c-1.684-78.581-21.263-165.575-88.378-214.135-4.275-3.097-10.691-1.597-14.234 1.94-2.909.568-5.581 2.33-7.358 5.57-39.687 72.435-81.466 143.725-125.318 213.717-28.156 45.256-62.358 90.569-66.87 145.424-.781 1.037-8.03 9.221-3.806 8.625 1.875-.981 3.784-1.787 5.792-2.383 5.362 7.817 17.813 6.588 20.773-2.235 10.262.295 20.418 2.917 30.195 5.959 23.981 7.506 48.354 14.926 72.828 20.663 80.626 21.398 167.26-5.827 173.702-99.825 8.654-12.193 3.972-66.536 2.674-83.32Z"/><path id="🖍 Ink" fill="#000" d="M465.939 500.959c-11.41-53.56-18.729-107.81-25.279-162.13-3.17-26.31-5.7-52.689-8.631-79.019-2.739-24.531-5.93-49.141-12.33-73.021-5.949-22.19-14.65-44.16-27.47-63.319-12.019-17.961-27.13-33.351-44.479-46.201-34.281-25.39-78.121-38.9-120.76-34.42-6.441.68-12.821 1.77-19.131 3.23 2.01-.59 4.041-1.141 6.09-1.62.66-.16.367-1.048-.28-.99C40.195 59.232-.611 360.92-4.321 421.75c-.29 4.731-.52 9.45-.69 14.18-1.3 10.551-2.27 21.131-2.73 31.74-.52 12.24-.27 24.561.86 36.76 1.16 12.509 2.48 25.33 7.7 36.83 3.2 7.08 152.4-2.619 153.94-10.98 3.12-16.88 4.72-34.299 3.741-51.469-.46-8.231-1.311-16.401-3.071-24.461-.48-2.2-.99-6.33-2.279-9.6 13.609-25.859 28.579-50.98 43.989-75.81 32.071-51.7 66.17-102.44 92.38-157.501 13.141-27.589 26.09-56.888 32.29-87.119l1 .2c-.12.36-.04.81.32 1.06 28.49 19.69 47.531 49.53 59.871 81.481 14.369 37.199 21.339 77.369 20.339 117.229-1.589 63.34-25.599 141.62-93.53 161.64-15.5 4.57-32.239 5.86-48.12 2.52-7.49-1.58-14.83-4.011-21.59-7.61-7.5-3.99-13.66-9.64-20.689-14.289-6.431-4.25-14.021 4.039-10.321 10.329 8.17 13.9 25.75 22.4 40.85 26.58 16.11 4.47 33.101 4.681 49.51 1.841 1.25-.211 2.49-.451 3.72-.711.28 4.12 2.05 8.221 4.93 11.551 1.29 1.5 2.88 2.798 4.66 3.889.231 4.021 2.821 8.06 7.031 8.941 22.489 4.679 115.889-7.591 138.349-14.282 6.03-1.798 9.08-7.708 7.8-13.729"/></g></svg>