<svg xmlns="http://www.w3.org/2000/svg" width="474" height="567" fill="none" viewBox="0 0 474 567"><g id="head/Medium Bangs 3" fill-rule="evenodd" clip-rule="evenodd"><path id="✋ Skin" fill="#D08B5B" d="M256.576 38.978c56.78 0 127.896 64.77 148.709 92.333 17.499 23.173 15.024 142.554 15.024 213.371 0 14.811-6.695 42.843-9.126 57.01-8.906 51.915-47.708 95.454-124.507 95.454-62.532 0-110.655-19.807-157.19-70.466-10.617-11.557-62.465 29.818-73.069 14.918-27.696 0-50.855-258.778 3.523-336.397 54.379-77.618 139.855-66.223 196.636-66.223Z"/><path id="🖍 Ink" fill="#000" d="M85.916 57.205c32.81-29.85 76.52-44.21 120.62-43.15 22.84.55 45.6 4.9 67.17 12.35 10.79 3.74 21.241 8.62 31.23 14.14 3.6 1.984 6.919 4.31 10.114 6.78l.796.62h.01c8.57 3.08 16.22 8.61 23.16 15.08 13.91-1.11 27.93.14 41.38 4.43 18.72 5.98 36.05 16.93 48.22 32.48 14.176 18.103 18.889 40.062 17.208 62.73l-.311 3.851c-1.663 20.025-4.642 45.781-21.077 58.939-1.25 1-2.63 1.76-4.06 2.22 10.59 18.14 19.28 38.28 24.48 58.62 19.85 77.69 4.59 158.71-19.28 233.59-1.96 6.17-11.29 10.27-16.04 4.24-8.48-10.78-20.8-19-34.66-20.54-8.55-.95-17.06.77-25.14-3.11-3.17-1.53-6.229-4.03-8.43-7.07-13.64 5.17-28.33 7.61-42.9 7.01-23.91-.98-49.47-9.26-65.92-27.42-2.64-2.915-3.309-6.188-2.701-9.138a35.126 35.126 0 0 1 6.363-1.627c20.86 12.294 43.854 20.509 68.566 21.025 14.279.298 28.207-1.699 39.785-10.615a56.57 56.57 0 0 0 6.939-6.363c24.207-15.572 41.274-42.021 49.388-70.352 7.56-26.42 6.63-53.93 4.03-81.03l-1.371-14.301c-2-20.989-3.855-42.041-4.375-63.119l.157-.008c5.112-.33 5.149-8.333 0-8-13.319.862-26.537-1.323-39.815-.371-.111-6.277-.563-12.526-2.408-18.58-1.053-3.459-7.076-4.141-7.714 0-.854 5.54-1.166 11.049-1.259 16.614-19.871-.264-39.723-1.936-59.597-1.249-3.665-3.91-4.833-10.843-6.548-15.666-.25-.71-.5-1.41-.76-2.12a113.238 113.238 0 0 1-6.453 20.232l-4.874.016c-27.654.13-55.872.957-82.877 6.7-1.877-1.441-2.994-3.955-3.296-6.238-1.958-14.856-4.754-29.317-9.709-43.474l-.708-1.997-.184-.527c-3.651 5.893-8.007 11.386-12.758 16.501-2.8 3.015-5.736 5.898-8.749 8.699-2.927 3.25-5.952 6.451-8.884 9.711.115.593.215 1.195.296 1.808.897 6.765.99 13.626.333 20.417a97.92 97.92 0 0 1-10.222 35.051l-.176 1.096c-.845 5.128-2.048 10.429-4.858 14.291 3.506 3.928 6.207 8.62 7.773 13.833 1.394 4.641-5.027 8.663-8.357 4.865-2.645-3.017-5.584-5.514-8.812-7.506-.204.277-.572.413-.985.182-8.99-4.99-24.26-3.48-33.24 1.22-11.17 5.84-15.53 17.83-14.29 29.98 1.19 11.61 6.27 25.18 16.12 31.13 4.52 2.73 8.04 2.96 12.84 1.65 1.535-.417 3.438-1.695 4.255-2.33l.803-.645c3.147-2.487 6.078-4.19 9.792-4.255 3.8-1.185 7.618.459 9.071 4.442l.089.258c.68 2.03 1.92 4.58 1.65 7.68-.28 3.32-1.8 6.34-4.07 8.77-.39.42-.81.84-1.24 1.23 39.1 42.33 44.12 108.29 24.07 161.17-.87 2.32-1.8 4.61-2.77 6.88-3.35 7.78-16.25 5.37-17.89-2.34-.49-2.31-1.03-4.61-1.62-6.89a170.874 170.874 0 0 0-3.727-12.501l-.533-1.539c-1.19-3.4-2.3-6.83-3.5-10.23l-.12-.389a35.076 35.076 0 0 1-.15-.531l-2.03 4.43-6.17 13.37c-2.887 6.239-12.06 2.848-12.401-3.164l-.008-.206c-.03-1.11-.07-2.21-.14-3.3-.44-8.17-1.85-16.11-4.09-23.88l-.809 1.004c-12.034 14.878-26.157 28.823-45.532 32.256-4.86.86-10.36-4.22-7.02-9.13 1.38-2.03 2.71-4.11 3.97-6.22-1.09-.51-2.12-1.04-3.07-1.58-7.35-4.13-13.47-10.01-18.53-16.68-10.73-14.14-14.57-31.94-15.51-49.36-1-18.41.62-37.82 5.65-55.58 2.18-7.68 5.13-15.05 8.54-22.2-.24-.64-.47-1.28-.7-1.92-3.68-10.26-6.7-20.75-9.21-31.36-5.06-21.42-7.78-43.52-8.11-65.53-.6-39.43 6.2-79.49 20.53-116.26 14.8-37.92 37.06-74.45 67.35-102Zm-18.43 344.74c-2.717-4.279-9.517-.423-6.994 3.886l.095.154c4.31 6.79 6.33 14.51 8.81 22.08 1.59 4.87 9.32 2.79 7.71-2.13l-.534-1.643c-2.467-7.676-4.718-15.478-9.086-22.347Zm23.67-81.68 1.806-.874c5.695-2.718 10.685-4.569 17.414-2.196 9.01 3.17 18.66 13.26 12.57 23.05-2.24 3.61-6.22 5.05-10.32 4.2-6.912-1.434-8.695-7.658-12.203-12.768l-.603-.865c-2.139-3.091-4.843-7.365-8.403-8.577-.81-.28-1.15-1.54-.26-1.97Zm5.079-207.859.582-.521c3.869-3.42-1.81-9.06-5.66-5.66-17.62 15.57-23.74 39.94-32.88 60.71-2.05 4.67 4.84 8.75 6.91 4.04 8.718-19.82 14.505-43.528 31.048-58.569Zm211.741-6.811c-4.603-2.075-8.631 4.625-4.205 6.831l.165.079c15.56 7.03 22.18 22.95 28.52 37.73 2.02 4.72 8.91.65 6.91-4.03l-1.144-2.652c-6.615-15.232-14.331-30.757-30.246-37.958Zm24.39-9.62c-4.88-1.69-6.97 6.03-2.13 7.72 13.19 4.59 22.24 14.49 29.87 25.81 2.86 4.24 9.79.24 6.9-4.04-8.86-13.14-19.38-24.17-34.64-29.49Z"/></g></svg>