<svg xmlns="http://www.w3.org/2000/svg" width="474" height="567" fill="none" viewBox="0 0 474 567"><g id="head/Medium 2" fill-rule="evenodd" clip-rule="evenodd"><path id="✋ Skin" fill="#D08B5B" d="M391.825 167.573c-30.055-41.366-85.393-53.262-133.383-43.201-93.819 17.102-183.454 88.679-200.031 186.023-25.863 58.891-9.348 151.65 65.868 158.58 10.708.604 21.315-1.861 32.043-.53 65.471 10.458 142.838 55.226 200.793 2.431 2.905 2.081 6.731 3.087 9.988 1.828 24.668-9.533 25.827-37.11 27.93-59.779a7587.308 7587.308 0 0 0 7.641-87.917c.849-50.562 20.891-113.745-10.849-157.435Z"/><path id="🖍 Ink" fill="#000" d="M209.93 62.166c39.5-2.1 112.281 15.993 146.741 37.204 56.147 34.559 60.499 103.497 58.209 115.417-.87 4.549-3.65 8.759-8 7.36 3.69 31.319 3.4 49.22 4.02 80.72l.426 21.03c.276 14.021.514 28.043.574 42.069 1.42-.529 2.82.12 3.34 1.481.13.33-.32.51-.54.32-2.5-2.181-.72 2.789.14 3.8 1.19 1.39 3.17 2.7 4.56 3.89l3.775 3.268 3.775 3.262c4.877 4.207 9.594 8.423 14.144 12.955l1.236 1.245c8.29 8.42 18.68 16.569 23.84 27.46 4.93 10.399 3.41 22.189-4.78 30.479-2.98 3.01-6.46 5.311-10.24 7.051 6.73 11.08 7.71 25.73.69 37.129-7.03 11.441-20.55 17.431-33.57 16.511-.4 1.63-1.02 3.22-1.84 4.729-5.163 9.487-15.432 10.719-25.171 10.211l-.379-.02c-21.92-1.261-43.01-6.75-62.21-17.42-6.66.45-12.6-5.021-13.9-11.021-3.5-.129-7.02-.42-10.61-.83-10.65-1.229-21.57-3.519-30.96-8.929-1.44-.83-.77-3.02.83-3.061 11.44-.26 22.89.531 34.31-.709 10.48-1.131 21.65-4.02 31.42-7.95 17.56-7.08 32.62-19.09 40.93-35.731 10.76-21.54 9.78-47.409 10.95-70.809 1.296-25.902 2.892-51.78 4.598-77.655l.828-12.404c1.656-24.175 3.028-37.108 7.224-62.201-12.65 1.13-65.199-17.784-81.54-48.721-31.015 65.814-188.151 38.879-195.12 140.201-.059.859-1.42.62-1.47-.201l-.129-2.31a167.9 167.9 0 0 1-.159-3.378l-.032-1.111-2.47.03c0 .309-.44.42-.55.09-2.33-6.611-13.43-4.481-18.26-2.91-4.35 1.419-8.45 3.599-12.13 6.29-7.39 5.4-13.12 12.67-15.02 21.759-3.61 17.261 7.38 34.841 21.97 43.171 9.2 5.25 19.28 8.64 28.1 14.59 7.79 5.25 15.05 11.4 21.34 18.39 24.92 27.69 39.58 69.69 27.79 106.24-.9 2.79-3.28 5.979-6.43 6.43-5.21.75-10.42-.01-13.34-4.97a11.3 11.3 0 0 1-1.56-6.33c-2.02 6.939-8.57 13.8-14.61 16.38-8.23 3.52-17.5 2.469-24.76-2.071l-.917.678c-11.807 8.69-24.996 16.611-40.123 15.013-10.96-1.16-21.72-6.74-27.78-15.54-8.06 4.53-16.67 8.139-25.55 10.599l-.945.259c-12.217 3.327-27.801 6.376-39.205-.379-10.95-6.49-14.59-20.66-12.02-32.49.31-1.409.7-2.779 1.18-4.109-8.24.439-16.47-.35-24.29-2.77-7.99-2.471-15.61-7.221-19.44-14.92-4.32-8.711-3.17-18.61.05-27.48 5.15-14.231 13.43-26.891 23.74-37.92 9.915-10.616 21.874-19.621 34.303-27.128l2.096-1.254c11.188-6.673 24.68-14.493 37.901-13.978-.04-.17-.07-.331-.09-.5-2-14.73-1.77-29.75-2.24-44.6-.43-13.66-.92-27.32-1.24-40.99-.52-23.241-.35-46.58 2.68-69.66 2.69-20.48 7.53-40.451 16.36-59.201 9.27-19.699 23.23-36.509 40.47-49.729 36.18-27.75 83.97-41.92 129.08-44.32ZM87.04 335.137c3.94-7.43 12.91-9.77 20.78-8.43 11.03 1.88 18.53 11.521 24.97 19.811 6.76 8.689-7.34 16.879-10.97 8.46l-.86-1.989c-2.913-6.677-6.354-13.717-12.3-18.072-6.32-4.62-15.24-5.3-20.82.84-.4.45-1.07-.13-.8-.62Z"/></g></svg>