<svg xmlns="http://www.w3.org/2000/svg" width="474" height="567" fill="none" viewBox="0 0 474 567"><g id="head/Medium 1" fill-rule="evenodd" clip-rule="evenodd"><path id="✋ Skin" fill="#D08B5B" d="M195.396 82.672c151.57-7.454 162.156 36.6 182.97 64.685 10.329 13.938 36.997 34.579 41.421 82.245 3.071 33.088-16.478 71.225-16.478 100.791 0 15.092 18.478 47.493 9.876 69.489-19.147 48.959-59.687 103.294-111.347 103.294S154.816 474.704 97.733 392.973c-18.697-26.772-53.907-302.847 97.663-310.3Z"/><path id="🖍 Ink" fill="#000" d="M416.009 333.345c-3.31-3.65-5.88-6.65-6.74-11.67-.36-2.091-.52-4.24-.59-6.4 13.29-18.58 26.212-62.467 26.21-86.471-.002-33.865-12.49-66.449-32.99-93.399-39.96-52.49-106.48-79.4-171.58-77.29-62.34 2.01-128.648 24.99-167.536 74.111C-66.24 295.201 42.047 473.217 121.36 510.254c6.904 3.224 29.202 2.104 26.095-4.781-8.924-19.779-15.955-56.208-17.595-64.409 2.54 1.711 5.1 3.381 7.67 5.111 4.55 3.049 10.65 6.539 16.37 5.529.27-.049.44-.339.45-.589.26-5.371-3.58-10.891-6.96-14.721-4.69-5.32-9.15-10.77-14.2-15.76a781.74 781.74 0 0 0-6.51-6.35c-.28-12.66.57-25.379 2.84-38.109 3.93-22.07 10.71-43.57 18.5-64.73 6.51-4.801 12.83-9.85 18.68-15.371 14.09-13.29 24.84-29.549 34.06-46.649.11-.051.23-.111.34-.16 17.87-8.311 35.59-16.94 53.17-25.84 9.07-4.591 18.08-9.291 27.09-13.99 4.9-2.561 9.95-4.891 14.96-7.301-1.35 6.92-3.17 13.74-5.38 20.45-1.82 5.511 3.74 9.58 8.66 8.67 16.75-3.099 32.94-9.329 47.51-18.149 7.22-4.37 14.09-9.42 20.46-14.961 6.37 9.49 14.11 18.39 21.92 26.051a240.448 240.448 0 0 0 16.5 14.75c-2.59 17.83-4.81 35.699-7.62 53.49-1.47 9.3-3.24 18.599-4.35 27.949-1.21 10.19 2.16 17.45 8.87 24.9 9.38 10.411 9.37 25.47 5.78 38.401-.44 1.599-.99 3.16-1.56 4.709-.12.32-.47 1.19-.6 1.531 0 .01 0 .02-.01.039 0 .01-.01.021-.01.03-.01 0-.01.01-.02.021V390.044l-.01.01c-.42.98-.87 1.94-1.32 2.9-2.05 4.33-4.34 8.561-6.72 12.721-11.7 20.539-26.48 39.329-43.32 55.909-7.84 7.72-15.99 14.901-25.2 20.781-1.94 1.23-3.92 2.419-5.95 3.509-1.09.59-2.21 1.141-3.33 1.7-1.64.81-.96.49-1.96.89a48.45 48.45 0 0 1-5.55 1.82c-1.01.26-2.03.481-3.06.67-.01 0-.03.01-.06.01-.01 0-.02.01-.03 0-.01.01-.03.01-.05.01-.38.03-1.06.09-1.19.09-14.36.051-28.6-1.879-42.5-5.449-7.53-1.94-15.05-4.291-22.13-7.52-3.6-1.65-7.12-3.48-10.49-5.551-1.51-.929-2.94-2.05-4.53-2.859-2.38-1.221-4.71-1.09-7.28-1.2-3.92-.161-6.7 3.94-5.74 7.54 1.17 4.389 3.01 6.979 6.79 9.59 3.02 2.08 6.22 3.919 9.48 5.589 7.1 3.651 14.61 6.62 22.21 9.05 14.23 4.54 29.21 7.33 44.11 8.351 10.85.74 20.25-.711 30.13-5.281 10.43-4.83 19.78-12.04 28.43-19.52 19.37-16.74 36.22-37.05 50.51-58.24 13.43-19.92 23.85-41.61 20.42-66.34-1.37-9.92-5.41-18.459-12.12-25.879"/></g></svg>