<svg xmlns="http://www.w3.org/2000/svg" width="474" height="567" fill="none" viewBox="0 0 474 567"><g id="head/Medium 3" fill-rule="evenodd" clip-rule="evenodd"><path id="✋ Skin" fill="#D08B5B" d="M394.142 209.138c1.09-10.125-10.763-37.137-10.477-31.658-19.002-29.299-56.085-40.821-88.08-50.493-67.921-22.422-120.959 4.657-168.681 52.65-28.174 26.317-54.982 55.714-69.125 92.145-27.823 69.498 13.882 148.744 77.305 181.944 5.118 2.77 10.695 5.4 15.569 8.746 26.218 15.147 57.005 20.387 86.22 26.98 54.656 12.493 123.299 6.539 155.509-45.497 21.847-36.93 16.043-81.699 14.333-122.683-2.569-35.909-7.078-76.488-12.573-112.134Z"/><path id="🖍 Ink" fill="#000" d="M101.994 106.654c35.41-33.102 87.747-49.146 135.599-46.34 25.917 1.52 50.895 8.014 74.317 19.17 7.325 3.49 14.463 7.574 21.045 12.383a164.944 164.944 0 0 1 12.986 6.752c21.06 12.2 37.34 30.679 47.76 52.599 4.975 10.462 8.9 21.495 11.123 32.862l.358 1.871c1.134 5.704 3.376 13.22.539 18.558-1.88 3.539-5.82 5.77-9.55 5.47.81 3.28 1.78 6.559 2.4 9.86l1.689 9c.28 1.5.558 3 .831 4.5 1.63 8.94 3.13 17.869 4.33 26.879a2089.73 2089.73 0 0 1 6.78 56.391c1.434 13.466 2.777 26.947 4.082 40.424l.778 8.086c1.34 13.919 2.39 27.96 1.479 41.94-1.371 20.971-7.821 40.104-20.34 55.669 1.193 2.869 1.595 6.099 2.493 9.666 1.243 4.936 2.862 9.769 4.585 14.56.806 1.883 1.614 3.767 2.413 5.655l2.101 5.001 1.64 3.278c1.776 3.568 3.494 7.187 4.585 10.879 7.074 3.777 12.851 9.939 13.134 18.382.25 7.63-3.71 15.71-10.4 19.599-6.601 3.843-13.397 2.33-19.718-.604-5.511 1.604-11.41 1.807-16.869.094-4.203 3.804-9.624 6.431-15.633 7.14-9.059 1.076-17.66-1.46-25.97-4.795l-.58-.234c-.26-.101-.52-.211-.77-.32-9.56-.46-19.08-4.241-25.861-10.94a32.41 32.41 0 0 1-5.659-7.43c-5.591-10.111-6.46-22.521-.96-32.55-1.18.05-2.37.099-3.55.13-15.734.448-31.497-.355-47.191-1.389l-3.7-.251c-10.156-.731-25.134-2.453-25.419-15.04-.041-1.61 1.62-2.82 3.14-2.39 5.77 1.629 11.44 4.19 17.42 5.11 7.82 1.21 15.919 1.34 23.82 1.78l2.272.126c15.932.872 32.435 1.403 48.108-1.756 11.699-2.35 23.89-6.631 34.61-11.931 10.29-5.099 19.64-11.769 27.18-20.479 16.61-19.16 18.81-46.19 18-70.43-.98-28.951-4.381-57.86-6.3-86.77l-.868-12.988c-.716-10.831-1.37-21.677-1.642-32.512-.2-7.91-.071-15.84-.031-23.75.02-3.95-.029-7.92.061-11.87.05-2.22.31-4.39.5-6.561-.88-.459-1.7-1.1-2.44-1.949a8.168 8.168 0 0 1-1.34-2.1c-3.73-1.091-5.46-2.541-7.88-5.83-2.04-2.77-4.35-5.33-6.82-7.73-5.26-5.1-11.27-9.27-17.621-12.901-13.129-7.509-27.509-12.529-42.009-16.649-22.201-6.3-45.26-9.54-67.79-14.601a398.746 398.746 0 0 1-19.67 25.191c-21.471 25.36-46.09 47.969-72.471 68.13a586.234 586.234 0 0 1-16.329 12.089 2332.283 2332.283 0 0 1-22.077 33.078l-3.203 4.693-.05.09c-.44.67-.861 1.34-1.28 2.01-.89 1.42-1.89 2.79-2.95 4.12-.69 1.009-1.39 2.019-2.1 3.03 1.36.729 2.6 1.55 3.57 2.46 1.98 1.869 1.649 4.84 0 6.74-5.32 6.14-13.74-1.86-19.86-3.99-6.63 2.019-12.16 9.91-14.91 15.939-3.96 8.691-5.55 19.17-3.76 28.58 1.64 8.6 6.06 16.031 13.41 20.691.26.159.54.33.81.479.01.021.01.021.02.01.25.16.51.311.77.451 3.45 1.9 7.24 3.02 11.17 3.289 2.249.161 4.6.04 6.85.311 2.31.269 4.21 1.33 6.43 1.89 2.45.629 4.03 3.92 2.489 6.129-.759 1.09-1.479 2.131-2.25 3.061 2.531 2.98 4.73 6.27 6.721 9.399 2.719 4.29 5.13 8.841 7.33 13.481 2.03 2.67 3.97 5.39 5.85 8.17 10.65 15.78 18.8 33.36 23.81 51.729 4.96 18.17 8.06 38.58 3.47 57.131-4.23 17.06-16.58 31.19-34.86 32.1a35.365 35.365 0 0 1-11.095-1.207c-7.75 4.787-17.354 7.195-25.949 7.476-6.954.228-14.566-1.236-20.245-5.441-6.737 2.932-14.045 4.596-20.4 4.975-7.11.424-14.553-1.514-20.35-5.352-5.516 4.725-11.468 8.713-18.23 11.449-11.63 4.699-25.47 4.119-36.12-2.91-10.67-7.04-16.1-19.68-12.84-32.221 3-11.559 12.43-20.039 21.29-27.34l1.75-1.435c8.764-7.153 17.614-14.076 23.24-24.154 5.97-10.69 8.15-23.11 8.74-35.21 1.28-26.64-4.14-53.04-5.79-79.54-1.7-27.37-.75-54.821 2.98-81.991 7.25-52.779 26.33-104.519 60.85-145.66a211.108 211.108 0 0 1 15.973-17.005c4.306-5.632 8.96-10.911 14.019-15.639Zm459.177 301.354c.19.01.37.02.54.09.114.048.21.125.299.209l.841.841c.3.3.28.76 0 1.06-.246.273-.689.281-.978.07l-.082-.07-.871-.871a.886.886 0 0 1-.219-.359c-.04-.14-.04-.3-.05-.45-.01-.27.25-.52.52-.52Zm-469.18-81.699c8.02-2.431 17.64 3.35 22.42 9.45 2.4 3.06 3.08 7.25 0 10.26-2.62 2.56-7.74 3.029-10.27 0-2.87-3.45-5.21-8.231-9.31-10.44-4.45-2.4-10.41-1.8-11.46 4.049-.18.991-1.6.66-1.66-.229-.39-5.92 4.8-11.441 10.28-13.09Z"/></g></svg>