<svg xmlns="http://www.w3.org/2000/svg" width="474" height="567" fill="none" viewBox="0 0 474 567"><g id="head/Medium Bangs 2" fill-rule="evenodd" clip-rule="evenodd"><path id="✋ Skin" fill="#D08B5B" d="M407.868 144.463c-2.221-5.605-6.149-12.65-12.714-12.931-5.078-15.525-17.704-31.336-35.266-30.916-51.548-52.714-116.444-50.229-184.294-39.07-35.796 6.64-72.143 19.64-98.841 45.293-31.976 30.202-44.427 82.901-19.387 121.092-21.641 11.597-22.061 39.117-12.806 58.976-11.125 7.693-11.801 26.365.726 32.233-.666 2.728-.195 5.548 1.075 7.972-6.211 5.17-14.295 8.989-20.978 12.272-2.954 1.451-4.658 3.821-5.366 6.492-21.944 14.396-76.662 49.578-76.01 77.579-.322 14.608 10.514 24.222 23.682 28.05-7.835 15.663-13.782 33.958-6.282 50.854 2.073 5.105 17.605 20.108 18.387 20.385 1.367 1.172 23.65-9.058 34.48-14.276 2.1 13.66 16.707 20.817 29.298 16.136 11.939-3.599 19.278-13.706 26.808-22.9 9.995 21.803 39.402 22.054 58.408 12.654 17.069-7.885 30.044-22.337 37.272-39.752 38.382 18.789 83.288 24.266 124.988 16.761 2.676 4.736 8.6 7.917 13.877 6.085 22.174-6.666 46.691-7.04 65.487-22.313 39.179-28.121 42.478-79.965 39.746-124.158-2.423-44.063-.302-88.493-8.312-132.08 3.476-12.833 9.258-24.178 14.608-36.234 5.812-12.642 5.69-31.435-8.586-38.204Z"/><path id="💈 Hair" fill="#ECDCBF" d="m229.999 57 1.523.006c2.518.017 5.031.066 7.539.149 13.25.436 27.067 2.155 42.626 5.097l2.365.455c3.87.757 7.337 1.517 12.866 2.809l10.973 2.586c5.587 1.302 9.699 2.203 13.493 2.927l.497.094s29.242 14.016 38.686 23.237l.942.927.401.401 4.106.13.04.518.035.005c4.077.635 7.765 2.746 11.194 6.033l.367.357.352.353c2.673 2.718 4.803 5.614 7.739 10.204l.666 1.049 1.193 1.893.967 1.521a129.09 129.09 0 0 1 1.811 2.953l.571.972.411.714 10.602 6.184c1.527.891 2.917 2.044 4.189 3.425l.344.382.338.394 2.888 3.437-.582.606.282.37.504.691.492.7.479.71.206.311.312.673.151.336.121.277.362.186.736 1.329c3.822 6.896 5.881 14.727 6.02 22.774.096 5.551-.589 10.592-2.214 15.455-1.125 3.362-2.633 6.004-5.239 9.642l-2.059 2.825-.421.583-.503.709-.234.337c-3.349 4.85-31.971 14.031-49.563 14.475l-.53.011-.676.006a55.953 55.953 0 0 1-4.865-.183c-6.767-.566-13.094-1.99-20.444-4.319l-1.525-.493-8.099-2.72a48.03 48.03 0 0 0-.61-.2l-.739-.231c-1.783-.547-3.08-.861-3.963-.975l-.18-.022-.018.335-.007.316.001.256c.052 3.728-2.211 6.445-5.723 8.176-2.236 1.103-5.116 1.89-8.733 2.481l-.577.092c-5.911.913-12.96 1.303-24.752 1.57-.45.011-.902.005-1.359-.016-2.532-.116-4.522-.547-8.221-1.609l-1.749-.502-.947-.262c-1.759-.475-2.74-.665-3.665-.717l-.269-.011-.267-.005c-1.112-.001-1.915.246-2.705.849l-.405.324-5.436 4.554c-.708.589-1.343 1.112-1.808 1.483l-.189.149c-7.462 5.85-14.576 9.192-22.958 9.51l-.561.017-.584.007c-.426 0-.853-.007-1.281-.024-3.53-.134-7.193-1.442-12.196-3.965l-1.037-.53-.726-.379c-.37-.195-.757-.4-1.176-.624l-3.732-1.997-1.907-.997c-2.279-1.171-3.55-1.737-4.405-1.97l-.14-.037-.08.077c-1.979 1.933-3.678 4.365-5.506 7.723l-.275.511-.4.76-2.596 5.169-.491.961c-1.927 3.731-3.452 6.115-5.447 8.207-2.895 3.036-6.402 4.797-10.699 5.08l-.432.023-.512.013c-2.024.02-4.168-.291-6.493-.937l-.54-.155-.526-.161c-3.464-1.094-8.939-.413-13.287 1.895-4.723 2.507-7.324 6.331-7.209 11.219.058 2.427.337 5.03.828 7.851l.139.775c.645 3.487 1.519 6.986 2.865 11.653l2.894 9.763.326 1.139.328 1.173c.47 1.707.845 3.194 1.154 4.595 1.181 5.355 1.378 9.376.194 12.802-5.221 15.106-14.28 23.131-24.592 23.47l-.357.008-.441.001c-7.922-.086-15.101-5.248-15.014-11.936.009-.7.141-1.353.374-1.943l.105-.25.051-.106-.082-.2c-2.435-5.829-8.066-10.084-14.678-10.918l-.376-.044-.37-.035a20.386 20.386 0 0 0-1.069-.065l-.336-.009-.402-.003c-8.813.013-17.533 5.88-24.393 15.476a53.26 53.26 0 0 0-3.95 6.495l-.393.774-1.908 3.902-1.288 3.774c-7.099 20.778-3.504 42.522 10.35 53.763l.423.338c4.992 3.914 10.862 6.293 17.13 6.933a28.32 28.32 0 0 0 2.145.139l.518.009.595-.002c2.043-.026 3.996-.28 5.75-.754 1.431-.386 2.427-.855 3.12-1.453.183-.157.329-.299.456-.441l.106-.127.04-.054 9.469 1.404c1.611 10.224 6.264 20.818 13.833 32.967l.477.761.832 1.31.846 1.312c8.906 13.698 18.839 25.232 29.757 34.084l.764.613 1.022.811.939.736c1.825 1.416 3.345 2.518 4.866 3.501l.381.244 3.59 2.275-1.667 3.91c-3.889 9.122-9.255 17.415-15.87 24.476l-.624.659-4.598 4.741-3.536-4.502a.374.374 0 0 0-.2-.095l-.065-.007h-.036l-.048.005-.057.015-.057.026c-2.647 1.435-4.101 2.532-6.19 4.679l-.303.314-.353.372-.486.506c-2.17 2.224-4.489 4.117-7.017 5.694-5.839 3.638-12.319 5.66-19.03 5.843l-.63.011-.634.001a31.236 31.236 0 0 1-.683-.013c-14.002-.388-26.548-9.357-32.715-22.504-.245-.523-.47-.693-.885-.727l-.118-.006-.148-.002c-1.028.006-2.289.619-2.992 1.441l-.125.157-2.36 3.171-.905 1.197c-8.42 11.054-15.333 17.1-24.618 18.936-.731.145-1.505.233-2.326.27l-.498.02h-.291c-3.994.011-8.596-1.146-12.183-3.184-4.744-2.694-7.677-6.839-7.306-11.974l.028-.329.066-.549c.31-2.742-1.885-4.232-3.564-2.886l-.114.096-.139.126c-6.917 6.487-14.874 11.465-23.444 14.537l-.758.267-1.126.384c-5.405 1.823-9.216 2.728-13.229 2.798-3.473.06-6.36-1.192-8.449-3.601-1.393-1.606-2.244-3.391-3.094-5.996l-.142-.441-.31-1.013-.192-.659c-2.487-8.748-2.54-18.103-.589-28.425 1.459-7.709 3.78-15.158 7.683-25.597l.758-2.013 1.564-4.106c.157-.412-.782-1.85-1.363-2.012l-.069-.012-.53.057c-.372.035-.747.059-1.131.074l-.584.015h-.384c-12.68-.13-22.364-12.564-22.274-25.735.098-12.339 6.303-22.948 18.15-35.541l1.03-1.084 1.113-1.154 1.1-1.126c10.528-10.719 21.29-20.076 32.497-28.1l.929-.662 1.033-.729c3.774-2.648 7.443-5.048 12.52-8.204l2.99-1.846 12.115-14.296c.291-.165.578-.329.86-.493l.154-4.96 11.672.241c-2.962-1.52-5.416-3.364-7.409-5.726-6.625-7.856-5.794-18.77 2.262-24.133l.284-.184 3.396-2.097 2.778 2.438c2.42 2.123 4.988 3.531 7.665 4.181l.424.096 2.095.444.407.66.236-.342a.354.354 0 0 0-.02-.101l-.02-.048-.044-.069-.264-.324-.291-.348c-.932-1.096-1.978-2.159-3.878-3.988l-1.332-1.281-1.038-1.009c-2.722-2.674-4.172-4.33-5.713-6.63-3.836-5.723-6.002-12.175-6.092-18.729-.189-13.627 8.287-26.511 20.848-32.392.44-.206.764-1.669.237-2.637-12.162-22.314-15.536-49.063-9.428-73.945 5.7-23.215 19.883-43.707 40.186-59.403C127.3 71.385 175.65 57.489 226.95 57.01l1.555-.01h1.493Z"/><path id="🖍 Ink" fill="#000" d="M43.61 331.496c2.308-.58 3.548 2.523 1.588 3.77-12.444 7.915-25.299 14.984-37.32 23.596-11.433 8.187-21.994 17.513-31.842 27.539l-1.09 1.117c-8.904 9.159-18.764 20.811-18.864 34.322-.077 10.502 8.02 21.965 19.317 20.585 4.256-.52 8.168 4.88 6.683 8.773l-1.562 4.103c-6.286 16.605-12.681 35.419-7.716 52.889l.182.623c1.201 4 2.467 7.535 7.11 7.455 4.31-.076 8.793-1.529 12.827-2.916 8.371-2.879 15.957-7.68 22.396-13.718 5.696-5.34 12.972.085 12.205 6.872l-.027.217c-1.049 7.616 11.084 11.152 16.6 10.063 10.891-2.154 18.656-13.066 24.841-21.385 2.973-3.997 10.194-5.571 12.806 0 5.176 11.035 15.845 19.283 28.326 19.629 6.483.179 12.703-1.666 18.194-5.088 2.241-1.398 4.246-3.059 6.084-4.943l.456-.475c2.72-2.883 4.597-4.416 8.071-6.299 3.423-1.855 7.851.445 7.83 4.492-.028 5.242-1.564 8.727-5.179 12.529-2.991 3.149-6.545 5.913-10.281 8.122-7.508 4.436-16.434 6.932-25.175 6.643-13.778-.456-26.929-7.323-35.454-18.003-8.704 10.407-19.5 19.969-33.532 19.712-10.504-.192-20.293-5.66-24.983-14.132-6.62 4.565-13.888 8.134-21.662 10.465l-.693.205c-11.004 3.202-23.667 4.475-30.75-6.449-6.65-10.256-7.146-24.459-5.622-36.182 1.361-10.472 4.583-20.417 8.283-30.226-10.532-3.145-18.707-13.038-21.515-23.702-4.248-16.126 3.993-31.765 14.181-43.747 11.067-13.016 24.996-24.025 39.03-33.661 13.995-9.609 29.674-18.639 46.256-22.795Zm359.869-126.132c.026-.448.76-.605.828-.113 4.834 35.078 7.633 70.085 9.95 105.404a3373.538 3373.538 0 0 0 3.969 53.639c1.401 17.137 3.733 34.73 3.206 51.937-.825 26.944-13.909 48.852-35.363 64.618-20.557 15.109-46.059 22.579-71.08 25.735-14.531 1.833-29.264 1.921-43.811.199-7.555-.895-15.101-2.085-22.501-3.873l-3.2-.8c-5.827-1.489-12.334-3.509-13.165-10.411-.403-3.343 1.373-5.809 4.241-7.487 3.739-2.188 8.026-.9 11.879.097 6.493 1.68 13.055 3.122 19.691 4.119 14.253 2.144 28.905 2.271 43.231.787 24.098-2.498 49.518-10.314 68.098-26.456 8.075-7.014 15.096-15.561 18.789-25.715 4.748-13.054 4.045-27.295 3.886-40.965-.369-31.785-.044-63.57-.486-95.358-.444-31.885-.057-63.519 1.838-95.357ZM161.145 56.819c28.158-7.262 56.735-9.149 85.659-6.963 27.277 2.06 58.35 8.163 80.628 24.94 1.081.814.434 2.355-.904 2.142-14.894-2.374-29.412-6.692-44.242-9.549-14.264-2.748-28.785-4.811-43.309-5.289-49.122-1.619-103.781 9.512-143.391 40.137-18.573 14.359-32.747 33.667-38.388 56.64-5.785 23.563-2.655 49.045 8.962 70.36 1.673 3.069.983 7.924-2.507 9.558-10.59 4.958-18.133 15.942-17.969 27.795.079 5.749 2.061 11.262 5.246 16.014 3.368 5.025 8.495 8.541 12.262 13.234 1.483 1.848 1.54 4.393.365 6.095 2.203.965 4.579 1.483 6.747 2.623 1.838.967 1.89 3.986 0 4.938-4.78 2.407-9.948-.148-13.174-4.029a18.67 18.67 0 0 1-1.528-2.15c-3.864-.819-7.326-2.758-10.349-5.41-5.76 3.449-6.549 11.127-1.601 16.994 2.527 2.995 6.117 4.844 9.745 6.173l.436.157c3.531 1.254 6.765 1.954 9.059 4.779 1.513-3.154 3.25-6.127 5.186-8.836 7.039-9.847 17.859-18.583 30.698-17.474 10.057.867 18.77 8.067 20.831 18.001.152.735-.956 1.309-1.286.542-4.825-11.251-20.092-11.664-29.186-5.801-10.695 6.896-16.54 19.891-18.885 31.994-2.308 11.922-.974 26.422 7.949 35.49 3.651 3.711 8.618 6.277 13.802 6.953 2.534.332 4.77.005 7.193-.482l1.606-.336c1.114-.23 2.221-.416 3.39-.313l1.741.234.989.463c.858.385.781.28-.232-.318 2.958-.242 4.487 1.944 4.649 4.341.094.06.185.125.261.218 11.226 13.738 19.561 29.529 31.474 42.817l3.487 3.893c8.966 9.973 19.201 20.785 31.38 25.958l1.449.6c3.543 1.496 7.101 3.545 7.553 7.816.405 3.826-2.611 6.705-6.088 7.598-7.918 2.031-16.944-5.006-22.743-9.623-12.47-9.925-22.95-22.577-31.605-35.889l-.856-1.326c-7.114-11.111-13.801-23.783-15.879-36.971l-.375.608-.064.095a9.098 9.098 0 0 1-1.433 1.528c-1.456 1.257-3.232 1.991-5.077 2.489-3.463.935-7.26 1.119-10.82.755-7.231-.739-13.99-3.491-19.706-7.973-17.404-13.649-19.459-39.047-12.42-59.652-5.776 1.379-12.355-2.508-16.865-5.839-5.172-3.822-9.437-9.339-10.456-15.829-1.012-6.44 3.094-14.968 9.184-17.453-6.319-7.587-9.998-18.354-10.378-26.975-.66-14.996 7.307-29.17 19.539-37.352-11.503-24.651-13.719-53.25-5.974-79.424 15.369-51.939 66.853-80.984 116.22-93.716Zm-43.821 394.624.144-.457c1.225-4.016 2.807-12.006 8.808-8.964 5.733 2.905 2.073 11.504.068 15.69-2.399 5.009-6.542 9.025-12.106 10.101-4.526.875-9.496-.249-12.662-3.746-.923-1.019-1.444-2.137-1.99-3.371-.214-.48-.31-.809-.35-1.023-.052.235-.2.585-.578.997-2.526 2.76-4.912 5.973-6.745 9.238-.434.772-1.802.231-1.456-.614 2.135-5.222 1.776-13.297 6.535-17.074 4.195-3.33 8.136-.71 10.355 3.168l.113.202c3.243 5.888 8.411.296 9.864-4.147Zm-45.629-18.869.438-.608c4.485-6.13 12.05-13.504 19.618-7.803 2.407 1.813 2.496 4.839 0 6.638l-.944.675c-3.307 2.344-6.6 4.558-9.028 7.919-2.639 3.655-5.009 7.525-8.557 10.392-6.275 5.07-16.416 6.07-21.86-.765l-.537-.678c-.455-.586-.978-1.293-1.402-1.998l-.33.458c-.033.046-.063.09-.09.131l-.077.116c-2.238 3.576-5.065 6.521-8.586 8.845-6.692 4.415-14.233 5.029-21.804 2.692-.74-.23-.542-1.223.175-1.289 8.971-.838 17.712-7.211 21.361-15.418l.412-.921c1.477-3.264 3.131-6.367 6.78-7.649 3.55-1.248 7.278.07 9.713 2.756 2.036 2.245 2.56 6.708 6.233 5.724 4.022-1.078 6.286-6.115 8.485-9.217ZM46 378.051c1.987-1.51 5.1.11 5.646 2.298 2.48 9.906-7.817 21.579-17.71 21.886-2.548.078-4.998-.538-7.254-1.717-1.75-.914-3.82-3.25-5.742-3.637-2.48-.499-4.679 2.805-6.426 4.501-2.167 2.105-4.31 4.059-6.739 5.853-.97.717-2.475-.487-2.065-1.588l.821-2.189c2.973-7.792 8.094-19.166 17.676-15.933 4.695 1.584 8.23 6.926 13.173 2.696 3.96-3.387 4.328-8.909 8.62-12.17Zm42.279-39.879c8.933-10.254 29.932-4.838 33.914 7.637.88 2.755-.038 6.336-2.19 8.286-2.835 2.569-6.879 3.347-10.321 1.332-2.962-1.733-4.178-4.569-6.355-7.002-3.193-3.565-7.536-5.544-12.011-6.962a12.86 12.86 0 0 0-3.094 2.293c-.478.477-1.381-.177-.957-.739a12.886 12.886 0 0 1 2.08-2.146l-.384-.113c-1.178-.328-1.433-1.722-.682-2.586Zm58.057-113.214c2.002.003 4.334 1.883 4.078 4.078l-.077.609c-.576 4.179-1.919 6.545-6.102 8.487-3.549 1.645-7.277 2.554-11.167 2.914a27.96 27.96 0 0 1-4.609.027l-.332 1.918c-.661 3.836-1.272 7.675-1.387 11.586-.214 7.249 2.491 13.223 5.392 19.695 5.569 12.432 6.195 24.842.132 37.256-.887 1.815-3.398 3.295-5.424 3.111-2.627-.238-3.896-.998-5.424-3.111-1.283-1.775-.99-4.283-.101-6.138l.101-.203c3.055-5.919 4.018-12.606 2.458-19.112-1.466-6.115-4.787-11.611-6.27-17.707-2.416-9.93.157-19.78 5.185-28.299-3.795-1.093-7.305-3.041-9.647-6.012l.01-.004c-.894-.955-.406-2.95 1.163-2.83l1.774.143c5.076.424 9.748.865 14.881-.549 2.631-.727 4.902-1.937 7.161-3.403l.484-.317c2.826-1.878 4.393-2.143 7.721-2.139Zm12.147-73.393c12.724-.723 23.587 7.674 28.868 18.852 5.737 12.135 3.33 26.06-1.733 37.999l-1.439 3.342c-2.517 5.79-5.823 12.675-10.98 15.782-5.792 3.49-10.799-.557-9.091-6.99 1.018-3.831 3.773-6.786 6.002-9.948 2.08-2.953 4.021-6.009 5.723-9.197 3.334-6.252 5.823-13.218 5.796-20.381-.047-13.074-8.685-28.057-23.146-27.865-1.033.012-1.016-1.537 0-1.594Zm64.353-21.096c-.793-.602-.084-1.941.803-1.376 14.755 9.384 25.772 27.011 27.99 44.328 1.231 9.608.291 19.876-3.801 28.743-2.347 5.088-6.375 9.945-12.007 11.34-5.178 1.281-10.515-1.676-12.122-6.73-.623-1.961.449-4.012 2.068-5.083 5.25-3.471 9.477-7.851 11.95-13.743 2.573-6.126 3.599-12.627 3.63-19.235.076-15.475-6.1-28.812-18.511-38.244Zm180.241 6.707c-.683-.757.176-1.873 1.08-1.399 10.667 5.61 17.445 16.356 19.387 28.125 1.903 11.522-.657 27.208-9.576 35.541-5.033 4.704-14.049-1.552-9.865-7.611 2.95-4.273 6.139-7.792 7.828-12.841 1.506-4.505 2.039-9.048 1.957-13.782-.179-10.328-3.869-20.333-10.811-28.033Zm-130.418-14.428c18.225-.868 29.27 19.937 31.8 35.444 1.562 9.581.388 19.449-4.902 27.759l-.313.484c-4.364 6.638-12.3 14.281-20.851 11.138-3.619-1.329-4.582-5.206-2.151-8.147 3.72-4.502 9.47-6.337 12.968-11.144 3.924-5.391 5.21-12.145 4.983-18.701l-.031-.724c-.608-12.059-6.36-35.206-21.503-34.796-.849.022-.839-1.274 0-1.313Zm57.007-3.457c17.628-2.253 28.363 18.485 31.674 32.771 2.068 8.931 2.52 18.894-.125 27.758l-.197.632c-2.153 6.615-8.505 17.95-16.798 14.569-2.272-.926-4.591-3.449-3.503-6.169 1.389-3.477 3.394-4.379 6.066-6.604 2.058-1.713 3.495-4.172 4.553-6.594 2.818-6.455 3.446-13.996 3.061-20.952l-.053-.823c-.996-13.587-8.363-33.835-24.678-33.463-.745.017-.694-1.037 0-1.125Zm32.273-19.496c9.811-3.736 17.849 5.645 23.489 12.34 7.065 8.389 13.474 17.426 17.097 27.869 3.227 9.305 3.795 19.651.888 29.123-1.439 4.69-3.681 9.039-6.741 12.867l-.391.483c-3.184 3.883-6.259 6.269-11.476 4.879-2.123-.567-3.02-2.666-2.653-4.672.786-4.286 2.995-5.399 5.856-8.391 2.523-2.639 4.395-5.889 5.654-9.306 2.596-7.049 2.731-14.686.988-21.948-1.95-8.13-5.788-15.637-10.228-22.672l-.958-1.507c-4.705-7.437-11.413-18.89-21.338-17.684-.85.104-.861-1.125-.187-1.38Z"/></g></svg>