<svg xmlns="http://www.w3.org/2000/svg" width="474" height="567" fill="none" viewBox="0 0 474 567"><g id="head/Medium Bangs" fill-rule="evenodd" clip-rule="evenodd"><path id="✋ Skin" fill="#D08B5B" d="M297.602 145.163c-115.09-4.2-225.062 73.149-262.09 182.478-2.69 8.576 5.683 16.587 14.131 15.137-8.64 43.506 10.243 102.066 59.432 108.238 10.075 1.271 20.203.539 30.292 1.464 8.993.824 57.948 28.364 76.281 34.816 38.595 13.482 135.716 11.013 174.351 0 1.407 3.2 31.412-119.846 38.244-157.996 2.492-16.529-20.276-28.767-18.597-45.8 2.157-21.88 27.749-48.557 19.909-69.387-20.668-53.016-80.649-67.809-131.953-68.95Z"/><path id="🖍 Ink" fill="#000" d="M240.445 48.788c5.17.43 10.37 1.16 15.48 2.12 15.53-2.54 31.6.28 46.66 5.17 35.27 11.45 69.22 31.33 95.8 57.28 13.68 13.36 24.87 28.75 31.76 46.65 3.5 9.08 5.47 18.77 6.04 28.48l.063 1.176c.16 3.222.233 7.085-.152 10.912 1.231 7.725 2.328 15.513 2.411 23.326.039 3.619-.196 7.232-.636 10.821l.151.341c-.638 4.285-1.4 8.552-2.268 12.797l-.217.281c-.119.863-.256 1.724-.385 2.585a284.023 284.023 0 0 1-1.488 6.528 309.962 309.962 0 0 1-3.735 14.001c-.236.813-.009 1.454.434 1.875a185.1 185.1 0 0 1-3.251 10.5 660.129 660.129 0 0 0 1.803 9.087c3.27 15.72 6.04 31.54 9.76 47.17 7.54 31.72 19 62.93 22.15 95.54 2.45 25.29-1.62 52.94-17.34 73.6-13.55 17.8-33.93 28.31-55.94 31.11-10.53 1.35-21.33.73-31.63-1.93l-1.123-.296c-5.159-1.389-11.723-3.564-16.517-7.064-5.2-1.83-10.11-5.21-13.07-8.51-4.04-4.51-8.45-12.22-7.35-18.63-6.01.49-12.06.63-18.01.61-14.66-.03-29.45-1.19-43.55-5.45-12.58-3.8-27.24-10.15-34.68-21.61-.35-.54.23-1.32.84-1.11 6.01 2.11 11.63 4.96 17.83 6.57 6.1 1.58 12.2 3.07 18.49 3.72 12.297 1.267 24.779 1.096 37.118.488l4.236-.22c13.202-.708 26.848-1.715 39.196-6.658 4.845-1.938 9.329-4.644 13.417-7.859l.643-.511c2.19-1.78 4.45-3.28 6.75-4.7.33-.42.66-.84.99-1.27 5.23-6.71 10.85-13.18 15.56-20.27 9.36-14.07 12.97-28.69 13.46-45.47.513-17.712.572-35.449.783-53.166l.077-5.904c.27-20.26.31-40.59 1.87-60.8.718-9.39 1.742-18.735 3.314-28.013l.346-1.987 2.54-14.31c.611-3.447.968-6.999 1.749-10.431a28.515 28.515 0 0 0-3.07-4.146 192.294 192.294 0 0 0-3.287-3.571l-.793-.7c-1.812-1.617-3.369-3.161-4.828-5.385l-.352-.55c-1.567-1.891-3.045-3.869-4.351-6.042l-.241-.422c-.326-.409-.65-.819-.987-1.223a53.994 53.994 0 0 0-3.28-3.587c-3.981 7.69-9.612 14.351-17.584 18.515-2.883 1.506-6.4.216-7.345-2.988-2.385-8.088-6.007-15.609-10.8-22.42-8.003 13.318-20.693 23.735-35.648 28.818-3.737 1.27-7.028-2.65-6.15-6.151 2.698-10.761 3.235-21.704 1.65-32.522a236.575 236.575 0 0 1-17.445 11.355c-13.303 10.283-27.398 19.537-42.902 26.182-3.582 1.536-8.973-1.045-7.345-5.646 1.37-3.874 2.497-7.813 3.218-11.858l.16-.935c.005-.028.007-.056.011-.085-35.907 49.531-122.981 97.263-129.665 97.722l-.181.002a40.375 40.375 0 0 1 9.747 14.574c2.314 5.945-7.124 8.534-9.565 2.849l-.078-.19c-3.755-9.646-13.043-16.56-23.148-18.195-6.108 1.109-11.881 4.054-15.82 8.52-7.75 8.79-7.82 19.39-2.53 29.39l.776 1.457c2.864 5.342 5.88 10.696 7.494 16.563 1.97 7.2.48 14.5 1.77 21.69l.07.381c.611 3.197 1.932 6.834 5.74 5.959a8.7 8.7 0 0 0 .86-.256 8.51 8.51 0 0 0 2.974 1.52c2.948.859 6.205.442 9.139-.252 2.834-.67 5.586-1.721 8.235-2.951.293.724.474 1.481.492 2.209.09 3.72-1.45 6.78-3.82 9.27 3.78 4.78 7.01 10.04 10.65 14.92 5.23 7 10.58 13.85 16.27 20.48 5.92 6.91 12.37 13.44 19.06 19.61 4.69 4.32 12.44 8.94 15.38 15.21 3.38 1.05 6.25 3.64 7.3 7.9 1.91 7.72 2.47 25.81.97 33.66-1.49 7.78-7.17 12.63-13.45 16.73-1.74 1.14-3.71 1.02-5.31.17-1.41 1.37-3 2.63-4.82 3.75-6.72 4.15-14.53 5.66-22.27 6.53-10.45 3.34-21.72 4.22-32.86 2.14-3.64.43-7.28.82-10.93 1.14-37.34 3.25-75.3.48-111.72-8.41-16.71-4.08-32.49-11.495-47.19-21.02-25.338-16.417-36.062-62.497-21.36-106.55l1.164-3.474c6.625-19.68 13.769-39.256 23.346-57.616l1.143-2.184c8.803-16.746 18.486-33.474 31.347-47.446 6.44-6.99 13.92-13.34 22.37-17.78 3.208-1.684 6.953-2.852 10.613-4.177l.074-.916.08-.915c.24-2.934.548-5.863.944-8.785 1.478-10.928 3.564-21.695 6.527-32.326 2.967-10.645 6.615-21.111 11.004-31.255 7.322-16.924 16.518-32.978 27.133-48.042a257.33 257.33 0 0 1 2.315-4.644c8.95-17.49 20.54-34.17 35.49-47.08 17.16-14.82 37.83-24.02 59.4-30.48 22.37-6.69 45.71-11.27 69.02-12.81 12.27-.81 24.56-.82 36.81.2Zm-163.6 280.98c11.23-7.35 26.53-2.311 32.22 9.63 4.11 8.65-9.48 13.52-11.63 4.9-2.14-8.64-11.33-14.83-20.16-13.51-.61.1-.99-.66-.43-1.02Z"/></g></svg>