<svg xmlns="http://www.w3.org/2000/svg" width="474" height="567" fill="none" viewBox="0 0 474 567"><g id="head/Mohawk 2" fill-rule="evenodd" clip-rule="evenodd"><path id="✋ Skin" fill="#D08B5B" d="M434.781 366.753c-16.895-76.591-20.187-160.703-64.78-227.579-19.487-27.269-50.797-62.827-87.374-51.62a4114.464 4114.464 0 0 0 4.246-48.465c.753-9.245 4.214-21.564-3.611-28.673-12.919-10.433-34.306 5.53-44.291 14.45-21.632 20.714-30.174 40.832-58.669 54.666-11.422-8.14-22.554-16.68-34.147-24.6-11.813-8.07-28.711-21.18-40.97-6.282-10.39 12.629-3.753 32.533.367 46.428 2.107 7.105 4.201 14.861 7.129 22.169.247 5.555.677 11.1 1.308 16.629-21.109 3.756-42.832 6.916-63 14.287-10.997 5.957-10.027 19.486-2.225 27.584 11.676 11.307 26.45 20.149 42.58 26.084-2.928 10.136-9.95 18.731-18.777 24.351-2.961 1.877-4.622 4.63-5.223 7.567-4.525 2.249-9.37 3.871-14.488 4.924-6.312 1.303-9.96 8.753-8.332 14.674 4.584 14.39 20.737 6.165 31.232 5.149.316 10.049.48 20.52 5.043 29.829-24.39 6.4-45.517 29.737-39.878 56.031 5.122 25.136 32.255 32.817 53.733 38.529 1.627.958 1.622 1.899 2.139 4.272 3.544 16.295.56 34.222-5.027 49.692-1.523 4.217.715 9.494 4.098 12.023 17.491 11.137 23.29-22.778 43.229-1.191-1.488-.223-5.19-2.074-5 .608 25.868 45.396 102.246 48.186 149.043 49.3 5.616 2.732 12.082 1.183 18.506-.561A387.284 387.284 0 0 0 320 495.614c11.149-2.012 30.76.373 31.46-15.33 28.795-11.359 53.553-30.982 70.437-56.982 12.524-17.253 17.469-35.515 12.884-56.549Z"/><path id="💈 Hair" fill="#C93305" d="M97.868 411.018c1.88 11.197 6.288 21.898 13.721 31.345.419.531.846 1.061 1.278 1.588l-.499.269-.511.265c-3.918 1.997-7.903 3.053-11.57-.044-3.236-2.735-1.765-8.333-1.488-12.106l.091-1.392.21-2.932.079-1.188c.23-3.774.277-7.622-.702-11.139-.177-.636-.547-1.094-1.008-1.377.127-.917.242-1.837.343-2.758l.056-.531ZM72.582 226.213c-2.72 9.932-4.494 20.023-5.543 30.304-3.047.069-6.095.381-9.138-.347a20.714 20.714 0 0 1-5.774-2.311c-.644-.381-1.568-1.373-2.339-1.776 1.66-.933 3.606-4.258 4.9-5.574a105.994 105.994 0 0 1 6.228-5.838c2.802-2.425 9.104-5.697 9.65-9.542.03-.207-.019-.418-.216-.529a4.417 4.417 0 0 0-1.56-.529 11.53 11.53 0 0 1 3.446-3.63l.346-.228Zm56.73-172.409.473.237 2.327 1.119c4.354 2.118 8.614 4.38 12.869 6.698a806.933 806.933 0 0 1 30.675 17.567c.806.486 1.926-.52 1.347-1.347-.437-.625-.88-1.245-1.328-1.86l.231.171c1.594 1.209 4.216 3.818-.651 7.319-11.527 8.292-21.92 18.194-31.759 28.399-15.34 15.913-28.771 33.708-39.17 53.19-8.766 9.551-15.912 21.065-21.524 33.081a132.441 132.441 0 0 1-5.053-2.387c1.373-.19 2.572-.71 4.1-1.564l.36-.203.644-.375c2.3-1.351 3.016-4.963.884-6.845-1.85-1.635-2.638-2.886-5.08-3.67-2.145-.69-4.397-.998-6.566-1.604-4.57-1.275-8.817-3.294-12.768-5.91-3.544-2.346-6.77-5.264-9.42-8.596l-.663-.852-.656-.83c-1.252-1.604-2.74-3.747-1.975-5.494.787-1.797 4.461-3.701 6.2-4.775l.976-.611c17.17-10.584 37.12-12.012 56.365-16.237.773-.169.515-1.219-.175-1.289a143.53 143.53 0 0 0-10.688-.661c4.922-.864 9.838-1.701 14.72-2.57-.319-2.8-.587-5.605-.806-8.413 2.177 1.849 5.121 2.366 9.205.264 3.28-1.688 4.387-6.034 3.031-9.251-.455-1.082-1.082-1.943-1.831-2.609l-.229-.194-2.394-10.832-5.255-24.059-.157-.69-.177-.73-1.074-4.206c-1.954-7.779-4.029-18.354 2.729-22.079 3.713-2.045 8.658.87 12.263 2.698Zm149.452-35.213.165.75.382 1.658c.815 3.68 1.341 7.45 1.756 11.187.967 8.705 1.144 17.508.584 26.246-.275 4.282-.739 8.597-1.28 12.847-.58 4.555-1.876 9.042-2.213 13.618-1.365 1.742-2.627 3.637-4.062 5.207-3.843 4.199-8.353 7.357-14.239 7.427-11.221.132-20.641-8.591-31.531-10.506l-.74-.122c-1.815-.343-16.095-4.027-14.344-10.24l.071-.228c.576-1.683-.069-3.809-1.326-5.016a8.076 8.076 0 0 0-1.993-1.411c11.004-19.615 25.863-36.35 46.226-47.297l2.796-1.476 1.526-.793c4.653-2.391 9.95-4.814 14.795-5.224 2.45-.208 2.983 1.41 3.427 3.373Z"/><path id="🖍 Ink" fill="#000" d="m260.154 4.678 1.681-.735C267.631 1.434 273.959-.973 280.304.4c7.308 1.58 11.533 7.866 13.342 14.718 2.094 7.925 3.03 16.362 3.604 24.52.593 8.45.364 16.88-.272 25.317-.531 7.055-1.629 15.23-4.255 22.069a.72.72 0 0 1 .406-.191c10.336-1.06 19.861-.442 29.732 2.887 9.195 3.1 18.109 7.452 26.111 12.948 17.284 11.872 30.657 29.802 39.974 48.366 18.927 37.713 22.92 80.375 28.224 121.617l.161 1.25c2.854 22.053 6.645 43.773 12.727 65.166l1.05 3.647c5.582 19.571 8.913 38.61 4.462 58.872-8.607 39.179-38.948 68.754-74.046 85.824-17.92 8.716-37.31 15.147-56.894 18.855-20.087 3.804-41.827 4.441-60.142-5.95-9.08-5.152-1.086-18.31 8.091-13.843 18.938 9.219 40.401 6.184 60.059 1.115 19.553-5.04 38.73-12.099 56.055-22.582 29.731-17.988 54.747-49.043 55.567-85.107.461-20.293-8.211-39.669-12.392-59.262-3.685-17.264-5.972-34.782-8.13-52.297l-1.6-13.011c-4.643-37.313-10.457-75.724-29.618-108.701-16.915-29.109-46.049-52.257-79.579-58.413a.596.596 0 0 1-.414-.256c-1.026 5.523-7.113 10.672-11.008 13.85-5.519 4.506-12.206 7.771-19.48 7.625-14.026-.281-26.07-11.157-35.684-20.267-1.084-1.026.09-2.458 1.323-2.272 11.158 1.68 20.724 10.745 32.161 10.61 5.886-.07 10.396-3.228 14.239-7.427 1.435-1.57 2.697-3.465 4.062-5.207.337-4.576 1.633-9.064 2.213-13.618.541-4.25 1.005-8.566 1.28-12.848.56-8.737.383-17.54-.584-26.245-.415-3.737-.941-7.508-1.756-11.188l-.382-1.658c-.506-2.28-.836-4.357-3.592-4.123-6.126.518-12.974 4.256-18.331 7.076-20.768 10.937-35.867 27.847-47.012 47.715.7.35 1.368.81 1.993 1.41 1.257 1.207 1.902 3.334 1.326 5.016-2.225 6.504-10.135 6.694-15.7 9.241-6.064 2.774-11.76 6.34-17.154 10.246-10.618 7.689-20.373 16.721-29.649 25.96-14.609 14.547-28.175 30.03-41.276 45.915l-2.788 6.228c-2.783 6.226-5.505 12.473-7.757 18.958-3.666 10.547-6.737 21.328-9.098 32.241-2.376 10.983-3.925 22.22-4.512 33.443-.524 10.014.805 20.021.749 29.977.89 1.665 1.212 3.541.793 5.454a29.209 29.209 0 0 1 8.065 3.671c.621.407.227 1.379-.506 1.199-3.232-.796-6.465-.973-9.631-.664-1.68 2.071-4.4 3.391-7.039 3.333l-1.126-.026a9.662 9.662 0 0 1-2.433-.375c-4.454 2.053-8.552 5.008-12.021 8.539-8.341 8.492-12.369 19.617-11.777 31.503.586 11.722 6.83 22.296 17.172 27.927 4.613 2.511 9.739 3.834 14.983 3.931 5.045.091 11.666-1.442 15.811 1.845.466.37.773.862.962 1.406.289-1.221.596-2.439.931-3.652.256-.927 1.799-1.035 1.988 0l.243 1.349c3.474 19.58 4.695 39.738 18.494 55.409 6.454 7.329 14.235 13.941 22.217 19.553l1.321.921c3.41 2.354 7.094 4.641 11.16 5.493 4.518.947 8.253.686 12.408 3.169 1.953 1.168 3.152 3.746 2.433 5.982-4.609 14.352-22.774 7.906-31.931 2.232-5.092-3.155-10.047-6.968-14.651-11.167-4.015 2.447-8.783 4.024-12.88 4.637-6.319.946-13.028-.369-18.065-4.449-5.329-4.317-7.152-10.597-6.247-17.263.45-3.318 1.311-6.554 2.238-9.767l.767-2.624c1.118-3.822 1.992-7.767 4.246-11.104 1.138-1.684 3.839-1.525 4.424.578 1.339 4.813.76 10.246.413 15.259l-.075 1.15c-.227 3.771-1.834 9.554 1.472 12.349 3.982 3.364 8.34 1.827 12.58-.491-.432-.527-.859-1.056-1.278-1.587-13.72-17.438-17.132-39.146-13.374-60.365-3.541 4.645-12.771 5.649-17.669 5.288-7.69-.566-15.257-2.904-21.807-7.013-13.719-8.606-21.435-23.699-21.763-39.754-.32-15.59 6.655-31.357 19.517-40.435a39.892 39.892 0 0 1 11.124-5.488c-1.918-7.616-2.121-16.03-1.705-24.263-4.601.626-9.582-.188-13.742-1.603l-.646-.226c-6.411-2.296-14.554-6.912-15.754-14.115-1.478-8.86 9.456-13.953 15.8-17.492 2.967-1.654 6.002-3.202 9.151-4.48l.949-.375c2.719-1.046 5.92-2.996 8.68-1.442.197.11.245.321.216.528-.546 3.845-6.848 7.117-9.65 9.543a105.641 105.641 0 0 0-6.228 5.837c-1.294 1.316-3.24 4.642-4.9 5.575.771.403 1.695 1.395 2.339 1.776a20.714 20.714 0 0 0 5.774 2.311c3.043.728 6.091.415 9.138.346 1.237-12.126 3.483-23.987 7.099-35.636 6.065-19.544 16.006-40.133 30.188-55.584 10.399-19.482 23.83-37.276 39.17-53.19 9.839-10.205 20.232-20.106 31.759-28.398 5.11-3.676 10.485-6.988 16.19-9.656l1.895-.87c3.167-1.465 7.019-3.367 10.692-3.911 2.376-9.428 6.609-18.445 11.745-26.618 7.076-11.262 16.389-20.76 27.286-28.349a100.671 100.671 0 0 1 17.109-9.598ZM71.119 333.05c9.143-6.141 20.356-8.544 31.282-7.637 5.42.45 10.781 1.72 15.86 3.663l2.094.827c4.851 1.944 10.058 4.342 10.232 10.21.069 2.317-1.646 4.162-3.716 4.882-5.049 1.755-9.14-2.448-13.309-4.684-4.209-2.26-8.683-3.75-13.292-4.957-.442-.116-.885-.221-1.327-.326.24.481.376 1.013.329 1.586-.114 1.372-.513 2.392-.901 3.678-.117.39-.402 2.771-.694 3.065.095.81.105 1.576.13 2.392.07 2.409-.227 4.444-1.457 6.577-3.064 5.313-11.823 5.803-14.756 0-2.933-5.802-.641-11.48 3.816-15.652 1.215-1.136 2.835-2.293 4.595-3.091-6.18-.564-12.43-.297-18.603.515-.602.08-.694-.771-.283-1.048Zm.546-194.646c12.54-2.132 25.636-2.557 38.292-1.296.69.07.948 1.12.175 1.289-19.245 4.225-39.195 5.653-56.365 16.237l-.79.495c-1.649 1.048-5.57 3.027-6.386 4.891-.963 2.2 1.645 5.028 2.858 6.616 2.727 3.566 6.115 6.679 9.855 9.156 3.951 2.616 8.2 4.635 12.768 5.91 2.17.606 4.421.914 6.566 1.604 2.442.784 3.23 2.035 5.08 3.67 2.132 1.882 1.416 5.494-.883 6.845l-.645.375c-3.021 1.729-4.7 2.238-8.538 1.562-3.002-.53-5.869-1.579-8.679-2.745a58.101 58.101 0 0 1-14.222-8.446l-.65-.529c-7.764-6.418-20.919-20.456-12.254-30.676 7.648-9.018 22.677-13.064 33.818-14.958Zm30.884-97.235c12.027-14.168 29.013-4.494 41.065 3.977 12.989 9.128 24.259 19.895 33.371 32.904.579.827-.541 1.833-1.347 1.347a806.933 806.933 0 0 0-30.675-17.567c-4.255-2.318-8.515-4.58-12.869-6.698l-2.327-1.12c-3.637-1.795-8.858-5.07-12.736-2.934-8.362 4.608-3.201 19.704-1.478 27.015l.157.69 5.255 24.059 2.394 10.832c.851.69 1.559 1.613 2.06 2.803 1.356 3.217.249 7.563-3.031 9.251-9.681 4.982-12.959-4.748-14.782-12.06a5723.394 5723.394 0 0 0-4.478-17.812l-2.481-9.809c-3.8-14.848-9.196-31.805 1.902-44.878Z"/></g></svg>