<svg xmlns="http://www.w3.org/2000/svg" width="474" height="567" fill="none" viewBox="0 0 474 567"><g id="head/Mohawk" fill-rule="evenodd" clip-rule="evenodd"><path id="✋ Skin" fill="#D08B5B" d="M393.143 242.549c.514-25.093-1.814-50.809-14.008-73.237-10.588-21.05-26.297-39.297-42.423-56.282-6.728-7.087-15.713-14.228-14.872-24.97.883-11.274 7.664-35.694 8.71-47.069 2.058-22.366-13.95-28.52-32.664-39.149-22.57-12.819-49.541-11.336-74.005-5.58-45.621 10.885-99.832 28.952-117.072 77.296-4.144 11.923-3.11 24.472-3.935 36.84-.773 11.577-5.408 22.603-9.85 33.181C69.54 195.863 69.752 253.591 74.016 309.71c-12.54 2.9-24.665 12.697-27.429 25.697-4.632 22.762 19.24 33.284 33.34 45.587 17.196 15.003 29.714 34.422 45.346 50.906C226.707 543.742 450.531 492.267 404 318.062c-6.313-24.755-11.798-49.797-10.857-75.513Z"/><path id="💈 Hair" fill="#EC7495" d="M223.881-3.739c24.22-5.697 50.896-7.208 73.327 5.201l2.355 1.325c17.982 10.067 32.984 16.51 30.987 38.204-1.046 11.375-7.827 35.795-8.71 47.068-.028.356-.045.709-.051 1.057l-10.412 46.649h-56.589c-27.247-29.184-51.604-43.776-73.07-43.776-21.185 0-43.625 6.522-67.323 19.567l-.948.525-10.777.621a53.54 53.54 0 0 0 .204-2.304c.825-12.368-.209-24.917 3.935-36.84 17.24-48.344 71.451-66.41 117.072-77.297Z"/><path id="🖍 Ink" fill="#000" d="M192.498-1.326c25.192-9.792 52.421-13.932 79.355-10.462 14.492 1.867 28.542 5.765 41.795 11.95 6.392 2.985 12.524 6.523 18.275 10.61l.525.375c4.552 3.283 9.195 7.343 8.663 12.793a7.109 7.109 0 0 1 .135 3.646c-4.49 20.15-9.201 40.236-13.85 60.347-.978 4.228-1.924 8.463-2.862 12.701 31.639 23.824 61.381 56.394 72.644 95.097 11.025 37.888 6.198 77.792 10.095 116.568.924 9.187 2.484 18.3 4.934 27.21 2.632 9.566 7.029 18.608 9.252 28.281 4.474 19.461-2.015 38.566-12.284 55.067-19.037 30.59-47.798 56.403-81.24 70.109-17.112 7.012-35.948 10.824-54.459 10.527-18.154-.291-38.821-4.02-54.019-14.496-10.273-7.08-1.494-21.025 9.558-16.352l3.003 1.265c7.664 3.208 15.272 6.182 23.489 7.889 9.185 1.906 18.623 2.313 27.974 1.727 18.134-1.136 35.328-7.172 50.98-16.236 14.125-8.181 26.709-18.745 37.946-30.548l1.251-1.321c10.64-11.286 21.35-24.149 27.333-38.508 3.08-7.389 4.748-15.513 3.414-23.483-1.538-9.188-5.629-17.842-8.016-26.821-4.534-17.057-6.063-34.842-6.583-52.439l-.038-1.353c-.963-36.114 1.774-72.687-11.017-107.206-11.583-31.262-35.461-55.177-54.99-81.485-.959 4.353-1.914 8.708-2.884 13.058-1.158 5.198-2.214 10.429-3.476 15.601l-.095.377c.38 1.115.248 2.383-.768 3.181-.112.088-.225.164-.338.246-1.035 2.392-2.642 4.227-5.713 4.989-2.941.729-5.269-.514-6.575-2.662l-15.351.078c-9.747.05-20.443 1.17-30.029-.814-1.474-.306-1.288-2.4 0-2.803 9.058-2.83 19.637-2.762 29.041-3.639l14.821-1.383c.655-.061 1.314-.14 1.976-.222l.993-.124 5.152-22.925c2.044-9.096 4.184-18.177 6.052-27.31 3.367-16.467 7.059-32.86 10.749-49.255-11.586-2.841-23.413-4.113-35.401-3.607l-1.382.06c-4.644.222-9.624.687-13.507 3.383-4.817 3.342-5.165 10.236-6.232 15.552-2.928 14.579-5.024 29.297-6.861 44.052-.888 7.135-1.559 14.289-2.346 21.433-.358 3.242-.577 6.538-1.06 9.76-.46 3.067-1.56 6.052-2.181 9.083 1.07 4.626-5.34 9.021-8.918 4.911-4.423-5.081-8.298-10.385-13.24-15.031a94.46 94.46 0 0 0-16.214-12.24c-11.866-7.108-24.195-11.48-37.447-15.175-.44-.122-.689-.395-.81-.711-13.223 3.752-26.157 8.836-38.158 15.371-27.822 15.151-49.724 41.31-58.023 72.032-5.152 19.077-6.289 39.228-6.359 58.911-.032 9.137.162 18.379 1.607 27.42 1.613 10.087 5.273 19.105 8.222 28.783.77 2.527.581 4.783-.239 6.667l.752.113c6.022.941 17.821 3.598 18.896 10.165.301 1.841-.729 3.281-2.622 3.441-3.365.285-5.481-2.159-8.168-3.828-.483-.299-.98-.574-1.475-.852a.433.433 0 0 1-.477.009c-15.889-9.049-35.308 4.791-38.844 20.848-3.302 14.993 2.317 32.355 16.806 38.909 7.285 3.296 15.032 5.365 21.737 9.873 5.643 3.794 10.629 8.432 14.978 13.646 8.955 10.732 15.71 22.969 23.643 34.423 3.482 5.027 7.348 9.777 11.943 13.839 5.033 4.448 12.036 6.203 14.168 13.166.831 2.715-.551 5.976-2.995 7.358-8.944 5.06-19.076-3.741-25.333-9.708-6.423-6.125-11.663-13.542-16.472-20.964-8.054-12.43-14.932-26.611-26.747-36.033-7.092-5.655-15.927-7.794-23.909-11.794-9.159-4.588-15.664-12.107-19.55-21.508-7.156-17.307-5.272-39.372 8.284-53.143 4.402-4.474 9.973-7.335 15.806-8.486-6.023-10.537-8.26-23.82-9.77-35.611-1.52-11.846-1.679-23.769-1.054-35.683l.126-2.316c1.197-21.244 3.608-43.062 11.297-63.008 6.473-16.789 16.296-32.191 29.348-44.636a141.436 141.436 0 0 1 4.135-3.779 8.248 8.248 0 0 1-1.062-.95c-3.657-3.98-2.874-9.353-2.387-14.3.541-5.5 1.417-10.982 2.733-16.35 9.18-37.454 37.412-68.012 73.741-80.652a160.227 160.227 0 0 1 16.203-4.688ZM70.101 330.109c5.88-3.715 14.854-2.291 20.984.144 7.211 2.863 14.891 8.205 17.731 15.669 2.63 6.91-7.184 9.359-10.844 4.571-2.262-2.959-3.936-5.809-6.082-8.388a7.614 7.614 0 0 0-.764.849l-.168.233c-.91 1.338-2.569 2.729-4.343 2.49l-.479-.063c-1.79-.24-3.762-1.108-4.256-3.056l-.049-.221-.066-.352c-.409-2.164.237-4.548 2.312-5.68.14-.076.281-.141.421-.213-4.57-2.394-9.283-3.143-14.252-4.869-.494-.172-.605-.823-.145-1.114ZM233.577 7.849c-30.641-.768-64.257 8.654-86.907 29.88-10.723 10.05-17.987 21.743-24.501 34.775-3.076 6.153-5.056 12.97-6.522 19.673-.802 3.667-1.403 7.366-1.723 11.108-.062.721-.05 1.482-.162 2.196-.095.608-.21.766-.316.726.052.17.305.517.549.848 22.942-16.501 51.338-26.105 79.42-19.848.894.199.894 1.609 0 1.808-1.436.32-2.868.678-4.301 1.029 12.288.27 24.915 4.12 35.528 9.846 10.605 5.721 21.759 13.809 29.447 23.647-.22-1.436-.394-2.878-.427-4.337-.085-3.897.005-7.814.15-11.708.314-8.445.889-16.89 1.583-25.31l.306-3.67c1.244-14.72 2.774-29.855 5.749-44.253 1.735-8.397 6.379-13.512 12.621-16.511-11.588-7.482-27.314-9.566-40.494-9.898Zm56.821-4.898c-13.808-4.138-28.182-5.961-42.567-5.712 5.229 1.32 10.291 3.24 15.055 5.892 6.13 3.412 10.446 7.932 14.311 13.318 3.637-1.266 7.682-1.965 11.938-2.267 9.828-.697 19.764-.173 29.527 1.375a120.193 120.193 0 0 0-5.55-3.222c-7.224-3.93-14.841-7.025-22.714-9.384Z"/></g></svg>