<svg xmlns="http://www.w3.org/2000/svg" width="474" height="567" fill="none" viewBox="0 0 474 567"><g id="head/No Hair 3" fill-rule="evenodd" clip-rule="evenodd"><path id="✋ Skin" fill="#D08B5B" d="M398.851 192.084C363.67 99.527 300.253 31.76 193.341 74.324c-3.067-2.088-7.069-2.648-10.904-.203C124.198 110.69 82.259 169.319 64.084 235.43c-11.061 2.103-21.81 5.771-31.41 11.786-20.863 13.073-34.9 33.875-48.058 54.135-3.957 6.091-.293 16.175 7.143 17.558 3.23.602 6.43.96 9.614 1.054-.775 2.813-1.795 5.531-3.094 8.024-4.703 9.024 4.182 18.605 12.509 16.138.924.489 1.892.891 2.895 1.193.114 5.112 2.74 11.955 7.94 12.988 8.408 1.804 19.582-4.631 17.598-14.035 2.54.447 5.07.503 7.538.193.276 4.897.19 10.007.866 14.524 2.21 21.288 23.48 35.588 43.764 29.112 1.244 6.633 2.705 15.953 9.238 19.551 7.638 21.427 20.827 45.88 42.429 55.643-1.923 4.927-.88 10.921 4.912 14.218 39.541 22.543 87.001 30.171 131.705 21.79 17.866-1.064 35.273-5.101 51.981-13.702 12.184-6.272 23.385-14.237 34.319-22.448 10.94-8.214 22.637-16.212 31.369-26.877 9.484-11.583 13.899-25.211 16.764-39.716 13.129-65.839 8.594-130.486-15.255-193.204-29.521-77.635 29.511 66.368 0-11.271Z"/><path id="💈 Hair" fill="#E8E1E1" d="M32.57 243.43c32.84-19.371 74.719-14.357 94.449 15.649 3.405 5.18 5.757 10.878 7.418 17.474l.268 1.097.268 1.154c.86 3.813 1.424 7.402 2.189 13.504l.847 6.924.242 1.887c.821 6.266 1.542 10.225 2.666 14.26l.222.782 1.298 4.469-4.898 1.81c-9.386 3.39-11.351 3.693-16.767.862-4.229-2.211-6.437-5.187-9.375-11.218l-.425-.883-.937-1.967-.509-1.037c-1.914-3.822-3.447-7.897-5.612-9.377-2.942-2.011-12.213-2.811-18.661-2.019l-.336.043-.278.058-.478.107c-10.843 2.563-20.725 11.316-27.244 20.566-5.248 7.448-8.264 16.829-8.634 26.578l-.02.651-.13 4.975-10.51-.223.103-1.937-.157.344c-3.312 6.981-11.632 11.63-18.592 7.009l-.248-.169-.253-.181c-5.876-4.325-6.584-13.082-1.76-18.399l.222-.239.217-.221-.044-.021-.05-.016-.031-.004c-1.643.302-3.087 1.145-5.039 2.939l-.502.47-1.009 1.091-1.043 1.114-.449.46c-.286.289-.55.543-.796.768a9.302 9.302 0 0 1-.978.792 5.85 5.85 0 0 1-1.02.572c-.957.415-1.98.612-3.29.29-1.798-.441-2.81-1.527-3.423-2.806a5.886 5.886 0 0 1-.471-1.437 10.44 10.44 0 0 1-.177-1.613 25.258 25.258 0 0 1-.02-1.276l.013-.725.024-.789.027-.628.119-2.333c.426-7.656 2.438-15.177 5.884-22.275l.349-.709.13-.257-.36.483c-2.35 3.097-4.619 5.243-7.45 6.661l-.39.189-.382.172c-3.929 1.726-7.886 1.057-10.277-2.143-1.654-2.214-2.142-5.128-1.803-8.193.658-5.947 3.01-11.392 7.615-19.338l.645-1.105 2.528-4.287c9.742-16.394 22.263-29.637 37.086-38.379Z"/><path id="🖍 Ink" fill="#000" d="M228.769 56.288c18.005-1.271 36.338 1.764 53.484 7.193 27.346 8.656 52.46 23.932 73.093 43.819 21.265 20.495 36.992 45.764 46.555 73.673 11.532 33.658 13.258 69.596 16.504 104.731 1.64 17.751 4.342 35.232 7.151 52.812l.444 2.777c2.744 17.128 4.288 34.451.497 51.552-6.302 28.422-25.194 52.548-47.619 70.375-46.067 36.622-117.781 58.949-171.418 25.25-8.298-5.214-.435-18.547 7.666-13.114 5.701 3.825 11.741 7.178 18.218 9.493 27.062 9.671 56.783 6.226 83.529-2.77 26.357-8.865 51.648-23.844 71.096-43.832 20.428-20.995 31.749-46.928 30.113-76.436-.975-17.557-4.975-34.789-7.195-52.203-1.967-15.424-3.146-30.931-4.505-46.416l-.498-5.57c-2.881-31.551-7.02-63.967-21.375-92.606-12.075-24.094-29.756-45.529-51.016-62.083-22.258-17.331-48.843-29.452-76.737-33.973-32.802-5.316-64.202 4.35-91.565 22.347-24.268 15.96-45.132 37.288-61.13 61.488-7.758 11.734-14.367 24.265-20.074 37.116-5.378 12.108-9.086 24.798-13.411 37.278a77.633 77.633 0 0 1 10.851.437c18.844 2.088 36.401 11.854 47.578 27.253 13.659 18.817 9.967 41.915 15.302 63.315.413 1.661-.289 3.287-1.712 4.206-8.089 5.228-18.915 5.402-26.744-.485-6.795-5.109-9.985-14.346-7.234-22.417.359-1.052 1.891-.866 1.934.262.517 13.735 13.26 24.312 25.751 17.776-5.358-18.453-2.538-39.062-13.497-55.73-19.397-29.5-59.537-30.719-87.73-14.089-14.838 8.75-26.582 21.908-35.327 36.626l-2.52 4.272c-3.352 5.709-6.902 12.167-7.597 18.454-.401 3.628.938 7.037 5.1 5.209 3.367-1.478 5.974-4.927 7.974-7.892 3.41-5.057 11.25-.688 8.432 4.697l-.096.176c-4.1 7.264-6.625 15.269-7.088 23.61l-.118 2.309c-.078 1.684-.133 4.076.223 4.164.427.105 3.394-3.32 3.888-3.794 2.38-2.286 4.831-4.154 8.144-4.763 4.355-.799 8.75 4.59 4.969 8.122l-.158.143c-3.374 2.933-3.224 8.782.503 11.525 5.26 3.871 11.736-2.448 12.5-7.65l.025-.192c.675-5.621 8.482-5.82 8.906 0 .921 12.63-14.116 23.216-25.557 16.844-4.524-2.518-7.4-7.129-8.301-12.071-1.444.763-3.002 1.292-4.649 1.438-5.362.475-9.174-3.295-10.041-8.355-1.01-5.895-.411-12.207 1.142-18.329-2.912.702-5.975.434-9.054-1.343-9.315-5.375-6.64-17.331-3.123-25.403 15.015-34.454 46.123-65.717 84.663-68.199.211-6.079 1.035-11.826 2.383-17.913 13.182-59.539 55.886-114.671 111.481-140.44 14.856-6.885 30.611-11.517 46.99-12.674ZM82.975 294.123l.529-.119c6.006-1.294 21.812-2.814 19.907 7.293-.09.475-.781.417-.904 0-1.866-6.355-14.542-1.273-18.243.257-5.102 2.108-10.135 5.218-14.3 8.833-9.122 7.916-15.236 19.072-16.166 31.188-.922 12.019 2.565 25.001 11.235 33.695 4.25 4.261 9.675 7.154 15.77 7.367 5.474.19 11.523-4.072 16.575-1.576.996.492 1.785 1.843 1.695 2.955-.17 2.105-1.112 3.744-2.514 5.015 8.458 15.413 15.38 31.727 26.169 45.743 5.414 7.032 11.549 13.544 18.496 19.086 3.302 2.635 6.892 4.949 10.594 6.982 4.338 2.385 8.092 3.877 11.188 7.917 2.64 3.445-.001 10.106-4.353 10.7-10.249 1.396-20.209-6.89-27.733-13.097-7.517-6.202-14.014-13.852-19.383-21.969-10.31-15.587-17.363-33.975-20.183-52.578-3.274 1.038-6.96 1.355-9.733 1.361-7.378.017-14.423-2.637-20.22-7.122-21.227-16.417-23.586-50.124-8.607-71.38 7.168-10.171 18.06-17.686 30.181-20.551Zm.133 39.094c4.922-.432 9.84.345 14.466 2.023l1.907.692c4.029 1.473 8.317 3.205 11.226 6.224 4.445 4.616.019 12.614-6.313 10.845-7-1.956-12.69-7.852-19.69-10.325-6.256-2.21-13.342-1.897-18.894 1.909-.733.503-1.697-.489-1.218-1.219 4.247-6.467 10.952-9.486 18.516-10.149Z"/></g></svg>