<svg xmlns="http://www.w3.org/2000/svg" width="474" height="567" fill="none" viewBox="0 0 474 567"><g id="head/No Hair 2" fill-rule="evenodd" clip-rule="evenodd"><path id="✋ Skin" fill="#D08B5B" d="M236.452 86.827c48.78 0 142.913 56.53 142.913 56.53s44.198 185.221 35.292 238.12c-8.906 52.899-55.292 117.707-132.091 117.707-76.798 0-97.663-27.096-116.136-39.411-18.473-12.315-55.706-68.36-55.706-68.36s-25.264 7.868-32.68 3.315c-10.53-6.465-9.252-23.467-12.58-39.908-2.453-12.116-10.804-24.006-10.8-30.751 0-24.474 17.389-22.725 26.15-28.59-19.196-18.908-14.144-84.481 10.037-118.921 24.182-34.439 96.82-89.731 145.601-89.731Z"/><path id="🖍 Ink" fill="#000" d="M324.194 45.054c4.267-.683 7.696 5.315 3.179 7.539-19.23 9.473-39.418 16.6-58.996 25.235 10.001 1.2 20.2 3.096 30.055 6.03 11.34-4.66 22.985-8.436 34.976-11.105l3.801-.843c12.209-2.678 25.952-5.211 37.811-1.107 4.075 1.409 3.825 6.555 0 8.046-6.884 2.684-14.492 3.388-21.778 4.23-7.337.847-14.594 1.88-21.825 3.407a240.033 240.033 0 0 0-15.704 3.869 101.755 101.755 0 0 1 9.499 5.035c16.509 9.954 31.537 21.319 44.112 36.069 12.206 14.315 21.81 30.527 28.346 48.173 1.711 4.62 2.809 9.53 3.518 14.405.569 3.904.215 7.729.311 11.58.205.08.381.235.439.469 2.338 9.283 2.635 19.371 3.373 28.915.766 9.9 1.552 19.797 2.207 29.706.653 9.858.55 20.145 2.395 29.861 1.676 8.825 6.656 16.661 9.459 25.203 16.818 51.252.402 112.666-40.496 148.063-20.649 17.871-46.394 29.199-73.405 32.934-14.044 1.941-27.988 1.891-42.015-.178a129.458 129.458 0 0 1-19.662-4.46l-2.382-.739c-2.667-.833-5.375-1.734-7.837-2.962-3.511-1.751-5.032-4.697-6.264-8.279-.748-2.174.459-5.512 2.627-6.459l.706-.303c3.716-1.56 6.711-2.23 10.765-.701a124 124 0 0 0 9.943 3.275c6.664 1.889 13.498 3.293 20.393 3.969 13.895 1.364 27.953.668 41.583-2.385 24.491-5.486 46.923-17.8 63.908-36.373 16.597-18.148 26.993-41.297 30.978-65.469 1.976-11.994 2.138-24.581.55-36.631-.825-6.253-2.226-12.456-4.041-18.493-1.025-3.408-2.345-6.71-3.417-10.098-.971-3.068-1.267-6.349-1.711-9.551l-.106-.737c-1.205-8.141-.79-16.432-.782-24.635.008-8.251-.038-16.504.044-24.755l.081-9.329c.028-3.111.062-6.222.116-9.331-1.137.181-2.551-.656-2.66-2.011-.402-5.014-1.536-9.883-2.164-14.869l-.166-1.312c-.593-4.582-1.314-9.075-3.229-13.314-3.888-8.607-6.626-17.689-10.311-26.381-7.323-17.268-18.237-33.202-31.75-46.208-16.222-15.614-36.321-26.702-57.862-33.028-.685.287-1.375.56-2.057.854-13.641 5.886-26.591 13.459-38.887 21.778a205.294 205.294 0 0 0-18.258 13.886c-2.834 2.419-5.675 4.836-8.445 7.33a199.367 199.367 0 0 0-3.518 3.242 191.4 191.4 0 0 0-2.302 2.204c-1.753 1.232-1.791 2.966-.114 5.198.597-.246.983.737.433 1.029-3.321 1.764-5.931-2.006-5.225-5.131.559-2.475 2.853-4.746 4.468-6.689l.215-.263c2.51-3.101 5.082-6.18 7.81-9.094 14.37-15.35 31.33-28.042 49.717-38.151a154.714 154.714 0 0 0-23.397-2.377 167.405 167.405 0 0 0-13.471.212c-6.969 3.788-13.85 7.732-20.6 11.917a405.455 405.455 0 0 0-16.639 10.885 475.363 475.363 0 0 0-8.449 5.989c-1.41 1.021-3.565 2.232-4.697 3.513l-.085.105c-.792 1.035-3.082 5.553-.105 5.428.318-.013.379.479.074.553-2.715.66-3.068-2.139-2.603-4.25 1.161-5.265 8.188-9.519 12.139-12.802l.253-.213a417.301 417.301 0 0 1 24.743-19.45c-26.45 4.062-51.619 14.447-73.497 30.396-28.115 20.493-49.246 49.378-63.325 80.973-6.69 15.014-12.238 31.014-14.223 47.378-1.779 14.666.115 30.753 11.557 41.12.623-.061 1.246-.124 1.87-.167l.97-.059c8.15-.436 25.145.117 24.596 11.335-.023.467-.733.757-.961.26-2.672-5.805-10.477-4.762-16.039-3.844l-3.13.515c-6.498 1.08-13.139 2.468-18.852 5.848-5.48 3.243-10.28 8.427-11.339 14.918-1.044 6.397 3.201 11.222 6.86 15.927 4.146 5.335 7.48 10.854 7.878 17.781.398 6.973-3.019 13.993-2.028 20.887 2.211 15.404 24.624 10.441 34.259 8.074 2.889-.709 6.871.394 8.203 3.338 6.375 14.089 15.043 26.947 25.96 37.916 5.398 5.424 11.239 10.385 17.553 14.708 6.383 4.37 12.58 7.957 16.956 14.563 1.696 2.562-.606 5.421-3.238 5.643-8.624.727-15.657-3.516-22.462-8.311-6.853-4.829-13.341-10.212-19.246-16.165-10.547-10.631-19.334-22.941-25.901-36.383l-.903.17c-14.794 2.722-31.198 2.708-40.802-10.819-4.272-6.017-4.748-13.067-3.642-20.157 1.077-6.906 3.6-13.376-.3-19.825-3.54-5.854-8.579-10.675-10.6-17.392-1.953-6.49-.847-13.372 2.068-19.378 5.578-11.488 17.087-17.155 29.135-18.997-14.508-8.735-19.373-26.604-19.398-42.936-.032-20.454 7.198-41.124 15.395-59.577 15.463-34.81 41.551-65.482 73.385-86.371 29.543-19.384 65.157-29.83 100.537-29.516 9.088-5.447 18.419-10.49 27.915-15.183l2.03-.995c14.544-7.069 29.053-12.766 45.147-15.345ZM75.845 328.249c1.761-4.297 9.502-4.283 13.156-4.138l.672.031c11.118.583 29.547 5.121 31.824 17.553.381 2.077-.951 4.816-3.48 4.569-3.659-.357-6.434-1.025-9.44-3.179l-1.521-1.087c-2.531-1.799-5.05-3.522-7.825-5.001-3.402-1.812-6.91-3.121-10.613-4.168-1.518-.428-3.047-.875-4.572-1.278a50.696 50.696 0 0 0-3.047-.703c-1.199-.739-1.979-.281-2.338 1.372.471.162.428.98-.125.921-2.195-.233-3.546-2.808-2.69-4.892Zm35.33-18.039c0-.051.064-.061.089-.03l.011.03v4.608c0 .052-.064.063-.09.031l-.01-.031v-4.608Z"/></g></svg>