<svg xmlns="http://www.w3.org/2000/svg" width="474" height="567" fill="none" viewBox="0 0 474 567"><g id="head/No Hair 1" fill-rule="evenodd" clip-rule="evenodd"><path id="✋ Skin" fill="#D08B5B" d="M402.066 224.221c-9.05-38.154-28.837-73.66-60.516-102.355C246.222 27.62 71.159 78.775 71.952 220.797c-3.419 16.588-4.807 33.644-3.675 50.561.468 7.218 3.592 17.291-.605 23.787-9.467 12.153-14.969 21.111-11.747 37.277 2.692 14.115 12.298 24.115 25.262 29.431 7.775 2.231 15.152 7.091 18.032 14.499 17.306 31.684 30.127 58.038 57.41 79.631 7.04 5.559 79.246 38.901 103.037 38.901 69.651 0 157.437-25.23 158.894-103.03.252-17.088-2.747-34.375-4.628-51.328-4.579-38.688-2.963-78.777-11.866-116.305Z"/><path id="🖍 Ink" fill="#000" d="M400.499 205.137c.022-.472.698-.578.829-.112 2.589 9.185 4.056 18.542 6.081 27.87 1.95 8.985 3.791 17.996 5.323 27.06 2.891 17.106 5.327 34.257 7.593 51.453l.563 4.3c3.938 30.257 10.442 61.778 4.755 92.212-4.853 25.969-21.124 46.899-42.093 62.244-19.855 14.529-43.928 23.853-67.83 29.154-25.654 5.691-56.062 7.389-76.935-11.423-8.356-7.533 3.035-22.479 12.1-15.681 21.286 15.959 48.365 11.254 72.383 4.904l.727-.193c21.081-5.615 42.302-14.126 59.038-28.484 18.503-15.875 27.652-37.907 28.709-62.071.593-13.576-.672-27.137-2.038-40.633l-.152-1.499c-1.567-15.434-3.211-30.861-4.728-46.301-1.384-14.079-2.578-28.241-3.209-42.383l-.295-7.133c-.613-14.381-1.439-28.972-.821-43.284ZM150.857 85.645c34.638-18.033 74.446-24.487 112.994-18.435 37.058 5.818 71.068 24.94 96.489 52.359 12.411 13.387 23.427 28.872 30.467 45.789 3.497 8.404 6.235 17.171 7.693 26.175.75 4.629 1.487 9.425 1.628 14.118.13 4.345-1.146 8.42-.995 12.837.023.691-1.036.824-1.197.162-1.204-4.925-4.105-8.649-5.925-13.327-1.361-3.493-2.904-6.903-4.475-10.303l-1.349-2.913c-3.918-8.467-8.601-16.586-13.234-24.676-9.329-16.294-21.299-31.102-35.315-43.597-24.609-21.938-56.18-36.099-89.131-38.649-34.201-2.648-68.891 5.504-98.099 23.562-29.206 18.057-51.29 46.127-62.756 78.446-5.785 16.309-8.98 33.302-9.723 50.58-.376 8.746-.025 17.565.588 26.294l.304 4.163c.357 4.992.602 9.964-.144 14.835 5.268-1.643 10.79-2.324 16.332-1.511 8.235 1.208 13.155 4.584 16.849 11.942a.425.425 0 0 1-.577.577c-4.789-2.39-12.537-1.132-17.61.121-5.277 1.304-10.031 3.572-14.516 6.638-8.297 5.669-14.801 14.454-16.397 24.533-1.543 9.736 2.454 19.594 9.168 26.572 3.456 3.594 7.587 6.701 12.212 8.637 5.613 2.351 11.169 2.278 16.135 6.159 3.07 2.399 2.328 6.504.246 9.168 10.477 11.488 19.768 24.056 30.244 35.589 4.856 5.346 9.673 10.698 14.326 16.216l1.737 2.077c4.646 5.607 12.038 11.53 14.161 18.582 1.321 4.387-3.377 10.125-8.126 8.126-7.285-3.067-12.485-11.048-17.408-17.168l-.32-.397c-5.162-6.343-9.745-13.039-13.935-20.056l-1.378-2.312c-7.577-12.742-15.088-25.957-19.92-39.956a7.434 7.434 0 0 1-1.012.88c-6.96 4.949-17.078 1.144-24.03-2.07a51.116 51.116 0 0 1-17.266-13.098c-10.198-11.962-14.9-27.454-11.493-42.979 2.885-13.151 12-25.943 23.95-32.595-5.516-6.35-7.8-14.91-9.32-23.279-1.94-10.683-2.327-21.631-1.8-32.464 1.05-21.577 6.604-42.846 15.188-62.604 15.358-35.353 42.51-64.925 76.74-82.748ZM77.955 321.556c7.27-1.362 14.045-1.691 21.057 1.385 7.606 3.339 12.959 8.851 17.935 15.309 5.662 7.346-8.848 15.371-12.507 5.619l-.108-.301c-.98-2.887-2.735-5.678-4.958-8.247-.667 1.022-1.559 1.922-2.607 2.437-1.269.624-3.207.192-3.512-1.429-.338-1.799.036-3.979 1.074-5.502l.142-.208c-5.044-4.059-11.11-7.024-16.516-7.978-.54-.096-.534-.985 0-1.085Z"/></g></svg>