<svg xmlns="http://www.w3.org/2000/svg" width="474" height="567" fill="none" viewBox="0 0 474 567"><g id="head/Pomp" fill-rule="evenodd" clip-rule="evenodd"><path id="✋ Skin" fill="#D08B5B" d="M385.415 173.222c-3.861-23.36 8.811-28.206 0-50.411-19.582-41.144-72.947-39.37-112.107-42.534-43.678-1.674-87.886 4.092-128.152 21.598a206.34 206.34 0 0 0-27.737 14.685c-7.668 4.831-6.614 14.017-1.779 19.028-34.865 49.372-14.924 115.644-42.743 167.614-5.14 9.289-11.936 17.619-16.403 27.285-6.79 14.693-7.225 35.746 8.173 45.503 21.687 11.641 33.789-11.406 44.445 22.003 53.218 116.49 160.217 123.051 261.793 62.317 8.788-4.888 17.757-10.413 24.393-18.093 15.063-16.951 13.289-40.789 13.622-61.958.186-12.405.217-24.812.096-37.22-.474-50.258-17.131-119.974-23.601-169.817Z"/><path id="🖍 Ink" fill="#000" d="M169.067 33.508c61.33-27.82 130.891-38.37 197.791-31.45 33.02 3.41 65.606 10.726 96.617 22.61l2.718 1.051c7.655 2.947 15.907 5.871 21.725 11.869 6.771 6.97 8.67 17.51 3.83 26.12-3.76 6.69-10.52 11.489-17.73 14.05a60.01 60.01 0 0 1 7.21 6.99c3.81 4.34 4.1 10.529 0 14.81-7.9 8.25-18.15 14.219-29.19 17.08 1.24 5.99.57 12.62-2.09 18.59-7.633 17.137-29.135 19.179-45.681 18.161l-.499-.031-.92 10.53c-.49 5.61-3.85 9.96-9.55 10.82-.2.03-.401.05-.6.069 9.02 32.621 14.47 66.25 19.5 99.681 2.628 17.451 4.98 34.942 7.232 52.445l.748 5.835c2.4 18.87 5.4 37.93 6.44 56.94.93 17.25-2.36 33.72-12.99 47.64-9.54 12.48-22.55 21.83-36.54 28.77-31.61 15.689-64.88 27.37-99.84 32.79l-2.332.358c-13.495 2.06-27.399 3.796-40.748.062-11.729-3.28-24.03-11.74-21.38-25.33.89-4.59 7.31-4.79 9.51-1.24l.507.813c2.639 4.186 5.53 8.076 10.134 10.236 5.389 2.541 11.639 3.25 17.529 3.321 16.45.19 33.58-3.91 49.42-8.02 29.58-7.679 59.96-20.2 84.19-39.17 10.31-8.06 18.59-18.14 21.51-31.11 3.61-15.99.29-33.47-1.35-49.54-3.375-33.16-7.392-66.258-11.63-99.319l-.85-6.611c-3.569-27.64-7.319-55.29-9.1-83.09a7.83 7.83 0 0 1-1.44-3.42l-.279-1.81c-.241-1.55-.281-2.97-.111-4.28.01-5.02.15-10.01.44-15.031.049-.899.09-1.799.12-2.689-5.22 1.15-10.48 2.08-15.76 2.87a503.66 503.66 0 0 1-112.24 4.21c-18.67-1.391-37.199-3.78-55.67-6.77a745.03 745.03 0 0 1-28.11-5.08c-6.75-1.35-13.36-3.18-20-4.9-6.85 9.97-10.55 22.24-9.83 34.29.81 13.75 9.97 26.22 7.4 40.27-2.412 13.149-13.678 17.226-24.8 20.482l-4.73 1.367c-3.639 1.062-6.282 2.088-6.94 6.461-1.13 7.51.26 15.96.55 23.51.35 8.93.809 17.86 1.02 26.79.11 4.62.289 9.26.28 13.88-.01 3.28-.5 5.52-1.77 7.639a28.67 28.67 0 0 1 2.64 3.971c.25.46-.37.949-.739.57a26.036 26.036 0 0 0-3.151-2.791c-.56.691-1.21 1.391-1.971 2.141l-.059-.08c-2.38 2.37-6.16 2.6-9.111.08l-.775-.671c-2.16-1.893-3.644-3.47-4.244-6.599-.03-.16-.061-.32-.08-.48a30.991 30.991 0 0 0-16.01 3.84c-7.83 4.33-13.34 10.5-16.6 18.12a20.918 20.918 0 0 0 4.59 4.02c.25.17.03.54-.24.41a21.88 21.88 0 0 1-4.88-3.13c-1.17 3-1.99 6.22-2.49 9.63-1.76 12.04 1.38 26.75 12.26 33.61 4.71 2.97 10.09 4.58 15.67 4.6 2.719.009 5.07-.45 7.71-1.1 1.79-.44 3.57-1.08 5.44-1.08 1.6 0 3.08.4 4.45 1.2l-.38.033c-.924.087-.746.126.54.126 4 .171 6.289 4.231 4.45 7.761l-.242.545-.127.274-.146.936-.045.275-.056.189a.996.996 0 0 1-.034.091l5.999 9.148c7.355 11.191 14.874 22.34 23.431 32.562 6 7.17 12.36 14.2 19.08 20.71 6.04 5.85 13.28 8.67 20.12 13.27 3.651 2.44 4.72 7.55 1.401 10.84-9.741 9.67-23.531 1.99-31.521-5.87-7.56-7.45-14.09-16.41-19.72-25.38-9.99-15.95-17.94-32.91-21.42-51.32-1.45 1.33-3.3 2.16-5.17 2.81-3.75 1.3-7.88 1.84-11.84 1.98-7.59.25-15.19-1.59-22.02-4.85-27.79-13.25-31.87-52.93-14.88-76.33-2.291-6.644-3.57-13.852-4.96-20l-.633-2.747c-7.027-30.693-11.743-63.008.713-93.083 1.6-3.88 3.4-7.66 5.53-11.28 1.71-2.91 4.65-6.01 5.46-9.32 1.8-7.27-9.31-14.91-12.55-20.68-3.81-6.77-4.35-14.76.84-20.951.66-.779 1.379-1.5 2.16-2.129-4.92-8.92-5.15-20.14 1.33-28.94 4.26-5.8 10.76-9.86 17.86-11.09 4.34-.75 9.56-.47 14.33.87 26.119-24.25 55.92-44.51 88.369-59.23Zm-100.3 303.43c6.971-6.15 14.671-9.37 24.171-8.56 9.55.819 21.05 4.77 26.659 12.96 4.431 6.47-4.599 15.96-11.099 11.1-5.92-4.43-9.87-9.43-17.22-11.81-6.6-2.13-14.77-3.5-21.68-2.28-.76.13-1.52-.81-.83-1.41Z"/></g></svg>