<svg xmlns="http://www.w3.org/2000/svg" width="474" height="567" fill="none" viewBox="0 0 474 567"><g id="head/Shaved 3" fill-rule="evenodd" clip-rule="evenodd"><path id="✋ Skin" fill="#D08B5B" d="M375.42 51.024c-53.469-15.693-237.353.393-241.9 3.792-7.441 6.183-43.636 25.801-49.268 30.28-50.925 53.974-2.377 134.127-6.113 199.239.238 23.096-9.604 44.184-14.128 66.403-1.91 11.644-1.49 23.688 4.58 34.142 10.67 18.68 33.203 22.467 51.529 29.999 9.119 3.926 17.639 9.493 25.449 15.584 52.584 46.517 81.854 78.371 158.581 67.877.392 3.663 3.637 7.262 7.66 5.625 9.42-3.836 18.773-7.905 28.275-11.541 2.031 4.894 7.865 6.291 11.817 1.969l.023.031c17.589-14.268 28.775-33.777 37.083-54.662a229.021 229.021 0 0 0 14.213-37.567c.411-1.465.357-2.774-.015-3.901 16.786-57.843 22.998-118.807 18.579-178.864-.895-12.391-3.235-24.946-2.66-37.389.52-11.242 5.363-21.876 9.055-32.346 19.038-44.509-10.064-84.657-52.76-98.671Z"/><path id="🖍 Ink" fill="#000" d="m382.145-21.244.57-.442c6.165-4.836 11.978-11.175 20.67-8.798 7.13 1.95 10.73 7.85 12.26 14.98 2.17-2.27 4.28-4.62 6.34-7.05 5.6-6.6 18.11-3.18 19.78 5.23 3.38 16.94 3.55 34.18.26 51.15-.5 2.57-1.09 5.13-1.78 7.66 3.75-4.67 7.24-9.54 10.37-14.67 3.39-5.57 11.05-2.81 11.58 3.14.14 1.54.22 3.1.24 4.67 2.39.84 4.04 3.3 3.41 6.32a456.573 456.573 0 0 1-13.19 49.12c8.52-4.52 18.07-7.2 27.06-4.01 14.28 5.08 17.68 20.66 14.89 34.07-3.51 16.86-14.55 30.97-28.79 40.22-1.69 2.54-3.36 5.1-4.95 7.71-.03 7.37-1.37 14.72-4.07 21.55-3.04 7.67-8.4 14.3-15 19.34-2.319 5.051-8.463 8.741-13.857 7.718l-.283-.058-.01.01c1.38 4.94 2.57 9.93 3.6 14.93 7.975 38.738 3.937 79.062-3.337 117.581l-.233 1.229c-6.53 34.28-14.13 69.78-28.9 101.61-13.36 28.78-36.01 54.09-68.38 60.37-38.08 7.39-80.23-4.32-112.98-23.85-11.87-7.08-.99-25.74 10.83-18.54 17.06 10.38 35.59 17.63 55.19 21.45 18.32 3.56 38.81 4.77 56.38-2.61 24.47-10.28 39.01-35.39 48.21-59.03 5.42-13.95 9.48-28.35 13.26-42.81 4.87-18.59 9.41-37.3 12.82-56.22 6.35-35.29 8.41-71.94 1.69-107.33-2.14-11.29-5.17-22.65-9.12-33.57-.62-.77-1.21-1.63-1.74-2.57-4.13-7.24-6.98-15.47-10.05-23.3-2.69-4.67-5.63-9.16-8.75-13.55-4.665-3.585-9.108-7.418-13.178-11.6 11.821-7.654 22.252-17.236 29.757-29.442 1.238-2.013.452-3.937-1.015-5.022-5.993 7.497-13.751 13.846-21.911 19.471-4.18 3.58-8.682 6.796-13.4 9.702-3.371.667-6.779 1.125-10.083 1.501-9.41 1.07-18.87.67-28.23-.58-20.24-2.7-105.838-26.274-141.92-17.11-7.516 1.909-11.06 8.65-15.04 14.98-3.452 5.506-7.843 10.064-13.111 13.816l-.589.414c-10.3 7.13-31.009 29.686-39.714 49.818-11.24 25.992-22.036 103.882-17.066 104.552 13 1.76 20.2 8.6 30.79 15.94.7.48.29 1.78-.61 1.45-6.99-2.52-14.55-4.01-21.88-5.23-6.63-1.11-13.61-1.31-20.01 1.06-9.82 3.64-14.61 11.87-16.58 21.15-.77 3.63-1.11 7.42-1.15 11.17l-.005 1.088c.005 11.823 2.21 24.93 10.795 33.652 3.65 3.71 8.6 6.21 13.78 6.9 5.67.76 9.17-1.8 14.38-3.13 6-1.53 10.68 2.42 10.12 7.57a93.17 93.17 0 0 1 3.72 3.47l.001.005.009.005c.8.36 1.56.84 2.25 1.42 1.13.96 2.08 2.01 2.84 3.14 1.69.33 3.31 1.27 4.64 2.99 2.74 3.53 5.27 7.1 7.62 10.74 4.21 4.47 8.4 8.95 12.53 13.5 4.972 5.469 9.811 11.062 14.681 16.623l2.439 2.777c2.63 2.99 5.25 5.98 7.87 8.98l.782.881c2.635 2.951 4.655 5.13 4.938 9.379.2 3.15-3.19 5.29-6 4.57-4.332-1.117-6.344-4.518-8.939-7.892l-3.921-5.029-3.69-4.739c-1.83-2.36-3.68-4.71-5.52-7.06-.55 4.33-5.13 7.82-9.31 8.01l-.974.038c-9.816.326-21.745-1.059-29.216-7.978-3.36 3.39-7.54 6.06-12.69 7.66-11.7 3.64-23.66-2.81-28.39-12.62-9.17 3.93-19.53 4.72-29.44 1.83-5.716-1.675-7.693-8.799-3.71-13.159l.18-.191.046-.052c-.822-1.069-1.274-2.377-1.347-3.802-.089-1.73 1.172-3.564.912-5.179-.992-6.159-11.036-1.596-14.228-.262a4.9 4.9 0 0 1-1.716.394c-4.935 1.437-10.302-5.047-7.717-10.399 5.79-11.96 11.44-24.01 17.3-35.95-.74.25-1.5.48-2.25.67-10.53 2.7-23.3-2.48-20.87-15.17.56-2.98 3.26-5.02 5.94-5.94 5.22-1.8 9.14-.5 13.16-2.18 4.53-1.88 9.26-5.33 13.24-8.58 4.25-3.46 7.92-7.35 11.17-11.57 1.3-6.13 3.55-11.99 7.15-17.03.22-.3.44-.6.67-.89-23.087-5.504-20.064-28.209-30.247-48.331l-.86-1.668c-6.917-13.459-12.951-28.634-9.463-43.961.62-2.71 1.52-5.3 2.68-7.72-1.85.23-3.71.44-5.56.65-4.25.48-8.57-5-6.88-9.03.89-2.11 1.87-4.15 2.93-6.13a69.314 69.314 0 0 1 10.8-14.9c-7.14-.19-14.29-.19-21.35-1.01-6.67-.77-13.68-4.42-13.475-12.11.207-7.332 6.64-12.882 12.605-16.459 5.871-7.809 13.318-14.299 21.741-19.122a42.259 42.259 0 0 0-5.07-.823l-.86-.076c-4.81-.38-9.13-1.7-13.49-3.71-3.9-1.8-3.84-7.26-1.29-10.01 8.243-8.912 20.595-6.01 30.206-.903a25.768 25.768 0 0 0-2.2-2.45l-.488-.465c-4.722-4.397 2.365-11.453 7.071-7.071a33.293 33.293 0 0 1 4.007 4.485l.113-.236c6.218-12.612 15.312-23.9 26.071-32.946l2.529-2.102c19.402-16.207 25.388-23.888 51.19-21.502-1.1-4.687-.992-9.96-.744-14.295l.034-.585c.99-16.3 7-35.81 22.9-43.13 4.13-1.89 8.81 1.2 7.71 5.93-.77 3.35-1.71 6.61-2.88 9.78 3.47-3.65 7.19-7.06 11.13-10.2 16.06-12.8 37.52-23.81 58.63-20.21 11.6 1.99 20.7 9.27 30.41 15.35 9.76 6.12 20.66 9.75 32.09 11.06 15.97 1.84 32-.01 47.79-2.93 10.85-4.73 21.38-10.27 31.66-16.24 6.32-3.67 12.47-7.68 18.28-12.11Zm-283.54 354.03c3.381-.87 7.171-.86 10.561-.01 8.75 2.2 16.89 9.52 17.4 18.75.23 4.17-3.13 8.16-7.03 9.23-4.42 1.22-8.22-.94-10.8-4.4-2.77-3.7-3.46-7.71-6.85-11.07l-.782-.761c-2.882-2.756-7.24-6.318-11.238-5.679-.59.09-1.03-.71-.43-1.03 3.26-1.78 5.4-4.07 9.17-5.03Zm45.45-43.47c1.543-1.26 3.583.218 2.857 2.03l-.057.13c-1.83 3.86.32 8.39 2.54 11.62 1.91 2.79-1.7 5.44-4.24 4.24-7.14-3.39-6.77-13.42-1.1-18.02Zm26.1-115.97c-.13-.94 1.12-1.33 1.44-.4 5.33 15.47 6.86 29.17 5.99 45.53l-.082 1.452c-.941 15.758-3.701 32.436-13.238 45.378-2.21 2.99-6.73 1.23-6-2.53 2.93-15.05 8.56-29.34 10.75-44.57 2.29-15.92 3.32-28.93 1.14-44.86Zm-49.78 56.23c.78-4.13 7.13-8.38 10.34-4.23 1.08 1.41-.19 3.14-1.49 3.66-1.22.48-2.31-.18-3.51.06-.97.196-1.68.801-2.152 1.629l-.098.181c-.94 1.8-3.42.46-3.09-1.3Zm-2.599-32.9c2.28-4.22 7.53-6.91 12.02-4.28 1.48.87.9 3.4-.9 3.32l-1.067-.043c-3.201-.117-6.402-.052-9.093 1.973-.6.45-1.26-.4-.96-.97Zm8.016-115.248c-12.789-5.75-25.508-.559-35.95 7.537-.865.67-1.284 1.452-1.376 2.238 6.972-2.715 14.395-4.495 21.491-5.964 5.802-1.202 11.659-2.013 17.523-2.333-.328-.589-.867-1.109-1.688-1.478Z"/></g></svg>