<svg xmlns="http://www.w3.org/2000/svg" width="474" height="567" fill="none" viewBox="0 0 474 567"><g id="head/Shaved 1" fill-rule="evenodd" clip-rule="evenodd"><path id="✋ Skin" fill="#D08B5B" d="M346.461 91.677c-73.902-37.876-184.019-33.803-236.017 37.831-8.276 13.596-16.677 28.486-20.753 43.636-5.112 19.56-14.156 48.579-16.252 76.713-1.218 16.342 4.32 32.188 2.818 46.224-1.188 11.096-12.55 7.723-12.089 18.368.901 20.795 1.56 51.059 12.089 67.427 9.896 14.144 28.377 13.276 39.241 26.617 10.239 12.563 19.089 26.501 32.031 36.557 27.089 50.548 104.396 62.024 156.512 57.307 124.172-19.728 122.708-205.314 120.925-302.935.56-49.969-36.098-86.958-78.505-107.745Z"/><path id="🖍 Ink" fill="#000" d="M451.459 205.444c.956.809 1.906 1.613 2.788 2.448 17.34 16.41 25.87 41.31 22.56 64.88-2.85 20.33-15.17 41.559-33.21 52.38 2.73 3.12 4.839 6.88 6.28 10.56 3.53 9.06 3.28 18.76-.57 27.65-3.93 9.06-11.77 20.06-20.68 24.79-4.41 2.33-9.59 3.139-14.33 1.63-2.92 31.92-11.73 62.39-34.58 86.92-18.38 19.74-43.43 33.45-70.22 37.21-14.561 2.03-29.49 1.44-43.92-1.331a115.828 115.828 0 0 1-19.92-5.699l-.238-.092c-7.092-2.74-14.219-5.493-19.372-11.249-5.441-6.069-.13-15.21 7.849-13.469 4.475.974 8.621 2.874 12.781 4.779 2.841 1.302 5.688 2.606 8.65 3.621 6.779 2.31 13.85 4.1 20.96 5.03 14.23 1.88 28.84.36 42.58-3.671 22.23-6.529 42.859-20.889 56.35-39.779 15.52-21.721 21.87-47.8 24.179-74.06 1.961-22.357 1.903-44.857 1.845-67.32-.021-7.91-.041-15.816.026-23.71.074-8.438.07-16.875.066-25.311-.004-7.531-.008-15.062.044-22.589.031-4.185.021-8.368.012-12.549-.024-11.014-.048-22.015.648-33.011a5.082 5.082 0 0 1-2.07-.93c-4.036-2.931-7.583-6.554-11.134-10.181-2.775-2.834-5.552-5.67-8.566-8.179-6.94-5.78-14.47-10.85-22.31-15.31-29.33-16.7-63.25-23.87-96.83-23.321-18.47.301-36.59 2.721-54.64 6.571l-55.96 14.95c-10.099-7.023-21.365-12.215-32.549-17.369-1.539-.71-3.077-1.419-4.611-2.131-.896 3.538-2.922 6.979-4.86 10.27-.916 1.555-1.812 3.077-2.56 4.56-3.091 6.12-5.94 12.37-8.46 18.75-5.08 12.84-9.15 26.149-12.22 39.62-3.038 13.353-4.737 26.902-6.439 40.467l-.17 1.363-.32 2.526c-.765 6.047-1.537 12.149-1.87 18.214-.142 2.515-.152 5.039-.162 7.56-.004 1.218-.01 2.434-.029 3.649-.009.449-.042.986-.079 1.579-.173 2.774-.421 6.774 1.4 8.752.18.19.37.36.588.51 12.091-3.66 25.991.35 31.521 12.74.35.78-.51 1.47-1.18.91-11.27-9.44-30.81-4.07-36.98 8.75-2.88 5.969-3.31 13.2-1.83 19.6 1.09 4.687 3.314 8.886 5.543 13.093 1.351 2.552 2.705 5.107 3.807 7.776 1.64 3.971 2.43 7.911 3.06 12.131.06.399.115.823.171 1.263.315 2.436.69 5.346 2.3 7.057 1.616 1.72 4.455 2.243 6.914 2.696.614.113 1.204.222 1.745.344 3.77.85 7.41 1.88 10.849 3.68 9.047 4.728 15.117 13.712 21.031 22.466 2.867 4.242 5.696 8.43 8.81 12.054a172.37 172.37 0 0 0 17.83 17.91c1.519 1.317 3.265 2.575 5.044 3.857 5.367 3.866 11.032 7.949 11.655 14.513.281 2.89-2.299 5.74-4.919 6.46-5.923 1.635-10.319-1.904-14.643-5.386-.436-.35-.872-.701-1.308-1.045a173.555 173.555 0 0 1-12.71-11.049c-8.019-7.69-15.239-16.18-21.729-25.18-1.3-1.805-2.541-3.755-3.799-5.733-3.28-5.156-6.676-10.493-11.54-13.897-3.24-2.263-7.011-3.184-10.8-4.108-4.247-1.037-8.514-2.079-12.07-5.022-5.818-4.816-6.633-10.871-7.495-17.272-.342-2.544-.692-5.142-1.366-7.739-1.075-4.123-2.973-7.913-4.873-11.707-2.147-4.286-4.296-8.578-5.267-13.362-3.26-16.141 1.63-35.91 17.38-43.86.95-.48 1.93-.91 2.92-1.281a5.26 5.26 0 0 1-.83-.75c-1.736-1.881-2.463-5.018-3.028-7.453l-.043-.186c-1.637-6.99-2.612-14.228-3.574-21.36l-.285-2.11c-2.18-15.88-1.03-32.02 1.52-47.79 2.39-14.84 6.14-29.37 11.26-43.49-1.78-1.23-3.19-3.05-3.97-5.361-1.446-4.203-.54-8.479.358-12.722.15-.714.302-1.426.441-2.137.29-1.51.611-3.02.941-4.53-.76-48.821 40.21-89.29 80.429-111.67 45.111-25.11 98.971-35.65 150.241-30.06 25.67 2.81 51.27 9.18 73.79 22.18 20.54 11.84 37.349 29.26 48.41 50.229 10.53 19.98 15.85 42.891 16.439 65.411.301 11.38-.819 22.77-3.009 33.94-.144.738-.298 1.487-.454 2.244-1.021 4.962-2.112 10.267-.966 15.196.988 4.246 4.295 7.043 7.532 9.782ZM81.397 330.981c6.83-.11 12.631 1.191 18.57 4.85 5.69 3.521 10.98 8.601 13.55 14.841 2.13 5.159-6.41 8.55-8.91 3.75-.414-.795-.811-1.58-1.203-2.356-2.04-4.037-3.94-7.8-7.397-11.104-3.91-3.75-9.56-7.171-14.769-8.78-.661-.21-.531-1.191.159-1.201Z"/></g></svg>