<svg xmlns="http://www.w3.org/2000/svg" width="474" height="567" fill="none" viewBox="0 0 474 567"><g id="head/Shaved 2" fill-rule="evenodd" clip-rule="evenodd"><path id="✋ Skin" fill="#D08B5B" d="M388.417 151.809c-7.078-25.496-6.066-28.254-16.615-52.607-34.98-70.75-268.739-47.06-292.596 23.563-12.942 38.314-9.902 92.273-13.27 125.496-1.032 17.615-2.044 35.231-3.094 52.844-.362 6.083-.728 12.165-1.102 18.247-.727 11.84-1.434 23.68-2.094 35.524-4.395 36.486 13.941 40.197 45.392 39.117 8.315 20.061 21.782 36.807 38.417 50.432-4.015 10.922 10.545 16.576 18.399 20.943 42.733 23.86 95.224 38.415 142.557 24.998 13.908-3.942 71.342-17.595 89.001-59.861 8.672-20.756 26.301-128.241 3.053-224.929l-8.048-53.767Z"/><path id="🖍 Ink" fill="#000" d="M239.001-14.494c6.609-1.169 14-.719 17.789 5.771.82 1.399 1.34 2.81 1.59 4.2 18.06-4.06 36.81-4.5 55.26-1.84 5.5.789 7.43 8.119 5.01 12.31-.25.43-.5.849-.77 1.26a96.258 96.258 0 0 1 17.27 3.01c4.07 1.1 7.87 6.37 6.061 10.69-.161.38-.331.76-.5 1.139 8.989 1.511 17.579 5.041 25.089 10.741.9.67 1.73 1.54 2.42 2.53 16.79-1.891 34.08 1.58 49.07 9.68 4.2 2.269 6.23 8.81 3.38 12.89-.89 1.27-1.82 2.48-2.82 3.65 6.52 2.41 12.29 6.309 16.18 12.66 4.23 6.89 5.53 15.76 3.26 23.34 4.74 4.83 7.22 12.229 5.53 19.649-1.54 6.771-5.69 11.07-11.01 13.651 1.08 3.3.21 7.05-2.24 9.599a37.845 37.845 0 0 1-13.16 8.881 8.346 8.346 0 0 1-.97 3.8c-4.42 8.479-13.95 14.11-23.64 14.96 3.26 13.689 5.94 27.55 8.54 41.33 4.621 24.51 8.2 49.26 10.38 74.109l.265 3.073c3.551 42.048 4.377 86.099-4.175 127.578-5.45 26.41-21.97 48.67-44.01 63.75-22.41 15.339-49.79 22.97-76.73 24.179-13.74.611-27.609-.55-41.069-3.369-6.391-1.34-12.561-3.24-18.631-5.66-6.53-2.61-11.909-6.46-17.43-10.79-2.87-2.25-1.229-7.56 2.17-8.231 2.43-.489 4.83-1.019 7.25-1.459 2.22-.411 4.641 1.81 4.18 3.86l4.683 1.206c1.56.402 3.12.808 4.676 1.226l2.331.637c6.63 1.851 13.41 3.41 20.21 4.521 13.84 2.25 28.24 2.3 42.15.55 23.39-2.93 47.28-11.27 65.47-26.64 8.92-7.54 16.35-16.47 21.74-26.84 6.85-13.171 8.92-27.841 10.64-42.41 4.97-42.13 3.44-84.32-.42-126.46-1.92-20.96-4.54-41.88-7.32-62.75-1.43-10.7-2.97-21.42-4.239-32.16-2.831-.76-5.531-2.02-7.951-3.85-1.64-1.24-2.6-2.681-3.02-4.15a10.445 10.445 0 0 1-6.473-4.069l-.217-.301c-4.43-6.411-12.089-10.08-19.18-12.75-4.3-1.62-8.68-3.031-13.04-4.47-4.54-1.51-9.34-3.74-14.11-4.32-5.41-.64-10.86.99-16.32.41-4.96-.54-9.33-2.321-12.899-5.88a18.998 18.998 0 0 1-3.191-4.21c-16.65 3.559-34.14-.93-51.44.15-11.38.72-21.42 7.76-32.92 7.57-3.14-.05-6.18-1.15-8.39-3.08-10.849 2.07-21.88 6.049-32.08 9.469-10.08 3.381-19.78 7.931-29.74 11.621-.01.01-.01.01-.01.02-1.3 4.21-5.18 6.029-9.31 5.29-13.51-2.41-24.89-10.931-38.04-14.05-3.62 13.19-7.51 26.209-10.169 39.66-2.69 13.57-4.58 27.32-5.83 41.1-1.26 13.83-1.86 27.8-1.89 41.68-.01 7.08.17 14.179.41 21.259.194 5.932 1.324 13.431-.819 19.136l-.192.484h-.01c-.26.831-1.43 1.331-2.09.561-4.03-4.681-4.99-12.13-6.11-18.011-1.36-7.139-2.23-14.349-2.929-21.58a295.436 295.436 0 0 1-.97-43.529c1.45-28.68 6.05-58.971 15.87-86.08-3.02.279-4.37-4.17-4.57-6.68-.383-5.044.407-10.397 1.263-15.456l.896-5.238c.848-4.943 1.747-9.758 3.43-14.566 4.041-11.541 9.85-22.38 17.09-32.23 14.77-20.09 35.241-35.301 58.55-44.07 1.46-.55 2.84-.54 4.06-.121 21.21-11.429 44.01-20.229 67.17-26.489 7.16-1.93 14.41-3.75 21.711-5.051Zm-176.14 322.43c9.63-6.039 29.5-7.619 34.87 5.25.22.52-.4.98-.86.86l-1.314-.331c-5.048-1.251-9.41-1.97-14.586.102-4.55 1.82-8.97 4.669-11.98 8.589-7.116 9.271-7.887 21.863-7.224 33.108l.034.543c.62 9.869 3.15 21.889 12.8 26.769 4.89 2.47 10.18 2.29 15.49 2.25 6.05-.04 12.23.62 18.01 2.481 3.23 1.039 4.75 5.319 2.07 7.83-.89.83-1.82 1.609-2.8 2.309 2.93 3.121 5.81 6.281 8.6 9.611a231.302 231.302 0 0 0 15.01 16.279c5.08 4.99 10.46 9.82 16.26 13.96 6.1 4.341 13.4 7.39 18.68 12.71 3.44 3.461 2.85 8.29 0 11.79-7.076 8.699-19.118-.445-25.883-5.589l-.817-.621c-7.03-5.32-13.71-11.06-19.4-17.82-5.8-6.9-10.82-14.24-14.53-22.47-2.18-4.84-3.57-9.409-4.32-14.189-12.16 5.28-27.49 3.599-38.39-3.831-14.47-9.86-18.53-27.959-18.581-44.48l.002-.979c.106-16.058 4.325-35.017 18.859-44.131Zm27.433 23.276.446.005c5.356.116 10.132 2.045 14.681 4.702l.469.278c4.42 2.63 10.76 4.739 13.1 9.66 1.4 2.97 1.3 6.37-1.14 8.829-4.42 4.461-11.09 3.721-15.87.24-3.57-2.609-5.92-6.519-9.42-9.16-6.58-4.979-16.96-4.699-23.809-.389-.42.27-.83-.24-.64-.64 4.206-8.608 12.542-13.559 22.183-13.525Z"/></g></svg>