<svg xmlns="http://www.w3.org/2000/svg" width="474" height="567" fill="none" viewBox="0 0 474 567"><g id="head/Short 5" fill-rule="evenodd" clip-rule="evenodd"><path id="✋ Skin" fill="#D08B5B" d="M242.042 75.26c56.781 0 115.51 44.012 136.324 72.097 17.499 23.613 26.921 130.388 26.921 202.548 0 15.092 8.328 43.541 5.898 57.977-8.906 52.899-47.709 97.264-124.507 97.264-76.799 0-131.862-30.442-188.945-112.173-27.696 0-41.12-21.24-41.314-54.759-.195-33.519 26.734-45.714 26.734-45.714s-9.602-132.279 14.58-166.718c24.182-34.44 87.528-50.522 144.309-50.522Z"/><path id="🖍 Ink" fill="#000" d="M218.146 56.556c35.85-3.63 70.98-.58 106.31 5.73 2.7.49 4.23 2.26 4.799 4.39 16.641.76 33.301 1.98 49.92 2.89 6.031.33 9.45 6.29 6.7 11.67a103.983 103.983 0 0 1-1.7 3.15l.729-.24c4.999-1.604 10.4-2.395 15.271.15 6.2 3.24 8.631 10.39 7.261 16.97-.351 1.68-.94 3.29-1.61 4.861 1.36-.09 2.73-.06 4.09.12 7.24.96 12.62 6.51 13 13.9.56 11.159-6.63 22.48-15.1 30.469 1.229 2.531 1.7 5.511 1.189 8.531-1.02 5.97-5.418 9.545-10.516 11.877 2.126 6.751 3.131 13.809 2.538 21.022-.198 2.408-2.304 4.397-4.527 4.885 8.286 22.814 12.48 47.308 15.496 71.175 2.15 16.981 3.21 34.061 3.339 51.17a463.228 463.228 0 0 1-.388 23.183l-.131 2.897c-.4 8.351-.42 17.12-1.92 25.381 5.12 8.709 7.18 19.52 8.05 29.279 1.08 12.08-.63 24.54-4.441 36.031-14.38 43.419-57.779 70.819-101.37 77.94-40.349 6.59-87.039-2.28-110.619-38.931-.37-.58.42-1.059.88-.679 16.87 13.719 36.439 19.839 57.7 22.819 36.76 5.141 78.079-3.58 107.579-26.699 14.16-11.1 24.37-27.26 28.861-44.651 2.29-8.889 3.08-18.16 2.179-27.309-.92-9.28-5.029-17.2-7.619-25.97-.87-2.961.05-5.711 1.86-7.67.509-7.121 1.71-14.301 2.169-21.4.51-8.071.821-16.141.931-24.221.21-16.76-.49-33.55-1.9-50.239-2.58-30.561-9.43-60.38-13.45-90.681-1.488 1.335-3.622 1.883-5.858.717l-.232-.127-1.22-.699c-.07 0-.15.01-.221.019-8.349.811-17.009-.349-25.009-2.84-8.371-2.599-16.14-6.599-23.081-11.929-1.319 6.689-1.87 13.449-1.879 20.269-.01 4.26-4.52 6.471-8.1 4.651a337.85 337.85 0 0 1-45.42-27.79c-1.681 8.61-3.36 17.219-5.051 25.839-.649 3.321-4.88 4.661-7.59 3.081-10.779-6.271-20.089-14.48-27.669-24.241a1992.213 1992.213 0 0 1-4.559 8.675l-2.301 4.325c-2.27 4.25-5.31 8.951-10.28 10.31-5.26 1.44-9.651-1.969-11.42-6.73-.54-1.479-1.04-3-1.5-4.53-4.481 10.231-9.54 20.231-15.26 29.771-8.58 14.309-18.881 27.059-29.15 40.139-3.12 3.971-8.46.18-8.89-3.679-.25-2.27-.46-4.55-.641-6.821-5.984 12.076-12.228 24.039-19.031 35.655l.974 3.817c2.807 11.278 5.138 22.636 7.672 33.974.818 3.658-1.126 8.888-5.4 9.511-5.106.744-9.937 3.353-15.167 1.558-5.703-1.958-6.83-6.887-9.522-11.559a18.875 18.875 0 0 0-1.834-2.598l-.171.222c-.42.551-1.42-.049-1.17-.679l.293-.728c-2.313-2.455-5.08-4.503-7.626-6.706-6.048-1.019-12.85.097-17.018 2.554-9.49 5.599-13.849 17.139-13.939 27.75-.11 12.42 3.74 26.38 10.24 37 2.86 4.67 6.78 8.889 11.96 10.96 5.14 2.059 10.71 1.42 15.94 3.359 3.46 1.291 5.59 5.131 3.5 8.61-.14.241-.3.46-.451.691l1.556 2.064c1.07 1.43 2.185 2.962 3.225 4.555 2.66 3.061 5.46 6.011 8.17 9.021 5.009 5.549 9.87 11.25 14.799 16.879 4.651 5.311 9.571 10.3 14.641 15.21 4.79 4.651 10.77 8.56 15.17 13.521 4.279 4.84 5.44 13.289-1.601 16.09-7.789 3.106-14.685-4.174-19.928-9.028l-.221-.203c-9.612-8.845-18.292-18.953-25.185-30.082-6.828 4.648-16.704 5.092-23.503.445-3.578-2.445-6.323-6.554-7.657-11.024-1.258.282-2.515.447-3.74.428-.632.366-1.265.722-1.905 1.054-5.07 2.639-11.3 1.46-13.62-4.151-2.112-5.094.065-10.879 1.968-15.786l.392-1.014c1.08-2.799 2.27-5.849 3.75-8.719-4.12-3.1-7.64-6.951-10.62-11.33-10.01-14.75-15.01-36.321-12.8-53.92 1.33-10.62 6.32-21.62 14.49-28.781l-.3-.78c-2.29-5.809-4.37-11.64-5.72-17.779-1.58-7.18-2.35-14.62-3.05-21.93-1.48-15.44-1.08-31.23.89-46.61 3.7-28.95 13.08-57.37 29.73-81.46-4.72-5.651-8.46-12.301-6.51-19.95.89-3.511 2.92-6.84 5.98-8.851 1.69-1.11 3.7-1.28 5.39-2.2l.508-.279c.743-.433.175-.387-.268-2.4-1.75-8.041-.3-15.81 8.55-18.48 8.33-2.51 16.21 2.82 21.14 9.17 12.9-9.151 29.9-13.94 44.85-18.01 17-4.611 34.439-7.49 51.95-9.271Zm-139.34 269.7c-.06-6.55 6.15-10.59 12.26-9.519 4.104.714 7.527 3.163 10.741 5.694l1.568 1.24c3.914 3.073 8.407 6.386 10.741 10.736 3.42 6.42-3.809 15.059-10.559 10.559-4.63-3.103-7.599-8.075-10.636-12.693l-.314-.477c-1.38-2.07-2.59-4.27-4.481-5.93l-.409-.358c-.621-.529-1.289-1.013-2.091-1.242-1.549-.445-4.417.178-5.1 2.022l-.06.188c-.25.931-1.65.73-1.66-.22Z"/></g></svg>