<svg xmlns="http://www.w3.org/2000/svg" width="474" height="567" fill="none" viewBox="0 0 474 567"><g id="head/Short 4" fill-rule="evenodd" clip-rule="evenodd"><path id="✋ Skin" fill="#D08B5B" d="M430.406 143.845c-.336-11.958-17.729-16.923-22.754-5.08a15.94 15.94 0 0 1-.969.895c1.573-1.349-1.716.883-2.251 1.159-.458.236-.926.449-1.393.669-3.232-30.294-14.204-62.952-42.556-78.158-39.544-19.176-85.237-22.919-128.62-21.014-21.977 1.304-47.355 4.818-66.88-6.3-6.084-3.464-10.961-8.917-17.836-11.058-21.703-5.87-31.547 16.415-28.591 34.742-9.257.073-18.44 5.198-22.435 13.636-2.346 4.994-2.305 10.383-4.328 15.395-6.207 12.71-15.088 21.846-10.067 37.256-8.831 10.049-3.796 25.262 3.33 34.883 3.519 5.004 7.71 9.808 10.288 15.409 2.502 5.363-1.275 11.723-3.377 16.807-15.54 36.849-14.652 77.43-6.29 115.866-16.78 7.281-21.816 30.041-10.874 44.372 3.765 5.066 8.358 6.946 13.567 10.063 6.592 3.628 1.208 18.16 3.319 25.178 2.868 17.133 18.468 27.684 33.893 16.558 9.788-1.481 17.683 26.998 24.791 34.146 4.379 5.76 9.241 10.932 14.527 15.705 15.75 40.525 96.456 61.075 136.358 58.729 41.785-4.375 69.974-39.861 93.446-71.355 12.053-16.781 19.892-35.563 22.743-56.048 2.864-20.588 1.611-41.213-.325-61.826-4.067-43.796-10.483-106.892-14.626-151.161 14.972-1.233 28.364-13.98 27.91-29.468Z"/><path id="💈 Hair" fill="#ECDCBF" d="M131.908 30.787c2.908-2.869 7.673.075 10.824 2.38l.697.518 1.998 1.518c4.528 3.491 8.766 7.285 13.658 10.305 5.339 3.298 11.137 5.92 17.026 8.07 11.42 4.169 23.705 6.04 35.812 6.631 49.536 2.418 107.191-23.609 152.15 7.471 10.657 7.367 18.012 18.139 21.807 30.459 4.28 13.893 2.814 28.281 6.316 42.222 1.52 6.051 11.991 6.891 13.16.241l.077-.515.917-.575.362-.216c.372-.214.541-.275.219.026l-.071.064.143-.123c.109-.098.218-.198.326-.3l.319-.312c2.232-5.261 6.904-7.205 11.438-6.693l-.128.312-1.35 3.479-.43 1.091c-1.587 3.984-3.335 7.756-6.354 11.17-4.273 4.831-9.587 8.768-15.574 11.192-1.231.498-1.046 2.167.312 2.302 13.374 1.332 28.439-6.793 34.729-19.108.061.434.099.879.111 1.335.044 1.5-.042 2.974-.246 4.415a7.348 7.348 0 0 0-2.135 1.244c-4.343 3.609-6.476 9.508-10.56 13.535-4.28 4.22-9.533 8.133-15.237 10.093a.817.817 0 0 0-.23.126 88.736 88.736 0 0 0-1.405-4.853c-.204-.628-1.041-.471-1.104.15-.115 1.108-15.804-10.053-27.888-8.25-22.716 3.39-27.961 16.653-60.6 14.694-15.929-.956-49.57-15.878-79-17-26.698-1.017-74.411 14.22-87 23-6.544 4.565 11.936 19.638 8.588 26.49-9.495 19.439-5.648 45.153-15.576 60.524l-.383.579c-6.358 9.342-2.389 34.201-4.865 41.864-4.471 13.836-11.875 7.776-10.757 9.631.354.586 1.3.206 1.114-.47-3.052-11.099-11.405-19.479-22.025-22.537.46-2.631-.376-5.934-2.012-8.092l-.67-3.123-.617-2.923c-1.423-6.819-2.696-13.632-3.382-20.638-1.027-10.506-1.063-21.09-.388-31.622.885-13.839 3.736-27.171 6.87-40.495l.337-1.427 2.464-10.36c6.16 1.752 12.48 2.859 18.623 3.408 7.152.638 14.233.579 21.259.014 6.227 16.915 5.99 36.176-1.705 52.696-9.003 19.325-31.069 37.784-25.012 61.219 2.642 10.216 18.094 8.13 18.46-2.185l.006-.315c.058-10.192 3.523-18.586 8.1-27.346l.631-1.197 1.046-1.953c5.479-10.247 10.119-20.359 11.661-32.017 2.24-16.935-1.27-34.422-9.657-49.228 29.875-3.116 58.79-14.943 87.96-21.297l1.338-.286 1.344-.277c21.55-4.345 45.301-4.858 64.837 6.487.373.216.668-.325.331-.567-28.356-20.451-65.08-17.548-97.595-10.341l-1.873.42-1.84.421c-30.074 6.946-61.582 17.148-92.325 8.161-7.991-2.336-15.746-6.173-22.002-11.73l-.523-.468c-2.645-2.388-5.665-5.478-6.174-9.102-.179-1.276-.123-2.15.63-3.16.784-1.052 2.154-1.047 1.366-1.427 9.208 4.438 17.102-8.315 8.453-13.84l-.61-.377c-11.067-7.01-5.538-22.965 7.156-22.89l.65.012c7.189.021 9.392-8.47 5.525-13.441l-.371-.464c-7.156-9.216 4.889-20.332 14.26-15.122l.513.295c4.448 2.46 9.125-.279 10.808-4.623 3.611-9.321 1.763-18.945 1.55-28.593l-.012-.629-.015-1.05-.003-.828.008-.55c.047-2.033.31-4.238 1.415-5.329Zm270.425 143.684.09.02.192.008.176 1.878-.225-.954-.233-.952ZM95.13 175.718l-.216-.441.7.282-.337.472-.147-.313Zm196.156-53.64c-.745-.212-1.282.947-.542 1.285 18.395 8.414 32.347 21.842 43.237 38.668 1.032 1.593 2.589 2.06 4.381 1.782.879-.137 1.373-.564 1.843-1.149l.117-.15.358-.483c.777-1.066.674-2.839 0-3.916-11.054-17.653-29.553-30.371-49.394-36.037Zm43.786-5.512c-.809.003-1.24 1.241-.622 1.767 5.282 4.496 10.44 9.479 14.191 15.361 1.822 2.855 3.344 5.899 4.446 9.105 1.201 3.498 1.59 7.124 3.305 10.432 2.874 5.544 10.576 2.447 10.963-2.97.585-8.171-6.24-17.359-11.648-22.927-5.487-5.65-12.218-9.547-19.984-10.686l-.544-.075-.107-.007Zm-202.759-6.396c-2.255-.57-4.099 2.308-2.326 3.996 9.738 9.277 22.899 13.58 36.003 15.458l.666.094c12.269 1.682 30.113 2.636 39.364-7.343 1.959-2.113 1.345-6.163-1.799-6.816-4.306-.895-8.726-.565-13.093-.027l-1.247.159-3.097.411c-6.118.799-12.259 1.286-18.435 1.105-12.365-.364-24.143-4.026-36.036-7.037Zm214.291-29.518c-1.296-.501-2.666 1.28-1.852 2.41 3.731 5.174 8.202 9.699 12.023 14.794 3.834 5.111 7.036 10.482 11.572 15.029 2.434 2.44 6.579-.042 5.719-3.329-3.256-12.443-15.643-24.336-27.462-28.904Zm-194.137 5.616c-1.362-.482-2.316 1.404-1.368 2.35 12.556 12.537 35.146 19.103 51.778 11.862 3.743-1.63 1.45-6.868-1.917-7.075-8.323-.513-16.681.449-24.961-.817-8.084-1.237-15.837-3.595-23.532-6.32Zm21.108-16.804c-1.799-.749-2.551 1.935-1.229 2.913 7.104 5.252 15.824 7.529 24.517 5.638 2.831-.616 2.22-5.181-.685-5.064-7.864.314-15.275-.436-22.603-3.487Zm58.284-27.262c10.765-.473 21.671-.598 32.591-.226l-4.846.643-3.231.422c-12.386 1.597-24.79 2.949-37.296 2.894-8.451-.037-16.892-.718-25.145-2.384 12.641.762 25.802-.63 37.927-1.35Z"/><path id="Fill 4" fill="#4F66AF" d="M104.018 117.514c-.014.062.007.109.021.175l.011-.052a3.462 3.462 0 0 0-.032-.123"/><path id="Fill 6" fill="#4F66AF" d="M104.014 118.151c-.055-.058-.133-.101-.211-.159a.02.02 0 0 0-.004.006c.073.048.143.103.215.153"/><path id="🖍 Ink" fill="#000" d="M428.024 149.504c4.918-4.086 12.665-.324 10.999 6.403-1.813 7.326-9.665 12.332-16.147 15.342-6.672 3.097-13.171 3.694-20.45 3.356l-.09-.02c2.021 8.103 3.167 16.526 4.713 24.678a5378.19 5378.19 0 0 1 5.793 31.041c1.839 10.006 4.164 20.025 5.577 30.081 1.425 10.151 2.793 20.309 4.193 30.463 2.336 16.959 4.222 33.996 6.211 51.004l.947 8.05c1.992 17.04 3.595 34.101-.179 51.057-3.537 15.892-11.505 30.716-20.747 43.982-9.051 12.99-19.162 25.48-30.261 36.779-21.409 21.791-47.809 39.244-78.765 42.481-13.329 1.394-27.565-.157-40.096-5.002l-.832-.325c-12.685-5.008-28.219-13.583-31.52-27.655-2.027-8.632 6.868-15.371 14.667-11.275 3.613 1.899 6.33 4.067 9.296 6.787l.527.485c2.424 2.251 3.357 2.943 6.154 4.704 5.737 3.609 10.037 5.317 16.553 6.957 12.014 3.022 24.98 2.544 37.176-1.03 25.894-7.588 45.982-27.388 63.191-47.241 9.344-10.781 18.213-22.09 25.053-34.655 7.177-13.183 10.49-27.024 10.291-42.024-.225-16.925-2.564-33.916-4.099-50.761-1.564-17.173-3.01-34.34-4.284-51.537-1.194-16.127-1.309-32.326-1.726-48.504l-.082-3.033c-.245-8.588-.415-17.179-.61-25.769-.193-8.565-.871-17.239.011-25.768.063-.621.9-.778 1.104-.15.52 1.598.975 3.221 1.405 4.853a.817.817 0 0 1 .23-.126c5.704-1.96 10.957-5.873 15.237-10.093 4.084-4.027 6.217-9.926 10.56-13.535ZM115.947 29.507c3.583-14.716 19.707-18.003 31.63-10.916 5.735 3.408 10.327 8.323 15.684 12.229a68.49 68.49 0 0 0 17.423 9.206c12.339 4.376 25.355 5.967 38.396 6.024 31.74.139 62.831-8.781 94.618-7.786 24.596.77 50.702 8.039 68.543 25.819 9.611 9.578 15.804 21.892 19.126 34.965 1.553 6.11 2.71 12.368 3.623 18.611l.223 1.561c.511 3.649 1.331 7.512 1.407 11.2.069 3.312-.769 6.778-1.223 10.056-.957 6.91-11.66 6.123-13.198 0-3.502-13.941-2.036-28.329-6.316-42.222-3.795-12.32-11.15-23.092-21.807-30.46-44.959-31.08-102.614-5.052-152.15-7.47-12.107-.591-24.392-2.462-35.812-6.631-5.889-2.15-11.687-4.772-17.026-8.07-4.892-3.02-9.13-6.814-13.658-10.305l-1.998-1.519c-3.104-2.335-8.389-5.987-11.521-2.897-1.363 1.345-1.445 4.385-1.42 6.707l.015 1.05c.142 9.858 2.151 19.698-1.538 29.222-1.683 4.344-6.36 7.083-10.808 4.623l-.23-.132c-9.409-5.598-21.771 5.65-14.543 14.958l.225.282c4.067 4.942 1.898 13.645-5.38 13.623l-.262-.004c-12.968-.405-18.721 15.802-7.544 22.883l.344.212c9.075 5.431 1.115 18.488-8.186 14.005.788.38-.582.375-1.366 1.427-.753 1.01-.809 1.884-.63 3.16.543 3.866 3.943 7.124 6.697 9.57 6.256 5.557 14.011 9.394 22.002 11.73 32.01 9.358 64.85-2.089 96.038-9.002 32.515-7.207 69.239-10.11 97.595 10.341.337.242.042.783-.331.567-20.35-11.818-45.274-10.769-67.519-5.924-29.17 6.354-58.085 18.181-87.96 21.297 8.387 14.806 11.897 32.293 9.657 49.228-1.542 11.657-6.182 21.769-11.662 32.017l-1.045 1.953c-4.886 9.198-8.671 17.887-8.731 28.543-.059 10.587-15.798 12.819-18.466 2.5-6.057-23.435 16.009-41.894 25.012-61.219 7.695-16.52 7.932-35.781 1.705-52.696-7.026.565-14.107.624-21.259-.014-6.143-.549-12.463-1.656-18.623-3.408l-2.464 10.36c-3.265 13.799-6.29 27.589-7.207 41.922-.675 10.532-.639 21.116.388 31.622.888 9.074 2.762 17.825 4.669 26.684 1.636 2.158 2.472 5.461 2.012 8.092 10.62 3.058 18.973 11.438 22.025 22.537.186.676-.76 1.056-1.114.47-7.241-12.014-25.887-16.435-37.682-8.498-11.264 7.578-15.707 22.878-9.331 34.99 3.354 6.368 8.326 10.844 14.738 13.925l1.289.606c3.36 1.59 6.444 3.322 8.605 6.516 2.803 4.142 2.897 8.52 2.633 13.253l-.115 1.918c-.177 3.173-.217 6.439.728 9.491l.215.678c.249.762.511 1.433.966 2.16.136.216 1.412 1.468 1.828 1.921l.524.158.586.024c.65.01 1.504-.272 1.224-.077l.076-.043a8.89 8.89 0 0 0 .665-.461l.363-.283a10.197 10.197 0 0 1 3.218-3.014l1.247-.555c3.239-3.42 8.789-1.623 11.111 1.784 1.671 2.45 2.57 4.941 2.644 7.398.261-.419.841-.648 1.21-.179l2.202 2.805c8.423 10.763 16.701 21.593 26.273 31.404a175.395 175.395 0 0 0 16.874 15.165c5.062 3.995 14.664 7.839 14.811 15.116.046 2.362-1.631 4.035-3.683 4.837-6.679 2.608-14.931-6.265-19.755-10.583l-.394-.349c-5.904-5.171-11.292-10.847-16.264-16.917-9.657-11.791-17.732-25.362-21.291-40.291-.167 2.605-1.285 5.158-3.461 7.567-2.897 3.206-6.862 5.454-11.097 6.38-9.595 2.097-18.963-1.356-24.672-9.351-4.825-6.759-6.246-15.684-5.624-23.85l.077-.98c.088-1.31.2-3.713.538-4.735l-3.021-1.659c-3.704-1.971-7.137-4.555-10.218-7.395-12.383-11.416-18.596-29.969-12.935-46.204 3.541-10.156 10.982-18.993 20.51-23.586-1.593-3.681-2.125-8.051-2.726-11.919l-.101-.639c-1.019-6.344-1.872-12.768-2.197-19.188-.608-11.99.131-24.092 2.015-35.943 3.06-19.249 9.395-39.663 21.007-55.811-8.859-3.518-17.013-8.611-23.307-15.683-6.577-7.39-10.77-17.97-5.684-27.355a20.21 20.21 0 0 1 4.926-6c-3.366-6.356-4.455-13.868-2.378-21.048 2.482-8.584 9.221-15.28 17.362-18.405-1.977-8.133-.361-16.881 5.68-23.66 5.992-6.723 15.297-9.172 23.909-7.635.467-8.65-2.256-17.85-.178-26.381Zm-24.155 303.7c7.896-3.864 17.254-3.25 25.141.412l.534.253c8.611 4.176 20.016 13.932 17.279 24.308-1.602 6.068-8.344 8.14-13.572 5.521-4.367-2.189-5.363-6.102-7.554-10.033-1.549-2.78-3.464-4.953-5.713-7.188-4.741-4.709-10.066-8.207-16.115-11.006-.872-.404-.842-1.854 0-2.267Zm198.954-209.73c-.74-.338-.203-1.497.542-1.285 19.841 5.666 38.34 18.384 49.394 36.037.674 1.077.777 2.85 0 3.916l-.357.484c-.507.662-1.008 1.15-1.961 1.298-1.792.278-3.349-.189-4.381-1.782-10.89-16.826-24.842-30.254-43.237-38.668Zm132.826 3.332c1.681-2.847 6.138-2.274 7.025.918l.128.278c.479 1.088.261 1.311-.632.695 2.212 1.822 3.213 4.536 2.537 7.454-3.652 15.76-21.503 27.014-37.065 25.465-1.358-.135-1.543-1.804-.312-2.302 5.987-2.424 11.301-6.361 15.574-11.192 4.153-4.696 5.9-10.069 8.134-15.74.838-2.129 2.142-3.662 3.979-4.499.243-.336.455-.694.632-1.077Zm-88.497-10.128.107.007c7.996 1.033 14.913 4.979 20.528 10.761 5.408 5.568 12.233 14.756 11.648 22.927-.387 5.417-8.089 8.514-10.963 2.97-1.715-3.308-2.104-6.934-3.305-10.432-1.102-3.206-2.624-6.25-4.446-9.105-3.751-5.882-8.909-10.865-14.191-15.361-.618-.526-.187-1.764.622-1.767Zm-205.085-2.4c-1.773-1.688.071-4.566 2.326-3.996 11.893 3.011 23.671 6.673 36.036 7.037 6.176.181 12.317-.306 18.435-1.105l3.097-.412c4.771-.622 9.624-1.111 14.34-.131 3.144.653 3.758 4.703 1.799 6.816-9.251 9.979-27.095 9.025-39.364 7.343-13.323-1.828-26.766-6.118-36.669-15.552Zm214.765-31.105c-.814-1.129.556-2.91 1.852-2.41 11.819 4.568 24.206 16.461 27.462 28.904.86 3.287-3.285 5.769-5.719 3.329-4.536-4.547-7.738-9.918-11.572-15.029-3.821-5.095-8.292-9.62-12.023-14.794Zm-193.653 5.557c-.948-.947.006-2.833 1.368-2.35 7.695 2.724 15.448 5.082 23.532 6.32 8.28 1.265 16.638.303 24.961.816 3.367.207 5.66 5.445 1.917 7.075-16.632 7.241-39.222.675-51.778-11.86Zm21.247-16.241c-1.322-.978-.57-3.662 1.229-2.913 7.328 3.05 14.739 3.8 22.603 3.487 2.905-.117 3.516 4.448.685 5.064-8.693 1.89-17.413-.386-24.517-5.638Z"/></g></svg>