<svg xmlns="http://www.w3.org/2000/svg" width="474" height="567" fill="none" viewBox="0 0 474 567"><g id="head/Short 2" fill-rule="evenodd" clip-rule="evenodd"><path id="✋ Skin" fill="#D08B5B" d="M405.263 225.318c11.378-8.172-5.588-35.059-11.352-43.059l-15.043-31.31c.61-8.559-7.748-16.174-16.007-13.57-7.185-5.153-19.219-2.686-22.871 5.382-79.447-34.602-216.913-20.207-224.022 86.565-15.368 30.4-30.6 61.06-44.235 92.281-18.918 1.016-28.088 23.999-16.825 38.852 1.5 24.119 16.79 26.028 37.204 24.955 8.198 2.159 16.696 3.329 22.844 9.66 4.673 4.775 7.849 10.83 10.914 16.705 14.145 27.106 32.116 50.554 56.476 69.305 37.883 28.351 89.165 48.706 136.403 34.905 101.557-39.882 121.501-199.268 86.514-290.671Z"/><path id="🖍 Ink" fill="#000" d="M193.319 69.993c66.35-15.41 140.891 5.27 186.94 56.22 3.24 3.58 2.891 8.24.04 11.26 1.33 1.08 2.63 2.19 3.95 3.3 1.38 1.17 1.18 3.52 0 4.71-1.17 1.17-3.6 1.41-4.71 0l-1.643-2.068a108.78 108.78 0 0 1-2.406-3.132c-.951.35-1.881.72-2.81 1.08 14.07 9.35 25.799 21.77 33.84 36.72 8.7 16.17 14.25 33.43 17.859 51.39 6.436 32.038 7.369 64.896 6.508 97.475l-.048 1.745c-1.11 39.27-4.94 79.19-21.5 115.3-13.28 28.94-36.879 55.55-66.469 68.22-17.041 7.29-35.361 10.4-53.871 9.1-9.759-.68-19.49-2.22-28.99-4.57l-2.282-.567c-8.654-2.167-17.629-4.68-25.018-9.633-7.58-5.09-2.47-15.2 5.89-13.97 10.07 1.49 19.66 5.69 29.65 7.87 9.771 2.14 19.661 3.26 29.67 2.97 17.71-.5 33.84-5.94 48.481-15.82 55.97-37.79 62.769-113.77 64.229-175.17.71-30-.39-60.39-7.29-89.7-6.63-28.18-18.04-55.93-34.189-80-3.56 1.33-7.12 2.44-10.91 2.79-6.756 4.061-14.79 4.169-22.602 4.17h-1.089c-8.13-.01-16.26-.49-24.35-1.22-28.63-2.54-58.09-8.98-86.87-4.88l-1.175.172c-11.85 1.782-26.535 5.522-35.235 14.048-9.399 9.2-3.1 26.61 4.34 32.14 4.81 3.58 6.31 11.64 0 14.89-12.46 6.43-42.62 2.86-46.01 6.42-4.069 4.255-3.784 10.741-3.901 16.263l-.009.367c-.42 15.72-.03 31.39 1.3 47.07 1.28 15.16 4.19 30.35 4.84 45.55.22 5.01-5.83 6.53-9.14 3.78-.65-.54-1.32-1.05-1.99-1.51-6.01-4.26-12.84-6.06-20.17-7.2a1.47 1.47 0 0 1-.902-.507l-.088-.113-.78.64c1.52 1.89 2.82 4.03 3.85 6.43.21.48-.24 1.09-.77.77-10.14-6.03-21.18-8.59-32.85-6.15-10.5 2.19-20 8.85-23.08 19.51-2.83 9.81-.75 21.12 5.6 29.19 9.39 11.96 24.64 10.88 38.32 11.43 2.68.11 5.67 1.41 6.92 3.97 1.47 3.02 1.37 5.08 0 8.09-.19.43-.44.82-.73 1.17 1.159.958 2.255 2.007 3.323 3.076l3.572 3.598c2.443 2.467 4.873 4.956 7.215 7.506 6.88 7.5 13.35 15.48 19.44 23.63l.563.761c7.133 9.758 14.533 23.85 26.897 26.929 4.24 1.06 8.18 3.15 9.44 7.74 1.26 4.59-1.709 9.04-5.7 10.96-6.92 3.33-15.7-.63-21.41-4.83-12.313-9.071-20.359-23.869-27.922-36.896l-2.071-3.56c-3.895-6.722-7.7-13.523-10.947-20.584-1.85-4.03-3.84-8.03-5.56-12.12-.5-1.19-1-2.4-1.39-3.64-.55.12-1.11.2-1.64.23-16.51 1.08-35.52-1.54-47.45-14.07-16.45-17.27-18.38-48.15.31-64.63 1.97-1.74 4.19-3.27 6.59-4.58-3.34-5.65-5.55-12.2-7.18-18.35-2.38-8.98-3.71-18.13-4.37-27.39-1.33-18.89.88-38.12 5.42-56.47 16.46-66.51 67-121.64 134.52-137.32Zm-119.57 275.99c-3.266-18.949 34.65-4.937 42.919-3.616l.242.036c9.484 1.316 4.198 17.952-5.136 12.997l-.284-.157c-5.05-2.894-10.604-4.968-15.9-7.419l-1.13-.531c-4.21-2.02-18.12-11.09-19.63-1.31-.08.54-.99.53-1.08 0Z"/></g></svg>