<svg xmlns="http://www.w3.org/2000/svg" width="474" height="567" fill="none" viewBox="0 0 474 567"><g id="head/Short 4" fill-rule="evenodd" clip-rule="evenodd"><path id="✋ Skin" fill="#D08B5B" d="M405.529 304.003c-2.153-18.915.633-58.451.819-60.853 1.181-15.185-5.934-75.148-19.384-69.623-22.563-17.861-52.613-21.805-80.713-23.689-58.368-3.914-120.46 5.071-165.531 44.351-22.288 20.399-43.988 50.068-42.243 80.96-20.251 29.282-48.8 69.449-23.569 103.682 8.577 10.937 22.208 15.01 32.983 23.293 21.671 17.48 35.268 42.566 57.145 59.942 57.96 52.083 156.377 62.963 213.323 3.723 44.035-42.904 36.915-107.09 29.17-161.786-5.208-36.773 2.199 36.901-2 0Z"/><path id="🖍 Ink" fill="#000" d="M228.28 69.625c15.61-3.15 31.639-5.11 47.58-4.52l1.229.048c11.994.48 27.184 1.54 37.647 8.514.602-.604 1.57-.914 2.448-.495 12.434 5.935 26.11 10.226 39.202 14.49 13.032 4.243 26.552 7.044 40.211 8.173 5.139.425 9.537 5.974 6.283 10.951a219.086 219.086 0 0 0-2.279 3.585c1.256-.131 2.512-.266 3.768-.393 4.133-.416 8.262 3.995 8.017 8.019a74.223 74.223 0 0 1-.83 7.503c1.574-.033 3.139.203 4.651.842 7.656 3.233 7.123 12.352 6.55 19.29-.794 9.628-4.395 19.826-11.081 27.032 4.992 5.185 8.526 11.377 10.634 18.731 1.529 5.37 2.38 11.09 1.96 16.68l-.134 1.674c-.519 6.066-1.552 12.782-5.916 17.146-2.24 2.25-5 3.07-7.631 2.81 1.591 13.98 2.611 28.04 3.571 42.05l.45 6.696c2.142 32.38 3.751 64.971 3.33 97.404-.391 30.31-6.38 59.73-24.97 84.34-16.931 22.41-41.24 38.93-68.74 45.21-14.82 3.39-29.95 3.63-44.95 1.47-7.271-1.05-14.59-2.66-21.491-5.2-7.639-2.82-13.129-6.97-18.269-13.19-2.431-2.95-1.261-9.23 3.58-8.64 7.321.888 14.005 1.958 21.024 4.123l1.005.317c6.991 2.24 14.231 3.91 21.54 4.62 14.971 1.45 30.17-.01 44.511-4.55 23.35-7.4 43.46-23.89 56.35-44.61 15.3-24.56 17.03-52.44 16.809-80.68-.237-30.988-1.245-61.995-2.89-92.951l-.28-5.159c-.87-15.93-1.71-31.87-2.449-47.81-.23-5-.58-10.04-1.211-15.03-5.769-3.38-10.939-8.04-14.309-13.79-6.77 2.8-13.89 4.82-20.441 6.43-15.174 3.732-30.928 4.638-46.373 2.301a137.059 137.059 0 0 1-12.729 4.536 284.927 284.927 0 0 1-3.497 1.523c-10.401 4.45-20.951 8.22-31.93 10.98l-2.697.673c-5.778 1.424-12.054 2.827-18.203 3.267-1.01.39-2.1.72-3.291 1.01a53.78 53.78 0 0 1-17.149 1.31c-5.591-.47-9.631-6.12-6.551-11.41 2.25-3.86 4.521-7.71 6.811-11.55-7.97 3.32-16.2 6.08-24.5 8.42-8.38 2.36-16.88 4.35-25.391 6.18-4.55.97-9.119 1.83-13.659 2.8-3.25.69-8.24 1.05-10.891 3.19-2.929 2.35-3.759 7.83-4.87 11.21-1.46 4.39-2.83 8.8-4.08 13.26a274.297 274.297 0 0 0-6.109 27.05c-1.58 9.13-2.641 18.35-3.231 27.6-.589 9.24-.33 18.54-1.279 27.74-.511 4.88-5.75 7.39-9.62 3.98-.454-.4-.912-.804-1.365-1.213l-.675-.617c-3.311-3-6.521-6.18-9.17-9.76-.48-.66-.94-1.35-1.37-2.05-.07 0-.13-.02-.2-.07l-.735-.553c-8.087-6.019-21.599-13.868-29.485-3.867-2.513 3.186-3.8 7.243-4.867 11.156l-1.874 7.005c-1.212 4.572-2.353 9.17-3.02 13.849-1.51 10.48-.75 22.56 6.461 30.96 2.88 3.36 6.85 5.76 11.279 6.39 2.471.34 4.911-.08 7.361-.39 2.49-.31 4.889.19 7.38-.05 3.96-.39 5.69 4.35 4.21 7.33-.8 1.6-1.741 2.98-2.81 4.15.859.74 1.68 1.54 2.47 2.38 2.34.75 4.439 2.36 6.01 4.49 1.27 1.72 1.929 3.59 2.04 5.56.139.49.259.99.37 1.5l2.145 3.482c.472.764.942 1.518 1.414 2.258 5.46 8.6 11.521 15.88 19.051 22.74 7.25 6.6 15.119 12.51 21.93 19.59l.802.841c6.35 6.691 13.043 14.79 10.558 24.519-.64 2.5-4.131 4.3-6.41 2.61-7.33-5.44-11.021-14.06-17.24-20.66-6.401-6.8-13.491-12.91-19.91-19.69-6.071-6.4-10.861-13.65-14.47-21.63-1.441 1.59-3.54 2.72-6.45 3.16-5 .75-9.661-2.18-11.84-6.51-1.401.62-2.83 1.18-4.271 1.62-7.58 2.32-12.349-6.11-9.489-12.34 1.529-3.34 3.439-6.24 5.81-8.68-7.411-1.02-14.951-4.85-19.821-9.63-12.219-12.01-13.899-30.06-11.149-46.11 1.46-8.51 3.979-17.12 7.25-25.11.569-1.39 1.18-2.79 1.849-4.17-.37-.01-.75-.17-.99-.48-2.21-3.02-4.899-5.49-6.54-8.87-1.51-3.1-3.189-6.24-4.38-9.47-2.449-6.61-3.649-14.07-4.449-21.06-1.65-14.31-1.011-28.53 1.18-42.75 3.729-24.22 12.737-47.398 26.008-67.736a11.574 11.574 0 0 1-2.06-1.38l-.319-.278-.518-.468c-3.787-3.427-3.46-9.85 0-13.321l1.093-1.095c1.384-1.375 2.577-2.464 4.812-3.961.33-.221.667-.429 1.008-.623-1.17-2.162-1.576-4.69-.761-7.479 2.84-9.716 16.82-9.372 25.681-5.135 9.803-8.749 20.673-16.344 32.455-22.494 28.061-14.64 59.79-24.85 90.771-31.09Zm-145.05 255.9c5.24-1.71 12.2 1.88 16.91 4.04 5.97 2.74 11.05 6.79 15.97 11.07 2.45 2.14 2.889 5.64 2.28 8.63-.061.3-.12.61-.191.92-.65 3.19-4.21 5.7-7.36 5.61-6.59-.18-9.729-5.87-13.46-10.69-.439.78-.989 1.5-1.67 2.04l-.46.36c-1.548 1.179-3.254 2.121-5.3 2.03a9.854 9.854 0 0 1-4.12-1.11c-3.2-1.69-4.609-5.83-3.74-9.2.54-2.12 1.78-3.78 3.4-4.93l-.604-.413c-1.292-.899-2.47-1.847-3.389-3.246l-.207-.331h.08c-1-1.72-.349-4.06 1.861-4.78Z"/></g></svg>