<svg xmlns="http://www.w3.org/2000/svg" width="474" height="567" fill="none" viewBox="0 0 474 567"><g id="head/Short 1" fill-rule="evenodd" clip-rule="evenodd"><path id="✋ Skin" fill="#D08B5B" d="M242.041 75.26c56.78 0 115.51 44.012 136.324 72.097 24.066 32.475 43.051 188.372 34.145 241.271-8.906 52.899-53.145 110.556-129.944 110.556-76.798 0-123.536-9.46-125.41-23.2-1.874-13.739-50.654-90.219-50.654-90.219s-49.89-14.032-50.085-47.551c-.195-33.519 26.735-45.714 26.735-45.714s-9.602-132.279 14.58-166.718C121.914 91.342 185.26 75.26 242.04 75.26Z"/><path id="🖍 Ink" fill="#000" d="m213.132 62.001 1.012.004c62.825.406 126.72 29.315 164.097 79.815l1.124 1.537c.061.08 1.18 1.745 1.444 2.219 1.549 2.78 3.374 5.382 4.774 8.209 1.182 2.4 1.968 5.081 2.837 7.637l.263.763c2.231 6.38 4.11 12.82 5.771 19.37 3.219 12.75 5.729 25.7 8.17 38.62 8.721 46.264 14.423 93.19 17.296 140.176l.567 9.447c.58 9.799 1.018 19.64-.083 29.407-1.271 11.37-4.54 22.04-9.49 32.34-4.561 9.5-10.441 18.3-17.17 26.39-3.6 4.33-7.42 8.54-12.12 11.709-3.741 2.521-8.111 4.181-12.321 5.781-6.849 6.84-15.639 12.01-24.229 16.14-14.16 6.79-29.51 10.54-45.04 12.42-15.88 1.909-31.92 1.45-47.67-1.28-15.05-2.6-31.181-9.25-40.45-21.92-.8-1.09.689-2.12 1.669-1.67 26.901 12.45 57.13 15.7 86.451 11.77 13.679-1.83 27.139-5.61 39.63-11.48 10.54-4.95 19.429-12.15 28.889-18.67 1.841-2.45 3.7-4.86 5.821-7.1l3.309-3.47c2.473-2.606 4.902-5.248 7.11-8.1 6.821-8.79 12.47-18.76 16.201-29.25 7.256-20.419 5.294-42.585 4.011-63.865l-.111-1.875a934.505 934.505 0 0 0-6.45-68.04c-2.981-22.63-6.771-45.17-11.25-67.55-2.21-11.03-4.691-21.99-6.88-33.02-1.131-5.69-1.92-11.46-2.78-17.21-.521-3.5-.511-6.87-.521-10.29-.099.16-.22.31-.34.46.361.85.111 1.94-.769 2.44-3.33 1.9-7.17 1.26-10.92 1.27-3.981.02-7.961.03-11.941.04-4.145.015-8.29.015-12.435.009l-12.435-.029-49.74-.15c-32.574-.098-65.701 1.198-98.171-1.873l-2.479-.245c-2.551-.294-31.346-3.815-39.132-4.724l-.237-.028c-14.231-1.64-28.26-4.07-42.09-7.71 4.519 1.81 8.87 4.25 13.349 6.1 5.781 2.38 11.71 4.46 17.641 6.45 12.17 4.09 24.359 8.06 36.479 12.28 3.475 1.208 11.371 30.976 13.362 35.685l.058.135c1.01 2.27 2.401 4.76 1.63 7.34-1.699 5.7-10.71 9.92-15.179 13.14l-4.595 3.316-6.01 4.348c-2.465 1.766-4.741 3.117-7.966 2.106-.01-.01-.019-.01-.029-.01 2.76 12.81 4.1 54.24 4.51 61.51.359 6.33 2.219 14.44-.741 20.21-.7 1.37-2.519 2.45-4.07 2.34-6.76-.51-13.519-1.01-20.279-1.51-1.811-.14-3.461-1.17-3.961-3.01l-.02-.1a.664.664 0 0 1-.679-.2c-.37-.37-.75-.73-1.141-1.08-8.899-7.94-22.819-9.9-33.8-5.77-5.759 2.16-12.309 5.8-16.37 10.52-4.51 5.24-5.479 12.56-5.49 19.25-.02 12.9 4.641 25.96 14.15 34.91 8.738 8.216 20.013 10.607 31.356 12.958l1.215.252c2.589.54 3.41 4.4 1.46 6.02 5.19 5.08 9.67 11.14 14.04 16.73 5.803 7.416 11.352 15.126 16.751 22.853l2.606 3.737c9.287 13.254 22.73 31.51 16.883 48.08-.78 2.23-4.04 3.03-5.311.69-4.17-7.7-6.5-16.18-10.46-23.97-3.889-7.64-8.729-14.72-13.53-21.8l-2.769-4.103c-4.61-6.852-9.177-13.779-13.411-20.837l-2.948-4.887c-2.769-4.615-5.511-9.384-7.552-14.343-13.65 3.29-28.49-4.03-38.08-13.78-12.059-12.28-17.729-30.37-16.17-47.38.821-8.9 3.451-17.51 9.97-23.91.66-.64 1.351-1.25 2.061-1.86-.25-.13-.46-.33-.56-.57-4.37-10.38-5.3-22.75-5.67-33.93-.39-11.56-.14-23.15.74-34.69 1.61-21.16 5.43-42.21 11.49-62.55 8.97-30.06 24.38-59.49 49-79.66 26.254-21.513 61.428-29.49 94.848-29.434ZM82.444 324.925c3.708-1.683 9.492 1.315 12.793 3.224l.217.126c9.75 5.67 16.691 15.33 19.9 26.03 2.06 6.9-9.51 9.65-10.49 2.89-.799-5.51-2.64-10.67-5.67-15.28a9.29 9.29 0 0 0-2.05.95c-2.41 1.56-3.81 4.24-7.16 3.84-2.48-.29-5.02-2.01-4.85-4.85.27-4.69 4.05-6.56 8.1-6.8a60.37 60.37 0 0 0-1.758-1.523l-.654-.525c-.741-.536-8.666-6.001-8.894-4.595l-.004.083c.01.56-.74.88-1.12.46-1.53-1.64-.11-3.23 1.64-4.03Z"/></g></svg>