<svg xmlns="http://www.w3.org/2000/svg" width="474" height="567" fill="none" viewBox="0 0 474 567"><g id="head/Short 3" fill-rule="evenodd" clip-rule="evenodd"><path id="✋ Skin" fill="#D08B5B" d="M418.424 337.603c-6.271-45.243-20.614-89.171-22.673-135.093l-3.674-58.956c-.465-12.274-16.409-16.415-22.499-5.541-13.843-15.352-38.631-13.091-57.542-12.625-111.328 3.945-217.122 79.215-255.338 184.164-.919 2.502-.64 5.165.398 7.548-17.813 59.4 45.182 97.649 88.146 124.133 17.429 18.418 37.916 33.72 61.049 44.2 26.611 12.519 56.233 19.499 85.634 20.167 6.454.148 10.331-5.07 10.797-10.471 9.38-2.183 25.431.337 30.391-9.275 56.567-24.569 93.424-86.841 85.311-148.251Z"/><path id="🖍 Ink" fill="#000" d="M391.957 177.155c-.16-1.467 1.958-1.512 2.394-.324 3.585 9.767 7.302 19.467 10.142 29.481 2.738 9.651 4.71 19.521 6.707 29.349a856.394 856.394 0 0 1 8.516 49.223c5.035-3.932 11.62-4.29 17.821-1.23 2.91 1.435 4.024 5.23 3.326 8.174a66.485 66.485 0 0 1-2.067 7.014 18.496 18.496 0 0 1 4.334 5.675c2.855 5.8 1.935 11.888-.626 17.421.195.33.388.662.57 1.014 3.707 7.199 1.724 13.646-.985 20.67-2.028 5.256-.896 11.174-5.271 15.142-1.521 4.886-3.803 9.43-7.125 13.535-.754 1.381-1.884 2.491-3.225 3.308-.337 7.711-1.151 15.396-2.682 23.014-5.945 29.579-24.813 55.934-48.17 74.522-22.856 18.19-49.699 29.059-78.663 32.572-14.064 1.707-28.149 1.169-42.098-1.268l-1.738-.31c-12.871-2.334-28.447-6.199-37.347-15.908-4.68-5.106-1.944-16.344 6.331-15.283 4.384.561 8.2 1.264 12.328 2.882 3.219 1.262 6.444 2.478 9.749 3.508 6.33 1.971 12.877 3.508 19.449 4.358 13.694 1.769 27.924 1.301 41.46-1.369 24.614-4.856 48.527-16.057 67.206-32.921 21.713-19.603 34.441-44.974 36.314-74.236 2.086-32.59-1.677-65.962-4.801-98.383a995.433 995.433 0 0 0-6.172-50.456c-2.427-16.376-3.882-32.729-5.677-49.174ZM199.799 71.92l1.052-.162c41.8-6.36 85.78-5.91 125.07 11.34 7.53 3.31 14.9 7.3 21.84 11.93 4.971-.52 9.971-.94 14.881-1.01 6.179-.08 12.209 3.13 12.969 9.379 5.79.72 11.121 2.85 14.531 7.111a13.752 13.752 0 0 1 2.67 5.579 45.746 45.746 0 0 1 10.359 3.83c4.02 2.07 6.34 7.83 4.92 12.091-.328.967-.7 1.91-1.118 2.832l-.322.687.19.26c3.21 5.16.98 11.93-3.94 15.01-3.69 2.31-7.81 4.15-12.05 5.04.35 1.7.67 3.41.93 5.14.1.701-.799 1.201-1.2.51 0 0 1.52 4.73 3.811 9.941.899 2.049-1.981 3.869-3.08 1.799-2.92-5.52-4.731-11.18-7.381-16.87-2.449-.16-4.89-.72-7.24-1.79-1.54-.7-2.709-1.88-3.549-3.29-.051.06-.08.13-.131.2-7.89 10.15-23.31 13.71-35.23 16.92-12.799 3.451-25.9 5.58-39.049 7.15-22.961 2.73-46.101 3.24-69.17 4.301-1.528.069-3.053.146-4.579.22-9.37 8.22-21.439 13.328-33.819 14.881-6.273.786-13.693.586-20.727-1.016a21.015 21.015 0 0 1-9.275 5.515c-.632 13.099-7.936 25.501-18.978 32.73l.196.779c2.744 11.185 2.709 23.412-7.128 31.186a23.946 23.946 0 0 1-4.318 2.702l.336.773c5.081 11.874 6.704 24.99-2.847 34.843-3.872 3.994-10.671 3.048-13.575-1.536l-.142-.232c-.161-.273-.335-.535-.502-.803-.259.53-.655.977-1.243 1.227-3.63 1.561-5.08.41-8.39-1.2-3.06-1.5-6.29-2.62-9.589-3.489a55.409 55.409 0 0 0-8.07-1.491c-17.06 6.52-28.08 26.52-25.46 45.29 1.42 10.22 7.03 20.34 16.81 24.58 4.28 1.86 9.31 2.64 13.94 2.01 6.27-.85 11.089-4.799 17.579-2.54 2.56.89 4.161 2.901 4.3 5.651.231 4.319-1.3 7.559-3.88 9.959 4.55 3.8 8.22 9.08 12.17 13.291 4.941 5.269 9.95 10.539 15.29 15.399 5.04 4.61 10.401 8.89 16.08 12.691l.597.393c7.116 4.634 16.083 8.749 16.423 18.437.11 2.92-1.66 5.599-4.06 7.089-8.969 5.56-18.73-1.74-25.76-7.089a158.327 158.327 0 0 1-8.23-6.691c-1.77.14-3.7-.149-5.71-1.04-1.29-.56-2.55-1.22-3.79-1.92-4.03 1.01-7.83.12-10.96-1.99-4.51 1.11-9.29 1.24-13.35.35-3.709-.82-7.02-2.57-9.75-4.92-5.7 1.82-12.03 1.48-17.65-1.97-3.37-2.069-6-5.02-7.43-8.47-.728-1.139-1.194-2.469-1.229-3.934v-.556c-4.9.11-9.81-1.57-13.6-5.449-3.48-3.561-5.18-8-5.37-12.511a24.628 24.628 0 0 1-12.87-8.7c-5.68-7.34-6.44-16.41-3.52-24.51-.19-.43-.36-.87-.51-1.31-4.53-6.39-7.52-14.1-7.28-21.83.03-1.2.19-2.379.43-3.549-4.46-2.371-7.74-6.531-8.09-11.821-.27-4.15 1.22-8.21 3.91-11.28-1.31-3.13-1.89-6.53-1.49-9.93.41-3.49 1.64-6.52 3.44-9.049-.04-.92.01-1.851.16-2.801-.18-.93-.33-1.89-.41-2.869-.85-10.721 6.55-20.101 15.56-25.051 2.37-1.3 4.93-2.36 7.49-3.26 1.86-.66 4.66-.88 6.3-2.09-.07-.05.61-.929.73-1.4.13-.58.27-1.15.34-1.74.27-2.48.07-5.03.02-7.52-.22-11.3.13-22.65 1.32-33.89 2.21-20.84 7.66-41.23 18.28-59.44 8.91-15.26 21.11-28.15 35.099-38.84 27.866-21.282 62.64-32.855 97.018-38.197ZM70.66 331.088c-3.627-8.718 13.45-8.804 17.965-8.39l.133.013c10.163 1.011 26.052 5.899 30.21 16.154 1.721 4.245-3.374 8.846-7.451 7.45-3.991-1.366-6.229-4.3-9.432-6.867a41.102 41.102 0 0 0-2.608-1.91c.47 1.496 1.222 2.878 2.265 3.91l.246.232c4.918 4.418-3.877 11.361-7.141 5.51-1.738-3.113-2.434-6.529-1.892-10.064.161-1.043.441-1.997.848-2.907-.324-.162-.643-.338-.971-.494l-.585-.272c-3.915-1.776-20.617-8.749-20.482-2.514.015.69-.88.691-1.105.149Z"/></g></svg>