<svg xmlns="http://www.w3.org/2000/svg" width="474" height="567" fill="none" viewBox="0 0 474 567"><g id="head/Turban" fill-rule="evenodd" clip-rule="evenodd"><path id="✋ Skin" fill="#D08B5B" d="M463.871 255.553c-9.151-49.899-31.715-97.378-66.368-134.527-3.999-4.411-7.592-11.369-13.694-12.481-6.125-12.481-17.8-21.304-27.133-31.383-20.371-20.311-39.861-43.008-66.136-55.834C168.671-28.794 51.394 114.122 26.507 221.603c-24.719 86.437 2.28 205.675 109.401 209.173 15.155 20.044 36.067 33.918 57.548 46.309 29.335 18.782 61.335 26.406 95.273 15.954 33.799 8.832 68.836-19.51 89.148-44.366 16.055-19.253 27.059-42.75 41.744-62.679 17.337-.433 32.319-15.113 34.64-32.32 16.193-29.757 15.457-65.415 9.61-98.121Z"/><path id="👳‍♀️ Turban" fill="#9DDADB" d="M26.507 221.603C51.394 114.122 168.671-28.794 290.54 21.328c26.275 12.826 45.765 35.523 66.136 55.834 9.333 10.079 21.008 18.902 27.133 31.383 6.102 1.112 9.695 8.07 13.694 12.481 34.653 37.149 57.217 84.628 66.368 134.527 5.847 32.706 6.583 68.364-9.61 98.121-2.321 17.207-17.303 31.887-34.64 32.32-3.177 4.312-6.183 8.792-9.104 13.359l-.69.234-.085-5.058c-1.462-81.96-6.182-131.435-14.16-148.425-8.059-17.163-42.742-48.588-104.05-94.276l-1.866-1.388-14.391-11.885-11.168 12.609c-42.017 47.396-74.907 83.969-98.67 109.719-25.571 27.71-47.205 69.865-64.903 126.466l-.535 1.72 31.269 41.48C28.009 423.803 2.149 306.778 26.508 221.603Z"/><path id="🖍 Ink" fill="#000" d="M198.415 4.346C220.59-.835 243.845.239 265.81 5.933c43.535 11.287 79.356 40.638 109.057 73.363 28.971 31.92 52.862 68.512 70.311 107.931l.884 2.005c12.342 28.1 23.068 57.306 23.528 88.247.396 26.629-2.294 54.371-10.897 79.699-7.664 22.563-21.761 45.299-46.014 50.708-13.985 35.548-41.345 66.332-75.81 82.804-21.376 10.217-44.851 14.778-68.485 12.51-24.113-2.312-46.636-13.898-65.481-28.673-.517-.405.148-1.19.681-.884 22.689 13.075 49.523 17.749 75.511 16.889 42.708-1.412 81.861-24.463 104.359-60.696 5.598-9.018 10.586-18.53 14.565-28.425a8.93 8.93 0 0 1-.368-2.443c0-3.409 1.618-6.014 4.032-7.697a133.51 133.51 0 0 0 2.936-10.611c1.875-8.102 2.921-16.321 3.552-24.606.512-6.731.228-13.872.904-20.775-.246-5.531-.588-11.057-1.089-16.571-1.613-17.768-4.875-35.492-11.158-52.238-6.365-16.962-16.417-31.92-29.099-44.795-27.202-27.614-61.07-47.776-87.521-76.144l-1.385-1.5-.094-.03c-3.282 3.365-6.562 6.73-9.851 10.088l-15.027 15.327c-30.669 31.316-61.09 62.936-87.771 97.784-15.363 20.067-29.166 41.102-41.059 63.408a381.998 381.998 0 0 0-15.355 32.438l-1.816 4.397c-2.161 5.263-4.497 11.153-5.794 17.096 3.86 3.829 6.683 9.456 9.805 13.802 3.541 4.929 7.625 9.621 11.827 14 4.253 4.433 8.918 8.682 13.87 12.323l.594.429c5.682 4.032 12.205 6.817 13.057 14.493.37 3.333-2.61 6.014-5.369 7.052-7.553 2.837-15.377-5.313-20.411-10.001-3.139-2.924-6.025-6.075-8.701-9.402-2.605.373-5.227.56-7.822.252-4.021-.478-8.003-1.181-11.92-2.211-32.488-8.53-56.535-35.5-69.51-65.537-17.417-40.326-17.012-86.811-9.771-129.455 13.23-77.93 56.053-150.708 120.714-196.783 18.109-12.904 38.19-24.061 59.996-29.155Zm35.003 10.425c-41.772-2.201-79.856 19.339-110.411 46.152-55.634 48.82-89.902 120.3-96.796 193.703-3.663 39-.922 81.037 19.414 115.494 7.89 13.369 18.052 25.018 30.047 34.84 11.303 9.257 24.187 14.592 37.961 18.222a109.028 109.028 0 0 1-1.848-2.617c-3.204-4.691-5.749-9.677-7.881-14.901a.489.489 0 0 1-.751-.061c-8.694-11.929-5.973-26.163-1.829-39.281 4.345-13.759 9.852-27.147 16.137-40.134 22.909-47.328 56.983-88.559 92.353-127.034 18.064-19.649 36.727-38.729 55.321-57.874 9.286-9.56 18.547-19.148 27.691-28.846 4.551-4.828 9.074-9.681 13.556-14.573 4.432-4.837 8.42-9.96 13.938-13.583 4.399-2.887 8.79 2.63 6.734 6.735-3.162 6.312-8.6 11.316-13.413 16.449l-.495.532a1443.36 1443.36 0 0 1-14.189 15.083 2344.538 2344.538 0 0 1-16.537 17.145c4.723-.547 9.502-.862 14.197-1.575 6.376-.968 12.666-2.394 18.924-3.945 6.595-1.633 13.105-3.718 19.388-6.31 5.903-2.434 11.482-6.334 17.977-6.716 5.498-.324 7.215 6.483 4.169 10.065-4.198 4.936-11.746 6.879-17.884 8.711l-.866.262a142.687 142.687 0 0 1-20.758 4.666c-9.239 1.368-19.917 1.994-29.802.594 19.74 11.574 37.904 25.918 56.018 39.906l3.196 2.465c17.697 13.616 34.969 28.294 47.587 46.923 11.778 17.391 18.89 37.638 22.881 58.153 1.969 10.121 3.268 20.349 4.14 30.62 3.249 9.106 2.727 19.933 1.909 29.948l-.292 3.457.022 1.014c.122 6.264 2.639 20.211-3.289 24.941-.101.504-.195 1.011-.301 1.515a75.336 75.336 0 0 0 2.19-1.407c.297-.199.585-.418.876-.633l.819-.673a7.37 7.37 0 0 0 .08-.068c1.84-1.615 3.595-3.301 5.231-5.124 3.023-3.369 5.897-7.65 8.619-12.582 5.981-10.84 9.802-22.624 12.757-34.808 5.402-22.275 7.631-46.2 5.167-69.044-.344-3.189-1.05-7.187-2.145-11.289a388.641 388.641 0 0 0-8.94-28.884c-6.699-19.019-14.911-37.47-24.486-55.214-19.446-36.04-44.466-69.36-74.444-97.321-30.359-28.317-69.73-50.874-111.942-53.098Zm-58.909 115.15c1.506-.92 3.056.867 2.309 2.309-3.617 6.979-9.699 12.871-14.751 18.851a2955.284 2955.284 0 0 0-15.604 18.653c-10.548 12.695-20.843 25.623-30.732 38.839l-2.61 3.496c-8.694 11.67-17.282 23.526-24.882 35.926-3.977 6.487-7.48 13.196-10.663 20.105-3.028 6.577-4.425 14.516-8.066 20.694-.229.39-.939.358-1.026-.135-1.188-6.652 1.747-14.664 3.844-20.893 2.492-7.408 6.04-14.464 9.838-21.279 7.922-14.216 17.415-27.541 26.95-40.705 9.685-13.367 19.74-26.461 30.289-39.159a510.356 510.356 0 0 1 15.239-17.54l1.963-2.143c5.465-5.928 10.973-12.789 17.902-17.019Zm-25.324-20.667c2.477-1.835 4.591 1.915 3.011 3.903-9.439 11.874-20.179 22.543-30.509 33.617-9.92 10.635-19.402 21.668-28.35 33.135-18.242 23.383-32.845 49.041-45.213 75.932-.233.507-.967.129-.857-.361 6.55-29.087 21.867-55.505 39.306-79.374l.663-.905c17.639-24.003 37.915-48.132 61.949-65.947Z"/></g></svg>