<svg xmlns="http://www.w3.org/2000/svg" width="474" height="567" fill="none" viewBox="0 0 474 567"><g id="head/Twists 2" fill-rule="evenodd" clip-rule="evenodd"><path id="✋ Skin" fill="#D08B5B" d="M408.074 252.065c-3.712-29.621-15.372-61.07-27.635-88.685-27.574-58.386-90.701-66.425-147.292-78.463-55.844-8.13-114.979-15.47-169.981.75-30.921 7.575-42.998 44.401-38.118 73.462 2.785 18.109 11.028 35.248 18.057 52.031 13.97 34.466 22.835 71.365 22.85 108.681-.96 24.386-4.401 52.22 23.623 62.549 26.667 13.261 28.92 49.209 62.311 69.605 13.502 27.349 50.281 29.756 76.752 36.1a513.618 513.618 0 0 0 50.617 7.081c49.126 6.295 88.426-7.94 114.142-51.702 17.209-26.633 30.024-57.385 26.858-89.663-3.153-33.99-8.406-67.802-12.184-101.746Z"/><path id="🖍 Ink" fill="#000" d="M233.571 13.959c2.804-3.178 7.124-2.088 9.746.425a19.47 19.47 0 0 1 4.923 2.24c3.53-.452 7.231-.452 10.693-.325.84-.471 1.74-.89 2.72-1.25 7-2.56 13.199-1.26 18.312 2.167 2.463-2.33 5.57-3.792 9.542-3.571 3.545.198 6.071 1.866 8.236 4.063 2.159-3.113 5.649-5.334 9.997-5.643 6.077-.432 11.919 2.005 16.761 5.778 2.821-3.236 6.667-5.096 10.953-5.114 2.82-.512 5.796-.31 8.485.502 3.904 1.179 7.332 3.388 10.062 6.255 4.319-4.136 9.606-7.112 15.702-6.678 7.89.57 14.43 6.37 17.47 13.51 5.34 2.14 10.27 5.19 14.39 9.54.22.23.43.47.65.71 2.22.82 4.31 1.98 6.15 3.51 5.83 4.85 7.13 11.87 5.2 18.75.27 1.1.5 2.22.71 3.34 5.46.83 10.42 3.98 13.24 9.11 3.86 7.04 3.1 16.32-1.08 23.04-1.797 2.892-4.078 5.328-6.64 7.458 2.897 6.58 1.507 14.432-3.164 19.754-1.138 1.835-2.535 3.491-4.107 4.99 1.735 6.803-1.351 13.822-7.511 17.457l-.527 1.319c-.089.219-.179.437-.271.653-.068.28-.152.551-.235.824-.147 2.414-.942 4.783-2.52 7.015-3.231 4.574-7.235 7.557-9.359 12.897l-.212.561c-.913 2.527-3.861 4.31-6.373 3.53 13.947 28.641 21.259 60.51 26.279 91.742 2.503 15.581 4.435 31.216 6.001 46.911l1.537 15.629c1.351 13.893 2.554 27.831 2.562 41.77.02 31.531-9 61.86-28.36 86.951-18.31 23.719-44.22 40.909-73.49 47.679-30.22 6.98-65.67 4.23-92.77-11.75-7.99-4.699-.99-16 7.14-12.219 15.39 7.16 31.03 12.48 48.09 13.67 16.63 1.169 33.3-.911 49.07-6.351 26.09-9.009 48.29-27.879 62.56-51.379 7.03-11.581 12.12-24.15 14.83-37.431 3.373-16.553 2.865-33.662 1.625-50.427l-.085-1.142c-2.45-32.301-5.68-64.801-10.9-96.78-4.614-28.279-11.709-55.985-20.92-83.078a49.637 49.637 0 0 0-11.963-7.8c-31.627-1.321-63.311-.935-94.897 1.247-26.938 1.873-53.746 5.042-80.351 9.66l-2.849.501c-5.89 1.049-12.43 1.649-17.98 4.02-4.76 2.04-6.69 5.96-7.89 10.779-3.02 12.19-3.48 25.531-3.99 38.031-.5 12.219.63 24.54-.35 36.719-.83 10.19-3.44 20.62-10.99 27.991-3.95 3.859-8.81 5.969-13.37 8.899-2.95 1.891-4.2 3.84-3.82 7.34.82 7.66 6.99 17.31.06 23.87-1.22 1.15-3.33 1.3-4.53 0-2.86-3.109-6.81-5.48-10.2-7.99-1.42-1.039-.24-3.059 1.37-2.34 2.12.951 4.28 2.071 6.49 3.051-4.88-4.02-11.82-5.991-17.6-7.161-2.91-.58-5.97-.75-9-.479-2.24 1.069-4.53 2.06-6.82 3.029-2.91 1.221-5.85 2.33-8.81 3.381-10.27 8.369-15.17 21.98-13.03 35.29 1.17 7.349 4.56 15.34 10.95 19.63 7.57 5.08 17.71 2.899 25.89 6.67 7.66 3.529 12.32 10.66 15.81 18.04l1.455 3.072c3.239 6.803 6.569 13.426 10.995 19.617 5.12 7.17 11.39 13.61 18.23 19.141 3.318 2.677 6.855 5.084 10.51 7.277l1 .593c3.7 2.17 6.35 4.239 6.6 8.829.08 1.6-.93 3.06-2.23 3.89-5.6 3.55-11.17-.89-15.83-3.99-5.03-3.34-9.84-7.099-14.29-11.199a110.387 110.387 0 0 1-21.41-27.051c-4.29-7.639-6.73-18.389-13.51-24.309-4.14-3.611-9.99-3.64-15.16-4.301-4.81-.619-9.36-1.619-13.64-3.989-17.41-9.67-22.33-33.08-18.2-51.17.7-3.051 1.68-6.021 2.89-8.881-6.48 1.08-13.76-5.619-11.13-12.38.2-.51.43-.989.65-1.48-4.27-2.81-7.64-7.069-9.24-12.64-.82-2.88-.94-5.79-.51-8.6-2.07-1.389-3.78-3.3-4.88-5.65-3.44-1.59-6.49-3.969-8.31-7.369-2.52-4.691-2.2-9.011-.28-12.901-.27-.489-.53-.989-.78-1.5-7.05-4.469-11.97-12.17-11.41-20.71.18-2.83.88-5.38 1.96-7.679-.09-.29-.18-.591-.26-.881-5.9-3-10.78-7.929-12.52-14.509-1.74-6.621.31-13.221 4.41-18.301-6-4.389-9.61-10.519-7.42-19.79.89-3.769 2.68-7.2 5.1-10.09-.01-.089-.03-.179-.05-.27l-.562-.435c-7.407-5.845-11.665-13.294-7.118-22.455 2.04-4.119 4.95-6.99 8.37-8.88l.17-.54c-2.45-5.25-3.28-11.08-1.59-17.21 1.38-5.049 4.65-9.07 8.83-11.739-.28-2.261-.24-4.67.21-7.281.75-4.41 2.94-8.26 6.14-10.99.12-.58.27-1.15.44-1.72 1.08-3.49 3.1-7.28 5.44-10.09 1.93-2.33 4.09-3.18 6.73-3.27-.16-2.15-.05-4.33.39-6.54 1.35-6.82 5.69-13.23 12.12-16.14 2.64-1.19 5.42-1.54 8.1-1.25 2.28-4.8 6.73-8.28 12.2-9.03 2.13-.3 4.11-.28 5.93-.01 1.03-.48 2.1-.91 3.22-1.3.74-.26 1.49-.5 2.24-.74 2.53-3.14 5.86-5.65 9.75-7.16 4.49-1.75 9.06-1.57 13.11-.1l1.29-.27c2.02-3.5 5.24-6.21 10.19-7.44 5.62-1.39 11.39.55 15.81 4.08.02 0 .04 0 .07-.01 2.31-5.17 6.26-8.77 12.89-8.52 4.13.16 7.86 2.21 10.74 5.13 1.6-.2 3.2-.38 4.81-.56 1.7-1.99 3.59-3.85 5.68-5.52 3.42-2.74 7.87-2.52 10.39 1.34.55.84 1.06 1.69 1.57 2.54l2.31-.16c2.72-3.67 6.43-6.15 11.51-6.35 4.66-.19 7.98 2.09 10.51 5.28 2.06-.05 4.13-.09 6.2-.12 2.41-2.79 5.25-5.25 8.49-7.29 2.48-1.56 6.14-1.03 8.15 1.05a53.124 53.124 0 0 1 3.797 4.419c3.029-3.396 7.12-5.633 11.491-6.488ZM86.393 331.508c4.67-2.66 10.95.22 15.47 2.48 5.51 2.75 10.98 6.9 14.35 12.1 4.59 7.08-6.2 12.8-11.03 6.45-2.97-3.91-5.34-7.85-8.94-11.27-3.29-3.14-8.06-5.24-9.95-9.38-.07-.14-.05-.3.1-.38Zm3.28-171.85.088-.25c1.328-3.633-4.468-5.199-5.785-1.596-1.996 5.461.305 11.398 5.699 13.756 1.495.654 3.203.427 4.104-1.076.757-1.265.406-3.457-1.076-4.104-3.035-1.327-4.052-3.67-3.03-6.73Zm-49.931-10.159c2.9-2.56-1.356-6.791-4.243-4.242-2.694 2.378-4.692 5.608-4.173 9.323.529 3.786 3.384 6.459 6.509 8.348 3.312 2.003 6.33-3.183 3.028-5.181l-.371-.227c-1.387-.861-3.01-2.045-3.244-3.739-.25-1.8 1.274-3.205 2.494-4.282Zm16.467-45.172.206-.151c3.116-2.224.123-7.43-3.03-5.181-2.89 2.063-5.207 4.743-5.451 8.439-.237 3.592 1.59 6.706 3.98 9.233 2.66 2.811 6.898-1.437 4.244-4.242-2.586-2.734-3.092-5.717.051-8.098Z"/></g></svg>