<svg xmlns="http://www.w3.org/2000/svg" width="474" height="567" fill="none" viewBox="0 0 474 567"><g id="head/Twists" fill-rule="evenodd" clip-rule="evenodd"><path id="✋ Skin" fill="#D08B5B" d="M67.973 102.4c5.186-5.565 11.819-9.71 19.07-11.035-6.628 3.31-13.107 6.761-19.07 11.035Zm-10.158 47.984c-.917-4.241-1.533-8.523-1.727-12.804 1.159 1.762 3.01 2.939 5.089 3.547-1.343 3.007-2.485 6.105-3.362 9.257Zm347.02 66.494c-5.986-24.917-33.914-72.844-40.515-82.069-7.168-22.841 31.926-41.159 10.665-59.02-9.626-8.058-22.348-10.91-34.282-13.769-82.63-19.844-171.408-9.836-248.044 26.655-11.657-2.453-23.802 2.341-32.28 10.761-39.824 40.028 14.45 112.25 26.318 157.376 20.362 50.317-21.582 58.782-17.084 101.355 3.495 21.994 25.772 27.806 44.571 31.13 3.013.705 7.041.811 8.013 3.996 3.046 18.591 13.488 36.308 27.507 48.332-1.226 3.632-.29 8.041 4.033 11.231 39.168 29.107 88.555 43.674 137.407 41.055 58.218-3.12 88.325-36.488 95.59-45.08 40.169-54.247 35.369-125.822 27.175-190.471-5.708-45.035 1.53 2.658-9.074-41.482Z"/><path id="🖍 Ink" fill="#000" d="M225.322 9.542c1.83-5.72 7.01-9.16 12.94-8.45 5.25.62 10.87 5.83 10.23 11.58-.12 1.11-.28 2.15-.47 3.13l.025.008.025.002-.13.38c-.39 1.83-.93 3.47-1.73 5.02-1.02 2.97-2 5.95-2.97 8.94 1.4-.06 2.83.02 4.28.29 1.5-3.84 3.01-7.67 4.51-11.52 1.61-4.11 2.74-9.39 5.92-12.57 4.07-4.06 11.13-4.9 16.09-2 5.24 3.06 7.11 8.5 5.97 14.33-.58 2.973-2.567 5.043-5.025 6.343l-.265.137-1.89 4.48c.58-.25 1.18-.48 1.83-.67 1.02-.3 2.02-.49 3-.57 2.7-4.89 5.67-9.64 8.74-14.3 3.53-5.36 10.43-7.64 16.22-4.25 5.18 3.03 7.96 10.99 4.25 16.22-2.82 3.97-5.49 8.02-8.12 12.11.45.08.9.18 1.33.31.2-.27.41-.54.63-.81 2.87-3.56 6.21-6.23 9.64-9.19 3.21-2.78 4.69-7.15 8.91-9.26 5.31-2.65 11.71-1.38 14.87 3.9 6.78 11.31-4.6 19.57-11.88 26.42 6.33-3.95 12.92-7.56 19.68-10.68 3.8-1.75 7.66-3.44 11.58-4.9 5.81-2.16 10.51-1.47 15.28 2.55 2.13 1.8 3.19 5.73 2.21 8.35-1.9 5.02-4.9 8.07-10.16 9.52-3.7 1.02-7.49 1.71-11.19 2.78-6.2 1.78-12.22 3.95-18.06 6.66.42.26.82.54 1.19.86 4.36-1.41 8.8-2.63 13.26-3.67 7.397-1.735 14.925-2.907 22.487-3.64l2.512-.233c9.066-.87 19.967-2.476 25.531 6.203 1.83 2.86 2.03 7.58 0 10.41-3.88 5.44-7.74 6.52-14.16 6.62 6.32.67 12.63 1.5 18.91 2.47 4.328.66 8.657 1.408 12.967 2.238l2.153.422c5.25 1.05 11.11 1.66 15.62 4.7 9.84 6.64 5.22 19.57-5.68 20.95-5.27.66-11.12-1.57-16.29-2.61-5.02-1.01-10.06-1.9-15.12-2.68-2.62-.41-5.24-.77-7.87-1.1 5.35.77 10.66 1.86 15.83 3.4l1.436.433c9.995 3.046 23.486 7.898 26.604 18.577 1.89 6.49-3.28 12.15-9.54 12.53-5.82.35-10.67-3.12-15.61-5.68-3.6-1.86-7.26-3.25-11.14-4.44-4.01-1.23-8.1-2.25-12.22-3.08 3.482 1.918 6.872 4.026 10.127 6.384l1.497 1.106c8.651 6.446 21.844 16.426 18.796 28.51-.96 3.81-5.21 7.45-9.29 7.06-10.62-.99-16.48-12.3-24.49-18.36-2.09-1.58-4.38-3.14-6.78-4.66 12.14 14.48 21.8 31.22 29.15 48.51 16.153 38.037 21.109 73.264 21.228 114.163l.002 1.267c.02 22.56-.49 45.53-2.69 67.99-2.04 20.75-5.78 41.23-15.19 60.021-15.77 31.509-46.5 56.049-80.39 65.389-37.71 10.4-79.86 2.27-110.75-21.73-7.88-6.12 2.57-19.409 10.62-13.76 32.15 22.55 73.73 29.69 110.63 14.43 29.27-12.1 52.84-38.13 62.83-68.1 6.358-19.067 8.21-39.396 10.478-59.266l.152-1.324c2.4-20.78 3.79-41.7 3.77-62.62-.03-38.85-5.61-70.83-22.7-106.07-8.04-16.6-18.47-31.949-30.93-45.42-3.78.77-7.8-.31-11.62-.72-1.95-.21-3.9-.41-5.85-.59a155.902 155.902 0 0 1 5.866 3.997l2.518 1.816c7.882 5.645 17.882 12.074 15.856 22.987-.55 2.95-3.49 5.66-6.34 6.33-10.33 2.46-17.43-7.58-24.41-13.54-6.07-5.18-12.42-9.82-18.89-14.47-1.47-1.05-2.95-2.1-4.44-3.14 1.4 1.632 2.761 3.289 4.09 4.962l1.964 2.489c5.942 7.436 14.508 17.1 9.216 26.739-1.5 2.72-4.7 4.53-7.8 4.47-10.66-.22-14.9-12.32-19.9-19.96-4.3-6.55-8.97-12.72-13.8-18.89-1.33-1.69-2.67-3.38-4.03-5.07a418.78 418.78 0 0 0-66.62 8.85c-15.06 3.25-29.87 7.461-44.57 12.07l-1.222.388c-7.955 2.562-16.152 5.84-21.888 11.462-.819 3.873-.191 7.958.593 11.826l.61 2.96c2.515 12.381 4.229 24.533 2.947 37.244-1.33 13.11-5.28 24.9-10.1 37.08-2.28 5.74-4.64 4.7-5.45 10.86-.621 4.692-.237 9.535.187 14.267l.354 4.011c.889 10.507 1.336 21.962-5.551 30.632-1.07 1.33-3.36.8-4.12-.53a17.2 17.2 0 0 0-.97-1.53c-3.32-4.81-8.41-7.55-14.23-8.61-.74-.13-.45-1.12.17-1.2 4.92-.58 9.58.65 13.54 3.19-1.878-6.494-16.416-3.336-21.196-2.074l-.164.044c-5.96 1.6-11.6 4.2-16.57 7.88-10 7.4-15.78 18.94-15.49 31.37.29 12.22 6.6 23.51 17.44 29.36 5.23 2.82 11.18 4.18 17.1 4.12 6.18-.06 11.68-2.77 17.87-2.39 3.58.22 6.32 4.06 4.25 7.41-1.38 2.24-3.18 4-5.26 5.35 5.07 11.69 11.54 22.84 19 33.13 4.13 5.71 8.81 10.98 13.96 15.79 4.02 3.76 12.73 8.11 12.24 14.38-.17 2.26-1.34 3.64-3.4 4.48-6.405 2.618-14.192-6.398-18.476-10.744l-.344-.346c-5.34-5.32-10.21-11.2-14.45-17.44-7.52-11.08-12.19-23.57-14.12-36.69-10.27 3.09-23.87.19-32.25-3.6-26.34-11.9-34.95-47.37-18.94-70.99 3.1-4.57 6.98-8.48 11.4-11.64-.97-.53-1.88-1.21-2.69-2.07-4.481-4.76-7.649-10.971-10.793-16.696l-.377-.684a276.422 276.422 0 0 1-7.892-15.357l-.918-1.953c-5.51-11.85-10.34-17.03-14.27-29.49-3.78-12.02-6.76-24.27-8.69-36.73l-.513-3.299c-1.116-7.23-2.172-14.961-1.357-22.301-5.61 1.83-11.25 2.96-16.8.21-3.66-1.81-5.68-7.09-4.43-10.88.91-2.79 2.43-4.98 4.36-6.7-1.15-.58-2.23-1.32-3.18-2.14l-.83-.719c-3.36-2.921-3.6-8.471-1.56-12.131.2-.35.4-.71.59-1.06 1.94-3.47 5.95-5.74 9.91-5.68.64.01 1.28.01 1.93 0-1.85-.41-3.66-1.04-5.38-2.1-7.76-4.77-6.78-17.7 2.61-19.98 3.94-.95 8.29-.56 12.63.46-.16-.09-.32-.18-.48-.28-3.28-2.01-6.03-5.94-5.72-9.97.34-4.46 1.78-7.64 5.72-9.98 3.42-2.02 8.26-2.21 11.66 0 2.95 1.93 5.84 4.06 8.62 6.35-2.79-3.43-5.21-7.16-6.19-11.12-1.21-4.93.81-10.3 5.25-12.9 3.54-2.07 7.28-1.84 10.62-.24-.18-2.59.45-5.23 2.17-7.57 3.52-4.8 9.92-7.56 15.49-4.06.73.46 1.71 1.25 2.66 2.22-1.85-5.89-.18-12.07 6.13-14.73 3.85-1.63 9.06-.81 12.4 2-2.12-11.47 14.81-19.9 21.39-8.05 1.493 2.684 2.971 5.51 4.292 8.402l.488 1.088.05-.02-.337-.795-.343-.795c-1.83-4.25-4.16-8.67-4.8-13.28-.94-6.82 2.1-13.29 9.52-14.29 3.83-.52 8.09 1.22 10.66 4.26-1.39-10.58 10.43-18.27 18.94-10.37 4.03 3.74 6.18 9.21 8.74 14.01 1.45 2.71 2.93 5.41 4.38 8.13.37-.44.77-.88 1.19-1.31-2.15-6.44-3.82-13.04-5.23-19.68-1.34-6.26 1.79-12.76 8.25-14.53 5.87-1.62 13.22 2 14.53 8.25.92 4.4 2.01 8.75 3.21 13.08.82-.2 1.63-.34 2.43-.44.066-.814.142-1.631.226-2.445l.315-2.893c.699-6.609 1.405-14.154 4.859-19.772 5.89-9.6 20.99-5.62 21.15 5.73.09 5.87-2.3 11.69-3.13 17.5-.36 2.53-.57 5.09-.69 7.65 1.61-8.5 3.82-16.89 6.38-25.15.3-.99.62-1.98.93-2.97Zm-130.28 327.78c13.25-2.05 25.36 5.34 33.21 15.69 1.43 1.89.49 4.56-.8 6.15-.93 1.17-2.18 1.31-3.59 1.49-1.62.21-3.67-1.1-4.38-2.51-5.05-10.08-14.06-16.45-24.44-20.37-.19-.07-.25-.41 0-.45Zm18.367-180.605.402-.43c2.681-2.781-1.556-7.029-4.243-4.242-2.829 2.934-4.709 6.498-6.517 10.11-1.723 3.444 3.451 6.486 5.181 3.029l.788-1.572c1.236-2.443 2.554-4.857 4.389-6.895Zm-37.21-5.707c3.8-.64 2.189-6.423-1.595-5.785-4.902.826-9.785 1.765-14.688 2.592-3.8.64-2.188 6.423 1.596 5.786 4.902-.827 9.785-1.766 14.687-2.593Zm226.368-39.481c-3.671-1.225-5.246 4.568-1.595 5.786 5.045 1.683 10.049 3.408 14.835 5.745 3.457 1.688 6.502-3.485 3.028-5.181-5.253-2.565-10.73-4.502-16.268-6.35Zm-227.232-7.776c-3.585-1.434-5.142 4.367-1.595 5.786l12.96 5.183c3.585 1.434 5.142-4.366 1.595-5.785l-12.96-5.184ZM347.82 89.665l-.473-.298c-3.25-2.106-6.261 3.086-3.029 5.18 1.897 1.23 4.204 2.064 5.942 3.528l.363.324c2.806 2.65 7.057-1.584 4.243-4.243-2.059-1.944-4.665-3.026-7.046-4.491Z"/></g></svg>