<svg xmlns="http://www.w3.org/2000/svg" width="289" height="293" fill="none" viewBox="0 0 289 293"><g id="face/Awe" fill-rule="evenodd" clip-rule="evenodd"><path id="eye" fill="#fff" d="M95 163c26.51 0 48-18.804 48-42s-21.49-42-48-42-55.2 18.041-55.2 41.237c0 9.842 7.755 27.041 14.235 34.201C62.826 164.153 79.739 163 95 163Z"/><path id="eye_2" fill="#fff" d="M209.256 154.962c20.293 0 36.744-17.005 36.744-37.981C246 96.005 229.549 79 209.256 79 188.962 79 167 95.315 167 116.291c0 8.9 5.936 24.454 10.896 30.928 6.73 8.785 19.677 7.743 31.36 7.743Z"/><path id="🖍 Ink" fill="#000" d="M94.33 189.091c.21-.194.542-.262.795-.103 4.327 2.736 4.839 11.937 4.888 17.251 1.79.466 3.558.996 5.23 1.366 3.55.785 7.12 1.47 10.683 2.193l2.671.551c8.926 1.881 18.019 3.273 27.115 3.97 8.828.676 17.912.923 26.715-.214a71.299 71.299 0 0 0 11.191-2.394c4.318-1.288 7.757-3.423 11.773-5.293 10.054-4.683 18.48 9.04 8.804 15.062-8.306 5.167-19.638 7.03-29.226 7.83-9.8.817-19.562-.08-29.244-1.63-10.467-1.677-20.719-4.252-30.646-7.986-4.198-1.579-8.26-3.493-12.226-5.585l-1.079-.575c-.659-.354-1.346-.713-2.037-1.077-.743 6.627-2.884 13.028-5.471 19.181l-.061-.108c-1.415 4.854-6.527 7.857-11.613 5.713-5.97-2.515-6.423-9.117-2.95-13.803l.166-.218c4.084-5.254 6.643-11.772 8.867-17.985a146.427 146.427 0 0 0 3.113-9.705c.663-2.357.687-4.728 2.542-6.441Zm153.832-52.773c-3.539 10.694-11.256 18.929-22.006 22.549-10.654 3.589-22.503 2.281-33.394.341a159.114 159.114 0 0 1-7.207-1.44c1.972 1.222 3.715 2.942 5.382 4.76 2.466 2.689 4.702 5.522 5.38 8.888.673 3.339-.387 5.879-2.321 7.797-2.975 2.949-7.774 4.538-11.838 5.416-9.102 1.967-18.219 1.661-27.276-.356-2.312-.514-3.881-1.755-4.761-3.372-1.069-1.964-1.157-4.408-.543-6.633.613-2.224 1.938-4.274 3.861-5.409 1.583-.934 3.563-1.19 5.81-.443 4.51 1.501 8.988 2.495 13.752 2.61a52.877 52.877 0 0 0 6.06-.198 50.078 50.078 0 0 0 3.404-.431 84.572 84.572 0 0 1-1.943-2.699 83.252 83.252 0 0 1-2.167-3.279c-2.006-3.213-3.677-6.515-5.145-10.002a84.303 84.303 0 0 1-1.507-3.851 30.17 30.17 0 0 1-.385-.327c-2.871-2.484-5.278-5.544-6.981-9.334-4.61-10.266-3.859-23.008-1.062-33.668 2.242-8.544 7.19-16.447 13.727-21.816 1.141-1.878 1.895-3.017 2.818-3.977 3.757-3.908 9-6.544 14.116-8.148 11.426-3.583 23.871-1.013 33.557 5.81 8.943 6.299 15.944 15.746 19.728 26.253 3.583 9.95 4.282 20.864.941 30.959ZM92.522 71.331c13.589-.116 27.415 3.896 38.442 11.925 10.55 7.683 18.832 19.026 18.822 32.537-.01 13.155-7.042 26.089-14.841 36.274-8.754 11.434-20.194 16.947-34.578 17.074-7.477.067-15.008-.595-22.432-1.505l-3.982-.502c-5.485-.707-11.026-1.544-16.224-3.429-24.744-8.975-25.51-41.363-16.346-62.066 7.076-15.984 24.985-31.572 42.843-29.7a63.758 63.758 0 0 1 8.296-.608Zm22.951 15.231c-17.017-7.638-37.693-5.35-54.2 2.8-6.54 7.134-11.318 16.125-13.252 24.379-2.065 8.811-1.763 18.302 1.342 26.842 3.79 10.425 13.126 13.007 23.196 14.609l3.91.614 1.64.249c9.894 1.475 20.712 2.623 30.221.776 10.597-2.061 17.327-10.622 22.625-19.399l.247-.412c5.501-9.197 10.106-20.382 5.492-30.92-3.923-8.957-12.492-15.62-21.221-19.538Zm100.44 2.662c-5.84-3.237-12.501-3.825-18.807-1.659-2.713.932-5.057 2.442-7.33 4.136l-.907.686c-2.795 2.145-5.406 3.232-7.503 6.13l-.271.389c-1.058 1.58-2.909 2.212-4.595 2.002-1.965 5.417-2.776 11.275-2.792 17.042l.002.764.01.779c.126 6.817 1.315 15.156 6.678 19.725 4.893 4.166 12.3 5.166 18.913 5.746l5.097.425 1.355.102c6.97.485 14.608.32 20.45-3.806 5.088-3.594 7.488-9.694 8.11-15.717 1.471-14.229-5.731-29.72-18.41-36.745ZM88.795 90.537c9.371-4.784 20.628-3.585 28.566 2.411-.705.138-1.399.314-2.091.661-1.801.903-2.919 2.711-3.345 4.635-.48 2.175.647 4.234 2.794 4.92 1.868.596 4.083.869 5.818-.266a5.115 5.115 0 0 0 1.961-2.363l.059-.145.073-.106.028-.05c.006-.019-.026.017-.078.098.053-.123.102-.246.151-.371.073-.149.143-.299.2-.454.101-.087.193-.184.286-.281a25.34 25.34 0 0 1 3.293 7.513c4.614 17.895-14.306 36.466-31.209 38.324-6.388.702-12.213-.819-17.047-3.817.044-.059.093-.112.133-.174 1.942.349 4.26-.52 4.965-2.686 1.799-5.525-.046-11.988-6.066-13.793-3.874-1.162-7.838.122-10.607 2.77-2.094-5.125-2.843-10.895-1.852-16.674 1.398-8.153 6.316-15.5 13.97-18.892 3.727-1.653 6.939-2 9.998-1.26Zm98.687 11.041.285-.45c2.896-4.456 8.431-9.922 14.168-8.42a8.514 8.514 0 0 1 2.308.993c3.152-.428 6.452.288 9.162 1.955l-.074.187a.775.775 0 0 0-.03.096c-.247 1.084-.103 2.086.403 3.082.549 1.079 1.332 2.102 2.392 2.721a4.67 4.67 0 0 0 2.42.63c1.229-.022 2.311-.563 3.199-1.389.483-.448.82-1.105 1.006-1.781.438.42.863.888 1.268 1.419 6.651 8.746 5.732 22.8-2.071 30.596-.315.314-.65.598-.981.888-3.168 4.361-8.051 7.321-13.916 7.92-5.43.555-10.86-1.051-15.024-4.343.335-.178.648-.409.918-.715.711-.805 1.296-1.599 1.728-2.582.108-.248.213-.497.312-.748l.145-.379c.025-.07.247-.709.188-.597l-.014.026.079-.184c.745-1.861.444-3.987-1.325-5.154l-.195-.121c-.578-.337-1.294-.496-2.019-.498-1.806-2.211-4.494-2.718-7.017-2.072l-.089-.714a8.654 8.654 0 0 1-.033-.358c-1.955-6.481-1.012-13.846 2.807-20.008Zm-86.797-65.25.649-.101c4.909-.71 8.246.107 11.437 4.302 1.521 1.999 1.052 5.018 0 7.06-3.398 6.602-12.746 5.237-19.042 6.548-6.147 1.279-12.279 3.02-18.03 5.554-5.87 2.586-11.379 5.645-16.75 9.138-4.86 3.16-9.267 7.912-14.818 9.75-.25.084-.55-.14-.535-.405.395-6.313 5.668-12.108 9.752-16.604 4.724-5.2 10.47-9.815 16.452-13.485 6.174-3.786 12.848-6.903 19.758-9.077a81.71 81.71 0 0 1 11.127-2.68Zm74.776 8.572c6.18-9.037 21.543-7.304 30.608-4.89 11.366 3.027 23.682 9.148 31.652 18.008 7.139 7.937-3.542 18.249-11.57 11.57l-2.142-1.777-1.371-1.126c-6.163-5.034-12.266-9.59-19.777-12.945-8.806-3.933-17.729-5.85-27.036-7.945-.366-.082-.581-.578-.364-.895Z"/></g></svg>