<svg xmlns="http://www.w3.org/2000/svg" width="289" height="293" fill="none" viewBox="0 0 289 293"><g id="face/Blank"><path id="🖍 Ink" fill="#000" fill-rule="evenodd" d="M181.735 212.81c.694-.188 1.305.744.73 1.254-2.354 2.089-3.849 5.981-5.567 8.634-1.634 2.524-3.209 5.022-4.646 7.664-1.611 2.961-3.167 5.911-4.421 9.044l-.248.632c.376.894.669 1.776.886 2.354l.062.164c2.142 5.47-2.354 11.549-7.425 13.078-8.674 2.615-16.116-4.508-16.323-12.979-.163-6.664 4.354-12.602 8.944-17.007 4.015-3.853 8.511-7.133 13.54-9.536 2.219-1.059 4.524-1.945 6.933-2.459 2.464-.525 5.122-.191 7.535-.843Zm-16.348 24.15c.636.3 1.179 1.033 1.636 1.889-.228-.726-.699-1.448-1.636-1.889Zm5.427-92.593c7.552 4.59 19.058 15.293 10.934 26.673-9.562 10.033-23.33-1.471-30.114-6.674-6.291-4.032-13.359 6.339-7.522 11.047 49.024 36.295 68.919-29.846 30.522-36.443-4.228-.727-5.798 3.977-3.82 5.397Zm-62.073-44.075 1.334-.112c5.787-.51 11.647-1.287 17.354.022 7.667 1.76 7.105 12.914 0 14.965-6.262 1.807-13.201 1.025-19.665 1.087-1.017.01-2.032.036-3.048.053-.2 2.417-.993 4.501-2.207 6.583-.87 1.494-1.98 2.913-3.072 4.24-2.596 3.154-8.719 3.083-11.339 0-1.938-2.282-3.48-4.907-3.506-7.996a10.77 10.77 0 0 1 .28-2.457l-3.529.062c-8.635.132-17.336.073-25.815-1.299-3.016.624-5.484-4.818-1.32-6.447 11.316-4.426 23.96-5.729 35.968-7.058 6.171-.684 12.376-1.155 18.565-1.643Zm96.412-4.573.307-.031c7.489-.767 15.744-2.095 23.248-1.331 11.204 1.139 11.185 16.285 0 17.418-4.106.416-8.432.214-12.746-.184 2.205 4.678-.411 10.265-5.724 10.979-4.937.663-10.054-4.135-8.434-9.281l.075-.227c.316-.893.6-1.891.937-2.876l-1.786-.151c-5.341-.472-12.754-1.436-14.72-5.653-.593-1.271-.456-2.451.457-3.537 3.744-4.456 12.973-4.603 18.386-5.126ZM125.517 61.04c5.42-1.97 11.053 2.639 11.756 7.832.809 5.984-3.507 9.924-8.978 10.638l-.274.034c-12.076 1.33-24.061 3.761-36.153 5.136a192.392 192.392 0 0 1-16.554 1.182l-3.95.089c-4.842.122-10.035.233-14.505-1.434l.017-.03a1.664 1.664 0 0 1-.412-2.992c4.759-3.365 11.174-4.637 16.714-6.236a452.07 452.07 0 0 1 16.807-4.486c11.814-2.921 24.086-5.576 35.532-9.733Zm49.986 1.398c1.436-7.57 12.161-8.383 16.1-2.874 2.546.874 6.279 1.786 8.592 2.472 4.03 1.195 8.063 2.383 12.105 3.534 8.37 2.384 16.538 5.406 24.767 8.223.848.291.615 1.367-.2 1.474-11.485 1.495-22.778 2.19-34.333 1.712l-2.369-.107c-10.182-.397-27.467.36-24.662-14.434Z" clip-rule="evenodd"/></g></svg>