<svg xmlns="http://www.w3.org/2000/svg" width="289" height="293" fill="none" viewBox="0 0 289 293"><g id="face/Calm"><path id="🖍 Ink" fill="#000" fill-rule="evenodd" d="M171.042 240.159c-7.367 2.133-15.274 2.324-22.783.121-6.811-1.999-13.804-6.398-18.817-12.218-4.453-5.171-7.337-11.454-7.223-18.161a2.966 2.966 0 0 1 .708-1.902 3.312 3.312 0 0 1 1.766-1.06 3.234 3.234 0 0 1 2.064.18 2.733 2.733 0 0 1 1.361 1.338 174.4 174.4 0 0 0 2.308 2.978c6.194 7.649 12.192 13.364 21.506 15.414 5.053 1.113 10.1.62 14.731-1.078 4.957-1.817 9.439-5.011 12.95-9.1 1.587-1.847 3.46-2.601 5.292-2.614 2.077-.014 4.129.95 5.674 2.492 1.52 1.516 2.537 3.575 2.63 5.73.081 1.891-.536 3.866-2.177 5.628-5.406 5.804-12.411 10.057-19.99 12.252Zm-.228-95.792c7.552 4.59 19.058 15.293 10.934 26.673-9.562 10.033-23.33-1.471-30.114-6.674-6.291-4.032-13.359 6.338-7.522 11.047 49.024 36.295 68.919-29.846 30.522-36.443-4.228-.727-5.798 3.977-3.82 5.397Zm-70.639-20.197c-2.427-1.552-5.282-2.085-8.446-.645-2.473 1.124-6.81 4.873-9.828 9.8-2.065 3.372-3.529 7.326-3.224 11.446.07.957-.283 1.662-.84 2.184-.44.412-1.077.714-1.824.809a4.748 4.748 0 0 1-1.922-.172c-1.098-.343-1.68-1.056-1.898-1.637-2.113-5.612-1.203-11.875 1.166-17.525 3.196-7.625 9-14.012 12.803-16.072 6.508-3.525 14.185-3.687 20.702-.096 5.547 3.057 9.016 7.991 12.466 13.021.733 1.07 1.461 2.131 2.214 3.174 1.507 2.089 1.657 4.162 1.073 5.939-.646 1.968-2.296 3.629-4.358 4.499-1.906.804-4.118.917-6.076.091-1.654-.698-3.171-2.057-4.132-4.364-1.617-3.886-4.312-8.172-7.876-10.452Zm123.266 8.644c-1.662.866-2.963 1.128-4.807.575a6.833 6.833 0 0 1-2.816-1.682c-.782-.782-1.346-1.754-1.566-2.833-.539-2.663-1.996-5.155-4.071-6.779-1.775-1.389-4.014-2.125-6.498-1.71-2.681.448-5.234 2.167-6.993 4.194-.588.678-1.049 1.448-1.512 2.213-.867 1.431-1.709 2.761-2.904 3.811-.453.4-1.136.677-1.797.677a2.7 2.7 0 0 1-.801-.125c-2.668-2.677-3.181-4.709-3.095-6.724.09-2.112.923-4.252 2.269-6.247 3.157-4.682 9.153-8.521 13.198-9.391 5.541-1.19 11.043.239 15.455 3.333 4.539 3.184 7.902 8.128 8.951 13.699.252 1.342.145 2.79-.366 4.046-.499 1.227-1.369 2.278-2.647 2.943ZM112.394 74.253c-3.325 3.24-7.26 3.74-11.241 4.187-2.213.25-3.978.452-5.716.844-4.776 1.079-9.498 2.702-13.805 5.041-4.503 2.445-9.41 5.393-12.94 9.17-.84.9-1.63 1.842-2.423 2.787a74.07 74.07 0 0 1-2.152 2.492c-.843.92-1.643 1.882-2.438 2.843-.492.81-.59 1.01-.689 1.217-.149.312-.322.661-.52 1.035a20.29 20.29 0 0 1-.922 1.583c-.554.931-.851 1.187-1.108 1.301-.426.19-.83.284-1.222.233-.367-.047-.714-.224-1.056-.513-1.707-1.442-2.21-3.809-2.158-6.322.078-3.813 1.484-8.034 2.78-10.629 3.015-6.03 7.195-12.298 12.222-16.798 5.736-5.137 12.012-9.026 19.22-11.706 4.479-1.666 9.665-3.195 14.545-3.002 3.513.14 6.866 1.184 9.636 3.791 1.7 1.6 2.516 3.878 2.516 6.153 0 2.32-.847 4.655-2.529 6.293Zm117.809 29.665a1.825 1.825 0 0 1-.83.728 1.936 1.936 0 0 1-2.073-.346 1.846 1.846 0 0 1-.553-.955c-2.207-9.696-6.494-16.91-15.643-21.561-4.5-2.289-9.675-3.743-14.574-4.902-1.424-.337-2.928-.555-4.443-.776-4.748-.694-9.53-1.487-12.625-5.325-1.865-2.312-2.648-5.268-2.206-7.972.417-2.546 1.905-4.88 4.609-6.28 6.732-3.48 15.099-.064 21.898 2.845.504.216.999.428 1.483.633 6.649 2.806 12.713 6.51 17.698 11.808 3.955 4.203 7.619 10.416 9.095 16.808 1.228 5.317.939 10.746-1.836 15.295Z" clip-rule="evenodd"/></g></svg>