<svg xmlns="http://www.w3.org/2000/svg" width="289" height="293" fill="none" viewBox="0 0 289 293"><g id="face/Cheeky"><path id="🖍 Ink" fill="#000" fill-rule="evenodd" d="M166.943 221.352c1.534-2.667 5.066-5.138 8.298-4.759 14.479 1.698 14.454 19.252 8.863 29.5-4.957 9.087-15.216 14.421-25.484 13.642-10.787-.819-19.978-7.161-24.023-17.252-2.675-6.675-3.911-18.998 3.205-23.483.132-.084.35-.063.455.058 3.412 3.969 3.546 9.928 6.533 14.347 2.778 4.11 7.094 7.504 12.15 8.028 3.776.392 7.596-.97 9.073-4.36.799-1.834.708-2.829.408-4.091l-.273-1.097c-.946-3.841-1.37-6.766.795-10.533Zm3.871-76.985c7.551 4.59 19.057 15.293 10.934 26.673-9.563 10.033-23.33-1.471-30.114-6.674-6.291-4.032-13.359 6.338-7.522 11.047 49.023 36.295 68.918-29.846 30.521-36.443-4.227-.727-5.798 3.977-3.819 5.397Zm-79.743-31.474c4.635-6.954 15.215-5.93 17.768 2.322 1.383 4.47-.527 8.488-.428 12.952.083 3.771-.164 7.973-1.32 11.625-2.636 8.328-10.126 14.21-18.987 13.966-8.832-.243-16.611-5.833-20.31-13.706-3.712-7.903-2.926-16.082-.216-24.118.13-.386.636-.573.941-.248 3.203 3.404 5.548 6.998 7.975 10.81l2.487 3.907c1.9 2.942 4.662 6.7 8.21 6.464l.532-.052c.987-.085.835.111 1.596-1.233.352-.622.288-1.778.458-2.512l.059-.248-.032-.134c-.075-.356-.15-1.025-.21-2.188l-.013-.256c-.257-5.437-1.794-12.424 1.49-17.351Zm117.492 4.629c-.831-8.894 11.673-10.869 15.83-4.288 2.168 3.432 2.799 7.743 3.279 11.827l.224 1.939c.492 4.195.687 8.559-1.134 12.472-2.868 6.163-9.105 9.421-15.833 8.905-6.425-.494-12.287-4.219-15.377-9.874-2.755-5.046-5.494-14.898-2.148-20.161.202-.319.606-.36.883-.114 3.162 2.807 3.677 7.927 5.557 11.584 1.939 3.772 4.88 7.448 9.337 8.021 4.264.548 5.893-1.781 4.805-5.846-1.403-5.248-4.895-8.818-5.423-14.465ZM94.448 60.016l2.045-.783c7.006-2.647 16.625-5.706 22.321-.01 3.514 3.514 4.183 8.689 1.675 12.976-3.039 5.193-8.49 5.32-13.754 6.086-5.987.87-12.076 2.524-17.65 4.882-6.279 2.657-12.106 5.969-17.815 9.668-5.426 3.515-10.833 9.26-17.328 10.343-.265.044-.566-.07-.635-.361-1.475-6.35 2.624-12.6 6.282-17.553 4.426-5.998 9.79-10.921 15.783-15.335 5.785-4.261 12.395-7.34 19.076-9.913Zm127.268 22.577.624-.11c4.249-.707 8.099-.544 11.301 2.82 2.444 2.568 3.386 5.895 2.221 9.288-1.075 3.132-3.479 6.312-6.968 6.968-11.779 2.216-24.826 1.85-36.664.172-5.416-.768-10.881-1.707-16.157-3.19l-2.427-.703c-4.404-1.258-9.446-2.572-12.645-5.811-1.15-1.165-.487-2.83.889-3.37 5.582-2.185 13.233-1.022 19.185-1.194 6.924-.197 13.859-.716 20.75-1.431 6.734-.7 13.25-2.221 19.891-3.44Z" clip-rule="evenodd"/></g></svg>