<svg xmlns="http://www.w3.org/2000/svg" width="289" height="293" fill="none" viewBox="0 0 289 293"><g id="face/Concerned" fill-rule="evenodd" clip-rule="evenodd"><path id="teeth" fill="#fff" d="M105.816 231.147c4.574-14.1 54.187-34.851 62.551-28.817 8.365 6.034-2.424 49.141-2.424 49.141s-46.269 4.798-49.579 2.399c-3.31-2.399-15.121-8.623-10.548-22.723Z"/><path id="🖍 Ink" fill="#000" d="M190.321 203.417c.299.327-.36.767-.689.529-3.809-2.761-9.809-1.194-13.486.056 0 0-1.344 43.315.143 44.341 1.487 1.026 22.444.417 22.444 2.987 0 8.401-12.603 11.555-19.444 11.055-10.771-.785-21.872-2.321-32.628-1.077-10.756 1.244-33.606 8.108-45.302-1.378-13.95-11.314-12.064-29.908-.457-42.047 7.317-7.651 18.083-12.242 28.699-15.643 15.535-4.977 52.147-8.19 60.72 1.177Zm-28.653 31.8c-5.633 2.193-33.637 11.441-40.291 13.126 7.777-.558 34.33-1.175 40.291-4.06.669-2.7 1.096-9.493 0-9.066Zm4.276-30.026c-15.243 2.475-48.16 13.639-52.889 19.582 7.186-1.13 47.277-5.943 51.8-5.943.657-3.498.222-9.63 1.089-13.639Zm4.87-67.824c7.552 4.59 19.058 15.293 10.934 26.673-9.562 10.033-23.329-1.471-30.114-6.674-6.29-4.032-13.358 6.339-7.522 11.047 49.024 36.295 68.919-29.846 30.522-36.443-4.228-.727-5.798 3.977-3.82 5.397Zm16.743-66.977c4.433-.036 7.022 2.84 10.346 5.403 3.423 2.639 7.55 4.744 11.551 6.356 4.172 1.679 8.632 3.012 13.024 3.963 4.553.984 8.742.523 13.262 1.356 11.982 2.209 9.146 22.188-2.869 21.2-10.814-.889-22.423-7.533-30.624-14.422-3.919-3.292-7.227-7.064-10.446-11.006l-.603-.741c-2.858-3.526-5.527-7.135-4.093-11.764a.48.48 0 0 1 .452-.345ZM87.617 128.7c.013-6.377 3.727-20.937 12.907-20.937 5.735 0 9.217 9.909 9.82 20.124l.021.416c.266 6.351-1.477 20.232-9.841 20.232-8.452 0-12.82-13.147-12.906-19.61l-.002-.225Zm135.157 0c-.014-6.377-3.728-20.937-12.908-20.937-5.592 0-9.041 9.42-9.769 19.358l-.051.766c-.362 6.136 1.268 20.648 9.82 20.648 8.452 0 12.82-13.147 12.907-19.61l.001-.225ZM117.658 71.342c5.725-2.471 12.286-1.77 15.733 4.125 3.263 5.578 1.042 12.3-4.126 15.733-5.075 3.37-11.888 5.204-17.724 7.132l-.644.215a148.185 148.185 0 0 1-17.158 4.675c-5.459 1.136-10.96 1.977-16.491 2.648l-1.66.197c-4.316.498-10.335 2.175-14.219-.281a.764.764 0 0 1-.27-1.026c2.261-3.915 8.263-5.475 12.114-7.458 4.945-2.548 9.82-5.261 14.65-8.02a913.236 913.236 0 0 0 14.583-8.506c5.018-2.991 9.876-7.132 15.212-9.434Z"/></g></svg>