<svg xmlns="http://www.w3.org/2000/svg" width="289" height="293" fill="none" viewBox="0 0 289 293"><g id="face/Concerned Fear" fill-rule="evenodd" clip-rule="evenodd"><path id="🖍 Ink" fill="#000" d="M166.69 207.933c11.871 0 16.898 1.93 24.621 6.468 7.723 4.538 15.979 10.387 17.932 19.149 1.822 8.164-1.763 16.119-9.698 19.233-4.438 1.743-55.577 5.823-63.6 6.356-8.022.533-15.678-.125-20.83-5.468-13.311-13.805 5.174-31.703 16.986-38.312 10.547-5.904 22.718-7.426 34.589-7.426Zm-2.745 9.31c-8.929 0-23.558 6.531-23.558 9.711 0 3.18 42.635.023 43.549-2.697.914-2.72-11.062-7.014-19.991-7.014Zm6.869-72.876c7.551 4.59 19.057 15.293 10.934 26.673-9.562 10.033-23.33-1.471-30.114-6.674-6.291-4.032-13.359 6.338-7.522 11.047 49.024 36.295 68.918-29.846 30.521-36.443-4.227-.727-5.797 3.977-3.819 5.397Zm-85.273-41.601c12.862-9.496 32.102-2.187 35.272 12.67 2.203 1.159 3.402 3.002 3.663 5.7l.065.675c.311 3.205-2.541 6.239-5.392 7.084-3.209.95-5.749.459-8.728-.904-2.855-1.307-3.849-5.015-3.33-7.836l.046-.233c.763-3.501-2.239-6.893-5.26-8.28-3.409-1.565-7.234-.585-10.198 1.489-3.29 2.301-6.028 6.237-6.954 10.159l-.092.408c-.73 3.385-1.279 9.738 2.006 11.682.582.343.167 1.131-.434 1.027-7.138-1.221-11.389-5.515-11.432-13.196-.046-8.134 4.323-15.687 10.768-20.445Zm118.439-2.702c12.845-4.556 28.909 7.683 23.961 21.819-3.249 9.281-15.815 5.561-14.645-3.742l.04-.284c.745-4.84-2.921-7.123-7.415-5.535-6.661 2.355-10.253 12.821-7.132 18.927.383.75-.688 1.385-1.134.662l-.428-.687c-3.485-5.55-6.664-9.647-5.519-16.737 1.054-6.535 6.055-12.219 12.272-14.423Zm-26.052-33.646c-.033-.625.625-1.046 1.187-.905 4.566 1.149 8.699 4.469 12.857 6.623 4.538 2.35 9.186 4.249 14.114 5.64 4.802 1.357 9.654 2.033 14.646 1.99 5.401-.044 10.687-2.071 15.984-1.904 7.964.25 12.125 11.83 4.282 15.81-11.42 5.794-28.357 1.585-39.465-3.231-8.941-3.877-23.023-13.038-23.605-24.023Zm-58.007 2.647c4.166-5.364 12.595-5.686 16.294.634 3.821 6.53-.771 13.077-7.264 14.428-11.849 5.297-23.985 9.351-36.927 11.032l-1.753.221c-11.264 1.37-25.48 2.118-35.657-3.078-.997-.51-.695-2.029.303-2.314 5.738-1.64 12.164-1.637 18.065-2.714 5.613-1.023 11.18-2.155 16.646-3.814 10.799-3.279 21.031-7.965 30.293-14.395Z"/><path id="Path 4" stroke="#22252B" stroke-width="1.5" d="M133.238 229.722s10.156-16.505 26.862-16.505c16.707 0 36.052 8.69 34.7 12.822-.723 2.208-16.259 8.445-42.174 8.691-6.427.061-19.388-5.008-19.388-5.008Z"/></g></svg>