<svg xmlns="http://www.w3.org/2000/svg" width="289" height="293" fill="none" viewBox="0 0 289 293"><g id="face/Contempt"><path id="🖍 Ink" fill="#000" fill-rule="evenodd" d="M190.581 219.823c-3.3 4.314-9.275 7.619-15.967 9.199-6.376 1.506-13.423 1.444-19.505-.873l-.522-.208c-4.547-1.888-8.912-5.702-10.57-9.681-.659-1.582-.882-3.19-.431-4.691.406-1.35 1.357-2.592 2.941-3.66.498-.335 1.165-.359 1.8-.247.789.139 1.566.508 2.035 1.006 2.602 2.767 6.377 5.464 10.845 5.418 3.448-.035 6.263-1.396 8.993-2.935l1.919-1.098c1.851-1.056 3.728-2.049 5.852-2.502 3.802-.812 8.413.671 11.223 3.119 1.225 1.067 2.115 2.322 2.357 3.673.204 1.134-.082 2.318-.97 3.48Zm-19.767-75.456c7.552 4.59 19.058 15.293 10.934 26.673-9.562 10.033-23.329-1.471-30.114-6.674-6.29-4.032-13.358 6.339-7.522 11.047 49.024 36.295 68.919-29.846 30.522-36.443-4.228-.727-5.798 3.977-3.82 5.397Zm-85.19-70.546 2.169-.595 2.212-.597 1.496-.395c10.274-2.69 21.607-5.056 31.796-3.9 3.716.421 6.732 2.512 7.258 6.405.443 3.285-1.68 7.523-5.293 8.107-11.967 1.936-24.218 1.308-36.24 3.304-5.987.993-11.928 2.226-17.892 3.337-4.535.846-9.22 1.143-13.795 1.827l1.051.146c.368.05.276.67-.087.644a26.747 26.747 0 0 0-4.53-.068l-.648.053c-.987.14-1.569-1.039-.689-1.637 5.573-3.78 10.302-7.879 16.542-10.666a116.806 116.806 0 0 1 16.65-5.965Zm93.538-5.799c7.9-7.986 24.7-4.917 34.098-1.264 5.364 2.086 10.464 4.723 14.712 8.668l.414.388.638.614c2.868 2.807 6.065 6.67 5.61 10.717-.069.617-.405 1.322-1.102 1.446-3.764.667-7.461-1.319-10.937-2.514l-2.302-.79c-3.457-1.177-6.936-2.302-10.5-3.115-4.432-1.008-8.953-1.59-13.503-1.533-4.599.06-9.539 1.358-13.92-.468-4.886-2.035-7.419-7.89-3.208-12.149Zm-78.046 64.408c-2.016 2.058-4.677 3.22-8.084 2.529-2.663-.54-7.731-3.216-11.78-7.339-2.771-2.82-5.087-6.344-5.717-10.427-.146-.948-.65-1.556-1.31-1.939-.522-.302-1.21-.454-1.959-.378a4.756 4.756 0 0 0-1.834.6c-.993.581-1.399 1.406-1.481 2.022-.797 5.944 1.5 11.841 5.078 16.814 4.83 6.71 11.922 11.628 16.09 12.779 7.134 1.971 14.651.402 20.193-4.563 4.432-3.97 6.704-9.142 8.812-14.461l.406-1.031c.474-1.207.945-2.405 1.443-3.59.999-2.375.679-4.428-.29-6.028-1.073-1.773-3.053-3.02-5.258-3.404-2.038-.354-4.22.034-5.941 1.279-1.455 1.051-2.628 2.717-3.044 5.181-.678 4.007-2.25 8.604-5.022 11.637l-.302.319Zm122.325-23.19c-1.662-.866-2.963-1.127-4.807-.574a6.833 6.833 0 0 0-2.816 1.682c-.782.782-1.346 1.754-1.565 2.833-.54 2.662-1.996 5.154-4.072 6.779-1.774 1.389-4.014 2.125-6.498 1.709-2.68-.447-5.234-2.166-6.993-4.193-.49-.565-.891-1.194-1.28-1.831l-.232-.382c-.866-1.431-1.709-2.761-2.904-3.812a2.833 2.833 0 0 0-1.797-.676c-.269 0-.541.044-.801.125-2.668 2.677-3.181 4.709-3.095 6.723.09 2.113.923 4.252 2.269 6.248 3.158 4.682 9.153 8.521 13.199 9.39 5.54 1.191 11.042-.238 15.454-3.333 4.539-3.184 7.903-8.127 8.951-13.698.253-1.342.145-2.79-.366-4.046-.499-1.227-1.369-2.278-2.647-2.944Z" clip-rule="evenodd"/></g></svg>