<svg xmlns="http://www.w3.org/2000/svg" width="289" height="293" fill="none" viewBox="0 0 289 293"><g id="face/Cute"><path id="🖍 Ink" fill="#000" fill-rule="evenodd" d="M177.534 205.337c3.431-6.054 13.669-5.07 15.234 1.991 3.175 14.314-13.894 27.532-26.858 27.862-12.883.327-27.338-10.638-25.473-24.488.461-3.426 5.037-3.01 6.597-.862l.605.824c4.237 5.692 9.828 11.584 17.692 10.196 3.259-.574 6.219-2.61 8.189-5.231 2.376-3.163 2.115-6.94 4.014-10.292Zm-81.92-104.72c1.747-.481 3.509-.295 5.056.363 3.454.633 6.339 3.513 7.353 6.801.08.284.169.565.268.843l.154.416-.414-1.054c.191 1.038 1.036 2.129 1.34 3.171.374 1.281.465 2.736.339 4.146 1.098.011 2.196.048 3.292.143l1.059.094c5.923.551 12.425 1.561 15.937 6.679 1.972 2.876.121 8.054-3.502 8.608-5.577.853-10.381-2.233-15.939-2.851-5.254-.585-10.752-.25-15.938.699-10.707 1.957-20.546 6.297-30.98 9.02l-1.42.361.002-.007c-1.788.432-3.818-2.054-2.05-3.508 8.36-6.867 19.062-12.432 29.605-15.821-1.536-2.443-2.011-5.661-.961-8.284.162-.544.364-1.073.577-1.599l.444-1.084a7.876 7.876 0 0 1 .283-1.511l.023-.151.013.009c.785-2.551 2.835-4.759 5.46-5.483Zm106.646.394c2.286-2.287 5.498-1.949 7.884-.149l.317.248c2.249.999 4.11 3.182 5.332 5.205 1.269 2.101 2.112 4.241 2.145 6.554 5.534.018 10.835 1.678 14.898 6.146 1.312 1.442 2.208 3.666 1.486 5.621l-.43 1.163c-1.365 3.693-7.498 5.818-9.583 1.476l-.096-.212c-2.215-5.156-10.718-4.615-15.237-4.088-3.15.369-6.261 1.152-9.303 2.029-1.072.309-2.134.645-3.195.987l-1.061.344c-.566.183-3.514 1.784-1.68 1.405.493-.102.864.616.361.857-2.186 1.045-4.518-1.036-4.372-3.384.253-4.075 6.725-6.31 9.839-7.716l.187-.085a58.363 58.363 0 0 1 3.736-1.572c-.726-1.08-1.326-2.28-1.825-3.568a15.76 15.76 0 0 1-.96-3.691 3.592 3.592 0 0 1 0-1.897l.026-.181a5.853 5.853 0 0 1-.124-1.285l-.018-.169h.018c.061-1.523.666-3.049 1.655-4.038Zm-36.528 43.405c8.783 2.714 23.273 10.107 18.696 21.518-6.391 10.48-23.34 2.778-31.553-.608-7.379-2.444-11.221 7.897-4.086 11.014 58.959 23.325 58.742-38.234 19.081-37.33-4.367.099-4.504 4.504-2.138 5.406ZM87.727 64.149l1.498-.437c7.785-2.255 15.732-6.15 22.644-.073 2.714 2.386 3.273 7.344 1.331 10.32-4.424 6.78-10.985 5.745-18.13 6.323-5.44.44-10.8 2.038-15.877 4.035-4.15 1.633-8 3.932-11.633 6.496-3.57 2.52-6.01 6.462-9.671 8.73-1.342.833-2.892-.023-3.374-1.372-1.708-4.785 1.178-10.746 3.62-14.823 2.98-4.974 7.509-9.042 12.378-12.12 5.332-3.371 11.227-5.318 17.214-7.08ZM201.164 59c13.159-.004 25.821 7.315 33.181 18.044 2.501 3.645.668 9.045-2.922 11.144-4.027 2.356-8.333.66-10.987-2.716l-.158-.205c-4.221-5.62-9.662-10.048-16.112-12.93-3.147-1.407-6.627-2.548-10.031-3.127l-1.1-.188c-1.542-.259-3.33-.505-4.725-.264a5.365 5.365 0 0 0-2.065.721c.304.664-.481 1.464-1.206 1.066-3.27-1.796-2.869-5-.168-7.49 3.821-3.523 11.358-4.054 16.293-4.055Z" clip-rule="evenodd"/></g></svg>