<svg xmlns="http://www.w3.org/2000/svg" width="289" height="293" fill="none" viewBox="0 0 289 293"><g id="face/Cyclops" fill-rule="evenodd" clip-rule="evenodd"><path id="eye" fill="#fff" d="M171 171c28.167 0 51-23.281 51-52s-22.833-52-51-52-51 23.281-51 52 22.833 52 51 52Z"/><path id="🖍 Ink" fill="#000" d="M203.138 187.83c.242-.758 1.295-.756 1.537 0 2.198 6.851 3.489 13.56 6.771 20.002a6.987 6.987 0 0 1 1.703 3.021 57.755 57.755 0 0 0 5.152 7.254c2.404 2.88 4.153 5.585 2.879 9.516-.628 1.937-2.25 3.176-4.294 3.269-5.612.254-8.809-5.098-10.794-10.678-13.888 4.612-29.18 7.223-43.736 6.076-11.832-.934-24.721-3.898-35.315-9.94.063 2.282.15 4.566.23 6.851.148 4.226 1.285 8.851.845 13.001-.436 4.118-2.774 7.304-7.011 7.942-3.647.548-8.161-1.887-8.872-5.793-.824-4.534.702-7.701 1.957-11.981 1.109-3.782 1.979-7.646 2.935-11.469.964-3.86 1.753-7.753 2.468-11.664.524-2.863.146-6.089 1.16-8.786.08-.211.286-.362.519-.295 5.396 1.55 5.702 10.236 5.68 14.897l-.002.23c-.008.95.001 1.9.011 2.849l2.062.451c11.316 2.448 22.309 4.309 34.207 3.634 13.958-.791 26.232-5.894 39.478-9.391-1.1-6.291-1.438-13.154.43-18.996ZM156.461 63.86c6.194-2.12 12.89-3.122 19.404-2.801 13.962.69 27.263 7.058 36.417 17.669 8.643 10.017 13.34 22.58 13.279 35.834-.066 13.615-3.642 28.947-10.376 40.865-14.149 25.041-47.197 25.215-70.947 15.231-25.345-10.654-35.657-37.523-29.552-63.5 4.59-19.536 20.247-42.977 41.775-43.297Zm41.292 19.34c-7.478-6.002-16.895-8.7-26.41-8.017-4.727.339-9.53 1.58-13.821 3.597-2.281 1.072-4.32 2.569-6.566 3.685-2.003.993-4.17 1.573-6.237 2.41l-.769.327c-3.393 1.516-6.81-.653-6.98-3.814-7.381 10.356-10.882 24.399-10.826 36.857.043 9.174 2.228 18.704 7.494 26.342 5.853 8.489 15.564 12.967 25.304 15.345 9.328 2.277 19.499 3.067 28.849.48 9.705-2.684 15.974-10.049 19.542-19.23 7.74-19.915 8.379-43.564-9.58-57.981Zm-33.326 24.696c4.235-5.781 11.832-6.088 16.014 0 2.632 3.832 2.245 7.524 2.036 11.934l-.041.991c-.123 3.49-.107 7.165-1.414 10.391-1.679 4.141-4.942 6.794-9.564 6.245-2.721-.325-5-1.949-6.322-4.189l-.046.026c-1.854-3.702-2.332-7.457-2.646-11.497l-.215-2.963c-.262-3.895-.276-7.561 2.198-10.938Z"/></g></svg>