<svg xmlns="http://www.w3.org/2000/svg" width="289" height="293" fill="none" viewBox="0 0 289 293"><g id="face/Driven"><path id="🖍 Ink" fill="#000" fill-rule="evenodd" d="M178.872 230.917c-6.787 2.668-14.806 3.299-21.811 1.025-6.699-2.174-12.781-7.013-16.461-13.098-3.278-5.42-4.647-11.852-2.71-18.264.093-.307.393-.503.683-.58 1.585 1.443 2.565 2.876 3.543 4.302 1.649 2.405 3.303 4.784 5.572 6.84 3.301 2.99 7.75 5.419 12.165 6.22 4.322.786 8.746.092 12.617-1.977 2.354-1.258 4.257-2.939 6.141-4.628 2.052-1.839 4.072-3.706 6.898-4.744 2.265-.832 4.644-.13 6.472 1.262 1.964 1.497 3.377 3.839 3.298 6.288-.121 3.794-1.782 6.959-4.191 9.57-3.258 3.53-7.865 6.073-12.216 7.784Zm-8.058-94.55c7.551 4.59 19.057 15.293 10.934 26.673-9.562 10.033-23.33-1.471-30.114-6.674-6.291-4.032-13.359 6.339-7.522 11.047 49.024 36.295 68.918-29.846 30.521-36.443-4.227-.727-5.797 3.977-3.819 5.397ZM91.388 72.768c10.292-.492 19.362 4.13 29.17 6.23 9.064 1.942 17.994.776 26.809-1.694 14.306-4.009 20.22 17.891 6.109 22.16-10.276 3.107-21.096 3.323-31.641 1.721-9.367-1.424-17.219-5.984-26.15-8.639-7.665-2.277-16.681-1.33-24.775-.258l-3.142.422c-4.67.63-9.365 1.26-13.99 2.173-4.011.793-8.016 2.244-12.111 2.412-.465.02-.86-.584-.566-.987 4.757-6.53 13.925-11.683 21.218-15.12l.494-.232c9.002-4.197 18.552-7.71 28.575-8.188Zm-3.77 48.156-.002-.225c.014-6.377 3.728-20.937 12.908-20.937 5.735 0 9.217 9.909 9.82 20.124l.02.416c.267 6.351-1.476 20.232-9.84 20.232-8.453 0-12.82-13.147-12.907-19.61Zm135.154 0 .002-.225c-.014-6.377-3.728-20.937-12.908-20.937-5.592 0-9.042 9.42-9.769 19.358l-.051.766c-.362 6.136 1.268 20.648 9.82 20.648 8.452 0 12.819-13.147 12.906-19.61Zm-.14-55.922.656.014c10.728.372 21.763 6.727 24.627 17.402.148.554-.535.927-.94.547-8.821-8.259-20.684-.367-29.517 3.77l-3.245 1.498c-11.387 5.298-24.338 11.526-36.982 7.578-6.005-1.875-9.819-8.045-8.106-14.277 1.524-5.545 8.217-10.205 14.014-8.204l.263.096c4.71 1.802 10.502-.024 15.366-1.823l3.996-1.501c6.425-2.438 12.881-5.166 19.868-5.1Z" clip-rule="evenodd"/></g></svg>