<svg xmlns="http://www.w3.org/2000/svg" width="289" height="293" fill="none" viewBox="0 0 289 293"><g id="face/Eating Happy"><path id="🖍 Ink" fill="#000" fill-rule="evenodd" d="M126.15 196.292c5.594-9.202 17.518 13.34 18.784 17.216a51.15 51.15 0 0 1 2.24 10.509c4.337.972 8.84.974 13.284.122 6.605-1.267 10.642-4.818 16.382-7.867 3.965-2.106 8.962.364 11.024 3.858 2.425 4.113.88 8.381-2.31 11.447-6.049 5.814-17.951 7.149-25.847 5.605-4.524-.884-8.67-2.58-12.331-5.046-.025.46-.041.92-.077 1.38l-.07.797c-.607 6.448-2.379 14.556-7.387 18.751-8.215 6.883-18.352-6.353-10.371-13.228l.248-.206c4.961-4.009 6.043-14.764 5.776-20.688a42.832 42.832 0 0 0-2.1-11.464l-.251-.734c-.367-1.04-4.374-10.907-5.822-9.651l-.069.071c-.597.713-1.562-.117-1.103-.872Zm44.664-51.925c7.551 4.59 19.057 15.293 10.934 26.673-9.562 10.033-23.33-1.471-30.114-6.674-6.291-4.032-13.359 6.338-7.522 11.047 49.023 36.295 68.918-29.846 30.521-36.443-4.227-.727-5.797 3.977-3.819 5.397ZM90.178 101.94c7.38-1.309 14.94.526 21.047 4.844l.463.333c5.884 4.303 12.467 11.858 9.09 19.275-1.355 2.978-5.413 3.445-7.988 2.095-4.287-2.248-5.064-7.779-8.889-10.84-3.137-2.509-7.36-4.031-11.4-3.664-9.492.862-15.33 10.223-18.278 18.29-.377 1.032-1.892 1.433-2.484.325-6.95-12.992 5.353-28.336 18.44-30.658Zm118.211-4.903c14.137-1.165 30.684 13.491 26.962 28.413-1.785 7.16-12.406 6.955-14.294 0-1.039-3.827-.935-7.213-3.69-10.391-2.274-2.624-5.505-4.148-8.978-3.914-3.828.258-7.359 2.171-10.042 4.86-2.423 2.428-3.872 5.981-6.382 8.13-.618.528-1.445.562-2.055 0-4.32-3.983-1.727-12.275 1.012-16.433 3.92-5.95 10.303-10.074 17.467-10.665ZM63.257 75.475c9.07-8.028 25.548-15.78 37.777-11.83 7.031 2.271 10.096 13.6 2.247 17.191-9.089 4.158-19.568 2.466-28.819 6.776-3.885 1.811-7.538 4.074-10.243 7.393-2.131 2.616-4.3 6.058-7.381 7.566-.81.397-1.907.407-2.556-.329-6.756-7.642 3.077-21.546 8.976-26.767Zm129.544-12.228c5.605-1.573 11.823-1.541 17.517-.553 5.692.988 11.471 3.347 16.118 6.788l.54.403c5.073 3.822 11.127 9.384 10.802 16.157-.271 5.655-6.22 9.48-11.356 6.516-4.187-2.417-6.157-7.26-9.702-10.483-2.925-2.661-6.361-4.76-10.027-6.23-4.072-1.632-8.151-2.397-12.521-2.47-3.365-.056-6.75 1.048-10.052 1.4.272.559-2.338.299-3.834-.196-1.108-.472-1.114-1.873-.73-2.782 1.905-4.503 8.836-7.314 13.245-8.55Z" clip-rule="evenodd"/></g></svg>