<svg xmlns="http://www.w3.org/2000/svg" width="289" height="293" fill="none" viewBox="0 0 289 293"><g id="face/Explaining" fill-rule="evenodd" clip-rule="evenodd"><path id="teeth" fill="#fff" d="M93.832 224.758c8.002-16 81.391-8.809 81.391-8.809l6.199 50.858s-35.41 11.383-56.489 8.998-39.103-35.047-31.101-51.047Z"/><path id="tongue" fill="#FF8181" d="M99.003 251.471c-2.535-5.424 49.931-20.215 66.175-10.107 16.244 10.107 11.165 23.892 11.165 23.892s-68.323 15.584-77.34-13.785Z"/><path id="🖍 Ink" fill="#000" d="M89.281 215.29c12.246-14.23 32.871-15.221 49.956-11.663 10.964 2.284 21.639 6.088 32.775 7.498 5.201.659 10.458.856 15.697.759 5.146-.095 10.3-1.132 15.428-.939.788.029 1.086 1.064.403 1.485-7.035 4.321-16.512 5.707-24.822 6.552.026.615.063 1.215.148 1.724a93.05 93.05 0 0 1 .601 4.071c.377 3.081.799 6.152 1.22 9.227.83 6.052 1.091 12.294 2.55 18.241l.255.989c.338 1.25.415 2.377.302 3.393l.338-.153 1.068-.517.7-.331c2.554-1.184 4.99-2.046 7.993-1.758 2.286.218 4.205 1.777 4.219 4.218.057 10.955-14.707 14.478-23.152 16.575l-2.477.61c-10.749 2.622-21.724 4.92-32.78 5.47-17.742.881-37.679-4.013-49.285-18.404-10.829-13.427-12.814-33.479-1.137-47.047Zm80.571 46.028c-1.862-16.494-22.13-17.401-27.961-6.941-2.587-14.579-40.863-1.26-37.87 1.638 11.344 10.986 28.559 11.975 43.358 9.943 7.537-1.035 15.08-2.72 22.473-4.64Zm-22.494-43.23-5.096-.733-2.007-.277c-12.632-1.691-26.839-2.565-37.225 5.534-3.792 2.956-5.926 6.812-6.723 10.954 9.828-1.457 19.691-2.568 29.584-3.493l2.699-.248c6.19-.558 12.377-1.146 18.561-1.763l4.395-.445 4.393-.456c1.546-.162 11.965-.695 13.924-.337.209-1.76.482-5.569.924-7.282-7.402.251-14.772-.299-22.131-1.277l-1.298-.177Zm23.456-73.721c7.552 4.59 19.058 15.293 10.934 26.673-9.562 10.033-23.329-1.471-30.114-6.674-6.29-4.032-13.358 6.339-7.522 11.047 49.024 36.295 68.919-29.846 30.522-36.443-4.228-.727-5.798 3.977-3.82 5.397Zm13.514 19.337.363-.197.123-.075c.212-.137.077-.122-.406.045l-.362.13v.256c.093-.057.192-.1.282-.159Zm-96.71-40.78-.002-.225c.014-6.377 3.728-20.937 12.908-20.937 5.735 0 9.217 9.909 9.82 20.124l.021.416c.266 6.351-1.477 20.232-9.841 20.232-8.452 0-12.82-13.147-12.906-19.61Zm135.155-2 .001-.225c-.014-6.377-3.728-20.937-12.908-20.937-5.592 0-9.041 9.42-9.769 19.358l-.051.766c-.362 6.136 1.268 20.648 9.82 20.648 8.452 0 12.82-13.147 12.907-19.61ZM92.855 58.284c7.492-1.138 17.413 1.026 20.906 8.644 1.556 3.394-.287 7.147-4.21 7.335-9.481.454-17.984-1.656-26.306 4.509-3.581 2.653-6.592 6.328-9.12 9.992l-.955 1.395-.792 1.15c-1.716 2.522-3.34 5.262-3.087 8.306.075.901-.846 1.756-1.72 1.72-5.455-.224-6.042-7.062-5.325-11.17 1.334-7.621 5.023-14.776 10.136-20.54 5.37-6.051 12.46-10.121 20.473-11.34Zm103.189 9.251c5.166-3.32 11.774-4.597 17.826-4.108 11.933.961 31.952 11.105 29.317 25.68-.813 4.495-7.065 6.867-10.749 4.373-3.961-2.68-4.925-6.848-7.873-10.352-2.352-2.799-5.333-4.824-8.525-6.549-3.146-1.701-6.786-2.732-10.356-3.108l-.595-.057c-2.149-.183-13.001-.134-11.408 3.917.312.793-.868 1.421-1.41.821-3.327-3.68.441-8.475 3.773-10.617Z"/></g></svg>