<svg xmlns="http://www.w3.org/2000/svg" width="289" height="293" fill="none" viewBox="0 0 289 293"><g id="face/Eyes Closed"><path id="🖍 Ink" fill="#000" fill-rule="evenodd" d="m182.244 225.965.691-.16c5.525-1.302 10.841-3.074 15.987.349 4.903 3.261 5.584 9.293 1.764 13.693-3.927 4.524-9.142 4.271-14.647 4.333l-.344.004c-4.571.063-9.218-.005-13.771-.41a131.541 131.541 0 0 1-12.713-1.775l-2.481-.486c-2.535-.513-5.032-1.18-6.338-3.634-2.278-4.277 14.654-7.633 16.711-8.22 4.992-1.425 10.078-2.547 15.141-3.694Zm9.39-51.57c-2.699 2.799-6.264 4.711-10.266 5.901-10.059 2.99-22.893 1.397-31.108-1.65-1.704-.632-3.297-1.921-4.212-3.532-.836-1.472-1.119-3.203-.483-4.969.182-.501.402-.993.623-1.478.603-1.319 1.831-2.346 3.274-2.932 1.498-.61 3.202-.734 4.568-.305l.565.178c5.205 1.641 13.742 4.358 20.815 3.831 4.244-.316 7.977-1.815 9.907-5.699 1.018-2.048.736-4.073-.166-5.927-1.361-2.796-4.087-5.229-6.383-6.905-3.237-2.364-6.689-3.307-10.26-4.304-1.345-.375-2.708-.756-4.084-1.211a2.443 2.443 0 0 1-1.148-.826 2.722 2.722 0 0 1-.547-1.301 2.26 2.26 0 0 1 .237-1.368 2.115 2.115 0 0 1 1.027-.937c6.986-3.13 16.022-1.062 22.842 3.862 3.408 2.461 6.251 5.622 8.003 9.155 1.626 3.278 2.317 6.875 1.68 10.543-.713 4.107-2.451 7.351-4.884 9.874Zm-114.498-69.84c1.963-.865 3.576 3.184 3.98 4.288l.835 2.29c1.363 3.693 2.928 7.448 5.794 10.189 2.399 2.295 6.243 4.24 9.026 1.555 2.64-2.547 1.353-5.416 1.742-8.541.702-5.652 8.409-11.301 13.043-5.403 10.468 13.326-5.728 31.858-20.646 28.607-7.587-1.654-13.694-7.737-16.203-14.971l-.129-.382c-1.502-4.583-3.021-15.171 2.558-17.632Zm135.084 9.281-.073-.169c-4.986-11.341 12.8-16.215 14.308-6.032l.096.687c1.467 11.304-1.624 26.506-15.47 27.633-15.542 1.266-22.014-16.075-20.626-28.8.249-2.278 3.013-2.593 3.867-.523l.182.451c2.509 6.396 4.892 18.694 13.734 18.682 5.908-.009 5.626-7.983 3.982-11.929Zm11.276-32.83c8.934-.318 8.922 13.664 0 13.874-29.802.701-59.627 1.633-89.438 1.793l-5.418.034c-28.002.187-56.1.57-84.02-1.78-2.383-.2-1.94-3.547.051-3.412 29.271-4.166 58.899-5.384 88.393-6.967 30.117-1.617 60.292-2.473 90.432-3.543Z" clip-rule="evenodd"/></g></svg>