<svg xmlns="http://www.w3.org/2000/svg" width="289" height="293" fill="none" viewBox="0 0 289 293"><g id="face/Fear" fill-rule="evenodd" clip-rule="evenodd"><path id="eye" fill="#fff" d="M107 164c30.376 0 55-19.028 55-42.5S137.376 79 107 79s-55 19.028-55 42.5S76.624 164 107 164Z"/><path id="eye_2" fill="#fff" d="M195 148c23.748 0 47-15.446 47-34.5 0-19.054-19.252-34.5-43-34.5s-43 15.446-43 34.5c0 10.452 3.449 3.672 12.6 9.998C176.131 128.705 184.279 148 195 148Z"/><path id="🖍 Ink" fill="#000" d="m199.723 205.925.825-.043c5.631-.32 11.099-1.143 16.129 2.012 6.686 4.193 6.716 13.729 0 17.914-5.284 3.295-11.026 2.213-16.954 2.059a953.875 953.875 0 0 0-14.648-.267c-9.759-.102-19.512-.126-29.272-.077a909.063 909.063 0 0 1-26.421-.271l-3.772-.098c-9.029-.248-18.483.064-27.377-1.694l-.382-.066.01-.019c-1.54-.518-2.355-2.975-.513-3.829 8.825-4.091 18.914-5.806 28.391-7.752 9.596-1.968 19.357-3.39 29.089-4.504 9.719-1.11 19.509-1.894 29.272-2.517a857.281 857.281 0 0 1 15.623-.848ZM170.19 80.204l.643-.431c7.068-4.667 17.225-9.161 25.37-5.618.46.2.849.461 1.187.761a46.54 46.54 0 0 1 6.029.509c15.943 2.403 30.675 12.866 37.878 27.271 8.187 16.373 4.298 33.627-10.189 44.763-7.118 5.471-15.483 9.41-24.488 10.298-2.944.29-6.064.347-8.89-.545 1.338 2.848 2.356 5.825 2.88 8.965 1.793 10.75-2.471 19.614-12.484 24.256-8.799 4.081-20.977 5.645-29.679.494-7.356-4.352-4.947-18.76 4.732-17.469 6.534.871 12.424 3.052 18.881.266 5.263-2.269 2.07-9.928.484-13.957-2.654-6.733-6.558-13.072-9.725-19.61l-.584-1.228c-1.991-4.263-4.464-8.767-6.357-13.361-1.042 5.396-2.911 10.691-5.113 15.593-5.226 11.632-15.342 18.749-27.395 22.082-12.392 3.425-26.935 4.22-39.712 3.799-12.993-.427-26.674-3.832-36.18-13.25-17.416-17.253-12.415-47.439 5.913-61.86C75.246 82.603 91.95 76.21 107.29 77.866c7.684-1.729 16.278-.747 23.966.995 10.402 2.357 20.333 7.402 27.133 15.437a28.131 28.131 0 0 1 1.752-3.631c-.3-.138-.486-.582-.19-.848.542-.487 1.099-.954 1.656-1.422 2.215-3.106 5.076-5.811 8.583-8.193ZM44.172 161.066c-.627-.888.598-2.04 1.476-1.475 7.194 4.639 14.724 8.856 22.973 11.314 8.059 2.401 16.436 2.153 24.53 4.205 3.041.771 2.559 4.726 0 5.695-8.908 3.376-18.96.543-27.422-3.04-8.587-3.634-16.145-9.039-21.557-16.699ZM92.454 86.96l.215-.259-.523.174c-10.082 3.394-18.385 8.99-25.133 17.159-11.5 13.921-11.637 36.056 5.56 45.464 9.27 5.071 20.215 5.31 30.509 4.773l2.081-.111c9.037-.499 18.259-1.238 26.98-3.682 9.511-2.666 16.119-8.414 19.758-17.677l.302-.781c3.63-9.534 5.52-20.137-1.219-28.767-11.416-14.617-37.795-17.537-54.1-10.55-3.904 1.673-7.038-2.41-4.43-5.743Zm104.632-3.922a4.952 4.952 0 0 1-.883.7c-3.273 1.963-6.954 1.983-10.582 2.883-3.342.829-6.613 1.841-9.689 3.406-4.832 2.455-9.815 5.392-14.383 8.595a36.496 36.496 0 0 1 2.606 4.963c2.074 4.831 2.773 9.918 2.555 15.026 3.183 2.754 5.844 6.179 8.661 9.274l2.484 2.733c2.898 3.197 5.777 6.43 8.474 9.785 1.603 1.994 3.23 4.036 4.793 6.138a6.967 6.967 0 0 1 .899-1.824c1.523-2.196 3.874-3.305 6.561-2.67 2.352.558 3.924 1.622 6.381 1.638 3.009.02 5.909-.628 8.757-1.557 5.598-1.826 11.084-5.107 15.178-9.357 9.24-9.595 4.365-23.116-2.843-32.256-7.301-9.259-17.786-15.271-28.969-17.477Zm-82.293 23.046c2.966-.856 7.379.494 8.684 3.534l.936 2.213-.079-.177c.331.784.648 1.541.902 2.345l.877.68a25.55 25.55 0 0 1 2.078 2.633c1.504 2.57 1.94 5.861 1.17 8.741-1.271 4.759-5.641 7.814-10.489 7.843-14.191.084-17.669-23.888-4.079-27.812Zm85.611-4.307c6.557-.293 10.924 5.498 11.447 11.447.298 3.386-.387 7.088-1.358 10.326-1.448 4.831-6.052 7.858-11.016 7.192-3.951-.531-7.441-3.535-8.426-7.396a28.495 28.495 0 0 1-2.094-10.122c-.12-6.414 5.34-11.174 11.447-11.447Zm-86.529-53.53c6.65-1.072 13.003 2.16 13.97 9.307.974 7.21-4.335 11.973-10.994 12.681-12.554 1.334-25.372 1.651-37.986 2.202-5.26.23-10.529.326-15.795.373l-2.633.02c-4.898.028-11.285.995-15.71-1.416-.289-.156-.278-.51-.095-.735 3.11-3.83 9.541-5.461 14.138-7.148l.39-.145c5.818-2.195 11.702-4.25 17.664-6.029l3.03-.898c11.139-3.281 22.6-6.367 34.021-8.212Zm42.213-3.506c4.11-1.545 8.166-.582 10.961 2.031 9.347 2.602 18.967 4.596 28.375 6.875l2.56.629c11.794 2.943 24.754 5.211 35.722 10.606 1.164.573.432 2.059-.592 2.184-12.218 1.484-25.381-.875-37.528-2.295-12.445-1.455-24.953-3.855-37.435-4.795-8.959-.675-10.261-12.152-2.063-15.235Z"/></g></svg>