<svg xmlns="http://www.w3.org/2000/svg" width="289" height="293" fill="none" viewBox="0 0 289 293"><g id="face/Hectic" fill-rule="evenodd" clip-rule="evenodd"><path id="teeth" fill="#fff" d="M100.76 231.152c0-18.392 27.068-22.35 50.432-22.35s49.618 5.392 49.618 22.35c0 16.959-27.528 19.666-44.669 19.666s-55.381-1.274-55.381-19.666Z"/><path id="eye" fill="#fff" d="M101 147c20.987 0 38-14.327 38-32 0-17.673-17.013-32-38-32s-38 14.327-38 32c0 17.673 17.013 32 38 32Z"/><path id="eye_2" fill="#fff" d="M211.5 147c17.397 0 31.5-14.327 31.5-32 0-17.673-14.103-32-31.5-32S180 97.327 180 115c0 17.673 14.103 32 31.5 32Z"/><path id="🖍 Ink" fill="#000" d="M151.882 205.734c9.322-3.34 19.216-2.084 28.62 1.385l.843.316c8.639 3.293 19.195 9.012 22.729 17.946a15.594 15.594 0 0 1 1.072 5.386c1.155.114 2.3.264 3.435.463 2.336.411 2.226 4.123 0 4.611-1.41.309-2.846.535-4.295.704-1.34 4.166-4.113 7.947-7.615 10.599-8.198 6.207-19.496 7.376-29.406 8.325-10.959 1.049-21.972.793-32.89-.535l-3.843-.491c-8.941-1.162-18.91-2.655-26.511-7.438-7.155-4.501-12.05-13.192-9.02-21.633 3.1-8.644 13.731-12.312 21.621-15.087 11.337-3.988 23.401-5.552 35.26-4.551Zm-15.817 28.967c.111 2.526.206 5.054.306 7.582a3.613 3.613 0 0 1-.573 2.082c5.422.637 10.892.937 16.347.933-.998-3.015-1.051-6.478-1.108-9.697a613.69 613.69 0 0 1-14.972-.9Zm20.076 1.137.435 1.633c.674 2.558 1.286 5.191 1.196 7.717a155.69 155.69 0 0 0 7.599-.467l3.216-.274c.731-.063 1.471-.128 2.217-.198.165-2.618.473-5.271.747-7.889a1015.26 1015.26 0 0 1-15.41-.522Zm20.381.636c.234 2.313.452 4.678.544 7.021 4.128-.643 8.177-1.644 11.636-3.413 1.74-.89 3.135-1.966 4.175-3.158-3.494-.082-6.978-.259-10.358-.314a265.48 265.48 0 0 1-1.999-.041l-3.998-.095Zm-71.705-5.321c.27 4.827 7.901 8.272 11.83 9.406a114.932 114.932 0 0 0 11.42 2.659 3.07 3.07 0 0 1-.083-.934c.245-2.724.486-5.447.743-8.167l-2.069-.165c-7.271-.56-14.833-1.008-21.841-2.799Zm47.621-18.392a211.034 211.034 0 0 0 2.589 18.034l2.069.044c4.967.079 9.935.111 14.903.117.013-.244.026-.487.035-.728.186-5.052.115-10.105-.07-15.155-6.311-1.393-12.917-1.847-19.526-2.312Zm22.118 2.946a583.45 583.45 0 0 1 1.434 15.237l4.353-.008c.725-.002 1.45-.005 2.176-.011 4.077-.038 8.266-.305 12.45-.417-.312-2.184-1.598-4.405-3.968-6.426-5.016-4.277-10.58-6.801-16.445-8.375Zm-25.998-4.108a103.825 103.825 0 0 0-14.247 2.535c1.225 3.551.991 7.615 1.25 11.324.115 1.633.209 3.267.295 4.9 5.018.123 10.036.241 15.054.348-.16-6.013-.057-12.025.282-18.034l-.547-.039c-.812-.058-1.537-.463-2.087-1.034Zm-17.426 3.388a99.608 99.608 0 0 0-6.524 2.103l-2.351.85c-5.666 2.065-13.164 5.054-16.323 9.671-.531.776-.85 1.527-1.007 2.252 7.943-.733 16.179.006 24.194.308.109-1.048.222-2.095.341-3.142l.184-1.571c.41-3.391.406-7.158 1.486-10.471Zm39.682-72.62c7.552 4.59 19.058 15.293 10.934 26.673-9.562 10.033-23.33-1.471-30.114-6.674-6.291-4.032-13.359 6.339-7.522 11.047 49.024 36.295 68.919-29.846 30.522-36.443-4.228-.727-5.798 3.977-3.82 5.397ZM78.257 86.713c10.73-18.65 37.28-18.865 52.469-4.623 14.502 13.599 16.296 36.8 4.713 52.704-12.345 16.95-36.326 21.639-55.773 15.598-18.23-5.663-28.03-25.442-21.78-43.564 3.38-9.802 11.16-16.58 20.37-20.115Zm-10-31.238c9.07-8.028 25.549-15.78 37.778-11.83 7.031 2.271 10.096 13.6 2.247 17.191-9.09 4.158-19.568 2.466-28.82 6.776-3.884 1.811-7.538 4.074-10.243 7.393-2.131 2.616-4.3 6.058-7.381 7.566-.81.397-1.907.407-2.556-.329-6.756-7.642 3.077-21.546 8.976-26.767Zm129.545-12.228c5.605-1.573 11.823-1.541 17.517-.553 5.692.988 11.471 3.347 16.118 6.788l.539.403c5.073 3.822 11.127 9.385 10.803 16.157-.271 5.655-6.22 9.48-11.356 6.516-4.187-2.417-6.157-7.26-9.702-10.483-2.925-2.661-6.361-4.76-10.027-6.23-4.072-1.632-8.151-2.397-12.521-2.47-3.365-.056-6.75 1.048-10.052 1.4.272.559-2.338.299-3.834-.196-1.108-.472-1.114-1.873-.73-2.782 1.905-4.503 8.836-7.314 13.245-8.55Zm6.101 31.644c9.389-1.864 19.828.177 27.686 5.68 14.09 9.87 20.411 30.28 13.863 46.243-6.498 15.843-24.259 25.922-41.195 22.895-17.289-3.09-30.663-20.5-28.798-38.04a33.146 33.146 0 0 1 8.869-19.284 3.53 3.53 0 0 1 .147-.534c3.388-9.017 9.808-15.05 19.428-16.96ZM117.989 89.23c-10.765-6.48-26.593-2.862-35.84 4.96-1.835 1.555-3.907 1.1-5.034-.256-6.276 5.066-10.707 12.153-11.42 20.783-1.274 15.479 9.749 25.659 24.6 26.83 15.179 1.197 30.887-3.039 38.036-17.582 6.173-12.555 1.642-27.522-10.342-34.735Zm101.909.67c-8.429-3.305-20.518-1.352-27.878 4.304-5.603 7.224-8.33 17.136-6.176 25.254 3.112 11.724 14.362 20.857 26.721 19.558 11.438-1.202 21.772-10.358 23-21.983 1.181-11.181-4.955-22.933-15.667-27.133Zm-7.151 17.544c1.921-1.37 4.213.173 4.916 2l.402.828c.213.443.431.901.439.918l.076.221c.102.191.224.369.34.55.09.062.837.997.937 1.119 1.205 1.488 1.845 2.849 1.807 4.807-.073 3.871-3.685 6.597-7.43 5.66-4.028-1.008-5.743-5.174-5.376-8.999.291-3.028 1.394-5.325 3.889-7.104Zm-109.359.739c1.777-1.616 4.519-1.752 6.273 0 .963.962 1.353 2.034 2.044 3.153l.327.514c.719 1.105 1.471 2.165 1.665 3.519.458 3.189-.531 6.157-3.673 7.484-3.125 1.318-6.019-.03-7.922-2.596-2.252-3.04-1.568-9.48 1.286-12.074Z"/></g></svg>