<svg xmlns="http://www.w3.org/2000/svg" width="289" height="293" fill="none" viewBox="0 0 289 293"><g id="face/Loving Grin 2" fill-rule="evenodd" clip-rule="evenodd"><path id="teeth" fill="#fff" d="M95.38 211.193c15.926-12.366 100.653-16.089 109.059-8.044 8.406 8.044 28.161 31.301-9.639 46.044-37.8 14.744-85.928 13.869-99.42 0-13.493-13.869-15.928-25.634 0-38Z"/><path id="🖍 Ink" fill="#000" d="M167.937 192.833c8.498-.288 17.057-.948 25.509.291 14.042 2.057 28.263 12.034 28.218 27.551-.075 26.03-29.409 35.881-50.316 39.276l-2.322.374c-25.172 4.031-55.18 7.676-77.765-6.596-10.643-6.726-17.391-18.091-14.275-30.855 2.968-12.163 13.234-20.899 24.757-24.674 13.443-4.405 27.353-2.143 41.032-.33.997.133 1.991.258 2.985.386 3.182-1.016 6.31-2.385 9.5-3.325 4.202-1.239 8.288-1.95 12.677-2.098Zm-3.092 33.36-13.188 1.728c-4.937.648-9.875 1.271-14.812 1.875.632 6.725.741 13.525.517 20.397 8.896-.193 17.839-1.343 26.57-2.813.578-7.048.92-14.106.913-21.187Zm-39 5a1386.453 1386.453 0 0 1-36 3.464c2.71 5.234 9.655 8.553 14.975 10.431 6.083 2.146 12.361 3.438 18.731 4.105 1.106-5.929 1.822-11.949 2.294-18Zm86.997-10c-9.059 1.486-18.394 2.132-27.434 3.27l-10.563 1.33a223.457 223.457 0 0 1 2.421 19.4l1.646-.322c7.409-1.485 14.853-3.472 21.4-7.236l.554-.327c5.235-3.162 12.144-9.446 11.976-16.115Zm-85.997-10c-5.925.533-12.186.636-17.894 1.893-8.342 1.835-18.378 6.434-19.956 15.826a10.08 10.08 0 0 0 .176 4.281 1378.106 1378.106 0 0 1 37.12-6.492c.297-5.173.449-10.355.554-15.508Zm32.075-3-8.116.707c-5.982.522-11.971.691-17.959 1.135 1.443 4.68 2.483 9.4 3.195 14.158 4.921-.76 9.846-1.503 14.777-2.225l14.028-2.053-.019-3.542a247.84 247.84 0 0 0-.135-7.189l-.584-.047c-1.755-.195-3.478-.536-5.187-.944Zm49.925 5.579c-5.608-5.035-16.109-4.687-22.815-4.481-5.028.153-10.127.679-15.185.671.947 3.038 1.846 6.096 2.584 9.231l10.809-1.577c8.126-1.184 16.376-2.816 24.607-3.844Zm-38.03-69.405c7.551 4.59 19.057 15.293 10.933 26.673-9.562 10.033-23.329-1.471-30.114-6.674-6.29-4.032-13.358 6.338-7.522 11.047 49.024 36.295 68.919-29.846 30.522-36.443-4.228-.727-5.798 3.977-3.819 5.397Zm73.971-25.593c-2.583 16.882-29.122 40.422-32.723 40.422-3.602 0-34.437-29.952-34.437-43.275 0-13.324 13.32-31.208 34.437-8.69 12.008-15.036 35.306-5.339 32.723 11.543Zm-117.902-15.006c6.244 9.117 3.867 20.459-2.489 28.771-5.624 7.358-24.545 23.822-27.508 24.246-3.652.523-20.37-18.383-24.237-21.556-3.867-3.173-14.588-13.371-12.042-22.818 2.45-9.088 15.554-24.456 34.688-8.643 6.084-15.082 25.948-8.235 31.588 0ZM64.71 74.415c9.8-10.983 30.558-22.572 41.998-7.73 2.921 3.793-.198 9.99-4.463 10.97-5.282 1.215-10.618.475-15.804 1.983-4.752 1.38-9.304 4.147-13.377 6.905-4.645 3.144-8.923 6.654-12.854 10.653-2.338 2.38-5.284 8.015-8.89 8.12-3.585.105 1.227-11.106 1.625-12.076A65.545 65.545 0 0 1 64.71 74.415Zm118.618-26.859c5.644-2.63 11.15-1.46 16.831.094l2.447.68c6.054 1.683 12.517 3.751 17.711 7.38l.408.289c6.533 4.687 16.523 14.745 11.754 23.483-.319.583-.995.641-1.539.403-6.144-2.69-10.699-8.065-17.234-10.313l-1.206-.41c-6.329-2.132-14.159-4.374-20.971-4.17-4.79 1.557-11.259.267-12.506-5.563l-.056-.286-.108-.604c-.718-3.984.35-9.063 4.469-10.983Z"/></g></svg>