<svg xmlns="http://www.w3.org/2000/svg" width="289" height="293" fill="none" viewBox="0 0 289 293"><g id="face/Loving Grin 1" fill-rule="evenodd" clip-rule="evenodd"><path id="tongue" fill="#FF6C6C" d="M127.787 246.677s14.169 10.939 40.591 10.939 41.77-9.786 41.77-9.786-23.16-14.069-41.77-15.208c-18.61-1.139-40.591 14.055-40.591 14.055Z"/><path id="🖍 Ink" fill="#000" d="M96.285 218.87c.105-11.018 9.653-12.918 18.723-11.449 15.355 2.484 30.767 4.232 46.33 4.547l2.682.047c.432-.63 1.154-1.108 2.134-1.213 8.627-.932 17.44-.781 26.114-1.037 7.567-.222 15.343-.979 22.909-.385l.602.053c9.247.895 19.005 5.615 17.889 16.467-1.027 10.049-10.633 18.945-18.304 24.529a59.979 59.979 0 0 1-4.769 3.124 3.125 3.125 0 0 1-2.122 1.201c-7.554 4.08-15.889 6.494-24.517 7.298-18.292 1.702-39.557-.14-57.126-8.067-5.712-2.577-11.04-5.795-15.75-9.747-7.263-6.097-14.876-15.342-14.795-25.368Zm73.072 19.847a63.963 63.963 0 0 0-21.638 3.067c-4.733 1.527-9.047 4.464-13.582 6.505 15.284 5.829 33.04 7.1 48.72 6.039 6.879-.466 13.548-2.052 19.762-4.78-.968-.699-1.948-1.41-2.974-2.029a58.547 58.547 0 0 0-9.723-4.745 64.319 64.319 0 0 0-20.565-4.057Zm1.458-94.35c-1.979-1.42-.409-6.124 3.819-5.397 38.397 6.597 18.502 72.738-30.522 36.443-5.836-4.708 1.232-15.079 7.522-11.047l2.234 1.722c7.262 5.566 19.274 13.982 27.88 4.952 8.124-11.38-3.382-22.083-10.933-26.673Zm25.994-50.058c8.162-6.964 18.399-1.831 24.408 5.222l1.06 1.261c1.202 1.439 2.533 3.115 3.333 4.907 6.659-5.67 15.689-9.66 24.33-7.07 8.38 2.521 13.159 10.521 11.72 19.11-1.633 9.768-9.023 16.332-16.964 21.409l-2.252 1.43c-9.542 6.083-18.471 12.211-26.324 20.572-1.281 1.359-4.05 1.179-4.89-.63l-.677-1.456-.683-1.455c-5.571-11.879-11.54-23.68-16.441-35.839-3.63-9.011-4.809-20.481 3.38-27.46Zm-91.8 4.87c5.98-6.96 16.11-11.62 24.101-4.87 8.509 7.191 6.839 19.081 3.049 28.251-4.564 11.06-9.894 21.876-15.016 32.725l-1.094 2.325c-.46.97-.91 1.94-1.359 2.91-.841 1.81-3.62 1.99-4.891.63-7.609-8.1-16.218-14.094-25.413-19.984L81.61 139.4c-8.07-5.12-15.7-11.73-17.36-21.66-1.42-8.57 3.33-16.62 11.72-19.111 8.66-2.57 17.67 1.391 24.339 7.071.795-1.838 2.164-3.568 3.457-5.082l1.243-1.438Zm9.699-48.494c2.921 3.792-.198 9.99-4.463 10.97-5.282 1.215-10.618.475-15.804 1.983-4.752 1.38-9.304 4.148-13.377 6.905-4.645 3.144-8.923 6.654-12.854 10.653-2.338 2.38-5.284 8.016-8.89 8.12-3.585.105 1.227-11.106 1.625-12.076A65.545 65.545 0 0 1 72.71 58.416c9.8-10.983 30.558-22.572 41.998-7.73Zm109.451-3.035 2.447.68c6.054 1.683 12.517 3.751 17.711 7.38l.408.289.628.46c6.521 4.861 15.744 14.561 11.126 23.023-.319.583-.995.641-1.539.403-6.144-2.69-10.699-8.065-17.234-10.313l-1.206-.41c-6.329-2.132-14.159-4.374-20.971-4.17-4.79 1.557-11.259.267-12.506-5.563l-.056-.286-.108-.604c-.718-3.984.35-9.063 4.469-10.983 5.644-2.63 11.15-1.46 16.831.094Z"/></g></svg>