<svg xmlns="http://www.w3.org/2000/svg" width="289" height="293" fill="none" viewBox="0 0 289 293"><g id="face/Monster" fill-rule="evenodd" clip-rule="evenodd"><path id="teeth" fill="#fff" d="m111.356 252.419-10.566-40.337 1.704.263c16.761 2.635 25.142 5.34 25.142 8.115l-.007.189c-.221 3.125-5.646 13.715-16.273 31.77Zm97.266-31.619-3.742 28.841-19.49-21.364 23.232-7.477Z"/><path id="eye" fill="#fff" d="M98.5 149c21.815 0 39.5-16.118 39.5-36s-17.685-36-39.5-36S59 93.118 59 113s17.685 36 39.5 36Z"/><path id="eye_2" fill="#fff" d="M157 112c19.882 0 36-15.894 36-35.5S176.882 41 157 41s-36 15.894-36 35.5 16.118 35.5 36 35.5Z"/><path id="eye_3" fill="#fff" d="M206 142c16.016 0 29-14.327 29-32 0-17.673-12.984-29.47-29-29.47S177 92.327 177 110s12.984 32 29 32Z"/><path id="🖍 Ink" fill="#000" d="M101.162 210.672c7.253-1.4 16.276 1.65 23.509 2.986l.539.097c8.771 1.532 17.523 3.384 26.391 4.288 8.466.865 17.112 1.02 25.579.047a82.243 82.243 0 0 0 12.047-2.332 80.512 80.512 0 0 0 5.022-1.533l.187-.072c1.217-.502 4.507-2.395 4.468-1.34.925-1.067 2.199-1.824 3.598-2.192 1.974-.519 4.508-.032 6.16 1.364 2.149-1.702 5.373-.481 6.814 1.557 2.471 3.495 1.667 7.592 1.348 11.646l-.027.358a180.845 180.845 0 0 1-1.198 11.411l-.226 1.626c-.797 5.611-1.016 14.865-7.815 16.704-5.377 1.456-10.298-4.077-13.764-8.468l-1.898-2.432c-2.247-2.851-4.287-5.786-5.931-9.027-.749-1.475-1.473-2.986-2.1-4.517-.079-.193-.137-.366-.197-.54-9.972 1.342-20.18 1.15-30.178-.168a150.345 150.345 0 0 1-18.708-3.661l-2.771 5.009c-3.243 5.841-6.532 11.664-9.989 17.373l-.268.435c-3.236 5.149-8.655 10.305-15.062 6.449-5.733-3.452-5.977-11.304-6.581-17.163-.403-3.914-.73-7.854-.887-11.79l-.057-1.686c-.103-3.816-.724-8.239.743-11.808.213-.52.96-.92 1.41-.373 3.065 3.726 3.992 9.501 5.316 14.074 1.474 5.088 3.609 10.645 4.375 15.923l.214-.372a375.048 375.048 0 0 1 2.298-4.283l2.32-4.271a874.11 874.11 0 0 1 6.338-11.511c-2.441-.917-4.86-1.903-7.269-2.904l-5.467-2.286c-3.123-1.319-6.307-2.808-8.655-5.208-.416-.425-.271-1.287.372-1.41ZM204.88 224.76c-5.387 2.19-10.959 3.77-16.632 4.818.366.375.731.75 1.071 1.144 1.335 1.545 2.751 3.029 4.176 4.496l.855.879c2.182 2.239 5.46 5.926 8.805 8.069l.181-.967c.03-.167.053-.312.065-.424l.356-3.181c.058-.53.114-1.061.167-1.592.288-2.869.517-5.744.757-8.617.126-1.514.156-3.069.199-4.625ZM141.13 39.893c12.83-5.48 28.057-2.893 39.108 5.385 11.308 8.47 16.253 22.243 16.907 35.983 8.943-7.636 21.822-1.856 29.354 5.299 8.692 8.257 13.088 20.718 11.062 32.544-2.019 11.786-10.548 22.184-22.087 25.689-5.521 1.677-11.674 1.715-17.228.155-1.886-.531-4.197-1.353-6.332-2.498.122.49.246.981.362 1.47 2.771 11.729 4.342 24.913.184 36.512-6.683 18.639-30.42 29.073-45.24 12.529-5.819-6.495-10.342-16.667-9.99-25.522.185-4.653 2.821-10.036 8.263-9.721 4.22.243 6.221 3.775 5.141 7.512l-.066.216c-2.288 7.145 1.618 17.469 7.277 22.342 8.678 7.473 20.587.97 25.332-7.793 5.53-10.213 4.857-23.307 3.089-34.418-1.736-10.91-5.607-20.889-9.716-30.984-.436.079-.878.152-1.33.213-8.172 1.109-24.799 1.527-33.828-4.393.97 9.137-.933 18.543-6.124 26.28-5.784 8.622-14.498 13.185-24.64 14.583-9.85 1.36-21.268 1.635-30.993-.699-20.71-4.97-28.011-30.537-21.748-48.993C61.592 90.667 71.93 80.848 83.42 78.368c5.92-3.894 13.869-5.047 20.701-4.516 10.204.795 20.254 5.204 27.088 12.947 2.611 2.958 4.758 6.307 6.413 9.89a4.94 4.94 0 0 1 1.936-.938c1.143-.268 2.143-.328 3.261.066.557.197 1.36.893 1.843 1.345l1.103 1.296c1.353 1.576 2.64 2.899 5.048 3.879 6.714 2.733 15.82 3.326 22.953 2.767 18.2-1.424 15.908-25.531 11.425-37.916-5.31-14.672-20.53-23.8-36.014-21.193-6.653 1.119-13 4.66-17.87 9.287-5.436 5.166-7.764 11.406-11.025 17.945-.193.387-.859.303-.942-.124-2.68-13.788 10.028-28.186 21.789-33.21ZM44.194 151.055c-.553-.649.173-1.79.965-1.252 5.801 3.941 12.252 6.785 19.265 7.554 3.294.36 6.614.385 9.895-.12 2.795-.432 5.314-1.284 8.104-.514 1.485.41 1.755 2.133.848 3.213-4.215 5.017-14.592 3.677-20.25 2.332-7.317-1.738-13.95-5.483-18.827-11.213Zm195.211-9.16c2.848-1.765 6.238 1.73 4.554 4.553-4.324 7.243-16.857 7.833-24.128 6.099-.569-.134-.439-1.027.137-1.011 4.179.103 7.956-.7 11.556-2.88 3.076-1.863 4.911-4.921 7.881-6.761Zm-138.962-57.9-.571.006c-6.648.107-12.736 2.642-19.142 3.982a2.805 2.805 0 0 1-1.545-.121c-7.802 5.205-13.18 13.389-13.91 24.158-.506 7.459 1.315 15.586 5.744 21.707 5.041 6.966 13.162 8.042 21.16 8.249l.812.019c15.118.295 31.75-.598 37.139-17.5 3.988-12.509-.271-27.695-11.38-35.188-5.395-3.64-11.839-5.317-18.307-5.311Zm121.799 8.972-.444-.518c-5.929-6.803-15.331-13-24.6-9.573l.027 1.145c.003.192.005.383.005.574-.028 13.138-5.119 25.399-17.632 29.254 3.357 4.789 6.054 10.103 8.214 15.618.762-.498 1.689-.814 2.765-.923 4.405-.446 6.929 3.691 10.749 5.234 3.576 1.446 7.632 1.819 11.407 1.072 8.258-1.633 14.052-8.754 16.082-16.656 2.295-8.933-.737-18.298-6.573-25.227ZM96.534 104.024c2.754-4.652 9.548-3.979 12.271.122l.13.205.029-.038c4.536 5.878 2.344 15.162-4.242 18.467-5.283 2.649-12.002 1.954-15.514-3.203a9.132 9.132 0 0 1-1.477-3.893c-.126-.937-.054-1.873.156-2.804l-.053.218c.104-.47.27-1.207.312-1.382.464-1.896 1.577-3.93 2.97-5.303 1.435-1.414 3.428-2.274 5.418-2.389Zm113.168-4.832c2.439 0 4.603 1.02 6.365 2.637 2.506 2.301 2.855 5.613 2.314 8.756-.166.959-.394 1.886-.633 2.83l-.205.854a7.742 7.742 0 0 1-.119.421 6.94 6.94 0 0 1-.673 1.636c-1.043 3.883-5.266 5.811-8.989 4.964-1.752-.399-3.499-1.853-4.391-3.377a6.588 6.588 0 0 1-.646-1.504L202 114.69c-.136-.412-.221-.854-.33-1.275-.243-.943-.477-1.872-.646-2.83-.575-3.248-.117-6.326 2.314-8.756 1.632-1.633 4.057-2.637 6.364-2.637ZM155.98 65.508c4.233-.568 8.544 1.404 10.733 5.143 1.902 3.25 1.894 7.623 0 10.873l-.16.275c-3.489 5.986-11.626 6.754-16.521 2.13l-.237-.225c-3.148-2.973-3.857-7.904-2.227-11.766 1.49-3.532 4.614-5.919 8.412-6.43Z"/></g></svg>