<svg xmlns="http://www.w3.org/2000/svg" width="289" height="293" fill="none" viewBox="0 0 289 293"><g id="face/Old"><path id="🖍 Ink" fill="#000" fill-rule="evenodd" d="M176.03 239.644c-6.392.052-13.578-2.346-18.382-4.224l-1.253-.496c-4.159-1.666-8.43-3.578-11.616-6.787-1.018-1.043-2.103-2.223-2.654-3.464-.322-.727-.457-1.479-.145-2.227a39.945 39.945 0 0 0 3.278-.45c.492-.09.964-.183 1.325-.185 1.333-.009 2.651.161 3.969.327.191.024.381.049.572.072 1.026.127 2.046.264 3.065.401 2.964.398 5.912.793 8.918.937 2.171.104 4.447-.018 6.743-.143 5.955-.324 12.113-.767 16.701 3.405 1.202 1.092 1.704 2.468 1.704 3.87 0 1.704-.717 3.438-1.81 4.798-2.477 3.08-6.289 4.132-10.415 4.166Zm34.852-53.72c-2.78 4.172-7.413 6.855-13.761 6.563-12.617-.577-27.674-5.337-38.241-12.22-2.752-1.792-4.536-4.657-4.856-7.726l-.569-5.461-3.077 4.547c-.32.474-.644.947-.967 1.419-.891 1.302-1.781 2.604-2.621 3.938-3.224 5.122-6.179 10.295-8.862 15.72-1.9 3.842-3.289 8.139-4.682 12.474-2.351 7.32-4.623 14.518-9.647 19.663-.76.778-1.928 1.056-2.997.919-.942-.121-1.865-.583-2.318-1.504-6.003-12.207 2.072-26.918 8.622-37.146l.692-1.068c6.074-9.242 15.993-21.473 27.353-23.135l1.301 2.074 1.89-1.261c3.093-2.063 7.175-1.967 10.749-.353l3.574 1.613c6.653 2.986 13.216 5.74 20.414 7.249a59.669 59.669 0 0 0 3.063.561c-.108-.491-.223-.98-.338-1.467a86.986 86.986 0 0 0-.377-1.547 92.507 92.507 0 0 0-.426-1.587 69.32 69.32 0 0 0-2-6.218c-2.907-7.659-7.547-14.822-12.063-21.654l-.531-.804a161.092 161.092 0 0 0-2.09-3.057c-3.521-5.07-7.425-10.573-7.702-16.097 4.674.295 8.585 3.198 12.027 5.726 4.725 3.467 9.103 7.432 13.075 11.74 7.704 8.356 14.619 19.039 17.651 30.082 1.736 6.324.972 13.129-2.286 18.017Zm-123.265-63-.001-.225c.014-6.377 3.728-20.937 12.908-20.937 5.735 0 9.217 9.909 9.82 20.124l.021.416c.266 6.351-1.477 20.232-9.841 20.232-8.452 0-12.82-13.147-12.907-19.61Zm135.156-2 .001-.225c-.014-6.377-3.728-20.937-12.908-20.937-5.592 0-9.042 9.42-9.769 19.358l-.051.766c-.362 6.136 1.268 20.648 9.82 20.648 8.452 0 12.82-13.147 12.907-19.61ZM118.534 79.768c-1.216.143-2.427.33-3.637.522-3.53.562-7.041 1.237-10.528 2.024-6.622 1.495-13.192 3.383-19.636 5.516-6.03 1.997-11.966 4.254-17.9 6.51l-.95.362c-2.096.796-4.184 1.69-6.28 2.585-3.188 1.363-6.39 2.735-9.659 3.769 8.611-11.906 21.88-20.727 34.647-27.04 7.284-3.602 15.012-6.506 22.786-8.886l4.329-1.301c6.375-1.88 13.345-3.618 19.333.132 2.368 1.483 3.88 3.789 4.356 6.281.466 2.444-.066 5.065-1.754 7.252-1.471 1.906-3.303 2.99-5.253 3.363-2.153.41-4.435-.04-6.511-1.15-1.664-.124-2.155-.079-2.647-.024l-.696.085Zm95.898 1.212c-4.266-.928-8.491-1.3-12.868-1.167-1.98.06-3.895.365-5.805.673-2.966.478-5.921.972-9.117.392-1.667-.303-3.087-1.278-4.184-2.551-1.282-1.489-2.13-3.39-2.402-5.2-.281-1.867-.002-3.501.689-4.944.817-1.704 2.193-3.14 3.855-4.4 5.031-3.808 13.663-2.892 19.601-2.122 5.867.763 11.702 2.582 16.889 5.472 5.117 2.853 9.565 6.695 13.036 11.391 2.926 3.959 4.304 8.514 5.728 13.153-6.695-5.616-16.941-8.856-25.422-10.698Z" clip-rule="evenodd"/></g></svg>