<svg xmlns="http://www.w3.org/2000/svg" width="289" height="293" fill="none" viewBox="0 0 289 293"><g id="face/Rage" fill-rule="evenodd" clip-rule="evenodd"><path id="eye" fill="#fff" d="M107 148c18.225 0 33-12.984 33-29s-14.775-29-33-29-33 12.984-33 29 14.775 29 33 29Z"/><path id="eye_2" fill="#fff" d="M226.5 141c16.292 0 29.5-11.193 29.5-25s-13.208-25-29.5-25-29.5 11.193-29.5 25 13.208 25 29.5 25Z"/><path id="teeth" fill="#fff" d="M119.719 216.616c4.731-12.837 32.431-23.906 51.501-23.906 19.071 0 49.637 11.069 49.637 11.069l-8.743 24.224s-80.075-3.394-84.677-3.394c-4.601 0-12.448 4.845-7.718-7.993Z"/><path id="Shape" fill="#231F20" d="M156.465 188.481c20.555-.814 58.613 2.954 74.136 15.11 15.965 12.036-4.062 50.794-6.303 50.71-22.942-.86-45.684 2.428-68.362 5.48l-4.566.615c-15.303 2.108-36.636 5.812-43.907-11.844-9.026-30.547 18.316-60.212 49.002-60.071Zm36.221 12.947c-12.178-1.831-24.532-2.111-36.93-.874-11.033 1.102-21.412 4.112-28.319 12.486 1.66.279 3.13 1.503 4.138 3.134 14.792.449 30.074-.2 45.041.585 8.365.183 16.95 1.074 25.302.684 7.198-.336 5.22-6.358 6.229-11.443-4.766-2.139-10.476-3.812-15.461-4.572ZM58.033 85.613c14.769-24.38 59.373-9.177 81.722-4.163 17.153-3.734 18.879 24.798 1.029 21.828 9.712 14.073 5.973 32.48-7.158 43.197-34.23 28.528-97.07-18.077-53.687-51.335.495-4.179 6.02-5.367 9.283-6.955l-1.167-.274c-9.538-2.207-19.194-3.672-28.665-.516-.962.057-1.537-.94-1.357-1.782Zm120.781 50.754c7.552 4.59 19.058 15.293 10.934 26.673-9.562 10.033-23.33-1.471-30.114-6.674-6.291-4.032-13.359 6.339-7.522 11.047 49.024 36.295 68.919-29.846 30.522-36.443-4.228-.727-5.798 3.977-3.82 5.397Zm77.648-77.363c.545-.06.776.698.432 1.04-9.312 9.196-20.945 15.936-31.364 23.78 16.805 1.313 32.134 14.142 37.345 30.05 4.633 25.296-31.915 36.927-51.425 29.287-16.096-5.556-27.767-21.178-18.989-37.766-9.182.089-18.472-11.927-11.703-18.84 5.999-6.126 12.976-2.416 15.688-3.865l2.906-1.55c18.112-9.623 36.892-18.876 57.11-22.136Zm-124.712 51.36c-11.641-18.297-57.313-18.62-56.087 9.592 1.845 37.292 75.684 28.833 56.087-9.592Zm94.241-15.625c-8.587-1.837-16.113 8.017-20.928 5.477-27.227 31.081 28.177 48.936 46.321 25.183 9.929-12.829-13.227-30.378-25.393-30.66ZM110.91 111.948c11.271-4.108 11.178 12.6 2.836 15.902-9.54 3.751-12.704-16.129-2.836-15.902Zm101.22 1.797c-.593-10.249 14.849-14.92 18.732-4.785 5.478 13.747-17.923 20.629-18.732 4.785Z"/></g></svg>