<svg xmlns="http://www.w3.org/2000/svg" width="289" height="293" fill="none" viewBox="0 0 289 293"><g id="face/Serious"><path id="🖍 Ink" fill="#000" fill-rule="evenodd" d="m157.853 261.089 2.133-.567c7.639-2.081 15.567-5.385 22.862-.857 2.634 1.635 3.031 5.112.949 7.362-5.909 6.384-14.631 5.146-22.622 5.21l-.393.004c-8.04.111-16.02-.29-23.977-1.443-1.049-.152-1.256-1.895-.303-2.313 6.928-3.037 14.054-5.432 21.351-7.396Zm12.961-116.722c7.551 4.59 19.057 15.293 10.934 26.673-9.562 10.033-23.33-1.471-30.114-6.674-6.291-4.032-13.359 6.338-7.522 11.047 49.023 36.295 68.918-29.846 30.521-36.443-4.227-.727-5.797 3.977-3.819 5.397Zm52.502-60.362c12.182-.373 12.193 18.98 0 18.928-3.64-.016-7.28-.017-10.92-.025 2.115 7.711.907 16.906-2.913 23.383-2.52 4.275-8.551 5.052-12.074 1.556-6.082-6.036-7.281-14.863-5.132-22.867l-.442-1.047a6.73 6.73 0 0 1-.331-1.039c-11.765.01-23.531.039-35.296.058l-17.648.018c-11.458.004-22.921.097-34.38-.01.141.213.282.425.397.668.715 1.505 1.018 3.405 1.243 5.032.384 2.792.338 5.799-.102 8.58-.321 2.032-.911 4.452-2.042 6.367l-.007.04c-.533 2.272-1.206 4.447-2.963 6.086-.528.491-1.043.841-1.587 1.089-1.027 1.075-2.349 1.786-4.086 1.809-.922.01-1.933-.259-2.913-.641-1.507.126-3.063-.556-4.396-1.16-1.069-.485-2.05-1.129-2.841-1.969a3.755 3.755 0 0 1-1.119-.464c-2.292-1.41-3.168-4.236-3.287-6.788-.008-.155-.002-.318-.007-.475a13.926 13.926 0 0 1-.219-1.044c-.762-4.535.164-9.642 1.134-14.049.244-1.103.445-2.384.744-3.623-2.287-.089-4.572-.177-6.859-.271-5.728-.234-12.719.533-18.018-1.888-.386-.175-.282-.689 0-.89 4.892-3.497 12.493-4.063 18.385-5.215l.501-.1a372.676 372.676 0 0 1 21.145-3.688c13.661-1.992 27.497-3.064 41.277-3.836 28.213-1.58 56.514-1.662 84.756-2.525Z" clip-rule="evenodd"/></g></svg>