<svg xmlns="http://www.w3.org/2000/svg" width="289" height="293" fill="none" viewBox="0 0 289 293"><g id="face/Smile Big" fill-rule="evenodd" clip-rule="evenodd"><path id="teeth" fill="#fff" d="M79.2 197.799c10.921-6.577 51.744-1.756 83.813 0 25.465 1.394 43.654-1.369 49.475 2.549 13.153 8.852 6.764 51.658-15.899 57.512-22.664 5.854-106.677 14.03-121.162 0s-15.823-48.262 3.772-60.061Z"/><path id="🖍 Ink" fill="#000" d="M93.347 186.477c17.142-2.081 33.758 3.167 50.516 5.813 8.848 1.395 17.707 2.438 26.66 2.825 1.801.079 3.604.125 5.406.162.167-1.587 1.055-3.043 2.979-3.916 3.944-1.788 7.1-2.594 11.43-2.421 3.963.156 7.94.564 11.843 1.278 7.087 1.299 14.205 4.248 19.389 9.37 11.997 11.853 10.171 30.892.901 43.803-19.152 26.677-54.107 27.915-84.045 27.567l-2.763-.036c-27.259-.389-66.259 3.675-78.643-27.339-4.554-11.405-3.922-24.624 1.654-35.562 6.65-13.047 20.65-19.843 34.673-21.544Zm85.148 44.418-.244.01a1809.92 1809.92 0 0 1-37.709 1.047c.376 3.229.76 6.46 1.199 9.682.345 2.536.714 5.069 1.098 7.599.163 1.071.759 2.734.591 3.795l-.061.419a3.836 3.836 0 0 1 1.667 1.445c.152.236.262.475.371.712 9.763.076 20.27-.113 30.222-1.888l.02-.216c.181-1.271.71-2.127 1.412-2.714.7-4.054.636-8.375.906-12.397.169-2.499.351-4.996.528-7.494Zm-47.557 1.229c-9.059.154-18.122.272-27.179.162l-4.111-.064c.868 4.658 1.813 9.301 2.598 13.99.82 4.887-3.482 7.994-7.205 7.868.418.069.835.14 1.253.198 11.632 1.645 23.71 1.209 35.515 1.196-.635-3.707-.378-7.889-.473-10.983l-.018-.479a433.376 433.376 0 0 1-.38-11.888Zm-61.532-.855c.314 2.422.926 4.792 1.841 6.999 3.867 9.325 12.732 13.676 22.112 15.508-1.628-.562-2.92-1.912-3.246-4.224-.814-5.751-1.106-11.597-1.128-17.435-6.537-.061-13.118-.201-19.579-.848Zm143.179-1.991c-4.654 1.098-10.063.595-14.629.802-4.278.194-8.557.364-12.835.537.201 2.92.398 5.84.612 8.758.275 3.773.301 7.759 1.023 11.516 8.61-2.939 16.324-7.651 22.112-15.185a29.223 29.223 0 0 0 3.717-6.428ZM91.38 201.775c-7.748 1.835-15.08 5.71-19.02 12.799-2.34 4.207-3.368 9.193-3.17 14.106 6.547-.762 13.208-1.051 19.837-1.29.022-1.194.05-2.386.086-3.576l.102-3.05c.18-5.816.271-13.12 2.165-18.989Zm40.099.71-3.41-.383c-9.473-1.08-18.941-2.213-28.414-1.563a54.607 54.607 0 0 0-4.158.448c1.674 6.042 1.534 13.139 2.233 19.12.27 2.313.612 4.606.99 6.891l1.643-.077c10.166-.551 20.341-.889 30.514-1.293-.001-1.91.009-3.821.04-5.733l.038-1.912c.115-4.884-.2-10.385.524-15.498Zm47.57-.776c-9.922 1.602-20.176 1.942-29.922 1.954-3.892.005-7.783-.234-11.671-.579.253 2.071.385 4.165.575 6.207.384 4.126.823 8.245 1.3 12.361l.426 3.601a6905.812 6905.812 0 0 0 37.508-1.814l1.764-.095.494-6.921c.337-4.615.707-9.229 1.23-13.823l-.392-.141a6.476 6.476 0 0 1-1.312-.75Zm4.309 1.718c.546 6.526.849 13.078 1.251 19.614l8.241-.44c1.374-.075 2.747-.151 4.12-.23 5.341-.308 12.203-1.925 17.483-.417.403-4.799-.969-9.475-5.301-12.7-7.605-5.663-17.288-3.647-25.794-5.827Zm-28.157-58.333c12.272-7.028 43.063-14.211 45.013 7.874.897 10.163-6.659 18.583-15.482 22.341l-.331.139c-8.275 3.402-22.942 7.244-30.103-.133-5.96-6.14 1.945-17.149 9.351-12.119 3.806 2.584 11.817.68 16.064-.55l.266-.077c4.583-1.347 10.693-5.658 8.798-11.301-1.677-4.992-8.813-5.904-13.282-6.066-6.671-.239-13.163 1.31-19.773 1.814-1.047.08-1.37-1.436-.521-1.922Zm50.835-35.513c16.656-.78 27.017 17.406 23.187 32.307-.662 2.571-3.538 5.095-6.314 4.806l-.7-.064a6.219 6.219 0 0 1-1.04-.17c-2.636-.73-4.999-3.472-4.807-6.314l.051-.828c.388-7.039-.375-15.149-8.74-16.854-7.095-1.446-11.056 5.383-11.14 11.669-.016 1.116-1.27 1.895-2.257 1.295-5.129-3.121-6.017-9.33-4.058-14.677 2.483-6.775 8.697-10.837 15.818-11.17Zm-123.603 3.9c12.12-4.044 25.198 2.417 31.067 13.133 2.059.596 4.115 2.183 3.829 4.613-.413 3.496-1.035 5.7-3.459 8.351-3.792 4.148-10.893 2.027-12.468-3.078l-.067-.231c-1.79-6.599-9.054-10.953-15.671-8.643-7.73 2.698-7.506 10.862-12.928 15.618-.637.559-1.401.648-2.165.279-5.76-2.783-4.724-11.159-2.671-15.953 2.693-6.291 7.927-11.886 14.533-14.089ZM65.925 76.674c9.822-10.022 35.434-19.72 42.153-1.213 1.28 3.525-1.445 8.278-5.115 9.01-6.01 1.195-11.342-1.414-17.312-.946-4.833.381-9.874 1.996-13.738 4.99-10.702 8.292-13.056 22.317-20.513 32.871-.363.514-1.068.298-1.135-.308-1.698-15.365 4.902-33.428 15.66-44.404Zm128.095-9.866c6.518-2.302 13.899-2.105 20.451-.063 6.6 2.058 12.659 5.966 17.327 11.072 2.118 2.318 4.078 4.876 5.65 7.6.835 1.442 1.713 4.423 2.662 6.198 5.135 2.965 7.329 9.72 2.733 14.525l-.208.211-.615.61c-2.471 2.446-6.197 3.506-9.57 2.529-7.548-2.184-8.465-8.129-11.078-14.439-1.726-4.168-4.683-7.856-8.268-10.565-8.473-6.4-22.366-8.439-32.567-5.423-.543.161-1.181-.53-.794-1.033 1.933-2.504 3.047-4.559 5.635-6.579 2.627-2.05 5.494-3.53 8.642-4.643Z"/></g></svg>