<svg xmlns="http://www.w3.org/2000/svg" width="289" height="293" fill="none" viewBox="0 0 289 293"><g id="face/Smile LOL" fill-rule="evenodd" clip-rule="evenodd"><path id="eye" fill="#fff" d="M55.597 167.617c3.478-7.851 19.136-20.043 19.136-20.043s4.753 26.977 1.067 35.296c-3.038 6.859-13.98 19.237-22.002 15.756-8.024-3.48-3.918-18.103 1.799-31.009Z"/><path id="eye_2" fill="#fff" d="M250.249 160.513c-2.859-6.635-15.73-16.939-15.73-16.939s-3.907 22.799-.877 29.83c2.497 5.797 11.491 16.257 18.086 13.316 6.595-2.941 3.221-15.3-1.479-26.207Z"/><path id="teeth" fill="#fff" d="M116.954 199.231h87.837l5.255 14.516s-65.546 15.212-88.562 5.42l-4.53-19.936Z"/><path id="🖍 Ink" fill="#000" d="M181.748 171.04c8.124-11.38-3.382-22.083-10.934-26.673-1.978-1.42-.408-6.124 3.82-5.397 38.397 6.597 18.502 72.738-30.522 36.443-5.837-4.709 1.231-15.079 7.522-11.047.319.245.654.503 1.002.773 7.068 5.464 19.999 15.462 29.112 5.901ZM104.465 56.502l-1.877.328c-6.076 1.056-12.086 3.358-17.578 6.134-10.29 5.198-20.563 13.728-25.864 24.11-.575 1.127.655 2.669 1.86 1.86 9.183-6.16 17.944-11.77 28.696-14.843a67.73 67.73 0 0 1 14.879-2.534c1.577-.09 3.123-.052 4.637-.015 4.412.11 8.549.212 12.385-2.892 2.929-2.37 2.179-6.973 0-9.449-4.109-4.669-11.33-3.704-17.138-2.7Zm100.165-4.029-1.437-.294c-1.69-.338-3.389-.195-4.882.412a7.448 7.448 0 0 0-3.631 3.13c-1.185 1.993-1.343 3.665-.793 5.875a6.908 6.908 0 0 0 2.573 3.918c1.284.977 2.91 1.547 4.6 1.746 7.794.915 15.469 2.63 22.932 5.064 3.496 1.14 6.796 2.686 10.066 4.29l2.819 1.388c2.6 1.272 5.286 2.497 8.68 3.387.267.07.53.136.792.198.83-.26 1.052-.57 1.23-.817l.07-.096.081-.102c.242-.304.541-.77.258-2.941-7.405-15.36-27.721-21.889-43.358-25.158Zm-81.351 75.551c-3.038 1.774-6.285.914-8.873-1.145-1.601-1.273-2.815-2.902-4.032-4.534-1.427-1.913-2.858-3.832-4.92-5.189-3.232-2.128-7.564-2.24-11.28-1.625-5.578.924-10.395 3.556-15.226 6.196-2.735 1.495-5.475 2.992-8.36 4.183-1.12.462-1.775-.973-1.399-1.818 4.834-10.864 14.927-20.554 26.933-22.495 12.555-2.03 26.138 6.239 30.521 18.158 1.106 3.007-.731 6.731-3.364 8.269Zm119.284-12.662c.259.096.52-.196.444-.444-3.174-10.326-15.131-14.673-25.166-13.812-6.21.533-11.918 2.804-16.626 6.95-4.49 3.955-7.987 11.439-3.923 16.911 4.179 5.626 12.757 3.807 13.246-3.587.316-4.795 8.567-7.754 12.747-8.492 6.491-1.145 13.206.223 19.278 2.474Zm-116.228 99.045c2.94 1.164 27.8 2.307 42.48 1.637 10.01-.45 35.976-6.518 35.976-9.121 0-2.604-1.106-4.956-2.056-4.857-3.864.417-34.631.756-56.294.995-9.571.105-17.365.191-20.276.255-1.43.031-2.93 0-4.45-.04-1.053 3.258 1.68 9.966 4.62 11.131Zm49.768-18.947c11.556-.101 25.59-.222 35.592.367 3.57.21 5.33 5.31 5.58 7.73 2.37 22.49-15.59 40.43-35.42 47.38-18.4 6.45-42.7 7.67-59.11-4.38-7.13-5.23-12.53-12.48-16.05-20.55-1.9-4.35-3.29-8.86-4.06-13.54-.074-.442-.155-.904-.239-1.38-.592-3.363-1.309-7.435-.161-10.51 1.662-4.423 6.062-4.472 10.104-4.516h.001c.335-.004.667-.007.995-.014 1.627-.033 3.254-.068 4.882-.103h.005c4.29-.093 8.579-.187 12.863-.237 9.223-.104 18.446-.131 27.665-.158 3.206-.01 6.41-.019 9.615-.032 2.378-.011 4.984-.034 7.729-.057h.009Zm-103.68-16.348c-1.502 5.768-4.665 12.475-10.027 15.618-2.87 1.683-7.126 2.303-8.78-1.154-3.085-6.451 1.24-16.398 3.868-22.2 2.203-4.868 4.98-9.513 8.346-13.67 1.846-2.281 3.892-4.375 5.95-6.461.404-.409.838-.787 1.267-1.161.602-.523 1.195-1.04 1.686-1.625-1.507 3.382-1.568 7.796-1.583 11.141-.009 1.808.06 3.614.128 5.418.18 4.729.357 9.436-.855 14.094Zm9.87-32.47c-.247-1.968-2.036-3.278-3.95-2.266-1.112.588-1.975 1.42-2.661 2.397.014-.044.03-.087.045-.129.03-.086.061-.172.083-.265.035-.158-.047-.377-.23-.404-4.428-.665-10.102 5.469-13.223 8.843l-.001.001-.621.67c-4.41 4.722-8.347 10.159-11.054 16.039-3.452 7.501-7.18 18.839-2.437 26.613 6.596 10.812 20.417 2.655 25.657-4.814 4.39-6.258 6.66-13.887 6.915-21.486.075-2.235-.013-4.469-.102-6.703-.083-2.115-.167-4.23-.112-6.346.046-1.775.468-3.561.889-5.339.544-2.298 1.084-4.583.803-6.811Zm158.04 36.344c3.093 2.831 8.467 3.88 12.061 1.209 4.775-3.548.659-10.072-1.975-14.245-.265-.421-.516-.818-.74-1.185a1574.055 1574.055 0 0 1-10.738-17.854c-.642-1.082-1.401-2.216-2.188-3.386-.253 1.686-.573 3.338-.866 4.854-.256 1.326-.493 2.548-.646 3.596-1.297 8.841-2.216 20.323 5.092 27.011Zm12.934-25.443c3.505 5.521 7.185 11.319 8.785 17.403 3.104 11.808-7.142 20.474-18.499 17.938-11.851-2.646-16.251-16.428-16.001-27.193.115-4.956 1.146-9.979 2.148-14.862.137-.669.274-1.336.408-1.999.272-1.353.471-2.755.67-4.165.278-1.965.558-3.947 1.046-5.837-.556-1.536-.883-3.09-.825-4.645.092-2.473 2.573-3.787 4.726-2.712 3.061 1.529 4.654 4.369 6.271 7.253.332.59.664 1.183 1.011 1.767l3.543 5.972 3.544 5.972c.994 1.675 2.075 3.378 3.173 5.108Z"/></g></svg>