<svg xmlns="http://www.w3.org/2000/svg" width="289" height="293" fill="none" viewBox="0 0 289 293"><g id="face/Smile"><path id="🖍 Ink" fill="#000" fill-rule="evenodd" d="M146.587 240.927c-6.723-2.743-12.721-7.317-17.106-13.161-1.524-2.031-1.92-4.176-1.6-6.138.36-2.207 1.665-4.206 3.445-5.547 1.786-1.346 4.019-2.009 6.178-1.671 1.877.294 3.744 1.321 5.223 3.452l.308.426c2.607 3.527 6.005 6.421 9.875 8.286 3.731 1.798 7.904 2.637 12.222 2.149 8.224-.929 13.892-5.377 19.917-11.416.747-.763 1.494-1.549 2.245-2.348a3.53 3.53 0 0 1 1.863-1.435 4.01 4.01 0 0 1 2.569.038 4.07 4.07 0 0 1 2.021 1.533c.462.678.724 1.515.639 2.479-.551 6.259-3.824 11.845-8.472 16.231-5.162 4.872-12.005 8.242-18.448 9.424-7.098 1.302-14.33.369-20.879-2.302Zm24.227-96.56c7.552 4.59 19.058 15.293 10.934 26.673-9.562 10.033-23.33-1.471-30.114-6.674-6.291-4.032-13.359 6.338-7.522 11.047 49.024 36.295 68.919-29.846 30.522-36.443-4.228-.727-5.798 3.977-3.82 5.397Zm-87.85-42.221c.834-10.356 16.606-12.708 18.175-2.46 1.405 9.18-.249 17.613-4.384 25.878-3.95 7.896-13.881 4.213-14.632-2.977-1.007-9.638.321-13.998.84-20.441Zm120.063-4.585c2.199-2.88 5.374-4.846 9.178-3.735 11.885 3.474 8.382 20.346 4.208 28.559-2.268 4.46-9.599 5.591-12.912 1.664-5.4-6.404-7.986-19.193-1.121-25.5.186-.327.393-.656.647-.988Zm-106.44-40.73 1.878-.33c5.808-1.004 13.029-1.969 17.138 2.7 2.179 2.477 2.929 7.078 0 9.449-5.152 4.17-10.848 2.553-17.022 2.906a67.731 67.731 0 0 0-14.88 2.535C72.95 77.165 64.19 82.775 55.007 88.935c-1.205.808-2.435-.734-1.86-1.86 5.3-10.383 15.574-18.913 25.864-24.111 5.492-2.776 11.502-5.078 17.578-6.133Zm95.606-4.652 1.437.294c15.637 3.269 35.953 9.798 43.358 25.158.283 2.172-.016 2.637-.258 2.941l-.081.102c-.199.26-.359.617-1.3.913a36.069 36.069 0 0 1-.792-.198c-3.394-.89-6.08-2.115-8.68-3.387l-2.819-1.389c-3.27-1.603-6.57-3.148-10.066-4.29-7.462-2.433-15.138-4.148-22.932-5.063-1.69-.199-3.316-.769-4.6-1.746a6.908 6.908 0 0 1-2.573-3.918c-.55-2.21-.392-3.882.793-5.875a7.448 7.448 0 0 1 3.631-3.13c1.493-.607 3.192-.75 4.882-.412Z" clip-rule="evenodd"/></g></svg>