<svg xmlns="http://www.w3.org/2000/svg" width="289" height="293" fill="none" viewBox="0 0 289 293"><g id="face/Smile Teeth Gap" fill-rule="evenodd" clip-rule="evenodd"><path id="teeth" fill="#fff" d="M97.784 210.376c16.751-11.225 101.531-9.029 109.355-.417 7.825 8.611 25.909 33.189-12.827 45.26-38.736 12.07-86.686 7.841-99.178-6.936l-.737-.883c-11.813-14.369-13.028-26.024 3.387-37.024Z"/><path id="🖍 Ink" fill="#000" d="M170.814 144.367c7.552 4.59 19.058 15.293 10.934 26.673-9.562 10.033-23.33-1.471-30.114-6.674-6.291-4.032-13.359 6.339-7.522 11.047 49.024 36.295 68.919-29.846 30.522-36.443-4.228-.727-5.798 3.977-3.82 5.397Zm-68.226-87.536 1.877-.33.962-.162c5.625-.93 12.291-1.552 16.176 2.863 2.179 2.476 2.929 7.078 0 9.448-5.152 4.17-10.848 2.553-17.022 2.906a67.73 67.73 0 0 0-14.88 2.535C78.95 77.165 70.19 82.775 61.007 88.935c-1.205.808-2.435-.734-1.86-1.86 5.3-10.383 15.574-18.913 25.864-24.111 5.492-2.776 11.502-5.078 17.578-6.133Zm49.737 143.44c16.432 1.193 52.042-6.651 66.828 5.115C274.88 274.973 53.95 292.864 77.81 215.877c15.197-24.893 50.152-14.888 74.515-15.606Zm-2.817 42.009c-4.064-.331-8.996 2.888-10.189 5.375-1.193 2.488-.732 7.745-.696 8.656 7.105.716 14.272.825 21.397.358-1.851-6.123-1.911-13.462-10.512-14.389Zm32.806 10.272c-1.142-7.6-6.578-9.4-10.978-8.259-4.501 1.166-7.143 6.347-6.857 10.96.019.318-.165.588-.286.844a122.917 122.917 0 0 0 18.121-3.545Zm-50.394-8.896c-2.562-3.898-8.684-5.779-12.605-5.092-6.403 1.348-7.161 9.484-7.161 11.142 5.903 2.25 12.17 3.744 18.162 4.934 1.203.238 2.409.451 3.617.652l.079-.988c.145-2.117.254-7.08-2.092-10.648Zm72.429-.643c-6.565-10.157-20.677-2.885-19.511 8.211 1.254-.395 2.502-.808 3.744-1.241 5.158-1.798 10.816-3.935 15.767-6.97Zm-51.685-34.996c-8.832-.795-16.077-.527-21.837.541l-.175 1.924c-.637 6.671-1.459 13.23 2.044 15.914 2.845 2.18 12.288 1.972 18.62.394 1.564-.394 3.597-14.23 1.348-18.773Zm13.657-.795c-1.416 6.575-2.081 14.558.761 16.929 3.001 2.503 12.662 2.164 15.189.496 2.211-1.459 2.155-8.173 1.334-15.711-4.893-1.153-13.413-1.714-17.284-1.714Zm-39.4 1.402-2.892.026-1.637.022c-4.139.073-8.605.312-12.826 1.233-8.386 18.123 22.239 21.251 17.509-.611l-.154-.67Zm60.58.437-.053 1.027c-.252 5.09-.085 11.794 2.735 13.604 4.15 2.663 11.943 2.149 16.164-10.169-1.397-3.675-16.213-4.193-18.846-4.462ZM106.224 101c1.773 0 3.469.602 5.013 1.716 1.521 1.096 2.897 2.696 4.043 4.691 2.169 3.776 3.525 8.989 3.525 14.753 0 5.765-1.356 10.978-3.525 14.754-1.146 1.995-2.522 3.595-4.043 4.691-1.544 1.113-3.24 1.715-5.013 1.715-1.773 0-3.469-.602-5.014-1.715-1.52-1.096-2.896-2.696-4.042-4.691-2.17-3.776-3.525-8.989-3.525-14.754 0-5.764 1.356-10.977 3.525-14.753 1.146-1.995 2.522-3.595 4.042-4.691 1.545-1.114 3.241-1.716 5.014-1.716Zm112.24 0c1.773 0 3.469.602 5.014 1.716 1.52 1.096 2.896 2.696 4.042 4.691 2.169 3.776 3.525 8.989 3.525 14.753 0 5.765-1.356 10.978-3.525 14.754-1.146 1.995-2.522 3.595-4.042 4.691-1.545 1.113-3.241 1.715-5.014 1.715-1.773 0-3.469-.602-5.014-1.715-1.52-1.096-2.896-2.696-4.042-4.691-2.169-3.776-3.525-8.989-3.525-14.754 0-5.764 1.356-10.977 3.525-14.753 1.146-1.995 2.522-3.595 4.042-4.691 1.545-1.114 3.241-1.716 5.014-1.716Zm-15.271-48.82 1.437.294.953.202c15.5 3.334 35.15 9.906 42.405 24.955.283 2.172-.016 2.637-.258 2.941l-.081.102c-.199.26-.359.617-1.3.913a36.062 36.062 0 0 1-.792-.198c-3.394-.89-6.08-2.115-8.68-3.387l-2.819-1.389c-3.27-1.603-6.57-3.148-10.066-4.29-7.462-2.433-15.138-4.148-22.932-5.063-1.69-.199-3.316-.769-4.6-1.746a6.908 6.908 0 0 1-2.573-3.918c-.55-2.21-.392-3.882.793-5.875a7.449 7.449 0 0 1 3.631-3.13c1.493-.607 3.192-.75 4.882-.412Z"/></g></svg>