<svg xmlns="http://www.w3.org/2000/svg" width="289" height="293" fill="none" viewBox="0 0 289 293"><g id="face/Solemn"><path id="🖍 Ink" fill="#000" fill-rule="evenodd" d="M182.162 217.944c-6.343-3.052-13.599-2.841-20.251-.822-7.874 2.392-14.846 7.36-21.051 12.649-2.421 2.064-4.721 4.395-7.031 6.738-2.934 2.977-5.878 5.983-9.147 8.42 1.078-9.183 7.522-18.508 13.055-25.253 6.789-8.273 16.243-14.979 26.463-18.222 10.884-3.455 22.114-1.556 30.928 4.053 8.734 5.558 15.095 14.763 16.377 26.02.269 2.365-.836 4.529-2.476 6.169-1.913 1.913-4.599 3.173-7.104 3.173-2.556 0-4.823-1.03-6.505-2.671a10.281 10.281 0 0 1-3.05-6.706c-.108-2.766-.749-5.188-3.073-8.106-1.561-1.959-4.496-4.172-7.135-5.442Zm16.127-96.642c-2.632.957-5.69 3.268-6.579 5.798a5.393 5.393 0 0 0-.314 1.703c-.857-1.741-1.183-3.792-1.071-5.821.354-6.446 6.502-11.124 11.739-13.858a19.753 19.753 0 0 1 5.679-1.957l6.745-1.203-6.333-2.615a63.067 63.067 0 0 1-16.205-9.789c-4.669-3.876-8.985-8.89-11.518-14.42-1.144-2.499-2.042-4.942-2.671-7.582l-.169-.742c-.309-1.422-.648-2.148-1.028-2.953-.222-.472-.465-.98-.725-1.807-.146-.464-.228-.853-.092-1.156.132-.293.452-.419.765-.537 2.067-.782 5.398-.25 6.812.316 3.419 1.367 6.424 4.346 9.316 7.137 1.411 1.361 2.793 2.692 4.166 3.83 8.759 7.262 19.692 11.393 30.376 12.401l.642.057c2.826.232 5.446 1.345 7.302 3.201 1.66 1.66 2.685 3.918 2.685 6.622 0 2.634-1.185 5.17-3.027 7.011-1.758 1.759-4.136 2.898-6.718 2.806a55.527 55.527 0 0 1-5.402-.466l-6.65-.891 5.077 4.387a18.346 18.346 0 0 1 2.808 3.029c4.626 6.3 6.612 15.903 6.44 23.613a9.151 9.151 0 0 1-1.189 4.296c-.655 1.142-1.576 2.128-2.764 2.743-1.421.738-2.624 1.131-4.243 1.162a6.996 6.996 0 0 1-4.476-1.455c-1.532-1.166-2.657-2.886-3.43-4.763-1.027-2.496-1.088-5.131-1.19-7.766-.07-1.821-.146-3.645-.449-5.442-.433-2.295-1.471-5.22-2.78-6.143-1.933-1.364-7.075-.314-10.269.803l-1.26.451Zm-27.474 23.065c7.551 4.59 19.057 15.293 10.933 26.673-9.562 10.033-23.329-1.471-30.114-6.674-6.29-4.032-13.358 6.338-7.522 11.047 49.024 36.295 68.919-29.846 30.522-36.443-4.228-.727-5.798 3.977-3.819 5.397Zm-53.561-14.571c-2.064-2.328-4.074-4.498-7.178-5.734-3.673-1.464-8.123-1.621-11.944-.524-4.331 1.243-7.76 4.115-10.302 7.782-2.232 3.223-3.77 7.058-4.646 10.841-1.636-1.798-2.402-3.876-2.771-5.99-.608-3.48-.177-7.066 1.009-10.477 2.64-7.593 9.003-14.344 16.422-17.25 8.47-3.318 18.95-2.21 26.731 2.461 3.97 2.385 8.545 6.522 10.85 10.568 1.574 2.766 1.665 5.629.664 8.089-1.101 2.707-3.478 4.906-6.513 6.009-1.437.524-2.917.482-4.321.11-1.827-.483-3.534-1.514-4.926-2.716-1.16-1-2.127-2.099-3.075-3.169Zm12.656-47.89c-1.739 2.326-4.299 3.515-6.967 3.64a9.9 9.9 0 0 1-.819.004l-.59.674c-.521.593-.862.983-1.217 1.36a60.21 60.21 0 0 1-4.036 3.91c-3.128 2.764-6.497 5.188-10.142 7.223-6.383 3.566-13.384 6.347-20.583 7.675-7.144 1.317-14.195 1.722-21.389.69l-1.745-.251c-4.155-.609-9.602-1.403-13.015-3.977 1.344-.428 2.705-.449 4.033-.507a55.289 55.289 0 0 0 2.59-.156c4.026-.366 7.938-1.034 11.836-2.113C75.443 97.981 82.31 95.085 89 90.935c6.559-4.067 12.582-9.604 17.38-15.668l.575-.736c.245-.316.486-.632.726-.945 1.963-2.565 3.766-5.01 6.815-6.637 2.416-1.289 4.861-1.637 7.212-1.266 2.728.43 5.318 1.803 7.613 3.725 1.697 1.42 2.482 3.467 2.607 5.565.147 2.469-.604 5.04-2.018 6.933Z" clip-rule="evenodd"/></g></svg>