<svg xmlns="http://www.w3.org/2000/svg" width="289" height="293" fill="none" viewBox="0 0 289 293"><g id="face/Suspicious"><path id="🖍 Ink" fill="#000" fill-rule="evenodd" d="M155.884 250.932c7.559-1.052 15.687-5.333 22.907-1.854 3.375 1.626 4.977 7.187 2.695 10.278-3.485 4.721-7.083 5.502-12.74 5.956-4.241.34-8.505.365-12.735-.124l-1.076-.132c-7.548-.974-15.393-3.081-21.24-8.153-1.196-1.038-.583-3.28.952-3.604 6.944-1.461 14.208-1.388 21.237-2.367Zm-8.897-17.406c-.003-.061.09-.061.093 0 .183 4.32 1.397 8.325 3.641 12.021.031.053-.05.1-.081.048a25.003 25.003 0 0 1-3.653-12.069Zm23.827-89.159c7.552 4.59 19.058 15.293 10.934 26.673-9.562 10.033-23.329-1.471-30.114-6.674-6.291-4.032-13.359 6.339-7.522 11.047 49.024 36.295 68.919-29.846 30.522-36.443-4.228-.727-5.798 3.977-3.82 5.397ZM209.464 93c1.773 0 3.469.602 5.014 1.716 1.52 1.096 2.896 2.696 4.042 4.69 2.169 3.777 3.525 8.99 3.525 14.754 0 5.765-1.356 10.978-3.525 14.754-1.146 1.995-2.522 3.595-4.042 4.691-1.545 1.113-3.241 1.715-5.014 1.715-1.773 0-3.469-.602-5.014-1.715-1.52-1.096-2.896-2.696-4.042-4.691-2.169-3.776-3.525-8.989-3.525-14.754 0-5.764 1.356-10.977 3.525-14.753 1.146-1.995 2.522-3.595 4.042-4.691 1.545-1.114 3.241-1.716 5.014-1.716Zm-82.117 5.88.667-.127c3.895-.708 5.863-.47 9.255 2.185 2.549 1.995 1.819 5.924 0 8.022-3.169 3.656-6.264 3.008-10.604 3.148l-.305.011c-3.617.147-7.237.25-10.857.305-.99.016-1.981.012-2.971.018.105 9.161-5.177 16.136-12.133 21.439-4.496 3.429-10.183-.527-11.787-4.795-1.327-3.532-1.612-7.875-.924-11.742.255-1.426.786-2.973 1.598-4.292l.229-.354-.037-.506c-.01-.125 0-.246-.004-.371-6.458-.393-12.878-1.04-19.296-1.854l-2.14-.277c-5.477-.725-13.522-.958-17.955-4.521-.14-.114-.09-.363.058-.442 2.437-1.313 4.91-1.238 7.635-1.359l.39-.019c2.965-.153 5.922-.281 8.884-.382l2.965-.093c7.582-.217 15.17-.585 22.746-.988 1.317-.07 2.634-.153 3.953-.234 1.379-.578 2.845-.924 4.293-.988a9.844 9.844 0 0 1 3.439.457 637.76 637.76 0 0 0 8.294-.697l2.763-.256c3.898-.371 7.996-.533 11.844-1.288Zm47.868-68.66c8.333-4.095 18.465-4.195 27.047-.806l.569.23c8.668 3.597 19.112 11.905 16.85 22.254-2.069 9.472-16.926 7.867-17.679-1.086-4.797-6.646-15.554-8.104-22.316-3.878-4.101 2.564-6.916 6.88-8.84 11.235-1.64 3.708-1.949 8.287-4.468 11.517-.082.105-.246.124-.365.096-7.512-1.738-7.686-13.675-6.405-19.465 1.861-8.418 7.834-16.275 15.607-20.097Z" clip-rule="evenodd"/></g></svg>