<svg xmlns="http://www.w3.org/2000/svg" width="289" height="293" fill="none" viewBox="0 0 289 293"><g id="face/Tired"><path id="🖍 Ink" fill="#000" fill-rule="evenodd" d="M189.06 229.111c6.32-1.473 11.284 3.879 10.042 10.042-1.315 6.524-8.33 8.76-14.212 8.555-6.669-.231-13.333-1.608-20.035-1.885a303.547 303.547 0 0 0-20.685-.15c-6.372.172-12.912 1.295-19.234.287-2.462-.393-2.229-3.643-.627-4.798 4.756-3.43 10.92-4.828 16.526-6.267 5.716-1.468 11.559-2.592 17.421-3.278 5.943-.695 11.935-1.042 17.917-1.11 2.723-.031 6.062.574 8.717.084 1.353-.251 2.731-1.144 4.17-1.48Zm-18.246-84.744c7.552 4.59 19.058 15.293 10.934 26.673-9.562 10.033-23.329-1.471-30.114-6.674-6.29-4.032-13.358 6.339-7.522 11.047 49.024 36.295 68.919-29.846 30.522-36.443-4.228-.727-5.798 3.977-3.82 5.397Zm-54.755-34.275c10.101-1.68 11.868 12.72 1.857 13.726-2.101.211-4.19.395-6.275.578.203.652.338 1.323.412 2.013.095.586.166 1.208.229 1.919.317 3.543-2.195 7.227-5.13 8.945-3.05 1.785-7.428 2.023-10.457 0-1.562-1.044-3.122-2.221-3.983-3.947a11.493 11.493 0 0 1-1.849-5.931c-4.605 1.196-9.294 2.813-13.945 3.67.171.168.34.347.502.544.124.151-.046.434-.227.295l-2.333-.517c-.718.094-1.436.171-2.152.216l.017-.063c-1.197-.021-2.177-1.436-1.106-2.568 4.11-4.344 10.521-7.23 16.367-9.644l5.632-2.309c7.202-2.927 14.805-5.657 22.441-6.927Zm81.261 4.454c6.616-.755 13.167-.455 19.794-.051 11.153.679 6.475 16.943-2.477 13.188.092.595.116 1.191.047 1.746-.35 2.859-1.282 5.275-3.906 6.811-2.437 1.426-5.526 1.422-7.963 0-2.61-1.522-3.787-3.667-4.453-6.454-.516-2.161-.309-3.969-.011-6.109.099-.709.408-1.37.836-1.964a82.291 82.291 0 0 0-1.875-.448c-5.566-1.266-11.057-1.012-16.607-1.814-.592-.086-.686-1.042-.168-1.285 4.987-2.343 11.327-2.998 16.783-3.62Zm-82.28-50.23c3.818-1.458 8.614.965 10.563 4.298 2.212 3.782 1.267 8.148-1.463 11.335-4.188 4.89-12.164 7.901-18.041 10.69l-.472.226c-6.036 2.912-12.237 5.586-18.522 7.916-6.181 2.293-12.611 4.089-19.02 5.631-3.378.813-6.83 1.485-10.282 1.909-2.726.334-4.828-.414-7.436-.414-.381.001-.5-.504-.19-.698 2.438-1.532 4.247-3.549 6.905-4.968a678.761 678.761 0 0 1 8.334-4.367c5.637-2.906 11.065-6.14 16.503-9.395 5.732-3.43 11.334-7.044 16.782-10.912 5.331-3.785 10.244-8.927 16.339-11.252Zm68.036-3.113c4.768-.925 9.49 1.331 10.901 6.19 1.353 4.656-.062 5.653 3.547 8.984 2.877 2.655 5.979 5.025 9.11 7.358l4.607 3.425c8.345 6.178 16.76 12.018 26.355 16.187.811.352.342 1.557-.427 1.573-15.254.294-29.881-1.771-43.65-8.6-6.432-3.19-12.894-7.225-16.621-13.593-4.317-7.374-4.191-19.514 6.178-21.524Z" clip-rule="evenodd"/></g></svg>