<svg xmlns="http://www.w3.org/2000/svg" width="289" height="293" fill="none" viewBox="0 0 289 293"><g id="face/Very Angry"><path id="🖍 Ink" fill="#000" fill-rule="evenodd" d="M195.648 205.743c-8.387-4.454-18.227-3.7-26.648.278-10.294 4.863-18.253 12.848-25.303 21.629-2.707 3.371-5.239 6.886-7.769 10.398a596.052 596.052 0 0 1-3.134 4.324c-.205.269-.431.558-.669.864-1.685 2.166-3.986 5.161-4.866 7.879-.354 1.091-.485 2.144-.326 3.104.076.464.219.909.437 1.33-1.344.347-2.241.016-2.861-.651-.983-1.057-1.327-2.644-1.341-4.466-.05-6.526 4.253-16.04 6.01-19.96.181-.404.336-.75.458-1.03 6.355-14.539 16.52-28.703 30.652-36.54 13.692-7.592 29.897-9.027 44.063-1.849 15.649 7.93 19.919 23.634 21.692 39.773.272 2.472-.847 4.753-2.567 6.473-1.942 1.942-4.67 3.199-7.22 3.199-2.648 0-5.072-1.121-6.844-2.894-1.788-1.787-2.917-4.24-2.937-6.898l-.017-1.548c-.082-5.389-.46-10.449-2.416-14.74-1.573-3.449-4.147-6.419-8.394-8.675Zm-20.834-72.376c7.551 4.59 19.057 15.293 10.934 26.673-9.562 10.033-23.33-1.471-30.114-6.674-6.291-4.032-13.359 6.338-7.522 11.047 49.023 36.295 68.918-29.846 30.521-36.443-4.227-.727-5.797 3.977-3.819 5.397Zm-63.564 1.507c-2.035.996-4.29 1.4-6.502.938-1.981-.413-3.917-1.523-5.632-3.479-2.353-2.689-4.062-6.507-2.92-10.15l.326-.937c.387-1.09.908-2.112 1.542-3.038.407-1.985.489-3.284.566-4.519.02-.315.039-.626.06-.936.123-1.729.376-3.538.956-5.202.11-.314.231-.624.362-.931l-.974-.342a316.544 316.544 0 0 1-6.702-2.434c-6.325-2.391-12.579-5.087-18.633-8.103-2.991-1.49-5.907-3.167-8.785-4.864-1.375-.914-4.39-3.043-5.743-4.189l-1.026-.87-.537 1.234c-.578.581-1.043.627-1.435.496-.42-.14-.733-.472-.929-.87a2.5 2.5 0 0 1-.185-1.629c.112-.508.39-.998.857-1.384 1.784-1.47 4.3-.833 6.39-.422.299.058.59.115.874.167 3.251.594 6.494 1.301 9.724 2.032l3.888.885 4.45 1.019c16.846 3.86 33.664 7.712 50.88 9.404l1.814.17c3.069.274 5.8 1.577 7.599 3.653 1.657 1.911 2.503 4.475 2.101 7.448a9.757 9.757 0 0 1-4.283 6.833 9.709 9.709 0 0 1-7.939 1.308 542.002 542.002 0 0 1-15.983-4.54l1.242 2.949c1.067 2.569 2.052 5.231 2.168 7.949.108 2.553-.641 5.025-1.937 7.139-1.38 2.251-3.381 4.102-5.654 5.215Zm120.102-61.445c-1.318 1.8-2.833 3.336-4.342 4.876-3.26 3.325-6.519 6.65-10.01 9.744-1.266 1.122-2.545 2.228-3.824 3.333l-1.425 1.233-.746.647.638.755c.172.202.334.411.469.633 1.918 3.14 2.983 6.547 4.061 9.964.739 2.342 1.481 4.689 2.477 6.969l.322.714c1.297 2.79 1.646 5.703.957 8.331-.649 2.476-2.224 4.686-4.75 6.295-.635.405-1.719.875-2.453 1.038-2.895.642-5.826.194-8.222-1.166-2.291-1.3-4.086-3.437-4.883-6.24-1.175-4.141-1.931-8.348-1.891-12.448a34.09 34.09 0 0 1 .087-2.09 7.144 7.144 0 0 1-1.578 1.21c-1.856 1.048-3.952 1.151-5.924.616-2.23-.606-4.308-2.023-5.746-3.875-1.267-1.631-2.042-3.607-1.942-5.672.087-1.803.848-3.66 2.475-5.408l1.535-1.564c1.142-1.158 2.714-2.05 4.389-2.5 1.538-.414 3.167-.458 4.63.04 1.971-.539 3.25-1.175 4.437-1.766.845-.421 1.643-.82 2.353-1.129a700.24 700.24 0 0 0 10.352-4.603c2.981-1.356 6.009-2.608 9.037-3.86 3.191-1.32 6.381-2.638 9.517-4.077Z" clip-rule="evenodd"/></g></svg>