<svg width="457" height="3351" viewBox="0 0 457 3351" fill="none" xmlns="http://www.w3.org/2000/svg">
<path d="M0 2970.2V2589.4L15.4224 2574.92C28.0769 2563.39 41.3521 2552.48 55.1956 2542.22L95.2426 2512.26C113.436 2498.65 139.91 2474.27 148.495 2463.23C177.337 2426.13 184.719 2381.73 168.852 2340.79C156.264 2308.31 129.949 2280.45 96.4343 2264.14C90.1253 2261.07 77.9022 2255.94 69.2672 2252.74C50.9647 2245.95 44.1318 2242.82 33.3267 2236.28C21.9209 2229.37 11.4361 2221.04 5.3295 2214.04L0.00324706 2207.92V1641.67L8.39039 1642.33C19.1392 1643.16 41.4444 1641.22 57.3625 1638.06C102.633 1629.05 151.316 1606.79 196.432 1574.46C230.93 1549.73 258.274 1536.97 290.66 1530.49C307.079 1527.2 335.199 1527.18 351.022 1530.45C381.003 1536.63 411.32 1550.92 439.667 1572.23L448.053 1578.54V2916.01L441.546 2928.54C434.886 2941.37 420.842 2963.95 413.73 2973.26C398.401 2993.32 383.029 3007.47 362.01 3020.84C354.916 3025.73 348.193 3031.06 341.889 3036.82C324.216 3052.94 313.795 3067.74 307.259 3085.99C304.306 3094.24 303.716 3097.57 303.275 3108.46C302.638 3124.2 304.858 3133.92 312.226 3147.66C321.449 3164.86 333.324 3176.56 372.348 3206.87C410.465 3236.49 429.279 3256.64 443.253 3282.85L448.049 3291.84V3351H0V2970.2ZM439.79 1559.21C379.733 1510.34 296.399 1480.85 189.789 1470.76C168.75 1468.77 163.07 1467.86 147.598 1464.03C123.43 1458.03 102.275 1448.77 78.021 1433.59C53.8845 1418.47 29.4234 1397.7 8.76887 1374.75L0.368735 1365.42L0.652312 1242.79L0.935889 1120.16L5.19819 1111.07C17.8531 1084.11 39.1375 1059.51 72.0994 1033.79C103.265 1009.45 109.691 1004.2 118.087 996.179C129.447 985.33 135.652 977.518 141.051 967.269C163.292 925.048 141.457 873.985 85.9589 838.421C78.6955 833.782 71.7486 828.717 65.1594 823.257C45.7853 806.045 22.4271 773.036 6.7243 740.682L0.935889 728.764L0.634995 605.944C0.469395 538.394 0.574382 482.19 0.8677 481.046C1.62535 478.118 12.2552 468.12 19.6227 463.413C41.2372 449.605 67.4431 442.687 109.161 439.778C118.088 439.155 130.356 438.005 136.421 437.221C202.994 428.619 251.902 390.294 263.461 337.671C266.534 323.682 265.937 305.36 261.935 290.822C253.91 262.001 234.954 236.947 208.649 220.392C182.962 204.29 151.27 193.937 94.1426 182.985C48.6838 174.269 31.6628 170.057 12.5701 162.793L0.394712 158.16L0.935889 0H447.532C447.532 0 503.823 430.633 341.9 518.289C179.977 605.944 276.806 689.523 354.115 728.764C431.423 768.005 440.751 795.291 435.357 852.486C429.962 909.681 414.444 912.229 400.135 922.931C385.828 933.633 370.544 942.394 370.532 964.867C370.52 987.018 366.503 1011.29 360.019 1028.38C354.969 1040.74 348.409 1052.5 340.47 1063.41C330.906 1075.97 323.632 1083.2 301.803 1101.82C271.48 1127.68 263.379 1135.89 255.979 1148.25C245.827 1165.2 242.582 1188.71 246.563 1216.48C253.559 1265.3 277.076 1297.08 331.567 1331.32C337.817 1335.26 353.889 1344.55 367.285 1352.01C380.682 1359.45 394.071 1367.18 397.05 1369.19C410.202 1378.08 429.729 1398.1 441.967 1415.24L448.47 1424.34L448.192 1495.08L447.914 1565.81L439.79 1559.21Z" fill="white"/>
</svg>
