<svg width="455" height="3342" viewBox="0 0 455 3342" fill="none" xmlns="http://www.w3.org/2000/svg">
<path d="M0.489464 2928.57V2515.13L11.5364 2508.08C17.6123 2504.2 31.8002 2495.52 43.0616 2488.8C69.6233 2472.94 79.5924 2466.46 92.1042 2456.97C113.023 2441.09 125.177 2425.59 130.704 2407.74C142.777 2368.75 128.204 2326.26 93.7188 2299.89C81.7902 2290.78 74.5609 2287.19 57.0716 2281.77C37.8383 2275.78 23.9135 2268.66 7.2595 2256.26L0.560606 2251.26L0.523958 1918.65C0.494859 1652.96 -0.605636 1585.8 0.472222 1586.19C1.21271 1586.47 7.79088 1588.89 13.4216 1591.15C31.4962 1598.44 42.9258 1600.82 60.3084 1600.91C92.4437 1601.07 105.313 1594.34 159.465 1549.12C180.8 1531.3 202.579 1516.98 219.286 1509.8C239.915 1500.94 255.115 1497.83 281.263 1497.15C307.801 1496.46 320.919 1497.9 366.497 1506.56C395.637 1512.08 404.477 1513.38 415.985 1513.81C429.699 1514.33 431.769 1514.09 444.277 1510.51L446.702 1509.82V2966.71L441.192 2974.26C429.575 2989.9 416.65 3004.64 402.541 3018.34C385.985 3034.69 379.759 3043.05 372.894 3058.1C366.916 3071.22 364.637 3080.85 364.007 3095.69C363.342 3111.38 365.139 3121.83 370.552 3133.71C376.144 3145.99 381.452 3152.44 401.457 3171.29C422.18 3190.81 430.976 3201.54 440.731 3219.19L446.701 3229.99V3342H0.488387L0.489464 2928.57ZM440.026 1576.35C422.111 1559.11 387.228 1538.52 357.575 1527.68C334.742 1519.33 300.719 1509.83 280.901 1506.27C252.587 1501.19 242.939 1500.01 206.146 1497.15C104.842 1489.26 52.9634 1471.25 8.09544 1428.36L0.81128 1421.39L1.08937 1241.08L1.36745 1060.76L8.51042 1047.05C19.1705 1026.57 28.0197 1015.41 51.8618 992.318C70.3514 974.415 73.0277 971.382 77.5472 963.204C84.3291 950.934 87.0863 941.375 87.7945 927.659C88.9618 905.068 81.6851 881.56 66.9734 860.396C64.7218 857.154 56.7759 848.559 49.3149 841.294C30.2153 822.695 18.4946 809.139 6.35578 791.609L0.828522 783.626V415.16L4.33156 412.645C11.3581 407.599 23.0227 398.313 39.3243 397.576C46.6537 397.279 45.9854 396.595 68.3692 397.576C90.7531 398.558 116.254 396.708 136.91 391.103C192.357 376.058 221.522 338.888 215.393 291.098C212.292 266.937 202.998 248.024 187.111 233.57C165.783 214.163 139.341 204.855 73.4438 193.573C38.379 187.57 22.03 184.289 9.71978 180.783L0.828522 178.253L0.828421 0H447.03C447.03 0 506.301 636.559 301.572 709.207C96.8421 781.855 447.03 905.306 447.03 905.306L438.924 909.229C428.299 914.252 414.31 932.365 414.31 932.365C414.31 932.365 407.814 949.498 410.517 975.598C413.234 1001.84 413.775 1039 411.62 1051.62C407.126 1077.95 398.978 1094.7 384.578 1107.22C380.582 1110.71 376.179 1113.76 371.454 1116.31C368.271 1117.79 359.118 1122.02 351.115 1125.7C319.628 1140.15 293.545 1162.91 281.111 1186.75C275.613 1197.29 273.515 1205.36 273.515 1215.89C273.515 1244.36 291.88 1264.71 341.42 1291.14C348.238 1294.77 369.374 1305.28 388.393 1314.47C418.014 1328.8 433.653 1337.43 444.622 1345.51L447.052 1347.3L446.778 1464.94L446.505 1582.57L440.037 1576.35H440.026Z" fill="#A6D6C4"/>
</svg>
