<svg width="445" height="3324" viewBox="0 0 445 3324" fill="none" xmlns="http://www.w3.org/2000/svg">
<path d="M0 2891.27V2458.55L13.7047 2450.57C39.3856 2435.62 56.1559 2421.17 69.3703 2402.59C81.1779 2385.98 86.0309 2372.88 86.1084 2357.38C86.204 2338.69 78.7465 2324.49 62.8792 2313.14C54.2415 2306.97 49.6206 2304.67 39.6382 2301.58C30.5609 2298.77 15.5309 2291.68 6.82332 2286.1L0.0515944 2281.76L0.0268715 1909.87L0 1537.99L6.71798 1540.93C16.9906 1545.43 25.1177 1547.11 39.233 1547.68C49.5217 1548.09 54.1975 1547.79 62.3429 1546.19C92.5738 1540.26 119.562 1523.25 138.898 1497.92C141.983 1494.11 145.375 1490.55 149.044 1487.25C165.563 1472.49 181.874 1465.86 232.173 1453.4C258.797 1446.81 269.181 1443.29 278.01 1437.86C288.839 1431.18 293.535 1424.83 295.707 1413.93C298.624 1399.26 294.004 1549.11 283.99 1540.81C266.803 1526.56 240.372 1519.47 155.851 1506.44C137.82 1503.67 118.424 1500.27 112.748 1498.92C70.2636 1488.72 31.5326 1468.84 6.7126 1444.46L0 1437.87V367.851L3.80399 364.709C12.0032 357.933 25.8045 353.536 38.975 353.499C42.3792 353.488 52.2949 354.436 61.01 355.604C78.94 358.006 95.9542 357.808 106.953 355.067C129.899 349.35 146.707 334.404 153.098 314.036C157.325 300.563 157.29 279.053 153.003 262.455C146.046 235.482 123.798 217.812 88.4935 211.219C68.9372 207.57 30.9564 209.118 8.44638 214.487C6.06058 215.103 3.63781 215.587 1.19096 215.933C0.341811 215.933 0 204.214 0 174.971V0H444.999V605.252C444.999 1070.63 444.974 1076.5 442.915 1077.12C438.192 1078.52 428.814 1089.14 417.534 1105.83C394.495 1139.92 390.269 1143.43 357.5 1155.59C333.745 1164.41 326.973 1167.71 319.638 1174.02C309.611 1182.63 305.583 1194.47 307.555 1209.52C310.134 1229.16 325.908 1243.42 358.7 1255.75C363.304 1257.48 375.778 1261.98 386.419 1265.74C414.617 1275.72 432.339 1284.3 441.507 1292.4L445 1295.49V3324H0V2891.27Z" fill="#75B49C"/>
</svg>
