<svg xmlns="http://www.w3.org/2000/svg" width="392" height="138" fill="none" viewBox="0 0 392 138"><g id="accessories/Glasses 5"><path id="🖍 Ink" fill="#000" fill-rule="evenodd" d="M352.985 106.395c-15.008 7.228-35.946-3.433-46.037-14.6-3.673-4.066-6.507-15.699-5.094-23.077 3.827-19.98 18.207-31.973 33.388-36.068 21.044-5.678 42.222 8.706 39.753 25.68-2.341 16.087-5.888 39.422-22.01 48.065M250.834 68.013c-1.203 21.775-18.69 40.834-39.59 46.481-33.674 9.396-50.316-14.275-57.854-39.776-.749-2.534-2.51-10.268 2.215-16.902 18.583-26.095 63.796-21.647 86.378-14.483 6.61 6.321 9.312 15.444 8.851 24.68m118.457-37.557-.032.037c-.077-.047-.153-.095-.232-.14.087.035.179.066.264.103m28.174 2.517c-1.956-22.17-71.519-13.68-79.652-11.864-22.196 6.528-41.367 24.288-66.183 16.481-25.713-28.663-112.302-20.443-130.454-5.842-3.436-1.348-7.614-.625-12.041.647-22.734-.82-126.518 7.016-105.29 36.031 3.222 2.235 6.441-.039 6.53-4.643 110.663-39.947 99.936-2.53 113.06-6.9 2.004.577 4.095.942 5.924 1.326 10.158 3.268 13.607 2.258 14.945 13.661 9.193 88.051 126.448 57.661 116.831-14.563 9.522-.524 17.851-4.64 27.92-.62 6.991 68.036 61.742 70.782 78.219 47.197 12.425-16.37 7.498-41.074 24.577-53.952 6.742 5.642 7.176-13.4 5.614-16.959" clip-rule="evenodd"/></g></svg>