<svg xmlns="http://www.w3.org/2000/svg" width="392" height="138" fill="none" viewBox="0 0 392 138"><g id="accessories/Glasses 5"><path id="🖍 Ink" fill="#000" fill-rule="evenodd" d="M367.09 74.432c-2.828 7.696-7.132 15.708-12.395 22.185-21.294 18.032-41.985 8.048-52.491-16.39-3.992-17.272 6.607-35.876 17.838-48.58 16.22-16.258 42.691-7.726 50.149 11.6.453 2.504.727 5.002.858 7.492-.155 8.091-1.13 15.006-3.959 22.693m-204.68-14.52c28.052-33.368 80.532-35.152 79.193 16.203-6.026 65.004-107.497 49.049-79.193-16.204Zm213.503-27.836a46.738 46.738 0 0 0-3.265-4.817c-.44-.262-.693-2.586-2.311-2.758-21.627-23.859-59.62-10.322-73.348 13.452-2.507 3.006-4.552 6.525-6.06 10.243-13.526-2.48-29.295-1.999-41.875 3.11-12.474-32.572-50.239-35.48-75.126-21.563-15.479 7.613-25.516 23.556-40.57 32.314-35.39 2.547-73.37-5.382-108.12 3.495-27.406 5.698-4.496 19.575.1 10.314 32.763-9.68 71.578-1.5 105.595-3.68 3.537 5.982 10.32 10.878 17.08 10.67 7.301 64.72 101.685 53.988 104.941-3.545 3.693-5.839 8.286-11.427 14.86-15.065 2.517-.52 4.948-1.198 7.17-2.246 3.798-.536 9.65 1.074 13.144 4.236 11.969 71.816 80.924 63.452 93.247.538.245-.25.93-1.188 1.456-2.693 4.218-5.577 14.544-7.65 12.894-17.065-1.469-9.417-13.361-9.305-19.812-14.94Z" clip-rule="evenodd"/></g></svg>