<svg xmlns="http://www.w3.org/2000/svg" width="392" height="138" fill="none" viewBox="0 0 392 138"><g id="accessories/Glasses 4" fill-rule="evenodd" clip-rule="evenodd"><path id="🎨 Background" fill="#fff" d="M370.267 94.081c-9.179 11.469-45.116 24.2-64.242 10.38-19.127-13.82-26.685-23.45-29.242-40.72-.272-1.84-3.602-3.065-5.009-1.758-7.881 7.32-12.983 16.644-18.037 25.991-5.701 10.542-11.315 21.149-21.674 28.286-18.349 9.835-51.543 11.236-61.349 6.897-18.786-8.31-33.647-26.084-37.026-50.544 0 0-3.438-10.85-6.449-13.133-2.854-2.164-18.607-4.092-20.332-4.412-31.1-5.77-70.432-9.449-98.13 10.852C5.026 68.186-7.806 76.7-7.996 74.606c-.134-8.2 9.157-26.757 30.29-35.587 26.131-10.92 64.976-11.558 87.48-9.149 1.132.121 4.99-.826 5.262-.945 34.094-14.76 73.323-10.84 109.803-4.636 5.227 1.014 52.024 12.602 70.638 5.581 30.776-12.564 63.589-21.666 96.824-18.085.278.03 4.474 25.496 1.205 27.234-2.601 1.382-7.027 4.925-8.599 6.864-1.405 1.733-2.291 3.888-2.212 6.873.632 17.27-4.296 31.165-12.429 41.325ZM243.729 78.672c3.902-5.645 5.133-18.326 3.5-27.577-.828-4.684-2.434-8.413-4.45-10.269-1.34-1.233-2.868-1.814-4.536-1.728-.914.047-1.904.307-2.952.873-14.194-7.678-31.388-10.442-47.687-9.647-12.974-.003-22.232 3.06-28.509 7.827-7.554 5.736-10.957 13.982-11.154 22.925-.234 10.612 4.125 22.221 11.276 31.407 6.845 8.792 16.207 15.31 26.365 16.814 11.53 2.289 23.281.075 33.497-5.342 10.478-5.556 19.329-14.478 24.65-25.283Zm113.779 5.987c6.576-7.772 10.949-17.882 11.615-27.9.606-9.116-1.835-18.146-8.585-25.61-6.119-5.251-16.932-5.338-28.307-2.414-14.708 3.782-29.923 12.234-34.996 17.693-1.194.626-2.303 1.717-3.269 4.057l-.007.834c-1.537 7.087-.625 14.278 2.033 20.912 2.887 7.206 7.839 13.748 13.877 18.74 8.021 6.608 16.395 8.63 24.233 7.563 8.878-1.208 17.133-6.463 23.406-13.875Z"/><path id="🖍 Ink" fill="#000" d="M294.419 27.063c31.165-12.724 64.478-21.895 98.204-18.26 2.789-1.062 6.251-.168 7.487 3.776 12.013 36.595-14.776 26.418-14.416 40.098 2.808 76.703-100.287 89.802-111.879 11.504l-.213.126c-16.678 15.563-20.191 40.888-39.838 54.423-39.633 28.985-95.815 6.02-103.031-45.58l-.157-.698c-2.422-10.53-5.318-13.142-17.265-13.09l-1.887-.375c-31.04-6.115-72.372-11.61-100.96 9.42-6.219 3.616-6.51 12.912-11.765 16.951-5.756 1.118-9.302-5.805-9.692-10.596-.912-47.763 84.558-51.199 122.836-47.1.731-.757 2.292-.663 2.818.28 34.618-14.988 73.619-12.914 110.685-6.61 22.961 4.444 45.639 14.57 69.073 5.731Zm95.101-9.443c-18.701-.935-35.999.088-54.355 4.583-9.674 2.334-17.098 5.285-26.358 8.834-57.758 25.59-64.42-19.896-193.888-2.066 1.675 7.174 1.983 14.277 2.073 21.017 26.435-1.065 20.211 24.177 30.115 41.906l.305.535c14.434 25.868 48.494 37.934 75.969 20.776 22.922-13.36 25.158-47.245 47.98-60.693 19.783-.778 11.881 25.922 22.647 36.896 15.154 20.221 47.365 23.048 66.367 4.028 8.915-9.152 13.653-20.772 13.915-33.256.497-7.976-.871-16.08 5.159-21.69 4.227-4.295 11.737-2.862 12.599-9.353.548-3.838-1.048-8-2.528-11.517ZM186.28 28.074c18.577-.915 38.233 2.311 54.184 11.422 11.807-9.396 14.7 27.946 6.863 38.747-11.291 23.102-37.578 38.291-62.889 33.247-39.486-5.722-66.998-83.484 1.842-83.415Zm53.05 13.927-1.011-.148c-17.112-2.611-63.707-14.708-81.678 4.384-17.441 31.67 26.806 84.863 72.851 42.494 12.815-13.047 17.782-28.868 9.838-46.73Zm54.229 4.047c8.862-10.493 54.027-31.747 69.77-18.108 28.733 32.201-16.834 97.334-55 65.601-12.712-10.607-21.075-27.507-17.415-43.872l.006-.686c.008-.249.054-.192.32-.502.471-1.237 1.319-2.027 2.319-2.433Zm69.369 19.517c9.69-52.557-30.809-32.577-64.069-18.549 1.785 1.631 1.777 3.858 1.264 5.688-3.508 38.996 43.889 61.094 62.805 12.861ZM111.171 30.216C97.298 34.914 5.537 26.512-2.939 69.526 6.007 55.03 24.54 49.276 41.2 46.154c22.66-4.247 45.197-1.788 67.54 2.681l.462-4.624c.495-4.905 1.018-9.493 1.968-13.995Z"/></g></svg>